<svg xmlns="http://www.w3.org/2000/svg" viewBox="0 0 1200 1200"><defs><style>.cls-1{opacity:0.15;}.cls-2{fill:#1f1719;}.cls-3{fill:#5c786c;}.cls-4{fill:#68877a;}.cls-5{fill:#879d8f;}.cls-6{fill:#6e493c;opacity:0.85;}</style></defs><title>404</title><g id="_404" data-name="404"><g class="cls-1"><path class="cls-2" d="M1013.52,607.19,971.18,643.6l-43.48-56a5,5,0,0,0-7.14-.72L812.65,679.65l-33,28.39-107.91,92.8a5,5,0,0,0-.36,7.17L964.63,1116.3a5,5,0,0,0,6.82.34l91.73-78.88,33-28.39,91.72-78.88a4.94,4.94,0,0,0,.69-6.79l-72.24-93.06,51.34-44.15a39.92,39.92,0,0,0,4.24-56.29L1069.81,611.43A39.92,39.92,0,0,0,1013.52,607.19Zm112.66,129.9a27.27,27.27,0,0,1-2.89,38.46l-29.8,25.62L994.05,673.06l23.63-20.32a27.27,27.27,0,0,1,38.46,2.9Z"/><path class="cls-2" d="M923.91,594.18c2.62-4.11,3.55-6.88,2.54-8-5-5.86-57.56,44.52-138,98.4,0,0-115,77-119.94,108.57-.46,3-1.69,10.9,2,13.16,2.49,1.53,6.23-.14,8.35-1.31,11.75-18.45,57.6-64,115.42-113.68S903.91,603,923.91,594.18Z"/><path class="cls-2" d="M923.91,594.18c-20,8.86-71.86,47.38-129.68,97.09S690.56,786.5,678.81,805c20-8.86,71.86-47.37,129.68-97.09S912.16,612.63,923.91,594.18Z"/><path class="cls-2" d="M1187.89,932.5c2.17-3.72,2.87-6.29,1.86-7.46-5.54-6.44-60.09,31.38-121.84,84.49S960.59,1110.9,966.13,1117.34c1,1.18,3.65.87,7.65-.71,9.75-16.73,49.42-56.92,99.93-100.36S1169.9,939.63,1187.89,932.5Z"/><path class="cls-2" d="M1187.89,932.5c-18,7.13-63.68,40.34-114.18,83.77s-90.18,83.63-99.93,100.36c18-7.13,63.68-40.34,114.19-83.77S1178.15,949.23,1187.89,932.5Z"/></g><path class="cls-3" d="M1011.55,594l-42.34,36.4-43.48-56a5,5,0,0,0-7.15-.72L810.67,666.5l-33,28.39L669.75,787.68a5,5,0,0,0-.36,7.17l293.27,308.3a5,5,0,0,0,6.81.34l91.73-78.88,33-28.39,91.73-78.88a5,5,0,0,0,.68-6.79l-72.23-93.07,51.34-44.15a39.91,39.91,0,0,0,4.24-56.28L1067.83,598.28A39.9,39.9,0,0,0,1011.55,594Zm112.66,129.89a27.28,27.28,0,0,1-2.9,38.47L1091.52,788,992.08,659.91l23.63-20.32a27.26,27.26,0,0,1,38.46,2.9Z"/><path class="cls-4" d="M921.94,581c-20,8.85-71.87,47.37-129.68,97.09S688.59,773.35,676.84,791.8c20-8.86,71.86-47.38,129.68-97.1S910.18,599.48,921.94,581Z"/><path class="cls-3" d="M1185.92,919.35c2.17-3.72,2.86-6.29,1.86-7.46-5.55-6.45-60.1,31.38-121.85,84.48s-107.32,101.38-101.78,107.82c1,1.17,3.65.87,7.66-.72,9.74-16.72,49.42-56.92,99.92-100.35S1167.92,926.48,1185.92,919.35Z"/><path class="cls-3" d="M1185.92,919.35c-18,7.13-63.68,40.34-114.19,83.77s-90.18,83.63-99.92,100.35c18-7.13,63.68-40.33,114.19-83.77S1176.18,936.08,1185.92,919.35Z"/><path class="cls-5" d="M930,579.76c-1-1.15-4.53-5.63-5.53-6.79-5.54-6.44-67.34,37.61-138,98.4S663,786.66,668.49,793.1c1,1.15,4.53,5.63,5.53,6.79,5.54,6.44,67.34-37.61,138-98.4S935.55,586.2,930,579.76Zm-123.76,115c-57.49,49.44-109.08,87.79-129.33,96.94,11.87-18.53,57.64-63.95,115.34-113.56,57.48-49.43,109.08-87.79,129.33-96.93C909.71,599.71,863.94,645.13,806.25,694.74Z"/><path class="cls-6" d="M903.21,603.57c-46.94-33.87-68.72-68.65-79.92-94.37C814,487.88,816,482.05,801,428.07,785.34,372,780.46,368.54,766.5,320.58,739.85,229,752.36,223.29,732,188.75c-23.85-40.5-71.31-84-109.52-75-27.57,6.47-24.36,34.17-58.81,54.76-41.61,24.86-100.6,16.89-139.94-4.06-62-33-54.39-87.22-101.41-99.38-44-11.38-97.48,24-125.75,60.85-55.66,72.56-2.68,136.57-54.76,204.84C95.17,391.89,27.57,373.36,10,426-5.81,473.5,34.5,532.15,68.82,561.93c49.11,42.6,111.73,48.49,178.48,54.76,86.74,8.15,113.48-9.23,152.11,18.25,32.13,22.86,34.36,49.62,73,64.9,30.91,12.22,49.08,2.85,79.1,6.09,32.29,3.47,76.2,21.31,125.32,85.87,5.83-3.28,14.53-8.32,24.83-14.85,15.62-9.9,34.24-22.82,83.63-64.47,30.3-25.54,47.49-40,71.34-62.58C875.65,631.94,891.34,616,903.21,603.57Z"/></g></svg>