<?xml version="1.0" encoding="utf-8"?>
<!-- Generator: Adobe Illustrator 23.0.1, SVG Export Plug-In . SVG Version: 6.00 Build 0)  -->
<svg version="1.1" id="Layer_1" xmlns="http://www.w3.org/2000/svg" xmlns:xlink="http://www.w3.org/1999/xlink" x="0px" y="0px"
	 viewBox="0 0 1800 864" style="enable-background:new 0 0 1800 864;" xml:space="preserve">
<style type="text/css">
	.st0{opacity:0.15;fill:#1F1719;enable-background:new    ;}
	.st1{fill:#C5BFB9;}
	.st2{fill:#B4AEA8;}
	.st3{fill:#FFFFFF;}
	.st4{fill:#E8E8E8;}
	.st5{fill:#B4ABA5;}
	.st6{fill:#A39B95;}
	.st7{fill:#A47DB0;}
	.st8{fill:#B489C1;}
	.st9{fill:#333333;}
	.st10{fill:#EECE80;}
	.st11{fill:#E9BD5C;}
	.st12{fill:none;stroke:#3D3A31;stroke-width:5.4746;stroke-linecap:round;stroke-miterlimit:10;}
	.st13{fill:#3D3A31;}
	.st14{opacity:0.15;}
	.st15{fill:#1F1719;}
	.st16{opacity:4.000000e-02;fill:#1F1719;enable-background:new    ;}
	.st17{opacity:4.000000e-02;fill:#4C4444;enable-background:new    ;}
	.st18{opacity:0.14;}
	.st19{fill:#4C4444;}
</style>
<g>
	<path class="st0" d="M9.8,241.5H1363l0,0v599.7c0,12.3-10,22.3-22.3,22.3H32.1c-12.3,0-22.3-10-22.3-22.3L9.8,241.5L9.8,241.5
		L9.8,241.5z"/>
	<path class="st1" d="M9.8,218H1363l0,0v599.7c0,12.3-10,22.3-22.3,22.3H32.1c-12.3,0-22.3-10-22.3-22.3l0,0L9.8,218L9.8,218
		L9.8,218z"/>
	<g>
		<path class="st2" d="M35.4,310.1h70.8c2,0,3.7,1.7,3.7,3.7v41c0,2-1.7,3.7-3.7,3.7H35.4c-2,0-3.7-1.7-3.7-3.7v-41
			C31.7,311.7,33.3,310.1,35.4,310.1z"/>
		<path class="st2" d="M35.4,374.1h66.1c2,0,3.7,1.7,3.7,3.7v66.1c0,2-1.7,3.7-3.7,3.7H35.4c-2,0-3.7-1.7-3.7-3.7v-66.1
			C31.7,375.8,33.3,374.1,35.4,374.1z"/>
		<path class="st2" d="M35.4,463.3h118c2,0,3.7,1.7,3.7,3.7v66.1c0,2-1.7,3.7-3.7,3.7h-118c-2,0-3.7-1.7-3.7-3.7V467
			C31.7,465,33.3,463.3,35.4,463.3z"/>
		<path class="st2" d="M35.4,552.5h137.3c2,0,3.7,1.7,3.7,3.7v66.1c0,2-1.7,3.7-3.7,3.7H35.4c-2,0-3.7-1.7-3.7-3.7v-66.1
			C31.7,554.2,33.3,552.5,35.4,552.5z"/>
		<path class="st2" d="M130.2,374.1h66.1c2,0,3.7,1.7,3.7,3.7v66.1c0,2-1.7,3.7-3.7,3.7h-66.1c-2,0-3.7-1.7-3.7-3.7v-66.1
			C126.5,375.8,128.2,374.1,130.2,374.1z"/>
		<path class="st2" d="M175.5,463.3h66.1c2,0,3.7,1.7,3.7,3.7v66.1c0,2-1.7,3.7-3.7,3.7h-66.1c-2,0-3.7-1.7-3.7-3.7V467
			C171.8,465,173.5,463.3,175.5,463.3z"/>
		<path class="st2" d="M264.6,463.3h66.1c2,0,3.7,1.7,3.7,3.7v66.1c0,2-1.7,3.7-3.7,3.7h-66.1c-2,0-3.7-1.7-3.7-3.7V467
			C260.9,465,262.6,463.3,264.6,463.3z"/>
		<path class="st2" d="M354.8,463.3h66.1c2,0,3.7,1.7,3.7,3.7v66.1c0,2-1.7,3.7-3.7,3.7h-66.1c-2,0-3.7-1.7-3.7-3.7V467
			C351.1,465,352.7,463.3,354.8,463.3z"/>
		<path class="st2" d="M446.5,463.3h66.1c2,0,3.7,1.7,3.7,3.7v66.1c0,2-1.7,3.7-3.7,3.7h-66.1c-2,0-3.7-1.7-3.7-3.7V467
			C442.8,465,444.5,463.3,446.5,463.3z"/>
		<path class="st2" d="M537.2,463.3h66.1c2,0,3.7,1.7,3.7,3.7v66.1c0,2-1.7,3.7-3.7,3.7h-66.1c-2,0-3.7-1.7-3.7-3.7V467
			C533.5,465,535.1,463.3,537.2,463.3z"/>
		<path class="st2" d="M627.7,463.3h66.1c2,0,3.7,1.7,3.7,3.7v66.1c0,2-1.7,3.7-3.7,3.7h-66.1c-2,0-3.7-1.7-3.7-3.7V467
			C624,465,625.7,463.3,627.7,463.3z"/>
		<path class="st2" d="M723.8,463.3h66.1c2,0,3.7,1.7,3.7,3.7v66.1c0,2-1.7,3.7-3.7,3.7h-66.1c-2,0-3.7-1.7-3.7-3.7V467
			C720.1,465,721.8,463.3,723.8,463.3z"/>
		<path class="st2" d="M198.7,552.5h66.1c2,0,3.7,1.7,3.7,3.7v66.1c0,2-1.7,3.7-3.7,3.7h-66.1c-2,0-3.7-1.7-3.7-3.7v-66.1
			C195,554.2,196.7,552.5,198.7,552.5z"/>
		<path class="st2" d="M287.8,552.5h66.1c2,0,3.7,1.7,3.7,3.7v66.1c0,2-1.7,3.7-3.7,3.7h-66.1c-2,0-3.7-1.7-3.7-3.7v-66.1
			C284.1,554.2,285.8,552.5,287.8,552.5z"/>
		<path class="st2" d="M378,552.5h66.1c2,0,3.7,1.7,3.7,3.7v66.1c0,2-1.7,3.7-3.7,3.7H378c-2,0-3.7-1.7-3.7-3.7v-66.1
			C374.3,554.2,375.9,552.5,378,552.5z"/>
		<path class="st2" d="M469.7,552.5h66.1c2,0,3.7,1.7,3.7,3.7v66.1c0,2-1.7,3.7-3.7,3.7h-66.1c-2,0-3.7-1.7-3.7-3.7v-66.1
			C466,554.2,467.7,552.5,469.7,552.5z"/>
		<path class="st2" d="M560.4,552.5h66.1c2,0,3.7,1.7,3.7,3.7v66.1c0,2-1.7,3.7-3.7,3.7h-66.1c-2,0-3.7-1.7-3.7-3.7v-66.1
			C556.7,554.2,558.3,552.5,560.4,552.5z"/>
		<path class="st2" d="M650.9,552.5H717c2,0,3.7,1.7,3.7,3.7v66.1c0,2-1.7,3.7-3.7,3.7h-66.1c-2,0-3.7-1.7-3.7-3.7v-66.1
			C647.2,554.2,648.9,552.5,650.9,552.5z"/>
		<path class="st2" d="M747,552.5h66.1c2,0,3.7,1.7,3.7,3.7v66.1c0,2-1.7,3.7-3.7,3.7H747c-2,0-3.7-1.7-3.7-3.7v-66.1
			C743.3,554.2,745,552.5,747,552.5z"/>
		<path class="st2" d="M833.7,552.5h66.1c2,0,3.7,1.7,3.7,3.7v66.1c0,2-1.7,3.7-3.7,3.7h-66.1c-2,0-3.7-1.7-3.7-3.7v-66.1
			C830,554.2,831.7,552.5,833.7,552.5z"/>
		<path class="st2" d="M925.5,552.5h66.1c2,0,3.7,1.7,3.7,3.7v66.1c0,2-1.7,3.7-3.7,3.7h-66.1c-2,0-3.7-1.7-3.7-3.7v-66.1
			C921.8,554.2,923.4,552.5,925.5,552.5z"/>
		<path class="st2" d="M1016.1,552.5h66.1c2,0,3.7,1.7,3.7,3.7v66.1c0,2-1.7,3.7-3.7,3.7h-66.1c-2,0-3.7-1.7-3.7-3.7v-66.1
			C1012.4,554.2,1014.1,552.5,1016.1,552.5z"/>
		<path class="st2" d="M1106.7,552.5h66.1c2,0,3.7,1.7,3.7,3.7v66.1c0,2-1.7,3.7-3.7,3.7h-66.1c-2,0-3.7-1.7-3.7-3.7v-66.1
			C1103,554.2,1104.6,552.5,1106.7,552.5z"/>
		<path class="st2" d="M1202.8,552.5h66.1c2,0,3.7,1.7,3.7,3.7v66.1c0,2-1.7,3.7-3.7,3.7h-66.1c-2,0-3.7-1.7-3.7-3.7v-66.1
			C1199.1,554.2,1200.7,552.5,1202.8,552.5z"/>
		<path class="st2" d="M696.8,641.7h66.1c2,0,3.7,1.7,3.7,3.7v66.1c0,2-1.7,3.7-3.7,3.7h-66.1c-2,0-3.7-1.7-3.7-3.7v-66.1
			C693.1,643.4,694.7,641.7,696.8,641.7z"/>
		<path class="st2" d="M788.5,641.7h66.1c2,0,3.7,1.7,3.7,3.7v66.1c0,2-1.7,3.7-3.7,3.7h-66.1c-2,0-3.7-1.7-3.7-3.7v-66.1
			C784.8,643.4,786.4,641.7,788.5,641.7z"/>
		<path class="st2" d="M879.2,641.7h66.1c2,0,3.7,1.7,3.7,3.7v66.1c0,2-1.7,3.7-3.7,3.7h-66.1c-2,0-3.7-1.7-3.7-3.7v-66.1
			C875.5,643.4,877.1,641.7,879.2,641.7z"/>
		<path class="st2" d="M969.7,641.7h66.1c2,0,3.7,1.7,3.7,3.7v66.1c0,2-1.7,3.7-3.7,3.7h-66.1c-2,0-3.7-1.7-3.7-3.7v-66.1
			C966,643.4,967.7,641.7,969.7,641.7z"/>
		<path class="st2" d="M1065.8,641.7h66.1c2,0,3.7,1.7,3.7,3.7v66.1c0,2-1.7,3.7-3.7,3.7h-66.1c-2,0-3.7-1.7-3.7-3.7v-66.1
			C1062.1,643.4,1063.8,641.7,1065.8,641.7z"/>
		<path class="st2" d="M997.6,730.9h66.1c2,0,3.7,1.7,3.7,3.7v77c0,2-1.7,3.7-3.7,3.7h-66.1c-2,0-3.7-1.7-3.7-3.7v-77
			C993.9,732.6,995.5,730.9,997.6,730.9z"/>
		<path class="st2" d="M1180.2,737h63.5c2,0,3.7,1.7,3.7,3.7V765c0,2-1.7,3.7-3.7,3.7h-63.5c-2,0-3.7-1.7-3.7-3.7v-24.3
			C1176.5,738.7,1178.1,737,1180.2,737z"/>
		<path class="st2" d="M883.3,730.9h87.9c2,0,3.7,1.7,3.7,3.7v77c0,2-1.7,3.7-3.7,3.7h-87.9c-2,0-3.7-1.7-3.7-3.7v-77
			C879.6,732.6,881.2,730.9,883.3,730.9z"/>
		<path class="st2" d="M422.9,730.9h437.8c2,0,3.7,1.7,3.7,3.7v77c0,2-1.7,3.7-3.7,3.7H422.9c-2,0-3.7-1.7-3.7-3.7v-77
			C419.2,732.6,420.9,730.9,422.9,730.9z"/>
		<path class="st2" d="M1160.6,641.7h178c2,0,3.7,1.7,3.7,3.7v66.1c0,2-1.7,3.7-3.7,3.7h-178c-2,0-3.7-1.7-3.7-3.7v-66.1
			C1156.9,643.4,1158.5,641.7,1160.6,641.7z"/>
		<path class="st2" d="M240.5,641.7h66.1c2,0,3.7,1.7,3.7,3.7v66.1c0,2-1.7,3.7-3.7,3.7h-66.1c-2,0-3.7-1.7-3.7-3.7v-66.1
			C236.8,643.4,238.5,641.7,240.5,641.7z"/>
		<path class="st2" d="M152,641.7h66.1c2,0,3.7,1.7,3.7,3.7v66.1c0,2-1.7,3.7-3.7,3.7H152c-2,0-3.7-1.7-3.7-3.7v-66.1
			C148.3,643.4,150,641.7,152,641.7z"/>
		<path class="st2" d="M35.4,641.7h92c2,0,3.7,1.7,3.7,3.7v66.1c0,2-1.7,3.7-3.7,3.7h-92c-2,0-3.7-1.7-3.7-3.7v-66.1
			C31.7,643.4,33.3,641.7,35.4,641.7z"/>
		<path class="st2" d="M35.4,730.9h65c2,0,3.7,1.7,3.7,3.7v77c0,2-1.7,3.7-3.7,3.7h-65c-2,0-3.7-1.7-3.7-3.7v-77
			C31.7,732.6,33.3,730.9,35.4,730.9z"/>
		<path class="st2" d="M124.5,730.9h65c2,0,3.7,1.7,3.7,3.7v77c0,2-1.7,3.7-3.7,3.7h-65c-2,0-3.7-1.7-3.7-3.7v-77
			C120.8,732.6,122.5,730.9,124.5,730.9z"/>
		<path class="st2" d="M220.6,730.9h65c2,0,3.7,1.7,3.7,3.7v77c0,2-1.7,3.7-3.7,3.7h-65c-2,0-3.7-1.7-3.7-3.7v-77
			C216.9,732.6,218.6,730.9,220.6,730.9z"/>
		<path class="st2" d="M314,730.9h84.3c2,0,3.7,1.7,3.7,3.7v77c0,2-1.7,3.7-3.7,3.7H314c-2,0-3.7-1.7-3.7-3.7v-77
			C310.3,732.6,312,730.9,314,730.9z"/>
		<path class="st2" d="M332.3,641.7h66.1c2,0,3.7,1.7,3.7,3.7v66.1c0,2-1.7,3.7-3.7,3.7h-66.1c-2,0-3.7-1.7-3.7-3.7v-66.1
			C328.6,643.4,330.2,641.7,332.3,641.7z"/>
		<path class="st2" d="M422.9,641.7H489c2,0,3.7,1.7,3.7,3.7v66.1c0,2-1.7,3.7-3.7,3.7h-66.1c-2,0-3.7-1.7-3.7-3.7v-66.1
			C419.2,643.4,420.9,641.7,422.9,641.7z"/>
		<path class="st2" d="M513.5,641.7h66.1c2,0,3.7,1.7,3.7,3.7v66.1c0,2-1.7,3.7-3.7,3.7h-66.1c-2,0-3.7-1.7-3.7-3.7v-66.1
			C509.8,643.4,511.4,641.7,513.5,641.7z"/>
		<path class="st2" d="M609.6,641.7h66.1c2,0,3.7,1.7,3.7,3.7v66.1c0,2-1.7,3.7-3.7,3.7h-66.1c-2,0-3.7-1.7-3.7-3.7v-66.1
			C605.9,643.4,607.5,641.7,609.6,641.7z"/>
		<path class="st2" d="M809.8,463.3h66.1c2,0,3.7,1.7,3.7,3.7v66.1c0,2-1.7,3.7-3.7,3.7h-66.1c-2,0-3.7-1.7-3.7-3.7V467
			C806.1,465,807.7,463.3,809.8,463.3z"/>
		<path class="st2" d="M905.1,463.3h66.1c2,0,3.7,1.7,3.7,3.7v66.1c0,2-1.7,3.7-3.7,3.7h-66.1c-2,0-3.7-1.7-3.7-3.7V467
			C901.4,465,903,463.3,905.1,463.3z"/>
		<path class="st2" d="M997.6,463.3h66.1c2,0,3.7,1.7,3.7,3.7v66.1c0,2-1.7,3.7-3.7,3.7h-66.1c-2,0-3.7-1.7-3.7-3.7V467
			C993.9,465,995.5,463.3,997.6,463.3z"/>
		<path class="st2" d="M1087.1,463.3h66.1c2,0,3.7,1.7,3.7,3.7v66.1c0,2-1.7,3.7-3.7,3.7h-66.1c-2,0-3.7-1.7-3.7-3.7V467
			C1083.4,465,1085,463.3,1087.1,463.3z"/>
		<path class="st2" d="M1177.6,463.3h66.1c2,0,3.7,1.7,3.7,3.7v66.1c0,2-1.7,3.7-3.7,3.7h-66.1c-2,0-3.7-1.7-3.7-3.7V467
			C1173.9,465,1175.5,463.3,1177.6,463.3z"/>
		<path class="st2" d="M1338.1,463.3h-67.6c-2.3,0-4.1,1.8-4.1,4.1v65.2c0,2.3,1.9,4.1,4.1,4.1l0,0h19.1v79c0,2.3,1.9,4.1,4.1,4.1
			l0,0h44.4c2.3,0,4.1-1.9,4.1-4.1v0V467.5C1342.2,465.2,1340.4,463.3,1338.1,463.3L1338.1,463.3z"/>
		<path class="st2" d="M225.5,374.1h66.1c2,0,3.7,1.7,3.7,3.7v66.1c0,2-1.7,3.7-3.7,3.7h-66.1c-2,0-3.7-1.7-3.7-3.7v-66.1
			C221.8,375.8,223.5,374.1,225.5,374.1z"/>
		<path class="st2" d="M318,374.1h66.1c2,0,3.7,1.7,3.7,3.7v66.1c0,2-1.7,3.7-3.7,3.7H318c-2,0-3.7-1.7-3.7-3.7v-66.1
			C314.3,375.8,316,374.1,318,374.1z"/>
		<path class="st2" d="M495.9,374.1H562c2,0,3.7,1.7,3.7,3.7v66.1c0,2-1.7,3.7-3.7,3.7h-66.1c-2,0-3.7-1.7-3.7-3.7v-66.1
			C492.2,375.8,493.8,374.1,495.9,374.1z"/>
		<path class="st2" d="M588.3,374.1h66.1c2,0,3.7,1.7,3.7,3.7v66.1c0,2-1.7,3.7-3.7,3.7h-66.1c-2,0-3.7-1.7-3.7-3.7v-66.1
			C584.6,375.8,586.3,374.1,588.3,374.1z"/>
		<path class="st2" d="M677.8,374.1h66.1c2,0,3.7,1.7,3.7,3.7v66.1c0,2-1.7,3.7-3.7,3.7h-66.1c-2,0-3.7-1.7-3.7-3.7v-66.1
			C674.1,375.8,675.7,374.1,677.8,374.1z"/>
		<path class="st2" d="M767.3,374.1h66.1c2,0,3.7,1.7,3.7,3.7v66.1c0,2-1.7,3.7-3.7,3.7h-66.1c-2,0-3.7-1.7-3.7-3.7v-66.1
			C763.6,375.8,765.2,374.1,767.3,374.1z"/>
		<path class="st2" d="M862.3,374.1h66.1c2,0,3.7,1.7,3.7,3.7v66.1c0,2-1.7,3.7-3.7,3.7h-66.1c-2,0-3.7-1.7-3.7-3.7v-66.1
			C858.6,375.8,860.2,374.1,862.3,374.1z"/>
		<path class="st2" d="M951.7,374.1h66.1c2,0,3.7,1.7,3.7,3.7v66.1c0,2-1.7,3.7-3.7,3.7h-66.1c-2,0-3.7-1.7-3.7-3.7v-66.1
			C948,375.8,949.7,374.1,951.7,374.1z"/>
		<path class="st2" d="M1043.4,374.1h66.1c2,0,3.7,1.7,3.7,3.7v66.1c0,2-1.7,3.7-3.7,3.7h-66.1c-2,0-3.7-1.7-3.7-3.7v-66.1
			C1039.7,375.8,1041.4,374.1,1043.4,374.1z"/>
		<path class="st2" d="M1134,374.1h66.1c2,0,3.7,1.7,3.7,3.7v66.1c0,2-1.7,3.7-3.7,3.7H1134c-2,0-3.7-1.7-3.7-3.7v-66.1
			C1130.3,375.8,1132,374.1,1134,374.1z"/>
		<path class="st2" d="M1224.6,374.1h113.9c2,0,3.7,1.7,3.7,3.7v66.1c0,2-1.7,3.7-3.7,3.7h-113.9c-2,0-3.7-1.7-3.7-3.7v-66.1
			C1220.9,375.8,1222.6,374.1,1224.6,374.1z"/>
		<path class="st2" d="M403,374.1h66.1c2,0,3.7,1.7,3.7,3.7v66.1c0,2-1.7,3.7-3.7,3.7H403c-2,0-3.7-1.7-3.7-3.7v-66.1
			C399.3,375.8,401,374.1,403,374.1z"/>
		<path class="st2" d="M127.9,310.1h70.8c2,0,3.7,1.7,3.7,3.7v41c0,2-1.7,3.7-3.7,3.7h-70.8c-2,0-3.7-1.7-3.7-3.7v-41
			C124.2,311.7,125.8,310.1,127.9,310.1z"/>
		<path class="st2" d="M223.1,310.1H294c2,0,3.7,1.7,3.7,3.7v41c0,2-1.7,3.7-3.7,3.7h-70.8c-2,0-3.7-1.7-3.7-3.7v-41
			C219.4,311.7,221.1,310.1,223.1,310.1z"/>
		<path class="st2" d="M315.7,310.1h70.8c2,0,3.7,1.7,3.7,3.7v41c0,2-1.7,3.7-3.7,3.7h-70.8c-2,0-3.7-1.7-3.7-3.7v-41
			C312,311.7,313.6,310.1,315.7,310.1z"/>
		<path class="st2" d="M412.9,310.1h70.8c2,0,3.7,1.7,3.7,3.7v41c0,2-1.7,3.7-3.7,3.7h-70.8c-2,0-3.7-1.7-3.7-3.7v-41
			C409.2,311.7,410.8,310.1,412.9,310.1z"/>
		<path class="st2" d="M510.1,310.1h70.8c2,0,3.7,1.7,3.7,3.7v41c0,2-1.7,3.7-3.7,3.7h-70.8c-2,0-3.7-1.7-3.7-3.7v-41
			C506.4,311.7,508,310.1,510.1,310.1z"/>
		<path class="st2" d="M605.4,310.1h70.8c2,0,3.7,1.7,3.7,3.7v41c0,2-1.7,3.7-3.7,3.7h-70.8c-2,0-3.7-1.7-3.7-3.7v-41
			C601.7,311.7,603.3,310.1,605.4,310.1z"/>
		<path class="st2" d="M697.9,310.1h70.8c2,0,3.7,1.7,3.7,3.7v41c0,2-1.7,3.7-3.7,3.7h-70.8c-2,0-3.7-1.7-3.7-3.7v-41
			C694.2,311.7,695.8,310.1,697.9,310.1z"/>
		<path class="st2" d="M790.8,310.1h70.8c2,0,3.7,1.7,3.7,3.7v41c0,2-1.7,3.7-3.7,3.7h-70.8c-2,0-3.7-1.7-3.7-3.7v-41
			C787.1,311.7,788.7,310.1,790.8,310.1z"/>
		<path class="st2" d="M883.3,310.1h70.8c2,0,3.7,1.7,3.7,3.7v41c0,2-1.7,3.7-3.7,3.7h-70.8c-2,0-3.7-1.7-3.7-3.7v-41
			C879.6,311.7,881.2,310.1,883.3,310.1z"/>
		<path class="st2" d="M978.6,310.1h70.8c2,0,3.7,1.7,3.7,3.7v41c0,2-1.7,3.7-3.7,3.7h-70.8c-2,0-3.7-1.7-3.7-3.7v-41
			C974.9,311.7,976.5,310.1,978.6,310.1z"/>
		<path class="st2" d="M1071.1,310.1h70.8c2,0,3.7,1.7,3.7,3.7v41c0,2-1.7,3.7-3.7,3.7h-70.8c-2,0-3.7-1.7-3.7-3.7v-41
			C1067.4,311.7,1069,310.1,1071.1,310.1z"/>
		<path class="st2" d="M1175.2,310.1h70.8c2,0,3.7,1.7,3.7,3.7v41c0,2-1.7,3.7-3.7,3.7h-70.8c-2,0-3.7-1.7-3.7-3.7v-41
			C1171.5,311.7,1173.1,310.1,1175.2,310.1z"/>
		<path class="st2" d="M1267.7,310.1h70.8c2,0,3.7,1.7,3.7,3.7v41c0,2-1.7,3.7-3.7,3.7h-70.8c-2,0-3.7-1.7-3.7-3.7v-41
			C1264,311.7,1265.7,310.1,1267.7,310.1z"/>
		<path class="st2" d="M1180.2,731h63.5c2,0,3.7,1.7,3.7,3.7l0,0v25.1l0,0h-70.9l0,0v-25.1C1176.5,732.6,1178.2,731,1180.2,731z"/>
		<path class="st2" d="M1180.2,768.7h63.5c2,0,3.7,1.7,3.7,3.7v39.2c0,2-1.7,3.7-3.7,3.7h-63.5c-2,0-3.7-1.7-3.7-3.7v-39.2
			C1176.5,770.3,1178.1,768.7,1180.2,768.7z"/>
		<path class="st2" d="M1272.6,777.4h63.5c2,0,3.7,1.7,3.7,3.7v30.5c0,2-1.7,3.7-3.7,3.7h-63.5c-2,0-3.7-1.7-3.7-3.7v-30.5
			C1268.9,779,1270.5,777.4,1272.6,777.4z"/>
		<path class="st2" d="M1090.2,777.4h63.5c2,0,3.7,1.7,3.7,3.7v30.5c0,2-1.7,3.7-3.7,3.7h-63.5c-2,0-3.7-1.7-3.7-3.7v-30.5
			C1086.5,779,1088.1,777.4,1090.2,777.4z"/>
	</g>
	<path class="st3" d="M35.4,301.8h70.8c2,0,3.7,1.7,3.7,3.7v41c0,2-1.7,3.7-3.7,3.7H35.4c-2,0-3.7-1.7-3.7-3.7v-41
		C31.7,303.4,33.3,301.8,35.4,301.8z"/>
	<path class="st3" d="M35.4,365.8h66.1c2,0,3.7,1.7,3.7,3.7v66.1c0,2-1.7,3.7-3.7,3.7H35.4c-2,0-3.7-1.7-3.7-3.7v-66.1
		C31.7,367.5,33.3,365.8,35.4,365.8z"/>
	<path class="st3" d="M35.4,455h118c2,0,3.7,1.7,3.7,3.7v66.1c0,2-1.7,3.7-3.7,3.7h-118c-2,0-3.7-1.7-3.7-3.7v-66.1
		C31.7,456.7,33.3,455,35.4,455z"/>
	<path class="st3" d="M35.4,544.2h137.3c2,0,3.7,1.7,3.7,3.7V614c0,2-1.7,3.7-3.7,3.7H35.4c-2,0-3.7-1.7-3.7-3.7v-66.1
		C31.7,545.9,33.3,544.2,35.4,544.2z"/>
	<path class="st3" d="M130.2,365.8h66.1c2,0,3.7,1.7,3.7,3.7v66.1c0,2-1.7,3.7-3.7,3.7h-66.1c-2,0-3.7-1.7-3.7-3.7v-66.1
		C126.5,367.5,128.2,365.8,130.2,365.8z"/>
	<path class="st3" d="M175.5,455h66.1c2,0,3.7,1.7,3.7,3.7v66.1c0,2-1.7,3.7-3.7,3.7h-66.1c-2,0-3.7-1.7-3.7-3.7v-66.1
		C171.8,456.7,173.5,455,175.5,455z"/>
	<path class="st3" d="M264.6,455h66.1c2,0,3.7,1.7,3.7,3.7v66.1c0,2-1.7,3.7-3.7,3.7h-66.1c-2,0-3.7-1.7-3.7-3.7v-66.1
		C260.9,456.7,262.6,455,264.6,455z"/>
	<path class="st3" d="M354.8,455h66.1c2,0,3.7,1.7,3.7,3.7v66.1c0,2-1.7,3.7-3.7,3.7h-66.1c-2,0-3.7-1.7-3.7-3.7v-66.1
		C351.1,456.7,352.7,455,354.8,455z"/>
	<path class="st3" d="M446.5,455h66.1c2,0,3.7,1.7,3.7,3.7v66.1c0,2-1.7,3.7-3.7,3.7h-66.1c-2,0-3.7-1.7-3.7-3.7v-66.1
		C442.8,456.7,444.5,455,446.5,455z"/>
	<path class="st3" d="M537.2,455h66.1c2,0,3.7,1.7,3.7,3.7v66.1c0,2-1.7,3.7-3.7,3.7h-66.1c-2,0-3.7-1.7-3.7-3.7v-66.1
		C533.5,456.7,535.1,455,537.2,455z"/>
	<path class="st3" d="M627.7,455h66.1c2,0,3.7,1.7,3.7,3.7v66.1c0,2-1.7,3.7-3.7,3.7h-66.1c-2,0-3.7-1.7-3.7-3.7v-66.1
		C624,456.7,625.7,455,627.7,455z"/>
	<path class="st3" d="M723.8,455h66.1c2,0,3.7,1.7,3.7,3.7v66.1c0,2-1.7,3.7-3.7,3.7h-66.1c-2,0-3.7-1.7-3.7-3.7v-66.1
		C720.1,456.7,721.8,455,723.8,455z"/>
	<path class="st3" d="M198.7,544.2h66.1c2,0,3.7,1.7,3.7,3.7V614c0,2-1.7,3.7-3.7,3.7h-66.1c-2,0-3.7-1.7-3.7-3.7v-66.1
		C195,545.9,196.7,544.2,198.7,544.2z"/>
	<path class="st3" d="M287.8,544.2h66.1c2,0,3.7,1.7,3.7,3.7V614c0,2-1.7,3.7-3.7,3.7h-66.1c-2,0-3.7-1.7-3.7-3.7v-66.1
		C284.1,545.9,285.8,544.2,287.8,544.2z"/>
	<path class="st3" d="M378,544.2h66.1c2,0,3.7,1.7,3.7,3.7V614c0,2-1.7,3.7-3.7,3.7H378c-2,0-3.7-1.7-3.7-3.7v-66.1
		C374.3,545.9,375.9,544.2,378,544.2z"/>
	<path class="st3" d="M469.7,544.2h66.1c2,0,3.7,1.7,3.7,3.7V614c0,2-1.7,3.7-3.7,3.7h-66.1c-2,0-3.7-1.7-3.7-3.7v-66.1
		C466,545.9,467.7,544.2,469.7,544.2z"/>
	<path class="st3" d="M560.4,544.2h66.1c2,0,3.7,1.7,3.7,3.7V614c0,2-1.7,3.7-3.7,3.7h-66.1c-2,0-3.7-1.7-3.7-3.7v-66.1
		C556.7,545.9,558.3,544.2,560.4,544.2z"/>
	<path class="st3" d="M650.9,544.2H717c2,0,3.7,1.7,3.7,3.7V614c0,2-1.7,3.7-3.7,3.7h-66.1c-2,0-3.7-1.7-3.7-3.7v-66.1
		C647.2,545.9,648.9,544.2,650.9,544.2z"/>
	<path class="st3" d="M747,544.2h66.1c2,0,3.7,1.7,3.7,3.7V614c0,2-1.7,3.7-3.7,3.7H747c-2,0-3.7-1.7-3.7-3.7v-66.1
		C743.3,545.9,745,544.2,747,544.2z"/>
	<path class="st3" d="M833.7,544.2h66.1c2,0,3.7,1.7,3.7,3.7V614c0,2-1.7,3.7-3.7,3.7h-66.1c-2,0-3.7-1.7-3.7-3.7v-66.1
		C830,545.9,831.7,544.2,833.7,544.2z"/>
	<path class="st3" d="M925.5,544.2h66.1c2,0,3.7,1.7,3.7,3.7V614c0,2-1.7,3.7-3.7,3.7h-66.1c-2,0-3.7-1.7-3.7-3.7v-66.1
		C921.8,545.9,923.4,544.2,925.5,544.2z"/>
	<path class="st3" d="M1016.1,544.2h66.1c2,0,3.7,1.7,3.7,3.7V614c0,2-1.7,3.7-3.7,3.7h-66.1c-2,0-3.7-1.7-3.7-3.7v-66.1
		C1012.4,545.9,1014.1,544.2,1016.1,544.2z"/>
	<path class="st3" d="M1106.7,544.2h66.1c2,0,3.7,1.7,3.7,3.7V614c0,2-1.7,3.7-3.7,3.7h-66.1c-2,0-3.7-1.7-3.7-3.7v-66.1
		C1103,545.9,1104.6,544.2,1106.7,544.2z"/>
	<path class="st3" d="M1202.8,544.2h66.1c2,0,3.7,1.7,3.7,3.7V614c0,2-1.7,3.7-3.7,3.7h-66.1c-2,0-3.7-1.7-3.7-3.7v-66.1
		C1199.1,545.9,1200.7,544.2,1202.8,544.2z"/>
	<path class="st3" d="M696.8,633.4h66.1c2,0,3.7,1.7,3.7,3.7v66.1c0,2-1.7,3.7-3.7,3.7h-66.1c-2,0-3.7-1.7-3.7-3.7v-66.1
		C693.1,635.1,694.7,633.4,696.8,633.4z"/>
	<path class="st3" d="M788.5,633.4h66.1c2,0,3.7,1.7,3.7,3.7v66.1c0,2-1.7,3.7-3.7,3.7h-66.1c-2,0-3.7-1.7-3.7-3.7v-66.1
		C784.8,635.1,786.4,633.4,788.5,633.4z"/>
	<path class="st3" d="M879.2,633.4h66.1c2,0,3.7,1.7,3.7,3.7v66.1c0,2-1.7,3.7-3.7,3.7h-66.1c-2,0-3.7-1.7-3.7-3.7v-66.1
		C875.5,635.1,877.1,633.4,879.2,633.4z"/>
	<path class="st3" d="M969.7,633.4h66.1c2,0,3.7,1.7,3.7,3.7v66.1c0,2-1.7,3.7-3.7,3.7h-66.1c-2,0-3.7-1.7-3.7-3.7v-66.1
		C966,635.1,967.7,633.4,969.7,633.4z"/>
	<path class="st3" d="M1065.8,633.4h66.1c2,0,3.7,1.7,3.7,3.7v66.1c0,2-1.7,3.7-3.7,3.7h-66.1c-2,0-3.7-1.7-3.7-3.7v-66.1
		C1062.1,635.1,1063.8,633.4,1065.8,633.4z"/>
	<path class="st3" d="M997.6,722.6h66.1c2,0,3.7,1.7,3.7,3.7v77c0,2-1.7,3.7-3.7,3.7h-66.1c-2,0-3.7-1.7-3.7-3.7v-77
		C993.9,724.3,995.5,722.6,997.6,722.6z"/>
	<path class="st4" d="M1180.2,728.7h63.5c2,0,3.7,1.7,3.7,3.7v24.3c0,2-1.7,3.7-3.7,3.7h-63.5c-2,0-3.7-1.7-3.7-3.7v-24.3
		C1176.5,730.4,1178.1,728.7,1180.2,728.7z"/>
	<path class="st3" d="M883.3,722.6h87.9c2,0,3.7,1.7,3.7,3.7v77c0,2-1.7,3.7-3.7,3.7h-87.9c-2,0-3.7-1.7-3.7-3.7v-77
		C879.6,724.3,881.2,722.6,883.3,722.6z"/>
	<path class="st3" d="M422.9,722.6h437.8c2,0,3.7,1.7,3.7,3.7v77c0,2-1.7,3.7-3.7,3.7H422.9c-2,0-3.7-1.7-3.7-3.7v-77
		C419.2,724.3,420.9,722.6,422.9,722.6z"/>
	<path class="st3" d="M1160.6,633.4h178c2,0,3.7,1.7,3.7,3.7v66.1c0,2-1.7,3.7-3.7,3.7h-178c-2,0-3.7-1.7-3.7-3.7v-66.1
		C1156.9,635.1,1158.5,633.4,1160.6,633.4z"/>
	<path class="st3" d="M240.5,633.4h66.1c2,0,3.7,1.7,3.7,3.7v66.1c0,2-1.7,3.7-3.7,3.7h-66.1c-2,0-3.7-1.7-3.7-3.7v-66.1
		C236.8,635.1,238.5,633.4,240.5,633.4z"/>
	<path class="st3" d="M152,633.4h66.1c2,0,3.7,1.7,3.7,3.7v66.1c0,2-1.7,3.7-3.7,3.7H152c-2,0-3.7-1.7-3.7-3.7v-66.1
		C148.3,635.1,150,633.4,152,633.4z"/>
	<path class="st3" d="M35.4,633.4h92c2,0,3.7,1.7,3.7,3.7v66.1c0,2-1.7,3.7-3.7,3.7h-92c-2,0-3.7-1.7-3.7-3.7v-66.1
		C31.7,635.1,33.3,633.4,35.4,633.4z"/>
	<path class="st3" d="M35.4,722.6h65c2,0,3.7,1.7,3.7,3.7v77c0,2-1.7,3.7-3.7,3.7h-65c-2,0-3.7-1.7-3.7-3.7v-77
		C31.7,724.3,33.3,722.6,35.4,722.6z"/>
	<path class="st3" d="M124.5,722.6h65c2,0,3.7,1.7,3.7,3.7v77c0,2-1.7,3.7-3.7,3.7h-65c-2,0-3.7-1.7-3.7-3.7v-77
		C120.8,724.3,122.5,722.6,124.5,722.6z"/>
	<path class="st3" d="M220.6,722.6h65c2,0,3.7,1.7,3.7,3.7v77c0,2-1.7,3.7-3.7,3.7h-65c-2,0-3.7-1.7-3.7-3.7v-77
		C216.9,724.3,218.6,722.6,220.6,722.6z"/>
	<path class="st3" d="M314,722.6h84.3c2,0,3.7,1.7,3.7,3.7v77c0,2-1.7,3.7-3.7,3.7H314c-2,0-3.7-1.7-3.7-3.7v-77
		C310.3,724.3,312,722.6,314,722.6z"/>
	<path class="st3" d="M332.3,633.4h66.1c2,0,3.7,1.7,3.7,3.7v66.1c0,2-1.7,3.7-3.7,3.7h-66.1c-2,0-3.7-1.7-3.7-3.7v-66.1
		C328.6,635.1,330.2,633.4,332.3,633.4z"/>
	<path class="st3" d="M422.9,633.4H489c2,0,3.7,1.7,3.7,3.7v66.1c0,2-1.7,3.7-3.7,3.7h-66.1c-2,0-3.7-1.7-3.7-3.7v-66.1
		C419.2,635.1,420.9,633.4,422.9,633.4z"/>
	<path class="st3" d="M513.5,633.4h66.1c2,0,3.7,1.7,3.7,3.7v66.1c0,2-1.7,3.7-3.7,3.7h-66.1c-2,0-3.7-1.7-3.7-3.7v-66.1
		C509.8,635.1,511.4,633.4,513.5,633.4z"/>
	<path class="st3" d="M609.6,633.4h66.1c2,0,3.7,1.7,3.7,3.7v66.1c0,2-1.7,3.7-3.7,3.7h-66.1c-2,0-3.7-1.7-3.7-3.7v-66.1
		C605.9,635.1,607.5,633.4,609.6,633.4z"/>
	<path class="st3" d="M809.8,455h66.1c2,0,3.7,1.7,3.7,3.7v66.1c0,2-1.7,3.7-3.7,3.7h-66.1c-2,0-3.7-1.7-3.7-3.7v-66.1
		C806.1,456.7,807.7,455,809.8,455z"/>
	<path class="st3" d="M905.1,455h66.1c2,0,3.7,1.7,3.7,3.7v66.1c0,2-1.7,3.7-3.7,3.7h-66.1c-2,0-3.7-1.7-3.7-3.7v-66.1
		C901.4,456.7,903,455,905.1,455z"/>
	<path class="st3" d="M997.6,455h66.1c2,0,3.7,1.7,3.7,3.7v66.1c0,2-1.7,3.7-3.7,3.7h-66.1c-2,0-3.7-1.7-3.7-3.7v-66.1
		C993.9,456.7,995.5,455,997.6,455z"/>
	<path class="st3" d="M1087.1,455h66.1c2,0,3.7,1.7,3.7,3.7v66.1c0,2-1.7,3.7-3.7,3.7h-66.1c-2,0-3.7-1.7-3.7-3.7v-66.1
		C1083.4,456.7,1085,455,1087.1,455z"/>
	<path class="st3" d="M1177.6,455h66.1c2,0,3.7,1.7,3.7,3.7v66.1c0,2-1.7,3.7-3.7,3.7h-66.1c-2,0-3.7-1.7-3.7-3.7v-66.1
		C1173.9,456.7,1175.5,455,1177.6,455z"/>
	<path class="st3" d="M1338.1,455h-67.6c-2.3,0-4.1,1.9-4.1,4.1v0v65.2c0,2.3,1.9,4.1,4.1,4.1l0,0h19.1v79c0,2.3,1.9,4.1,4.1,4.1
		l0,0h44.4c2.3,0,4.1-1.9,4.1-4.1v0V459.2C1342.2,456.9,1340.4,455,1338.1,455L1338.1,455L1338.1,455z"/>
	<path class="st3" d="M225.5,365.8h66.1c2,0,3.7,1.7,3.7,3.7v66.1c0,2-1.7,3.7-3.7,3.7h-66.1c-2,0-3.7-1.7-3.7-3.7v-66.1
		C221.8,367.5,223.5,365.8,225.5,365.8z"/>
	<path class="st3" d="M318,365.8h66.1c2,0,3.7,1.7,3.7,3.7v66.1c0,2-1.7,3.7-3.7,3.7H318c-2,0-3.7-1.7-3.7-3.7v-66.1
		C314.3,367.5,316,365.8,318,365.8z"/>
	<path class="st3" d="M495.9,365.8H562c2,0,3.7,1.7,3.7,3.7v66.1c0,2-1.7,3.7-3.7,3.7h-66.1c-2,0-3.7-1.7-3.7-3.7v-66.1
		C492.2,367.5,493.8,365.8,495.9,365.8z"/>
	<path class="st3" d="M588.3,365.8h66.1c2,0,3.7,1.7,3.7,3.7v66.1c0,2-1.7,3.7-3.7,3.7h-66.1c-2,0-3.7-1.7-3.7-3.7v-66.1
		C584.6,367.5,586.3,365.8,588.3,365.8z"/>
	<path class="st3" d="M677.8,365.8h66.1c2,0,3.7,1.7,3.7,3.7v66.1c0,2-1.7,3.7-3.7,3.7h-66.1c-2,0-3.7-1.7-3.7-3.7v-66.1
		C674.1,367.5,675.7,365.8,677.8,365.8z"/>
	<path class="st3" d="M767.3,365.8h66.1c2,0,3.7,1.7,3.7,3.7v66.1c0,2-1.7,3.7-3.7,3.7h-66.1c-2,0-3.7-1.7-3.7-3.7v-66.1
		C763.6,367.5,765.2,365.8,767.3,365.8z"/>
	<path class="st3" d="M862.3,365.8h66.1c2,0,3.7,1.7,3.7,3.7v66.1c0,2-1.7,3.7-3.7,3.7h-66.1c-2,0-3.7-1.7-3.7-3.7v-66.1
		C858.6,367.5,860.2,365.8,862.3,365.8z"/>
	<path class="st3" d="M951.7,365.8h66.1c2,0,3.7,1.7,3.7,3.7v66.1c0,2-1.7,3.7-3.7,3.7h-66.1c-2,0-3.7-1.7-3.7-3.7v-66.1
		C948,367.5,949.7,365.8,951.7,365.8z"/>
	<path class="st3" d="M1043.4,365.8h66.1c2,0,3.7,1.7,3.7,3.7v66.1c0,2-1.7,3.7-3.7,3.7h-66.1c-2,0-3.7-1.7-3.7-3.7v-66.1
		C1039.7,367.5,1041.4,365.8,1043.4,365.8z"/>
	<path class="st3" d="M1134,365.8h66.1c2,0,3.7,1.7,3.7,3.7v66.1c0,2-1.7,3.7-3.7,3.7H1134c-2,0-3.7-1.7-3.7-3.7v-66.1
		C1130.3,367.5,1132,365.8,1134,365.8z"/>
	<path class="st3" d="M1224.6,365.8h113.9c2,0,3.7,1.7,3.7,3.7v66.1c0,2-1.7,3.7-3.7,3.7h-113.9c-2,0-3.7-1.7-3.7-3.7v-66.1
		C1220.9,367.5,1222.6,365.8,1224.6,365.8z"/>
	<path class="st3" d="M403,365.8h66.1c2,0,3.7,1.7,3.7,3.7v66.1c0,2-1.7,3.7-3.7,3.7H403c-2,0-3.7-1.7-3.7-3.7v-66.1
		C399.3,367.5,401,365.8,403,365.8z"/>
	<path class="st3" d="M127.9,301.8h70.8c2,0,3.7,1.7,3.7,3.7v41c0,2-1.7,3.7-3.7,3.7h-70.8c-2,0-3.7-1.7-3.7-3.7v-41
		C124.2,303.4,125.8,301.8,127.9,301.8z"/>
	<path class="st3" d="M223.1,301.8H294c2,0,3.7,1.7,3.7,3.7v41c0,2-1.7,3.7-3.7,3.7h-70.8c-2,0-3.7-1.7-3.7-3.7v-41
		C219.4,303.4,221.1,301.8,223.1,301.8z"/>
	<path class="st3" d="M315.7,301.8h70.8c2,0,3.7,1.7,3.7,3.7v41c0,2-1.7,3.7-3.7,3.7h-70.8c-2,0-3.7-1.7-3.7-3.7v-41
		C312,303.4,313.6,301.8,315.7,301.8z"/>
	<path class="st3" d="M412.9,301.8h70.8c2,0,3.7,1.7,3.7,3.7v41c0,2-1.7,3.7-3.7,3.7h-70.8c-2,0-3.7-1.7-3.7-3.7v-41
		C409.2,303.4,410.8,301.8,412.9,301.8z"/>
	<path class="st3" d="M510.1,301.8h70.8c2,0,3.7,1.7,3.7,3.7v41c0,2-1.7,3.7-3.7,3.7h-70.8c-2,0-3.7-1.7-3.7-3.7v-41
		C506.4,303.4,508,301.8,510.1,301.8z"/>
	<path class="st3" d="M605.4,301.8h70.8c2,0,3.7,1.7,3.7,3.7v41c0,2-1.7,3.7-3.7,3.7h-70.8c-2,0-3.7-1.7-3.7-3.7v-41
		C601.7,303.4,603.3,301.8,605.4,301.8z"/>
	<path class="st3" d="M697.9,301.8h70.8c2,0,3.7,1.7,3.7,3.7v41c0,2-1.7,3.7-3.7,3.7h-70.8c-2,0-3.7-1.7-3.7-3.7v-41
		C694.2,303.4,695.8,301.8,697.9,301.8z"/>
	<path class="st3" d="M790.8,301.8h70.8c2,0,3.7,1.7,3.7,3.7v41c0,2-1.7,3.7-3.7,3.7h-70.8c-2,0-3.7-1.7-3.7-3.7v-41
		C787.1,303.4,788.7,301.8,790.8,301.8z"/>
	<path class="st3" d="M883.3,301.8h70.8c2,0,3.7,1.7,3.7,3.7v41c0,2-1.7,3.7-3.7,3.7h-70.8c-2,0-3.7-1.7-3.7-3.7v-41
		C879.6,303.4,881.2,301.8,883.3,301.8z"/>
	<path class="st3" d="M978.6,301.8h70.8c2,0,3.7,1.7,3.7,3.7v41c0,2-1.7,3.7-3.7,3.7h-70.8c-2,0-3.7-1.7-3.7-3.7v-41
		C974.9,303.4,976.5,301.8,978.6,301.8z"/>
	<path class="st3" d="M1071.1,301.8h70.8c2,0,3.7,1.7,3.7,3.7v41c0,2-1.7,3.7-3.7,3.7h-70.8c-2,0-3.7-1.7-3.7-3.7v-41
		C1067.4,303.4,1069,301.8,1071.1,301.8z"/>
	<path class="st3" d="M1175.2,301.8h70.8c2,0,3.7,1.7,3.7,3.7v41c0,2-1.7,3.7-3.7,3.7h-70.8c-2,0-3.7-1.7-3.7-3.7v-41
		C1171.5,303.4,1173.1,301.8,1175.2,301.8z"/>
	<path class="st3" d="M1267.7,301.8h70.8c2,0,3.7,1.7,3.7,3.7v41c0,2-1.7,3.7-3.7,3.7h-70.8c-2,0-3.7-1.7-3.7-3.7v-41
		C1264,303.4,1265.7,301.8,1267.7,301.8z"/>
	<path class="st3" d="M1180.2,722.6h63.5c2,0,3.7,1.7,3.7,3.7l0,0v25.1l0,0h-70.9l0,0v-25.1C1176.5,724.3,1178.1,722.6,1180.2,722.6
		L1180.2,722.6L1180.2,722.6z"/>
	<path class="st3" d="M1180.2,760.4h63.5c2,0,3.7,1.7,3.7,3.7v39.2c0,2-1.7,3.7-3.7,3.7h-63.5c-2,0-3.7-1.7-3.7-3.7v-39.2
		C1176.5,762,1178.1,760.4,1180.2,760.4z"/>
	<path class="st3" d="M1272.6,769.1h63.5c2,0,3.7,1.7,3.7,3.7v30.5c0,2-1.7,3.7-3.7,3.7h-63.5c-2,0-3.7-1.7-3.7-3.7v-30.5
		C1268.9,770.7,1270.5,769.1,1272.6,769.1z"/>
	<path class="st3" d="M1090.2,769.1h63.5c2,0,3.7,1.7,3.7,3.7v30.5c0,2-1.7,3.7-3.7,3.7h-63.5c-2,0-3.7-1.7-3.7-3.7v-30.5
		C1086.5,770.7,1088.1,769.1,1090.2,769.1z"/>
</g>
<path class="st0" d="M252.4,81.9h61.9v39.2h-61.9V81.9z"/>
<path class="st0" d="M252.4,121.1V81.9H59.3v14.9c0,21.8,17.7,39.6,39.6,39.6c0,0,0,0,0,0h153.5V121.1z"/>
<path class="st5" d="M252.4,34h61.9v39.2h-61.9V34z"/>
<path class="st6" d="M252.4,73.2h61.9v39.2h-61.9V73.2z"/>
<path class="st7" d="M252.4,112.4V73.2H59.3v14.9c0,21.8,17.7,39.6,39.6,39.6c0,0,0,0,0,0h153.5V112.4z"/>
<path class="st8" d="M252.4,34V18.7H98.9c-21.8,0-39.6,17.7-39.6,39.6v14.9h193.1V34z"/>
<path class="st9" d="M300.8,43.3v21.1h-11.2V43.3H300.8z"/>
<path class="st9" d="M300.8,81.9V103h-11.2V81.9H300.8z"/>
<g>
	<path class="st0" d="M1749.8,348.5l-295-44.1l-27-39.6l37.6-251.3l327.2,48.9L1749.8,348.5z"/>
	<path class="st10" d="M1749.7,337.1l-295-44.1l-27-39.6L1465.2,2L1792.5,51L1749.7,337.1z"/>
	<path class="st11" d="M1460.5,258.3l-32.8-4.9l27,39.6L1460.5,258.3z"/>
	<path class="st12" d="M1497.9,34c-13.3,15.2-23.8,28.8-21.4,31.5c3.9,4.4,38.5-22.8,42-18.8c4.7,5.3-53.2,57.1-46.5,66.3
		c2.2,3,12.1,2.7,51.4-17.4"/>
	<path class="st12" d="M1669.8,284.6l-2.4-16.3"/>
	<path class="st12" d="M1703.8,279.8l-2.4-16.3"/>
	<path class="st12" d="M1653.6,297.2c3.9,3.3,13,10,26,11.1c25.8,2.2,42.6-19.5,43.8-21.2"/>
	<path class="st13" d="M1542.8,227.9l-0.1,0.8v0.9c0,0,0,0.1-0.1,0.4s-0.1,0.4-0.1,0.4c-0.1,0.2-0.2,0.5-0.4,0.6
		c0,0.1-0.1,0.3-0.3,0.7c-1,1-2.1,1.9-3.2,2.7c-0.7,0.3-1.4,0.6-2.1,0.8c-0.1,0.1-0.2,0.1-0.3,0.2l-6.6,1.8c-0.1,0-0.1,0-0.2,0
		c-0.2,0-0.4,0-0.6,0.1c-0.5,0.1-0.9,0.2-0.9,0.2l-3.1,0.3c-0.1,0-0.1,0-0.1-0.1c0,0-0.1-0.1-0.1-0.1h-1.1l-3.4-0.6
		c-0.4-0.1-1-0.4-1.8-0.7c-0.4-0.2-0.8-0.5-1.3-0.8l-1.3-1c-0.7-0.9-1.2-2-1.3-3.1c0-0.9,0.1-1.8,0.4-2.6c0.2-0.3,0.4-0.7,0.7-1.2
		c0.6-1.1,1.5-2.1,2.6-2.7c1-0.5,2-1,3-1.4l-0.1-0.2c-0.8-0.5-1.5-1.2-1.9-2.1c-0.1-0.2-0.1-0.5-0.2-1c-0.1-0.3-0.1-0.5-0.1-0.8
		c0.1-0.8,0.3-1.6,0.7-2.4c0.3-0.8,0.9-1.6,1.6-2.1l1.5-0.5c0.2,0,0.4,0.1,0.6,0.2h0.6h0.5l0.2,0.1l0.7-0.6l2.9-1l2.9-0.5l1.4,0.2
		l0.5-0.2c0.4,0.1,0.7,0.2,1.1,0.2c0.4,0,0.8,0.1,1,0.4c0.1,0,0.1,0,0.1-0.1c0.2,0.1,0.3,0.1,0.5,0.3c1.1,0.1,2.3,1,3.7,2.8
		c0.1,0.3,0.2,0.7,0.3,1.1l-0.1,0.6c0,0.3-0.1,0.6-0.1,0.9c-0.1,0.1-0.2,0.3-0.3,0.5c-0.2,0.5-0.3,1-0.6,1.4
		c-0.3,0.1-0.6,0.3-0.9,0.5l-0.7,0.7c0.2,0.2,0.3,0.3,0.5,0.4c0.2,0.1,0.3,0.1,0.5,0.1c0.7,0.4,1.3,0.7,1.7,1
		c0.1,0.1,0.1,0.3,0.2,0.5l0.6,0.3C1541.9,225.9,1542.7,227,1542.8,227.9L1542.8,227.9z M1539.7,229.1c0-0.4-0.4-1-1.3-1.7
		c-0.7-0.6-1.5-1.1-2.4-1.3c-0.5-0.2-0.9-0.3-1.4-0.3c-0.6-0.1-1.3-0.2-2-0.3l-5.2,0.3l-4.7,0.9l-0.4,0.1c-0.8,0.4-1.7,0.8-2.5,1.1
		c-0.2,0.1-0.3,0.2-0.5,0.3c-0.5,0.2-1,0.6-1.4,1c-0.4,0.4-0.6,0.9-0.7,1.4c0.1,0.2,0.3,0.5,0.5,0.6c0.2,0.2,0.4,0.3,0.6,0.5
		c0.5,0.2,1.2,0.6,2.2,1.1c0.4,0.1,0.8,0.2,1.2,0.4l2.7,0.4h2.4c1-0.1,2-0.2,2.9-0.4l2.3-0.5c0.6-0.2,1.2-0.3,1.7-0.5
		c0.2,0,0.4-0.1,0.6-0.3l1.1-0.2l3.3-1.5C1539.5,229.8,1539.7,229.5,1539.7,229.1L1539.7,229.1z M1536.3,218c-0.3-0.3-0.6-0.6-1-0.8
		c-0.9-0.5-2-0.8-3.1-0.8l-1.6-0.1l-1.7,0.4l-0.1-0.1l-3.2,0.9c-1.1,0.3-2.1,0.9-2.9,1.7c0.6,0.6,1.5,1.1,2.4,1.2
		c0.9,0.2,1.7,0.3,2.6,0.3l0.7-0.1l0.7-0.1c1.4-0.2,2.7-0.5,4-1c0.4-0.2,0.8-0.3,1.2-0.4l1.9-0.9v-0.1
		C1536.2,218.1,1536.3,218.1,1536.3,218L1536.3,218z"/>
	<path class="st13" d="M1562.5,230c-0.2,0.2-0.3,0.4-0.5,0.6c-0.4,0.3-0.9,0.4-1.5,0.5l-4.8,0.5l-3.6,0.1c-1,0-2,0.1-2.9,0.4
		c-0.1,0-0.1,0-0.2-0.1c-0.1,0-0.1-0.1-0.2-0.1h-0.1c0,0-0.1,0.1-0.1,0.1c0,0,0.1,0.1,0.1,0.1c-0.1,0.1-0.2,0.1-0.4,0.1
		c-0.1-0.1-0.2-0.2-0.2-0.3h-1.4l-1-0.7c-0.1-0.3-0.2-0.5-0.4-0.7c-0.2-0.4-0.3-0.9-0.3-1.3c0-0.4,0.1-0.7,0.2-1.1
		c0.2-0.2,0.5-0.4,0.7-0.7l2.3-0.1l5,0.1l2.5-0.2c0.2-0.1,0.5-0.1,0.7-0.2c0.1,0,0.2,0.1,0.3,0.1l2.8-0.4c0.5,0.3,1.1,0.6,1.6,0.8
		c0.3,0.5,0.6,0.9,0.9,1.5c0.1,0.2,0.3,0.4,0.4,0.7L1562.5,230z M1550.3,232c0,0.1-0.1,0.1-0.1,0.1L1550.3,232z"/>
	<path class="st13" d="M1583.4,227.6c-0.2,0.7-0.5,1.4-0.9,2.1c-0.3,0.2-0.5,0.4-0.5,0.8c-1.2,1.1-2.5,2-3.9,2.7
		c-0.3,0.1-1.6,0.7-3.9,1.8c-0.5,0.1-1,0.2-1.5,0.4l-1,0.3h-0.3h-0.3c-0.2-0.2-0.5-0.4-0.8-0.4h-0.2c-0.1-0.2-0.2-0.3-0.3-0.5
		l-0.4,0.9c-0.1,0.1-0.3,0.1-0.5,0.1h-0.1l-0.3,0.3h-0.2c-0.3-0.1-0.5-0.2-0.8-0.3l-0.4,0.1c-0.5-0.4-0.7-0.7-0.7-1
		c-0.3-0.3-0.4-0.8-0.4-1.2c-0.2-0.2-0.3-0.5-0.3-0.8c0-0.1-0.1-0.4-0.1-0.8c0-0.2-0.1-0.4-0.2-0.6v0.1v-1.4
		c-0.1-0.3-0.1-0.6-0.1-0.9c0,0,0-0.1,0-0.1c0-0.1-0.1-0.2-0.1-0.4c0-0.2,0-0.3,0.1-0.5c-0.2-0.3-0.5-0.5-0.9-0.5
		c-0.3-0.4-0.5-0.8-0.5-1.3c0-0.4,0.1-0.8,0.4-1.2c0.2-0.4,0.5-0.7,0.8-0.9l-0.1-6.9c0-0.5,0.1-1.4,0.1-2.9c0-0.8,0.2-1.5,0.6-2.2
		c0.1-0.1,0.2-0.2,0.3-0.3c0.2-0.1,0.4-0.2,0.7-0.3c0.1,0,0.2,0,0.3,0.1l0.3,0.1c0.2,0.4,0.4,0.7,0.7,1c0.1,0.3,0.3,0.8,0.5,1.3
		c0,0,0,0.1,0,0.1c0,0.2,0,0.4,0.1,0.6c0,0.3,0.1,0.6,0.1,1l0.4,6.6c0,0.1,0.1,0.1,0.1,0.1c0.3-0.1,0.6-0.1,1-0.1l2.8-0.3h2.7
		l1.1,0.1c0.8,0.1,1.4,0.3,1.9,0.4l0.6,0.3c0.9,0.2,1.7,0.7,2.3,1.4c0.6,0.5,1.1,1.2,1.4,2c0.1,0.5,0.3,1,0.6,1.4
		C1583.4,227.8,1583.4,227.7,1583.4,227.6L1583.4,227.6z M1578.9,227.7v-0.2c-0.3-0.3-0.6-0.6-0.9-0.7c-1.1-0.4-2.2-0.6-3.4-0.6
		c-0.1,0-0.2-0.1-0.4-0.1l-2.7,0.2c-0.9,0.2-1.7,0.4-2.5,0.8v0.4c0,0.1,0,0.1,0.1,0.2c0,0.1,0.1,0.1,0.1,0.2v1.5l0.6,3.6
		c0,0,0.1-0.1,0.1-0.1c0-0.1,0.1-0.2,0.1-0.3c1.1-0.6,2.3-1.2,3.5-1.6c1-0.4,2-0.8,2.9-1.4C1577.3,229.1,1578.1,228.5,1578.9,227.7
		L1578.9,227.7z"/>
	<path class="st13" d="M1589.3,231.1c0,0.1,0,0.1,0,0.2c0,0.2,0,0.4-0.1,0.7s0,0.7,0,1.2v1.4l-0.4,1l-0.3-0.1l-0.3,0.2
		c-0.1,0-0.2-0.1-0.3-0.1c-0.1,0-0.2,0.1-0.3,0.1c-0.4-0.1-0.8-0.2-1.1-0.3c-0.4-0.9-0.8-1.8-0.9-2.7c-0.1-0.3-0.1-0.6-0.1-0.9v-0.4
		v-2.4l0.3-1.6c0.2-0.2,0.4-0.4,0.5-0.7l0.7-0.2c0.2,0,0.3,0.1,0.4,0.2c0.3,0.3,0.7,0.7,1.3,1.3c0.3,0.4,0.4,0.9,0.5,1.4
		L1589.3,231.1z M1589.8,220.9c-0.1,0.1-0.1,0.2-0.2,0.3c0.1,0.2,0.1,0.4,0.1,0.6c-0.2,0.2-0.4,0.4-0.7,0.5c0,0-0.1-0.1-0.3-0.1
		c-0.1,0-0.2,0-0.3,0.1c-0.4-0.2-0.9-0.3-1.3-0.4c-0.2-0.4-0.4-0.9-0.5-1.4l0.1-1.5c0.2-0.1,0.3-0.2,0.4-0.4h0.9
		c0.4,0.2,0.7,0.6,0.9,0.9c0.2,0.1,0.4,0.3,0.5,0.5C1589.6,220.5,1589.7,220.7,1589.8,220.9L1589.8,220.9z"/>
	<path class="st13" d="M1614.4,225.2h-0.5c-0.1,0.1-0.1,0.2-0.1,0.3c0,0,0,0.1,0,0.1c-0.1,0.1-0.3,0.2-0.4,0.2
		c-0.5,0.5-0.7,0.7-0.9,0.7h-1.2l-1.2,0.3c-0.1,0-0.3-0.1-0.4-0.1l-1.7,0.4h-0.2h-0.2c-0.1,0-0.5,0.1-1.1,0.2
		c-0.4,0.1-0.9,0.1-1.6,0.3c-0.5,0.1-0.9,0.3-1.3,0.6c-0.4,2.5-0.5,3.9-0.5,4.1v1.1c0,0.1-0.1,0.4-0.2,0.9c-0.1,0.4-0.2,0.7-0.2,1.1
		c-0.3,0.1-0.9,0.4-1.5,0.7l-0.5-0.3c-0.2-0.1-0.4-0.2-0.6-0.3c-0.4-0.6-0.6-1.2-0.7-1.9c0-0.2-0.1-0.8-0.2-1.8l0.2-2.2v-0.8
		l-0.1-0.1h-0.3l-3.2,0.7h-0.1c-0.1,0-0.2,0-0.3-0.1l-2.5,0.6c-0.3-0.2-0.5-0.3-0.8-0.4c-0.2-0.1-0.4-0.4-0.5-0.6
		c-0.1-0.2-0.2-0.4-0.4-0.7c0-0.4-0.1-0.8-0.2-1.1c0-0.3,0.1-0.6,0.3-0.9c0.2-0.3,0.4-0.5,0.6-0.5l4.9-0.5l3.2-0.9
		c0.2-1.6,0.5-4,0.9-7.3c0.4-1.3,0.7-2.4,1.1-3.3c0.3-0.4,0.7-0.7,1.1-1c0.5,0.3,1.1,0.6,1.6,0.9c0.2,1,0.3,1.5,0.3,1.5l-1,7.3v1.1
		l1.9,0c0,0,0.1,0,0.2-0.1h0.4h0.2h0.3l0.4-0.1l0.5-0.1c0.1,0,0.3,0.1,0.4,0.1c0.7-0.1,1.3-0.2,2-0.2c0,0,0.6,0.1,1.9,0.3
		c0.4,0.2,0.9,0.4,1.3,0.6v0.1c0,0.1,0,0.2-0.1,0.3c0.1,0.3,0.2,0.5,0.4,0.7h0.1C1614.1,225,1614.3,225.1,1614.4,225.2L1614.4,225.2
		z"/>
	<path class="st13" d="M1618.7,230.5L1618.7,230.5c0,0,0,0,0,0.2s0,0.4,0,0.7s0,0.7,0,1.2v1.4l-0.4,1l-0.3-0.1l-0.3,0.2
		c-0.1,0-0.2-0.1-0.3-0.1c-0.1,0-0.2,0.1-0.3,0.1c-0.4-0.1-0.8-0.2-1.1-0.3c-0.4-0.9-0.7-1.8-0.9-2.7c-0.1-0.3-0.1-0.6-0.1-0.9
		c0-0.1,0-0.2,0-0.4v-2.4l0.3-1.6c0.2-0.2,0.4-0.4,0.5-0.7l0.7-0.2c0.2,0,0.3,0.1,0.5,0.2c0.3,0.3,0.7,0.7,1.2,1.3
		c0.3,0.4,0.4,0.9,0.5,1.4V230.5z M1619.2,220.3c-0.1,0.1-0.1,0.2-0.2,0.3c0.3,0.3,0.2,0.7-0.1,1c-0.1,0.1-0.3,0.2-0.5,0.2
		c-0.1-0.1-0.2-0.1-0.3-0.1c-0.2,0-0.3,0-0.3,0.1c-0.4-0.2-0.9-0.3-1.3-0.4c-0.2-0.4-0.4-0.9-0.5-1.4l0.1-1.5
		c0.2-0.1,0.3-0.2,0.4-0.4h0.9c0.4,0.2,0.7,0.6,0.9,0.9c0.2,0.1,0.4,0.3,0.5,0.5C1619,219.8,1619,220,1619.2,220.3L1619.2,220.3z"/>
	<path class="st13" d="M1642.2,215.9c-0.1,0.1-0.1,0.2-0.3,0.4c-0.1,0.1-0.2,0.2-0.2,0.4c0,0,0,0.1,0,0.1c-0.1,0.1-0.3,0.2-0.7,0.3
		c-0.2,0-0.5,0.1-0.7,0.2h-0.2c-0.4-0.4-0.7-0.6-0.8-0.6c-0.1-0.4-0.4-0.7-0.8-0.9c-0.3-0.3-0.7-0.5-1.2-0.5
		c-0.8-0.5-1.6-0.8-2.5-1.1c-0.9-0.3-1.8-0.5-2.7-0.5c0,0-0.5,0.1-1.5,0.3c-0.4,0.2-0.7,0.5-1,0.8c-0.1,0.1-0.2,0.4-0.5,1
		c-0.5,2.3-0.7,4.6-0.6,6.9c0,0.1,0,0.3,0,0.6l0.2,2.4c0.1,0.1,0.2,0.2,0.4,0.2l5.1-0.3c0.2,0,0.4,0.1,0.6,0.1
		c0.1,0.1,0.1,0.2,0.3,0.3c0.2,0,0.5,0.2,0.8,0.5c-0.1,0.1-0.1,0.2-0.2,0.2v0.2c0.1,0,0.2,0.1,0.3,0.2c0,0.1,0,0.2-0.1,0.2
		c0,0.1,0,0.1,0,0.2c-0.2,0.1-0.4,0.3-0.5,0.5c-0.5,0.2-1,0.5-1.4,0.8c-0.6,0.2-1.6,0.4-2.8,0.8c-0.1,0.1-0.3,0.2-0.4,0.3
		c0.4,0.5,0.7,1,1,1.6c0.1,0.5,0.2,1.1,0.4,1.6l0,0v0.2l-0.9,0.6v0.2h-0.8c-0.1,0.1-0.2,0.2-0.1,0.4c-0.2-0.1-0.5-0.1-0.7-0.1
		l-0.3,0.1c-0.7-0.7-1.4-1.2-2.1-1.8c-0.3-0.4-0.8-1.1-1.4-1.9h-0.4c-0.2,0-0.4,0.1-0.5,0.2l-0.5,0.1h-1.2c-0.4,0.1-0.9,0-1.2-0.3
		c-0.9,0-1.3-0.5-1.3-1.4c0.2-0.9,0.6-1.7,1.2-2.4c0.1-0.1,0.3-0.1,0.6-0.2c0.1,0,0.2-0.1,0.4-0.1c0.1,0,0.2,0,0.3,0.1
		c0.2-0.1,0.5-0.2,0.8-0.2h0.3l0.1-0.1v-0.9c0,0-0.1-0.2-0.2-0.6c-0.1-0.4-0.1-0.6-0.1-0.6v-1.8c0-1.3,0.1-2.6,0.2-3.9
		c0.1-1.4,0.5-2.8,1-4.2c1-2.5,2.3-3.9,3.9-4.2c0.2-0.1,1.1-0.3,2.6-0.7h0.1c0.5,0,1.1,0.1,1.6,0.3l0.2-0.1h0.2
		c0.2,0.1,0.5,0.1,0.7,0.2c0.1-0.1,0.2-0.1,0.3-0.1c1.4,0.3,2.8,0.8,4.2,1.5c1.1,0.8,2.2,1.7,3.1,2.7c0,0,0,0.1,0,0.1
		c0,0.2,0,0.3,0.1,0.5c0.1,0.2,0.1,0.4,0.2,0.7L1642.2,215.9z"/>
	<path class="st13" d="M1650.6,227.7c0,1.1-0.4,3.4-1.4,6.8c-0.1,0.5-0.9,2.6-2.1,6.3c0,0.1,0.1,0.1,0.2,0.1h-0.2l-1.2,3l-1.3,4.5
		c-0.3,0.2-0.5,0.5-0.7,0.8c-0.2,0-0.3,0.1-0.5,0.1l-0.3,0.1l-0.3-0.1l-1.3-1.4c-0.2-0.7-0.3-1.3-0.4-2l0.3-2l1.2-3.8l2.4-6.1
		l-0.1-0.3c-0.7,0.3-1.4,0.4-2.1,0.5c-1.5,0-2.7-0.9-3.6-2.8c-0.8-1.5-1.2-3.1-1.2-4.8c0-0.5,0.1-1,0.3-1.5c0.2-0.2,0.4-0.5,0.7-0.8
		h0.2c0.4,0,0.9,0.3,1.3,1c0.2,0.3,0.4,0.7,0.4,1.1c0.5,2.1,0.9,3.2,1.2,3.2c0.7,0,1.7-0.6,3-1.7c1-0.8,1.8-1.7,2.6-2.7
		c0.2,0,0.4-0.1,0.5-0.3c0.2,0.1,0.5,0.1,0.7,0.1l0.7,0.8c0.1,0,0.2,0,0.3,0.1C1650.4,226.5,1650.6,227.1,1650.6,227.7L1650.6,227.7
		z"/>
	<path class="st12" d="M1687.4,59.7c-6.1,0.5-9.9,6.3-10.6,7.5c-7.3,11-3.6,31.1,7.5,34.6c8.5,2.7,20.6-4.6,23.4-14.9
		C1711.2,73.4,1697.7,58.8,1687.4,59.7L1687.4,59.7z"/>
	<path class="st12" d="M1635.2,68.3c-6.3,1-10.4,8.2-11.7,13.3c-3,11.7,4.4,27.1,14.4,27.7c7.8,0.5,15.8-8.1,17-17
		C1656.6,79.7,1644.7,66.8,1635.2,68.3L1635.2,68.3z"/>
	<path class="st12" d="M1676.7,114c-4.3-2.9-9.8-1.4-11.2-1.1c-8.9,2.3-15.9,12.2-14.9,22.4c1.3,12.9,15,21.6,22.4,19.1
		C1683.9,151,1687.4,121.2,1676.7,114z"/>
</g>
<g>
	<g class="st14">
		<path class="st15" d="M1736.9,712.1l-7.3-50.4L1703,477.9c-8.9-61.8-66.3-104.7-128.1-95.7l-38.5,5.6
			c-61.8,8.9-104.7,66.3-95.7,128.1l26.6,183.8l7.3,50.4c8.9,61.8,66.3,104.7,128.1,95.7l38.5-5.6
			C1702.9,831.2,1745.8,773.9,1736.9,712.1L1736.9,712.1z"/>
		<path class="st16" d="M1633.8,789.8l-38.5,5.6c-61.8,8.9-119.2-33.9-128.1-95.7l7.3,50.4c8.9,61.8,66.3,104.7,128.1,95.7
			c0,0,0,0,0,0l38.5-5.6c61.8-8.9,104.7-66.3,95.7-128.1l-7.3-50.4C1738.5,723.5,1695.6,780.9,1633.8,789.8L1633.8,789.8z"/>
	</g>
	<path class="st3" d="M1641.3,777.1l-38.5,5.6c-61.8,8.9-119.2-33.9-128.1-95.7l7.3,50.4c8.9,61.8,66.3,104.7,128.1,95.7l38.5-5.6
		c61.8-8.9,104.7-66.3,95.7-128.1c0,0,0,0,0,0l-7.3-50.4C1746,710.8,1703.2,768.1,1641.3,777.1
		C1641.3,777.1,1641.3,777.1,1641.3,777.1L1641.3,777.1z"/>
	<path class="st3" d="M1543.8,375.1l38.5-5.6c61.8-8.9,119.2,33.9,128.1,95.7l26.6,183.8c8.9,61.8-33.9,119.2-95.7,128.1l-38.5,5.6
		c-61.8,8.9-119.2-33.9-128.1-95.7l-26.6-183.8C1439.1,441.4,1482,384,1543.8,375.1z"/>
	<path class="st17" d="M1641.3,777.1l-38.5,5.6c-61.8,8.9-119.2-33.9-128.1-95.7l7.3,50.4c8.9,61.8,66.3,104.7,128.1,95.7l38.5-5.6
		c61.8-8.9,104.7-66.3,95.7-128.1c0,0,0,0,0,0l-7.3-50.4C1746,710.8,1703.2,768.1,1641.3,777.1
		C1641.3,777.1,1641.3,777.1,1641.3,777.1L1641.3,777.1z"/>
	<g class="st18">
		<path class="st19" d="M1607.9,688.3c-0.3-2-0.1-4.1,0.5-6.1c2.1-6.3,8.6-8.5,9.5-8.8c1.4,6.8-2.9,13.4-9.7,14.8
			C1608.2,688.2,1608,688.2,1607.9,688.3L1607.9,688.3z"/>
		<path class="st19" d="M1630.4,707.5c-1-1.6-1.7-3.3-2-5.2c-0.1-0.8-0.2-1.5-0.1-2.3c0.1-2.8,1.1-5.5,2.9-7.8
			c0.5-0.6,1-1.2,1.6-1.8c-1.3-1.1-2.8-2-4.4-2.7c-2-0.9-4.1-1.4-6.3-1.3c-1.9,0.2-2,0.7-7.9,2.9c-1.3,0.6-2.6,1-4,1.3
			c-2.5,0.3-3.6-0.4-6.7-0.8c-1.8-0.2-3.6-0.2-5.4,0.1c-4.4,0.7-8,4.7-9.9,8.6c-0.3,0.5-0.5,1-0.7,1.5c-0.8,1.9-1.1,4-1.1,6.1
			c0.1,2.6,0.6,5.2,1.5,7.6c0.7,2,1.6,4,2.4,5.8c0,0,0.2,0.3,0.4,0.8c1.2,2.3,2.7,4.5,4.4,6.5c1.4,1.7,3,3.2,4.9,4.4
			c2.5,1.7,4.2,1.9,5.4,1.9c1.6-0.1,3.1-0.5,4.5-1.2c2-1,1.8-1.6,3.5-2.2c1.5-0.5,3-0.6,4.6-0.4c1.1,0.1,2.2,0.3,3.3,0.6
			c1.6,0.3,3.3,0.5,4.9,0.6c3.6-0.2,6.2-4.5,8.1-7.8c0.3-0.4,0.6-1,0.8-1.5c1.2-2.4,2.1-4.9,2.7-7.5c0-0.2,0.1-0.4,0.1-0.6
			C1634.8,712.1,1632.2,710.1,1630.4,707.5L1630.4,707.5z"/>
	</g>
</g>
</svg>
