<svg xmlns="http://www.w3.org/2000/svg" viewBox="0 0 2643.56 1982.67"><defs><style>.cls-1,.cls-12,.cls-15{fill:#302d2e;}.cls-1{opacity:0.15;}.cls-2{fill:#fff;}.cls-3{opacity:0.1;}.cls-10,.cls-11,.cls-16,.cls-17,.cls-18,.cls-19,.cls-20,.cls-21,.cls-35,.cls-4,.cls-5,.cls-6,.cls-8,.cls-9{fill:none;}.cls-18,.cls-19,.cls-20,.cls-21,.cls-4,.cls-5,.cls-6{stroke:#000;}.cls-10,.cls-11,.cls-15,.cls-16,.cls-17,.cls-18,.cls-19,.cls-20,.cls-21,.cls-35,.cls-4,.cls-5,.cls-6,.cls-8,.cls-9{stroke-linecap:round;}.cls-10,.cls-11,.cls-13,.cls-15,.cls-16,.cls-17,.cls-18,.cls-19,.cls-20,.cls-21,.cls-35,.cls-4,.cls-5,.cls-6,.cls-8,.cls-9{stroke-miterlimit:10;}.cls-4,.cls-5,.cls-6{stroke-width:11.01px;}.cls-5{stroke-dasharray:1.23 79.74;}.cls-6{stroke-dasharray:1.23 79.74;}.cls-7{opacity:0.5;}.cls-10,.cls-11,.cls-35,.cls-8,.cls-9{stroke:#5f5a52;}.cls-8{stroke-width:12.08px;}.cls-10,.cls-11,.cls-8,.cls-9{opacity:0.58;}.cls-9{stroke-width:11.46px;}.cls-10{stroke-width:16.99px;}.cls-11{stroke-width:15.7px;}.cls-13{fill:#6d6767;stroke:#302d2e;stroke-width:1.21px;}.cls-13,.cls-15,.cls-19,.cls-20,.cls-21{opacity:0.24;}.cls-14{opacity:0.02;}.cls-15{stroke:#6d6767;stroke-width:11.11px;}.cls-16,.cls-17{stroke:#9068ad;}.cls-16,.cls-18,.cls-19{stroke-width:20.84px;}.cls-17{stroke-width:29.18px;opacity:0.66;}.cls-18{opacity:0.54;}.cls-20{stroke-width:8.34px;}.cls-21{stroke-width:5.56px;}.cls-22{fill:#9068ad;opacity:0.4;}.cls-23{fill:#393536;}.cls-24{fill:#272425;}.cls-25{fill:#fcf5f9;}.cls-26{fill:#e1dce1;}.cls-27{fill:#d18fad;}.cls-28{fill:#de98b8;}.cls-29{fill:#e5b55d;}.cls-30{fill:#d3a856;}.cls-31{fill:#c4c6c8;}.cls-32{fill:#e0e1e2;}.cls-33{fill:#eecf98;}.cls-34{fill:#eac27b;}.cls-35{stroke-width:9.09px;}.cls-36{fill:#5f5a52;}.cls-37{fill:#e4abc5;}</style></defs><title>portfolio-icons</title><g id="_8-bitify-banner" data-name="8-bitify-banner"><g id="sketch"><g id="grid"><rect class="cls-1" x="230.7" y="216.82" width="2336.28" height="1489.82"/><rect class="cls-2" x="230.7" y="188.29" width="2336.28" height="1489.82"/><g class="cls-3"><line class="cls-4" x1="386.78" y1="319.77" x2="387.39" y2="319.77"/><line class="cls-5" x1="467.13" y1="319.77" x2="2370.42" y2="319.77"/><line class="cls-4" x1="2410.29" y1="319.77" x2="2410.9" y2="319.77"/></g><g class="cls-3"><line class="cls-4" x1="386.78" y1="473.12" x2="387.39" y2="473.12"/><line class="cls-5" x1="467.13" y1="473.12" x2="2370.42" y2="473.12"/><line class="cls-4" x1="2410.29" y1="473.12" x2="2410.9" y2="473.12"/></g><g class="cls-3"><line class="cls-4" x1="386.78" y1="549.8" x2="387.39" y2="549.8"/><line class="cls-6" x1="467.13" y1="549.8" x2="2370.42" y2="549.8"/><line class="cls-4" x1="2410.29" y1="549.8" x2="2410.9" y2="549.8"/></g><g class="cls-3"><line class="cls-4" x1="386.78" y1="396.45" x2="387.39" y2="396.45"/><line class="cls-5" x1="467.13" y1="396.45" x2="2370.42" y2="396.45"/><line class="cls-4" x1="2410.29" y1="396.45" x2="2410.9" y2="396.45"/></g><g class="cls-3"><line class="cls-4" x1="386.78" y1="626.48" x2="387.39" y2="626.48"/><line class="cls-5" x1="467.13" y1="626.48" x2="2370.42" y2="626.48"/><line class="cls-4" x1="2410.29" y1="626.48" x2="2410.9" y2="626.48"/></g><g class="cls-3"><line class="cls-4" x1="386.78" y1="779.84" x2="387.39" y2="779.84"/><line class="cls-5" x1="467.13" y1="779.84" x2="2370.42" y2="779.84"/><line class="cls-4" x1="2410.29" y1="779.84" x2="2410.9" y2="779.84"/></g><g class="cls-3"><line class="cls-4" x1="386.78" y1="856.52" x2="387.39" y2="856.52"/><line class="cls-5" x1="467.13" y1="856.52" x2="2370.42" y2="856.52"/><line class="cls-4" x1="2410.29" y1="856.52" x2="2410.9" y2="856.52"/></g><g class="cls-3"><line class="cls-4" x1="386.78" y1="703.16" x2="387.39" y2="703.16"/><line class="cls-5" x1="467.13" y1="703.16" x2="2370.42" y2="703.16"/><line class="cls-4" x1="2410.29" y1="703.16" x2="2410.9" y2="703.16"/></g><g class="cls-3"><line class="cls-4" x1="386.78" y1="933.2" x2="387.39" y2="933.2"/><line class="cls-5" x1="467.13" y1="933.2" x2="2370.42" y2="933.2"/><line class="cls-4" x1="2410.29" y1="933.2" x2="2410.9" y2="933.2"/></g><g class="cls-3"><line class="cls-4" x1="386.78" y1="1086.56" x2="387.39" y2="1086.56"/><line class="cls-5" x1="467.13" y1="1086.56" x2="2370.42" y2="1086.56"/><line class="cls-4" x1="2410.29" y1="1086.56" x2="2410.9" y2="1086.56"/></g><g class="cls-3"><line class="cls-4" x1="386.78" y1="1163.23" x2="387.39" y2="1163.23"/><line class="cls-5" x1="467.13" y1="1163.23" x2="2370.42" y2="1163.23"/><line class="cls-4" x1="2410.29" y1="1163.23" x2="2410.9" y2="1163.23"/></g><g class="cls-3"><line class="cls-4" x1="386.78" y1="1009.88" x2="387.39" y2="1009.88"/><line class="cls-5" x1="467.13" y1="1009.88" x2="2370.42" y2="1009.88"/><line class="cls-4" x1="2410.29" y1="1009.88" x2="2410.9" y2="1009.88"/></g><g class="cls-3"><line class="cls-4" x1="386.78" y1="1239.91" x2="387.39" y2="1239.91"/><line class="cls-5" x1="467.13" y1="1239.91" x2="2370.42" y2="1239.91"/><line class="cls-4" x1="2410.29" y1="1239.91" x2="2410.9" y2="1239.91"/></g><g class="cls-3"><line class="cls-4" x1="386.78" y1="1393.27" x2="387.39" y2="1393.27"/><line class="cls-5" x1="467.13" y1="1393.27" x2="2370.42" y2="1393.27"/><line class="cls-4" x1="2410.29" y1="1393.27" x2="2410.9" y2="1393.27"/></g><g class="cls-3"><line class="cls-4" x1="386.78" y1="1469.95" x2="387.39" y2="1469.95"/><line class="cls-5" x1="467.13" y1="1469.95" x2="2370.42" y2="1469.95"/><line class="cls-4" x1="2410.29" y1="1469.95" x2="2410.9" y2="1469.95"/></g><g class="cls-3"><line class="cls-4" x1="386.78" y1="1546.63" x2="387.39" y2="1546.63"/><line class="cls-5" x1="467.13" y1="1546.63" x2="2370.42" y2="1546.63"/><line class="cls-4" x1="2410.29" y1="1546.63" x2="2410.9" y2="1546.63"/></g><g class="cls-3"><line class="cls-4" x1="386.78" y1="1316.59" x2="387.39" y2="1316.59"/><line class="cls-5" x1="467.13" y1="1316.59" x2="2370.42" y2="1316.59"/><line class="cls-4" x1="2410.29" y1="1316.59" x2="2410.9" y2="1316.59"/></g></g><g class="cls-7"><path class="cls-8" d="M1732.78,1447.67c317.86,2.68,444.86,5.62,453.82,8.59a22.16,22.16,0,0,0,14.49.38,25.57,25.57,0,0,0,10.15-7.47c19.78-23.81,13.85-943.79,20.72-965.93.24-.79,2.7-7.52-.09-11.72-2.52-3.79-8-3.65-9.85-3.63-7.16.11-422.36,5.3-449.83-5.15-1.17-.45-6.8-2.88-10.63,0-5.55,4.17-3.74,16.76-3.55,18.59,2,18.41-8.74,357.48-25.79,854"/><path class="cls-9" d="M1813.32,951.11c67.46.27,94.42.58,96.32.88a9.62,9.62,0,0,0,3.08,0,7.35,7.35,0,0,0,2.15-.77c4.2-2.44,2.94-96.89,4.4-99.17,0-.08.57-.77,0-1.2a4.13,4.13,0,0,0-2.09-.37c-1.52,0-89.65.54-95.48-.53a4.72,4.72,0,0,0-2.25,0c-1.18.43-.8,1.72-.76,1.91.42,1.89-1.85,36.7-5.47,87.68"/><path class="cls-9" d="M2044.11,1152.25c67.46.27,94.42.58,96.32.88a9.55,9.55,0,0,0,3.07,0,7.36,7.36,0,0,0,2.16-.77c4.2-2.44,2.94-96.89,4.39-99.17.06-.08.58-.77,0-1.2a4.26,4.26,0,0,0-2.09-.37c-1.52,0-89.65.54-95.48-.53a4.76,4.76,0,0,0-2.26,0c-1.17.43-.79,1.72-.75,1.91.42,1.89-1.86,36.7-5.47,87.68"/><path class="cls-9" d="M1850.72,517.18h68.81"/><path class="cls-9" d="M1980,853h168.65"/><path class="cls-9" d="M1980,901h168.65"/><path class="cls-9" d="M1821.61,1054.18h168.65"/><path class="cls-9" d="M1821.61,1102.13h168.65"/><path class="cls-9" d="M1972.22,1253.19h168.66"/><path class="cls-9" d="M1972.22,1303.26h84.33"/><path class="cls-9" d="M2001.4,513H2044"/><path class="cls-9" d="M2084.93,515.07h49.25"/><path class="cls-9" d="M2163.55,513h42.61"/><path class="cls-9" d="M1861.6,1261c-18.65,3.26-34.22,16.81-38.4,35-7.84,34.21,26.79,75.09,48,68,18.27-6.13,30.88-49.34,19.2-80.33-10.72-28.42-40.62-43.21-68.78-28.83"/></g><g class="cls-7"><path class="cls-10" d="M388.05,353.42c-3.31,507.17-6.95,709.82-10.64,724.12-.37,1.45-3.53,11.77-.47,23.12a42.93,42.93,0,0,0,9.26,16.2c29.51,31.56,1169.52,22.09,1197,33.05,1,.39,9.32,4.31,14.53-.15,4.69-4,4.52-12.83,4.49-15.71-.13-11.42-6.57-673.91,6.38-717.75.56-1.86,3.58-10.84,0-17-5.16-8.86-20.76-6-23-5.66-22.82,3.14-443-13.95-1058.3-41.15"/><path class="cls-11" d="M533.05,1072.64c112,.45,156.81.94,160,1.44a16.19,16.19,0,0,0,5.11.06,12.28,12.28,0,0,0,3.58-1.25c7-4,4.88-157.17,7.3-160.86.08-.13,1-1.25,0-1.95s-2.84-.61-3.47-.61c-2.53,0-148.88.89-158.57-.85a8.14,8.14,0,0,0-3.74,0c-2,.69-1.32,2.79-1.25,3.09.69,3.07-3.09,59.54-9.1,142.23"/><path class="cls-11" d="M472.31,460.89h190"/><path class="cls-11" d="M789.62,962.71H1450.5"/><path class="cls-11" d="M789.62,1039.52h414.53"/><path class="cls-11" d="M1450.5,462.7H1521"/><path class="cls-11" d="M1269.35,462.7h70.5"/><path class="cls-11" d="M1122,461.35h70.5"/></g></g><g id="iphone"><rect class="cls-1" x="80.17" y="648.71" width="582.15" height="1246.46" rx="39.39"/><rect class="cls-12" x="80.17" y="626.9" width="582.15" height="1246.46" rx="39.39"/><ellipse class="cls-13" cx="371.24" cy="1813.28" rx="44.6" ry="46.52"/><rect class="cls-13" x="105.88" y="740.01" width="532.43" height="1004.1"/><rect class="cls-2" x="122.09" y="758.39" width="500.02" height="967.35"/><rect class="cls-14" x="122.09" y="820.49" width="500.02" height="248.85"/><line class="cls-15" x1="326.64" y1="692.73" x2="404.57" y2="692.73"/><line class="cls-16" x1="149.07" y1="791.42" x2="224.25" y2="791.42"/><line class="cls-17" x1="340.02" y1="1017.68" x2="415.2" y2="1017.68"/><line class="cls-18" x1="545.41" y1="791.42" x2="597.66" y2="791.42"/><line class="cls-19" x1="445.79" y1="791.42" x2="498.05" y2="791.42"/><line class="cls-19" x1="342.2" y1="791.42" x2="394.45" y2="791.42"/><line class="cls-20" x1="237.43" y1="966.75" x2="517.8" y2="966.75"/><line class="cls-20" x1="237.43" y1="932.64" x2="517.8" y2="932.64"/><line class="cls-21" x1="149.07" y1="1288.99" x2="429.45" y2="1288.99"/><line class="cls-21" x1="149.07" y1="1254.88" x2="429.45" y2="1254.88"/><line class="cls-21" x1="149.07" y1="1306.05" x2="331.47" y2="1306.05"/><line class="cls-21" x1="149.07" y1="1271.94" x2="429.45" y2="1271.94"/><line class="cls-21" x1="311.57" y1="1163.93" x2="591.94" y2="1163.93"/><line class="cls-21" x1="311.57" y1="1129.82" x2="591.94" y2="1129.82"/><line class="cls-21" x1="311.57" y1="1180.99" x2="493.97" y2="1180.99"/><line class="cls-21" x1="311.57" y1="1146.88" x2="591.94" y2="1146.88"/><rect class="cls-22" x="149.07" y="1114.16" width="101.05" height="79.92"/><line class="cls-21" x1="311.57" y1="1419.54" x2="591.94" y2="1419.54"/><line class="cls-21" x1="311.57" y1="1385.43" x2="591.94" y2="1385.43"/><line class="cls-21" x1="311.57" y1="1436.6" x2="493.97" y2="1436.6"/><line class="cls-21" x1="311.57" y1="1402.49" x2="591.94" y2="1402.49"/><rect class="cls-22" x="149.07" y="1369.77" width="101.05" height="79.92"/><rect class="cls-22" x="493.97" y="1241.97" width="101.05" height="79.92"/><ellipse class="cls-22" cx="199.59" cy="1555.67" rx="33.17" ry="34.6"/><ellipse class="cls-22" cx="199.59" cy="1669.94" rx="33.17" ry="34.6"/><line class="cls-21" x1="285.72" y1="1547.14" x2="566.1" y2="1547.14"/><line class="cls-21" x1="285.72" y1="1564.2" x2="514.4" y2="1564.2"/><line class="cls-21" x1="285.72" y1="1661.41" x2="566.1" y2="1661.41"/><line class="cls-21" x1="285.72" y1="1678.46" x2="514.4" y2="1678.46"/></g><g id="pencil"><path class="cls-1" d="M2515.89,1756.26h28a23.05,23.05,0,0,0,23.05-23V1642h-51.09Z"/><path class="cls-1" d="M2464.8,1642v91.24a23.05,23.05,0,0,0,23,23h28V1642Z"/><polygon class="cls-23" points="2532.36 435.52 2515.89 396.45 2515.89 435.52 2532.36 435.52"/><polygon class="cls-24" points="2515.89 396.45 2499.43 435.52 2515.89 435.52 2515.89 396.45"/><polygon class="cls-25" points="2515.89 435.52 2499.43 435.52 2464.8 517.72 2515.89 517.72 2515.89 435.52"/><polygon class="cls-26" points="2515.89 517.72 2566.98 517.72 2532.36 435.52 2515.89 435.52 2515.89 517.72"/><path class="cls-27" d="M2515.89,1732.88h28a23.05,23.05,0,0,0,23.05-23.05v-91.25h-51.09Z"/><path class="cls-28" d="M2464.8,1618.58v91.25a23.05,23.05,0,0,0,23,23.05h28v-114.3Z"/><rect class="cls-29" x="2464.8" y="517.72" width="51.09" height="1006.19"/><rect class="cls-30" x="2515.89" y="517.72" width="51.09" height="1006.19"/><rect class="cls-31" x="2515.89" y="1523.92" width="51.09" height="94.67"/><rect class="cls-32" x="2464.8" y="1523.92" width="51.09" height="94.67"/></g><g id="post-it"><polygon class="cls-1" points="2409.1 658.65 1919.29 585.4 1874.44 519.7 1936.84 102.45 2480.13 183.71 2409.1 658.65"/><polygon class="cls-33" points="2408.85 639.63 1919.04 566.37 1874.19 500.68 1936.6 83.43 2479.89 164.68 2408.85 639.63"/><polygon class="cls-34" points="1928.71 508.83 1874.19 500.68 1919.04 566.37 1928.71 508.83"/><path class="cls-35" d="M1990.79,136.52c-22,25.25-39.53,47.8-35.54,52.27,6.43,7.2,63.89-37.83,69.71-31.16,7.75,8.86-88.35,94.71-77.24,110,3.64,5,20.16,4.45,85.36-28.82"/><line class="cls-35" x1="2276.22" y1="552.61" x2="2272.32" y2="525.53"/><line class="cls-35" x1="2332.59" y1="544.49" x2="2328.69" y2="517.41"/><path class="cls-35" d="M2249.39,573.42c6.45,5.46,21.54,16.59,43.15,18.46,42.79,3.7,70.69-32.45,72.71-35.16"/><path class="cls-36" d="M2065.37,458.43l-.17,1.28,0,1.53-.22.65a6.12,6.12,0,0,0-.24.75,2.29,2.29,0,0,1-.67,1c0,.14-.19.5-.45,1.09a32.1,32.1,0,0,1-5.36,4.49,33.49,33.49,0,0,1-3.46,1.36,2.55,2.55,0,0,0-.53.4l-10.88,3a1,1,0,0,0-.34,0,5.86,5.86,0,0,0-1,.14,13.06,13.06,0,0,1-1.52.3l-5.14.44a.45.45,0,0,1-.23-.11.49.49,0,0,0-.2-.1l-1.9,0-5.68-1.05c-.7-.25-1.7-.65-3-1.19a21.34,21.34,0,0,1-2.09-1.27c-.26-.17-1-.71-2.21-1.6a9.89,9.89,0,0,1-2.14-5.13,12.25,12.25,0,0,1,.68-4.27c.26-.47.67-1.15,1.23-2.05a10.89,10.89,0,0,1,4.31-4.54,37.78,37.78,0,0,1,5-2.33l-.15-.38a7.67,7.67,0,0,1-3.15-3.44c-.11-.36-.25-.89-.41-1.59a10.59,10.59,0,0,1-.24-1.27,9.06,9.06,0,0,1,1.19-3.92,7.54,7.54,0,0,1,2.67-3.45c1.69-.58,2.53-.87,2.53-.89a1.85,1.85,0,0,1,1,.29l.94,0,.8.05.41.15c.27-.22.62-.52,1.08-.92l4.78-1.68,4.84-.75,2.29.28a8.21,8.21,0,0,0,.82-.35,4.62,4.62,0,0,0,1.87.34c.85,0,1.4.25,1.65.7a.18.18,0,0,0,.18-.21,4.18,4.18,0,0,1,.84.43q2.71.22,6.07,4.63a6.13,6.13,0,0,1,.44,1.76l-.11,1.05a10.47,10.47,0,0,0-.12,1.48c-.1.19-.29.48-.56.89a16.66,16.66,0,0,1-1,2.35,3,3,0,0,0-1.42.89l-1.14,1.08a4,4,0,0,0,.87.67,1.94,1.94,0,0,0,.83.25c1.15.62,2.12,1.17,2.89,1.66a8.37,8.37,0,0,1,.4.77c.18.12.5.29.95.52Q2065.12,456.25,2065.37,458.43Zm-5.17,2c0-.74-.74-1.71-2.15-2.9a10,10,0,0,0-3.91-2.22,14.29,14.29,0,0,0-2.32-.57,17.86,17.86,0,0,0-3.24-.46h0l-8.66.45-7.74,1.48-.7.15a33.63,33.63,0,0,1-4.21,1.76,4.37,4.37,0,0,0-.79.58,5.76,5.76,0,0,0-2.27,1.71,4.15,4.15,0,0,0-1.11,2.29,3.52,3.52,0,0,0,.76,1.06,9,9,0,0,1,1,.87c.83.38,2.06,1,3.67,1.77a12.12,12.12,0,0,1,1.94.61l4.5.7h4a42.16,42.16,0,0,0,4.84-.67l3.82-.74a23.68,23.68,0,0,1,2.8-.79,2.58,2.58,0,0,0,1.06-.47c.48-.09,1.11-.18,1.9-.29l5.5-2.55C2059.79,461.62,2060.21,461,2060.2,460.39Zm-5.66-18.48a6,6,0,0,0-1.69-1.31q-1.39-1.07-5.09-1.27l-2.67-.16-2.88.61-.21-.24c-1,.28-2.73.79-5.27,1.56a11.79,11.79,0,0,0-4.88,2.87,7,7,0,0,0,3.92,2,16.7,16.7,0,0,0,4.29.5l1.23-.09,1.21-.1a42.38,42.38,0,0,0,6.62-1.59,8.66,8.66,0,0,1,2-.7l3.24-1.39.06-.23A1.16,1.16,0,0,0,2054.54,441.91Z"/><path class="cls-36" d="M2098,461.85a8.78,8.78,0,0,0-.76,1,4.88,4.88,0,0,1-2.44.77l-8,.8-6,.14a13,13,0,0,0-4.8.67,1.84,1.84,0,0,1-.34-.11,1.54,1.54,0,0,0-.31-.12h-.18a.18.18,0,0,0-.09.15.37.37,0,0,0,.16.18,1.1,1.1,0,0,1-.64.17l-.39-.48-2.38.05c-.38-.29-.94-.7-1.69-1.23a2.59,2.59,0,0,0-.65-1.13,6.75,6.75,0,0,1-.57-2.18,5.46,5.46,0,0,1,.3-1.82q.39-.33,1.14-1.08l3.89-.12,8.32.25,4.2-.37A7.94,7.94,0,0,0,2088,457a4.9,4.9,0,0,1,.48.22l4.71-.65a17.34,17.34,0,0,0,2.72,1.28,12.57,12.57,0,0,1,1.4,2.43c.17.28.41.65.72,1.13Zm-20.18,3.3a.29.29,0,0,1-.24.16s0,0,0,0Z"/><path class="cls-36" d="M2132.71,458a19.21,19.21,0,0,1-1.46,3.53,2.16,2.16,0,0,0-.89,1.25,27.61,27.61,0,0,1-6.43,4.53c-.45.23-2.6,1.25-6.47,3a19.19,19.19,0,0,0-2.5.69c-1.12.37-1.7.55-1.73.55l-.46,0a4.57,4.57,0,0,0-.51,0,1.85,1.85,0,0,0-1.33-.67h-.29a3.73,3.73,0,0,0-.58-.81l-.73,1.4a2,2,0,0,1-.78.18l-.23,0-.46.48h-.35a7.58,7.58,0,0,1-1.29-.57l-.7.15c-.79-.64-1.19-1.18-1.2-1.61a4,4,0,0,1-.74-2,3.6,3.6,0,0,1-.52-1.31c0-.24-.12-.67-.24-1.31a3.45,3.45,0,0,0-.27-1v.11l-.05-2.39a12,12,0,0,1-.24-1.56.44.44,0,0,1,0-.18,2.59,2.59,0,0,1-.08-.63,2.9,2.9,0,0,1,.09-.83,3.27,3.27,0,0,0-1.5-.91,3.32,3.32,0,0,1-.88-2.19,3.78,3.78,0,0,1,.62-1.95,4.12,4.12,0,0,1,1.35-1.55l-.11-11.45c0-.76.09-2.35.2-4.77a7.57,7.57,0,0,1,1-3.59l.53-.53a4,4,0,0,1,1.11-.43,2.6,2.6,0,0,1,.48.1l.42.1a11.94,11.94,0,0,0,1.16,1.72c.22.57.47,1.3.75,2.2a1,1,0,0,0,0,.25q0,.39.09,1c.06.43.12,1,.2,1.68l.7,10.89a.45.45,0,0,0,.26.22,10.83,10.83,0,0,1,1.6-.22l4.67-.51,4.55,0,1.84.09c1.26.21,2.33.42,3.22.62.2.09.51.24.93.47a8.45,8.45,0,0,1,3.91,2.26,9,9,0,0,1,2.38,3.28,14.71,14.71,0,0,0,.93,2.38S2132.72,458.05,2132.71,458Zm-7.48.18v-.36a6.09,6.09,0,0,0-1.56-1.24,17.69,17.69,0,0,0-5.64-1,4,4,0,0,0-.61-.14h0l-4.55.31a19.64,19.64,0,0,0-4.2,1.27l0,.73a1.69,1.69,0,0,0,.12.34,1.72,1.72,0,0,1,.12.33l.05,2.44,1,6a.32.32,0,0,1,.24-.09,1.57,1.57,0,0,1,.24-.46,42.53,42.53,0,0,1,5.81-2.71,24.27,24.27,0,0,0,4.87-2.36Q2122,461.07,2125.23,458.18Z"/><path class="cls-36" d="M2142.58,463.79v-.06a1.48,1.48,0,0,0-.06.34c0,.34-.06.72-.08,1.14s0,1.23,0,2l.06,2.3-.66,1.68-.49-.1c-.13.1-.29.22-.47.34a2.8,2.8,0,0,1-.45-.21,1.85,1.85,0,0,0-.46.24,10.43,10.43,0,0,0-1.9-.52,14.68,14.68,0,0,1-1.52-4.51,7.57,7.57,0,0,1-.14-1.43c0-.2,0-.41,0-.63l0-4,.5-2.68a2.59,2.59,0,0,0,.78-1.18l1.2-.3a1.46,1.46,0,0,1,.75.29c.46.52,1.15,1.25,2.07,2.2a4.72,4.72,0,0,1,.79,2.29Zm.89-16.91a2.27,2.27,0,0,1-.34.48,2.86,2.86,0,0,1,.25,1.05,3.14,3.14,0,0,1-1.19.85.67.67,0,0,0-.45-.1c-.26,0-.41,0-.47.12a6.86,6.86,0,0,0-2.21-.64,9.77,9.77,0,0,1-.89-2.33v0l.17-2.52a3,3,0,0,0,.72-.62l1.41,0a5.21,5.21,0,0,1,1.56,1.57,1.38,1.38,0,0,1,.88.9A10.29,10.29,0,0,0,2143.47,446.88Z"/><path class="cls-36" d="M2184.26,453.91l-.76,0a1.23,1.23,0,0,0-.17.54.7.7,0,0,0,0,.14,1.37,1.37,0,0,1-.69.3c-.75.83-1.21,1.24-1.38,1.25l-1.92,0-2,.54a2.3,2.3,0,0,0-.67-.07l-2.86.6-.3,0a2.75,2.75,0,0,0-.39,0,16.64,16.64,0,0,0-1.77.27c-.59.08-1.49.24-2.7.46a7.41,7.41,0,0,0-2.17,1c-.6,4.16-.9,6.41-.89,6.77l0,1.75c0,.09-.11.61-.32,1.57a12.41,12.41,0,0,0-.32,1.8c-.56.25-1.4.67-2.52,1.25t-.84-.54a3,3,0,0,0-.93-.49,7.14,7.14,0,0,1-1.2-3.18q-.08-.46-.36-3l.36-3.62,0-1.36-.16-.2h-.5l-5.23,1.2h-.09a.72.72,0,0,1-.45-.14l-4.17.92c-.24-.15-.69-.39-1.34-.7a2.16,2.16,0,0,1-.9-1c-.15-.28-.35-.64-.58-1.08a15.26,15.26,0,0,0-.32-1.92v0a2.8,2.8,0,0,1,.5-1.49c.32-.5.64-.75.95-.76h.07l8.16-.75,5.32-1.39q.43-4,1.42-12.08c.63-2.18,1.22-4,1.75-5.47a8.07,8.07,0,0,1,1.77-1.63,24.73,24.73,0,0,1,2.64,1.53q.48,2.52.51,2.52l-1.64,12.14,0,1.74,3.16-.07h0c.06,0,.16-.05.31-.19h.65a2.79,2.79,0,0,1,.39,0l.42,0,.73-.18c.46-.11.71-.17.76-.17a1.64,1.64,0,0,1,.7.2,14.68,14.68,0,0,1,3.35-.3s1.08.16,3.24.44a17.3,17.3,0,0,0,2.19.93v.14a.72.72,0,0,1-.15.47,2.16,2.16,0,0,0,.66,1.11h.11A.54.54,0,0,1,2184.26,453.91Z"/><path class="cls-36" d="M2191.26,462.64v-.07s0,.12-.06.34-.07.73-.09,1.15,0,1.22,0,2l.05,2.31-.65,1.67-.5-.1c-.13.11-.29.23-.46.35a3.29,3.29,0,0,1-.46-.21,1.64,1.64,0,0,0-.46.23,9.73,9.73,0,0,0-1.89-.51,14.49,14.49,0,0,1-1.52-4.52,6.66,6.66,0,0,1-.15-1.43c0-.19,0-.4,0-.62l0-4,.49-2.67a2.61,2.61,0,0,0,.78-1.19l1.21-.3a1.57,1.57,0,0,1,.74.3q.69.76,2.07,2.19a4.79,4.79,0,0,1,.79,2.29Zm.9-16.91a2.67,2.67,0,0,1-.35.47,2.86,2.86,0,0,1,.25,1.05,3,3,0,0,1-1.19.86c-.06-.07-.21-.11-.45-.1s-.41,0-.47.12a6.62,6.62,0,0,0-2.21-.64,9.53,9.53,0,0,1-.88-2.33v-.05l.17-2.51a2.77,2.77,0,0,0,.72-.62l1.41,0a5.52,5.52,0,0,1,1.57,1.58,1.35,1.35,0,0,1,.87.9A9.06,9.06,0,0,0,2192.16,445.73Z"/><path class="cls-36" d="M2230.37,438.48c-.09.14-.26.36-.5.66a1.09,1.09,0,0,0-.28.64.4.4,0,0,0,0,.17c-.1.17-.47.33-1.09.48a5.92,5.92,0,0,0-1.16.32H2227c-.7-.67-1.15-1-1.34-1h-.05q-.1-.67-1.29-1.56a3.43,3.43,0,0,0-2-.88,14.41,14.41,0,0,0-4.11-1.76,15.56,15.56,0,0,0-4.46-.81h0s-.84.22-2.52.57a6.43,6.43,0,0,0-1.62,1.34,15.34,15.34,0,0,0-.86,1.64,46.16,46.16,0,0,0-1,11.43q0,.33.06,1l.41,4.07a1,1,0,0,0,.62.25h0l8.39-.51a6,6,0,0,1,1,.2,6.35,6.35,0,0,0,.46.52h.06q.54,0,1.35.87a2,2,0,0,1-.33.36v.34a.68.68,0,0,0,.45.21.76.76,0,0,0-.17.48.63.63,0,0,0,.08.26,2.49,2.49,0,0,0-.9.92A7.7,7.7,0,0,0,2217,460c-1.05.31-2.59.73-4.63,1.25a2.38,2.38,0,0,0-.61.47,25.9,25.9,0,0,1,1.63,2.6,16.58,16.58,0,0,0,.69,2.67s0,0,0,0v.36l-1.53.93v.4l-1.25,0a.66.66,0,0,0-.23.59,5.73,5.73,0,0,0-1.2-.2l-.46.13a29.36,29.36,0,0,0-3.5-3c-.54-.7-1.3-1.74-2.27-3.13l-.65,0a6.74,6.74,0,0,0-.89.27c-.56.16-.87.24-.91.24l-2,.05a2.89,2.89,0,0,1-2.07-.49c-1.38,0-2.08-.81-2.12-2.34,0-.84.64-2.16,2-3.95l.93-.29a2.44,2.44,0,0,1,.63-.13.93.93,0,0,1,.45.1,3.25,3.25,0,0,1,1.27-.3h.51l.18-.16,0-1.5s-.08-.35-.25-1-.24-.93-.24-1l-.07-3a44.14,44.14,0,0,1,.41-6.4,27.68,27.68,0,0,1,1.6-6.94q2.61-6.19,6.4-6.89.55-.22,4.23-1.11h.25a8.78,8.78,0,0,1,2.66.54l.29-.09a1.47,1.47,0,0,1,.29,0h0a6.46,6.46,0,0,0,1.15.31.69.69,0,0,1,.42-.21c.69,0,3,.81,6.92,2.5a29,29,0,0,1,5.1,4.49.69.69,0,0,0,0,.25,5.36,5.36,0,0,0,.13.83,6.66,6.66,0,0,1,.27,1.09Z"/><path class="cls-36" d="M2244.34,458.16q.07,2.74-2.31,11.3-.34,1.26-3.44,10.48a.3.3,0,0,0,.29.12h-.31l-2,5-2.17,7.43a12.14,12.14,0,0,0-1.23,1.28,3.78,3.78,0,0,0-.76.2l-.57.21-.57-.14c-.47-.48-1.21-1.24-2.2-2.28a19.61,19.61,0,0,1-.71-3.39l.57-3.28,2-6.37,4-10.13c-.05-.13-.11-.29-.19-.47a13.6,13.6,0,0,1-3.43.82q-3.68.09-6-4.63a18.29,18.29,0,0,1-2-7.93,7.34,7.34,0,0,1,.43-2.43,17.88,17.88,0,0,1,1.25-1.32h.31q1.1,0,2.19,1.65a5.77,5.77,0,0,1,.74,1.86c.83,3.52,1.52,5.28,2.05,5.27,1.21,0,2.89-1,5-2.84a28.84,28.84,0,0,0,4.26-4.49,1.71,1.71,0,0,0,.89-.47,4.26,4.26,0,0,0,1.21.11l1.18,1.36a3.52,3.52,0,0,1,.47.15A4.52,4.52,0,0,1,2244.34,458.16Z"/><path class="cls-35" d="M2305.38,179.24c-10.08.87-16.41,10.46-17.67,12.37-12.08,18.3-6,51.64,12.37,57.44,14.06,4.44,34.27-7.64,38.88-24.75C2345,201.94,2322.54,177.75,2305.38,179.24Z"/><path class="cls-35" d="M2218.78,193.38c-10.48,1.62-17.24,13.6-19.44,22.09-5,19.38,7.36,44.92,23.86,46,12.91.8,26.31-13.53,28.28-28.28C2254.24,212.44,2234.5,190.94,2218.78,193.38Z"/><path class="cls-35" d="M2287.71,269.37c-7.12-4.77-16.32-2.35-18.56-1.77-14.83,3.89-26.44,20.27-24.74,37.12,2.16,21.34,24.9,35.76,37.11,31.81C2299.57,330.68,2305.48,281.26,2287.71,269.37Z"/></g><g id="eraser"><path class="cls-1" d="M2106.18,1582.5v67.61a29.13,29.13,0,0,0,29.13,29.13h133.56a29.13,29.13,0,0,0,29.13-29.13V1582.5Z"/><path class="cls-37" d="M2298,1233.56a29.13,29.13,0,0,0-29.13-29.13H2135.31a29.13,29.13,0,0,0-29.13,29.13v323.65H2298Z"/><path class="cls-28" d="M2106.18,1557.21v67.61a29.14,29.14,0,0,0,29.13,29.14h133.56a29.14,29.14,0,0,0,29.13-29.14v-67.61Z"/></g></g></svg>