<svg enable-background="new 0 0 1800 864" viewBox="0 0 1800 864" xmlns="http://www.w3.org/2000/svg"><path d="m9.8 241.5h1353.2v599.7c0 12.3-10 22.3-22.3 22.3h-1308.6c-12.3 0-22.3-10-22.3-22.3z" fill="#1f1719" opacity=".15"/><path d="m9.8 218h1353.2v599.7c0 12.3-10 22.3-22.3 22.3h-1308.6c-12.3 0-22.3-10-22.3-22.3z" fill="#c5bfb9"/><g fill="#b4aea8"><path d="m35.4 310.1h70.8c2 0 3.7 1.7 3.7 3.7v41c0 2-1.7 3.7-3.7 3.7h-70.8c-2 0-3.7-1.7-3.7-3.7v-41c0-2.1 1.6-3.7 3.7-3.7z"/><path d="m35.4 374.1h66.1c2 0 3.7 1.7 3.7 3.7v66.1c0 2-1.7 3.7-3.7 3.7h-66.1c-2 0-3.7-1.7-3.7-3.7v-66.1c0-2 1.6-3.7 3.7-3.7z"/><path d="m35.4 463.3h118c2 0 3.7 1.7 3.7 3.7v66.1c0 2-1.7 3.7-3.7 3.7h-118c-2 0-3.7-1.7-3.7-3.7v-66.1c0-2 1.6-3.7 3.7-3.7z"/><path d="m35.4 552.5h137.3c2 0 3.7 1.7 3.7 3.7v66.1c0 2-1.7 3.7-3.7 3.7h-137.3c-2 0-3.7-1.7-3.7-3.7v-66.1c0-2 1.6-3.7 3.7-3.7z"/><path d="m130.2 374.1h66.1c2 0 3.7 1.7 3.7 3.7v66.1c0 2-1.7 3.7-3.7 3.7h-66.1c-2 0-3.7-1.7-3.7-3.7v-66.1c0-2 1.7-3.7 3.7-3.7z"/><path d="m175.5 463.3h66.1c2 0 3.7 1.7 3.7 3.7v66.1c0 2-1.7 3.7-3.7 3.7h-66.1c-2 0-3.7-1.7-3.7-3.7v-66.1c0-2 1.7-3.7 3.7-3.7z"/><path d="m264.6 463.3h66.1c2 0 3.7 1.7 3.7 3.7v66.1c0 2-1.7 3.7-3.7 3.7h-66.1c-2 0-3.7-1.7-3.7-3.7v-66.1c0-2 1.7-3.7 3.7-3.7z"/><path d="m354.8 463.3h66.1c2 0 3.7 1.7 3.7 3.7v66.1c0 2-1.7 3.7-3.7 3.7h-66.1c-2 0-3.7-1.7-3.7-3.7v-66.1c0-2 1.6-3.7 3.7-3.7z"/><path d="m446.5 463.3h66.1c2 0 3.7 1.7 3.7 3.7v66.1c0 2-1.7 3.7-3.7 3.7h-66.1c-2 0-3.7-1.7-3.7-3.7v-66.1c0-2 1.7-3.7 3.7-3.7z"/><path d="m537.2 463.3h66.1c2 0 3.7 1.7 3.7 3.7v66.1c0 2-1.7 3.7-3.7 3.7h-66.1c-2 0-3.7-1.7-3.7-3.7v-66.1c0-2 1.6-3.7 3.7-3.7z"/><path d="m627.7 463.3h66.1c2 0 3.7 1.7 3.7 3.7v66.1c0 2-1.7 3.7-3.7 3.7h-66.1c-2 0-3.7-1.7-3.7-3.7v-66.1c0-2 1.7-3.7 3.7-3.7z"/><path d="m723.8 463.3h66.1c2 0 3.7 1.7 3.7 3.7v66.1c0 2-1.7 3.7-3.7 3.7h-66.1c-2 0-3.7-1.7-3.7-3.7v-66.1c0-2 1.7-3.7 3.7-3.7z"/><path d="m198.7 552.5h66.1c2 0 3.7 1.7 3.7 3.7v66.1c0 2-1.7 3.7-3.7 3.7h-66.1c-2 0-3.7-1.7-3.7-3.7v-66.1c0-2 1.7-3.7 3.7-3.7z"/><path d="m287.8 552.5h66.1c2 0 3.7 1.7 3.7 3.7v66.1c0 2-1.7 3.7-3.7 3.7h-66.1c-2 0-3.7-1.7-3.7-3.7v-66.1c0-2 1.7-3.7 3.7-3.7z"/><path d="m378 552.5h66.1c2 0 3.7 1.7 3.7 3.7v66.1c0 2-1.7 3.7-3.7 3.7h-66.1c-2 0-3.7-1.7-3.7-3.7v-66.1c0-2 1.6-3.7 3.7-3.7z"/><path d="m469.7 552.5h66.1c2 0 3.7 1.7 3.7 3.7v66.1c0 2-1.7 3.7-3.7 3.7h-66.1c-2 0-3.7-1.7-3.7-3.7v-66.1c0-2 1.7-3.7 3.7-3.7z"/><path d="m560.4 552.5h66.1c2 0 3.7 1.7 3.7 3.7v66.1c0 2-1.7 3.7-3.7 3.7h-66.1c-2 0-3.7-1.7-3.7-3.7v-66.1c0-2 1.6-3.7 3.7-3.7z"/><path d="m650.9 552.5h66.1c2 0 3.7 1.7 3.7 3.7v66.1c0 2-1.7 3.7-3.7 3.7h-66.1c-2 0-3.7-1.7-3.7-3.7v-66.1c0-2 1.7-3.7 3.7-3.7z"/><path d="m747 552.5h66.1c2 0 3.7 1.7 3.7 3.7v66.1c0 2-1.7 3.7-3.7 3.7h-66.1c-2 0-3.7-1.7-3.7-3.7v-66.1c0-2 1.7-3.7 3.7-3.7z"/><path d="m833.7 552.5h66.1c2 0 3.7 1.7 3.7 3.7v66.1c0 2-1.7 3.7-3.7 3.7h-66.1c-2 0-3.7-1.7-3.7-3.7v-66.1c0-2 1.7-3.7 3.7-3.7z"/><path d="m925.5 552.5h66.1c2 0 3.7 1.7 3.7 3.7v66.1c0 2-1.7 3.7-3.7 3.7h-66.1c-2 0-3.7-1.7-3.7-3.7v-66.1c0-2 1.6-3.7 3.7-3.7z"/><path d="m1016.1 552.5h66.1c2 0 3.7 1.7 3.7 3.7v66.1c0 2-1.7 3.7-3.7 3.7h-66.1c-2 0-3.7-1.7-3.7-3.7v-66.1c0-2 1.7-3.7 3.7-3.7z"/><path d="m1106.7 552.5h66.1c2 0 3.7 1.7 3.7 3.7v66.1c0 2-1.7 3.7-3.7 3.7h-66.1c-2 0-3.7-1.7-3.7-3.7v-66.1c0-2 1.6-3.7 3.7-3.7z"/><path d="m1202.8 552.5h66.1c2 0 3.7 1.7 3.7 3.7v66.1c0 2-1.7 3.7-3.7 3.7h-66.1c-2 0-3.7-1.7-3.7-3.7v-66.1c0-2 1.6-3.7 3.7-3.7z"/><path d="m696.8 641.7h66.1c2 0 3.7 1.7 3.7 3.7v66.1c0 2-1.7 3.7-3.7 3.7h-66.1c-2 0-3.7-1.7-3.7-3.7v-66.1c0-2 1.6-3.7 3.7-3.7z"/><path d="m788.5 641.7h66.1c2 0 3.7 1.7 3.7 3.7v66.1c0 2-1.7 3.7-3.7 3.7h-66.1c-2 0-3.7-1.7-3.7-3.7v-66.1c0-2 1.6-3.7 3.7-3.7z"/><path d="m879.2 641.7h66.1c2 0 3.7 1.7 3.7 3.7v66.1c0 2-1.7 3.7-3.7 3.7h-66.1c-2 0-3.7-1.7-3.7-3.7v-66.1c0-2 1.6-3.7 3.7-3.7z"/><path d="m969.7 641.7h66.1c2 0 3.7 1.7 3.7 3.7v66.1c0 2-1.7 3.7-3.7 3.7h-66.1c-2 0-3.7-1.7-3.7-3.7v-66.1c0-2 1.7-3.7 3.7-3.7z"/><path d="m1065.8 641.7h66.1c2 0 3.7 1.7 3.7 3.7v66.1c0 2-1.7 3.7-3.7 3.7h-66.1c-2 0-3.7-1.7-3.7-3.7v-66.1c0-2 1.7-3.7 3.7-3.7z"/><path d="m997.6 730.9h66.1c2 0 3.7 1.7 3.7 3.7v77c0 2-1.7 3.7-3.7 3.7h-66.1c-2 0-3.7-1.7-3.7-3.7v-77c0-2 1.6-3.7 3.7-3.7z"/><path d="m1180.2 737h63.5c2 0 3.7 1.7 3.7 3.7v24.3c0 2-1.7 3.7-3.7 3.7h-63.5c-2 0-3.7-1.7-3.7-3.7v-24.3c0-2 1.6-3.7 3.7-3.7z"/><path d="m883.3 730.9h87.9c2 0 3.7 1.7 3.7 3.7v77c0 2-1.7 3.7-3.7 3.7h-87.9c-2 0-3.7-1.7-3.7-3.7v-77c0-2 1.6-3.7 3.7-3.7z"/><path d="m422.9 730.9h437.8c2 0 3.7 1.7 3.7 3.7v77c0 2-1.7 3.7-3.7 3.7h-437.8c-2 0-3.7-1.7-3.7-3.7v-77c0-2 1.7-3.7 3.7-3.7z"/><path d="m1160.6 641.7h178c2 0 3.7 1.7 3.7 3.7v66.1c0 2-1.7 3.7-3.7 3.7h-178c-2 0-3.7-1.7-3.7-3.7v-66.1c0-2 1.6-3.7 3.7-3.7z"/><path d="m240.5 641.7h66.1c2 0 3.7 1.7 3.7 3.7v66.1c0 2-1.7 3.7-3.7 3.7h-66.1c-2 0-3.7-1.7-3.7-3.7v-66.1c0-2 1.7-3.7 3.7-3.7z"/><path d="m152 641.7h66.1c2 0 3.7 1.7 3.7 3.7v66.1c0 2-1.7 3.7-3.7 3.7h-66.1c-2 0-3.7-1.7-3.7-3.7v-66.1c0-2 1.7-3.7 3.7-3.7z"/><path d="m35.4 641.7h92c2 0 3.7 1.7 3.7 3.7v66.1c0 2-1.7 3.7-3.7 3.7h-92c-2 0-3.7-1.7-3.7-3.7v-66.1c0-2 1.6-3.7 3.7-3.7z"/><path d="m35.4 730.9h65c2 0 3.7 1.7 3.7 3.7v77c0 2-1.7 3.7-3.7 3.7h-65c-2 0-3.7-1.7-3.7-3.7v-77c0-2 1.6-3.7 3.7-3.7z"/><path d="m124.5 730.9h65c2 0 3.7 1.7 3.7 3.7v77c0 2-1.7 3.7-3.7 3.7h-65c-2 0-3.7-1.7-3.7-3.7v-77c0-2 1.7-3.7 3.7-3.7z"/><path d="m220.6 730.9h65c2 0 3.7 1.7 3.7 3.7v77c0 2-1.7 3.7-3.7 3.7h-65c-2 0-3.7-1.7-3.7-3.7v-77c0-2 1.7-3.7 3.7-3.7z"/><path d="m314 730.9h84.3c2 0 3.7 1.7 3.7 3.7v77c0 2-1.7 3.7-3.7 3.7h-84.3c-2 0-3.7-1.7-3.7-3.7v-77c0-2 1.7-3.7 3.7-3.7z"/><path d="m332.3 641.7h66.1c2 0 3.7 1.7 3.7 3.7v66.1c0 2-1.7 3.7-3.7 3.7h-66.1c-2 0-3.7-1.7-3.7-3.7v-66.1c0-2 1.6-3.7 3.7-3.7z"/><path d="m422.9 641.7h66.1c2 0 3.7 1.7 3.7 3.7v66.1c0 2-1.7 3.7-3.7 3.7h-66.1c-2 0-3.7-1.7-3.7-3.7v-66.1c0-2 1.7-3.7 3.7-3.7z"/><path d="m513.5 641.7h66.1c2 0 3.7 1.7 3.7 3.7v66.1c0 2-1.7 3.7-3.7 3.7h-66.1c-2 0-3.7-1.7-3.7-3.7v-66.1c0-2 1.6-3.7 3.7-3.7z"/><path d="m609.6 641.7h66.1c2 0 3.7 1.7 3.7 3.7v66.1c0 2-1.7 3.7-3.7 3.7h-66.1c-2 0-3.7-1.7-3.7-3.7v-66.1c0-2 1.6-3.7 3.7-3.7z"/><path d="m809.8 463.3h66.1c2 0 3.7 1.7 3.7 3.7v66.1c0 2-1.7 3.7-3.7 3.7h-66.1c-2 0-3.7-1.7-3.7-3.7v-66.1c0-2 1.6-3.7 3.7-3.7z"/><path d="m905.1 463.3h66.1c2 0 3.7 1.7 3.7 3.7v66.1c0 2-1.7 3.7-3.7 3.7h-66.1c-2 0-3.7-1.7-3.7-3.7v-66.1c0-2 1.6-3.7 3.7-3.7z"/><path d="m997.6 463.3h66.1c2 0 3.7 1.7 3.7 3.7v66.1c0 2-1.7 3.7-3.7 3.7h-66.1c-2 0-3.7-1.7-3.7-3.7v-66.1c0-2 1.6-3.7 3.7-3.7z"/><path d="m1087.1 463.3h66.1c2 0 3.7 1.7 3.7 3.7v66.1c0 2-1.7 3.7-3.7 3.7h-66.1c-2 0-3.7-1.7-3.7-3.7v-66.1c0-2 1.6-3.7 3.7-3.7z"/><path d="m1177.6 463.3h66.1c2 0 3.7 1.7 3.7 3.7v66.1c0 2-1.7 3.7-3.7 3.7h-66.1c-2 0-3.7-1.7-3.7-3.7v-66.1c0-2 1.6-3.7 3.7-3.7z"/><path d="m1338.1 463.3h-67.6c-2.3 0-4.1 1.8-4.1 4.1v65.2c0 2.3 1.9 4.1 4.1 4.1h19.1v79c0 2.3 1.9 4.1 4.1 4.1h44.4c2.3 0 4.1-1.9 4.1-4.1v-148.2c0-2.3-1.8-4.2-4.1-4.2z"/><path d="m225.5 374.1h66.1c2 0 3.7 1.7 3.7 3.7v66.1c0 2-1.7 3.7-3.7 3.7h-66.1c-2 0-3.7-1.7-3.7-3.7v-66.1c0-2 1.7-3.7 3.7-3.7z"/><path d="m318 374.1h66.1c2 0 3.7 1.7 3.7 3.7v66.1c0 2-1.7 3.7-3.7 3.7h-66.1c-2 0-3.7-1.7-3.7-3.7v-66.1c0-2 1.7-3.7 3.7-3.7z"/><path d="m495.9 374.1h66.1c2 0 3.7 1.7 3.7 3.7v66.1c0 2-1.7 3.7-3.7 3.7h-66.1c-2 0-3.7-1.7-3.7-3.7v-66.1c0-2 1.6-3.7 3.7-3.7z"/><path d="m588.3 374.1h66.1c2 0 3.7 1.7 3.7 3.7v66.1c0 2-1.7 3.7-3.7 3.7h-66.1c-2 0-3.7-1.7-3.7-3.7v-66.1c0-2 1.7-3.7 3.7-3.7z"/><path d="m677.8 374.1h66.1c2 0 3.7 1.7 3.7 3.7v66.1c0 2-1.7 3.7-3.7 3.7h-66.1c-2 0-3.7-1.7-3.7-3.7v-66.1c0-2 1.6-3.7 3.7-3.7z"/><path d="m767.3 374.1h66.1c2 0 3.7 1.7 3.7 3.7v66.1c0 2-1.7 3.7-3.7 3.7h-66.1c-2 0-3.7-1.7-3.7-3.7v-66.1c0-2 1.6-3.7 3.7-3.7z"/><path d="m862.3 374.1h66.1c2 0 3.7 1.7 3.7 3.7v66.1c0 2-1.7 3.7-3.7 3.7h-66.1c-2 0-3.7-1.7-3.7-3.7v-66.1c0-2 1.6-3.7 3.7-3.7z"/><path d="m951.7 374.1h66.1c2 0 3.7 1.7 3.7 3.7v66.1c0 2-1.7 3.7-3.7 3.7h-66.1c-2 0-3.7-1.7-3.7-3.7v-66.1c0-2 1.7-3.7 3.7-3.7z"/><path d="m1043.4 374.1h66.1c2 0 3.7 1.7 3.7 3.7v66.1c0 2-1.7 3.7-3.7 3.7h-66.1c-2 0-3.7-1.7-3.7-3.7v-66.1c0-2 1.7-3.7 3.7-3.7z"/><path d="m1134 374.1h66.1c2 0 3.7 1.7 3.7 3.7v66.1c0 2-1.7 3.7-3.7 3.7h-66.1c-2 0-3.7-1.7-3.7-3.7v-66.1c0-2 1.7-3.7 3.7-3.7z"/><path d="m1224.6 374.1h113.9c2 0 3.7 1.7 3.7 3.7v66.1c0 2-1.7 3.7-3.7 3.7h-113.9c-2 0-3.7-1.7-3.7-3.7v-66.1c0-2 1.7-3.7 3.7-3.7z"/><path d="m403 374.1h66.1c2 0 3.7 1.7 3.7 3.7v66.1c0 2-1.7 3.7-3.7 3.7h-66.1c-2 0-3.7-1.7-3.7-3.7v-66.1c0-2 1.7-3.7 3.7-3.7z"/><path d="m127.9 310.1h70.8c2 0 3.7 1.7 3.7 3.7v41c0 2-1.7 3.7-3.7 3.7h-70.8c-2 0-3.7-1.7-3.7-3.7v-41c0-2.1 1.6-3.7 3.7-3.7z"/><path d="m223.1 310.1h70.9c2 0 3.7 1.7 3.7 3.7v41c0 2-1.7 3.7-3.7 3.7h-70.8c-2 0-3.7-1.7-3.7-3.7v-41c-.1-2.1 1.6-3.7 3.6-3.7z"/><path d="m315.7 310.1h70.8c2 0 3.7 1.7 3.7 3.7v41c0 2-1.7 3.7-3.7 3.7h-70.8c-2 0-3.7-1.7-3.7-3.7v-41c0-2.1 1.6-3.7 3.7-3.7z"/><path d="m412.9 310.1h70.8c2 0 3.7 1.7 3.7 3.7v41c0 2-1.7 3.7-3.7 3.7h-70.8c-2 0-3.7-1.7-3.7-3.7v-41c0-2.1 1.6-3.7 3.7-3.7z"/><path d="m510.1 310.1h70.8c2 0 3.7 1.7 3.7 3.7v41c0 2-1.7 3.7-3.7 3.7h-70.8c-2 0-3.7-1.7-3.7-3.7v-41c0-2.1 1.6-3.7 3.7-3.7z"/><path d="m605.4 310.1h70.8c2 0 3.7 1.7 3.7 3.7v41c0 2-1.7 3.7-3.7 3.7h-70.8c-2 0-3.7-1.7-3.7-3.7v-41c0-2.1 1.6-3.7 3.7-3.7z"/><path d="m697.9 310.1h70.8c2 0 3.7 1.7 3.7 3.7v41c0 2-1.7 3.7-3.7 3.7h-70.8c-2 0-3.7-1.7-3.7-3.7v-41c0-2.1 1.6-3.7 3.7-3.7z"/><path d="m790.8 310.1h70.8c2 0 3.7 1.7 3.7 3.7v41c0 2-1.7 3.7-3.7 3.7h-70.8c-2 0-3.7-1.7-3.7-3.7v-41c0-2.1 1.6-3.7 3.7-3.7z"/><path d="m883.3 310.1h70.8c2 0 3.7 1.7 3.7 3.7v41c0 2-1.7 3.7-3.7 3.7h-70.8c-2 0-3.7-1.7-3.7-3.7v-41c0-2.1 1.6-3.7 3.7-3.7z"/><path d="m978.6 310.1h70.8c2 0 3.7 1.7 3.7 3.7v41c0 2-1.7 3.7-3.7 3.7h-70.8c-2 0-3.7-1.7-3.7-3.7v-41c0-2.1 1.6-3.7 3.7-3.7z"/><path d="m1071.1 310.1h70.8c2 0 3.7 1.7 3.7 3.7v41c0 2-1.7 3.7-3.7 3.7h-70.8c-2 0-3.7-1.7-3.7-3.7v-41c0-2.1 1.6-3.7 3.7-3.7z"/><path d="m1175.2 310.1h70.8c2 0 3.7 1.7 3.7 3.7v41c0 2-1.7 3.7-3.7 3.7h-70.8c-2 0-3.7-1.7-3.7-3.7v-41c0-2.1 1.6-3.7 3.7-3.7z"/><path d="m1267.7 310.1h70.8c2 0 3.7 1.7 3.7 3.7v41c0 2-1.7 3.7-3.7 3.7h-70.8c-2 0-3.7-1.7-3.7-3.7v-41c0-2.1 1.7-3.7 3.7-3.7z"/><path d="m1180.2 731h63.5c2 0 3.7 1.7 3.7 3.7v25.1h-70.9v-25.1c0-2.1 1.7-3.7 3.7-3.7z"/><path d="m1180.2 768.7h63.5c2 0 3.7 1.7 3.7 3.7v39.2c0 2-1.7 3.7-3.7 3.7h-63.5c-2 0-3.7-1.7-3.7-3.7v-39.2c0-2.1 1.6-3.7 3.7-3.7z"/><path d="m1272.6 777.4h63.5c2 0 3.7 1.7 3.7 3.7v30.5c0 2-1.7 3.7-3.7 3.7h-63.5c-2 0-3.7-1.7-3.7-3.7v-30.5c0-2.1 1.6-3.7 3.7-3.7z"/><path d="m1090.2 777.4h63.5c2 0 3.7 1.7 3.7 3.7v30.5c0 2-1.7 3.7-3.7 3.7h-63.5c-2 0-3.7-1.7-3.7-3.7v-30.5c0-2.1 1.6-3.7 3.7-3.7z"/></g><path d="m35.4 301.8h70.8c2 0 3.7 1.7 3.7 3.7v41c0 2-1.7 3.7-3.7 3.7h-70.8c-2 0-3.7-1.7-3.7-3.7v-41c0-2.1 1.6-3.7 3.7-3.7z" fill="#fff"/><path d="m35.4 365.8h66.1c2 0 3.7 1.7 3.7 3.7v66.1c0 2-1.7 3.7-3.7 3.7h-66.1c-2 0-3.7-1.7-3.7-3.7v-66.1c0-2 1.6-3.7 3.7-3.7z" fill="#fff"/><path d="m35.4 455h118c2 0 3.7 1.7 3.7 3.7v66.1c0 2-1.7 3.7-3.7 3.7h-118c-2 0-3.7-1.7-3.7-3.7v-66.1c0-2 1.6-3.7 3.7-3.7z" fill="#fff"/><path d="m35.4 544.2h137.3c2 0 3.7 1.7 3.7 3.7v66.1c0 2-1.7 3.7-3.7 3.7h-137.3c-2 0-3.7-1.7-3.7-3.7v-66.1c0-2 1.6-3.7 3.7-3.7z" fill="#fff"/><path d="m130.2 365.8h66.1c2 0 3.7 1.7 3.7 3.7v66.1c0 2-1.7 3.7-3.7 3.7h-66.1c-2 0-3.7-1.7-3.7-3.7v-66.1c0-2 1.7-3.7 3.7-3.7z" fill="#fff"/><path d="m175.5 455h66.1c2 0 3.7 1.7 3.7 3.7v66.1c0 2-1.7 3.7-3.7 3.7h-66.1c-2 0-3.7-1.7-3.7-3.7v-66.1c0-2 1.7-3.7 3.7-3.7z" fill="#fff"/><path d="m264.6 455h66.1c2 0 3.7 1.7 3.7 3.7v66.1c0 2-1.7 3.7-3.7 3.7h-66.1c-2 0-3.7-1.7-3.7-3.7v-66.1c0-2 1.7-3.7 3.7-3.7z" fill="#fff"/><path d="m354.8 455h66.1c2 0 3.7 1.7 3.7 3.7v66.1c0 2-1.7 3.7-3.7 3.7h-66.1c-2 0-3.7-1.7-3.7-3.7v-66.1c0-2 1.6-3.7 3.7-3.7z" fill="#fff"/><path d="m446.5 455h66.1c2 0 3.7 1.7 3.7 3.7v66.1c0 2-1.7 3.7-3.7 3.7h-66.1c-2 0-3.7-1.7-3.7-3.7v-66.1c0-2 1.7-3.7 3.7-3.7z" fill="#fff"/><path d="m537.2 455h66.1c2 0 3.7 1.7 3.7 3.7v66.1c0 2-1.7 3.7-3.7 3.7h-66.1c-2 0-3.7-1.7-3.7-3.7v-66.1c0-2 1.6-3.7 3.7-3.7z" fill="#fff"/><path d="m627.7 455h66.1c2 0 3.7 1.7 3.7 3.7v66.1c0 2-1.7 3.7-3.7 3.7h-66.1c-2 0-3.7-1.7-3.7-3.7v-66.1c0-2 1.7-3.7 3.7-3.7z" fill="#fff"/><path d="m723.8 455h66.1c2 0 3.7 1.7 3.7 3.7v66.1c0 2-1.7 3.7-3.7 3.7h-66.1c-2 0-3.7-1.7-3.7-3.7v-66.1c0-2 1.7-3.7 3.7-3.7z" fill="#fff"/><path d="m198.7 544.2h66.1c2 0 3.7 1.7 3.7 3.7v66.1c0 2-1.7 3.7-3.7 3.7h-66.1c-2 0-3.7-1.7-3.7-3.7v-66.1c0-2 1.7-3.7 3.7-3.7z" fill="#fff"/><path d="m287.8 544.2h66.1c2 0 3.7 1.7 3.7 3.7v66.1c0 2-1.7 3.7-3.7 3.7h-66.1c-2 0-3.7-1.7-3.7-3.7v-66.1c0-2 1.7-3.7 3.7-3.7z" fill="#fff"/><path d="m378 544.2h66.1c2 0 3.7 1.7 3.7 3.7v66.1c0 2-1.7 3.7-3.7 3.7h-66.1c-2 0-3.7-1.7-3.7-3.7v-66.1c0-2 1.6-3.7 3.7-3.7z" fill="#fff"/><path d="m469.7 544.2h66.1c2 0 3.7 1.7 3.7 3.7v66.1c0 2-1.7 3.7-3.7 3.7h-66.1c-2 0-3.7-1.7-3.7-3.7v-66.1c0-2 1.7-3.7 3.7-3.7z" fill="#fff"/><path d="m560.4 544.2h66.1c2 0 3.7 1.7 3.7 3.7v66.1c0 2-1.7 3.7-3.7 3.7h-66.1c-2 0-3.7-1.7-3.7-3.7v-66.1c0-2 1.6-3.7 3.7-3.7z" fill="#fff"/><path d="m650.9 544.2h66.1c2 0 3.7 1.7 3.7 3.7v66.1c0 2-1.7 3.7-3.7 3.7h-66.1c-2 0-3.7-1.7-3.7-3.7v-66.1c0-2 1.7-3.7 3.7-3.7z" fill="#fff"/><path d="m747 544.2h66.1c2 0 3.7 1.7 3.7 3.7v66.1c0 2-1.7 3.7-3.7 3.7h-66.1c-2 0-3.7-1.7-3.7-3.7v-66.1c0-2 1.7-3.7 3.7-3.7z" fill="#fff"/><path d="m833.7 544.2h66.1c2 0 3.7 1.7 3.7 3.7v66.1c0 2-1.7 3.7-3.7 3.7h-66.1c-2 0-3.7-1.7-3.7-3.7v-66.1c0-2 1.7-3.7 3.7-3.7z" fill="#fff"/><path d="m925.5 544.2h66.1c2 0 3.7 1.7 3.7 3.7v66.1c0 2-1.7 3.7-3.7 3.7h-66.1c-2 0-3.7-1.7-3.7-3.7v-66.1c0-2 1.6-3.7 3.7-3.7z" fill="#fff"/><path d="m1016.1 544.2h66.1c2 0 3.7 1.7 3.7 3.7v66.1c0 2-1.7 3.7-3.7 3.7h-66.1c-2 0-3.7-1.7-3.7-3.7v-66.1c0-2 1.7-3.7 3.7-3.7z" fill="#fff"/><path d="m1106.7 544.2h66.1c2 0 3.7 1.7 3.7 3.7v66.1c0 2-1.7 3.7-3.7 3.7h-66.1c-2 0-3.7-1.7-3.7-3.7v-66.1c0-2 1.6-3.7 3.7-3.7z" fill="#fff"/><path d="m1202.8 544.2h66.1c2 0 3.7 1.7 3.7 3.7v66.1c0 2-1.7 3.7-3.7 3.7h-66.1c-2 0-3.7-1.7-3.7-3.7v-66.1c0-2 1.6-3.7 3.7-3.7z" fill="#fff"/><path d="m696.8 633.4h66.1c2 0 3.7 1.7 3.7 3.7v66.1c0 2-1.7 3.7-3.7 3.7h-66.1c-2 0-3.7-1.7-3.7-3.7v-66.1c0-2 1.6-3.7 3.7-3.7z" fill="#fff"/><path d="m788.5 633.4h66.1c2 0 3.7 1.7 3.7 3.7v66.1c0 2-1.7 3.7-3.7 3.7h-66.1c-2 0-3.7-1.7-3.7-3.7v-66.1c0-2 1.6-3.7 3.7-3.7z" fill="#fff"/><path d="m879.2 633.4h66.1c2 0 3.7 1.7 3.7 3.7v66.1c0 2-1.7 3.7-3.7 3.7h-66.1c-2 0-3.7-1.7-3.7-3.7v-66.1c0-2 1.6-3.7 3.7-3.7z" fill="#fff"/><path d="m969.7 633.4h66.1c2 0 3.7 1.7 3.7 3.7v66.1c0 2-1.7 3.7-3.7 3.7h-66.1c-2 0-3.7-1.7-3.7-3.7v-66.1c0-2 1.7-3.7 3.7-3.7z" fill="#fff"/><path d="m1065.8 633.4h66.1c2 0 3.7 1.7 3.7 3.7v66.1c0 2-1.7 3.7-3.7 3.7h-66.1c-2 0-3.7-1.7-3.7-3.7v-66.1c0-2 1.7-3.7 3.7-3.7z" fill="#fff"/><path d="m997.6 722.6h66.1c2 0 3.7 1.7 3.7 3.7v77c0 2-1.7 3.7-3.7 3.7h-66.1c-2 0-3.7-1.7-3.7-3.7v-77c0-2 1.6-3.7 3.7-3.7z" fill="#fff"/><path d="m1180.2 728.7h63.5c2 0 3.7 1.7 3.7 3.7v24.3c0 2-1.7 3.7-3.7 3.7h-63.5c-2 0-3.7-1.7-3.7-3.7v-24.3c0-2 1.6-3.7 3.7-3.7z" fill="#e8e8e8"/><path d="m883.3 722.6h87.9c2 0 3.7 1.7 3.7 3.7v77c0 2-1.7 3.7-3.7 3.7h-87.9c-2 0-3.7-1.7-3.7-3.7v-77c0-2 1.6-3.7 3.7-3.7z" fill="#fff"/><path d="m422.9 722.6h437.8c2 0 3.7 1.7 3.7 3.7v77c0 2-1.7 3.7-3.7 3.7h-437.8c-2 0-3.7-1.7-3.7-3.7v-77c0-2 1.7-3.7 3.7-3.7z" fill="#fff"/><path d="m1160.6 633.4h178c2 0 3.7 1.7 3.7 3.7v66.1c0 2-1.7 3.7-3.7 3.7h-178c-2 0-3.7-1.7-3.7-3.7v-66.1c0-2 1.6-3.7 3.7-3.7z" fill="#fff"/><path d="m240.5 633.4h66.1c2 0 3.7 1.7 3.7 3.7v66.1c0 2-1.7 3.7-3.7 3.7h-66.1c-2 0-3.7-1.7-3.7-3.7v-66.1c0-2 1.7-3.7 3.7-3.7z" fill="#fff"/><path d="m152 633.4h66.1c2 0 3.7 1.7 3.7 3.7v66.1c0 2-1.7 3.7-3.7 3.7h-66.1c-2 0-3.7-1.7-3.7-3.7v-66.1c0-2 1.7-3.7 3.7-3.7z" fill="#fff"/><path d="m35.4 633.4h92c2 0 3.7 1.7 3.7 3.7v66.1c0 2-1.7 3.7-3.7 3.7h-92c-2 0-3.7-1.7-3.7-3.7v-66.1c0-2 1.6-3.7 3.7-3.7z" fill="#fff"/><path d="m35.4 722.6h65c2 0 3.7 1.7 3.7 3.7v77c0 2-1.7 3.7-3.7 3.7h-65c-2 0-3.7-1.7-3.7-3.7v-77c0-2 1.6-3.7 3.7-3.7z" fill="#fff"/><path d="m124.5 722.6h65c2 0 3.7 1.7 3.7 3.7v77c0 2-1.7 3.7-3.7 3.7h-65c-2 0-3.7-1.7-3.7-3.7v-77c0-2 1.7-3.7 3.7-3.7z" fill="#fff"/><path d="m220.6 722.6h65c2 0 3.7 1.7 3.7 3.7v77c0 2-1.7 3.7-3.7 3.7h-65c-2 0-3.7-1.7-3.7-3.7v-77c0-2 1.7-3.7 3.7-3.7z" fill="#fff"/><path d="m314 722.6h84.3c2 0 3.7 1.7 3.7 3.7v77c0 2-1.7 3.7-3.7 3.7h-84.3c-2 0-3.7-1.7-3.7-3.7v-77c0-2 1.7-3.7 3.7-3.7z" fill="#fff"/><path d="m332.3 633.4h66.1c2 0 3.7 1.7 3.7 3.7v66.1c0 2-1.7 3.7-3.7 3.7h-66.1c-2 0-3.7-1.7-3.7-3.7v-66.1c0-2 1.6-3.7 3.7-3.7z" fill="#fff"/><path d="m422.9 633.4h66.1c2 0 3.7 1.7 3.7 3.7v66.1c0 2-1.7 3.7-3.7 3.7h-66.1c-2 0-3.7-1.7-3.7-3.7v-66.1c0-2 1.7-3.7 3.7-3.7z" fill="#fff"/><path d="m513.5 633.4h66.1c2 0 3.7 1.7 3.7 3.7v66.1c0 2-1.7 3.7-3.7 3.7h-66.1c-2 0-3.7-1.7-3.7-3.7v-66.1c0-2 1.6-3.7 3.7-3.7z" fill="#fff"/><path d="m609.6 633.4h66.1c2 0 3.7 1.7 3.7 3.7v66.1c0 2-1.7 3.7-3.7 3.7h-66.1c-2 0-3.7-1.7-3.7-3.7v-66.1c0-2 1.6-3.7 3.7-3.7z" fill="#fff"/><path d="m809.8 455h66.1c2 0 3.7 1.7 3.7 3.7v66.1c0 2-1.7 3.7-3.7 3.7h-66.1c-2 0-3.7-1.7-3.7-3.7v-66.1c0-2 1.6-3.7 3.7-3.7z" fill="#fff"/><path d="m905.1 455h66.1c2 0 3.7 1.7 3.7 3.7v66.1c0 2-1.7 3.7-3.7 3.7h-66.1c-2 0-3.7-1.7-3.7-3.7v-66.1c0-2 1.6-3.7 3.7-3.7z" fill="#fff"/><path d="m997.6 455h66.1c2 0 3.7 1.7 3.7 3.7v66.1c0 2-1.7 3.7-3.7 3.7h-66.1c-2 0-3.7-1.7-3.7-3.7v-66.1c0-2 1.6-3.7 3.7-3.7z" fill="#fff"/><path d="m1087.1 455h66.1c2 0 3.7 1.7 3.7 3.7v66.1c0 2-1.7 3.7-3.7 3.7h-66.1c-2 0-3.7-1.7-3.7-3.7v-66.1c0-2 1.6-3.7 3.7-3.7z" fill="#fff"/><path d="m1177.6 455h66.1c2 0 3.7 1.7 3.7 3.7v66.1c0 2-1.7 3.7-3.7 3.7h-66.1c-2 0-3.7-1.7-3.7-3.7v-66.1c0-2 1.6-3.7 3.7-3.7z" fill="#fff"/><path d="m1338.1 455h-67.6c-2.3 0-4.1 1.9-4.1 4.1v65.2c0 2.3 1.9 4.1 4.1 4.1h19.1v79c0 2.3 1.9 4.1 4.1 4.1h44.4c2.3 0 4.1-1.9 4.1-4.1v-148.2c0-2.3-1.8-4.2-4.1-4.2z" fill="#fff"/><path d="m225.5 365.8h66.1c2 0 3.7 1.7 3.7 3.7v66.1c0 2-1.7 3.7-3.7 3.7h-66.1c-2 0-3.7-1.7-3.7-3.7v-66.1c0-2 1.7-3.7 3.7-3.7z" fill="#fff"/><path d="m318 365.8h66.1c2 0 3.7 1.7 3.7 3.7v66.1c0 2-1.7 3.7-3.7 3.7h-66.1c-2 0-3.7-1.7-3.7-3.7v-66.1c0-2 1.7-3.7 3.7-3.7z" fill="#fff"/><path d="m495.9 365.8h66.1c2 0 3.7 1.7 3.7 3.7v66.1c0 2-1.7 3.7-3.7 3.7h-66.1c-2 0-3.7-1.7-3.7-3.7v-66.1c0-2 1.6-3.7 3.7-3.7z" fill="#fff"/><path d="m588.3 365.8h66.1c2 0 3.7 1.7 3.7 3.7v66.1c0 2-1.7 3.7-3.7 3.7h-66.1c-2 0-3.7-1.7-3.7-3.7v-66.1c0-2 1.7-3.7 3.7-3.7z" fill="#fff"/><path d="m677.8 365.8h66.1c2 0 3.7 1.7 3.7 3.7v66.1c0 2-1.7 3.7-3.7 3.7h-66.1c-2 0-3.7-1.7-3.7-3.7v-66.1c0-2 1.6-3.7 3.7-3.7z" fill="#fff"/><path d="m767.3 365.8h66.1c2 0 3.7 1.7 3.7 3.7v66.1c0 2-1.7 3.7-3.7 3.7h-66.1c-2 0-3.7-1.7-3.7-3.7v-66.1c0-2 1.6-3.7 3.7-3.7z" fill="#fff"/><path d="m862.3 365.8h66.1c2 0 3.7 1.7 3.7 3.7v66.1c0 2-1.7 3.7-3.7 3.7h-66.1c-2 0-3.7-1.7-3.7-3.7v-66.1c0-2 1.6-3.7 3.7-3.7z" fill="#fff"/><path d="m951.7 365.8h66.1c2 0 3.7 1.7 3.7 3.7v66.1c0 2-1.7 3.7-3.7 3.7h-66.1c-2 0-3.7-1.7-3.7-3.7v-66.1c0-2 1.7-3.7 3.7-3.7z" fill="#fff"/><path d="m1043.4 365.8h66.1c2 0 3.7 1.7 3.7 3.7v66.1c0 2-1.7 3.7-3.7 3.7h-66.1c-2 0-3.7-1.7-3.7-3.7v-66.1c0-2 1.7-3.7 3.7-3.7z" fill="#fff"/><path d="m1134 365.8h66.1c2 0 3.7 1.7 3.7 3.7v66.1c0 2-1.7 3.7-3.7 3.7h-66.1c-2 0-3.7-1.7-3.7-3.7v-66.1c0-2 1.7-3.7 3.7-3.7z" fill="#fff"/><path d="m1224.6 365.8h113.9c2 0 3.7 1.7 3.7 3.7v66.1c0 2-1.7 3.7-3.7 3.7h-113.9c-2 0-3.7-1.7-3.7-3.7v-66.1c0-2 1.7-3.7 3.7-3.7z" fill="#fff"/><path d="m403 365.8h66.1c2 0 3.7 1.7 3.7 3.7v66.1c0 2-1.7 3.7-3.7 3.7h-66.1c-2 0-3.7-1.7-3.7-3.7v-66.1c0-2 1.7-3.7 3.7-3.7z" fill="#fff"/><path d="m127.9 301.8h70.8c2 0 3.7 1.7 3.7 3.7v41c0 2-1.7 3.7-3.7 3.7h-70.8c-2 0-3.7-1.7-3.7-3.7v-41c0-2.1 1.6-3.7 3.7-3.7z" fill="#fff"/><path d="m223.1 301.8h70.9c2 0 3.7 1.7 3.7 3.7v41c0 2-1.7 3.7-3.7 3.7h-70.8c-2 0-3.7-1.7-3.7-3.7v-41c-.1-2.1 1.6-3.7 3.6-3.7z" fill="#fff"/><path d="m315.7 301.8h70.8c2 0 3.7 1.7 3.7 3.7v41c0 2-1.7 3.7-3.7 3.7h-70.8c-2 0-3.7-1.7-3.7-3.7v-41c0-2.1 1.6-3.7 3.7-3.7z" fill="#fff"/><path d="m412.9 301.8h70.8c2 0 3.7 1.7 3.7 3.7v41c0 2-1.7 3.7-3.7 3.7h-70.8c-2 0-3.7-1.7-3.7-3.7v-41c0-2.1 1.6-3.7 3.7-3.7z" fill="#fff"/><path d="m510.1 301.8h70.8c2 0 3.7 1.7 3.7 3.7v41c0 2-1.7 3.7-3.7 3.7h-70.8c-2 0-3.7-1.7-3.7-3.7v-41c0-2.1 1.6-3.7 3.7-3.7z" fill="#fff"/><path d="m605.4 301.8h70.8c2 0 3.7 1.7 3.7 3.7v41c0 2-1.7 3.7-3.7 3.7h-70.8c-2 0-3.7-1.7-3.7-3.7v-41c0-2.1 1.6-3.7 3.7-3.7z" fill="#fff"/><path d="m697.9 301.8h70.8c2 0 3.7 1.7 3.7 3.7v41c0 2-1.7 3.7-3.7 3.7h-70.8c-2 0-3.7-1.7-3.7-3.7v-41c0-2.1 1.6-3.7 3.7-3.7z" fill="#fff"/><path d="m790.8 301.8h70.8c2 0 3.7 1.7 3.7 3.7v41c0 2-1.7 3.7-3.7 3.7h-70.8c-2 0-3.7-1.7-3.7-3.7v-41c0-2.1 1.6-3.7 3.7-3.7z" fill="#fff"/><path d="m883.3 301.8h70.8c2 0 3.7 1.7 3.7 3.7v41c0 2-1.7 3.7-3.7 3.7h-70.8c-2 0-3.7-1.7-3.7-3.7v-41c0-2.1 1.6-3.7 3.7-3.7z" fill="#fff"/><path d="m978.6 301.8h70.8c2 0 3.7 1.7 3.7 3.7v41c0 2-1.7 3.7-3.7 3.7h-70.8c-2 0-3.7-1.7-3.7-3.7v-41c0-2.1 1.6-3.7 3.7-3.7z" fill="#fff"/><path d="m1071.1 301.8h70.8c2 0 3.7 1.7 3.7 3.7v41c0 2-1.7 3.7-3.7 3.7h-70.8c-2 0-3.7-1.7-3.7-3.7v-41c0-2.1 1.6-3.7 3.7-3.7z" fill="#fff"/><path d="m1175.2 301.8h70.8c2 0 3.7 1.7 3.7 3.7v41c0 2-1.7 3.7-3.7 3.7h-70.8c-2 0-3.7-1.7-3.7-3.7v-41c0-2.1 1.6-3.7 3.7-3.7z" fill="#fff"/><path d="m1267.7 301.8h70.8c2 0 3.7 1.7 3.7 3.7v41c0 2-1.7 3.7-3.7 3.7h-70.8c-2 0-3.7-1.7-3.7-3.7v-41c0-2.1 1.7-3.7 3.7-3.7z" fill="#fff"/><path d="m1180.2 722.6h63.5c2 0 3.7 1.7 3.7 3.7v25.1h-70.9v-25.1c0-2 1.6-3.7 3.7-3.7z" fill="#fff"/><path d="m1180.2 760.4h63.5c2 0 3.7 1.7 3.7 3.7v39.2c0 2-1.7 3.7-3.7 3.7h-63.5c-2 0-3.7-1.7-3.7-3.7v-39.2c0-2.1 1.6-3.7 3.7-3.7z" fill="#fff"/><path d="m1272.6 769.1h63.5c2 0 3.7 1.7 3.7 3.7v30.5c0 2-1.7 3.7-3.7 3.7h-63.5c-2 0-3.7-1.7-3.7-3.7v-30.5c0-2.1 1.6-3.7 3.7-3.7z" fill="#fff"/><path d="m1090.2 769.1h63.5c2 0 3.7 1.7 3.7 3.7v30.5c0 2-1.7 3.7-3.7 3.7h-63.5c-2 0-3.7-1.7-3.7-3.7v-30.5c0-2.1 1.6-3.7 3.7-3.7z" fill="#fff"/><path d="m252.4 81.9h61.9v39.2h-61.9z" fill="#1f1719" opacity=".15"/><path d="m252.4 121.1v-39.2h-193.1v14.9c0 21.8 17.7 39.6 39.6 39.6h153.5z" fill="#1f1719" opacity=".15"/><path d="m252.4 34h61.9v39.2h-61.9z" fill="#b4aba5"/><path d="m252.4 73.2h61.9v39.2h-61.9z" fill="#a39b95"/><path d="m252.4 112.4v-39.2h-193.1v14.9c0 21.8 17.7 39.6 39.6 39.6h153.5z" fill="#a47db0"/><path d="m252.4 34v-15.3h-153.5c-21.8 0-39.6 17.7-39.6 39.6v14.9h193.1z" fill="#b489c1"/><path d="m300.8 43.3v21.1h-11.2v-21.1z" fill="#333"/><path d="m300.8 81.9v21.1h-11.2v-21.1z" fill="#333"/><path d="m1749.8 348.5-295-44.1-27-39.6 37.6-251.3 327.2 48.9z" fill="#1f1719" opacity=".15"/><path d="m1749.7 337.1-295-44.1-27-39.6 37.5-251.4 327.3 49z" fill="#eece80"/><path d="m1460.5 258.3-32.8-4.9 27 39.6z" fill="#e9bd5c"/><path d="m1497.9 34c-13.3 15.2-23.8 28.8-21.4 31.5 3.9 4.4 38.5-22.8 42-18.8 4.7 5.3-53.2 57.1-46.5 66.3 2.2 3 12.1 2.7 51.4-17.4" fill="none" stroke="#3d3a31" stroke-linecap="round" stroke-miterlimit="10" stroke-width="5.4746"/><path d="m1669.8 284.6-2.4-16.3" fill="none" stroke="#3d3a31" stroke-linecap="round" stroke-miterlimit="10" stroke-width="5.4746"/><path d="m1703.8 279.8-2.4-16.3" fill="none" stroke="#3d3a31" stroke-linecap="round" stroke-miterlimit="10" stroke-width="5.4746"/><path d="m1653.6 297.2c3.9 3.3 13 10 26 11.1 25.8 2.2 42.6-19.5 43.8-21.2" fill="none" stroke="#3d3a31" stroke-linecap="round" stroke-miterlimit="10" stroke-width="5.4746"/><path d="m1542.8 227.9-.1.8v.9s0 .1-.1.4-.1.4-.1.4c-.1.2-.2.5-.4.6 0 .1-.1.3-.3.7-1 1-2.1 1.9-3.2 2.7-.7.3-1.4.6-2.1.8-.1.1-.2.1-.3.2l-6.6 1.8c-.1 0-.1 0-.2 0-.2 0-.4 0-.6.1-.5.1-.9.2-.9.2l-3.1.3c-.1 0-.1 0-.1-.1 0 0-.1-.1-.1-.1h-1.1l-3.4-.6c-.4-.1-1-.4-1.8-.7-.4-.2-.8-.5-1.3-.8l-1.3-1c-.7-.9-1.2-2-1.3-3.1 0-.9.1-1.8.4-2.6.2-.3.4-.7.7-1.2.6-1.1 1.5-2.1 2.6-2.7 1-.5 2-1 3-1.4l-.1-.2c-.8-.5-1.5-1.2-1.9-2.1-.1-.2-.1-.5-.2-1-.1-.3-.1-.5-.1-.8.1-.8.3-1.6.7-2.4.3-.8.9-1.6 1.6-2.1l1.5-.5c.2 0 .4.1.6.2h.6.5l.2.1.7-.6 2.9-1 2.9-.5 1.4.2.5-.2c.4.1.7.2 1.1.2s.8.1 1 .4c.1 0 .1 0 .1-.1.2.1.3.1.5.3 1.1.1 2.3 1 3.7 2.8.1.3.2.7.3 1.1l-.1.6c0 .3-.1.6-.1.9-.1.1-.2.3-.3.5-.2.5-.3 1-.6 1.4-.3.1-.6.3-.9.5l-.7.7c.2.2.3.3.5.4s.3.1.5.1c.7.4 1.3.7 1.7 1 .1.1.1.3.2.5l.6.3c1.5 1.7 2.3 2.8 2.4 3.7zm-3.1 1.2c0-.4-.4-1-1.3-1.7-.7-.6-1.5-1.1-2.4-1.3-.5-.2-.9-.3-1.4-.3-.6-.1-1.3-.2-2-.3l-5.2.3-4.7.9-.4.1c-.8.4-1.7.8-2.5 1.1-.2.1-.3.2-.5.3-.5.2-1 .6-1.4 1s-.6.9-.7 1.4c.1.2.3.5.5.6.2.2.4.3.6.5.5.2 1.2.6 2.2 1.1.4.1.8.2 1.2.4l2.7.4h2.4c1-.1 2-.2 2.9-.4l2.3-.5c.6-.2 1.2-.3 1.7-.5.2 0 .4-.1.6-.3l1.1-.2 3.3-1.5c.8-.4 1-.7 1-1.1zm-3.4-11.1c-.3-.3-.6-.6-1-.8-.9-.5-2-.8-3.1-.8l-1.6-.1-1.7.4-.1-.1-3.2.9c-1.1.3-2.1.9-2.9 1.7.6.6 1.5 1.1 2.4 1.2.9.2 1.7.3 2.6.3l.7-.1.7-.1c1.4-.2 2.7-.5 4-1 .4-.2.8-.3 1.2-.4l1.9-.9v-.1s.1 0 .1-.1z" fill="#3d3a31"/><path d="m1562.5 230c-.2.2-.3.4-.5.6-.4.3-.9.4-1.5.5l-4.8.5-3.6.1c-1 0-2 .1-2.9.4-.1 0-.1 0-.2-.1-.1 0-.1-.1-.2-.1h-.1s-.1.1-.1.1.1.1.1.1c-.1.1-.2.1-.4.1-.1-.1-.2-.2-.2-.3h-1.4l-1-.7c-.1-.3-.2-.5-.4-.7-.2-.4-.3-.9-.3-1.3s.1-.7.2-1.1c.2-.2.5-.4.7-.7l2.3-.1 5 .1 2.5-.2c.2-.1.5-.1.7-.2.1 0 .2.1.3.1l2.8-.4c.5.3 1.1.6 1.6.8.3.5.6.9.9 1.5.1.2.3.4.4.7zm-12.2 2c0 .1-.1.1-.1.1z" fill="#3d3a31"/><path d="m1583.4 227.6c-.2.7-.5 1.4-.9 2.1-.3.2-.5.4-.5.8-1.2 1.1-2.5 2-3.9 2.7-.3.1-1.6.7-3.9 1.8-.5.1-1 .2-1.5.4l-1 .3h-.3-.3c-.2-.2-.5-.4-.8-.4h-.2c-.1-.2-.2-.3-.3-.5l-.4.9c-.1.1-.3.1-.5.1h-.1l-.3.3h-.2c-.3-.1-.5-.2-.8-.3l-.4.1c-.5-.4-.7-.7-.7-1-.3-.3-.4-.8-.4-1.2-.2-.2-.3-.5-.3-.8 0-.1-.1-.4-.1-.8 0-.2-.1-.4-.2-.6v.1-1.4c-.1-.3-.1-.6-.1-.9v-.1c0-.1-.1-.2-.1-.4s0-.3.1-.5c-.2-.3-.5-.5-.9-.5-.3-.4-.5-.8-.5-1.3 0-.4.1-.8.4-1.2.2-.4.5-.7.8-.9l-.1-6.9c0-.5.1-1.4.1-2.9 0-.8.2-1.5.6-2.2.1-.1.2-.2.3-.3.2-.1.4-.2.7-.3.1 0 .2 0 .3.1l.3.1c.2.4.4.7.7 1 .1.3.3.8.5 1.3v.1c0 .2 0 .4.1.6 0 .3.1.6.1 1l.4 6.6c0 .1.1.1.1.1.3-.1.6-.1 1-.1l2.8-.3h2.7l1.1.1c.8.1 1.4.3 1.9.4l.6.3c.9.2 1.7.7 2.3 1.4.6.5 1.1 1.2 1.4 2 .1.5.3 1 .6 1.4-.2-.1-.2-.2-.2-.3zm-4.5.1v-.2c-.3-.3-.6-.6-.9-.7-1.1-.4-2.2-.6-3.4-.6-.1 0-.2-.1-.4-.1l-2.7.2c-.9.2-1.7.4-2.5.8v.4c0 .1 0 .1.1.2 0 .1.1.1.1.2v1.5l.6 3.6s.1-.1.1-.1c0-.1.1-.2.1-.3 1.1-.6 2.3-1.2 3.5-1.6 1-.4 2-.8 2.9-1.4.9-.5 1.7-1.1 2.5-1.9z" fill="#3d3a31"/><path d="m1589.3 231.1v.2c0 .2 0 .4-.1.7s0 .7 0 1.2v1.4l-.4 1-.3-.1-.3.2c-.1 0-.2-.1-.3-.1s-.2.1-.3.1c-.4-.1-.8-.2-1.1-.3-.4-.9-.8-1.8-.9-2.7-.1-.3-.1-.6-.1-.9v-.4-2.4l.3-1.6c.2-.2.4-.4.5-.7l.7-.2c.2 0 .3.1.4.2.3.3.7.7 1.3 1.3.3.4.4.9.5 1.4zm.5-10.2c-.1.1-.1.2-.2.3.1.2.1.4.1.6-.2.2-.4.4-.7.5 0 0-.1-.1-.3-.1-.1 0-.2 0-.3.1-.4-.2-.9-.3-1.3-.4-.2-.4-.4-.9-.5-1.4l.1-1.5c.2-.1.3-.2.4-.4h.9c.4.2.7.6.9.9.2.1.4.3.5.5.2.5.3.7.4.9z" fill="#3d3a31"/><path d="m1614.4 225.2h-.5c-.1.1-.1.2-.1.3v.1c-.1.1-.3.2-.4.2-.5.5-.7.7-.9.7h-1.2l-1.2.3c-.1 0-.3-.1-.4-.1l-1.7.4h-.2-.2c-.1 0-.5.1-1.1.2-.4.1-.9.1-1.6.3-.5.1-.9.3-1.3.6-.4 2.5-.5 3.9-.5 4.1v1.1c0 .1-.1.4-.2.9-.1.4-.2.7-.2 1.1-.3.1-.9.4-1.5.7l-.5-.3c-.2-.1-.4-.2-.6-.3-.4-.6-.6-1.2-.7-1.9 0-.2-.1-.8-.2-1.8l.2-2.2v-.8l-.1-.1h-.3l-3.2.7h-.1c-.1 0-.2 0-.3-.1l-2.5.6c-.3-.2-.5-.3-.8-.4-.2-.1-.4-.4-.5-.6s-.2-.4-.4-.7c0-.4-.1-.8-.2-1.1 0-.3.1-.6.3-.9s.4-.5.6-.5l4.9-.5 3.2-.9c.2-1.6.5-4 .9-7.3.4-1.3.7-2.4 1.1-3.3.3-.4.7-.7 1.1-1 .5.3 1.1.6 1.6.9.2 1 .3 1.5.3 1.5l-1 7.3v1.1h1.9s.1 0 .2-.1h.4.2.3l.4-.1.5-.1c.1 0 .3.1.4.1.7-.1 1.3-.2 2-.2 0 0 .6.1 1.9.3.4.2.9.4 1.3.6v.1c0 .1 0 .2-.1.3.1.3.2.5.4.7h.1c.2-.1.4 0 .5.1z" fill="#3d3a31"/><path d="m1618.7 230.5v.2s0 .4 0 .7 0 .7 0 1.2v1.4l-.4 1-.3-.1-.3.2c-.1 0-.2-.1-.3-.1s-.2.1-.3.1c-.4-.1-.8-.2-1.1-.3-.4-.9-.7-1.8-.9-2.7-.1-.3-.1-.6-.1-.9 0-.1 0-.2 0-.4v-2.4l.3-1.6c.2-.2.4-.4.5-.7l.7-.2c.2 0 .3.1.5.2.3.3.7.7 1.2 1.3.3.4.4.9.5 1.4zm.5-10.2c-.1.1-.1.2-.2.3.3.3.2.7-.1 1-.1.1-.3.2-.5.2-.1-.1-.2-.1-.3-.1-.2 0-.3 0-.3.1-.4-.2-.9-.3-1.3-.4-.2-.4-.4-.9-.5-1.4l.1-1.5c.2-.1.3-.2.4-.4h.9c.4.2.7.6.9.9.2.1.4.3.5.5.2.3.2.5.4.8z" fill="#3d3a31"/><path d="m1642.2 215.9c-.1.1-.1.2-.3.4-.1.1-.2.2-.2.4v.1c-.1.1-.3.2-.7.3-.2 0-.5.1-.7.2h-.2c-.4-.4-.7-.6-.8-.6-.1-.4-.4-.7-.8-.9-.3-.3-.7-.5-1.2-.5-.8-.5-1.6-.8-2.5-1.1s-1.8-.5-2.7-.5c0 0-.5.1-1.5.3-.4.2-.7.5-1 .8-.1.1-.2.4-.5 1-.5 2.3-.7 4.6-.6 6.9v.6l.2 2.4c.1.1.2.2.4.2l5.1-.3c.2 0 .4.1.6.1.1.1.1.2.3.3.2 0 .5.2.8.5-.1.1-.1.2-.2.2v.2c.1 0 .2.1.3.2 0 .1 0 .2-.1.2v.2c-.2.1-.4.3-.5.5-.5.2-1 .5-1.4.8-.6.2-1.6.4-2.8.8-.1.1-.3.2-.4.3.4.5.7 1 1 1.6.1.5.2 1.1.4 1.6v.2l-.9.6v.2h-.8c-.1.1-.2.2-.1.4-.2-.1-.5-.1-.7-.1l-.3.1c-.7-.7-1.4-1.2-2.1-1.8-.3-.4-.8-1.1-1.4-1.9h-.4c-.2 0-.4.1-.5.2l-.5.1h-1.2c-.4.1-.9 0-1.2-.3-.9 0-1.3-.5-1.3-1.4.2-.9.6-1.7 1.2-2.4.1-.1.3-.1.6-.2.1 0 .2-.1.4-.1.1 0 .2 0 .3.1.2-.1.5-.2.8-.2h.3l.1-.1v-.9s-.1-.2-.2-.6-.1-.6-.1-.6v-1.8c0-1.3.1-2.6.2-3.9.1-1.4.5-2.8 1-4.2 1-2.5 2.3-3.9 3.9-4.2.2-.1 1.1-.3 2.6-.7h.1c.5 0 1.1.1 1.6.3l.2-.1h.2c.2.1.5.1.7.2.1-.1.2-.1.3-.1 1.4.3 2.8.8 4.2 1.5 1.1.8 2.2 1.7 3.1 2.7v.1c0 .2 0 .3.1.5s.1.4.2.7z" fill="#3d3a31"/><path d="m1650.6 227.7c0 1.1-.4 3.4-1.4 6.8-.1.5-.9 2.6-2.1 6.3 0 .1.1.1.2.1h-.2l-1.2 3-1.3 4.5c-.3.2-.5.5-.7.8-.2 0-.3.1-.5.1l-.3.1-.3-.1-1.3-1.4c-.2-.7-.3-1.3-.4-2l.3-2 1.2-3.8 2.4-6.1-.1-.3c-.7.3-1.4.4-2.1.5-1.5 0-2.7-.9-3.6-2.8-.8-1.5-1.2-3.1-1.2-4.8 0-.5.1-1 .3-1.5.2-.2.4-.5.7-.8h.2c.4 0 .9.3 1.3 1 .2.3.4.7.4 1.1.5 2.1.9 3.2 1.2 3.2.7 0 1.7-.6 3-1.7 1-.8 1.8-1.7 2.6-2.7.2 0 .4-.1.5-.3.2.1.5.1.7.1l.7.8c.1 0 .2 0 .3.1.5.6.7 1.2.7 1.8z" fill="#3d3a31"/><path d="m1687.4 59.7c-6.1.5-9.9 6.3-10.6 7.5-7.3 11-3.6 31.1 7.5 34.6 8.5 2.7 20.6-4.6 23.4-14.9 3.5-13.5-10-28.1-20.3-27.2z" fill="none" stroke="#3d3a31" stroke-linecap="round" stroke-miterlimit="10" stroke-width="5.4746"/><path d="m1635.2 68.3c-6.3 1-10.4 8.2-11.7 13.3-3 11.7 4.4 27.1 14.4 27.7 7.8.5 15.8-8.1 17-17 1.7-12.6-10.2-25.5-19.7-24z" fill="none" stroke="#3d3a31" stroke-linecap="round" stroke-miterlimit="10" stroke-width="5.4746"/><path d="m1676.7 114c-4.3-2.9-9.8-1.4-11.2-1.1-8.9 2.3-15.9 12.2-14.9 22.4 1.3 12.9 15 21.6 22.4 19.1 10.9-3.4 14.4-33.2 3.7-40.4z" fill="none" stroke="#3d3a31" stroke-linecap="round" stroke-miterlimit="10" stroke-width="5.4746"/><g fill="#1f1719" opacity=".15"><path d="m1736.9 712.1-7.3-50.4-26.6-183.8c-8.9-61.8-66.3-104.7-128.1-95.7l-38.5 5.6c-61.8 8.9-104.7 66.3-95.7 128.1l26.6 183.8 7.3 50.4c8.9 61.8 66.3 104.7 128.1 95.7l38.5-5.6c61.7-9 104.6-66.3 95.7-128.1z"/><path d="m1633.8 789.8-38.5 5.6c-61.8 8.9-119.2-33.9-128.1-95.7l7.3 50.4c8.9 61.8 66.3 104.7 128.1 95.7l38.5-5.6c61.8-8.9 104.7-66.3 95.7-128.1l-7.3-50.4c9 61.8-33.9 119.2-95.7 128.1z" opacity=".04"/></g><path d="m1641.3 777.1-38.5 5.6c-61.8 8.9-119.2-33.9-128.1-95.7l7.3 50.4c8.9 61.8 66.3 104.7 128.1 95.7l38.5-5.6c61.8-8.9 104.7-66.3 95.7-128.1l-7.3-50.4c9 61.8-33.8 119.1-95.7 128.1z" fill="#fff"/><path d="m1543.8 375.1 38.5-5.6c61.8-8.9 119.2 33.9 128.1 95.7l26.6 183.8c8.9 61.8-33.9 119.2-95.7 128.1l-38.5 5.6c-61.8 8.9-119.2-33.9-128.1-95.7l-26.6-183.8c-9-61.8 33.9-119.2 95.7-128.1z" fill="#fff"/><path d="m1641.3 777.1-38.5 5.6c-61.8 8.9-119.2-33.9-128.1-95.7l7.3 50.4c8.9 61.8 66.3 104.7 128.1 95.7l38.5-5.6c61.8-8.9 104.7-66.3 95.7-128.1l-7.3-50.4c9 61.8-33.8 119.1-95.7 128.1z" fill="#4c4444" opacity=".04"/><g fill="#4c4444" opacity=".14"><path d="m1607.9 688.3c-.3-2-.1-4.1.5-6.1 2.1-6.3 8.6-8.5 9.5-8.8 1.4 6.8-2.9 13.4-9.7 14.8 0 0-.2 0-.3.1z"/><path d="m1630.4 707.5c-1-1.6-1.7-3.3-2-5.2-.1-.8-.2-1.5-.1-2.3.1-2.8 1.1-5.5 2.9-7.8.5-.6 1-1.2 1.6-1.8-1.3-1.1-2.8-2-4.4-2.7-2-.9-4.1-1.4-6.3-1.3-1.9.2-2 .7-7.9 2.9-1.3.6-2.6 1-4 1.3-2.5.3-3.6-.4-6.7-.8-1.8-.2-3.6-.2-5.4.1-4.4.7-8 4.7-9.9 8.6-.3.5-.5 1-.7 1.5-.8 1.9-1.1 4-1.1 6.1.1 2.6.6 5.2 1.5 7.6.7 2 1.6 4 2.4 5.8 0 0 .2.3.4.8 1.2 2.3 2.7 4.5 4.4 6.5 1.4 1.7 3 3.2 4.9 4.4 2.5 1.7 4.2 1.9 5.4 1.9 1.6-.1 3.1-.5 4.5-1.2 2-1 1.8-1.6 3.5-2.2 1.5-.5 3-.6 4.6-.4 1.1.1 2.2.3 3.3.6 1.6.3 3.3.5 4.9.6 3.6-.2 6.2-4.5 8.1-7.8.3-.4.6-1 .8-1.5 1.2-2.4 2.1-4.9 2.7-7.5 0-.2.1-.4.1-.6-3.1-1-5.7-3-7.5-5.6z"/></g></svg>