<svg xmlns="http://www.w3.org/2000/svg" viewBox="0 0 1800 1200"><defs><style>.bcd84baf-4939-4ee0-a2fb-507703bbba38,.f143f774-07f9-4796-8aed-c7c164eedd1b{fill:#302d2e;}.bcd84baf-4939-4ee0-a2fb-507703bbba38,.fcdb56c9-7b9f-4e77-864e-aaa899219487{opacity:0.15;}.b16bca32-004a-409b-aa9d-d3fbbb31dae0{fill:#c5c4c6;}.b89aa4a2-f119-479b-ab40-d40896190e5e{fill:#b6b6b8;}.bc1d97d1-ef9e-497e-99b3-2c4d85506f35{fill:#fff;}.a9ecf29f-0e21-4a78-a76f-ffc0e7116005{fill:#e9e9ea;}.e0def9dd-ec05-45fa-81ec-0346613ae442{fill:#b8b3b3;}.a1278c51-8050-4dfd-9280-53dca267ee5c{fill:#aaa6a7;}.a74e37e3-dfe8-41bc-9f1b-402c40439be7{fill:#a68fba;}.e7ed10f6-3f70-411b-b510-2935abc8b48a{fill:#b49ac9;}.fd979fb5-779c-4f0e-b2c8-5e71506fd84f{fill:#58595b;}.e7cce62e-bd51-4437-8137-34efb0acd37e{fill:#eecf98;}.e0542957-0bb2-47a0-865b-8d07320ede19{fill:#eac27b;}.e8c436a5-a1d3-4c84-89bf-020f48c69c75{fill:none;stroke:#5f5a52;stroke-linecap:round;stroke-miterlimit:10;stroke-width:7.13px;}.f3578a42-3fd5-40a3-af96-aeac27a1d63e{fill:#5f5a52;}.ad5448ca-16b5-4dad-b30e-157f5c6f851e{fill:#c8c4ca;}.a7b0df9a-a2ed-447b-8659-5ec1be44eac6{fill:#bab6bc;}.b430969e-8686-4099-8f46-89114e7d8144{fill:#bebac0;}.f8b2dc98-b7d4-4840-92f4-0b2ad2c99982{fill:#b1aeb4;}.e6cb46c8-c07f-4849-9810-70529e2922ee{fill:#9e88b1;}</style></defs><title>portfolio-icons</title><g id="ecd9aac4-55d9-421d-b682-ac7081c73f88" data-name="8-bitify-banner"><g id="e8ca47fc-2ffc-4f72-ba60-30d64a97169b" data-name="keyboard"><path class="bcd84baf-4939-4ee0-a2fb-507703bbba38" d="M53.65,466.86H1550.91a0,0,0,0,1,0,0v669.49a18.74,18.74,0,0,1-18.74,18.74H72.39a18.74,18.74,0,0,1-18.74-18.74V466.86a0,0,0,0,1,0,0Z"/><path class="b16bca32-004a-409b-aa9d-d3fbbb31dae0" d="M53.65,440.84H1550.91a0,0,0,0,1,0,0v669.49a18.74,18.74,0,0,1-18.74,18.74H72.39a18.74,18.74,0,0,1-18.74-18.74V440.84a0,0,0,0,1,0,0Z"/><rect class="b89aa4a2-f119-479b-ab40-d40896190e5e" x="77.88" y="542.7" width="86.56" height="53.51" rx="3.11"/><rect class="b89aa4a2-f119-479b-ab40-d40896190e5e" x="77.88" y="613.59" width="81.32" height="81.32" rx="3.11"/><rect class="b89aa4a2-f119-479b-ab40-d40896190e5e" x="77.88" y="712.28" width="138.69" height="81.32" rx="3.11"/><rect class="b89aa4a2-f119-479b-ab40-d40896190e5e" x="77.88" y="810.98" width="160.11" height="81.32" rx="3.11"/><rect class="b89aa4a2-f119-479b-ab40-d40896190e5e" x="182.86" y="613.59" width="81.32" height="81.32" rx="3.11"/><rect class="b89aa4a2-f119-479b-ab40-d40896190e5e" x="232.97" y="712.28" width="81.32" height="81.32" rx="3.11"/><rect class="b89aa4a2-f119-479b-ab40-d40896190e5e" x="331.55" y="712.28" width="81.32" height="81.32" rx="3.11"/><rect class="b89aa4a2-f119-479b-ab40-d40896190e5e" x="431.29" y="712.28" width="81.32" height="81.32" rx="3.11"/><rect class="b89aa4a2-f119-479b-ab40-d40896190e5e" x="532.78" y="712.28" width="81.32" height="81.32" rx="3.11"/><rect class="b89aa4a2-f119-479b-ab40-d40896190e5e" x="633.12" y="712.28" width="81.32" height="81.32" rx="3.11"/><rect class="b89aa4a2-f119-479b-ab40-d40896190e5e" x="733.29" y="712.28" width="81.32" height="81.32" rx="3.11"/><rect class="b89aa4a2-f119-479b-ab40-d40896190e5e" x="839.62" y="712.28" width="81.32" height="81.32" rx="3.11"/><rect class="b89aa4a2-f119-479b-ab40-d40896190e5e" x="258.63" y="810.98" width="81.32" height="81.32" rx="3.11"/><rect class="b89aa4a2-f119-479b-ab40-d40896190e5e" x="357.22" y="810.98" width="81.32" height="81.32" rx="3.11"/><rect class="b89aa4a2-f119-479b-ab40-d40896190e5e" x="456.96" y="810.98" width="81.32" height="81.32" rx="3.11"/><rect class="b89aa4a2-f119-479b-ab40-d40896190e5e" x="558.45" y="810.98" width="81.32" height="81.32" rx="3.11"/><rect class="b89aa4a2-f119-479b-ab40-d40896190e5e" x="658.78" y="810.98" width="81.32" height="81.32" rx="3.11"/><rect class="b89aa4a2-f119-479b-ab40-d40896190e5e" x="758.96" y="810.98" width="81.32" height="81.32" rx="3.11"/><rect class="b89aa4a2-f119-479b-ab40-d40896190e5e" x="865.29" y="810.98" width="81.32" height="81.32" rx="3.11"/><rect class="b89aa4a2-f119-479b-ab40-d40896190e5e" x="961.22" y="810.98" width="81.32" height="81.32" rx="3.11"/><rect class="b89aa4a2-f119-479b-ab40-d40896190e5e" x="1062.7" y="810.98" width="81.32" height="81.32" rx="3.11"/><rect class="b89aa4a2-f119-479b-ab40-d40896190e5e" x="1163.04" y="810.98" width="81.32" height="81.32" rx="3.11"/><rect class="b89aa4a2-f119-479b-ab40-d40896190e5e" x="1263.22" y="810.98" width="81.32" height="81.32" rx="3.11"/><rect class="b89aa4a2-f119-479b-ab40-d40896190e5e" x="1369.55" y="810.98" width="81.32" height="81.32" rx="3.11"/><rect class="b89aa4a2-f119-479b-ab40-d40896190e5e" x="809.66" y="909.68" width="81.32" height="81.32" rx="3.11"/><rect class="b89aa4a2-f119-479b-ab40-d40896190e5e" x="911.15" y="909.68" width="81.32" height="81.32" rx="3.11"/><rect class="b89aa4a2-f119-479b-ab40-d40896190e5e" x="1011.49" y="909.68" width="81.32" height="81.32" rx="3.11"/><rect class="b89aa4a2-f119-479b-ab40-d40896190e5e" x="1111.66" y="909.68" width="81.32" height="81.32" rx="3.11"/><rect class="b89aa4a2-f119-479b-ab40-d40896190e5e" x="1217.99" y="909.68" width="81.32" height="81.32" rx="3.11"/><rect class="b89aa4a2-f119-479b-ab40-d40896190e5e" x="1142.5" y="1008.37" width="81.32" height="93.32" rx="3.11"/><rect class="b89aa4a2-f119-479b-ab40-d40896190e5e" x="1344.53" y="1015.1" width="78.42" height="35.02" rx="3.11"/><rect class="b89aa4a2-f119-479b-ab40-d40896190e5e" x="1016.04" y="1008.37" width="105.42" height="93.32" rx="3.11"/><rect class="b89aa4a2-f119-479b-ab40-d40896190e5e" x="506.71" y="1008.37" width="492.61" height="93.32" rx="3.11"/><rect class="b89aa4a2-f119-479b-ab40-d40896190e5e" x="1322.82" y="909.68" width="205.11" height="81.32" rx="3.11"/><rect class="b89aa4a2-f119-479b-ab40-d40896190e5e" x="304.88" y="909.68" width="81.32" height="81.32" rx="3.11"/><rect class="b89aa4a2-f119-479b-ab40-d40896190e5e" x="206.96" y="909.68" width="81.32" height="81.32" rx="3.11"/><rect class="b89aa4a2-f119-479b-ab40-d40896190e5e" x="77.88" y="909.68" width="110" height="81.32" rx="3.11"/><rect class="b89aa4a2-f119-479b-ab40-d40896190e5e" x="77.88" y="1008.37" width="80.06" height="93.32" rx="3.11"/><rect class="b89aa4a2-f119-479b-ab40-d40896190e5e" x="176.54" y="1008.37" width="80.06" height="93.32" rx="3.11"/><rect class="b89aa4a2-f119-479b-ab40-d40896190e5e" x="282.85" y="1008.37" width="80.06" height="93.32" rx="3.11"/><rect class="b89aa4a2-f119-479b-ab40-d40896190e5e" x="386.2" y="1008.37" width="101.49" height="93.32" rx="3.11"/><rect class="b89aa4a2-f119-479b-ab40-d40896190e5e" x="406.37" y="909.68" width="81.32" height="81.32" rx="3.11"/><rect class="b89aa4a2-f119-479b-ab40-d40896190e5e" x="506.71" y="909.68" width="81.32" height="81.32" rx="3.11"/><rect class="b89aa4a2-f119-479b-ab40-d40896190e5e" x="606.88" y="909.68" width="81.32" height="81.32" rx="3.11"/><rect class="b89aa4a2-f119-479b-ab40-d40896190e5e" x="713.22" y="909.68" width="81.32" height="81.32" rx="3.11"/><rect class="b89aa4a2-f119-479b-ab40-d40896190e5e" x="934.72" y="712.28" width="81.32" height="81.32" rx="3.11"/><rect class="b89aa4a2-f119-479b-ab40-d40896190e5e" x="1040.14" y="712.28" width="81.32" height="81.32" rx="3.11"/><rect class="b89aa4a2-f119-479b-ab40-d40896190e5e" x="1142.5" y="712.28" width="81.32" height="81.32" rx="3.11"/><rect class="b89aa4a2-f119-479b-ab40-d40896190e5e" x="1241.5" y="712.28" width="81.32" height="81.32" rx="3.11"/><rect class="b89aa4a2-f119-479b-ab40-d40896190e5e" x="1341.64" y="712.28" width="81.32" height="81.32" rx="3.11"/><path class="b89aa4a2-f119-479b-ab40-d40896190e5e" d="M1523.35,712.28h-74.78a4.58,4.58,0,0,0-4.58,4.58V789a4.58,4.58,0,0,0,4.58,4.58h21.08V881a4.58,4.58,0,0,0,4.58,4.58h49.12a4.58,4.58,0,0,0,4.58-4.58V716.86A4.58,4.58,0,0,0,1523.35,712.28Z"/><rect class="b89aa4a2-f119-479b-ab40-d40896190e5e" x="288.27" y="613.59" width="81.32" height="81.32" rx="3.11"/><rect class="b89aa4a2-f119-479b-ab40-d40896190e5e" x="390.63" y="613.59" width="81.32" height="81.32" rx="3.11"/><rect class="b89aa4a2-f119-479b-ab40-d40896190e5e" x="587.41" y="613.59" width="81.32" height="81.32" rx="3.11"/><rect class="b89aa4a2-f119-479b-ab40-d40896190e5e" x="689.68" y="613.59" width="81.32" height="81.32" rx="3.11"/><rect class="b89aa4a2-f119-479b-ab40-d40896190e5e" x="788.68" y="613.59" width="81.32" height="81.32" rx="3.11"/><rect class="b89aa4a2-f119-479b-ab40-d40896190e5e" x="887.68" y="613.59" width="81.32" height="81.32" rx="3.11"/><rect class="b89aa4a2-f119-479b-ab40-d40896190e5e" x="992.79" y="613.59" width="81.32" height="81.32" rx="3.11"/><rect class="b89aa4a2-f119-479b-ab40-d40896190e5e" x="1091.79" y="613.59" width="81.32" height="81.32" rx="3.11"/><rect class="b89aa4a2-f119-479b-ab40-d40896190e5e" x="1193.24" y="613.59" width="81.32" height="81.32" rx="3.11"/><rect class="b89aa4a2-f119-479b-ab40-d40896190e5e" x="1293.46" y="613.59" width="81.32" height="81.32" rx="3.11"/><rect class="b89aa4a2-f119-479b-ab40-d40896190e5e" x="1393.68" y="613.59" width="134.25" height="81.32" rx="3.11"/><rect class="b89aa4a2-f119-479b-ab40-d40896190e5e" x="484.69" y="613.59" width="81.32" height="81.32" rx="3.11"/><rect class="b89aa4a2-f119-479b-ab40-d40896190e5e" x="180.24" y="542.7" width="86.56" height="53.51" rx="3.11"/><rect class="b89aa4a2-f119-479b-ab40-d40896190e5e" x="285.65" y="542.7" width="86.56" height="53.51" rx="3.11"/><rect class="b89aa4a2-f119-479b-ab40-d40896190e5e" x="388.01" y="542.7" width="86.56" height="53.51" rx="3.11"/><rect class="b89aa4a2-f119-479b-ab40-d40896190e5e" x="495.57" y="542.7" width="86.56" height="53.51" rx="3.11"/><rect class="b89aa4a2-f119-479b-ab40-d40896190e5e" x="603.12" y="542.7" width="86.56" height="53.51" rx="3.11"/><rect class="b89aa4a2-f119-479b-ab40-d40896190e5e" x="708.54" y="542.7" width="86.56" height="53.51" rx="3.11"/><rect class="b89aa4a2-f119-479b-ab40-d40896190e5e" x="810.9" y="542.7" width="86.56" height="53.51" rx="3.11"/><rect class="b89aa4a2-f119-479b-ab40-d40896190e5e" x="913.68" y="542.7" width="86.56" height="53.51" rx="3.11"/><rect class="b89aa4a2-f119-479b-ab40-d40896190e5e" x="1016.04" y="542.7" width="86.56" height="53.51" rx="3.11"/><rect class="b89aa4a2-f119-479b-ab40-d40896190e5e" x="1121.46" y="542.7" width="86.56" height="53.51" rx="3.11"/><rect class="b89aa4a2-f119-479b-ab40-d40896190e5e" x="1223.82" y="542.7" width="86.56" height="53.51" rx="3.11"/><rect class="b89aa4a2-f119-479b-ab40-d40896190e5e" x="1339.02" y="542.7" width="86.56" height="53.51" rx="3.11"/><rect class="b89aa4a2-f119-479b-ab40-d40896190e5e" x="1441.37" y="542.7" width="86.56" height="53.51" rx="3.11"/><path class="b89aa4a2-f119-479b-ab40-d40896190e5e" d="M1347.64,1008.37h72.21a3.11,3.11,0,0,1,3.11,3.11v28.74a0,0,0,0,1,0,0h-78.42a0,0,0,0,1,0,0v-28.74A3.11,3.11,0,0,1,1347.64,1008.37Z"/><rect class="b89aa4a2-f119-479b-ab40-d40896190e5e" x="1344.53" y="1050.12" width="78.42" height="51.58" rx="3.11"/><rect class="b89aa4a2-f119-479b-ab40-d40896190e5e" x="1446.75" y="1059.75" width="78.42" height="41.95" rx="3.11"/><rect class="b89aa4a2-f119-479b-ab40-d40896190e5e" x="1244.96" y="1059.75" width="78.42" height="41.95" rx="3.11"/><rect class="bc1d97d1-ef9e-497e-99b3-2c4d85506f35" x="77.88" y="533.5" width="86.56" height="53.51" rx="3.11"/><rect class="bc1d97d1-ef9e-497e-99b3-2c4d85506f35" x="77.88" y="604.39" width="81.32" height="81.32" rx="3.11"/><rect class="bc1d97d1-ef9e-497e-99b3-2c4d85506f35" x="77.88" y="703.09" width="138.69" height="81.32" rx="3.11"/><rect class="bc1d97d1-ef9e-497e-99b3-2c4d85506f35" x="77.88" y="801.79" width="160.11" height="81.32" rx="3.11"/><rect class="bc1d97d1-ef9e-497e-99b3-2c4d85506f35" x="182.86" y="604.39" width="81.32" height="81.32" rx="3.11"/><rect class="bc1d97d1-ef9e-497e-99b3-2c4d85506f35" x="232.97" y="703.09" width="81.32" height="81.32" rx="3.11"/><rect class="bc1d97d1-ef9e-497e-99b3-2c4d85506f35" x="331.55" y="703.09" width="81.32" height="81.32" rx="3.11"/><rect class="bc1d97d1-ef9e-497e-99b3-2c4d85506f35" x="431.29" y="703.09" width="81.32" height="81.32" rx="3.11"/><rect class="bc1d97d1-ef9e-497e-99b3-2c4d85506f35" x="532.78" y="703.09" width="81.32" height="81.32" rx="3.11"/><rect class="bc1d97d1-ef9e-497e-99b3-2c4d85506f35" x="633.12" y="703.09" width="81.32" height="81.32" rx="3.11"/><rect class="bc1d97d1-ef9e-497e-99b3-2c4d85506f35" x="733.29" y="703.09" width="81.32" height="81.32" rx="3.11"/><rect class="bc1d97d1-ef9e-497e-99b3-2c4d85506f35" x="839.62" y="703.09" width="81.32" height="81.32" rx="3.11"/><rect class="bc1d97d1-ef9e-497e-99b3-2c4d85506f35" x="258.63" y="801.79" width="81.32" height="81.32" rx="3.11"/><rect class="bc1d97d1-ef9e-497e-99b3-2c4d85506f35" x="357.22" y="801.79" width="81.32" height="81.32" rx="3.11"/><rect class="bc1d97d1-ef9e-497e-99b3-2c4d85506f35" x="456.96" y="801.79" width="81.32" height="81.32" rx="3.11"/><rect class="bc1d97d1-ef9e-497e-99b3-2c4d85506f35" x="558.45" y="801.79" width="81.32" height="81.32" rx="3.11"/><rect class="bc1d97d1-ef9e-497e-99b3-2c4d85506f35" x="658.78" y="801.79" width="81.32" height="81.32" rx="3.11"/><rect class="bc1d97d1-ef9e-497e-99b3-2c4d85506f35" x="758.96" y="801.79" width="81.32" height="81.32" rx="3.11"/><rect class="bc1d97d1-ef9e-497e-99b3-2c4d85506f35" x="865.29" y="801.79" width="81.32" height="81.32" rx="3.11"/><rect class="bc1d97d1-ef9e-497e-99b3-2c4d85506f35" x="961.22" y="801.79" width="81.32" height="81.32" rx="3.11"/><rect class="bc1d97d1-ef9e-497e-99b3-2c4d85506f35" x="1062.7" y="801.79" width="81.32" height="81.32" rx="3.11"/><rect class="bc1d97d1-ef9e-497e-99b3-2c4d85506f35" x="1163.04" y="801.79" width="81.32" height="81.32" rx="3.11"/><rect class="bc1d97d1-ef9e-497e-99b3-2c4d85506f35" x="1263.22" y="801.79" width="81.32" height="81.32" rx="3.11"/><rect class="bc1d97d1-ef9e-497e-99b3-2c4d85506f35" x="1369.55" y="801.79" width="81.32" height="81.32" rx="3.11"/><rect class="bc1d97d1-ef9e-497e-99b3-2c4d85506f35" x="809.66" y="900.48" width="81.32" height="81.32" rx="3.11"/><rect class="bc1d97d1-ef9e-497e-99b3-2c4d85506f35" x="911.15" y="900.48" width="81.32" height="81.32" rx="3.11"/><rect class="bc1d97d1-ef9e-497e-99b3-2c4d85506f35" x="1011.49" y="900.48" width="81.32" height="81.32" rx="3.11"/><rect class="bc1d97d1-ef9e-497e-99b3-2c4d85506f35" x="1111.66" y="900.48" width="81.32" height="81.32" rx="3.11"/><rect class="bc1d97d1-ef9e-497e-99b3-2c4d85506f35" x="1217.99" y="900.48" width="81.32" height="81.32" rx="3.11"/><rect class="bc1d97d1-ef9e-497e-99b3-2c4d85506f35" x="1142.5" y="999.18" width="81.32" height="93.32" rx="3.11"/><rect class="a9ecf29f-0e21-4a78-a76f-ffc0e7116005" x="1344.53" y="1005.91" width="78.42" height="35.02" rx="3.11"/><rect class="bc1d97d1-ef9e-497e-99b3-2c4d85506f35" x="1016.04" y="999.18" width="105.42" height="93.32" rx="3.11"/><rect class="bc1d97d1-ef9e-497e-99b3-2c4d85506f35" x="506.71" y="999.18" width="492.61" height="93.32" rx="3.11"/><rect class="bc1d97d1-ef9e-497e-99b3-2c4d85506f35" x="1322.82" y="900.48" width="205.11" height="81.32" rx="3.11"/><rect class="bc1d97d1-ef9e-497e-99b3-2c4d85506f35" x="304.88" y="900.48" width="81.32" height="81.32" rx="3.11"/><rect class="bc1d97d1-ef9e-497e-99b3-2c4d85506f35" x="206.96" y="900.48" width="81.32" height="81.32" rx="3.11"/><rect class="bc1d97d1-ef9e-497e-99b3-2c4d85506f35" x="77.88" y="900.48" width="110" height="81.32" rx="3.11"/><rect class="bc1d97d1-ef9e-497e-99b3-2c4d85506f35" x="77.88" y="999.18" width="80.06" height="93.32" rx="3.11"/><rect class="bc1d97d1-ef9e-497e-99b3-2c4d85506f35" x="176.54" y="999.18" width="80.06" height="93.32" rx="3.11"/><rect class="bc1d97d1-ef9e-497e-99b3-2c4d85506f35" x="282.85" y="999.18" width="80.06" height="93.32" rx="3.11"/><rect class="bc1d97d1-ef9e-497e-99b3-2c4d85506f35" x="386.2" y="999.18" width="101.49" height="93.32" rx="3.11"/><rect class="bc1d97d1-ef9e-497e-99b3-2c4d85506f35" x="406.37" y="900.48" width="81.32" height="81.32" rx="3.11"/><rect class="bc1d97d1-ef9e-497e-99b3-2c4d85506f35" x="506.71" y="900.48" width="81.32" height="81.32" rx="3.11"/><rect class="bc1d97d1-ef9e-497e-99b3-2c4d85506f35" x="606.88" y="900.48" width="81.32" height="81.32" rx="3.11"/><rect class="bc1d97d1-ef9e-497e-99b3-2c4d85506f35" x="713.22" y="900.48" width="81.32" height="81.32" rx="3.11"/><rect class="bc1d97d1-ef9e-497e-99b3-2c4d85506f35" x="934.72" y="703.09" width="81.32" height="81.32" rx="3.11"/><rect class="bc1d97d1-ef9e-497e-99b3-2c4d85506f35" x="1040.14" y="703.09" width="81.32" height="81.32" rx="3.11"/><rect class="bc1d97d1-ef9e-497e-99b3-2c4d85506f35" x="1142.5" y="703.09" width="81.32" height="81.32" rx="3.11"/><rect class="bc1d97d1-ef9e-497e-99b3-2c4d85506f35" x="1241.5" y="703.09" width="81.32" height="81.32" rx="3.11"/><rect class="bc1d97d1-ef9e-497e-99b3-2c4d85506f35" x="1341.64" y="703.09" width="81.32" height="81.32" rx="3.11"/><path class="bc1d97d1-ef9e-497e-99b3-2c4d85506f35" d="M1523.35,703.09h-74.78a4.58,4.58,0,0,0-4.58,4.58v72.16a4.58,4.58,0,0,0,4.58,4.58h21.08V871.8a4.58,4.58,0,0,0,4.58,4.58h49.12a4.58,4.58,0,0,0,4.58-4.58V707.67A4.58,4.58,0,0,0,1523.35,703.09Z"/><rect class="bc1d97d1-ef9e-497e-99b3-2c4d85506f35" x="288.27" y="604.39" width="81.32" height="81.32" rx="3.11"/><rect class="bc1d97d1-ef9e-497e-99b3-2c4d85506f35" x="390.63" y="604.39" width="81.32" height="81.32" rx="3.11"/><rect class="bc1d97d1-ef9e-497e-99b3-2c4d85506f35" x="587.41" y="604.39" width="81.32" height="81.32" rx="3.11"/><rect class="bc1d97d1-ef9e-497e-99b3-2c4d85506f35" x="689.68" y="604.39" width="81.32" height="81.32" rx="3.11"/><rect class="bc1d97d1-ef9e-497e-99b3-2c4d85506f35" x="788.68" y="604.39" width="81.32" height="81.32" rx="3.11"/><rect class="bc1d97d1-ef9e-497e-99b3-2c4d85506f35" x="887.68" y="604.39" width="81.32" height="81.32" rx="3.11"/><rect class="bc1d97d1-ef9e-497e-99b3-2c4d85506f35" x="992.79" y="604.39" width="81.32" height="81.32" rx="3.11"/><rect class="bc1d97d1-ef9e-497e-99b3-2c4d85506f35" x="1091.79" y="604.39" width="81.32" height="81.32" rx="3.11"/><rect class="bc1d97d1-ef9e-497e-99b3-2c4d85506f35" x="1193.24" y="604.39" width="81.32" height="81.32" rx="3.11"/><rect class="bc1d97d1-ef9e-497e-99b3-2c4d85506f35" x="1293.46" y="604.39" width="81.32" height="81.32" rx="3.11"/><rect class="bc1d97d1-ef9e-497e-99b3-2c4d85506f35" x="1393.68" y="604.39" width="134.25" height="81.32" rx="3.11"/><rect class="bc1d97d1-ef9e-497e-99b3-2c4d85506f35" x="484.69" y="604.39" width="81.32" height="81.32" rx="3.11"/><rect class="bc1d97d1-ef9e-497e-99b3-2c4d85506f35" x="180.24" y="533.5" width="86.56" height="53.51" rx="3.11"/><rect class="bc1d97d1-ef9e-497e-99b3-2c4d85506f35" x="285.65" y="533.5" width="86.56" height="53.51" rx="3.11"/><rect class="bc1d97d1-ef9e-497e-99b3-2c4d85506f35" x="388.01" y="533.5" width="86.56" height="53.51" rx="3.11"/><rect class="bc1d97d1-ef9e-497e-99b3-2c4d85506f35" x="495.57" y="533.5" width="86.56" height="53.51" rx="3.11"/><rect class="bc1d97d1-ef9e-497e-99b3-2c4d85506f35" x="603.12" y="533.5" width="86.56" height="53.51" rx="3.11"/><rect class="bc1d97d1-ef9e-497e-99b3-2c4d85506f35" x="708.54" y="533.5" width="86.56" height="53.51" rx="3.11"/><rect class="bc1d97d1-ef9e-497e-99b3-2c4d85506f35" x="810.9" y="533.5" width="86.56" height="53.51" rx="3.11"/><rect class="bc1d97d1-ef9e-497e-99b3-2c4d85506f35" x="913.68" y="533.5" width="86.56" height="53.51" rx="3.11"/><rect class="bc1d97d1-ef9e-497e-99b3-2c4d85506f35" x="1016.04" y="533.5" width="86.56" height="53.51" rx="3.11"/><rect class="bc1d97d1-ef9e-497e-99b3-2c4d85506f35" x="1121.46" y="533.5" width="86.56" height="53.51" rx="3.11"/><rect class="bc1d97d1-ef9e-497e-99b3-2c4d85506f35" x="1223.82" y="533.5" width="86.56" height="53.51" rx="3.11"/><rect class="bc1d97d1-ef9e-497e-99b3-2c4d85506f35" x="1339.02" y="533.5" width="86.56" height="53.51" rx="3.11"/><rect class="bc1d97d1-ef9e-497e-99b3-2c4d85506f35" x="1441.37" y="533.5" width="86.56" height="53.51" rx="3.11"/><path class="bc1d97d1-ef9e-497e-99b3-2c4d85506f35" d="M1347.64,999.18h72.21a3.11,3.11,0,0,1,3.11,3.11V1031a0,0,0,0,1,0,0h-78.42a0,0,0,0,1,0,0v-28.74A3.11,3.11,0,0,1,1347.64,999.18Z"/><rect class="bc1d97d1-ef9e-497e-99b3-2c4d85506f35" x="1344.53" y="1040.92" width="78.42" height="51.58" rx="3.11"/><rect class="bc1d97d1-ef9e-497e-99b3-2c4d85506f35" x="1446.75" y="1050.55" width="78.42" height="41.95" rx="3.11"/><rect class="bc1d97d1-ef9e-497e-99b3-2c4d85506f35" x="1244.96" y="1050.55" width="78.42" height="41.95" rx="3.11"/></g><g id="bb1e6429-5e64-4c35-8890-40cd0706afc1" data-name="usb"><rect class="bcd84baf-4939-4ee0-a2fb-507703bbba38" x="282.37" y="317.44" width="71.73" height="45.41"/><path class="bcd84baf-4939-4ee0-a2fb-507703bbba38" d="M282.37,362.85V317.44H58.78V334.7a45.81,45.81,0,0,0,45.82,45.81H282.37Z"/><rect class="e0def9dd-ec05-45fa-81ec-0346613ae442" x="282.37" y="261.92" width="71.73" height="45.41"/><rect class="a1278c51-8050-4dfd-9280-53dca267ee5c" x="282.37" y="307.33" width="71.73" height="45.41"/><path class="a74e37e3-dfe8-41bc-9f1b-402c40439be7" d="M282.37,352.74V307.33H58.78v17.26A45.81,45.81,0,0,0,104.6,370.4H282.37Z"/><path class="e7ed10f6-3f70-411b-b510-2935abc8b48a" d="M282.37,261.92V244.25H104.6a45.81,45.81,0,0,0-45.82,45.82v17.26H282.37Z"/><rect class="fd979fb5-779c-4f0e-b2c8-5e71506fd84f" x="319.65" y="278.47" width="24.48" height="13" transform="translate(616.86 -46.91) rotate(90)"/><rect class="fd979fb5-779c-4f0e-b2c8-5e71506fd84f" x="319.65" y="323.17" width="24.48" height="13" transform="translate(661.56 -2.21) rotate(90)"/></g><g id="eff99b3a-08e7-40ca-aa81-04757f2a8f04" data-name="post-it"><polygon class="bcd84baf-4939-4ee0-a2fb-507703bbba38" points="1689.92 508.45 1305.75 450.99 1270.57 399.46 1319.52 72.21 1745.63 135.94 1689.92 508.45"/><polygon class="e7cce62e-bd51-4437-8137-34efb0acd37e" points="1689.73 493.53 1305.56 436.07 1270.38 384.54 1319.33 57.28 1745.44 121.02 1689.73 493.53"/><polygon class="e0542957-0bb2-47a0-865b-8d07320ede19" points="1313.14 390.94 1270.38 384.54 1305.56 436.07 1313.14 390.94"/><path class="e8c436a5-a1d3-4c84-89bf-020f48c69c75" d="M1361.83,98.93c-17.29,19.8-31,37.49-27.87,41,5,5.65,50.1-29.66,54.67-24.44,6.08,7-69.29,74.29-60.58,86.29,2.85,3.92,15.81,3.49,67-22.61"/><line class="e8c436a5-a1d3-4c84-89bf-020f48c69c75" x1="1585.7" y1="425.28" x2="1582.64" y2="404.04"/><line class="e8c436a5-a1d3-4c84-89bf-020f48c69c75" x1="1629.91" y1="418.91" x2="1626.85" y2="397.67"/><path class="e8c436a5-a1d3-4c84-89bf-020f48c69c75" d="M1564.65,441.6c5.07,4.28,16.9,13,33.85,14.48,33.56,2.9,55.44-25.45,57-27.58"/><path class="f3578a42-3fd5-40a3-af96-aeac27a1d63e" d="M1420.33,351.41l-.14,1,0,1.19-.17.51a5.12,5.12,0,0,0-.19.59,1.76,1.76,0,0,1-.53.8,9,9,0,0,1-.34.85,25.8,25.8,0,0,1-4.21,3.53,26.9,26.9,0,0,1-2.71,1.07,1.79,1.79,0,0,0-.42.3l-8.54,2.37a.84.84,0,0,0-.26,0,4,4,0,0,0-.82.11c-.69.15-1.09.23-1.19.24l-4,.34a.46.46,0,0,1-.18-.09.44.44,0,0,0-.16-.08l-1.49,0-4.45-.83q-.82-.3-2.34-.93c-.48-.26-1-.59-1.64-1-.2-.13-.78-.55-1.73-1.26a7.83,7.83,0,0,1-1.68-4,9.54,9.54,0,0,1,.54-3.35c.2-.37.52-.9,1-1.6a8.49,8.49,0,0,1,3.38-3.56,29.35,29.35,0,0,1,3.94-1.84l-.11-.29a6,6,0,0,1-2.47-2.7c-.09-.28-.2-.69-.32-1.24a8.2,8.2,0,0,1-.19-1,7.11,7.11,0,0,1,.93-3.08,5.89,5.89,0,0,1,2.1-2.7l2-.7a1.38,1.38,0,0,1,.78.23l.74,0,.63,0,.32.12.85-.72,3.74-1.32,3.8-.59,1.8.23.64-.28a3.57,3.57,0,0,0,1.47.26c.67,0,1.1.2,1.29.55.1,0,.14-.06.14-.16a4.06,4.06,0,0,1,.66.33q2.13.18,4.76,3.63a5.06,5.06,0,0,1,.35,1.38l-.09.83a7.79,7.79,0,0,0-.09,1.17c-.08.14-.23.37-.44.69a12.93,12.93,0,0,1-.75,1.85,2.35,2.35,0,0,0-1.11.69l-.89.85a3,3,0,0,0,.68.53,1.57,1.57,0,0,0,.65.19c.91.48,1.66.92,2.27,1.3a6.58,6.58,0,0,1,.31.61c.14.09.39.22.75.4C1419.13,348.76,1420.19,350.27,1420.33,351.41Zm-4.06,1.54c0-.59-.58-1.35-1.69-2.28a7.7,7.7,0,0,0-3.06-1.74,10.88,10.88,0,0,0-1.82-.45,14.61,14.61,0,0,0-2.54-.36h0l-6.79.36-6.07,1.16a4.43,4.43,0,0,0-.54.12,28.37,28.37,0,0,1-3.31,1.38,3.17,3.17,0,0,0-.62.45,4.63,4.63,0,0,0-1.78,1.34,3.13,3.13,0,0,0-.87,1.8,2.69,2.69,0,0,0,.6.83,9.29,9.29,0,0,1,.81.68c.65.3,1.61.77,2.88,1.39a10.69,10.69,0,0,1,1.52.48l3.53.54h3.16a33.94,33.94,0,0,0,3.8-.53l3-.58a22.37,22.37,0,0,1,2.2-.62,2.06,2.06,0,0,0,.84-.37c.37-.06.86-.14,1.48-.22l4.31-2C1416,353.91,1416.28,353.45,1416.27,353Zm-4.44-14.5a4.79,4.79,0,0,0-1.32-1,7.62,7.62,0,0,0-4-1l-2.09-.12-2.26.47-.16-.19-4.14,1.22a9.43,9.43,0,0,0-3.83,2.26,5.55,5.55,0,0,0,3.08,1.58,14.13,14.13,0,0,0,3.37.39l1-.08,1-.07a34.36,34.36,0,0,0,5.19-1.25,6.6,6.6,0,0,1,1.6-.55l2.54-1.09,0-.18A1.06,1.06,0,0,0,1411.83,338.45Z"/><path class="f3578a42-3fd5-40a3-af96-aeac27a1d63e" d="M1445.94,354.09a6.11,6.11,0,0,0-.59.82,3.78,3.78,0,0,1-1.92.61l-6.3.62-4.67.11a10.26,10.26,0,0,0-3.76.53,1,1,0,0,1-.27-.09,1.08,1.08,0,0,0-.25-.09H1428a.15.15,0,0,0-.07.12.33.33,0,0,0,.13.14,1,1,0,0,1-.51.13l-.3-.38-1.87.05c-.29-.23-.73-.55-1.32-1a2.11,2.11,0,0,0-.51-.89,4.93,4.93,0,0,1-.45-1.71,4.36,4.36,0,0,1,.23-1.43q.32-.26.9-.84l3-.09,6.53.19,3.29-.29a5.91,5.91,0,0,0,.93-.32,4,4,0,0,1,.37.17l3.7-.51a13,13,0,0,0,2.13,1,9.91,9.91,0,0,1,1.1,1.91c.13.22.32.51.56.88Zm-15.82,2.59c-.06.08-.12.13-.19.13s0,0,0,0Z"/><path class="f3578a42-3fd5-40a3-af96-aeac27a1d63e" d="M1473.14,351.07a14.73,14.73,0,0,1-1.14,2.77,1.68,1.68,0,0,0-.7,1,21.47,21.47,0,0,1-5,3.55c-.34.19-2,1-5.07,2.39a15.24,15.24,0,0,0-2,.54c-.88.29-1.33.43-1.36.43l-.36,0-.39,0a1.5,1.5,0,0,0-1-.52h-.23a2.63,2.63,0,0,0-.46-.64c-.15.31-.34.67-.57,1.1a1.52,1.52,0,0,1-.61.14l-.18,0-.36.38h-.28a6.22,6.22,0,0,1-1-.45c-.31.08-.49.11-.54.12-.62-.5-.94-.92-1-1.26a3.31,3.31,0,0,1-.58-1.55,3.13,3.13,0,0,1-.41-1c0-.19-.09-.53-.18-1a2.46,2.46,0,0,0-.21-.81v.09l0-1.88a7.81,7.81,0,0,1-.19-1.22.66.66,0,0,1,0-.15,1.88,1.88,0,0,1-.06-.49,2.36,2.36,0,0,1,.07-.65,2.58,2.58,0,0,0-1.18-.71,2.67,2.67,0,0,1-.69-1.72,3.08,3.08,0,0,1,.49-1.52,3.26,3.26,0,0,1,1.06-1.22l-.09-9c0-.6.08-1.85.16-3.75a5.84,5.84,0,0,1,.8-2.81l.41-.42a2.86,2.86,0,0,1,.87-.33,1.75,1.75,0,0,1,.38.08l.33.08a9.61,9.61,0,0,0,.91,1.34c.17.45.37,1,.58,1.73a1.15,1.15,0,0,0,0,.19,6.45,6.45,0,0,0,.07.76l.15,1.31.56,8.55c0,.07.09.12.19.17a7.85,7.85,0,0,1,1.27-.17l3.66-.4,3.57,0,1.44.07c1,.17,1.83.33,2.52.49a7.14,7.14,0,0,1,.73.37,6.6,6.6,0,0,1,3.07,1.77,7.09,7.09,0,0,1,1.87,2.57,11.24,11.24,0,0,0,.73,1.87S1473.15,351.11,1473.14,351.07Zm-5.86.14v-.28a4.47,4.47,0,0,0-1.22-1,13.69,13.69,0,0,0-4.43-.78,3.08,3.08,0,0,0-.47-.11h0l-3.56.25a14.74,14.74,0,0,0-3.3,1v.58a2.36,2.36,0,0,0,.1.26,1.52,1.52,0,0,1,.09.26l0,1.91.79,4.7a.26.26,0,0,1,.2-.08,1.18,1.18,0,0,1,.18-.36,33.27,33.27,0,0,1,4.55-2.12,20.11,20.11,0,0,0,3.83-1.85A12.75,12.75,0,0,0,1467.28,351.21Z"/><path class="f3578a42-3fd5-40a3-af96-aeac27a1d63e" d="M1480.88,355.62v-.06a.84.84,0,0,0-.05.27c0,.27,0,.57-.07.9s0,1,0,1.58l0,1.81-.51,1.31-.39-.08-.36.27a2.53,2.53,0,0,1-.36-.16,1.21,1.21,0,0,0-.36.18,8.53,8.53,0,0,0-1.49-.4,11.2,11.2,0,0,1-1.19-3.54,5.47,5.47,0,0,1-.12-1.12c0-.16,0-.32,0-.5l0-3.14.39-2.1a2.06,2.06,0,0,0,.61-.93l.94-.24a1.24,1.24,0,0,1,.59.24c.36.4.9,1,1.62,1.72a3.73,3.73,0,0,1,.62,1.79Zm.7-13.27a1.7,1.7,0,0,1-.27.38,2.18,2.18,0,0,1,.2.82,2.52,2.52,0,0,1-.94.67c0-.06-.16-.08-.35-.08a.49.49,0,0,0-.37.1,5.14,5.14,0,0,0-1.73-.51,7,7,0,0,1-.69-1.83v0l.12-2a2.13,2.13,0,0,0,.57-.49l1.11,0a4.32,4.32,0,0,1,1.22,1.24,1.07,1.07,0,0,1,.69.7A7.72,7.72,0,0,0,1481.58,342.35Z"/><path class="f3578a42-3fd5-40a3-af96-aeac27a1d63e" d="M1513.57,347.87H1513a.83.83,0,0,0-.13.42.22.22,0,0,0,0,.11,1.08,1.08,0,0,1-.54.24c-.6.65-1,1-1.09,1l-1.51,0-1.57.42a1.74,1.74,0,0,0-.53-.05l-2.23.47-.24,0-.31,0q-.27,0-1.38.21c-.47.07-1.18.19-2.12.37a5.56,5.56,0,0,0-1.71.76q-.71,4.89-.7,5.31l0,1.37c0,.07-.09.48-.26,1.23a9.54,9.54,0,0,0-.24,1.41c-.44.2-1.1.53-2,1l-.66-.42a2.68,2.68,0,0,0-.73-.39,5.52,5.52,0,0,1-.94-2.49c0-.24-.14-1-.28-2.33l.28-2.84,0-1.07-.12-.15h-.39l-4.11.94h-.07a.71.71,0,0,1-.35-.11l-3.27.72a10.6,10.6,0,0,0-1-.55,1.6,1.6,0,0,1-.7-.81c-.13-.22-.28-.5-.46-.85a12.62,12.62,0,0,0-.25-1.51v0a2.13,2.13,0,0,1,.39-1.17q.38-.58.75-.6h0l6.4-.59,4.17-1.08q.34-3.18,1.11-9.48.75-2.56,1.38-4.29a6.32,6.32,0,0,1,1.39-1.28,22,22,0,0,1,2.07,1.2c.25,1.32.39,2,.4,2l-1.29,9.52,0,1.37,2.48-.06h0s.13,0,.24-.15h.51l.31,0a1.43,1.43,0,0,0,.32,0l.58-.13.59-.14a1.38,1.38,0,0,1,.55.16,11.91,11.91,0,0,1,2.63-.23l2.54.34a15,15,0,0,0,1.72.73v.11a.57.57,0,0,1-.12.37,1.79,1.79,0,0,0,.51.87h.09A.42.42,0,0,1,1513.57,347.87Z"/><path class="f3578a42-3fd5-40a3-af96-aeac27a1d63e" d="M1519.06,354.71v0a.82.82,0,0,0,0,.26c0,.27,0,.57-.06.9s0,1,0,1.58l0,1.81-.51,1.32-.39-.08-.36.27a2.18,2.18,0,0,1-.36-.17,1.4,1.4,0,0,0-.36.19,7.78,7.78,0,0,0-1.49-.41,11.46,11.46,0,0,1-1.19-3.54,6.3,6.3,0,0,1-.11-1.12c0-.15,0-.32,0-.49l0-3.15.39-2.1a2,2,0,0,0,.61-.93l1-.23a1.18,1.18,0,0,1,.58.23c.36.4.9,1,1.63,1.72a3.76,3.76,0,0,1,.62,1.8Zm.71-13.27a1.91,1.91,0,0,1-.28.38,2.18,2.18,0,0,1,.2.82,2.27,2.27,0,0,1-.93.67.55.55,0,0,0-.36-.08c-.2,0-.32,0-.36.1a5.2,5.2,0,0,0-1.74-.5,7.76,7.76,0,0,1-.69-1.83v0l.13-2a2.5,2.5,0,0,0,.57-.49l1.1,0a4.14,4.14,0,0,1,1.23,1.23,1.09,1.09,0,0,1,.68.71A5.56,5.56,0,0,0,1519.77,341.44Z"/><path class="f3578a42-3fd5-40a3-af96-aeac27a1d63e" d="M1549.74,335.76a5.78,5.78,0,0,1-.4.52.83.83,0,0,0-.21.5.52.52,0,0,0,0,.14c-.08.13-.37.25-.85.37a5,5,0,0,0-.91.25h-.28c-.55-.53-.91-.79-1.06-.79h0c-.06-.35-.4-.75-1-1.22a2.66,2.66,0,0,0-1.54-.68,11.28,11.28,0,0,0-3.22-1.39,12.38,12.38,0,0,0-3.51-.63h0s-.66.17-2,.45a4.9,4.9,0,0,0-1.27,1,13,13,0,0,0-.67,1.28,36.46,36.46,0,0,0-.83,9c0,.18,0,.43,0,.76l.33,3.19a.73.73,0,0,0,.48.2h0l6.58-.41a6.19,6.19,0,0,1,.76.16l.36.41h.06c.28,0,.63.22,1,.68a1.53,1.53,0,0,1-.26.29v.26a.54.54,0,0,0,.35.17.6.6,0,0,0-.13.37.48.48,0,0,0,.06.21,1.94,1.94,0,0,0-.7.72,6,6,0,0,0-1.77,1c-.83.24-2,.57-3.63,1a1.94,1.94,0,0,0-.49.36,18.18,18.18,0,0,1,1.28,2.05,15.39,15.39,0,0,0,.54,2.09s0,0,0,0v.28l-1.2.73v.31l-1,0a.52.52,0,0,0-.19.46,3.73,3.73,0,0,0-.93-.15l-.37.09a22.11,22.11,0,0,0-2.74-2.32c-.42-.56-1-1.37-1.78-2.46l-.51,0a5.37,5.37,0,0,0-.7.21c-.44.12-.68.19-.72.19l-1.59,0a2.28,2.28,0,0,1-1.63-.39c-1.08,0-1.63-.63-1.66-1.84,0-.65.5-1.69,1.54-3.09.19-.07.43-.14.74-.23a1.64,1.64,0,0,1,.49-.1.65.65,0,0,1,.35.08,2.2,2.2,0,0,1,1-.23h.4l.14-.12,0-1.18s-.07-.28-.19-.76-.2-.74-.2-.76l0-2.34a33.44,33.44,0,0,1,.32-5,20.94,20.94,0,0,1,1.26-5.44q2-4.87,5-5.41c.29-.11,1.39-.4,3.32-.87h.19a6.52,6.52,0,0,1,2.08.43,1.22,1.22,0,0,0,.23-.08l.23,0h0a4.08,4.08,0,0,0,.9.25.58.58,0,0,1,.33-.17q.81,0,5.43,2a22.58,22.58,0,0,1,4,3.53.58.58,0,0,0,0,.19,3.56,3.56,0,0,0,.1.65,6.62,6.62,0,0,1,.22.86Z"/><path class="f3578a42-3fd5-40a3-af96-aeac27a1d63e" d="M1560.7,351.19q0,2.16-1.81,8.87-.29,1-2.71,8.22a.26.26,0,0,0,.23.1h-.24l-1.54,3.94-1.71,5.82a12.13,12.13,0,0,0-1,1,3,3,0,0,0-.6.15l-.45.17-.44-.11c-.37-.38-1-1-1.73-1.79a14.94,14.94,0,0,1-.55-2.65l.44-2.58,1.59-5,3.12-8-.15-.37a10.75,10.75,0,0,1-2.69.65q-2.88.06-4.73-3.63a14.39,14.39,0,0,1-1.57-6.22,5.8,5.8,0,0,1,.34-1.91c.21-.25.53-.6,1-1h.24c.58,0,1.15.42,1.72,1.3a4.63,4.63,0,0,1,.58,1.46c.65,2.76,1.19,4.14,1.61,4.13q1.42,0,3.94-2.22A23,23,0,0,0,1557,348a1.27,1.27,0,0,0,.69-.36,3.74,3.74,0,0,0,.95.08l.93,1.07.37.11A3.56,3.56,0,0,1,1560.7,351.19Z"/><path class="e8c436a5-a1d3-4c84-89bf-020f48c69c75" d="M1608.57,132.43c-7.91.69-12.87,8.21-13.86,9.7-9.47,14.36-4.68,40.51,9.7,45.05,11,3.49,26.88-6,30.5-19.4C1639.63,150.24,1622,131.26,1608.57,132.43Z"/><path class="e8c436a5-a1d3-4c84-89bf-020f48c69c75" d="M1540.65,143.52c-8.22,1.27-13.52,10.67-15.25,17.33-3.94,15.2,5.78,35.23,18.72,36,10.12.63,20.63-10.61,22.17-22.18C1568.46,158.48,1553,141.61,1540.65,143.52Z"/><path class="e8c436a5-a1d3-4c84-89bf-020f48c69c75" d="M1594.71,203.12c-5.58-3.73-12.8-1.84-14.55-1.38-11.64,3-20.74,15.89-19.41,29.11,1.69,16.74,19.53,28,29.11,25C1604,251.22,1608.65,212.45,1594.71,203.12Z"/></g><g id="a64a215e-d989-4894-9fa6-f91c706a1690" data-name="pen"><g class="fcdb56c9-7b9f-4e77-864e-aaa899219487"><path class="f143f774-07f9-4796-8aed-c7c164eedd1b" d="M159.28,115.76V62.46H389.17c7.49,0,13.56,4.84,13.56,10.81s-6.07,10.82-13.56,10.82H186.4v31.67c0,6-6.07,10.81-13.56,10.81S159.28,121.73,159.28,115.76Z"/></g><g id="a67cb584-c8fd-47a6-8661-bb0285f8fcb2" data-name="pencil"><path class="bcd84baf-4939-4ee0-a2fb-507703bbba38" d="M1018.13,133.06c0-.75-.29-1.5-.75-1.66l-22.52-8a.86.86,0,0,0-1.15.81v8a.86.86,0,0,0,.86.86H70v16.63a13.67,13.67,0,0,0,13.67,13.66h54.1v6.77H936.35l58-24.42a2.7,2.7,0,0,0,1.65-2.49v-.87l21.57-7.67C1018,134.52,1018.16,133.79,1018.13,133.06Z"/><path class="ad5448ca-16b5-4dad-b30e-157f5c6f851e" d="M1017.38,121.66l-22.52-8a.86.86,0,0,0-1.15.8v8a.87.87,0,0,0,.86.86h23.56C1018.1,122.58,1017.84,121.83,1017.38,121.66Z"/><path class="a7b0df9a-a2ed-447b-8659-5ec1be44eac6" d="M994.82,133l22.73-8.09c.43-.16.61-.88.58-1.61H994.54a.83.83,0,0,0-.83.83v8.09A.83.83,0,0,0,994.82,133Z"/><path class="b430969e-8686-4099-8f46-89114e7d8144" d="M996,123.33V113.18a2.7,2.7,0,0,0-1.65-2.49l-58-24.42v37.06Z"/><path class="f8b2dc98-b7d4-4840-92f4-0b2ad2c99982" d="M936.35,123.33v37.06l58-24.42a2.71,2.71,0,0,0,1.65-2.5V123.33Z"/><path class="a7b0df9a-a2ed-447b-8659-5ec1be44eac6" d="M70,123.33V140a13.67,13.67,0,0,0,13.67,13.67h54.1V123.33Z"/><path class="ad5448ca-16b5-4dad-b30e-157f5c6f851e" d="M137.77,93H83.67A13.67,13.67,0,0,0,70,106.7v16.63h67.77Z"/><rect class="a74e37e3-dfe8-41bc-9f1b-402c40439be7" x="206.44" y="86.27" width="729.91" height="37.06"/><rect class="e6cb46c8-c07f-4849-9810-70529e2922ee" x="206.44" y="123.33" width="729.91" height="37.06"/><rect class="f8b2dc98-b7d4-4840-92f4-0b2ad2c99982" x="137.77" y="123.33" width="68.67" height="37.06"/><rect class="b430969e-8686-4099-8f46-89114e7d8144" x="137.77" y="86.27" width="68.67" height="37.06"/></g><path class="b430969e-8686-4099-8f46-89114e7d8144" d="M159.28,107.51V54.21H389.17c7.49,0,13.56,4.84,13.56,10.82s-6.07,10.81-13.56,10.81H186.4v31.67c0,6-6.07,10.81-13.56,10.81S159.28,113.48,159.28,107.51Z"/></g></g></svg>