<svg xmlns="http://www.w3.org/2000/svg" viewBox="0 0 1200 1200"><defs><style>.cls-1,.cls-7,.cls-8{fill:#1f1719;}.cls-1,.cls-6{opacity:0.15;}.cls-2{fill:#eece80;}.cls-3{fill:#e9bd5c;}.cls-4{fill:none;stroke:#3d3a31;stroke-linecap:round;stroke-miterlimit:10;stroke-width:7.77px;}.cls-5{fill:#3d3a31;}.cls-10,.cls-8{opacity:0.04;}.cls-9{fill:#fff;}.cls-10,.cls-12{fill:#4c4444;}.cls-11{opacity:0.14;}.cls-13{fill:#b4aba5;}.cls-14{fill:#a39b95;}.cls-15{fill:#a47db0;}.cls-16{fill:#b489c1;}.cls-17{fill:#333;}</style></defs><title>portfolio-icons</title><g id="_8-bitify-icon" data-name="8-bitify-icon"><g id="post-it"><polygon class="cls-1" points="1044.98 560.61 626.08 497.96 587.73 441.77 641.1 84.93 1105.73 154.42 1044.98 560.61"/><polygon class="cls-2" points="1047.16 538.37 628.26 475.72 589.91 419.54 643.28 62.69 1107.91 132.19 1047.16 538.37"/><polygon class="cls-3" points="636.53 426.51 589.91 419.54 628.26 475.72 636.53 426.51"/><path class="cls-4" d="M689.63,108.1c-18.87,21.59-33.81,40.88-30.4,44.7,5.49,6.16,54.63-32.35,59.62-26.65,6.62,7.58-75.56,81-66.06,94.09,3.11,4.28,17.24,3.81,73-24.65"/><line class="cls-4" x1="933.73" y1="463.96" x2="930.39" y2="440.8"/><line class="cls-4" x1="981.94" y1="457.01" x2="978.6" y2="433.85"/><path class="cls-4" d="M910.78,481.75c5.52,4.67,18.43,14.19,36.9,15.79,36.61,3.16,60.46-27.75,62.19-30.07"/><path class="cls-5" d="M753.41,383.41l-.15,1.1,0,1.3s-.06.2-.19.56-.19.57-.2.63a2,2,0,0,1-.58.88,9.42,9.42,0,0,1-.38.93,26.92,26.92,0,0,1-4.58,3.84,29.46,29.46,0,0,1-3,1.17,1.87,1.87,0,0,0-.45.33l-9.31,2.58a1.07,1.07,0,0,0-.29,0,5.09,5.09,0,0,0-.9.12c-.75.17-1.18.25-1.3.26l-4.39.37a.45.45,0,0,1-.2-.09.54.54,0,0,0-.17-.09l-1.63,0-4.85-.91c-.61-.21-1.46-.55-2.55-1a18.79,18.79,0,0,1-1.79-1.09c-.22-.14-.85-.6-1.89-1.37a8.55,8.55,0,0,1-1.83-4.38,10.6,10.6,0,0,1,.58-3.66c.22-.4.57-1,1.05-1.75a9.43,9.43,0,0,1,3.68-3.88,35.24,35.24,0,0,1,4.31-2l-.13-.32a6.49,6.49,0,0,1-2.69-2.94c-.1-.31-.21-.76-.35-1.36s-.2-1-.21-1.08a7.79,7.79,0,0,1,1-3.36,6.47,6.47,0,0,1,2.28-2.95c1.45-.49,2.17-.75,2.17-.76a1.57,1.57,0,0,1,.85.25l.8,0,.69,0,.35.12c.23-.18.54-.44.92-.78l4.09-1.44,4.14-.64,2,.24a6.3,6.3,0,0,0,.7-.3,3.82,3.82,0,0,0,1.6.29q1.1,0,1.41.6c.11,0,.16-.06.15-.18a3.79,3.79,0,0,1,.72.37q2.32.19,5.19,4a5,5,0,0,1,.38,1.5l-.09.9a10.32,10.32,0,0,0-.11,1.27,7.64,7.64,0,0,1-.48.76,13.78,13.78,0,0,1-.81,2,2.61,2.61,0,0,0-1.21.76c-.19.17-.51.48-1,.92a3.34,3.34,0,0,0,.74.58,1.62,1.62,0,0,0,.71.21c1,.53,1.81,1,2.47,1.42a6.31,6.31,0,0,1,.34.66c.16.1.43.25.82.44Q753.19,381.53,753.41,383.41ZM749,385.09c0-.64-.63-1.47-1.84-2.49a8.47,8.47,0,0,0-3.34-1.89,11.33,11.33,0,0,0-2-.49,15.42,15.42,0,0,0-2.76-.4h0l-7.41.39L725,381.48c-.1,0-.3.06-.59.13a30.72,30.72,0,0,1-3.6,1.5,3.78,3.78,0,0,0-.68.49,5,5,0,0,0-1.94,1.47,3.46,3.46,0,0,0-.95,2,2.9,2.9,0,0,0,.65.9,7.9,7.9,0,0,1,.88.75c.71.32,1.76.83,3.14,1.51a10.65,10.65,0,0,1,1.66.52l3.85.6h3.45a34.6,34.6,0,0,0,4.14-.58l3.26-.63a24.23,24.23,0,0,1,2.4-.67,2.27,2.27,0,0,0,.91-.4c.41-.08,1-.16,1.63-.25l4.7-2.18C748.63,386.14,749,385.63,749,385.09Zm-4.84-15.81a5.27,5.27,0,0,0-1.44-1.12,8.25,8.25,0,0,0-4.36-1.08l-2.28-.14-2.46.52-.18-.21c-.84.24-2.34.68-4.51,1.33a10.16,10.16,0,0,0-4.18,2.46,6,6,0,0,0,3.36,1.72,14.76,14.76,0,0,0,3.67.43l1-.08,1-.08a38.86,38.86,0,0,0,5.65-1.36,7.12,7.12,0,0,1,1.75-.6l2.77-1.2.05-.19A.87.87,0,0,0,744.14,369.28Z"/><path class="cls-5" d="M781.34,386.33a8.44,8.44,0,0,0-.65.9,4.26,4.26,0,0,1-2.09.66l-6.87.68-5.09.12a10.88,10.88,0,0,0-4.11.58,1,1,0,0,1-.29-.1,1,1,0,0,0-.27-.1h-.15a.15.15,0,0,0-.07.14.29.29,0,0,0,.13.15,1.09,1.09,0,0,1-.55.15l-.33-.42-2,.05-1.45-1.06a2.25,2.25,0,0,0-.56-1,5.51,5.51,0,0,1-.48-1.87,4.66,4.66,0,0,1,.25-1.56,13.19,13.19,0,0,0,1-.92l3.33-.1,7.12.22,3.59-.32a6.74,6.74,0,0,0,1-.35l.41.18,4-.55a14.88,14.88,0,0,0,2.32,1.09,10.45,10.45,0,0,1,1.2,2.08c.15.24.35.56.62,1Zm-17.26,2.82a.24.24,0,0,1-.21.14s0,0,0,0Z"/><path class="cls-5" d="M811,383a17.3,17.3,0,0,1-1.25,3,1.83,1.83,0,0,0-.76,1.07,24,24,0,0,1-5.51,3.87c-.37.2-2.22,1.07-5.53,2.6a16.09,16.09,0,0,0-2.13.59c-1,.32-1.46.47-1.48.47a2.32,2.32,0,0,1-.4,0l-.43,0a1.6,1.6,0,0,0-1.14-.57h-.25a3,3,0,0,0-.5-.7c-.17.34-.38.74-.62,1.2a1.5,1.5,0,0,1-.67.15h-.19l-.39.41h-.31a7.15,7.15,0,0,1-1.1-.49,5.53,5.53,0,0,1-.59.12c-.68-.54-1-1-1-1.37a3.42,3.42,0,0,1-.64-1.69,3.38,3.38,0,0,1-.45-1.12c0-.2-.09-.58-.2-1.13a2.45,2.45,0,0,0-.23-.87v.09l-.05-2a10.2,10.2,0,0,1-.21-1.33.63.63,0,0,1,0-.16,2.19,2.19,0,0,1-.07-.53,2.42,2.42,0,0,1,.08-.71,2.84,2.84,0,0,0-1.29-.78,2.9,2.9,0,0,1-.75-1.88,3.3,3.3,0,0,1,.54-1.66,3.5,3.5,0,0,1,1.15-1.33l-.1-9.79c0-.65.08-2,.18-4.08a6.39,6.39,0,0,1,.86-3.07l.45-.45a3.63,3.63,0,0,1,1-.37,2.62,2.62,0,0,1,.42.09l.35.09a12.5,12.5,0,0,0,1,1.47c.19.48.41,1.11.64,1.88a1.34,1.34,0,0,0,0,.21,5.73,5.73,0,0,0,.08.82c0,.37.1.85.16,1.44l.61,9.31a.36.36,0,0,0,.21.19,10.6,10.6,0,0,1,1.38-.19l4-.44h3.89c.14,0,.67,0,1.58.08,1.07.18,2,.35,2.75.52.17.08.43.21.79.41a7.09,7.09,0,0,1,3.35,1.93,7.67,7.67,0,0,1,2,2.81,12.34,12.34,0,0,0,.79,2S811,383.08,811,383Zm-6.4.15v-.3a5.14,5.14,0,0,0-1.33-1.06,15,15,0,0,0-4.83-.85,3.21,3.21,0,0,0-.52-.12h0l-3.89.26a17.26,17.26,0,0,0-3.59,1.09v.63a1.84,1.84,0,0,0,.11.28,2.44,2.44,0,0,1,.1.29l.05,2.09.87,5.11a.29.29,0,0,1,.21-.08,1.19,1.19,0,0,1,.2-.39,36.43,36.43,0,0,1,5-2.32,20.84,20.84,0,0,0,4.17-2Q801.81,385.65,804.6,383.19Z"/><path class="cls-5" d="M819.43,388v-.06a.9.9,0,0,0,0,.29c0,.29,0,.62-.07,1s0,1,0,1.72l.05,2-.56,1.43-.43-.08-.39.3a3.31,3.31,0,0,1-.39-.19,1.66,1.66,0,0,0-.4.2,9.23,9.23,0,0,0-1.62-.44,12.69,12.69,0,0,1-1.3-3.86,6.33,6.33,0,0,1-.12-1.22c0-.17,0-.34,0-.54l0-3.43.42-2.29a2.13,2.13,0,0,0,.67-1l1-.25a1.28,1.28,0,0,1,.64.25c.39.44,1,1.06,1.77,1.87a4.19,4.19,0,0,1,.68,2Zm.77-14.47a2.08,2.08,0,0,1-.3.41,2.37,2.37,0,0,1,.22.89,2.6,2.6,0,0,1-1,.74c-.05-.07-.18-.09-.39-.09s-.35,0-.4.11a5.49,5.49,0,0,0-1.89-.55,8.27,8.27,0,0,1-.75-2v0l.14-2.15a2.6,2.6,0,0,0,.62-.53l1.2,0a4.58,4.58,0,0,1,1.34,1.35,1.16,1.16,0,0,1,.74.77A8.9,8.9,0,0,0,820.2,373.53Z"/><path class="cls-5" d="M855.08,379.54l-.65,0a1.08,1.08,0,0,0-.14.46.5.5,0,0,0,0,.12,1.2,1.2,0,0,1-.58.26c-.65.7-1.05,1.06-1.19,1.06l-1.64,0-1.72.46a2.43,2.43,0,0,0-.57-.06l-2.44.52-.26,0a1.19,1.19,0,0,0-.34,0,14.65,14.65,0,0,0-1.51.22c-.51.08-1.28.21-2.31.4a6.3,6.3,0,0,0-1.86.83c-.51,3.55-.77,5.48-.76,5.79l0,1.49c0,.08-.09.53-.28,1.35a11.79,11.79,0,0,0-.27,1.54c-.48.22-1.2.57-2.16,1.07,0,0-.26-.18-.72-.47a2.8,2.8,0,0,0-.79-.42,6.12,6.12,0,0,1-1-2.71c0-.27-.14-1.12-.31-2.54l.31-3.1,0-1.17-.14-.16h-.42l-4.48,1h-.08a.63.63,0,0,1-.38-.12l-3.57.79a12.22,12.22,0,0,0-1.14-.6,1.83,1.83,0,0,1-.77-.89c-.13-.24-.3-.54-.5-.92a16.29,16.29,0,0,0-.27-1.64h0a2.29,2.29,0,0,1,.43-1.27c.27-.43.54-.65.81-.65h.05l7-.65,4.56-1.18q.38-3.45,1.21-10.34.81-2.79,1.5-4.67a7,7,0,0,1,1.51-1.4,24,24,0,0,1,2.26,1.31c.28,1.44.42,2.16.43,2.16l-1.4,10.38,0,1.49,2.7-.06h0s.14-.05.26-.16l.56,0,.33,0,.36,0,.63-.15.64-.14a1.38,1.38,0,0,1,.6.17,13.27,13.27,0,0,1,2.87-.26s.92.14,2.77.38a16.5,16.5,0,0,0,1.88.8v.11a.61.61,0,0,1-.13.41,1.85,1.85,0,0,0,.56.94h.1A.45.45,0,0,1,855.08,379.54Z"/><path class="cls-5" d="M861.07,387V387s0,.1-.05.29-.06.62-.08,1,0,1,0,1.72l0,2-.56,1.43-.42-.09-.4.3-.38-.18a1.36,1.36,0,0,0-.4.2,8.86,8.86,0,0,0-1.62-.44,12.51,12.51,0,0,1-1.3-3.86,7.36,7.36,0,0,1-.13-1.23c0-.16,0-.34,0-.53l0-3.43.43-2.29a2.29,2.29,0,0,0,.67-1l1-.25a1.31,1.31,0,0,1,.64.25c.4.44,1,1.07,1.77,1.88a4,4,0,0,1,.68,1.95Zm.77-14.47a2.21,2.21,0,0,1-.3.41,2.44,2.44,0,0,1,.21.9,2.63,2.63,0,0,1-1,.73c-.05-.06-.18-.09-.38-.09s-.35,0-.4.11a5.87,5.87,0,0,0-1.89-.55,8.69,8.69,0,0,1-.76-2v0l.14-2.15a2.47,2.47,0,0,0,.62-.53l1.21,0a4.57,4.57,0,0,1,1.33,1.35,1.14,1.14,0,0,1,.75.76A6.58,6.58,0,0,0,861.84,372.54Z"/><path class="cls-5" d="M894.51,366.35c-.07.11-.21.3-.42.56a1,1,0,0,0-.24.54.63.63,0,0,0,0,.16c-.08.14-.39.27-.93.4a6.26,6.26,0,0,0-1,.27h-.3c-.6-.57-1-.86-1.15-.85h0c-.06-.38-.43-.83-1.11-1.34a3,3,0,0,0-1.68-.74,12.45,12.45,0,0,0-3.51-1.51,13.19,13.19,0,0,0-3.83-.69h0s-.71.19-2.15.5a5.21,5.21,0,0,0-1.39,1.14,15.56,15.56,0,0,0-.73,1.4,39,39,0,0,0-.9,9.77,8.16,8.16,0,0,0,.06.83l.35,3.47a.73.73,0,0,0,.52.22h0l7.17-.44a4.87,4.87,0,0,1,.83.18l.39.45h.06c.31,0,.69.24,1.15.74a1.4,1.4,0,0,1-.28.32V382a.59.59,0,0,0,.38.19.69.69,0,0,0-.14.4.56.56,0,0,0,.06.23,2.14,2.14,0,0,0-.76.79,6.1,6.1,0,0,0-1.93,1.11q-1.35.4-4,1.08a1.94,1.94,0,0,0-.53.39,20.5,20.5,0,0,1,1.4,2.23,13.65,13.65,0,0,0,.59,2.28s0,0,0,0v.3l-1.3.8v.34l-1.08,0a.58.58,0,0,0-.19.5,4.69,4.69,0,0,0-1-.16l-.4.1a24.41,24.41,0,0,0-3-2.53c-.46-.61-1.1-1.5-1.94-2.68h-.55s-.31.08-.76.23l-.78.21-1.75,0a2.5,2.5,0,0,1-1.77-.41c-1.18,0-1.78-.7-1.81-2,0-.72.54-1.84,1.68-3.38l.8-.24a1.67,1.67,0,0,1,.54-.11.65.65,0,0,1,.38.08,2.6,2.6,0,0,1,1.09-.25h.44l.15-.14,0-1.28s-.07-.31-.21-.83-.21-.81-.22-.83l-.06-2.55a40.48,40.48,0,0,1,.35-5.47,23.84,23.84,0,0,1,1.38-5.93c1.48-3.54,3.31-5.5,5.47-5.9.32-.12,1.52-.44,3.62-.95h.21a7,7,0,0,1,2.27.46l.25-.08.25-.05h0a6.36,6.36,0,0,0,1,.26.6.6,0,0,1,.36-.18c.59,0,2.56.7,5.92,2.14a24.9,24.9,0,0,1,4.36,3.84.76.76,0,0,0,0,.21,3.43,3.43,0,0,0,.11.71,5.76,5.76,0,0,1,.23.93Z"/><path class="cls-5" d="M906.47,383.17c0,1.57-.62,4.8-2,9.67q-.3,1.08-3,9a.29.29,0,0,0,.26.11h-.27l-1.68,4.29L898,412.56a9.86,9.86,0,0,0-1,1.1,2.9,2.9,0,0,0-.65.16l-.49.19-.49-.12-1.88-1.95a17.36,17.36,0,0,1-.61-2.9l.49-2.81,1.73-5.44,3.4-8.67-.16-.4a11.35,11.35,0,0,1-2.94.7q-3.14.07-5.15-4a15.54,15.54,0,0,1-1.71-6.78,6,6,0,0,1,.37-2.07,14.55,14.55,0,0,1,1.06-1.14h.27c.63,0,1.25.46,1.88,1.41a5.33,5.33,0,0,1,.63,1.6q1.06,4.51,1.75,4.5c1,0,2.47-.83,4.29-2.42a25.26,25.26,0,0,0,3.65-3.84,1.64,1.64,0,0,0,.76-.4,3.82,3.82,0,0,0,1,.09c.2.22.54.61,1,1.16a2.16,2.16,0,0,1,.4.12A3.94,3.94,0,0,1,906.47,383.17Z"/><path class="cls-4" d="M958.67,144.63c-8.63.75-14,9-15.11,10.58-10.34,15.66-5.11,44.17,10.58,49.13,12,3.8,29.31-6.53,33.25-21.16C992.54,164.05,973.34,143.36,958.67,144.63Z"/><path class="cls-4" d="M884.61,156.73c-9,1.38-14.75,11.63-16.63,18.89-4.29,16.57,6.3,38.42,20.41,39.3,11,.69,22.5-11.57,24.18-24.19C914.93,173,898.05,154.64,884.61,156.73Z"/><path class="cls-4" d="M943.56,221.72c-6.09-4.08-14-2-15.87-1.51C915,223.53,905.07,237.54,906.52,252c1.85,18.25,21.3,30.59,31.75,27.2C953.7,274.16,958.75,231.89,943.56,221.72Z"/></g><g id="mouse"><g class="cls-6"><path class="cls-7" d="M350.6,1039.9h-75c-120.43,0-218.06-97.63-218.06-218.06V920c0,120.43,97.63,218.06,218.06,218.06h75c120.43,0,218.06-97.63,218.06-218.06V821.84C568.66,942.27,471,1039.9,350.6,1039.9Z"/><rect class="cls-7" x="57.55" y="245.74" width="511.11" height="794.17" rx="218.06"/><path class="cls-8" d="M350.6,1039.9h-75c-120.43,0-218.06-97.63-218.06-218.06V920c0,120.43,97.63,218.06,218.06,218.06h75c120.43,0,218.06-97.63,218.06-218.06V821.84C568.66,942.27,471,1039.9,350.6,1039.9Z"/></g><path class="cls-9" d="M350.6,1015.15h-75c-120.43,0-218.06-97.63-218.06-218.06v98.17c0,120.43,97.63,218.06,218.06,218.06h75c120.43,0,218.06-97.63,218.06-218.06V797.09C568.66,917.52,471,1015.15,350.6,1015.15Z"/><rect class="cls-9" x="57.55" y="220.99" width="511.11" height="794.17" rx="218.06"/><path class="cls-10" d="M350.6,1015.15h-75c-120.43,0-218.06-97.63-218.06-218.06v98.17c0,120.43,97.63,218.06,218.06,218.06h75c120.43,0,218.06-97.63,218.06-218.06V797.09C568.66,917.52,471,1015.15,350.6,1015.15Z"/><g class="cls-11"><path class="cls-12" d="M311.41,836.41a25.07,25.07,0,0,1,2.65-11.49c5.82-11.44,18.76-13.85,20.55-14.15a24.15,24.15,0,0,1-23.2,25.64Z"/><path class="cls-12" d="M349,879.4a25,25,0,0,1-2.43-10.5,24.11,24.11,0,0,1,.37-4.42,26.87,26.87,0,0,1,7.6-14,24.83,24.83,0,0,1,3.52-3,32.64,32.64,0,0,0-7.73-6.41c-2.42-1.44-6.44-3.84-11.71-4.2-3.72-.25-4.1.78-15.91,3.32-4.24.91-6.39,1.36-7.95,1.32-4.82-.11-6.84-1.87-12.6-3.31a42.87,42.87,0,0,0-10.38-1.33c-8.51.15-16.49,6.84-21.22,13.6-.65.92-1.24,1.85-1.76,2.76a31.15,31.15,0,0,0-3.8,11.28,45.39,45.39,0,0,0,.74,14.91c.82,4.12,2,8.1,3.06,11.83,0,0,.2.67.6,1.81A70,70,0,0,0,276,906.68a46.24,46.24,0,0,0,8.06,9.75c4.27,3.83,7.49,4.79,9.72,5.08a20,20,0,0,0,8.83-1.11c4.05-1.35,3.94-2.59,7.29-3.31a20.09,20.09,0,0,1,8.84.44,55.5,55.5,0,0,1,6.19,2c2.84.93,6.83,2.23,9.28,2.43,7,.57,13-6.89,17.67-12.6.63-.77,1.32-1.67,2-2.68A58.15,58.15,0,0,0,361.14,893l.42-1.14A26.33,26.33,0,0,1,349,879.4Z"/></g></g><g id="usb"><rect class="cls-1" x="877.09" y="699.9" width="91.44" height="57.89" transform="matrix(0.6, -0.8, 0.8, 0.6, -214.35, 1028.26)"/><path class="cls-1" d="M918.47,782.78,872.2,748,862,761.58,700.87,975.79,718.46,989a58.4,58.4,0,0,0,81.78-11.57L936.47,796.32Z"/><rect class="cls-13" x="820.53" y="657.35" width="91.44" height="57.89" transform="translate(-202.92 966.08) rotate(-53.05)"/><rect class="cls-14" x="866.79" y="692.15" width="91.44" height="57.89" transform="translate(-212.27 1016.93) rotate(-53.05)"/><path class="cls-15" d="M908.16,775,861.9,740.24l-10.22,13.59L690.57,968l17.58,13.22a58.41,58.41,0,0,0,81.79-11.57L926.16,788.57Z"/><path class="cls-16" d="M815.63,705.44l-18-13.54L661.41,873A58.41,58.41,0,0,0,673,954.81L690.57,968,851.68,753.83l10.22-13.59Z"/><rect class="cls-17" x="861.46" y="664.38" width="31.2" height="16.58" transform="translate(580.45 -392.11) rotate(36.95)"/><rect class="cls-17" x="907.01" y="698.63" width="31.2" height="16.58" transform="translate(610.18 -412.6) rotate(36.95)"/></g></g></svg>