<svg xmlns="http://www.w3.org/2000/svg" viewBox="0 0 1800 1200"><defs><style>.cls-1,.cls-16,.cls-17{fill:#1f1719;}.cls-1,.cls-15{opacity:0.15;}.cls-2{fill:#c5bfb9;}.cls-3{fill:#b4aea8;}.cls-4{fill:#fff;}.cls-5{fill:#e8e8e8;}.cls-6{fill:#b4aba5;}.cls-7{fill:#a39b95;}.cls-8{fill:#a47db0;}.cls-9{fill:#b489c1;}.cls-10{fill:#333;}.cls-11{fill:#eece80;}.cls-12{fill:#e9bd5c;}.cls-13{fill:none;stroke:#3d3a31;stroke-linecap:round;stroke-miterlimit:10;stroke-width:6.29px;}.cls-14{fill:#3d3a31;}.cls-17,.cls-18{opacity:0.04;}.cls-18,.cls-20{fill:#4c4444;}.cls-19{opacity:0.14;}</style></defs><title>portfolio-icons</title><g id="_8-bitify-banner" data-name="8-bitify-banner"><g id="keyboard"><path class="cls-1" d="M53.65,476.3H1338.39a0,0,0,0,1,0,0v569.35a21.2,21.2,0,0,1-21.2,21.2H74.85a21.2,21.2,0,0,1-21.2-21.2V476.3a0,0,0,0,1,0,0Z"/><path class="cls-2" d="M53.65,454H1338.39a0,0,0,0,1,0,0v569.35a21.2,21.2,0,0,1-21.2,21.2H74.85a21.2,21.2,0,0,1-21.2-21.2V454a0,0,0,0,1,0,0Z"/><rect class="cls-3" x="74.44" y="541.37" width="74.27" height="45.91" rx="3.51"/><rect class="cls-3" x="74.44" y="602.2" width="69.77" height="69.77" rx="3.51"/><rect class="cls-3" x="74.44" y="686.89" width="119" height="69.77" rx="3.51"/><rect class="cls-3" x="74.44" y="771.57" width="137.38" height="69.77" rx="3.51"/><rect class="cls-3" x="164.52" y="602.2" width="69.77" height="69.77" rx="3.51"/><rect class="cls-3" x="207.51" y="686.89" width="69.77" height="69.77" rx="3.51"/><rect class="cls-3" x="292.11" y="686.89" width="69.77" height="69.77" rx="3.51"/><rect class="cls-3" x="377.69" y="686.89" width="69.77" height="69.77" rx="3.51"/><rect class="cls-3" x="464.77" y="686.89" width="69.77" height="69.77" rx="3.51"/><rect class="cls-3" x="550.87" y="686.89" width="69.77" height="69.77" rx="3.51"/><rect class="cls-3" x="636.82" y="686.89" width="69.77" height="69.77" rx="3.51"/><rect class="cls-3" x="728.06" y="686.89" width="69.77" height="69.77" rx="3.51"/><rect class="cls-3" x="229.54" y="771.57" width="69.77" height="69.77" rx="3.51"/><rect class="cls-3" x="314.13" y="771.57" width="69.77" height="69.77" rx="3.51"/><rect class="cls-3" x="399.71" y="771.57" width="69.77" height="69.77" rx="3.51"/><rect class="cls-3" x="486.8" y="771.57" width="69.77" height="69.77" rx="3.51"/><rect class="cls-3" x="572.89" y="771.57" width="69.77" height="69.77" rx="3.51"/><rect class="cls-3" x="658.85" y="771.57" width="69.77" height="69.77" rx="3.51"/><rect class="cls-3" x="750.09" y="771.57" width="69.77" height="69.77" rx="3.51"/><rect class="cls-3" x="832.4" y="771.57" width="69.77" height="69.77" rx="3.51"/><rect class="cls-3" x="919.48" y="771.57" width="69.77" height="69.77" rx="3.51"/><rect class="cls-3" x="1005.58" y="771.57" width="69.77" height="69.77" rx="3.51"/><rect class="cls-3" x="1091.53" y="771.57" width="69.77" height="69.77" rx="3.51"/><rect class="cls-3" x="1182.77" y="771.57" width="69.77" height="69.77" rx="3.51"/><rect class="cls-3" x="702.36" y="856.26" width="69.77" height="69.77" rx="3.51"/><rect class="cls-3" x="789.44" y="856.26" width="69.77" height="69.77" rx="3.51"/><rect class="cls-3" x="875.53" y="856.26" width="69.77" height="69.77" rx="3.51"/><rect class="cls-3" x="961.49" y="856.26" width="69.77" height="69.77" rx="3.51"/><rect class="cls-3" x="1052.73" y="856.26" width="69.77" height="69.77" rx="3.51"/><rect class="cls-3" x="987.95" y="940.95" width="69.77" height="80.08" rx="3.51"/><rect class="cls-3" x="1161.31" y="946.72" width="67.29" height="30.05" rx="3.51"/><rect class="cls-3" x="879.44" y="940.95" width="90.46" height="80.08" rx="3.51"/><rect class="cls-3" x="442.4" y="940.95" width="422.69" height="80.08" rx="3.51"/><rect class="cls-3" x="1142.68" y="856.26" width="176" height="69.77" rx="3.51"/><rect class="cls-3" x="269.22" y="856.26" width="69.77" height="69.77" rx="3.51"/><rect class="cls-3" x="185.2" y="856.26" width="69.77" height="69.77" rx="3.51"/><rect class="cls-3" x="74.44" y="856.26" width="94.39" height="69.77" rx="3.51"/><rect class="cls-3" x="74.44" y="940.95" width="68.69" height="80.08" rx="3.51"/><rect class="cls-3" x="159.09" y="940.95" width="68.69" height="80.08" rx="3.51"/><rect class="cls-3" x="250.32" y="940.95" width="68.69" height="80.08" rx="3.51"/><rect class="cls-3" x="339" y="940.95" width="87.08" height="80.08" rx="3.51"/><rect class="cls-3" x="356.31" y="856.26" width="69.77" height="69.77" rx="3.51"/><rect class="cls-3" x="442.4" y="856.26" width="69.77" height="69.77" rx="3.51"/><rect class="cls-3" x="528.36" y="856.26" width="69.77" height="69.77" rx="3.51"/><rect class="cls-3" x="619.6" y="856.26" width="69.77" height="69.77" rx="3.51"/><rect class="cls-3" x="809.67" y="686.89" width="69.77" height="69.77" rx="3.51"/><rect class="cls-3" x="900.12" y="686.89" width="69.77" height="69.77" rx="3.51"/><rect class="cls-3" x="987.95" y="686.89" width="69.77" height="69.77" rx="3.51"/><rect class="cls-3" x="1072.9" y="686.89" width="69.77" height="69.77" rx="3.51"/><rect class="cls-3" x="1158.82" y="686.89" width="69.77" height="69.77" rx="3.51"/><path class="cls-3" d="M1314.75,686.89h-64.17a3.93,3.93,0,0,0-3.93,3.92v61.92a3.93,3.93,0,0,0,3.93,3.93h18.09v75a3.93,3.93,0,0,0,3.93,3.93h42.15a3.93,3.93,0,0,0,3.93-3.93V690.81A3.93,3.93,0,0,0,1314.75,686.89Z"/><rect class="cls-3" x="254.97" y="602.2" width="69.77" height="69.77" rx="3.51"/><rect class="cls-3" x="342.8" y="602.2" width="69.77" height="69.77" rx="3.51"/><rect class="cls-3" x="511.65" y="602.2" width="69.77" height="69.77" rx="3.51"/><rect class="cls-3" x="599.4" y="602.2" width="69.77" height="69.77" rx="3.51"/><rect class="cls-3" x="684.35" y="602.2" width="69.77" height="69.77" rx="3.51"/><rect class="cls-3" x="769.3" y="602.2" width="69.77" height="69.77" rx="3.51"/><rect class="cls-3" x="859.49" y="602.2" width="69.77" height="69.77" rx="3.51"/><rect class="cls-3" x="944.44" y="602.2" width="69.77" height="69.77" rx="3.51"/><rect class="cls-3" x="1031.49" y="602.2" width="69.77" height="69.77" rx="3.51"/><rect class="cls-3" x="1117.48" y="602.2" width="69.77" height="69.77" rx="3.51"/><rect class="cls-3" x="1203.48" y="602.2" width="115.2" height="69.77" rx="3.51"/><rect class="cls-3" x="423.51" y="602.2" width="69.77" height="69.77" rx="3.51"/><rect class="cls-3" x="162.27" y="541.37" width="74.27" height="45.91" rx="3.51"/><rect class="cls-3" x="252.72" y="541.37" width="74.27" height="45.91" rx="3.51"/><rect class="cls-3" x="340.55" y="541.37" width="74.27" height="45.91" rx="3.51"/><rect class="cls-3" x="432.84" y="541.37" width="74.27" height="45.91" rx="3.51"/><rect class="cls-3" x="525.13" y="541.37" width="74.27" height="45.91" rx="3.51"/><rect class="cls-3" x="615.59" y="541.37" width="74.27" height="45.91" rx="3.51"/><rect class="cls-3" x="703.42" y="541.37" width="74.27" height="45.91" rx="3.51"/><rect class="cls-3" x="791.61" y="541.37" width="74.27" height="45.91" rx="3.51"/><rect class="cls-3" x="879.44" y="541.37" width="74.27" height="45.91" rx="3.51"/><rect class="cls-3" x="969.9" y="541.37" width="74.27" height="45.91" rx="3.51"/><rect class="cls-3" x="1057.73" y="541.37" width="74.27" height="45.91" rx="3.51"/><rect class="cls-3" x="1156.57" y="541.37" width="74.27" height="45.91" rx="3.51"/><rect class="cls-3" x="1244.4" y="541.37" width="74.27" height="45.91" rx="3.51"/><path class="cls-3" d="M1164.82,941h60.26a3.51,3.51,0,0,1,3.51,3.51v23.81a0,0,0,0,1,0,0h-67.29a0,0,0,0,1,0,0V944.46A3.51,3.51,0,0,1,1164.82,941Z"/><rect class="cls-3" x="1161.31" y="976.77" width="67.29" height="44.26" rx="3.51"/><rect class="cls-3" x="1249.02" y="985.03" width="67.29" height="36" rx="3.51"/><rect class="cls-3" x="1075.87" y="985.03" width="67.29" height="36" rx="3.51"/><rect class="cls-4" x="74.44" y="533.48" width="74.27" height="45.91" rx="3.51"/><rect class="cls-4" x="74.44" y="594.31" width="69.77" height="69.77" rx="3.51"/><rect class="cls-4" x="74.44" y="679" width="119" height="69.77" rx="3.51"/><rect class="cls-4" x="74.44" y="763.69" width="137.38" height="69.77" rx="3.51"/><rect class="cls-4" x="164.52" y="594.31" width="69.77" height="69.77" rx="3.51"/><rect class="cls-4" x="207.51" y="679" width="69.77" height="69.77" rx="3.51"/><rect class="cls-4" x="292.11" y="679" width="69.77" height="69.77" rx="3.51"/><rect class="cls-4" x="377.69" y="679" width="69.77" height="69.77" rx="3.51"/><rect class="cls-4" x="464.77" y="679" width="69.77" height="69.77" rx="3.51"/><rect class="cls-4" x="550.87" y="679" width="69.77" height="69.77" rx="3.51"/><rect class="cls-4" x="636.82" y="679" width="69.77" height="69.77" rx="3.51"/><rect class="cls-4" x="728.06" y="679" width="69.77" height="69.77" rx="3.51"/><rect class="cls-4" x="229.54" y="763.69" width="69.77" height="69.77" rx="3.51"/><rect class="cls-4" x="314.13" y="763.69" width="69.77" height="69.77" rx="3.51"/><rect class="cls-4" x="399.71" y="763.69" width="69.77" height="69.77" rx="3.51"/><rect class="cls-4" x="486.8" y="763.69" width="69.77" height="69.77" rx="3.51"/><rect class="cls-4" x="572.89" y="763.69" width="69.77" height="69.77" rx="3.51"/><rect class="cls-4" x="658.85" y="763.69" width="69.77" height="69.77" rx="3.51"/><rect class="cls-4" x="750.09" y="763.69" width="69.77" height="69.77" rx="3.51"/><rect class="cls-4" x="832.4" y="763.69" width="69.77" height="69.77" rx="3.51"/><rect class="cls-4" x="919.48" y="763.69" width="69.77" height="69.77" rx="3.51"/><rect class="cls-4" x="1005.58" y="763.69" width="69.77" height="69.77" rx="3.51"/><rect class="cls-4" x="1091.53" y="763.69" width="69.77" height="69.77" rx="3.51"/><rect class="cls-4" x="1182.77" y="763.69" width="69.77" height="69.77" rx="3.51"/><rect class="cls-4" x="702.36" y="848.37" width="69.77" height="69.77" rx="3.51"/><rect class="cls-4" x="789.44" y="848.37" width="69.77" height="69.77" rx="3.51"/><rect class="cls-4" x="875.53" y="848.37" width="69.77" height="69.77" rx="3.51"/><rect class="cls-4" x="961.49" y="848.37" width="69.77" height="69.77" rx="3.51"/><rect class="cls-4" x="1052.73" y="848.37" width="69.77" height="69.77" rx="3.51"/><rect class="cls-4" x="987.95" y="933.06" width="69.77" height="80.08" rx="3.51"/><rect class="cls-5" x="1161.31" y="938.83" width="67.29" height="30.05" rx="3.51"/><rect class="cls-4" x="879.44" y="933.06" width="90.46" height="80.08" rx="3.51"/><rect class="cls-4" x="442.4" y="933.06" width="422.69" height="80.08" rx="3.51"/><rect class="cls-4" x="1142.68" y="848.37" width="176" height="69.77" rx="3.51"/><rect class="cls-4" x="269.22" y="848.37" width="69.77" height="69.77" rx="3.51"/><rect class="cls-4" x="185.2" y="848.37" width="69.77" height="69.77" rx="3.51"/><rect class="cls-4" x="74.44" y="848.37" width="94.39" height="69.77" rx="3.51"/><rect class="cls-4" x="74.44" y="933.06" width="68.69" height="80.08" rx="3.51"/><rect class="cls-4" x="159.09" y="933.06" width="68.69" height="80.08" rx="3.51"/><rect class="cls-4" x="250.32" y="933.06" width="68.69" height="80.08" rx="3.51"/><rect class="cls-4" x="339" y="933.06" width="87.08" height="80.08" rx="3.51"/><rect class="cls-4" x="356.31" y="848.37" width="69.77" height="69.77" rx="3.51"/><rect class="cls-4" x="442.4" y="848.37" width="69.77" height="69.77" rx="3.51"/><rect class="cls-4" x="528.36" y="848.37" width="69.77" height="69.77" rx="3.51"/><rect class="cls-4" x="619.6" y="848.37" width="69.77" height="69.77" rx="3.51"/><rect class="cls-4" x="809.67" y="679" width="69.77" height="69.77" rx="3.51"/><rect class="cls-4" x="900.12" y="679" width="69.77" height="69.77" rx="3.51"/><rect class="cls-4" x="987.95" y="679" width="69.77" height="69.77" rx="3.51"/><rect class="cls-4" x="1072.9" y="679" width="69.77" height="69.77" rx="3.51"/><rect class="cls-4" x="1158.82" y="679" width="69.77" height="69.77" rx="3.51"/><path class="cls-4" d="M1314.75,679h-64.17a3.93,3.93,0,0,0-3.93,3.93v61.91a3.93,3.93,0,0,0,3.93,3.93h18.09v75a3.93,3.93,0,0,0,3.93,3.93h42.15a3.93,3.93,0,0,0,3.93-3.93V682.93A3.93,3.93,0,0,0,1314.75,679Z"/><rect class="cls-4" x="254.97" y="594.31" width="69.77" height="69.77" rx="3.51"/><rect class="cls-4" x="342.8" y="594.31" width="69.77" height="69.77" rx="3.51"/><rect class="cls-4" x="511.65" y="594.31" width="69.77" height="69.77" rx="3.51"/><rect class="cls-4" x="599.4" y="594.31" width="69.77" height="69.77" rx="3.51"/><rect class="cls-4" x="684.35" y="594.31" width="69.77" height="69.77" rx="3.51"/><rect class="cls-4" x="769.3" y="594.31" width="69.77" height="69.77" rx="3.51"/><rect class="cls-4" x="859.49" y="594.31" width="69.77" height="69.77" rx="3.51"/><rect class="cls-4" x="944.44" y="594.31" width="69.77" height="69.77" rx="3.51"/><rect class="cls-4" x="1031.49" y="594.31" width="69.77" height="69.77" rx="3.51"/><rect class="cls-4" x="1117.48" y="594.31" width="69.77" height="69.77" rx="3.51"/><rect class="cls-4" x="1203.48" y="594.31" width="115.2" height="69.77" rx="3.51"/><rect class="cls-4" x="423.51" y="594.31" width="69.77" height="69.77" rx="3.51"/><rect class="cls-4" x="162.27" y="533.48" width="74.27" height="45.91" rx="3.51"/><rect class="cls-4" x="252.72" y="533.48" width="74.27" height="45.91" rx="3.51"/><rect class="cls-4" x="340.55" y="533.48" width="74.27" height="45.91" rx="3.51"/><rect class="cls-4" x="432.84" y="533.48" width="74.27" height="45.91" rx="3.51"/><rect class="cls-4" x="525.13" y="533.48" width="74.27" height="45.91" rx="3.51"/><rect class="cls-4" x="615.59" y="533.48" width="74.27" height="45.91" rx="3.51"/><rect class="cls-4" x="703.42" y="533.48" width="74.27" height="45.91" rx="3.51"/><rect class="cls-4" x="791.61" y="533.48" width="74.27" height="45.91" rx="3.51"/><rect class="cls-4" x="879.44" y="533.48" width="74.27" height="45.91" rx="3.51"/><rect class="cls-4" x="969.9" y="533.48" width="74.27" height="45.91" rx="3.51"/><rect class="cls-4" x="1057.73" y="533.48" width="74.27" height="45.91" rx="3.51"/><rect class="cls-4" x="1156.57" y="533.48" width="74.27" height="45.91" rx="3.51"/><rect class="cls-4" x="1244.4" y="533.48" width="74.27" height="45.91" rx="3.51"/><path class="cls-4" d="M1164.82,933.06h60.26a3.51,3.51,0,0,1,3.51,3.51v23.81a0,0,0,0,1,0,0h-67.29a0,0,0,0,1,0,0V936.58a3.51,3.51,0,0,1,3.51-3.51Z"/><rect class="cls-4" x="1161.31" y="968.88" width="67.29" height="44.26" rx="3.51"/><rect class="cls-4" x="1249.02" y="977.14" width="67.29" height="36" rx="3.51"/><rect class="cls-4" x="1075.87" y="977.14" width="67.29" height="36" rx="3.51"/></g><g id="usb"><rect class="cls-1" x="282.89" y="190.83" width="71.73" height="45.41"/><path class="cls-1" d="M282.89,236.23v-45.4H59.3v17.25a45.81,45.81,0,0,0,45.81,45.82H282.89Z"/><rect class="cls-6" x="282.89" y="135.3" width="71.73" height="45.41"/><rect class="cls-7" x="282.89" y="180.71" width="71.73" height="45.41"/><path class="cls-8" d="M282.89,226.12V180.71H59.3V198a45.81,45.81,0,0,0,45.81,45.82H282.89Z"/><path class="cls-9" d="M282.89,135.3V117.64H105.11A45.81,45.81,0,0,0,59.3,163.45v17.26H282.89Z"/><rect class="cls-10" x="320.16" y="151.86" width="24.48" height="13" transform="translate(490.76 -174.04) rotate(90)"/><rect class="cls-10" x="320.16" y="196.56" width="24.48" height="13" transform="translate(535.46 -129.34) rotate(90)"/></g><g id="post-it"><polygon class="cls-1" points="1689.71 459.88 1350.73 409.18 1319.7 363.72 1362.89 74.95 1738.87 131.19 1689.71 459.88"/><polygon class="cls-11" points="1689.55 446.71 1350.57 396.02 1319.53 350.55 1362.72 61.79 1738.7 118.02 1689.55 446.71"/><polygon class="cls-12" points="1357.26 356.19 1319.53 350.55 1350.57 396.02 1357.26 356.19"/><path class="cls-13" d="M1400.22,98.53c-15.26,17.48-27.35,33.09-24.59,36.18,4.44,5,44.21-26.18,48.24-21.57,5.36,6.13-61.15,65.55-53.45,76.14,2.51,3.46,13.94,3.08,59.07-19.95"/><line class="cls-13" x1="1597.76" y1="386.49" x2="1595.05" y2="367.75"/><line class="cls-13" x1="1636.77" y1="380.87" x2="1634.06" y2="362.13"/><path class="cls-13" d="M1579.18,400.9c4.47,3.77,14.92,11.47,29.87,12.77,29.62,2.56,48.92-22.46,50.32-24.33"/><path class="cls-14" d="M1451.84,321.32l-.12.88,0,1.06s0,.16-.15.45-.16.46-.17.51a1.47,1.47,0,0,1-.46.71c0,.1-.13.35-.31.76a22.4,22.4,0,0,1-3.71,3.11,25.54,25.54,0,0,1-2.39.94,1.41,1.41,0,0,0-.37.27l-7.53,2.09a.74.74,0,0,0-.24,0,4.67,4.67,0,0,0-.72.09c-.61.14-1,.21-1,.22l-3.56.3a.44.44,0,0,1-.16-.08.33.33,0,0,0-.14-.07l-1.32,0-3.92-.73c-.49-.17-1.18-.45-2.07-.82-.43-.23-.91-.52-1.45-.88l-1.53-1.11a7,7,0,0,1-1.48-3.55,8.63,8.63,0,0,1,.48-3c.18-.33.46-.8.85-1.42a7.55,7.55,0,0,1,3-3.14,26.6,26.6,0,0,1,3.48-1.62l-.1-.26a5.22,5.22,0,0,1-2.18-2.38c-.08-.25-.17-.61-.28-1.1a6.36,6.36,0,0,1-.17-.88,6.29,6.29,0,0,1,.82-2.71,5.26,5.26,0,0,1,1.85-2.39l1.75-.61a1.22,1.22,0,0,1,.69.2h.65l.56,0,.28.1.75-.64,3.3-1.16,3.36-.52,1.58.2.57-.25a3,3,0,0,0,1.29.23,1.27,1.27,0,0,1,1.15.49c.08,0,.12,0,.12-.14a2.61,2.61,0,0,1,.58.29c1.25.11,2.65,1.17,4.2,3.21a4.16,4.16,0,0,1,.31,1.21l-.08.73a7,7,0,0,0-.08,1c-.07.13-.2.33-.39.61a11.93,11.93,0,0,1-.66,1.63,2.07,2.07,0,0,0-1,.61l-.79.75a2.78,2.78,0,0,0,.6.47,1.33,1.33,0,0,0,.58.17c.8.43,1.46.81,2,1.15.07.12.16.3.27.53l.66.36C1450.78,319,1451.72,320.31,1451.84,321.32Zm-3.59,1.35c0-.51-.5-1.19-1.48-2a7,7,0,0,0-2.71-1.53,10,10,0,0,0-1.6-.4,13,13,0,0,0-2.25-.32h0l-6,.32-5.36,1-.47.11a25,25,0,0,1-2.92,1.21,3.61,3.61,0,0,0-.55.4,4.05,4.05,0,0,0-1.57,1.19,2.84,2.84,0,0,0-.77,1.58,2.33,2.33,0,0,0,.53.73,7.94,7.94,0,0,1,.71.61c.58.26,1.42.67,2.54,1.22a10.55,10.55,0,0,1,1.35.42l3.11.49h2.79a29.39,29.39,0,0,0,3.35-.46l2.64-.52a16.83,16.83,0,0,1,2-.54,1.72,1.72,0,0,0,.73-.33l1.32-.2,3.8-1.76C1448,323.52,1448.27,323.12,1448.25,322.67Zm-3.91-12.79a4.07,4.07,0,0,0-1.17-.9,6.69,6.69,0,0,0-3.53-.88l-1.84-.11-2,.42-.15-.17-3.65,1.08a8.19,8.19,0,0,0-3.38,2,5,5,0,0,0,2.72,1.39,12.19,12.19,0,0,0,3,.35l.85-.07.84-.07a29.51,29.51,0,0,0,4.58-1.1,5.6,5.6,0,0,1,1.41-.48l2.24-1,0-.15A.88.88,0,0,0,1444.34,309.88Z"/><path class="cls-14" d="M1474.44,323.68a5.43,5.43,0,0,0-.53.73,3.41,3.41,0,0,1-1.69.53l-5.55.55-4.13.1a8.88,8.88,0,0,0-3.32.47,1,1,0,0,1-.23-.08.82.82,0,0,0-.22-.08h-.13a.14.14,0,0,0-.06.11.24.24,0,0,0,.11.12.74.74,0,0,1-.44.12,4,4,0,0,1-.27-.34l-1.65,0-1.16-.85a1.74,1.74,0,0,0-.46-.78,4.58,4.58,0,0,1-.39-1.51,3.77,3.77,0,0,1,.2-1.26,9.21,9.21,0,0,0,.79-.75l2.7-.08,5.76.17,2.9-.25a7.9,7.9,0,0,0,.82-.28,2.16,2.16,0,0,1,.33.14l3.26-.45a11.55,11.55,0,0,0,1.88.89,8.23,8.23,0,0,1,1,1.68c.12.2.29.45.5.78Zm-14,2.28c0,.08-.1.12-.16.12l0,0Z"/><path class="cls-14" d="M1498.44,321a14,14,0,0,1-1,2.44,1.47,1.47,0,0,0-.62.87,19.3,19.3,0,0,1-4.45,3.13q-.46.24-4.48,2.1a12.45,12.45,0,0,0-1.72.48l-1.2.38-.32,0-.35,0a1.29,1.29,0,0,0-.93-.46h-.2a2.3,2.3,0,0,0-.4-.56l-.5,1a1.25,1.25,0,0,1-.54.12h-.16l-.32.34H1481a4.92,4.92,0,0,1-.89-.4l-.48.11c-.55-.44-.82-.81-.83-1.11a2.7,2.7,0,0,1-.51-1.37,2.47,2.47,0,0,1-.37-.91c0-.16-.07-.47-.16-.91a2.4,2.4,0,0,0-.18-.71v.08l0-1.66a7.72,7.72,0,0,1-.17-1.08.51.51,0,0,1,0-.13,1.44,1.44,0,0,1-.06-.43,2.17,2.17,0,0,1,.06-.57,2.14,2.14,0,0,0-1-.63,2.31,2.31,0,0,1-.6-1.52,2.6,2.6,0,0,1,.43-1.34,2.83,2.83,0,0,1,.93-1.08l-.07-7.92c0-.53.06-1.63.13-3.31a5.24,5.24,0,0,1,.7-2.48c.07-.06.19-.19.37-.37a2.61,2.61,0,0,1,.77-.29,1.71,1.71,0,0,1,.33.07l.29.07a9.76,9.76,0,0,0,.8,1.19c.16.39.33.89.52,1.52a.91.91,0,0,0,0,.17,4.7,4.7,0,0,0,.06.67c0,.3.08.68.14,1.16l.49,7.54a.29.29,0,0,0,.17.15,5.82,5.82,0,0,1,1.11-.15l3.24-.36h3.14l1.28.06c.87.15,1.61.29,2.22.43l.65.32a5.8,5.8,0,0,1,2.7,1.57,6.07,6.07,0,0,1,1.65,2.27,8.49,8.49,0,0,0,.65,1.64S1498.44,321.05,1498.44,321Zm-5.18.12v-.25a4.27,4.27,0,0,0-1.08-.86,12.35,12.35,0,0,0-3.9-.68,2,2,0,0,0-.43-.1h0l-3.14.22a13.09,13.09,0,0,0-2.91.87v.51a1.54,1.54,0,0,0,.08.23,1,1,0,0,1,.08.23l0,1.69.71,4.14a.22.22,0,0,1,.17-.06.79.79,0,0,1,.16-.32,29.74,29.74,0,0,1,4-1.88,16.46,16.46,0,0,0,3.37-1.63A11,11,0,0,0,1493.26,321.14Z"/><path class="cls-14" d="M1505.26,325v0a.89.89,0,0,0,0,.23c0,.24,0,.51-.06.8s0,.84,0,1.39l0,1.6-.45,1.16-.34-.07-.32.24a2.14,2.14,0,0,1-.32-.15,1.36,1.36,0,0,0-.32.16,6.74,6.74,0,0,0-1.31-.35,10.31,10.31,0,0,1-1.05-3.13,5,5,0,0,1-.1-1v-.43l0-2.78.35-1.85a1.77,1.77,0,0,0,.53-.82l.84-.21a1.08,1.08,0,0,1,.51.21c.32.35.8.86,1.44,1.51a3.37,3.37,0,0,1,.54,1.59Zm.63-11.71a2.19,2.19,0,0,1-.24.33,2.08,2.08,0,0,1,.17.73,2.3,2.3,0,0,1-.82.59c0-.05-.15-.07-.32-.07s-.28,0-.32.08a4.79,4.79,0,0,0-1.53-.44,6.76,6.76,0,0,1-.61-1.61v0l.11-1.74a2.3,2.3,0,0,0,.5-.43l1,0a3.8,3.8,0,0,1,1.08,1.09,1,1,0,0,1,.6.62A5.33,5.33,0,0,0,1505.89,313.32Z"/><path class="cls-14" d="M1534.11,318.19h-.52a.83.83,0,0,0-.12.37.3.3,0,0,0,0,.1.94.94,0,0,1-.48.21c-.52.57-.84.86-1,.86l-1.33,0-1.39.38a1.68,1.68,0,0,0-.47-.06l-2,.42-.21,0-.27,0c-.16,0-.57.07-1.23.19-.41.06-1,.17-1.86.32a4.81,4.81,0,0,0-1.51.67c-.42,2.87-.62,4.44-.62,4.68l0,1.21c0,.06-.07.43-.22,1.09a8.86,8.86,0,0,0-.22,1.25c-.39.17-1,.46-1.74.86l-.59-.37a1.89,1.89,0,0,0-.64-.34,5,5,0,0,1-.83-2.2c0-.22-.12-.9-.25-2.06l.25-2.5,0-.95-.11-.13h-.34l-3.63.83h-.06a.54.54,0,0,1-.31-.1l-2.89.64a8.79,8.79,0,0,0-.92-.49,1.47,1.47,0,0,1-.62-.72c-.11-.19-.25-.44-.41-.75a9.8,9.8,0,0,0-.22-1.32h0a2,2,0,0,1,.35-1c.22-.35.44-.52.65-.53h0l5.65-.52,3.68-1c.21-1.86.53-4.65,1-8.36.44-1.51.85-2.77,1.22-3.78a5.53,5.53,0,0,1,1.22-1.13,16.93,16.93,0,0,1,1.83,1.06c.22,1.16.34,1.74.35,1.74l-1.13,8.4,0,1.21,2.19-.05h0s.12,0,.22-.13h.45l.27,0,.29,0,.51-.13.52-.12a1.21,1.21,0,0,1,.48.15,10.4,10.4,0,0,1,2.33-.21s.74.11,2.24.3a13,13,0,0,0,1.52.65V317a.52.52,0,0,1-.1.33,1.41,1.41,0,0,0,.45.76h.08A.37.37,0,0,1,1534.11,318.19Z"/><path class="cls-14" d="M1539,324.23v-.05s0,.08,0,.24,0,.5-.05.79,0,.85,0,1.39l0,1.6-.46,1.16-.34-.07-.32.24a2.1,2.1,0,0,1-.31-.15,1.42,1.42,0,0,0-.33.16,6.74,6.74,0,0,0-1.31-.35,10.49,10.49,0,0,1-1-3.13,5,5,0,0,1-.1-1c0-.13,0-.28,0-.43l0-2.78.35-1.85a1.88,1.88,0,0,0,.54-.82l.83-.21a1.15,1.15,0,0,1,.52.21c.31.35.79.86,1.43,1.52a3.48,3.48,0,0,1,.55,1.58Zm.62-11.71a1.5,1.5,0,0,1-.24.33.8.8,0,0,1-.65,1.32.45.45,0,0,0-.31-.07c-.18,0-.29,0-.33.09a4.56,4.56,0,0,0-1.53-.45,6.76,6.76,0,0,1-.61-1.61v0l.11-1.74a2.3,2.3,0,0,0,.5-.43l1,0a3.81,3.81,0,0,1,1.08,1.09,1,1,0,0,1,.6.63A5.49,5.49,0,0,0,1539.58,312.52Z"/><path class="cls-14" d="M1566,307.51c-.06.09-.17.24-.34.45a.8.8,0,0,0-.2.44,1.23,1.23,0,0,0,0,.13c-.07.11-.32.22-.75.32a4,4,0,0,0-.8.23h-.25c-.48-.46-.8-.69-.93-.69h0a2,2,0,0,0-.89-1.08,2.41,2.41,0,0,0-1.37-.6,9.76,9.76,0,0,0-2.84-1.22,10.76,10.76,0,0,0-3.09-.56h0s-.58.15-1.74.39a4.63,4.63,0,0,0-1.13.93c-.06.07-.25.45-.59,1.13a32.59,32.59,0,0,0-.73,7.91c0,.15,0,.38.05.67l.28,2.81a.65.65,0,0,0,.43.18h0l5.81-.36a4.24,4.24,0,0,1,.67.14c.06.08.17.2.32.37h0q.38,0,.93.6a1.36,1.36,0,0,1-.22.26v.23a.26.26,0,0,1,.2.47.49.49,0,0,0,0,.19,1.78,1.78,0,0,0-.62.63,5.41,5.41,0,0,0-1.56.91c-.73.21-1.8.5-3.2.87a1.51,1.51,0,0,0-.43.32,16.75,16.75,0,0,1,1.13,1.8,11.56,11.56,0,0,0,.47,1.85s0,0,0,0v.25l-1.06.64v.28l-.87,0a.46.46,0,0,0-.16.41,3.83,3.83,0,0,0-.83-.14l-.32.09a19.52,19.52,0,0,0-2.42-2.05c-.37-.49-.9-1.21-1.57-2.17h-.45a4.24,4.24,0,0,0-.62.19l-.63.17-1.41,0a2,2,0,0,1-1.43-.34c-1,0-1.44-.56-1.47-1.62a5.52,5.52,0,0,1,1.36-2.73c.17-.06.38-.13.65-.2a1.27,1.27,0,0,1,.43-.09.57.57,0,0,1,.31.07,2.15,2.15,0,0,1,.88-.21h.36l.12-.11,0-1s-.06-.25-.18-.67-.17-.65-.17-.67l0-2.06a30.34,30.34,0,0,1,.28-4.43,19.17,19.17,0,0,1,1.11-4.8q1.8-4.29,4.43-4.77c.26-.1,1.23-.36,2.93-.77h.17a6,6,0,0,1,1.84.38l.2-.07.2,0h0a4.28,4.28,0,0,0,.79.21.51.51,0,0,1,.29-.14,20.92,20.92,0,0,1,4.79,1.73,19.72,19.72,0,0,1,3.53,3.11.47.47,0,0,0,0,.17,5.2,5.2,0,0,0,.09.57,4.15,4.15,0,0,1,.19.76Z"/><path class="cls-14" d="M1575.69,321.12c0,1.28-.5,3.88-1.59,7.83-.17.58-1,3-2.39,7.25a.23.23,0,0,0,.2.09h-.21l-1.36,3.48-1.51,5.13a12.3,12.3,0,0,0-.85.89,2.7,2.7,0,0,0-.52.14l-.4.15-.39-.1-1.53-1.58a14.88,14.88,0,0,1-.49-2.34l.4-2.28,1.4-4.4,2.75-7-.13-.32a9.41,9.41,0,0,1-2.38.57q-2.54.06-4.17-3.2a12.67,12.67,0,0,1-1.38-5.49,4.82,4.82,0,0,1,.3-1.68c.18-.22.47-.53.86-.92h.22c.5,0,1,.37,1.51,1.14a3.83,3.83,0,0,1,.51,1.3c.58,2.43,1,3.65,1.42,3.64.84,0,2-.68,3.48-2a20.57,20.57,0,0,0,3-3.11,1.23,1.23,0,0,0,.61-.33,2.91,2.91,0,0,0,.84.08l.81.94a2,2,0,0,1,.33.1A3.1,3.1,0,0,1,1575.69,321.12Z"/><path class="cls-13" d="M1617.94,128.1c-7,.6-11.36,7.24-12.23,8.56-8.36,12.66-4.13,35.74,8.56,39.75,9.73,3.07,23.72-5.28,26.91-17.13C1645.34,143.81,1629.81,127.06,1617.94,128.1Z"/><path class="cls-13" d="M1558,137.88c-7.26,1.12-11.94,9.42-13.46,15.29-3.48,13.41,5.09,31.09,16.51,31.8,8.94.56,18.21-9.36,19.57-19.57C1582.54,151.08,1568.88,136.2,1558,137.88Z"/><path class="cls-13" d="M1605.71,190.47c-4.93-3.3-11.3-1.63-12.85-1.22-10.26,2.69-18.3,14-17.12,25.68,1.49,14.78,17.23,24.76,25.69,22C1613.91,232.91,1618,198.7,1605.71,190.47Z"/></g><g id="mouse"><g class="cls-15"><path class="cls-16" d="M1735.31,996.78l-8.59-59.39-31.35-216.61a133.31,133.31,0,0,0-151-112.84L1499,614.51a133.3,133.3,0,0,0-112.83,151l31.35,216.61,8.59,59.39a133.3,133.3,0,0,0,151,112.83l45.37-6.56A133.3,133.3,0,0,0,1735.31,996.78Z"/><path class="cls-17" d="M1613.88,1088.4l-45.36,6.57a133.3,133.3,0,0,1-151-112.83l8.6,59.39a133.28,133.28,0,0,0,151,112.83l45.37-6.56a133.3,133.3,0,0,0,112.83-151l-8.59-59.39A133.3,133.3,0,0,1,1613.88,1088.4Z"/></g><path class="cls-4" d="M1622.73,1073.43l-45.37,6.57a133.31,133.31,0,0,1-151-112.83l8.6,59.39a133.29,133.29,0,0,0,151,112.83l45.37-6.57a133.28,133.28,0,0,0,112.83-151l-8.59-59.39A133.29,133.29,0,0,1,1622.73,1073.43Z"/><rect class="cls-4" x="1409.06" y="593.75" width="312.44" height="485.47" rx="133.3" transform="translate(-103.67 232.82) rotate(-8.23)"/><path class="cls-18" d="M1622.73,1073.43l-45.37,6.57a133.31,133.31,0,0,1-151-112.83l8.6,59.39a133.29,133.29,0,0,0,151,112.83l45.37-6.57a133.28,133.28,0,0,0,112.83-151l-8.59-59.39A133.29,133.29,0,0,1,1622.73,1073.43Z"/><g class="cls-19"><path class="cls-20" d="M1583.37,968.73a15.34,15.34,0,0,1,.6-7.19c2.52-7.43,10.13-10,11.19-10.36a14.76,14.76,0,0,1-11.79,17.55Z"/><path class="cls-20" d="M1609.85,991.44a15.48,15.48,0,0,1-2.39-6.13,15.87,15.87,0,0,1-.16-2.71,16.49,16.49,0,0,1,3.37-9.16,15.1,15.1,0,0,1,1.87-2.11,20.21,20.21,0,0,0-5.24-3.2,15.88,15.88,0,0,0-7.45-1.52c-2.28.18-2.41.83-9.34,3.4a24.74,24.74,0,0,1-4.69,1.5c-2.93.35-4.3-.53-7.91-.9a25.94,25.94,0,0,0-6.4.11c-5.13.83-9.38,5.57-11.65,10.08-.31.61-.58,1.23-.82,1.82a19,19,0,0,0-1.31,7.16,27.66,27.66,0,0,0,1.76,9c.85,2.41,1.9,4.72,2.88,6.88,0,0,.18.39.52,1a42.84,42.84,0,0,0,5.18,7.67,28.34,28.34,0,0,0,5.73,5.19c2.92,2,5,2.25,6.33,2.23a12.2,12.2,0,0,0,5.25-1.45c2.33-1.17,2.15-1.91,4.12-2.64a12.38,12.38,0,0,1,5.38-.51,34.63,34.63,0,0,1,3.92.67,30.65,30.65,0,0,0,5.82.65c4.27-.26,7.28-5.31,9.59-9.17.32-.52.66-1.12,1-1.79a36.05,36.05,0,0,0,3.19-8.89c0-.24.11-.49.16-.73A16.15,16.15,0,0,1,1609.85,991.44Z"/></g></g></g></svg>