<svg xmlns="http://www.w3.org/2000/svg" viewBox="0 0 1200 1200"><defs><style>.cls-1{fill:#70a7c2;}.cls-2,.cls-3,.cls-7{fill:#302d2e;}.cls-2{opacity:0.15;}.cls-4{fill:#6d6767;stroke:#302d2e;stroke-width:1.04px;}.cls-10,.cls-11,.cls-12,.cls-13,.cls-27,.cls-30,.cls-4,.cls-7,.cls-8,.cls-9{stroke-miterlimit:10;}.cls-11,.cls-12,.cls-13,.cls-4,.cls-7{opacity:0.24;}.cls-5{fill:#fff;}.cls-6{opacity:0.02;}.cls-7{stroke:#6d6767;stroke-width:9.62px;}.cls-10,.cls-11,.cls-12,.cls-13,.cls-27,.cls-7,.cls-8,.cls-9{stroke-linecap:round;}.cls-10,.cls-11,.cls-12,.cls-13,.cls-27,.cls-30,.cls-8,.cls-9{fill:none;}.cls-8,.cls-9{stroke:#9068ad;}.cls-10,.cls-11,.cls-8{stroke-width:18.04px;}.cls-9{stroke-width:25.25px;opacity:0.66;}.cls-10,.cls-11,.cls-12,.cls-13{stroke:#000;}.cls-10{opacity:0.54;}.cls-12{stroke-width:7.22px;}.cls-13{stroke-width:4.81px;}.cls-14{fill:#9068ad;opacity:0.4;}.cls-15{fill:#393536;}.cls-16{fill:#272425;}.cls-17{fill:#fcf5f9;}.cls-18{fill:#e1dce1;}.cls-19{fill:#d18fad;}.cls-20{fill:#de98b8;}.cls-21{fill:#e5b55d;}.cls-22{fill:#d3a856;}.cls-23{fill:#c4c6c8;}.cls-24{fill:#e0e1e2;}.cls-25{fill:#eecf98;}.cls-26{fill:#eac27b;}.cls-27{stroke:#5f5a52;stroke-width:6.52px;}.cls-28{fill:#5f5a52;}.cls-29{fill:#e4abc5;}.cls-30{stroke:#c17272;stroke-width:2.91px;}</style></defs><title>portfolio-icons</title><g id="background"><rect id="background-2" data-name="background" class="cls-1" width="1200" height="1200"/></g><g id="_8-bitify-icon" data-name="8-bitify-icon"><g id="iphone"><rect class="cls-2" x="51" y="70.11" width="503.89" height="1078.89" rx="39.39"/><rect class="cls-3" x="51" y="51.23" width="503.89" height="1078.89" rx="39.39"/><ellipse class="cls-4" cx="302.95" cy="1078.12" rx="38.6" ry="40.27"/><rect class="cls-4" x="73.26" y="149.13" width="460.85" height="869.12"/><rect class="cls-5" x="87.29" y="165.04" width="432.8" height="837.31"/><rect class="cls-6" x="87.29" y="218.79" width="432.8" height="215.4"/><line class="cls-7" x1="264.34" y1="108.21" x2="331.79" y2="108.21"/><line class="cls-8" x1="110.64" y1="193.63" x2="175.72" y2="193.63"/><line class="cls-9" x1="275.92" y1="389.47" x2="341" y2="389.47"/><line class="cls-10" x1="453.7" y1="193.63" x2="498.93" y2="193.63"/><line class="cls-11" x1="367.47" y1="193.63" x2="412.7" y2="193.63"/><line class="cls-11" x1="277.81" y1="193.63" x2="323.04" y2="193.63"/><line class="cls-12" x1="187.12" y1="345.39" x2="429.8" y2="345.39"/><line class="cls-12" x1="187.12" y1="315.86" x2="429.8" y2="315.86"/><line class="cls-13" x1="110.64" y1="624.31" x2="353.32" y2="624.31"/><line class="cls-13" x1="110.64" y1="594.79" x2="353.32" y2="594.79"/><line class="cls-13" x1="110.64" y1="639.08" x2="268.52" y2="639.08"/><line class="cls-13" x1="110.64" y1="609.55" x2="353.32" y2="609.55"/><line class="cls-13" x1="251.3" y1="516.06" x2="493.98" y2="516.06"/><line class="cls-13" x1="251.3" y1="486.54" x2="493.98" y2="486.54"/><line class="cls-13" x1="251.3" y1="530.83" x2="409.17" y2="530.83"/><line class="cls-13" x1="251.3" y1="501.3" x2="493.98" y2="501.3"/><rect class="cls-14" x="110.64" y="472.99" width="87.46" height="69.18"/><line class="cls-13" x1="251.3" y1="737.31" x2="493.98" y2="737.31"/><line class="cls-13" x1="251.3" y1="707.79" x2="493.98" y2="707.79"/><line class="cls-13" x1="251.3" y1="752.07" x2="409.17" y2="752.07"/><line class="cls-13" x1="251.3" y1="722.55" x2="493.98" y2="722.55"/><rect class="cls-14" x="110.64" y="694.23" width="87.46" height="69.18"/><rect class="cls-14" x="409.17" y="583.61" width="87.46" height="69.18"/><ellipse class="cls-14" cx="154.37" cy="855.14" rx="28.71" ry="29.95"/><ellipse class="cls-14" cx="154.37" cy="954.05" rx="28.71" ry="29.95"/><line class="cls-13" x1="228.92" y1="847.76" x2="471.61" y2="847.76"/><line class="cls-13" x1="228.92" y1="862.52" x2="426.86" y2="862.52"/><line class="cls-13" x1="228.92" y1="946.66" x2="471.61" y2="946.66"/><line class="cls-13" x1="228.92" y1="961.43" x2="426.86" y2="961.43"/></g><g id="pencil"><path class="cls-2" d="M1104.17,1145.71h22.57a18.55,18.55,0,0,0,18.55-18.55v-73.44h-41.12Z"/><path class="cls-2" d="M1063.05,1053.72v73.44a18.54,18.54,0,0,0,18.55,18.55h22.57v-92Z"/><polygon class="cls-15" points="1117.42 82.68 1104.17 51.23 1104.17 82.68 1117.42 82.68"/><polygon class="cls-16" points="1104.17 51.23 1090.92 82.68 1104.17 82.68 1104.17 51.23"/><polygon class="cls-17" points="1104.17 82.68 1090.92 82.68 1063.05 148.84 1104.17 148.84 1104.17 82.68"/><polygon class="cls-18" points="1104.17 148.84 1145.29 148.84 1117.42 82.68 1104.17 82.68 1104.17 148.84"/><path class="cls-19" d="M1104.17,1126.89h22.57a18.55,18.55,0,0,0,18.55-18.55V1034.9h-41.12Z"/><path class="cls-20" d="M1063.05,1034.9v73.44a18.54,18.54,0,0,0,18.55,18.55h22.57v-92Z"/><rect class="cls-21" x="1063.05" y="148.84" width="41.12" height="809.86"/><rect class="cls-22" x="1104.17" y="148.84" width="41.12" height="809.86"/><rect class="cls-23" x="1104.17" y="958.7" width="41.12" height="76.2"/><rect class="cls-24" x="1063.05" y="958.7" width="41.12" height="76.2"/></g><g id="post-it"><polygon class="cls-2" points="982.16 515.58 630.85 463.04 598.69 415.92 643.45 116.67 1033.1 174.94 982.16 515.58"/><polygon class="cls-25" points="983.98 496.93 632.68 444.39 600.52 397.27 645.27 98.02 1034.93 156.29 983.98 496.93"/><polygon class="cls-26" points="639.62 403.12 600.52 397.27 632.68 444.39 639.62 403.12"/><path class="cls-27" d="M684.14,136.1c-15.81,18.1-28.35,34.28-25.49,37.48,4.61,5.17,45.82-27.12,50-22.35,5.55,6.36-63.37,67.94-55.4,78.91,2.61,3.58,14.46,3.19,61.22-20.67"/><line class="cls-27" x1="888.86" y1="434.52" x2="886.06" y2="415.1"/><line class="cls-27" x1="929.28" y1="428.7" x2="926.48" y2="409.27"/><path class="cls-27" d="M869.61,449.45c4.63,3.91,15.45,11.89,30.95,13.24,30.69,2.65,50.7-23.27,52.15-25.22"/><path class="cls-28" d="M737.63,367l-.12.92,0,1.09a4.57,4.57,0,0,1-.15.47,3.16,3.16,0,0,0-.17.53,1.66,1.66,0,0,1-.49.74c0,.09-.13.35-.31.77a23.39,23.39,0,0,1-3.85,3.23,23.15,23.15,0,0,1-2.48,1,1.82,1.82,0,0,0-.38.29l-7.81,2.16a.7.7,0,0,0-.24,0,5.2,5.2,0,0,0-.75.1,11,11,0,0,1-1.09.22l-3.69.31a.29.29,0,0,1-.16-.08.41.41,0,0,0-.15-.07l-1.36,0-4.07-.76c-.51-.18-1.22-.46-2.14-.84a15.33,15.33,0,0,1-1.5-.92c-.19-.12-.72-.51-1.59-1.15a7.09,7.09,0,0,1-1.53-3.67,8.83,8.83,0,0,1,.49-3.07c.18-.34.48-.82.88-1.47a7.83,7.83,0,0,1,3.09-3.25,27.43,27.43,0,0,1,3.61-1.68l-.11-.27a5.45,5.45,0,0,1-2.26-2.47c-.08-.25-.18-.63-.29-1.13a7.32,7.32,0,0,1-.17-.91,6.41,6.41,0,0,1,.85-2.82,5.44,5.44,0,0,1,1.91-2.47l1.82-.64a1.22,1.22,0,0,1,.71.21h.68l.58,0,.29.1c.19-.15.45-.37.77-.66l3.43-1.2,3.47-.54,1.65.21.58-.26a3,3,0,0,0,1.34.24,1.31,1.31,0,0,1,1.19.51.12.12,0,0,0,.12-.15,2.7,2.7,0,0,1,.61.31c1.29.1,2.75,1.21,4.35,3.31a4.71,4.71,0,0,1,.32,1.27l-.08.75a10.17,10.17,0,0,0-.09,1.07,7.42,7.42,0,0,1-.4.63,12.8,12.8,0,0,1-.68,1.69,2.14,2.14,0,0,0-1,.64l-.81.77a2.47,2.47,0,0,0,.62.48,1.25,1.25,0,0,0,.6.18c.82.44,1.51.84,2.07,1.19.07.13.17.31.28.56.13.08.36.2.69.37Q737.46,365.41,737.63,367Zm-3.71,1.4c0-.53-.53-1.23-1.54-2.08a7.06,7.06,0,0,0-2.8-1.59,10.39,10.39,0,0,0-1.67-.41,13.16,13.16,0,0,0-2.32-.33h0l-6.21.32-5.56,1.07a4.6,4.6,0,0,0-.49.1,25,25,0,0,1-3,1.26,3.34,3.34,0,0,0-.57.42,4.17,4.17,0,0,0-1.63,1.23,2.92,2.92,0,0,0-.8,1.64,2.53,2.53,0,0,0,.55.76,7,7,0,0,1,.74.62l2.63,1.27a9.88,9.88,0,0,1,1.4.44l3.22.5h2.89a32,32,0,0,0,3.48-.49l2.73-.53a20.49,20.49,0,0,1,2-.56,2.07,2.07,0,0,0,.76-.34l1.36-.21,3.94-1.83C733.63,369.26,733.93,368.84,733.92,368.38Zm-4.06-13.26a4.21,4.21,0,0,0-1.21-.93,6.94,6.94,0,0,0-3.65-.91l-1.92-.12-2.06.44-.15-.18-3.78,1.12a8.52,8.52,0,0,0-3.5,2.06,5.07,5.07,0,0,0,2.81,1.45,12.64,12.64,0,0,0,3.08.36l.88-.07.87-.07a31.28,31.28,0,0,0,4.74-1.14,6.09,6.09,0,0,1,1.47-.5l2.32-1,0-.16A.72.72,0,0,0,729.86,355.12Z"/><path class="cls-28" d="M761.06,369.43a4.89,4.89,0,0,0-.55.75,3.41,3.41,0,0,1-1.75.55l-5.76.57-4.27.11a9.14,9.14,0,0,0-3.44.48,1,1,0,0,1-.25-.08l-.22-.09h-.13a.1.1,0,0,0-.06.11.3.3,0,0,0,.11.13.89.89,0,0,1-.46.12l-.28-.35-1.71,0c-.27-.2-.67-.5-1.21-.88a1.86,1.86,0,0,0-.47-.81,4.67,4.67,0,0,1-.4-1.57,3.8,3.8,0,0,1,.21-1.3q.29-.24.81-.78l2.8-.08,6,.18,3-.27a5.54,5.54,0,0,0,.84-.29l.35.15,3.38-.46a12.46,12.46,0,0,0,1.95.92,9.07,9.07,0,0,1,1,1.74c.12.2.3.47.52.81Zm-14.48,2.36a.21.21,0,0,1-.17.12s0,0,0,0Z"/><path class="cls-28" d="M785.93,366.67a14.28,14.28,0,0,1-1,2.53,1.57,1.57,0,0,0-.64.9,19.65,19.65,0,0,1-4.61,3.24q-.48.26-4.64,2.18a14,14,0,0,0-1.79.5l-1.24.4-.33,0-.37,0a1.34,1.34,0,0,0-1-.48h-.2a2.55,2.55,0,0,0-.42-.59l-.52,1a1.48,1.48,0,0,1-.56.13l-.16,0-.33.35h-.26a5.8,5.8,0,0,1-.93-.42l-.49.11c-.57-.46-.86-.84-.86-1.15a2.86,2.86,0,0,1-.54-1.42,2.72,2.72,0,0,1-.37-.94c0-.17-.08-.48-.17-.94a2.37,2.37,0,0,0-.19-.74v.08l0-1.71a7.09,7.09,0,0,1-.17-1.13.41.41,0,0,1,0-.12A3.06,3.06,0,0,1,764,368a2.4,2.4,0,0,1,.07-.6,2.28,2.28,0,0,0-1.08-.65,2.37,2.37,0,0,1-.63-1.57,2.77,2.77,0,0,1,.45-1.4,2.92,2.92,0,0,1,1-1.11l-.08-8.21c0-.55.06-1.69.14-3.43a5.28,5.28,0,0,1,.73-2.57L765,348a3.25,3.25,0,0,1,.8-.31l.35.07.3.08a9.06,9.06,0,0,0,.83,1.23c.16.4.34.93.53,1.58,0,.05,0,.11,0,.18s0,.41.07.69.08.71.14,1.2l.5,7.81a.31.31,0,0,0,.19.16,6.59,6.59,0,0,1,1.15-.16l3.35-.37h3.26l1.32.07c.9.15,1.67.29,2.31.44a7.22,7.22,0,0,1,.66.34,6,6,0,0,1,2.81,1.62,6.51,6.51,0,0,1,1.71,2.35,9.57,9.57,0,0,0,.67,1.71S785.93,366.7,785.93,366.67Zm-5.36.12v-.25a4.13,4.13,0,0,0-1.11-.89,12.41,12.41,0,0,0-4.05-.71,2.31,2.31,0,0,0-.44-.1h0l-3.25.22a14.37,14.37,0,0,0-3,.91v.53a1.33,1.33,0,0,0,.09.24,1.68,1.68,0,0,1,.09.24l0,1.75.73,4.29a.21.21,0,0,1,.17-.07,1,1,0,0,1,.17-.33,31.21,31.21,0,0,1,4.16-1.95,18,18,0,0,0,3.5-1.68A12.17,12.17,0,0,0,780.57,366.79Z"/><path class="cls-28" d="M793,370.82v-.05a1.08,1.08,0,0,0,0,.25c0,.24-.05.52-.06.82s0,.88,0,1.44l0,1.66-.47,1.2-.36-.07a3.58,3.58,0,0,1-.33.24l-.32-.15a1.54,1.54,0,0,0-.34.17,8.17,8.17,0,0,0-1.35-.37,10.26,10.26,0,0,1-1.09-3.24,5.19,5.19,0,0,1-.11-1c0-.14,0-.29,0-.45l0-2.88.35-1.92a1.8,1.8,0,0,0,.56-.85l.86-.21a1.17,1.17,0,0,1,.54.21c.33.37.82.89,1.48,1.57a3.43,3.43,0,0,1,.57,1.64Zm.65-12.13a1.93,1.93,0,0,1-.25.34,2.26,2.26,0,0,1,.18.75,2.22,2.22,0,0,1-.86.62s-.15-.08-.32-.07-.29,0-.33.09a4.92,4.92,0,0,0-1.59-.47,6.48,6.48,0,0,1-.63-1.67v0l.12-1.8a2.25,2.25,0,0,0,.52-.45l1,0a3.71,3.71,0,0,1,1.12,1.13,1,1,0,0,1,.63.64A5.83,5.83,0,0,0,793.65,358.69Z"/><path class="cls-28" d="M822.9,363.73l-.54,0a.67.67,0,0,0-.12.39.28.28,0,0,0,0,.09.94.94,0,0,1-.49.22c-.54.59-.87.89-1,.89l-1.38,0-1.44.38a1.77,1.77,0,0,0-.48-.05l-2.05.43a.72.72,0,0,1-.22,0l-.28,0c-.16,0-.58.07-1.26.19l-1.94.34a5.08,5.08,0,0,0-1.56.69c-.43,3-.64,4.6-.64,4.86l0,1.25c0,.06-.07.44-.23,1.13a8,8,0,0,0-.22,1.29c-.41.18-1,.48-1.82.89,0,0-.22-.15-.6-.38A2.27,2.27,0,0,0,806,376a5,5,0,0,1-.85-2.27c0-.23-.13-.94-.26-2.14l.26-2.59,0-1-.11-.14h-.36l-3.75.86h-.07a.6.6,0,0,1-.32-.1l-3,.66a10.78,10.78,0,0,0-1-.51,1.5,1.5,0,0,1-.64-.74c-.12-.2-.26-.46-.42-.77a11.52,11.52,0,0,0-.23-1.38v0a1.9,1.9,0,0,1,.36-1.07c.23-.36.45-.54.68-.55h0l5.85-.54,3.82-1q.32-2.91,1-8.67c.46-1.57.88-2.87,1.26-3.92a6,6,0,0,1,1.27-1.17,18.1,18.1,0,0,1,1.89,1.09c.24,1.21.36,1.81.37,1.81l-1.18,8.71,0,1.25,2.27-.05h0s.12,0,.23-.14h.46l.28,0,.3,0,.53-.12a4.89,4.89,0,0,1,.54-.13,1.28,1.28,0,0,1,.5.15,10.8,10.8,0,0,1,2.41-.22s.77.12,2.32.32a14.71,14.71,0,0,0,1.57.67v.09a.47.47,0,0,1-.11.34,1.59,1.59,0,0,0,.47.8h.08A.41.41,0,0,1,822.9,363.73Z"/><path class="cls-28" d="M827.92,370v0a.58.58,0,0,0,0,.24c0,.25,0,.52-.07.82s0,.88,0,1.45l0,1.65-.47,1.2-.36-.07a3.52,3.52,0,0,1-.33.25,1.61,1.61,0,0,1-.33-.16,2.62,2.62,0,0,0-.33.17,8.48,8.48,0,0,0-1.36-.37,10.54,10.54,0,0,1-1.09-3.23,5.51,5.51,0,0,1-.1-1v-.45l0-2.88.36-1.92a1.83,1.83,0,0,0,.56-.85l.86-.21a1.1,1.1,0,0,1,.53.21l1.49,1.58a3.4,3.4,0,0,1,.57,1.64Zm.64-12.13a1.81,1.81,0,0,1-.25.35,1.79,1.79,0,0,1,.18.75,2.09,2.09,0,0,1-.85.61c0-.05-.15-.07-.32-.07s-.3,0-.34.09a4.56,4.56,0,0,0-1.58-.46,7.18,7.18,0,0,1-.64-1.68v0l.12-1.8a2.2,2.2,0,0,0,.52-.45l1,0a3.71,3.71,0,0,1,1.12,1.13,1,1,0,0,1,.63.64A6.84,6.84,0,0,0,828.56,357.86Z"/><path class="cls-28" d="M856,352.67c-.06.09-.18.25-.36.47a.75.75,0,0,0-.2.45.39.39,0,0,0,0,.13c-.07.12-.33.24-.78.34a5.51,5.51,0,0,0-.83.23h-.26q-.75-.72-1-.72h0c-.05-.32-.36-.69-.93-1.12a2.51,2.51,0,0,0-1.41-.62,10.15,10.15,0,0,0-3-1.27,11.24,11.24,0,0,0-3.2-.58h0s-.6.16-1.8.41a5,5,0,0,0-1.17,1,12.89,12.89,0,0,0-.61,1.17,33,33,0,0,0-.76,8.2c0,.16,0,.39,0,.69l.29,2.92a.7.7,0,0,0,.44.18h0l6-.37a4.93,4.93,0,0,1,.69.15l.33.38h0c.26,0,.58.2,1,.62a1.22,1.22,0,0,1-.23.27v.24a.54.54,0,0,0,.33.15.46.46,0,0,0-.12.34.54.54,0,0,0,0,.19,1.85,1.85,0,0,0-.64.66,5.33,5.33,0,0,0-1.62.94c-.76.22-1.86.52-3.32.9a1.54,1.54,0,0,0-.44.33,17.16,17.16,0,0,1,1.17,1.87,11.09,11.09,0,0,0,.49,1.91s0,0,0,0v.26l-1.09.67v.29l-.9,0a.49.49,0,0,0-.17.42,4.05,4.05,0,0,0-.85-.14l-.34.09a20.33,20.33,0,0,0-2.51-2.13c-.39-.5-.93-1.25-1.63-2.24h-.46a4.08,4.08,0,0,0-.64.19c-.41.12-.62.18-.66.18l-1.46,0a2.07,2.07,0,0,1-1.48-.35c-1,0-1.5-.58-1.52-1.68a5.61,5.61,0,0,1,1.41-2.83l.67-.21a1.38,1.38,0,0,1,.45-.09.63.63,0,0,1,.32.07,2.13,2.13,0,0,1,.91-.21c.12,0,.24,0,.37,0l.13-.11,0-1.08s-.06-.25-.18-.69-.17-.68-.17-.7l-.05-2.13a31.37,31.37,0,0,1,.29-4.59,19.76,19.76,0,0,1,1.15-5q1.88-4.44,4.59-4.94c.27-.11,1.28-.37,3-.8h.17a6.09,6.09,0,0,1,1.91.39l.21-.07.2,0h0a4.25,4.25,0,0,0,.83.22.47.47,0,0,1,.3-.15,22.84,22.84,0,0,1,5,1.8,21.24,21.24,0,0,1,3.66,3.22.48.48,0,0,0,0,.18,2.81,2.81,0,0,0,.09.59,4.81,4.81,0,0,1,.2.78Z"/><path class="cls-28" d="M866,366.78q0,2-1.65,8.1c-.17.61-1,3.11-2.48,7.52a.26.26,0,0,0,.21.09h-.22l-1.41,3.6-1.56,5.32a9.38,9.38,0,0,0-.88.92,2.93,2.93,0,0,0-.54.14l-.42.16-.4-.11c-.34-.34-.87-.89-1.58-1.63a13.93,13.93,0,0,1-.51-2.43l.41-2.36,1.45-4.56,2.85-7.27a2.68,2.68,0,0,0-.14-.33,10.2,10.2,0,0,1-2.46.59q-2.62.06-4.32-3.32a13.13,13.13,0,0,1-1.43-5.69,5,5,0,0,1,.31-1.74c.19-.23.48-.55.89-1h.23c.52,0,1,.38,1.57,1.18a4.2,4.2,0,0,1,.53,1.34c.59,2.52,1.08,3.78,1.47,3.77.87,0,2.07-.69,3.6-2a21.08,21.08,0,0,0,3.06-3.22,1.23,1.23,0,0,0,.63-.34,3.14,3.14,0,0,0,.87.08c.16.19.45.51.84,1a2.05,2.05,0,0,1,.34.1A3.24,3.24,0,0,1,866,366.78Z"/><path class="cls-27" d="M909.77,166.73c-7.23.63-11.77,7.51-12.67,8.88-8.67,13.12-4.28,37,8.87,41.19,10.08,3.19,24.58-5.47,27.88-17.75C938.17,183,922.08,165.66,909.77,166.73Z"/><path class="cls-27" d="M847.66,176.87c-7.52,1.17-12.36,9.76-13.94,15.85-3.61,13.9,5.28,32.21,17.11,32.95,9.26.58,18.87-9.7,20.28-20.28C873.09,190.55,858.93,175.13,847.66,176.87Z"/><path class="cls-27" d="M897.1,231.38c-5.11-3.42-11.71-1.69-13.31-1.27-10.65,2.79-19,14.54-17.75,26.62,1.55,15.31,17.86,25.65,26.62,22.81C905.6,275.35,909.84,239.91,897.1,231.38Z"/></g><g id="eraser"><path class="cls-2" d="M636.44,864.53v47.36a20.4,20.4,0,0,0,20.4,20.4h93.55a20.4,20.4,0,0,0,20.4-20.4V864.53Z"/><path class="cls-29" d="M770.79,619.94a20.4,20.4,0,0,0-20.4-20.41H656.84a20.4,20.4,0,0,0-20.4,20.41V846.63H770.79Z"/><path class="cls-20" d="M636.44,846.63V894a20.4,20.4,0,0,0,20.4,20.4h93.55a20.4,20.4,0,0,0,20.4-20.4V846.63Z"/></g></g><g id="bleeds"><rect class="cls-30" x="51" y="51" width="1098" height="1098"/></g></svg>