<svg xmlns="http://www.w3.org/2000/svg" viewBox="0 0 1800 1200"><defs><style>.a4f72004-e83b-4ff6-9424-6784932e9e4b,.fa204400-f569-4142-a3b9-4ae2f55f5cd0,.fcc67cec-9057-4e23-8972-4c861d3ef0f1{fill:#302d2e;}.a4f72004-e83b-4ff6-9424-6784932e9e4b{opacity:0.15;}.eb7cd9b0-b6f4-4c2c-afa0-e3829e01fc7e{fill:#fff;}.ee21f0b6-f20f-4859-a50d-f1d58eaca679{opacity:0.1;}.a05b200f-b9c8-46b8-969b-f7e4d3e0be06,.a316548f-87d8-4ca8-959e-2e0593dc963d,.a4d4baff-d057-4e40-ad15-40f72dd73fff,.a8ee3e6f-1412-41f5-8524-79317299efd7,.ba73a778-9d33-4a9c-b742-e73047922568,.bcb5c302-af90-4bc5-b136-4e8984ed178b,.bd19b383-fd0c-4e41-9447-7cf059e4280c,.bda6fa98-6853-4c38-ba69-737dfdbb52dc,.e08db29a-1c3e-4d4e-bdc4-71b3134f84ee,.ec586987-4a30-4527-b499-8a7fae4e0360,.eea68aee-2ed8-4209-a8a7-9794c71002f5,.f5237362-230c-4934-b15d-106ac2ebb67b,.fccbbda7-b385-40ff-8f3d-587d70362625,.fec9004c-c5b6-4593-9ac6-545be069e4c9{fill:none;}.a05b200f-b9c8-46b8-969b-f7e4d3e0be06,.a316548f-87d8-4ca8-959e-2e0593dc963d,.a4d4baff-d057-4e40-ad15-40f72dd73fff,.a8ee3e6f-1412-41f5-8524-79317299efd7,.bd19b383-fd0c-4e41-9447-7cf059e4280c,.fccbbda7-b385-40ff-8f3d-587d70362625,.fec9004c-c5b6-4593-9ac6-545be069e4c9{stroke:#000;}.a05b200f-b9c8-46b8-969b-f7e4d3e0be06,.a316548f-87d8-4ca8-959e-2e0593dc963d,.a4d4baff-d057-4e40-ad15-40f72dd73fff,.a8ee3e6f-1412-41f5-8524-79317299efd7,.ba73a778-9d33-4a9c-b742-e73047922568,.bcb5c302-af90-4bc5-b136-4e8984ed178b,.bd19b383-fd0c-4e41-9447-7cf059e4280c,.bda6fa98-6853-4c38-ba69-737dfdbb52dc,.e08db29a-1c3e-4d4e-bdc4-71b3134f84ee,.ec586987-4a30-4527-b499-8a7fae4e0360,.eea68aee-2ed8-4209-a8a7-9794c71002f5,.f5237362-230c-4934-b15d-106ac2ebb67b,.fa204400-f569-4142-a3b9-4ae2f55f5cd0,.fccbbda7-b385-40ff-8f3d-587d70362625,.fec9004c-c5b6-4593-9ac6-545be069e4c9{stroke-linecap:round;}.a05b200f-b9c8-46b8-969b-f7e4d3e0be06,.a316548f-87d8-4ca8-959e-2e0593dc963d,.a4d4baff-d057-4e40-ad15-40f72dd73fff,.a8ee3e6f-1412-41f5-8524-79317299efd7,.a9f698a7-b494-47b5-b893-5fd12bce4b6c,.ba73a778-9d33-4a9c-b742-e73047922568,.bcb5c302-af90-4bc5-b136-4e8984ed178b,.bd19b383-fd0c-4e41-9447-7cf059e4280c,.bda6fa98-6853-4c38-ba69-737dfdbb52dc,.e08db29a-1c3e-4d4e-bdc4-71b3134f84ee,.ec586987-4a30-4527-b499-8a7fae4e0360,.eea68aee-2ed8-4209-a8a7-9794c71002f5,.f5237362-230c-4934-b15d-106ac2ebb67b,.fa204400-f569-4142-a3b9-4ae2f55f5cd0,.fccbbda7-b385-40ff-8f3d-587d70362625,.fec9004c-c5b6-4593-9ac6-545be069e4c9{stroke-miterlimit:10;}.a05b200f-b9c8-46b8-969b-f7e4d3e0be06,.a4d4baff-d057-4e40-ad15-40f72dd73fff,.a8ee3e6f-1412-41f5-8524-79317299efd7{stroke-width:6.88px;}.a4d4baff-d057-4e40-ad15-40f72dd73fff{stroke-dasharray:0.77 49.88;}.a8ee3e6f-1412-41f5-8524-79317299efd7{stroke-dasharray:0.77 49.88;}.b95f8eb4-9d4d-4c3b-b7a8-e2bc075a9ca3{opacity:0.5;}.ba73a778-9d33-4a9c-b742-e73047922568,.bcb5c302-af90-4bc5-b136-4e8984ed178b,.bda6fa98-6853-4c38-ba69-737dfdbb52dc,.e08db29a-1c3e-4d4e-bdc4-71b3134f84ee,.f5237362-230c-4934-b15d-106ac2ebb67b{stroke:#5f5a52;}.e08db29a-1c3e-4d4e-bdc4-71b3134f84ee{stroke-width:7.56px;}.ba73a778-9d33-4a9c-b742-e73047922568,.bcb5c302-af90-4bc5-b136-4e8984ed178b,.e08db29a-1c3e-4d4e-bdc4-71b3134f84ee,.f5237362-230c-4934-b15d-106ac2ebb67b{opacity:0.58;}.f5237362-230c-4934-b15d-106ac2ebb67b{stroke-width:7.17px;}.bcb5c302-af90-4bc5-b136-4e8984ed178b{stroke-width:10.63px;}.ba73a778-9d33-4a9c-b742-e73047922568{stroke-width:9.82px;}.a9f698a7-b494-47b5-b893-5fd12bce4b6c{fill:#6d6767;stroke:#302d2e;stroke-width:0.72px;}.a316548f-87d8-4ca8-959e-2e0593dc963d,.a9f698a7-b494-47b5-b893-5fd12bce4b6c,.bd19b383-fd0c-4e41-9447-7cf059e4280c,.fa204400-f569-4142-a3b9-4ae2f55f5cd0,.fec9004c-c5b6-4593-9ac6-545be069e4c9{opacity:0.24;}.a012debc-600f-441c-8f65-f2646c024604{opacity:0.02;}.fa204400-f569-4142-a3b9-4ae2f55f5cd0{stroke:#6d6767;stroke-width:6.66px;}.ec586987-4a30-4527-b499-8a7fae4e0360,.eea68aee-2ed8-4209-a8a7-9794c71002f5{stroke:#9068ad;}.ec586987-4a30-4527-b499-8a7fae4e0360,.fccbbda7-b385-40ff-8f3d-587d70362625,.fec9004c-c5b6-4593-9ac6-545be069e4c9{stroke-width:12.5px;}.eea68aee-2ed8-4209-a8a7-9794c71002f5{stroke-width:17.49px;opacity:0.66;}.fccbbda7-b385-40ff-8f3d-587d70362625{opacity:0.54;}.a316548f-87d8-4ca8-959e-2e0593dc963d{stroke-width:5px;}.bd19b383-fd0c-4e41-9447-7cf059e4280c{stroke-width:3.33px;}.edb8a49e-c7cc-49c5-93e3-e5251758361c{fill:#9068ad;opacity:0.4;}.e41730d4-1e31-4fba-9bc8-32bc71ad33a2{fill:#393536;}.b50830c6-4de9-4ac3-8871-9d3da5d6f444{fill:#272425;}.a29b5c0c-5359-4a5b-8254-090298199867{fill:#fcf5f9;}.b4570e05-d279-4281-acdd-5474bd1acf44{fill:#e1dce1;}.ac85b7c4-abcd-4928-9e7e-a0c9657cede1{fill:#d18fad;}.a9caca4e-de9a-4483-89d3-026d3c9a5bb0{fill:#de98b8;}.e6983092-f582-4503-84c0-f447412e91f8{fill:#e5b55d;}.e6ad65d4-dc40-4be1-a86a-d56675685115{fill:#d3a856;}.bb4a6927-a05c-4694-b1ef-36d569cea5e5{fill:#c4c6c8;}.b84b21b1-6dad-4c40-a1d0-0eb19844a606{fill:#e0e1e2;}.b7229b6c-6c36-4d1e-aef8-fec8216963eb{fill:#eecf98;}.e447c8f1-ff80-425a-a20a-b1c0d776cb79{fill:#eac27b;}.bda6fa98-6853-4c38-ba69-737dfdbb52dc{stroke-width:5.45px;}.a00376b2-2a58-42a4-b475-57195971654f{fill:#5f5a52;}.b6a991d5-3856-4d2f-a1e9-ce6898c062d2{fill:#e4abc5;}</style></defs><title>portfolio-icons</title><g id="abec62ac-c137-4352-bc7b-90588bbd7fb2" data-name="8-bitify-banner"><g id="b81f2248-958c-4088-869d-0d26ed507f11" data-name="sketch"><g id="ee7a179e-b048-4d01-a8e3-bbdcd64a985e" data-name="grid"><rect class="a4f72004-e83b-4ff6-9424-6784932e9e4b" x="181.75" y="176.75" width="1461.33" height="931.87"/><rect class="eb7cd9b0-b6f4-4c2c-afa0-e3829e01fc7e" x="181.75" y="158.9" width="1461.33" height="931.87"/><g class="ee21f0b6-f20f-4859-a50d-f1d58eaca679"><line class="a05b200f-b9c8-46b8-969b-f7e4d3e0be06" x1="279.38" y1="241.14" x2="279.76" y2="241.14"/><line class="a4d4baff-d057-4e40-ad15-40f72dd73fff" x1="329.64" y1="241.14" x2="1520.13" y2="241.14"/><line class="a05b200f-b9c8-46b8-969b-f7e4d3e0be06" x1="1545.07" y1="241.14" x2="1545.45" y2="241.14"/></g><g class="ee21f0b6-f20f-4859-a50d-f1d58eaca679"><line class="a05b200f-b9c8-46b8-969b-f7e4d3e0be06" x1="279.38" y1="337.06" x2="279.76" y2="337.06"/><line class="a4d4baff-d057-4e40-ad15-40f72dd73fff" x1="329.64" y1="337.06" x2="1520.13" y2="337.06"/><line class="a05b200f-b9c8-46b8-969b-f7e4d3e0be06" x1="1545.07" y1="337.06" x2="1545.45" y2="337.06"/></g><g class="ee21f0b6-f20f-4859-a50d-f1d58eaca679"><line class="a05b200f-b9c8-46b8-969b-f7e4d3e0be06" x1="279.38" y1="385.03" x2="279.76" y2="385.03"/><line class="a8ee3e6f-1412-41f5-8524-79317299efd7" x1="329.64" y1="385.03" x2="1520.13" y2="385.03"/><line class="a05b200f-b9c8-46b8-969b-f7e4d3e0be06" x1="1545.07" y1="385.03" x2="1545.45" y2="385.03"/></g><g class="ee21f0b6-f20f-4859-a50d-f1d58eaca679"><line class="a05b200f-b9c8-46b8-969b-f7e4d3e0be06" x1="279.38" y1="289.1" x2="279.76" y2="289.1"/><line class="a4d4baff-d057-4e40-ad15-40f72dd73fff" x1="329.64" y1="289.1" x2="1520.13" y2="289.1"/><line class="a05b200f-b9c8-46b8-969b-f7e4d3e0be06" x1="1545.07" y1="289.1" x2="1545.45" y2="289.1"/></g><g class="ee21f0b6-f20f-4859-a50d-f1d58eaca679"><line class="a05b200f-b9c8-46b8-969b-f7e4d3e0be06" x1="279.38" y1="432.99" x2="279.76" y2="432.99"/><line class="a4d4baff-d057-4e40-ad15-40f72dd73fff" x1="329.64" y1="432.99" x2="1520.13" y2="432.99"/><line class="a05b200f-b9c8-46b8-969b-f7e4d3e0be06" x1="1545.07" y1="432.99" x2="1545.45" y2="432.99"/></g><g class="ee21f0b6-f20f-4859-a50d-f1d58eaca679"><line class="a05b200f-b9c8-46b8-969b-f7e4d3e0be06" x1="279.38" y1="528.91" x2="279.76" y2="528.91"/><line class="a4d4baff-d057-4e40-ad15-40f72dd73fff" x1="329.64" y1="528.91" x2="1520.13" y2="528.91"/><line class="a05b200f-b9c8-46b8-969b-f7e4d3e0be06" x1="1545.07" y1="528.91" x2="1545.45" y2="528.91"/></g><g class="ee21f0b6-f20f-4859-a50d-f1d58eaca679"><line class="a05b200f-b9c8-46b8-969b-f7e4d3e0be06" x1="279.38" y1="576.87" x2="279.76" y2="576.87"/><line class="a4d4baff-d057-4e40-ad15-40f72dd73fff" x1="329.64" y1="576.87" x2="1520.13" y2="576.87"/><line class="a05b200f-b9c8-46b8-969b-f7e4d3e0be06" x1="1545.07" y1="576.87" x2="1545.45" y2="576.87"/></g><g class="ee21f0b6-f20f-4859-a50d-f1d58eaca679"><line class="a05b200f-b9c8-46b8-969b-f7e4d3e0be06" x1="279.38" y1="480.95" x2="279.76" y2="480.95"/><line class="a4d4baff-d057-4e40-ad15-40f72dd73fff" x1="329.64" y1="480.95" x2="1520.13" y2="480.95"/><line class="a05b200f-b9c8-46b8-969b-f7e4d3e0be06" x1="1545.07" y1="480.95" x2="1545.45" y2="480.95"/></g><g class="ee21f0b6-f20f-4859-a50d-f1d58eaca679"><line class="a05b200f-b9c8-46b8-969b-f7e4d3e0be06" x1="279.38" y1="624.84" x2="279.76" y2="624.84"/><line class="a4d4baff-d057-4e40-ad15-40f72dd73fff" x1="329.64" y1="624.84" x2="1520.13" y2="624.84"/><line class="a05b200f-b9c8-46b8-969b-f7e4d3e0be06" x1="1545.07" y1="624.84" x2="1545.45" y2="624.84"/></g><g class="ee21f0b6-f20f-4859-a50d-f1d58eaca679"><line class="a05b200f-b9c8-46b8-969b-f7e4d3e0be06" x1="279.38" y1="720.76" x2="279.76" y2="720.76"/><line class="a4d4baff-d057-4e40-ad15-40f72dd73fff" x1="329.64" y1="720.76" x2="1520.13" y2="720.76"/><line class="a05b200f-b9c8-46b8-969b-f7e4d3e0be06" x1="1545.07" y1="720.76" x2="1545.45" y2="720.76"/></g><g class="ee21f0b6-f20f-4859-a50d-f1d58eaca679"><line class="a05b200f-b9c8-46b8-969b-f7e4d3e0be06" x1="279.38" y1="768.72" x2="279.76" y2="768.72"/><line class="a4d4baff-d057-4e40-ad15-40f72dd73fff" x1="329.64" y1="768.72" x2="1520.13" y2="768.72"/><line class="a05b200f-b9c8-46b8-969b-f7e4d3e0be06" x1="1545.07" y1="768.72" x2="1545.45" y2="768.72"/></g><g class="ee21f0b6-f20f-4859-a50d-f1d58eaca679"><line class="a05b200f-b9c8-46b8-969b-f7e4d3e0be06" x1="279.38" y1="672.8" x2="279.76" y2="672.8"/><line class="a4d4baff-d057-4e40-ad15-40f72dd73fff" x1="329.64" y1="672.8" x2="1520.13" y2="672.8"/><line class="a05b200f-b9c8-46b8-969b-f7e4d3e0be06" x1="1545.07" y1="672.8" x2="1545.45" y2="672.8"/></g><g class="ee21f0b6-f20f-4859-a50d-f1d58eaca679"><line class="a05b200f-b9c8-46b8-969b-f7e4d3e0be06" x1="279.38" y1="816.68" x2="279.76" y2="816.68"/><line class="a4d4baff-d057-4e40-ad15-40f72dd73fff" x1="329.64" y1="816.68" x2="1520.13" y2="816.68"/><line class="a05b200f-b9c8-46b8-969b-f7e4d3e0be06" x1="1545.07" y1="816.68" x2="1545.45" y2="816.68"/></g><g class="ee21f0b6-f20f-4859-a50d-f1d58eaca679"><line class="a05b200f-b9c8-46b8-969b-f7e4d3e0be06" x1="279.38" y1="912.61" x2="279.76" y2="912.61"/><line class="a4d4baff-d057-4e40-ad15-40f72dd73fff" x1="329.64" y1="912.61" x2="1520.13" y2="912.61"/><line class="a05b200f-b9c8-46b8-969b-f7e4d3e0be06" x1="1545.07" y1="912.61" x2="1545.45" y2="912.61"/></g><g class="ee21f0b6-f20f-4859-a50d-f1d58eaca679"><line class="a05b200f-b9c8-46b8-969b-f7e4d3e0be06" x1="279.38" y1="960.57" x2="279.76" y2="960.57"/><line class="a4d4baff-d057-4e40-ad15-40f72dd73fff" x1="329.64" y1="960.57" x2="1520.13" y2="960.57"/><line class="a05b200f-b9c8-46b8-969b-f7e4d3e0be06" x1="1545.07" y1="960.57" x2="1545.45" y2="960.57"/></g><g class="ee21f0b6-f20f-4859-a50d-f1d58eaca679"><line class="a05b200f-b9c8-46b8-969b-f7e4d3e0be06" x1="279.38" y1="1008.53" x2="279.76" y2="1008.53"/><line class="a4d4baff-d057-4e40-ad15-40f72dd73fff" x1="329.64" y1="1008.53" x2="1520.13" y2="1008.53"/><line class="a05b200f-b9c8-46b8-969b-f7e4d3e0be06" x1="1545.07" y1="1008.53" x2="1545.45" y2="1008.53"/></g><g class="ee21f0b6-f20f-4859-a50d-f1d58eaca679"><line class="a05b200f-b9c8-46b8-969b-f7e4d3e0be06" x1="279.38" y1="864.65" x2="279.76" y2="864.65"/><line class="a4d4baff-d057-4e40-ad15-40f72dd73fff" x1="329.64" y1="864.65" x2="1520.13" y2="864.65"/><line class="a05b200f-b9c8-46b8-969b-f7e4d3e0be06" x1="1545.07" y1="864.65" x2="1545.45" y2="864.65"/></g></g><g class="b95f8eb4-9d4d-4c3b-b7a8-e2bc075a9ca3"><path class="e08db29a-1c3e-4d4e-bdc4-71b3134f84ee" d="M1121.29,946.64c198.82,1.67,278.26,3.51,283.86,5.37a13.89,13.89,0,0,0,9.07.24,16.21,16.21,0,0,0,6.35-4.67c12.37-14.9,8.66-590.34,13-604.19.16-.49,1.69-4.7,0-7.33-1.58-2.37-5-2.29-6.16-2.27-4.48.07-264.18,3.32-281.37-3.22-.73-.28-4.25-1.81-6.65,0-3.47,2.61-2.34,10.48-2.22,11.63,1.23,11.51-5.47,223.6-16.13,534.19"/><path class="f5237362-230c-4934-b15d-106ac2ebb67b" d="M1171.67,636c42.2.17,59.06.36,60.25.55a6.08,6.08,0,0,0,1.92,0,4.77,4.77,0,0,0,1.35-.48c2.62-1.53,1.84-60.61,2.75-62,0-.05.36-.49,0-.76a2.72,2.72,0,0,0-1.31-.23c-.95,0-56.07.34-59.72-.33a3,3,0,0,0-1.41,0c-.74.27-.5,1.08-.47,1.19.26,1.19-1.16,23-3.43,54.85"/><path class="f5237362-230c-4934-b15d-106ac2ebb67b" d="M1316,761.85c42.2.17,59.06.36,60.25.55a5.82,5.82,0,0,0,1.93,0,4.76,4.76,0,0,0,1.34-.48c2.63-1.53,1.84-60.61,2.75-62,0,0,.36-.49,0-.76a2.7,2.7,0,0,0-1.31-.23c-1,0-56.07.34-59.71-.33a3.13,3.13,0,0,0-1.42,0c-.73.27-.49,1.08-.47,1.2.26,1.18-1.16,23-3.42,54.84"/><path class="f5237362-230c-4934-b15d-106ac2ebb67b" d="M1195.06,364.62h43"/><path class="f5237362-230c-4934-b15d-106ac2ebb67b" d="M1275.9,574.69h105.5"/><path class="f5237362-230c-4934-b15d-106ac2ebb67b" d="M1275.9,604.69h105.5"/><path class="f5237362-230c-4934-b15d-106ac2ebb67b" d="M1176.85,700.51h105.49"/><path class="f5237362-230c-4934-b15d-106ac2ebb67b" d="M1176.85,730.5h105.49"/><path class="f5237362-230c-4934-b15d-106ac2ebb67b" d="M1271.06,825h105.49"/><path class="f5237362-230c-4934-b15d-106ac2ebb67b" d="M1271.06,856.31h52.75"/><path class="f5237362-230c-4934-b15d-106ac2ebb67b" d="M1289.31,362H1316"/><path class="f5237362-230c-4934-b15d-106ac2ebb67b" d="M1341.56,363.3h30.8"/><path class="f5237362-230c-4934-b15d-106ac2ebb67b" d="M1390.73,362h26.66"/><path class="f5237362-230c-4934-b15d-106ac2ebb67b" d="M1201.86,829.84c-11.66,2-21.4,10.52-24,21.9-4.91,21.4,16.76,47,30,42.52,11.42-3.84,19.31-30.86,12-50.25-6.7-17.78-25.4-27-43-18"/></g><g class="b95f8eb4-9d4d-4c3b-b7a8-e2bc075a9ca3"><path class="bcb5c302-af90-4bc5-b136-4e8984ed178b" d="M280.17,262.19c-2.07,317.23-4.35,444-6.65,452.93a28,28,0,0,0-.3,14.46A26.73,26.73,0,0,0,279,739.71c18.46,19.75,731.53,13.82,748.7,20.68.61.24,5.83,2.69,9.08-.09,2.94-2.51,2.83-8,2.81-9.83-.08-7.15-4.11-421.53,4-448.95.35-1.17,2.24-6.78,0-10.61-3.23-5.54-13-3.73-14.4-3.54-14.28,2-277.09-8.73-662-25.74"/><path class="ba73a778-9d33-4a9c-b742-e73047922568" d="M370.87,712.06c70.08.28,98.08.58,100.06.89a9.69,9.69,0,0,0,3.19,0,7.77,7.77,0,0,0,2.24-.77c4.36-2.49,3.05-98.32,4.57-100.62.05-.09.59-.79,0-1.22a4.36,4.36,0,0,0-2.17-.38c-1.58,0-93.12.55-99.18-.54a5.14,5.14,0,0,0-2.35,0c-1.22.44-.82,1.75-.78,1.94.44,1.92-1.93,37.24-5.68,89"/><path class="ba73a778-9d33-4a9c-b742-e73047922568" d="M332.87,329.41H451.72"/><path class="ba73a778-9d33-4a9c-b742-e73047922568" d="M531.35,643.3H944.73"/><path class="ba73a778-9d33-4a9c-b742-e73047922568" d="M531.35,691.34H790.64"/><path class="ba73a778-9d33-4a9c-b742-e73047922568" d="M944.73,330.54h44.1"/><path class="ba73a778-9d33-4a9c-b742-e73047922568" d="M831.42,330.54h44.1"/><path class="ba73a778-9d33-4a9c-b742-e73047922568" d="M739.27,329.7h44.11"/></g></g><g id="beff3722-0343-491f-8128-7c41fc661f74" data-name="iphone"><rect class="a4f72004-e83b-4ff6-9424-6784932e9e4b" x="59.66" y="403.77" width="349.05" height="747.36" rx="39.39"/><rect class="fcc67cec-9057-4e23-8972-4c861d3ef0f1" x="59.66" y="390.69" width="349.05" height="747.36" rx="39.39"/><ellipse class="a9f698a7-b494-47b5-b893-5fd12bce4b6c" cx="234.18" cy="1102.03" rx="26.74" ry="27.89"/><rect class="a9f698a7-b494-47b5-b893-5fd12bce4b6c" x="75.08" y="458.51" width="319.24" height="602.05"/><rect class="eb7cd9b0-b6f4-4c2c-afa0-e3829e01fc7e" x="84.79" y="469.53" width="299.8" height="580.01"/><rect class="a012debc-600f-441c-8f65-f2646c024604" x="84.79" y="506.76" width="299.8" height="149.21"/><line class="fa204400-f569-4142-a3b9-4ae2f55f5cd0" x1="207.44" y1="430.16" x2="254.16" y2="430.16"/><line class="ec586987-4a30-4527-b499-8a7fae4e0360" x1="100.97" y1="489.34" x2="146.05" y2="489.34"/><line class="eea68aee-2ed8-4209-a8a7-9794c71002f5" x1="215.46" y1="624.99" x2="260.54" y2="624.99"/><line class="fccbbda7-b385-40ff-8f3d-587d70362625" x1="338.61" y1="489.34" x2="369.94" y2="489.34"/><line class="fec9004c-c5b6-4593-9ac6-545be069e4c9" x1="278.88" y1="489.34" x2="310.21" y2="489.34"/><line class="fec9004c-c5b6-4593-9ac6-545be069e4c9" x1="216.77" y1="489.34" x2="248.1" y2="489.34"/><line class="a316548f-87d8-4ca8-959e-2e0593dc963d" x1="153.95" y1="594.46" x2="322.06" y2="594.46"/><line class="a316548f-87d8-4ca8-959e-2e0593dc963d" x1="153.95" y1="574.01" x2="322.06" y2="574.01"/><line class="bd19b383-fd0c-4e41-9447-7cf059e4280c" x1="100.97" y1="787.67" x2="269.08" y2="787.67"/><line class="bd19b383-fd0c-4e41-9447-7cf059e4280c" x1="100.97" y1="767.22" x2="269.08" y2="767.22"/><line class="bd19b383-fd0c-4e41-9447-7cf059e4280c" x1="100.97" y1="797.9" x2="210.34" y2="797.9"/><line class="bd19b383-fd0c-4e41-9447-7cf059e4280c" x1="100.97" y1="777.45" x2="269.08" y2="777.45"/><line class="bd19b383-fd0c-4e41-9447-7cf059e4280c" x1="198.4" y1="712.69" x2="366.51" y2="712.69"/><line class="bd19b383-fd0c-4e41-9447-7cf059e4280c" x1="198.4" y1="692.24" x2="366.51" y2="692.24"/><line class="bd19b383-fd0c-4e41-9447-7cf059e4280c" x1="198.4" y1="722.91" x2="307.77" y2="722.91"/><line class="bd19b383-fd0c-4e41-9447-7cf059e4280c" x1="198.4" y1="702.46" x2="366.51" y2="702.46"/><rect class="edb8a49e-c7cc-49c5-93e3-e5251758361c" x="100.97" y="682.85" width="60.59" height="47.92"/><line class="bd19b383-fd0c-4e41-9447-7cf059e4280c" x1="198.4" y1="865.95" x2="366.51" y2="865.95"/><line class="bd19b383-fd0c-4e41-9447-7cf059e4280c" x1="198.4" y1="845.5" x2="366.51" y2="845.5"/><line class="bd19b383-fd0c-4e41-9447-7cf059e4280c" x1="198.4" y1="876.17" x2="307.77" y2="876.17"/><line class="bd19b383-fd0c-4e41-9447-7cf059e4280c" x1="198.4" y1="855.72" x2="366.51" y2="855.72"/><rect class="edb8a49e-c7cc-49c5-93e3-e5251758361c" x="100.97" y="836.11" width="60.59" height="47.92"/><rect class="edb8a49e-c7cc-49c5-93e3-e5251758361c" x="307.77" y="759.48" width="60.59" height="47.92"/><ellipse class="edb8a49e-c7cc-49c5-93e3-e5251758361c" cx="131.27" cy="947.57" rx="19.89" ry="20.75"/><ellipse class="edb8a49e-c7cc-49c5-93e3-e5251758361c" cx="131.27" cy="1016.08" rx="19.89" ry="20.75"/><line class="bd19b383-fd0c-4e41-9447-7cf059e4280c" x1="182.91" y1="942.46" x2="351.02" y2="942.46"/><line class="bd19b383-fd0c-4e41-9447-7cf059e4280c" x1="182.91" y1="952.68" x2="320.02" y2="952.68"/><line class="bd19b383-fd0c-4e41-9447-7cf059e4280c" x1="182.91" y1="1010.97" x2="351.02" y2="1010.97"/><line class="bd19b383-fd0c-4e41-9447-7cf059e4280c" x1="182.91" y1="1021.2" x2="320.02" y2="1021.2"/></g><g id="a9d53e65-97fe-4781-8402-f64782fff042" data-name="pencil"><path class="a4f72004-e83b-4ff6-9424-6784932e9e4b" d="M1716.54,1101.19h16.81a13.82,13.82,0,0,0,13.82-13.82v-54.71h-30.63Z"/><path class="a4f72004-e83b-4ff6-9424-6784932e9e4b" d="M1685.91,1032.66v54.71a13.82,13.82,0,0,0,13.82,13.82h16.81v-68.53Z"/><polygon class="e41730d4-1e31-4fba-9bc8-32bc71ad33a2" points="1726.41 309.29 1716.54 285.86 1716.54 309.29 1726.41 309.29"/><polygon class="b50830c6-4de9-4ac3-8871-9d3da5d6f444" points="1716.54 285.86 1706.67 309.29 1716.54 309.29 1716.54 285.86"/><polygon class="a29b5c0c-5359-4a5b-8254-090298199867" points="1716.54 309.29 1706.67 309.29 1685.91 358.57 1716.54 358.57 1716.54 309.29"/><polygon class="b4570e05-d279-4281-acdd-5474bd1acf44" points="1716.54 358.57 1747.17 358.57 1726.41 309.29 1716.54 309.29 1716.54 358.57"/><path class="ac85b7c4-abcd-4928-9e7e-a0c9657cede1" d="M1716.54,1087.17h16.81a13.82,13.82,0,0,0,13.82-13.82v-54.71h-30.63Z"/><path class="a9caca4e-de9a-4483-89d3-026d3c9a5bb0" d="M1685.91,1018.64v54.71a13.82,13.82,0,0,0,13.82,13.82h16.81v-68.53Z"/><rect class="e6983092-f582-4503-84c0-f447412e91f8" x="1685.91" y="358.57" width="30.63" height="603.3"/><rect class="e6ad65d4-dc40-4be1-a86a-d56675685115" x="1716.54" y="358.57" width="30.63" height="603.3"/><rect class="bb4a6927-a05c-4694-b1ef-36d569cea5e5" x="1716.54" y="961.88" width="30.63" height="56.76"/><rect class="b84b21b1-6dad-4c40-a1d0-0eb19844a606" x="1685.91" y="961.88" width="30.63" height="56.76"/></g><g id="ee349608-a443-4547-9f99-f35047f81041" data-name="post-it"><polygon class="a4f72004-e83b-4ff6-9424-6784932e9e4b" points="1536.9 402.17 1243.21 358.25 1216.33 318.86 1253.74 68.68 1579.49 117.4 1536.9 402.17"/><polygon class="b7229b6c-6c36-4d1e-aef8-fec8216963eb" points="1536.75 390.76 1243.07 346.84 1216.18 307.45 1253.6 57.27 1579.34 105.99 1536.75 390.76"/><polygon class="e447c8f1-ff80-425a-a20a-b1c0d776cb79" points="1248.87 312.34 1216.18 307.45 1243.07 346.84 1248.87 312.34"/><path class="bda6fa98-6853-4c38-ba69-737dfdbb52dc" d="M1286.09,89.11c-13.22,15.13-23.7,28.66-21.31,31.34,3.85,4.31,38.3-22.68,41.8-18.69,4.64,5.31-53,56.79-46.31,66,2.17,3,12.08,2.67,51.17-17.29"/><line class="bda6fa98-6853-4c38-ba69-737dfdbb52dc" x1="1457.23" y1="338.59" x2="1454.89" y2="322.35"/><line class="bda6fa98-6853-4c38-ba69-737dfdbb52dc" x1="1491.03" y1="333.72" x2="1488.69" y2="317.48"/><path class="bda6fa98-6853-4c38-ba69-737dfdbb52dc" d="M1441.14,351.07A46.8,46.8,0,0,0,1467,362.13c25.66,2.22,42.39-19.45,43.6-21.08"/><path class="a00376b2-2a58-42a4-b475-57195971654f" d="M1330.81,282.12l-.11.77,0,.91-.14.4-.14.44a1.41,1.41,0,0,1-.4.62l-.27.65a19.46,19.46,0,0,1-3.21,2.69,20.1,20.1,0,0,1-2.08.82,1.72,1.72,0,0,0-.32.23l-6.52,1.81a.59.59,0,0,0-.2,0,3.37,3.37,0,0,0-.63.08,8.11,8.11,0,0,1-.91.18l-3.09.26s-.07,0-.13-.06l-.13-.06-1.14,0-3.4-.63c-.42-.15-1-.39-1.79-.71a12.73,12.73,0,0,1-1.25-.76c-.16-.1-.6-.43-1.33-1a6,6,0,0,1-1.28-3.08,7.56,7.56,0,0,1,.41-2.56c.16-.28.4-.69.74-1.23a6.6,6.6,0,0,1,2.58-2.72,23.9,23.9,0,0,1,3-1.4l-.09-.22a4.55,4.55,0,0,1-1.89-2.07,9.74,9.74,0,0,1-.24-.95,5.21,5.21,0,0,1-.15-.76,5.46,5.46,0,0,1,.71-2.35,4.59,4.59,0,0,1,1.6-2.07l1.52-.53a1.06,1.06,0,0,1,.6.17h.56l.49,0,.24.09.65-.55,2.86-1,2.9-.44,1.38.16a3.94,3.94,0,0,0,.49-.21,2.55,2.55,0,0,0,1.12.2,1.11,1.11,0,0,1,1,.42c.07,0,.11,0,.11-.12a2.18,2.18,0,0,1,.5.26q1.63.13,3.64,2.77a3.86,3.86,0,0,1,.27,1.06l-.07.63a6.12,6.12,0,0,0-.07.89c-.06.11-.18.28-.34.53a9.53,9.53,0,0,1-.57,1.41,1.8,1.8,0,0,0-.85.53l-.68.65a2.28,2.28,0,0,0,.52.4,1.18,1.18,0,0,0,.5.15c.69.37,1.27.7,1.73,1,.06.1.14.26.24.46s.3.17.57.31C1329.89,280.09,1330.71,281.25,1330.81,282.12Zm-3.11,1.18c0-.45-.44-1-1.29-1.75a6,6,0,0,0-2.34-1.32,7.21,7.21,0,0,0-1.39-.35,10.8,10.8,0,0,0-1.94-.27h0l-5.19.27-4.64.89-.42.09a19.74,19.74,0,0,1-2.52,1.05,2.55,2.55,0,0,0-.48.35,3.51,3.51,0,0,0-1.36,1,2.44,2.44,0,0,0-.66,1.38,2.21,2.21,0,0,0,.45.63,6,6,0,0,1,.62.52c.5.23,1.23.59,2.2,1.07a7.91,7.91,0,0,1,1.17.36l2.69.42H1315a24.05,24.05,0,0,0,2.91-.4l2.28-.44a14.54,14.54,0,0,1,1.69-.47,1.77,1.77,0,0,0,.63-.29c.29-.05.67-.11,1.14-.17l3.3-1.53C1327.46,284,1327.71,283.68,1327.7,283.3Zm-3.39-11.09a3.82,3.82,0,0,0-1-.78,5.89,5.89,0,0,0-3.06-.76l-1.6-.1-1.72.37-.13-.15-3.16.94a7.06,7.06,0,0,0-2.93,1.72,4.29,4.29,0,0,0,2.36,1.21,10.21,10.21,0,0,0,2.57.3l.74-.06.72-.06a27.08,27.08,0,0,0,4-.95,5,5,0,0,1,1.23-.42l1.94-.84,0-.13A.68.68,0,0,0,1324.31,272.21Z"/><path class="a00376b2-2a58-42a4-b475-57195971654f" d="M1350.39,284.17a5.3,5.3,0,0,0-.46.63,2.86,2.86,0,0,1-1.46.46l-4.82.48-3.57.08a7.71,7.71,0,0,0-2.88.41.75.75,0,0,1-.2-.07l-.19-.07h-.11a.14.14,0,0,0,0,.1.19.19,0,0,0,.1.1.75.75,0,0,1-.39.11l-.23-.29-1.43,0-1-.74a1.61,1.61,0,0,0-.39-.68,3.89,3.89,0,0,1-.34-1.31,3.07,3.07,0,0,1,.18-1.09c.15-.13.38-.34.68-.65l2.33-.07,5,.16,2.52-.23a5.66,5.66,0,0,0,.71-.24,2.28,2.28,0,0,1,.28.13l2.83-.39a10.52,10.52,0,0,0,1.63.76,7.57,7.57,0,0,1,.84,1.46c.1.17.25.4.43.68Zm-12.1,2a.22.22,0,0,1-.14.1s0,0,0,0Z"/><path class="a00376b2-2a58-42a4-b475-57195971654f" d="M1371.18,281.86a10.92,10.92,0,0,1-.87,2.12,1.29,1.29,0,0,0-.54.75,16.76,16.76,0,0,1-3.85,2.71c-.27.14-1.56.75-3.88,1.83a10.87,10.87,0,0,0-1.5.41l-1,.33-.27,0-.31,0a1.16,1.16,0,0,0-.8-.4H1358a2.19,2.19,0,0,0-.35-.49c-.12.24-.27.52-.44.84a1.2,1.2,0,0,1-.47.11h-.13l-.28.29h-.21a4.37,4.37,0,0,1-.77-.34l-.42.09c-.47-.38-.71-.71-.72-1a2.43,2.43,0,0,1-.45-1.18,2.33,2.33,0,0,1-.31-.79c0-.14-.07-.4-.14-.79a1.86,1.86,0,0,0-.16-.61v.07l0-1.44a6.4,6.4,0,0,1-.15-.94s0-.08,0-.1a2.18,2.18,0,0,1,0-.38,2.14,2.14,0,0,1,.06-.5,1.94,1.94,0,0,0-.9-.54,2,2,0,0,1-.53-1.32,2.25,2.25,0,0,1,.38-1.16,2.37,2.37,0,0,1,.81-.93l-.07-6.87c0-.45.06-1.41.12-2.86a4.43,4.43,0,0,1,.61-2.15l.31-.32a2.67,2.67,0,0,1,.67-.26l.29.06a1.28,1.28,0,0,0,.25.06,7.49,7.49,0,0,0,.69,1,12.3,12.3,0,0,1,.45,1.32.61.61,0,0,0,0,.14,5,5,0,0,0,.06.58c0,.26.07.59.11,1l.43,6.54a.28.28,0,0,0,.15.13,6.56,6.56,0,0,1,1-.13l2.8-.31h2.73c.1,0,.47,0,1.1.05s1.4.25,1.93.37c.12.05.31.15.56.29a4.92,4.92,0,0,1,2.34,1.35,5.28,5.28,0,0,1,1.43,2,9.83,9.83,0,0,0,.56,1.42S1371.18,281.89,1371.18,281.86Zm-4.48.11v-.22a3.62,3.62,0,0,0-.93-.74,10.41,10.41,0,0,0-3.38-.59,1.91,1.91,0,0,0-.37-.09h0l-2.72.19a11.86,11.86,0,0,0-2.53.76l0,.44a.75.75,0,0,0,.07.2c0,.12.07.18.07.2l0,1.46.61,3.59a.2.2,0,0,1,.15-.06.87.87,0,0,1,.14-.27,26.12,26.12,0,0,1,3.48-1.63,14.45,14.45,0,0,0,2.92-1.41A9.83,9.83,0,0,0,1366.7,282Z"/><path class="a00376b2-2a58-42a4-b475-57195971654f" d="M1377.1,285.34v0s0,.06,0,.2,0,.43,0,.68,0,.74,0,1.21l0,1.39-.39,1-.3-.06-.27.21a1.62,1.62,0,0,1-.27-.13,1.22,1.22,0,0,0-.28.14,7.73,7.73,0,0,0-1.14-.31,8.78,8.78,0,0,1-.91-2.7,4.73,4.73,0,0,1-.09-.86c0-.12,0-.24,0-.38l0-2.4.3-1.61a1.6,1.6,0,0,0,.47-.71l.72-.18a1,1,0,0,1,.44.18c.28.31.69.75,1.24,1.32a2.83,2.83,0,0,1,.48,1.37Zm.54-10.15a2.06,2.06,0,0,1-.21.29,1.92,1.92,0,0,1,.15.63,1.88,1.88,0,0,1-.72.51s-.12-.06-.27-.06-.24,0-.28.08a3.91,3.91,0,0,0-1.32-.39,5.61,5.61,0,0,1-.53-1.4v0l.09-1.51a1.75,1.75,0,0,0,.44-.37l.85,0a3.16,3.16,0,0,1,.93.94.8.8,0,0,1,.52.54A4.61,4.61,0,0,0,1377.64,275.19Z"/><path class="a00376b2-2a58-42a4-b475-57195971654f" d="M1402.09,279.41h-.46a.68.68,0,0,0-.09.33.25.25,0,0,0,0,.08.84.84,0,0,1-.41.18c-.46.5-.73.74-.83.75l-1.15,0-1.21.33a1.22,1.22,0,0,0-.4-.05l-1.71.37-.18,0-.24,0c-.13,0-.49.06-1.06.16l-1.62.28a4.37,4.37,0,0,0-1.3.58c-.36,2.49-.54,3.85-.53,4.06l0,1.05c0,.05-.06.37-.19.94a7.92,7.92,0,0,0-.19,1.08c-.34.15-.84.4-1.51.75,0,0-.19-.13-.51-.32a1.87,1.87,0,0,0-.56-.3,4.17,4.17,0,0,1-.71-1.9c0-.19-.11-.79-.22-1.79l.22-2.16,0-.82-.1-.12h-.29l-3.14.71h-.06a.48.48,0,0,1-.27-.09l-2.5.55c-.14-.09-.41-.23-.8-.42a1.26,1.26,0,0,1-.54-.62c-.09-.17-.21-.38-.35-.65a9.28,9.28,0,0,0-.19-1.15h0a1.6,1.6,0,0,1,.3-.89c.19-.3.38-.45.57-.46h0l4.89-.45,3.19-.83c.18-1.61.46-4,.85-7.24.38-1.31.73-2.4,1.05-3.28a4.84,4.84,0,0,1,1.07-1,14.89,14.89,0,0,1,1.58.92c.19,1,.29,1.51.3,1.51l-1,7.28,0,1,1.9,0h0s.1,0,.19-.11h.39l.23,0,.25,0,.44-.11.46-.1a1.24,1.24,0,0,1,.42.12,9.49,9.49,0,0,1,2-.18s.64.1,1.94.26a9.28,9.28,0,0,0,1.31.56v.08a.44.44,0,0,1-.09.29,1.27,1.27,0,0,0,.39.66h.07A.32.32,0,0,1,1402.09,279.41Z"/><path class="a00376b2-2a58-42a4-b475-57195971654f" d="M1406.29,284.64v0s0,.07,0,.21,0,.43,0,.68,0,.74,0,1.21l0,1.39-.39,1-.3-.06-.27.21-.28-.13a1,1,0,0,0-.27.14,6.52,6.52,0,0,0-1.14-.31,8.77,8.77,0,0,1-.91-2.71,4.51,4.51,0,0,1-.09-.85c0-.12,0-.24,0-.38l0-2.4.3-1.61a1.54,1.54,0,0,0,.46-.71l.73-.18a1,1,0,0,1,.44.18c.28.31.69.74,1.24,1.31a2.89,2.89,0,0,1,.48,1.38Zm.53-10.14a1.7,1.7,0,0,1-.2.29,1.92,1.92,0,0,1,.15.63,2,2,0,0,1-.72.51s-.12-.06-.27-.06a.41.41,0,0,0-.28.07,4.15,4.15,0,0,0-1.32-.38,5.61,5.61,0,0,1-.53-1.4v0l.09-1.5a1.65,1.65,0,0,0,.44-.38l.84,0a3.11,3.11,0,0,1,.94.95.8.8,0,0,1,.52.54A7.06,7.06,0,0,0,1406.82,274.5Z"/><path class="a00376b2-2a58-42a4-b475-57195971654f" d="M1429.73,270.16c0,.08-.15.21-.29.39a.65.65,0,0,0-.17.38.31.31,0,0,0,0,.11c-.06.1-.28.2-.66.29a3.55,3.55,0,0,0-.69.19h-.21q-.64-.6-.81-.6h0a1.75,1.75,0,0,0-.77-.93,2,2,0,0,0-1.18-.52,8.56,8.56,0,0,0-2.47-1.06,9.49,9.49,0,0,0-2.68-.49h0s-.51.13-1.51.35a3.63,3.63,0,0,0-1,.8,10.82,10.82,0,0,0-.51,1,27.67,27.67,0,0,0-.63,6.85,5.07,5.07,0,0,0,0,.58l.24,2.44a.59.59,0,0,0,.37.15h0l5-.31c.15,0,.34.06.59.12a3.53,3.53,0,0,0,.27.32h0c.22,0,.49.16.81.52l-.2.21v.21a.4.4,0,0,0,.27.12.43.43,0,0,0-.1.29.37.37,0,0,0,0,.16,1.5,1.5,0,0,0-.54.55,4.53,4.53,0,0,0-1.35.78c-.63.19-1.56.44-2.78.75a2,2,0,0,0-.37.28,14.55,14.55,0,0,1,1,1.56,9.19,9.19,0,0,0,.42,1.61s0,0,0,0v.21l-.91.56v.24l-.76,0a.44.44,0,0,0-.14.35,2.88,2.88,0,0,0-.71-.11l-.28.07a17.84,17.84,0,0,0-2.1-1.78c-.32-.42-.77-1-1.36-1.87h-.39a3.92,3.92,0,0,0-.53.16l-.55.15-1.22,0a1.73,1.73,0,0,1-1.24-.29c-.83,0-1.25-.48-1.27-1.41a4.74,4.74,0,0,1,1.18-2.36l.56-.18a1.4,1.4,0,0,1,.37-.07.54.54,0,0,1,.27.06,1.93,1.93,0,0,1,.76-.18h.31l.11-.1,0-.9s0-.21-.15-.58-.15-.56-.15-.58l0-1.79A25.69,25.69,0,0,1,1412,273a16.59,16.59,0,0,1,1-4.16q1.56-3.72,3.83-4.14c.23-.08,1.07-.31,2.54-.66h.15a5,5,0,0,1,1.59.33l.17-.06.18,0h0a3.68,3.68,0,0,0,.69.19.4.4,0,0,1,.25-.13,18.78,18.78,0,0,1,4.15,1.5,18,18,0,0,1,3.06,2.69.26.26,0,0,0,0,.15,2.33,2.33,0,0,0,.07.5,4.83,4.83,0,0,1,.17.65Z"/><path class="a00376b2-2a58-42a4-b475-57195971654f" d="M1438.12,282a30.56,30.56,0,0,1-1.39,6.77c-.14.51-.83,2.6-2.07,6.29a.21.21,0,0,0,.18.07h-.19l-1.18,3-1.3,4.45a7.09,7.09,0,0,0-.74.77,2.12,2.12,0,0,0-.45.12l-.35.12-.33-.08-1.33-1.37a12.69,12.69,0,0,1-.42-2l.34-2,1.22-3.82,2.38-6.07c0-.08-.07-.17-.12-.28a8.17,8.17,0,0,1-2,.49c-1.47,0-2.68-.89-3.62-2.77a11.1,11.1,0,0,1-1.2-4.76,4.46,4.46,0,0,1,.26-1.46c.16-.19.41-.45.75-.79h.19c.44,0,.87.32,1.31,1a3.23,3.23,0,0,1,.44,1.12c.5,2.11.91,3.16,1.23,3.16a5.73,5.73,0,0,0,3-1.7,17.19,17.19,0,0,0,2.56-2.7,1,1,0,0,0,.53-.28,3,3,0,0,0,.73.07c.14.15.37.43.7.81l.29.09A2.8,2.8,0,0,1,1438.12,282Z"/><path class="bda6fa98-6853-4c38-ba69-737dfdbb52dc" d="M1474.71,114.72c-6,.52-9.84,6.27-10.59,7.42-7.25,11-3.58,31,7.41,34.44,8.44,2.66,20.55-4.58,23.32-14.84C1498.46,128.33,1485,113.83,1474.71,114.72Z"/><path class="bda6fa98-6853-4c38-ba69-737dfdbb52dc" d="M1422.79,123.2c-6.29,1-10.34,8.15-11.66,13.24-3,11.62,4.42,26.94,14.31,27.55,7.74.49,15.77-8.1,17-17C1444.05,134.63,1432.21,121.74,1422.79,123.2Z"/><path class="bda6fa98-6853-4c38-ba69-737dfdbb52dc" d="M1464.12,168.76c-4.27-2.86-9.79-1.41-11.13-1.06-8.9,2.34-15.85,12.15-14.83,22.25,1.29,12.8,14.92,21.45,22.25,19.08C1471.23,205.53,1474.77,175.89,1464.12,168.76Z"/></g><g id="e05e1d6e-27df-4c97-be10-7ba5bc5c170b" data-name="eraser"><path class="a4f72004-e83b-4ff6-9424-6784932e9e4b" d="M1510.61,1095.31v40.54a17.47,17.47,0,0,0,17.47,17.47h80.08a17.47,17.47,0,0,0,17.47-17.47v-40.54Z"/><path class="b6a991d5-3856-4d2f-a1e9-ce6898c062d2" d="M1625.63,886.09a17.47,17.47,0,0,0-17.47-17.47h-80.08a17.47,17.47,0,0,0-17.47,17.47v194.06h115Z"/><path class="a9caca4e-de9a-4483-89d3-026d3c9a5bb0" d="M1510.61,1080.15v40.54a17.47,17.47,0,0,0,17.47,17.47h80.08a17.47,17.47,0,0,0,17.47-17.47v-40.54Z"/></g></g></svg>