<svg viewBox="0 0 1200 1200" xmlns="http://www.w3.org/2000/svg"><path d="m1044.98 560.61-418.9-62.65-38.35-56.19 53.37-356.84 464.63 69.49z" fill="#1f1719" opacity=".15"/><path d="m1047.16 538.37-418.9-62.65-38.35-56.18 53.37-356.85 464.63 69.5z" fill="#eece80"/><path d="m636.53 426.51-46.62-6.97 38.35 56.18z" fill="#e9bd5c"/><path d="m689.63 108.1c-18.87 21.59-33.81 40.88-30.4 44.7 5.49 6.16 54.63-32.35 59.62-26.65 6.62 7.58-75.56 81-66.06 94.09 3.11 4.28 17.24 3.81 73-24.65" fill="none" stroke="#3d3a31" stroke-linecap="round" stroke-miterlimit="10" stroke-width="7.77"/><path d="m933.73 463.96-3.34-23.16" fill="none" stroke="#3d3a31" stroke-linecap="round" stroke-miterlimit="10" stroke-width="7.77"/><path d="m981.94 457.01-3.34-23.16" fill="none" stroke="#3d3a31" stroke-linecap="round" stroke-miterlimit="10" stroke-width="7.77"/><path d="m910.78 481.75c5.52 4.67 18.43 14.19 36.9 15.79 36.61 3.16 60.46-27.75 62.19-30.07" fill="none" stroke="#3d3a31" stroke-linecap="round" stroke-miterlimit="10" stroke-width="7.77"/><g fill="#3d3a31"><path d="m753.41 383.41-.15 1.1v1.3s-.06.2-.19.56-.19.57-.2.63a2 2 0 0 1 -.58.88 9.42 9.42 0 0 1 -.38.93 26.92 26.92 0 0 1 -4.58 3.84 29.46 29.46 0 0 1 -3 1.17 1.87 1.87 0 0 0 -.45.33l-9.31 2.58a1.07 1.07 0 0 0 -.29 0 5.09 5.09 0 0 0 -.9.12c-.75.17-1.18.25-1.3.26l-4.39.37a.45.45 0 0 1 -.2-.09.54.54 0 0 0 -.17-.09h-1.63l-4.85-.91c-.61-.21-1.46-.55-2.55-1a18.79 18.79 0 0 1 -1.79-1.09c-.22-.14-.85-.6-1.89-1.37a8.55 8.55 0 0 1 -1.83-4.38 10.6 10.6 0 0 1 .58-3.66c.22-.4.57-1 1.05-1.75a9.43 9.43 0 0 1 3.68-3.88 35.24 35.24 0 0 1 4.31-2l-.13-.32a6.49 6.49 0 0 1 -2.69-2.94c-.1-.31-.21-.76-.35-1.36s-.2-1-.21-1.08a7.79 7.79 0 0 1 1-3.36 6.47 6.47 0 0 1 2.28-2.95c1.45-.49 2.17-.75 2.17-.76a1.57 1.57 0 0 1 .85.25h.8.69l.35.12c.23-.18.54-.44.92-.78l4.09-1.44 4.14-.64 2 .24a6.3 6.3 0 0 0 .7-.3 3.82 3.82 0 0 0 1.6.29q1.1 0 1.41.6c.11 0 .16-.06.15-.18a3.79 3.79 0 0 1 .72.37q2.32.19 5.19 4a5 5 0 0 1 .38 1.5l-.09.9a10.32 10.32 0 0 0 -.11 1.27 7.64 7.64 0 0 1 -.48.76 13.78 13.78 0 0 1 -.81 2 2.61 2.61 0 0 0 -1.21.76c-.19.17-.51.48-1 .92a3.34 3.34 0 0 0 .74.58 1.62 1.62 0 0 0 .71.21c1 .53 1.81 1 2.47 1.42a6.31 6.31 0 0 1 .34.66c.16.1.43.25.82.44q3.35 3.09 3.57 4.97zm-4.41 1.68c0-.64-.63-1.47-1.84-2.49a8.47 8.47 0 0 0 -3.34-1.89 11.33 11.33 0 0 0 -2-.49 15.42 15.42 0 0 0 -2.76-.4l-7.41.39-6.65 1.27c-.1 0-.3.06-.59.13a30.72 30.72 0 0 1 -3.6 1.5 3.78 3.78 0 0 0 -.68.49 5 5 0 0 0 -1.94 1.47 3.46 3.46 0 0 0 -.95 2 2.9 2.9 0 0 0 .65.9 7.9 7.9 0 0 1 .88.75c.71.32 1.76.83 3.14 1.51a10.65 10.65 0 0 1 1.66.52l3.85.6h3.45a34.6 34.6 0 0 0 4.14-.58l3.26-.63a24.23 24.23 0 0 1 2.4-.67 2.27 2.27 0 0 0 .91-.4c.41-.08 1-.16 1.63-.25l4.7-2.18c.72-.5 1.09-1.01 1.09-1.55zm-4.84-15.81a5.27 5.27 0 0 0 -1.44-1.12 8.25 8.25 0 0 0 -4.36-1.08l-2.28-.14-2.46.52-.18-.21c-.84.24-2.34.68-4.51 1.33a10.16 10.16 0 0 0 -4.18 2.46 6 6 0 0 0 3.36 1.72 14.76 14.76 0 0 0 3.67.43l1-.08 1-.08a38.86 38.86 0 0 0 5.65-1.36 7.12 7.12 0 0 1 1.75-.6l2.77-1.2.05-.19a.87.87 0 0 0 .14-.4z"/><path d="m781.34 386.33a8.44 8.44 0 0 0 -.65.9 4.26 4.26 0 0 1 -2.09.66l-6.87.68-5.09.12a10.88 10.88 0 0 0 -4.11.58 1 1 0 0 1 -.29-.1 1 1 0 0 0 -.27-.1h-.15a.15.15 0 0 0 -.07.14.29.29 0 0 0 .13.15 1.09 1.09 0 0 1 -.55.15l-.33-.42-2 .05-1.45-1.06a2.25 2.25 0 0 0 -.56-1 5.51 5.51 0 0 1 -.48-1.87 4.66 4.66 0 0 1 .25-1.56 13.19 13.19 0 0 0 1-.92l3.33-.1 7.12.22 3.59-.32a6.74 6.74 0 0 0 1-.35l.41.18 4-.55a14.88 14.88 0 0 0 2.32 1.09 10.45 10.45 0 0 1 1.2 2.08c.15.24.35.56.62 1zm-17.26 2.82a.24.24 0 0 1 -.21.14s0 0 0 0z"/><path d="m811 383a17.3 17.3 0 0 1 -1.25 3 1.83 1.83 0 0 0 -.76 1.07 24 24 0 0 1 -5.51 3.87c-.37.2-2.22 1.07-5.53 2.6a16.09 16.09 0 0 0 -2.13.59c-1 .32-1.46.47-1.48.47a2.32 2.32 0 0 1 -.4 0h-.43a1.6 1.6 0 0 0 -1.14-.57h-.25a3 3 0 0 0 -.5-.7c-.17.34-.38.74-.62 1.2a1.5 1.5 0 0 1 -.67.15h-.19l-.39.41h-.31a7.15 7.15 0 0 1 -1.1-.49 5.53 5.53 0 0 1 -.59.12c-.68-.54-1-1-1-1.37a3.42 3.42 0 0 1 -.64-1.69 3.38 3.38 0 0 1 -.45-1.12c0-.2-.09-.58-.2-1.13a2.45 2.45 0 0 0 -.23-.87v.09l-.05-2a10.2 10.2 0 0 1 -.21-1.33.63.63 0 0 1 0-.16 2.19 2.19 0 0 1 -.07-.53 2.42 2.42 0 0 1 .08-.71 2.84 2.84 0 0 0 -1.29-.78 2.9 2.9 0 0 1 -.75-1.88 3.3 3.3 0 0 1 .54-1.66 3.5 3.5 0 0 1 1.15-1.33l-.1-9.79c0-.65.08-2 .18-4.08a6.39 6.39 0 0 1 .86-3.07l.45-.45a3.63 3.63 0 0 1 1-.37 2.62 2.62 0 0 1 .42.09l.35.09a12.5 12.5 0 0 0 1 1.47c.19.48.41 1.11.64 1.88a1.34 1.34 0 0 0 0 .21 5.73 5.73 0 0 0 .08.82c0 .37.1.85.16 1.44l.61 9.31a.36.36 0 0 0 .21.19 10.6 10.6 0 0 1 1.38-.19l4-.44h3.89c.14 0 .67 0 1.58.08 1.07.18 2 .35 2.75.52.17.08.43.21.79.41a7.09 7.09 0 0 1 3.35 1.93 7.67 7.67 0 0 1 2 2.81 12.34 12.34 0 0 0 .79 2s-.02-.03-.02-.11zm-6.4.15v-.3a5.14 5.14 0 0 0 -1.33-1.06 15 15 0 0 0 -4.83-.85 3.21 3.21 0 0 0 -.52-.12l-3.89.26a17.26 17.26 0 0 0 -3.59 1.09v.63a1.84 1.84 0 0 0 .11.28 2.44 2.44 0 0 1 .1.29l.05 2.09.87 5.11a.29.29 0 0 1 .21-.08 1.19 1.19 0 0 1 .2-.39 36.43 36.43 0 0 1 5-2.32 20.84 20.84 0 0 0 4.17-2q.66-.13 3.45-2.59z"/><path d="m819.43 388v-.06a.9.9 0 0 0 0 .29c0 .29 0 .62-.07 1s0 1 0 1.72l.05 2-.56 1.43-.43-.08-.39.3a3.31 3.31 0 0 1 -.39-.19 1.66 1.66 0 0 0 -.4.2 9.23 9.23 0 0 0 -1.62-.44 12.69 12.69 0 0 1 -1.3-3.86 6.33 6.33 0 0 1 -.12-1.22c0-.17 0-.34 0-.54v-3.43l.42-2.29a2.13 2.13 0 0 0 .67-1l1-.25a1.28 1.28 0 0 1 .64.25c.39.44 1 1.06 1.77 1.87a4.19 4.19 0 0 1 .68 2zm.77-14.47a2.08 2.08 0 0 1 -.3.41 2.37 2.37 0 0 1 .22.89 2.6 2.6 0 0 1 -1 .74c-.05-.07-.18-.09-.39-.09s-.35 0-.4.11a5.49 5.49 0 0 0 -1.89-.55 8.27 8.27 0 0 1 -.75-2l.14-2.15a2.6 2.6 0 0 0 .62-.53h1.2a4.58 4.58 0 0 1 1.34 1.35 1.16 1.16 0 0 1 .74.77 8.9 8.9 0 0 0 .47 1.05z"/><path d="m855.08 379.54h-.65a1.08 1.08 0 0 0 -.14.46.5.5 0 0 0 0 .12 1.2 1.2 0 0 1 -.58.26c-.65.7-1.05 1.06-1.19 1.06h-1.64l-1.72.46a2.43 2.43 0 0 0 -.57-.06l-2.44.52h-.26a1.19 1.19 0 0 0 -.34 0 14.65 14.65 0 0 0 -1.51.22c-.51.08-1.28.21-2.31.4a6.3 6.3 0 0 0 -1.86.83c-.51 3.55-.77 5.48-.76 5.79v1.49c0 .08-.09.53-.28 1.35a11.79 11.79 0 0 0 -.27 1.54c-.48.22-1.2.57-2.16 1.07 0 0-.26-.18-.72-.47a2.8 2.8 0 0 0 -.79-.42 6.12 6.12 0 0 1 -1-2.71c0-.27-.14-1.12-.31-2.54l.31-3.1v-1.17l-.14-.16h-.42l-4.48 1h-.08a.63.63 0 0 1 -.38-.12l-3.57.79a12.22 12.22 0 0 0 -1.14-.6 1.83 1.83 0 0 1 -.77-.89c-.13-.24-.3-.54-.5-.92a16.29 16.29 0 0 0 -.27-1.64 2.29 2.29 0 0 1 .43-1.27c.27-.43.54-.65.81-.65h.05l7-.65 4.56-1.18q.38-3.45 1.21-10.34.81-2.79 1.5-4.67a7 7 0 0 1 1.51-1.4 24 24 0 0 1 2.26 1.31c.28 1.44.42 2.16.43 2.16l-1.4 10.38v1.49l2.7-.06s.14-.05.26-.16h.56.33.36l.63-.15.64-.14a1.38 1.38 0 0 1 .6.17 13.27 13.27 0 0 1 2.87-.26s.92.14 2.77.38a16.5 16.5 0 0 0 1.88.8v.11a.61.61 0 0 1 -.13.41 1.85 1.85 0 0 0 .56.94h.1a.45.45 0 0 1 .45.22z"/><path d="m861.07 387s0 .1-.05.29-.06.62-.08 1 0 1 0 1.72v2l-.56 1.43-.42-.09-.4.3-.38-.18a1.36 1.36 0 0 0 -.4.2 8.86 8.86 0 0 0 -1.62-.44 12.51 12.51 0 0 1 -1.3-3.86 7.36 7.36 0 0 1 -.13-1.23c0-.16 0-.34 0-.53v-3.43l.43-2.29a2.29 2.29 0 0 0 .67-1l1-.25a1.31 1.31 0 0 1 .64.25c.4.44 1 1.07 1.77 1.88a4 4 0 0 1 .68 1.95zm.77-14.47a2.21 2.21 0 0 1 -.3.41 2.44 2.44 0 0 1 .21.9 2.63 2.63 0 0 1 -1 .73c-.05-.06-.18-.09-.38-.09s-.35 0-.4.11a5.87 5.87 0 0 0 -1.89-.55 8.69 8.69 0 0 1 -.76-2l.14-2.15a2.47 2.47 0 0 0 .62-.53h1.21a4.57 4.57 0 0 1 1.33 1.35 1.14 1.14 0 0 1 .75.76 6.58 6.58 0 0 0 .47 1.07z"/><path d="m894.51 366.35c-.07.11-.21.3-.42.56a1 1 0 0 0 -.24.54.63.63 0 0 0 0 .16c-.08.14-.39.27-.93.4a6.26 6.26 0 0 0 -1 .27h-.3c-.6-.57-1-.86-1.15-.85-.06-.38-.43-.83-1.11-1.34a3 3 0 0 0 -1.68-.74 12.45 12.45 0 0 0 -3.51-1.51 13.19 13.19 0 0 0 -3.83-.69s-.71.19-2.15.5a5.21 5.21 0 0 0 -1.39 1.14 15.56 15.56 0 0 0 -.73 1.4 39 39 0 0 0 -.9 9.77 8.16 8.16 0 0 0 .06.83l.35 3.47a.73.73 0 0 0 .52.22l7.17-.44a4.87 4.87 0 0 1 .83.18l.39.45h.06c.31 0 .69.24 1.15.74a1.4 1.4 0 0 1 -.28.32v.27a.59.59 0 0 0 .38.19.69.69 0 0 0 -.14.4.56.56 0 0 0 .06.23 2.14 2.14 0 0 0 -.76.79 6.1 6.1 0 0 0 -1.93 1.11q-1.35.4-4 1.08a1.94 1.94 0 0 0 -.53.39 20.5 20.5 0 0 1 1.4 2.23 13.65 13.65 0 0 0 .59 2.28s0 0 0 0v.3l-1.3.8v.34h-1.08a.58.58 0 0 0 -.19.5 4.69 4.69 0 0 0 -1-.16l-.4.1a24.41 24.41 0 0 0 -3-2.53c-.46-.61-1.1-1.5-1.94-2.68h-.55s-.31.08-.76.23l-.78.21h-1.75a2.5 2.5 0 0 1 -1.77-.41c-1.18 0-1.78-.7-1.81-2 0-.72.54-1.84 1.68-3.38l.8-.24a1.67 1.67 0 0 1 .54-.11.65.65 0 0 1 .38.08 2.6 2.6 0 0 1 1.09-.25h.44l.15-.14v-1.28s-.07-.31-.21-.83-.21-.81-.22-.83l-.06-2.55a40.48 40.48 0 0 1 .35-5.47 23.84 23.84 0 0 1 1.38-5.93c1.48-3.54 3.31-5.5 5.47-5.9.32-.12 1.52-.44 3.62-.95h.21a7 7 0 0 1 2.27.46l.25-.08.25-.05a6.36 6.36 0 0 0 1 .26.6.6 0 0 1 .36-.18c.59 0 2.56.7 5.92 2.14a24.9 24.9 0 0 1 4.36 3.84.76.76 0 0 0 0 .21 3.43 3.43 0 0 0 .11.71 5.76 5.76 0 0 1 .23.93z"/><path d="m906.47 383.17c0 1.57-.62 4.8-2 9.67q-.3 1.08-3 9a.29.29 0 0 0 .26.11h-.27l-1.68 4.29-1.78 6.32a9.86 9.86 0 0 0 -1 1.1 2.9 2.9 0 0 0 -.65.16l-.49.19-.49-.12-1.88-1.95a17.36 17.36 0 0 1 -.61-2.9l.49-2.81 1.73-5.44 3.4-8.67-.16-.4a11.35 11.35 0 0 1 -2.94.7q-3.14.07-5.15-4a15.54 15.54 0 0 1 -1.71-6.78 6 6 0 0 1 .37-2.07 14.55 14.55 0 0 1 1.06-1.14h.27c.63 0 1.25.46 1.88 1.41a5.33 5.33 0 0 1 .63 1.6q1.06 4.51 1.75 4.5c1 0 2.47-.83 4.29-2.42a25.26 25.26 0 0 0 3.65-3.84 1.64 1.64 0 0 0 .76-.4 3.82 3.82 0 0 0 1 .09c.2.22.54.61 1 1.16a2.16 2.16 0 0 1 .4.12 3.94 3.94 0 0 1 .87 2.52z"/></g><path d="m958.67 144.63c-8.63.75-14 9-15.11 10.58-10.34 15.66-5.11 44.17 10.58 49.13 12 3.8 29.31-6.53 33.25-21.16 5.15-19.13-14.05-39.82-28.72-38.55z" fill="none" stroke="#3d3a31" stroke-linecap="round" stroke-miterlimit="10" stroke-width="7.77"/><path d="m884.61 156.73c-9 1.38-14.75 11.63-16.63 18.89-4.29 16.57 6.3 38.42 20.41 39.3 11 .69 22.5-11.57 24.18-24.19 2.36-17.73-14.52-36.09-27.96-34z" fill="none" stroke="#3d3a31" stroke-linecap="round" stroke-miterlimit="10" stroke-width="7.77"/><path d="m943.56 221.72c-6.09-4.08-14-2-15.87-1.51-12.69 3.32-22.62 17.33-21.17 31.79 1.85 18.25 21.3 30.59 31.75 27.2 15.43-5.04 20.48-47.31 5.29-57.48z" fill="none" stroke="#3d3a31" stroke-linecap="round" stroke-miterlimit="10" stroke-width="7.77"/><g fill="#1f1719" opacity=".15"><path d="m350.6 1039.9h-75c-120.43 0-218.06-97.63-218.06-218.06v98.16c0 120.43 97.63 218.06 218.06 218.06h75c120.43 0 218.06-97.63 218.06-218.06v-98.16c0 120.43-97.66 218.06-218.06 218.06z"/><rect height="794.17" rx="218.06" width="511.11" x="57.55" y="245.74"/><path d="m350.6 1039.9h-75c-120.43 0-218.06-97.63-218.06-218.06v98.16c0 120.43 97.63 218.06 218.06 218.06h75c120.43 0 218.06-97.63 218.06-218.06v-98.16c0 120.43-97.66 218.06-218.06 218.06z" opacity=".04"/></g><path d="m350.6 1015.15h-75c-120.43 0-218.06-97.63-218.06-218.06v98.17c0 120.43 97.63 218.06 218.06 218.06h75c120.43 0 218.06-97.63 218.06-218.06v-98.17c0 120.43-97.66 218.06-218.06 218.06z" fill="#fff"/><rect fill="#fff" height="794.17" rx="218.06" width="511.11" x="57.55" y="220.99"/><path d="m350.6 1015.15h-75c-120.43 0-218.06-97.63-218.06-218.06v98.17c0 120.43 97.63 218.06 218.06 218.06h75c120.43 0 218.06-97.63 218.06-218.06v-98.17c0 120.43-97.66 218.06-218.06 218.06z" fill="#4c4444" opacity=".04"/><g fill="#4c4444" opacity=".14"><path d="m311.41 836.41a25.07 25.07 0 0 1 2.65-11.49c5.82-11.44 18.76-13.85 20.55-14.15a24.15 24.15 0 0 1 -23.2 25.64z"/><path d="m349 879.4a25 25 0 0 1 -2.43-10.5 24.11 24.11 0 0 1 .37-4.42 26.87 26.87 0 0 1 7.6-14 24.83 24.83 0 0 1 3.52-3 32.64 32.64 0 0 0 -7.73-6.41c-2.42-1.44-6.44-3.84-11.71-4.2-3.72-.25-4.1.78-15.91 3.32-4.24.91-6.39 1.36-7.95 1.32-4.82-.11-6.84-1.87-12.6-3.31a42.87 42.87 0 0 0 -10.38-1.33c-8.51.15-16.49 6.84-21.22 13.6-.65.92-1.24 1.85-1.76 2.76a31.15 31.15 0 0 0 -3.8 11.28 45.39 45.39 0 0 0 .74 14.91c.82 4.12 2 8.1 3.06 11.83 0 0 .2.67.6 1.81a70 70 0 0 0 6.6 13.62 46.24 46.24 0 0 0 8.06 9.75c4.27 3.83 7.49 4.79 9.72 5.08a20 20 0 0 0 8.83-1.11c4.05-1.35 3.94-2.59 7.29-3.31a20.09 20.09 0 0 1 8.84.44 55.5 55.5 0 0 1 6.19 2c2.84.93 6.83 2.23 9.28 2.43 7 .57 13-6.89 17.67-12.6.63-.77 1.32-1.67 2-2.68a58.15 58.15 0 0 0 7.26-13.68l.42-1.14a26.33 26.33 0 0 1 -12.56-12.46z"/></g><path d="m877.09 699.9h91.44v57.89h-91.44z" fill="#1f1719" opacity=".15" transform="matrix(.6 -.8 .8 .6 -214.35 1028.26)"/><path d="m918.47 782.78-46.27-34.78-10.2 13.58-161.13 214.21 17.59 13.21a58.4 58.4 0 0 0 81.78-11.57l136.23-181.11z" fill="#1f1719" opacity=".15"/><path d="m820.53 657.35h91.44v57.89h-91.44z" fill="#b4aba5" transform="matrix(.60111785 -.79916039 .79916039 .60111785 -202.92 966.08)"/><path d="m866.79 692.15h91.44v57.89h-91.44z" fill="#a39b95" transform="matrix(.60111785 -.79916039 .79916039 .60111785 -212.27 1016.93)"/><path d="m908.16 775-46.26-34.76-10.22 13.59-161.11 214.17 17.58 13.22a58.41 58.41 0 0 0 81.79-11.57l136.22-181.08z" fill="#a47db0"/><path d="m815.63 705.44-18-13.54-136.22 181.1a58.41 58.41 0 0 0 11.59 81.81l17.57 13.19 161.11-214.17 10.22-13.59z" fill="#b489c1"/><path d="m861.46 664.38h31.2v16.58h-31.2z" fill="#333" transform="matrix(.79916039 .60111785 -.60111785 .79916039 580.45 -392.11)"/><path d="m907.01 698.63h31.2v16.58h-31.2z" fill="#333" transform="matrix(.79916039 .60111785 -.60111785 .79916039 610.18 -412.6)"/></svg>