<svg xmlns="http://www.w3.org/2000/svg" viewBox="0 0 2636.31 1681.8"><defs><style>.cls-1{fill:#70a7c2;}.cls-13,.cls-16,.cls-2{fill:#302d2e;}.cls-2{opacity:0.15;}.cls-3{fill:#fff;}.cls-4{opacity:0.1;}.cls-10,.cls-11,.cls-12,.cls-17,.cls-18,.cls-19,.cls-20,.cls-21,.cls-22,.cls-36,.cls-39,.cls-5,.cls-6,.cls-7,.cls-9{fill:none;}.cls-19,.cls-20,.cls-21,.cls-22,.cls-5,.cls-6,.cls-7{stroke:#000;}.cls-10,.cls-11,.cls-12,.cls-16,.cls-17,.cls-18,.cls-19,.cls-20,.cls-21,.cls-22,.cls-36,.cls-5,.cls-6,.cls-7,.cls-9{stroke-linecap:round;}.cls-10,.cls-11,.cls-12,.cls-14,.cls-16,.cls-17,.cls-18,.cls-19,.cls-20,.cls-21,.cls-22,.cls-36,.cls-39,.cls-5,.cls-6,.cls-7,.cls-9{stroke-miterlimit:10;}.cls-5,.cls-6,.cls-7{stroke-width:9px;}.cls-6{stroke-dasharray:1 65.2;}.cls-7{stroke-dasharray:1 65.2;}.cls-8{opacity:0.5;}.cls-10,.cls-11,.cls-12,.cls-36,.cls-9{stroke:#5f5a52;}.cls-9{stroke-width:9.88px;}.cls-10,.cls-11,.cls-12,.cls-9{opacity:0.58;}.cls-10{stroke-width:9.37px;}.cls-11{stroke-width:13.89px;}.cls-12{stroke-width:12.84px;}.cls-14{fill:#6d6767;stroke:#302d2e;stroke-width:1.13px;}.cls-14,.cls-16,.cls-20,.cls-21,.cls-22{opacity:0.24;}.cls-15{opacity:0.02;}.cls-16{stroke:#6d6767;stroke-width:10.41px;}.cls-17,.cls-18{stroke:#9068ad;}.cls-17,.cls-19,.cls-20{stroke-width:19.51px;}.cls-18{stroke-width:27.31px;opacity:0.66;}.cls-19{opacity:0.54;}.cls-21{stroke-width:7.8px;}.cls-22{stroke-width:5.2px;}.cls-23{fill:#9068ad;opacity:0.4;}.cls-24{fill:#393536;}.cls-25{fill:#272425;}.cls-26{fill:#fcf5f9;}.cls-27{fill:#e1dce1;}.cls-28{fill:#d18fad;}.cls-29{fill:#de98b8;}.cls-30{fill:#e5b55d;}.cls-31{fill:#d3a856;}.cls-32{fill:#c4c6c8;}.cls-33{fill:#e0e1e2;}.cls-34{fill:#eecf98;}.cls-35{fill:#eac27b;}.cls-36{stroke-width:8.25px;}.cls-37{fill:#5f5a52;}.cls-38{fill:#e4abc5;}.cls-39{stroke:#c17272;stroke-width:5.17px;}</style></defs><title>portfolio-icons</title><g id="background"><rect class="cls-1" width="2636.31" height="1681.8"/></g><g id="_8-bitify-banner" data-name="8-bitify-banner"><g id="sketch"><g id="grid"><rect class="cls-2" x="440.04" y="199.59" width="1910.35" height="1218.21"/><rect class="cls-3" x="440.04" y="176.26" width="1910.35" height="1218.21"/><g class="cls-4"><line class="cls-5" x1="567.67" y1="283.77" x2="568.17" y2="283.77"/><line class="cls-6" x1="633.37" y1="283.77" x2="2189.66" y2="283.77"/><line class="cls-5" x1="2222.26" y1="283.77" x2="2222.76" y2="283.77"/></g><g class="cls-4"><line class="cls-5" x1="567.67" y1="409.17" x2="568.17" y2="409.17"/><line class="cls-6" x1="633.37" y1="409.17" x2="2189.66" y2="409.17"/><line class="cls-5" x1="2222.26" y1="409.17" x2="2222.76" y2="409.17"/></g><g class="cls-4"><line class="cls-5" x1="567.67" y1="471.87" x2="568.17" y2="471.87"/><line class="cls-7" x1="633.37" y1="471.87" x2="2189.66" y2="471.87"/><line class="cls-5" x1="2222.26" y1="471.87" x2="2222.76" y2="471.87"/></g><g class="cls-4"><line class="cls-5" x1="567.67" y1="346.47" x2="568.17" y2="346.47"/><line class="cls-6" x1="633.37" y1="346.47" x2="2189.66" y2="346.47"/><line class="cls-5" x1="2222.26" y1="346.47" x2="2222.76" y2="346.47"/></g><g class="cls-4"><line class="cls-5" x1="567.67" y1="534.57" x2="568.17" y2="534.57"/><line class="cls-6" x1="633.37" y1="534.57" x2="2189.66" y2="534.57"/><line class="cls-5" x1="2222.26" y1="534.57" x2="2222.76" y2="534.57"/></g><g class="cls-4"><line class="cls-5" x1="567.67" y1="659.96" x2="568.17" y2="659.96"/><line class="cls-6" x1="633.37" y1="659.96" x2="2189.66" y2="659.96"/><line class="cls-5" x1="2222.26" y1="659.96" x2="2222.76" y2="659.96"/></g><g class="cls-4"><line class="cls-5" x1="567.67" y1="722.66" x2="568.17" y2="722.66"/><line class="cls-6" x1="633.37" y1="722.66" x2="2189.66" y2="722.66"/><line class="cls-5" x1="2222.26" y1="722.66" x2="2222.76" y2="722.66"/></g><g class="cls-4"><line class="cls-5" x1="567.67" y1="597.27" x2="568.17" y2="597.27"/><line class="cls-6" x1="633.37" y1="597.27" x2="2189.66" y2="597.27"/><line class="cls-5" x1="2222.26" y1="597.27" x2="2222.76" y2="597.27"/></g><g class="cls-4"><line class="cls-5" x1="567.67" y1="785.36" x2="568.17" y2="785.36"/><line class="cls-6" x1="633.37" y1="785.36" x2="2189.66" y2="785.36"/><line class="cls-5" x1="2222.26" y1="785.36" x2="2222.76" y2="785.36"/></g><g class="cls-4"><line class="cls-5" x1="567.67" y1="910.76" x2="568.17" y2="910.76"/><line class="cls-6" x1="633.37" y1="910.76" x2="2189.66" y2="910.76"/><line class="cls-5" x1="2222.26" y1="910.76" x2="2222.76" y2="910.76"/></g><g class="cls-4"><line class="cls-5" x1="567.67" y1="973.46" x2="568.17" y2="973.46"/><line class="cls-6" x1="633.37" y1="973.46" x2="2189.66" y2="973.46"/><line class="cls-5" x1="2222.26" y1="973.46" x2="2222.76" y2="973.46"/></g><g class="cls-4"><line class="cls-5" x1="567.67" y1="848.06" x2="568.17" y2="848.06"/><line class="cls-6" x1="633.37" y1="848.06" x2="2189.66" y2="848.06"/><line class="cls-5" x1="2222.26" y1="848.06" x2="2222.76" y2="848.06"/></g><g class="cls-4"><line class="cls-5" x1="567.67" y1="1036.16" x2="568.17" y2="1036.16"/><line class="cls-6" x1="633.37" y1="1036.16" x2="2189.66" y2="1036.16"/><line class="cls-5" x1="2222.26" y1="1036.16" x2="2222.76" y2="1036.16"/></g><g class="cls-4"><line class="cls-5" x1="567.67" y1="1161.56" x2="568.17" y2="1161.56"/><line class="cls-6" x1="633.37" y1="1161.56" x2="2189.66" y2="1161.56"/><line class="cls-5" x1="2222.26" y1="1161.56" x2="2222.76" y2="1161.56"/></g><g class="cls-4"><line class="cls-5" x1="567.67" y1="1224.26" x2="568.17" y2="1224.26"/><line class="cls-6" x1="633.37" y1="1224.26" x2="2189.66" y2="1224.26"/><line class="cls-5" x1="2222.26" y1="1224.26" x2="2222.76" y2="1224.26"/></g><g class="cls-4"><line class="cls-5" x1="567.67" y1="1286.96" x2="568.17" y2="1286.96"/><line class="cls-6" x1="633.37" y1="1286.96" x2="2189.66" y2="1286.96"/><line class="cls-5" x1="2222.26" y1="1286.96" x2="2222.76" y2="1286.96"/></g><g class="cls-4"><line class="cls-5" x1="567.67" y1="1098.86" x2="568.17" y2="1098.86"/><line class="cls-6" x1="633.37" y1="1098.86" x2="2189.66" y2="1098.86"/><line class="cls-5" x1="2222.26" y1="1098.86" x2="2222.76" y2="1098.86"/></g></g><g class="cls-8"><path class="cls-9" d="M1668.28,1206.05c259.9,2.18,363.75,4.59,371.08,7a18.15,18.15,0,0,0,11.85.31,21.09,21.09,0,0,0,8.3-6.11c16.17-19.47,11.32-771.72,16.94-789.83.2-.65,2.2-6.15-.08-9.59-2-3.09-6.58-3-8-3-5.86.08-345.36,4.33-367.82-4.21-1-.37-5.56-2.36-8.69,0-4.54,3.41-3.06,13.7-2.9,15.2,1.6,15.05-7.15,292.31-21.09,698.33"/><path class="cls-10" d="M1734.13,800c55.16.22,77.21.47,78.76.72a7.57,7.57,0,0,0,2.52,0,5.88,5.88,0,0,0,1.76-.63c3.43-2,2.4-79.23,3.59-81.08,0-.07.47-.64,0-1a3.36,3.36,0,0,0-1.71-.3c-1.24,0-73.3.44-78.07-.44a4.13,4.13,0,0,0-1.85,0c-1,.35-.64,1.41-.61,1.57.34,1.54-1.52,30-4.48,71.69"/><path class="cls-10" d="M1922.84,964.48c55.17.22,77.21.47,78.76.72a7.57,7.57,0,0,0,2.52,0,5.88,5.88,0,0,0,1.76-.63c3.43-2,2.4-79.23,3.6-81.08,0-.07.46-.64,0-1a3.36,3.36,0,0,0-1.71-.3c-1.24,0-73.3.44-78.07-.44a4.09,4.09,0,0,0-1.84,0c-1,.35-.65,1.41-.62,1.56.34,1.55-1.52,30-4.48,71.7"/><path class="cls-10" d="M1764.71,445.19H1821"/><path class="cls-10" d="M1870.4,719.82h137.9"/><path class="cls-10" d="M1870.4,759h137.9"/><path class="cls-10" d="M1740.91,884.29h137.9"/><path class="cls-10" d="M1740.91,923.5h137.9"/><path class="cls-10" d="M1864.06,1047H2002"/><path class="cls-10" d="M1864.06,1088h69"/><path class="cls-10" d="M1887.92,441.74h34.82"/><path class="cls-10" d="M1956.23,443.46h40.26"/><path class="cls-10" d="M2020.51,441.74h34.85"/><path class="cls-10" d="M1773.61,1053.36c-15.25,2.67-28,13.75-31.4,28.63-6.41,28,21.91,61.4,39.24,55.58,14.94-5,25.25-40.35,15.7-65.68-8.77-23.25-33.22-35.34-56.24-23.58"/></g><g class="cls-8"><path class="cls-11" d="M568.71,311.29C566,726,563,891.7,560,903.39a36.67,36.67,0,0,0-.39,18.91,35,35,0,0,0,7.57,13.24c24.13,25.81,956.31,18.06,978.75,27,.79.31,7.61,3.52,11.87-.12,3.84-3.28,3.7-10.5,3.67-12.85-.1-9.34-5.37-551,5.22-586.89.46-1.53,2.93-8.87,0-13.88-4.22-7.24-17-4.88-18.83-4.62-18.66,2.56-362.23-11.41-865.36-33.65"/><path class="cls-12" d="M687.27,899.39c91.62.36,128.22.76,130.81,1.17a13,13,0,0,0,4.17.05,10,10,0,0,0,2.93-1c5.7-3.24,4-128.52,6-131.53.07-.11.78-1,0-1.6a5.73,5.73,0,0,0-2.84-.49c-2.06,0-121.73.72-129.65-.71a6.79,6.79,0,0,0-3.06,0c-1.6.57-1.08,2.29-1,2.54.57,2.5-2.52,48.68-7.43,116.29"/><path class="cls-12" d="M637.6,399.16H793"/><path class="cls-12" d="M897.07,809.5h540.39"/><path class="cls-12" d="M897.07,872.31H1236"/><path class="cls-12" d="M1437.46,400.64h57.65"/><path class="cls-12" d="M1289.33,400.64H1347"/><path class="cls-12" d="M1168.88,399.54h57.65"/></g></g><g id="iphone"><rect class="cls-2" x="76.54" y="438.59" width="545" height="1166.93" rx="39.39"/><rect class="cls-13" x="76.54" y="418.18" width="545" height="1166.93" rx="39.39"/><ellipse class="cls-14" cx="349.05" cy="1528.86" rx="41.75" ry="43.55"/><rect class="cls-14" x="100.62" y="524.07" width="498.46" height="940.03"/><rect class="cls-3" x="115.79" y="541.27" width="468.11" height="905.63"/><rect class="cls-15" x="115.79" y="599.41" width="468.11" height="232.97"/><line class="cls-16" x1="307.29" y1="479.8" x2="380.24" y2="479.8"/><line class="cls-17" x1="141.05" y1="572.2" x2="211.43" y2="572.2"/><line class="cls-18" x1="319.82" y1="784.02" x2="390.2" y2="784.02"/><line class="cls-19" x1="512.1" y1="572.2" x2="561.02" y2="572.2"/><line class="cls-20" x1="418.84" y1="572.2" x2="467.76" y2="572.2"/><line class="cls-20" x1="321.86" y1="572.2" x2="370.78" y2="572.2"/><line class="cls-21" x1="223.77" y1="736.34" x2="486.25" y2="736.34"/><line class="cls-21" x1="223.77" y1="704.41" x2="486.25" y2="704.41"/><line class="cls-22" x1="141.05" y1="1038.02" x2="403.54" y2="1038.02"/><line class="cls-22" x1="141.05" y1="1006.09" x2="403.54" y2="1006.09"/><line class="cls-22" x1="141.05" y1="1053.99" x2="311.81" y2="1053.99"/><line class="cls-22" x1="141.05" y1="1022.06" x2="403.54" y2="1022.06"/><line class="cls-22" x1="293.18" y1="920.94" x2="555.67" y2="920.94"/><line class="cls-22" x1="293.18" y1="889.01" x2="555.67" y2="889.01"/><line class="cls-22" x1="293.18" y1="936.91" x2="463.94" y2="936.91"/><line class="cls-22" x1="293.18" y1="904.98" x2="555.67" y2="904.98"/><rect class="cls-23" x="141.05" y="874.35" width="94.6" height="74.82"/><line class="cls-22" x1="293.18" y1="1160.24" x2="555.67" y2="1160.24"/><line class="cls-22" x1="293.18" y1="1128.31" x2="555.67" y2="1128.31"/><line class="cls-22" x1="293.18" y1="1176.21" x2="463.94" y2="1176.21"/><line class="cls-22" x1="293.18" y1="1144.28" x2="555.67" y2="1144.28"/><rect class="cls-23" x="141.05" y="1113.65" width="94.6" height="74.82"/><rect class="cls-23" x="463.94" y="994" width="94.6" height="74.82"/><ellipse class="cls-23" cx="188.35" cy="1287.69" rx="31.06" ry="32.39"/><ellipse class="cls-23" cx="188.35" cy="1394.66" rx="31.06" ry="32.39"/><line class="cls-22" x1="268.98" y1="1279.7" x2="531.47" y2="1279.7"/><line class="cls-22" x1="268.98" y1="1295.67" x2="483.07" y2="1295.67"/><line class="cls-22" x1="268.98" y1="1386.68" x2="531.47" y2="1386.68"/><line class="cls-22" x1="268.98" y1="1402.64" x2="483.07" y2="1402.64"/></g><g id="pencil"><path class="cls-2" d="M2516.53,1605.83h25.7a21.13,21.13,0,0,0,21.13-21.13v-83.63h-46.83Z"/><path class="cls-2" d="M2469.71,1501.07v83.63a21.13,21.13,0,0,0,21.13,21.13h25.69V1501.07Z"/><polygon class="cls-24" points="2531.62 395.37 2516.53 359.55 2516.53 395.37 2531.62 395.37"/><polygon class="cls-25" points="2516.53 359.55 2501.45 395.37 2516.53 395.37 2516.53 359.55"/><polygon class="cls-26" points="2516.53 395.37 2501.45 395.37 2469.71 470.7 2516.53 470.7 2516.53 395.37"/><polygon class="cls-27" points="2516.53 470.7 2563.36 470.7 2531.62 395.37 2516.53 395.37 2516.53 470.7"/><path class="cls-28" d="M2516.53,1584.4h25.7a21.13,21.13,0,0,0,21.13-21.13v-83.63h-46.83Z"/><path class="cls-29" d="M2469.71,1479.64v83.63a21.13,21.13,0,0,0,21.13,21.13h25.69V1479.64Z"/><rect class="cls-30" x="2469.71" y="470.7" width="46.82" height="922.18"/><rect class="cls-31" x="2516.53" y="470.7" width="46.82" height="922.18"/><rect class="cls-32" x="2516.53" y="1392.88" width="46.82" height="86.76"/><rect class="cls-33" x="2469.71" y="1392.88" width="46.82" height="86.76"/></g><g id="post-it"><polygon class="cls-2" points="2411.98 607.97 1967.03 541.42 1926.29 481.74 1982.98 102.71 2476.51 176.52 2411.98 607.97"/><polygon class="cls-34" points="2411.76 590.69 1966.81 524.14 1926.07 464.46 1982.76 85.43 2476.29 159.24 2411.76 590.69"/><polygon class="cls-35" points="1975.6 471.87 1926.07 464.46 1966.81 524.14 1975.6 471.87"/><path class="cls-36" d="M2032,133.66c-20,22.93-35.91,43.42-32.29,47.48,5.84,6.54,58-34.36,63.33-28.31,7,8-80.26,86-70.17,99.94,3.3,4.54,18.31,4,77.54-26.18"/><line class="cls-36" x1="2291.27" y1="511.64" x2="2287.73" y2="487.04"/><line class="cls-36" x1="2342.48" y1="504.26" x2="2338.93" y2="479.66"/><path class="cls-36" d="M2266.9,530.55c5.86,5,19.57,15.06,39.2,16.76,38.87,3.36,64.21-29.47,66.05-31.94"/><path class="cls-37" d="M2099.74,426.09l-.16,1.16,0,1.38s-.06.22-.19.6a5.29,5.29,0,0,0-.22.68,2.13,2.13,0,0,1-.61.93c0,.12-.17.45-.41,1a28.73,28.73,0,0,1-4.87,4.09,29.65,29.65,0,0,1-3.14,1.23,2.15,2.15,0,0,0-.48.36l-9.89,2.74a.83.83,0,0,0-.31,0,5.87,5.87,0,0,0-.95.13,11.87,11.87,0,0,1-1.38.27l-4.67.4a.4.4,0,0,1-.2-.1.55.55,0,0,0-.19-.09l-1.73,0-5.15-1c-.64-.23-1.55-.59-2.71-1.07a21.27,21.27,0,0,1-1.9-1.16c-.24-.16-.91-.64-2-1.46a9,9,0,0,1-1.94-4.65,11.21,11.21,0,0,1,.62-3.89q.34-.63,1.11-1.86a10,10,0,0,1,3.91-4.12,37.58,37.58,0,0,1,4.57-2.12l-.13-.34a6.94,6.94,0,0,1-2.86-3.13c-.1-.32-.22-.8-.37-1.44a9.35,9.35,0,0,1-.22-1.15,8.35,8.35,0,0,1,1.08-3.57,6.88,6.88,0,0,1,2.43-3.13c1.53-.53,2.3-.79,2.3-.81a1.57,1.57,0,0,1,.9.27c.08,0,.37,0,.85,0l.74,0,.37.13c.24-.19.56-.47,1-.83l4.34-1.53,4.41-.68,2.08.26c.19-.07.43-.18.74-.32a4,4,0,0,0,1.7.3,1.65,1.65,0,0,1,1.5.64c.11,0,.16-.07.16-.19a3.66,3.66,0,0,1,.76.39c1.65.14,3.48,1.54,5.51,4.21a5.18,5.18,0,0,1,.41,1.59l-.1,1a9.71,9.71,0,0,0-.11,1.35c-.09.16-.26.43-.51.8a13.63,13.63,0,0,1-.87,2.14,2.78,2.78,0,0,0-1.28.81c-.2.18-.54.5-1,1a3.47,3.47,0,0,0,.78.61,2,2,0,0,0,.76.23c1.05.55,1.92,1.06,2.62,1.5a7.13,7.13,0,0,1,.36.7c.17.11.46.26.87.47C2098.35,423,2099.58,424.76,2099.74,426.09Zm-4.7,1.78c0-.68-.67-1.56-2-2.64a9,9,0,0,0-3.55-2,13.35,13.35,0,0,0-2.11-.52,15.61,15.61,0,0,0-2.94-.41h0l-7.86.41-7,1.34-.62.14a31,31,0,0,1-3.83,1.6,4.1,4.1,0,0,0-.72.52,5.38,5.38,0,0,0-2.06,1.56,3.69,3.69,0,0,0-1,2.08,3.29,3.29,0,0,0,.69,1,9.06,9.06,0,0,1,.94.79c.75.35,1.86.89,3.33,1.61a12.48,12.48,0,0,1,1.77.55l4.08.64h3.67a39.15,39.15,0,0,0,4.4-.61l3.46-.67a23.09,23.09,0,0,1,2.55-.72,2.36,2.36,0,0,0,1-.43l1.72-.26,5-2.32Q2095.05,428.74,2095,427.87Zm-5.14-16.79a5.37,5.37,0,0,0-1.54-1.19c-.84-.64-2.38-1-4.62-1.15l-2.43-.15-2.61.55-.19-.22c-.89.25-2.49.73-4.79,1.42a10.78,10.78,0,0,0-4.44,2.61,6.52,6.52,0,0,0,3.57,1.83,15.68,15.68,0,0,0,3.9.45l1.11-.08,1.1-.09a40.89,40.89,0,0,0,6-1.45,7.57,7.57,0,0,1,1.86-.63l2.94-1.27.06-.21A1.09,1.09,0,0,0,2089.9,411.08Z"/><path class="cls-37" d="M2129.4,429.19c-.07.07-.3.39-.68.95a4.38,4.38,0,0,1-2.23.71l-7.29.72-5.41.13a11.53,11.53,0,0,0-4.36.61,1,1,0,0,1-.31-.11,1.33,1.33,0,0,0-.28-.1h-.17a.21.21,0,0,0-.08.15.43.43,0,0,0,.15.16,1,1,0,0,1-.59.15l-.35-.44-2.16.06c-.34-.27-.85-.64-1.53-1.13a2.32,2.32,0,0,0-.6-1,5.86,5.86,0,0,1-.51-2,5,5,0,0,1,.27-1.66c.24-.2.58-.52,1-1l3.54-.11,7.56.23,3.81-.33a8.6,8.6,0,0,0,1.07-.37,3.25,3.25,0,0,1,.44.19l4.28-.59a15.47,15.47,0,0,0,2.47,1.16,11.64,11.64,0,0,1,1.27,2.21c.16.26.37.6.66,1Zm-18.32,3a.31.31,0,0,1-.22.15.06.06,0,0,1-.05,0Z"/><path class="cls-37" d="M2160.91,425.7a17.59,17.59,0,0,1-1.33,3.2,2,2,0,0,0-.81,1.14,25.44,25.44,0,0,1-5.84,4.11q-.6.32-5.88,2.76a16.41,16.41,0,0,0-2.26.63l-1.58.5-.42,0-.46,0a1.7,1.7,0,0,0-1.21-.6h-.27a2.73,2.73,0,0,0-.52-.74c-.18.35-.4.78-.66,1.27a1.68,1.68,0,0,1-.71.16h-.21l-.41.43H2138a6.67,6.67,0,0,1-1.17-.52,5.8,5.8,0,0,1-.63.14c-.72-.58-1.08-1.07-1.09-1.46a3.69,3.69,0,0,1-.68-1.8,3.49,3.49,0,0,1-.47-1.19c0-.21-.1-.61-.21-1.19a2.71,2.71,0,0,0-.25-.93v.1l-.05-2.18a8.61,8.61,0,0,1-.21-1.42.39.39,0,0,1,0-.16,2.62,2.62,0,0,1-.07-.57,2.77,2.77,0,0,1,.08-.76,3,3,0,0,0-1.36-.82,3,3,0,0,1-.8-2,3.52,3.52,0,0,1,.57-1.77,3.62,3.62,0,0,1,1.23-1.41l-.11-10.4c0-.69.09-2.14.18-4.34a6.93,6.93,0,0,1,.92-3.26l.48-.48a4,4,0,0,1,1-.39,2.9,2.9,0,0,1,.44.09l.38.1a11,11,0,0,0,1.05,1.56c.2.51.43,1.18.68,2a.79.79,0,0,0,0,.22,6.76,6.76,0,0,0,.08.88c0,.39.11.9.18,1.52l.64,9.9a.35.35,0,0,0,.23.19,11.58,11.58,0,0,1,1.46-.19l4.24-.47,4.13,0,1.67.09c1.15.19,2.12.37,2.93.56.17.07.46.22.84.42a7.63,7.63,0,0,1,3.55,2.06,8,8,0,0,1,2.17,3,14.66,14.66,0,0,0,.84,2.16S2160.91,425.74,2160.91,425.7Zm-6.79.16v-.33a5.63,5.63,0,0,0-1.41-1.13,16.16,16.16,0,0,0-5.13-.89,2.92,2.92,0,0,0-.55-.13h0l-4.13.28a17.87,17.87,0,0,0-3.82,1.15l0,.67a1.1,1.1,0,0,0,.11.3,1.48,1.48,0,0,1,.1.31l.06,2.21.92,5.44a.28.28,0,0,1,.22-.09,1.28,1.28,0,0,1,.22-.41,37.52,37.52,0,0,1,5.27-2.47,22.19,22.19,0,0,0,4.43-2.14Q2151.15,428.47,2154.12,425.86Z"/><path class="cls-37" d="M2169.87,431v-.06s0,.1-.06.3-.06.66-.07,1,0,1.12,0,1.84l.05,2.09-.6,1.52-.45-.09-.42.32a3.67,3.67,0,0,1-.41-.2,2.14,2.14,0,0,0-.42.22,8.94,8.94,0,0,0-1.72-.47,13.15,13.15,0,0,1-1.38-4.1,6.37,6.37,0,0,1-.13-1.3c0-.18,0-.37,0-.57l0-3.65.45-2.43a2.41,2.41,0,0,0,.71-1.07l1.09-.27a1.27,1.27,0,0,1,.68.27c.42.46,1,1.12,1.88,2a4.43,4.43,0,0,1,.72,2.08Zm.82-15.37a2.38,2.38,0,0,1-.32.44,2.69,2.69,0,0,1,.23,1,2.77,2.77,0,0,1-1.08.78c-.06-.07-.2-.1-.41-.09s-.38,0-.43.11a6,6,0,0,0-2-.59,9,9,0,0,1-.8-2.11V415l.15-2.28a2.86,2.86,0,0,0,.66-.56l1.28,0a4.87,4.87,0,0,1,1.42,1.43,1.23,1.23,0,0,1,.79.81A6.74,6.74,0,0,0,2170.69,415.59Z"/><path class="cls-37" d="M2207.74,422l-.69,0a.88.88,0,0,0-.15.49.25.25,0,0,0,0,.12,1.34,1.34,0,0,1-.63.28c-.68.75-1.1,1.13-1.25,1.13l-1.75,0-1.82.49a2.27,2.27,0,0,0-.61-.07l-2.6.55-.27,0-.36,0a13.06,13.06,0,0,0-1.6.24c-.54.08-1.36.22-2.45.42a6.6,6.6,0,0,0-2,.89q-.82,5.66-.81,6.14l0,1.59c0,.08-.1.56-.29,1.43a11.22,11.22,0,0,0-.29,1.63c-.51.23-1.27.61-2.29,1.14,0,0-.28-.19-.77-.49a3.08,3.08,0,0,0-.84-.45,6.47,6.47,0,0,1-1.09-2.89q-.08-.42-.33-2.7l.33-3.28,0-1.24-.14-.18h-.45l-4.76,1.09h-.08a.73.73,0,0,1-.41-.13l-3.79.84a12.11,12.11,0,0,0-1.21-.64,2,2,0,0,1-.82-.94c-.14-.25-.32-.58-.53-1a12.55,12.55,0,0,0-.29-1.75v0a2.53,2.53,0,0,1,.46-1.35c.29-.46.57-.69.86-.69h.06l7.41-.69,4.84-1.25q.4-3.67,1.28-11c.58-2,1.11-3.64,1.6-5a7.34,7.34,0,0,1,1.61-1.48,21.59,21.59,0,0,1,2.39,1.39c.3,1.52.45,2.29.47,2.29l-1.49,11,0,1.59,2.87-.07h0c.06,0,.15,0,.28-.17h.59l.36,0,.38,0,.67-.16.68-.16a1.61,1.61,0,0,1,.64.19,14,14,0,0,1,3-.27s1,.14,2.94.4a16.11,16.11,0,0,0,2,.84v.13a.61.61,0,0,1-.13.43,2,2,0,0,0,.6,1h.1A.48.48,0,0,1,2207.74,422Z"/><path class="cls-37" d="M2214.09,429.91v-.06a1.05,1.05,0,0,0-.05.31c0,.31-.06.66-.08,1s0,1.11,0,1.83l.05,2.09-.59,1.52-.45-.09-.42.32a3,3,0,0,1-.41-.2,2,2,0,0,0-.43.22,8.94,8.94,0,0,0-1.72-.47,13.7,13.7,0,0,1-1.38-4.1,7.17,7.17,0,0,1-.13-1.3c0-.18,0-.37,0-.57l0-3.64.46-2.44a2.28,2.28,0,0,0,.7-1.07l1.1-.27a1.25,1.25,0,0,1,.67.27c.42.46,1.05,1.13,1.88,2a4.25,4.25,0,0,1,.72,2.08Zm.82-15.37a2.38,2.38,0,0,1-.32.44,2.53,2.53,0,0,1,.23.95,2.77,2.77,0,0,1-1.08.78c-.06-.07-.19-.1-.41-.09s-.37,0-.42.11a6,6,0,0,0-2-.58,9.27,9.27,0,0,1-.81-2.12v0l.15-2.29a2.3,2.3,0,0,0,.66-.56l1.28,0a4.75,4.75,0,0,1,1.42,1.43,1.2,1.2,0,0,1,.79.82A7.84,7.84,0,0,0,2214.91,414.54Z"/><path class="cls-37" d="M2249.62,408a6.44,6.44,0,0,1-.45.6,1,1,0,0,0-.26.58.57.57,0,0,0,0,.16c-.09.15-.42.3-1,.43a5.63,5.63,0,0,0-1,.29h-.33c-.63-.61-1-.91-1.22-.91h0c-.06-.4-.45-.88-1.17-1.42a3.23,3.23,0,0,0-1.79-.79,13.25,13.25,0,0,0-3.73-1.6,14.47,14.47,0,0,0-4.06-.74h0s-.76.2-2.29.53a5.63,5.63,0,0,0-1.48,1.21c-.08.1-.33.59-.78,1.48a42.37,42.37,0,0,0-1,10.39c0,.2,0,.49.06.87l.37,3.7a.83.83,0,0,0,.56.23h0l7.62-.47a5.47,5.47,0,0,1,.88.18,5.37,5.37,0,0,0,.42.48h.06c.33,0,.73.26,1.22.79a2.63,2.63,0,0,1-.3.33v.3a.62.62,0,0,0,.41.2.66.66,0,0,0-.15.43.49.49,0,0,0,.07.24,2.21,2.21,0,0,0-.82.84,6.82,6.82,0,0,0-2.05,1.18c-.95.28-2.36.66-4.2,1.14a2,2,0,0,0-.56.42,23.58,23.58,0,0,1,1.48,2.37,15.89,15.89,0,0,0,.62,2.43s0,0,0,0v.32l-1.38.85v.36l-1.14,0a.58.58,0,0,0-.21.53,4.8,4.8,0,0,0-1.09-.17l-.42.11a25.92,25.92,0,0,0-3.18-2.69c-.49-.64-1.18-1.59-2.06-2.85l-.59,0a5.88,5.88,0,0,0-.81.24,8.16,8.16,0,0,1-.83.22l-1.85.05a2.66,2.66,0,0,1-1.88-.45c-1.25,0-1.89-.73-1.93-2.13,0-.76.58-1.95,1.79-3.58l.85-.27a1.84,1.84,0,0,1,.57-.11.86.86,0,0,1,.41.09,2.7,2.7,0,0,1,1.15-.27h.47l.16-.15,0-1.36s-.07-.32-.22-.88-.22-.85-.22-.88l-.07-2.71a41.06,41.06,0,0,1,.37-5.81,25.21,25.21,0,0,1,1.46-6.3q2.37-5.62,5.82-6.26c.33-.13,1.61-.47,3.84-1h.22a7.6,7.6,0,0,1,2.42.5l.26-.09.26,0h0a5.48,5.48,0,0,0,1.05.28.65.65,0,0,1,.38-.19c.62,0,2.72.74,6.28,2.27a26.69,26.69,0,0,1,4.64,4.09.54.54,0,0,0,0,.22,5.08,5.08,0,0,0,.12.75,7.56,7.56,0,0,1,.25,1Z"/><path class="cls-37" d="M2262.32,425.84c0,1.66-.66,5.09-2.1,10.26q-.31,1.15-3.13,9.52a.29.29,0,0,0,.26.12h-.28l-1.79,4.57-2,6.74a13.16,13.16,0,0,0-1.12,1.16,5.43,5.43,0,0,0-.68.18l-.53.2-.51-.13-2-2.07a18.53,18.53,0,0,1-.65-3.08l.52-3,1.84-5.79,3.61-9.2c0-.12-.1-.26-.17-.42a12.45,12.45,0,0,1-3.12.74c-2.22.06-4.05-1.35-5.47-4.2a16.7,16.7,0,0,1-1.82-7.21,6.39,6.39,0,0,1,.39-2.2c.24-.29.62-.7,1.13-1.21h.29c.66,0,1.33.49,2,1.5a5.42,5.42,0,0,1,.67,1.7c.75,3.19,1.37,4.79,1.86,4.78q1.65,0,4.56-2.58a26,26,0,0,0,3.87-4.08,1.65,1.65,0,0,0,.81-.42,4.35,4.35,0,0,0,1.1.09l1.07,1.24a2.8,2.8,0,0,1,.43.13A4.19,4.19,0,0,1,2262.32,425.84Z"/><path class="cls-36" d="M2317.76,172.46c-9.16.8-14.91,9.51-16.05,11.24-11,16.63-5.42,46.91,11.24,52.18,12.77,4,31.13-6.93,35.32-22.48C2353.74,193.09,2333.35,171.11,2317.76,172.46Z"/><path class="cls-36" d="M2239.1,185.31c-9.53,1.47-15.66,12.36-17.66,20.07-4.57,17.6,6.68,40.8,21.67,41.74,11.73.73,23.9-12.29,25.69-25.69C2271.3,202.63,2253.38,183.1,2239.1,185.31Z"/><path class="cls-36" d="M2301.71,254.34c-6.47-4.33-14.82-2.14-16.86-1.6-13.48,3.53-24,18.41-22.47,33.71,1.95,19.39,22.61,32.49,33.71,28.9C2312.48,310,2317.85,265.15,2301.71,254.34Z"/></g><g id="eraser"><path class="cls-2" d="M2102.55,1444.22v59.11a25.48,25.48,0,0,0,25.47,25.48H2244.8a25.48,25.48,0,0,0,25.48-25.48v-59.11Z"/><path class="cls-38" d="M2270.28,1139.12a25.47,25.47,0,0,0-25.48-25.47H2128a25.47,25.47,0,0,0-25.47,25.47v283h167.73Z"/><path class="cls-29" d="M2102.55,1422.11v59.12A25.48,25.48,0,0,0,2128,1506.7H2244.8a25.48,25.48,0,0,0,25.48-25.47v-59.12Z"/></g></g><g id="bleeds"><rect class="cls-39" x="71.18" y="75.83" width="2493.96" height="1530.13"/></g></svg>