<?xml version="1.0" encoding="utf-8"?>
<!-- Generator: Adobe Illustrator 23.0.1, SVG Export Plug-In . SVG Version: 6.00 Build 0)  -->
<svg version="1.1" id="Layer_1" xmlns="http://www.w3.org/2000/svg" xmlns:xlink="http://www.w3.org/1999/xlink" x="0px" y="0px"
	 viewBox="0 0 1800 864" style="enable-background:new 0 0 1800 864;" xml:space="preserve">
<style type="text/css">
	.st0{opacity:0.15;fill:#1F1719;enable-background:new    ;}
	.st1{fill:#ED3F3F;}
	.st2{fill:#E75B5B;}
	.st3{fill:#EAEAEA;}
	.st4{fill:#D6D6D6;}
	.st5{fill:none;stroke:#CECECE;stroke-width:2;stroke-miterlimit:10;}
	.st6{fill:#4C4C4C;}
	.st7{fill:none;stroke:#CECECE;stroke-width:2.08;stroke-miterlimit:10;}
	.st8{fill:#CECECE;}
	.st9{fill:#6C514B;}
	.st10{fill:#699E7F;}
	.st11{fill:#5C9373;}
	.st12{fill:#639B7A;}
	.st13{fill:#7BA788;}
	.st14{fill:#86B093;}
	.st15{fill:#6EA384;}
	.st16{fill:#BBCB68;}
	.st17{fill:#FB8A6C;}
	.st18{fill:#B489C1;}
	.st19{fill:#F2F3F3;}
	.st20{fill:none;stroke:#3D3A31;stroke-width:6.29;stroke-linecap:round;stroke-miterlimit:10;}
	.st21{opacity:0.15;}
	.st22{fill:#1F1719;}
	.st23{fill:#241F1E;}
	.st24{fill:#181214;}
	.st25{fill:#F6C9A6;}
	.st26{fill:#EEC2A0;}
	.st27{fill:#CE7AA6;}
	.st28{fill:#E084B4;}
	.st29{fill:#8E8E8E;}
	.st30{fill:#7A7A7A;}
	.st31{fill:#BDBDBD;}
	.st32{fill:#DEDEDE;}
	.st33{fill:#E2E2E2;}
	.st34{fill:#494949;}
	.st35{fill:#ED3F3F;stroke:#DDDDDD;stroke-width:3.592;stroke-miterlimit:10;}
	.st36{fill:#E2E2E2;stroke:#AFAEAE;stroke-width:0.6016;stroke-miterlimit:10;}
</style>
<g>
	<path class="st0" d="M1746.6,671.1c0-104.8-85-189.8-189.8-189.8c-50.4-0.1-98.7,19.9-134.2,55.6L1691,805.3
		C1726.7,769.8,1746.7,721.5,1746.6,671.1z"/>
	<path class="st0" d="M1422.6,536.9c-35.6,35.6-55.6,83.9-55.6,134.2c0,104.8,85,189.8,189.8,189.8c50.3,0,98.6-20,134.2-55.6
		L1422.6,536.9z"/>
	<path class="st1" d="M1746.6,652c0-104.8-85-189.8-189.8-189.8c-50.4-0.1-98.7,19.9-134.2,55.6L1691,786.3
		C1726.7,750.7,1746.7,702.4,1746.6,652z"/>
	<path class="st2" d="M1422.6,517.8c-35.6,35.6-55.6,83.9-55.6,134.2c0,104.8,85,189.8,189.8,189.8c50.3,0.1,98.6-19.9,134.2-55.6
		L1422.6,517.8z"/>
	<circle class="st3" cx="1556.8" cy="652" r="157.6"/>
	<circle class="st4" cx="1556.8" cy="652" r="148.3"/>
	<circle class="st5" cx="1556.8" cy="652" r="139.8"/>
	<path class="st3" d="M1569.1,528.5h-24.7c-20.3,0-36.8,16.5-36.8,36.8c0,0,0,0,0,0.1v77c0,20.3,16.5,36.8,36.8,36.8c0,0,0,0,0,0
		h24.7c20.3,0,36.8-16.5,36.8-36.8v-77C1605.9,545,1589.5,528.5,1569.1,528.5C1569.1,528.5,1569.1,528.5,1569.1,528.5z M1574.7,643
		v-14c0-8.2-6.6-14.9-14.8-14.9c0,0,0,0,0,0h-6.2c-8.2,0-14.9,6.7-14.9,14.9c0,0,0,0,0,0v14c0,5.8-8.1,7.1-9.9,1.6
		c-4.9-15.4,3.6-31.8,18.9-36.7s31.8,3.6,36.7,18.9c1.8,5.7,1.8,11.9,0,17.7C1582.9,650.1,1574.7,648.8,1574.7,643z M1596.7,570.9
		c0,10.7-8.6,19.4-19.3,19.4c0,0,0,0-0.1,0h-41.1c-10.7,0-19.4-8.7-19.4-19.4v-8c0-10.7,8.7-19.4,19.4-19.4h41.1
		c10.7,0,19.4,8.7,19.4,19.4L1596.7,570.9z"/>
	<circle class="st4" cx="1556.8" cy="639.1" r="8.5"/>
	<path class="st6" d="M1533.7,682h46.1c25.5,0,46.1,20.6,46.1,46.1v1.2c0,25.5-20.6,46.1-46.1,46.1h-46.1
		c-25.5,0-46.1-20.6-46.1-46.1v-1.2C1487.6,702.6,1508.3,682,1533.7,682z"/>
	<path class="st7" d="M1635.1,724.4c-3.3-35.1-16.5-166.2-27.1-184.6c-2-3.4-4.5-6.5-7.3-9.2c-9.3-8.4-21.4-10.7-29.8-11.4h-28.2
		c-7.6,0.8-19.5,3.3-29.8,11.4c-3.5,2.9-6.7,6.2-9.4,9.9c-9.3,13-19.2,85.8-25.4,185.8c-0.3,2.1-0.5,4.2-0.5,6.3v1.3
		c0,26.8,23.7,48.8,52.7,48.8h52.8c29,0,52.7-22,52.7-48.8v-1.3C1635.9,729.8,1635.6,727.1,1635.1,724.4L1635.1,724.4z"/>
</g>
<g>
	<circle class="st0" cx="268.9" cy="233.9" r="217.9"/>
	<circle class="st3" cx="268.9" cy="219.7" r="217.9"/>
	<circle class="st8" cx="268.9" cy="219.7" r="201.9"/>
	<path class="st9" d="M440.2,219.7c1.9,8.5,3.7,15.7,0.1,22.8c-1.7,3.4-2.9,3.3-6.7,7.8c-3.8,4.5-16.8,19.6-14.9,34.9
		c0.4,3.6,1.7,7.6-0.6,10.1c-1.8,1.9-3.9,1.1-6.7,1.9c-7.2,2-7,10.4-17.7,23.9c-3.7,4.6-5.5,6.9-8.6,8.8c-4.2,2.5-7.4,2.6-10.2,6.1
		c-1.8,2.3-2,4.2-2.7,6.6c-2.9,9.4-11.1,15.2-14.3,17.4c-5.6,3.9-6.1,1.9-17.6,7c-7.5,3.4-12.7,5.7-18.1,10.4
		c-8.3,7.2-8.1,12-14.1,13.6c-5,1.3-7.5-1.4-14.7-2.7c-10.1-1.9-14.7,1.6-24.4,2.8c-11.3,1.4-21.3-2.3-41.2-9.7
		c-12.6-4.7-7.5-4.3-28.4-13.1c-13.7-5.8-19.8-7.7-23.6-14.4c-2.4-4.4-2.1-7.6-6-11c-4.9-4.2-8.5-1.9-12.6-5.9
		c-4.6-4.4-1.7-8.6-6.5-13.1c-3.7-3.5-6.8-2.3-9.8-6.1c-2.3-2.9-2.2-5.9-2.7-9.3c-1.6-10.1-8.5-23.3-18.5-28.5
		c-4.1-2.1-8.1-2.6-8.9-5.8c-0.7-2.7,1.9-3.7,2.3-6.9c1-7.9-12.7-11.7-13.3-22.1c-0.2-3.5,1.4-3,1.7-8.6c0.2-5.7-1.1-11.5-3.5-16.6
		c-3.1-6.7-5.8-7.5-5.7-11.4c0.1-4,3.2-6.1,6.4-9.9c10.7-12.3,11.8-29.2,11.9-31.2c0.5-8.9-2.1-13,1.4-17.6c2.7-3.6,5.5-2.8,8.8-6.9
		c3.9-4.8,1.7-8,4.6-14.6c3.5-8.3,8-6,13-15c4.3-7.7,2.9-13,8-15.8c3-1.7,4.6-0.4,7.3-2.6c3.8-3,2.4-6.5,6.1-9.6
		c2.8-2.3,4.2-0.8,8.4-3.2c4.4-2.5,4.8-5.3,8.5-8.5c3.5-3.1,6.9-3.8,13-5.4c26.9-6.8,23.5-8.1,34.3-9.4c7.5-0.9,11.6-0.6,17.4-3.7
		c4.5-2.4,5.4-4.4,9.5-6.2c6.5-2.9,12.8-1.5,18.5-0.3c27.5,5.9,41.2,8.8,43,9c8.1,0.9,14.7,1,22.3,5.6c3.2,1.9,3.1,2.5,9.2,7.1
		c5.8,4.4,12,8.3,18.3,11.8c12.6,6.8,14.9,5.1,20.1,10.1c4.3,4.1,4.2,6.7,8.7,15.3c4.7,8.8,9.4,14.6,18.8,26.2
		c10.4,12.8,13.5,14.2,17,22.3c1.9,4.3,2.2,6.5,4.4,17C433.9,188.3,436.7,204,440.2,219.7L440.2,219.7z"/>
	<path class="st10" d="M228,111c0.7-40.3,38.3-62.6,40.8-64.1c2.5,1.4,40.1,23.8,40.8,64.1c0.5,29.7-19.1,64.1-40.8,64.1
		S227.5,140.8,228,111L228,111z"/>
	<path class="st11" d="M309.7,302c-0.7,45.8-38.3,71.1-40.9,72.8c-2.5-1.6-40.1-27-40.8-72.8c-0.5-33.7,19.1-72.8,40.8-72.8
		S310.2,268.2,309.7,302z"/>
	<path class="st10" d="M362.8,173.9c40.3,0.7,62.6,38.3,64.1,40.8c-1.4,2.5-23.8,40.1-64.1,40.8c-29.7,0.5-64.1-19.1-64.1-40.8
		S333.1,173.4,362.8,173.9z"/>
	<path class="st11" d="M181.3,255.5c-40.3-0.7-62.7-35.6-64.1-37.9c1.4-2.3,23.8-37.3,64.1-37.9c29.7-0.5,64.1,17.7,64.1,37.9
		S211,256,181.3,255.5L181.3,255.5z"/>
	<path class="st12" d="M175.3,210.6c-37.5-14.7-46.2-55.3-46.8-57.9c2.2-1.7,35.3-26.6,73.3-13.1c28,9.9,53.8,39,46.8,57.9
		C241.5,216.4,202.9,221.5,175.3,210.6L175.3,210.6z"/>
	<path class="st13" d="M177.8,178.9c-28-29-16.4-72.2-15.6-75c2.8-0.8,46-12.4,75,15.6c21.4,20.6,31.4,59.2,15.6,75
		S198.5,200.3,177.8,178.9L177.8,178.9z"/>
	<path class="st11" d="M329.5,149.4c34.7-13.6,65,6,67,7.3c-0.5,2.3-8.4,37.6-42.7,52.2c-25.3,10.8-60.5,8.5-67-7.3
		S303.9,159.5,329.5,149.4z"/>
	<path class="st14" d="M199.4,149.3c-13.5-34.8,11.8-67.4,13.5-69.5c2.7,0.3,43.7,5.9,58.4,40.1c10.9,25.2,5.6,61.7-13.5,69.5
		S209.4,174.9,199.4,149.3z"/>
	<path class="st12" d="M224.7,281.3c-29.1,19.9-64.6,3.8-66.9,2.7c-0.3-2.6-4.1-41.4,24.2-62.5c20.9-15.5,55.6-18.6,66.9-2.7
		S246.1,266.6,224.7,281.3L224.7,281.3z"/>
	<path class="st12" d="M340.4,254.7c12.7,32.9-11.2,63.7-12.8,65.8c-2.6-0.3-41.3-5.6-55.2-37.9c-10.3-23.9-5.3-58.3,12.8-65.8
		C303.3,209.4,331,230.5,340.4,254.7L340.4,254.7z"/>
	<path class="st15" d="M263,288.5c-16.8,34.2-58.9,37.8-61.7,38c-1.6-2.3-25.8-36.9-10.2-71.7c11.5-25.7,42.6-46.9,61.7-38
		C271.9,225.8,275.4,263.4,263,288.5z"/>
	<path class="st14" d="M307.6,124.6c28.9-28.1,67.4-21.2,69.9-20.7c0.5,2.5,7.4,41-20.7,69.9c-20.7,21.3-56.8,33.8-69.9,20.7
		C273.8,181.4,286.3,145.3,307.6,124.6L307.6,124.6z"/>
	<path class="st11" d="M345.4,225.7c26.5,27.4,15.5,68.3,14.7,70.9c-2.7,0.8-43.5,11.7-70.9-14.7c-20.2-19.5-29.7-56-14.7-70.9
		C289.4,196,325.9,205.5,345.4,225.7L345.4,225.7z"/>
	<path class="st12" d="M320.6,149.7c6.4-31.1-13.2-57.8-19.2-65.3c-8.7,4.1-38.1,19.2-46.2,49.9c-7,26.4,2.6,61.4,19.2,65.3
		C290.9,203.5,315.1,176.5,320.6,149.7L320.6,149.7z"/>
	<path class="st10" d="M304.9,250.2c28.3,14.4,59.2,2.4,68-1.3c-1.7-9.4-8.4-41.8-36-57.7c-23.6-13.7-59.9-13.6-68,1.3
		C260.8,207.4,280.6,237.8,304.9,250.2z"/>
	<path class="st11" d="M215.5,189.4c-28.4,14.2-37.1,46.2-39.3,55.5c8.6,4.3,38.7,18,67.8,5.3c25-10.9,46.5-40.1,39.3-55.5
		S239.9,177.2,215.5,189.4z"/>
</g>
<path class="st0" d="M1695.2,121.1c10.7,9.1,25.4,21.6,34.7,40.6c4.8,9.9,10,20.6,8.1,34.3c-1.9,13.4-9.6,22.6-15.1,29.2
	c-1.8,2.2-7.7,9-27.2,21.8c-14.4,9.7-29.7,18.1-45.6,25c-12.9,5.5-26.2,9.9-39.8,13.4c-14,3.8-20.6,4.6-27.3,4.5
	c-8.6-0.2-17.2,0.6-24.4-4.7c-0.6-0.4-1.2-0.9-1.8-1.4c-6.7-6-8.6-14.3-9.8-22.9c-1.3-9.2-1.8-18.4-1.6-27.7c0.4-14,1.9-28,4.5-41.7
	c3.3-17.1,8.2-33.8,14.6-49.9c8.3-21.8,13.7-29,15.4-31.2c5.3-6.8,12.6-16.3,25.3-21.1c12.9-4.8,24.5-2,35.2,0.5
	c20.6,5,36,16.6,47.2,25.1C1690.1,116.9,1692.7,119,1695.2,121.1L1695.2,121.1z"/>
<path class="st16" d="M1695.2,108c10.7,9.1,25.4,21.6,34.7,40.6c4.8,9.9,10,20.6,8.1,34.3c-1.9,13.4-9.6,22.6-15.1,29.2
	c-1.8,2.2-7.7,9-27.2,21.8c-14.4,9.7-29.7,18.1-45.6,25c-12.9,5.5-26.2,9.9-39.8,13.4c-14,3.8-20.6,4.6-27.3,4.5
	c-8.6-0.2-17.2,0.6-24.4-4.7c-0.6-0.4-1.2-0.9-1.8-1.4c-6.7-6-8.6-14.3-9.8-22.9c-1.3-9.2-1.8-18.4-1.6-27.7c0.4-14,1.9-28,4.5-41.7
	c3.3-17.1,8.2-33.8,14.6-49.9c8.3-21.8,13.7-29,15.4-31.2c5.3-6.8,12.6-16.3,25.3-21.1c12.9-4.8,24.5-2,35.2,0.5
	c20.6,5,36,16.6,47.2,25.1C1690.1,103.9,1692.7,106,1695.2,108L1695.2,108z"/>
<path class="st0" d="M1564.1,19.7c13.8,2.5,32.8,6,50.4,17.8c9.2,6.2,19,12.8,24.2,25.6c5.1,12.6,3,24.4,1.6,32.9
	c-0.5,2.8-2.2,11.6-12.6,32.4c-7.6,15.6-16.6,30.5-27,44.5c-8.4,11.2-17.7,21.7-27.8,31.5c-10.2,10.3-15.5,14.3-21.4,17.5
	c-7.5,4.2-14.6,9.1-23.5,8.2c-0.8-0.1-1.5-0.2-2.3-0.4c-8.8-1.8-14.6-8.1-19.9-14.9c-5.7-7.3-10.8-15-15.2-23.2
	c-6.6-12.3-12.3-25.2-17-38.4c-5.7-16.4-9.8-33.3-12.4-50.5c-3.7-23-2.7-31.9-2.3-34.7c1.1-8.5,2.7-20.4,11.3-30.9
	c8.8-10.7,20.2-14,30.8-17.2c20.3-6,39.5-3.6,53.4-1.9C1557.6,18.6,1560.8,19.1,1564.1,19.7L1564.1,19.7z"/>
<path class="st0" d="M1370,101.4c13.3-4.4,31.6-10.5,52.8-8.6c11,1,22.8,2.1,33.5,10.8c10.5,8.6,14.4,19.9,17.2,28.1
	c0.9,2.7,3.7,11.3,4.5,34.5c0.9,17.4,0.1,34.8-2.3,52c-2,13.9-5.1,27.6-9.2,41c-4,13.9-6.8,20-10.4,25.7c-4.6,7.3-8.4,15-16.7,18.5
	c-0.7,0.3-1.4,0.6-2.2,0.8c-8.6,2.7-16.7-0.1-24.6-3.5c-8.5-3.6-16.7-8-24.5-13c-11.8-7.6-22.9-16.1-33.4-25.5
	c-12.9-11.7-24.6-24.5-35.1-38.3c-14.3-18.4-17.7-26.7-18.7-29.4c-3.1-8-7.5-19.2-4.9-32.5c2.6-13.6,11-22,18.7-29.8
	c14.9-15.1,32.9-22.1,45.9-27.3C1363.8,103.6,1366.9,102.5,1370,101.4L1370,101.4z"/>
<path class="st17" d="M1564.1,6.7c13.8,2.5,32.8,6,50.4,17.8c9.2,6.2,19,12.8,24.2,25.6c5.1,12.6,3,24.4,1.6,32.9
	c-0.5,2.8-2.2,11.6-12.6,32.4c-7.6,15.6-16.6,30.5-27,44.5c-8.4,11.2-17.7,21.7-27.8,31.5c-10.2,10.3-15.5,14.3-21.4,17.5
	c-7.5,4.2-14.6,9.1-23.5,8.2c-0.8-0.1-1.5-0.2-2.3-0.4c-8.8-1.8-14.6-8.1-19.9-14.9c-5.7-7.3-10.8-15-15.2-23.2
	c-6.6-12.3-12.3-25.2-17-38.4c-5.7-16.4-9.8-33.3-12.4-50.5c-3.7-23-2.7-31.9-2.3-34.7c1.1-8.5,2.7-20.4,11.3-30.9
	c8.8-10.7,20.2-14,30.8-17.2c20.3-6,39.5-3.6,53.4-1.9C1557.6,5.6,1560.8,6.1,1564.1,6.7L1564.1,6.7z"/>
<path class="st18" d="M1370,88.4c13.3-4.4,31.6-10.5,52.8-8.6c11,1,22.8,2.1,33.5,10.8c10.5,8.6,14.4,19.9,17.2,28.1
	c0.9,2.7,3.7,11.3,4.5,34.5c0.9,17.4,0.1,34.8-2.3,52c-2,13.9-5.1,27.6-9.2,41c-4,13.9-6.8,20-10.4,25.7c-4.6,7.3-8.4,15-16.7,18.5
	c-0.7,0.3-1.4,0.6-2.2,0.8c-8.6,2.7-16.7-0.1-24.6-3.5c-8.5-3.6-16.7-8-24.5-13c-11.8-7.6-22.9-16.1-33.4-25.5
	c-12.9-11.7-24.6-24.5-35.1-38.3c-14.3-18.4-17.7-26.7-18.7-29.4c-3.1-8-7.5-19.2-4.9-32.5c2.6-13.6,11-22,18.7-29.8
	c14.9-15,32.9-22.1,45.9-27.3C1363.8,90.6,1366.9,89.5,1370,88.4L1370,88.4z"/>
<path class="st0" d="M617.8,11.9h634.3V784H617.8L617.8,11.9z"/>
<path class="st19" d="M617.8,2.9h634.3V775H617.8L617.8,2.9z"/>
<g>
	<path class="st20" d="M827.2,285.2c-9.7,51.4-2.4,90.2,16.3,97.2c10.7,4.1,25-2.4,32.6-10.8c17.7-19.8-16.2-86.8-22.2-92.6"/>
	<path class="st20" d="M755.7,289.4l18.4-22.5"/>
	<path class="st20" d="M860.7,238.7l27.2,11.5"/>
	<path class="st20" d="M750.2,403.8c10.5,11.5,20.2,15.2,27.1,16.5c27.3,4.9,47.5-21.9,72.9-13.4c5.1,1.7,9.7,4.6,13.6,8.2
		c2.8-5.4,7.8-13,16.5-17.2c15.7-7.7,28.8,2.6,45.2-3c7.3-2.5,17.1-8.7,25.7-26"/>
	<path class="st20" d="M707.2,221.7c14.1-37,22-48,26.5-47c5.8,1.2,6.6,22.4,8.4,22.2c1.7-0.1-2.1-17.5,4.3-33.7
		c8.7-22.2,34.1-36.7,40.4-31.9s-5.4,30.9-3.7,31.6c2.1,0.8,11.2-40.9,43.5-61.3c11-7,23.5-10.7,26.4-7.2s-5.5,11.3-6.5,27.2
		c-0.2,2.2-1.1,17.4,3.8,19.1c7.8,2.8,18.2-32.9,51.4-47.6c10.7-4.7,23.3-7.1,25.2-3.7c1.7,2.9-5.5,8.3-14.7,21.9
		c-5.8,8.7-16,25.9-12.6,29.1c3.7,3.5,18.1-14.8,36.4-11.6c9.9,1.7,19.5,9.4,18.9,15.3c-0.4,4.3-6.2,5.4-12.5,10.7
		c-6.1,5.2-11.6,13.4-14.3,26.9"/>
</g>
<g class="st21">
	<path class="st22" d="M1171.4,105.1l22.5,5.6l-2.8-53.6l-1.3-25.5l-13.2,21.8l-27.7,45.9L996.1,708.3l22.5,5.6l-2.3,9.3l2.3-9.3
		l-22.5-5.6l-9.6,38.2l-6.2,4.8l27.1,6.8l22.5,5.6l4.8,1.2l-3.2-7.3l9.6-38l152.8-608.8L1171.4,105.1z"/>
	<path class="st22" d="M1005.1,768.1l2.5-10l-27.2-6.8l-2.5,10h-0.1L964,816.5c-1.9,7.7,2,15.3,8.8,17l14.9,3.8l14.9,3.7
		c6.8,1.7,13.8-3.2,15.8-10.9l5.6-22.2l10.8-43.1l-27.2-6.8L1005.1,768.1z"/>
</g>
<path class="st23" d="M1188.1,48.1l-1.3-25.5l-5.9,23.6L1188.1,48.1z"/>
<path class="st24" d="M1186.8,22.7l-13.2,21.8l7.2,1.8L1186.8,22.7z"/>
<path class="st25" d="M1180.8,46.3l-7.2-1.8l-27.7,45.9l22.5,5.6L1180.8,46.3z"/>
<path class="st26" d="M1168.4,96.1l22.5,5.6l-2.8-53.6l-7.2-1.8L1168.4,96.1z"/>
<path class="st27" d="M984.7,828.3l14.9,3.8c6.8,1.7,13.8-3.2,15.8-10.9l13.8-55.2l-27.2-6.8L984.7,828.3z"/>
<path class="st28" d="M974.8,752.3L961,807.5c-1.9,7.7,2,15.3,8.8,17l14.9,3.8l17.3-69.2L974.8,752.3z"/>
<path class="st29" d="M993.1,699.2l152.7-608.8l22.5,5.6l-152.7,608.8L993.1,699.2z"/>
<path class="st30" d="M1015.6,704.8L1168.3,96l22.5,5.6l-152.7,608.8L1015.6,704.8z"/>
<path class="st31" d="M1004.5,749l11.1-44.2l22.5,5.6l-11.1,44.2L1004.5,749z"/>
<path class="st32" d="M982,743.3l11.1-44.2l22.5,5.6l-11.1,44.2L982,743.3z"/>
<path class="st31" d="M993.7,792.1l10.8-43.1l27.2,6.8l-10.8,43.1L993.7,792.1z"/>
<path class="st32" d="M966.6,785.3l10.8-43.1l27.2,6.8l-10.8,43.1L966.6,785.3z"/>
<path class="st32" d="M1013.3,714.2l-35.9,28.1l27.2,6.8L1013.3,714.2z"/>
<path class="st31" d="M1013.4,714.2l18.4,41.7l-27.1-6.8L1013.4,714.2z"/>
<path class="st0" d="M30.5,574.3h607.4c5,0,9,4,9,9v244.4c0,5-4,9-9,9H30.5c-5,0-9-4-9-9V583.3C21.4,578.3,25.5,574.3,30.5,574.3z"
	/>
<path class="st33" d="M30.5,561.1h607.4c5,0,9,4,9,9v244.4c0,5-4,9-9,9H30.5c-5,0-9-4-9-9V570.2C21.4,565.2,25.5,561.1,30.5,561.1z"
	/>
<path class="st34" d="M49.2,605.8h570.5c5.6,0,10.1,4.5,10.1,10.1v179.1c0,5.6-4.5,10.1-10.1,10.1H49.2c-5.6,0-10.1-4.5-10.1-10.1
	V615.9C39.1,610.3,43.6,605.8,49.2,605.8z"/>
<path class="st35" d="M179,697.4h-31.3c-1.9,0-3.5-1.6-3.5-3.5v-31.3c0-1.9-1.6-3.5-3.5-3.5h-28.6c-1.9,0-3.5,1.6-3.5,3.5V694
	c0,1.9-1.6,3.5-3.5,3.5H73.9c-1.9,0-3.5,1.6-3.5,3.5v28.6c0,1.9,1.6,3.5,3.5,3.5h31.3c1.9,0,3.5,1.6,3.5,3.5v31.3
	c0,1.9,1.6,3.5,3.5,3.5h28.6c1.9,0,3.5-1.6,3.5-3.5v-31.3c0-1.9,1.6-3.5,3.5-3.5h31.3c1.9,0,3.5-1.6,3.5-3.5v-28.6
	C182.4,699,180.9,697.5,179,697.4L179,697.4z"/>
<path class="st33" d="M428.5,709.1H492c2.1,0,3.9,1.7,3.9,3.9v63.4c0,2.1-1.7,3.9-3.9,3.9h-63.4c-2.1,0-3.9-1.7-3.9-3.9V713
	C424.7,710.8,426.4,709.1,428.5,709.1z"/>
<path class="st33" d="M507.7,709.1h63.4c2.1,0,3.9,1.7,3.9,3.9v63.4c0,2.1-1.7,3.9-3.9,3.9h-63.4c-2.1,0-3.9-1.7-3.9-3.9V713
	C503.8,710.8,505.6,709.1,507.7,709.1z"/>
<circle class="st1" cx="539.4" cy="744.7" r="25.9"/>
<circle class="st1" cx="460.3" cy="744.7" r="25.9"/>
<path class="st33" d="M233.9,715.2h152.8c6.9,0,12.5,5.6,12.5,12.5v35.9c0,6.9-5.6,12.5-12.5,12.5H233.9c-6.9,0-12.5-5.6-12.5-12.5
	v-35.9C221.4,720.8,227,715.2,233.9,715.2z"/>
<path class="st36" d="M241.9,723.5h136.9c5.6,0,10.1,4.5,10.1,10.1v24.2c0,5.6-4.5,10.1-10.1,10.1H241.9c-5.6,0-10.1-4.5-10.1-10.1
	v-24.2C231.8,728,236.3,723.5,241.9,723.5z"/>
<g>
	<path class="st1" d="M252.2,737.4h30.2c4.9,0,8.9,4,8.9,8.9v1.1c0,4.9-4,8.9-8.9,8.9h-30.2c-4.9,0-8.9-4-8.9-8.9v-1.1
		C243.2,741.4,247.2,737.4,252.2,737.4z"/>
	<path class="st1" d="M337.4,737.4h30.2c4.9,0,8.9,4,8.9,8.9v1.1c0,4.9-4,8.9-8.9,8.9h-30.2c-4.9,0-8.9-4-8.9-8.9v-1.1
		C328.5,741.4,332.4,737.4,337.4,737.4z"/>
</g>
</svg>
