<svg enable-background="new 0 0 1800 864" viewBox="0 0 1800 864" xmlns="http://www.w3.org/2000/svg"><path d="m1746.6 671.1c0-104.8-85-189.8-189.8-189.8-50.4-.1-98.7 19.9-134.2 55.6l268.4 268.4c35.7-35.5 55.7-83.8 55.6-134.2z" fill="#1f1719" opacity=".15"/><path d="m1422.6 536.9c-35.6 35.6-55.6 83.9-55.6 134.2 0 104.8 85 189.8 189.8 189.8 50.3 0 98.6-20 134.2-55.6z" fill="#1f1719" opacity=".15"/><path d="m1746.6 652c0-104.8-85-189.8-189.8-189.8-50.4-.1-98.7 19.9-134.2 55.6l268.4 268.5c35.7-35.6 55.7-83.9 55.6-134.3z" fill="#ed3f3f"/><path d="m1422.6 517.8c-35.6 35.6-55.6 83.9-55.6 134.2 0 104.8 85 189.8 189.8 189.8 50.3.1 98.6-19.9 134.2-55.6z" fill="#e75b5b"/><circle cx="1556.8" cy="652" fill="#eaeaea" r="157.6"/><circle cx="1556.8" cy="652" fill="#d6d6d6" r="148.3"/><circle cx="1556.8" cy="652" fill="none" r="139.8" stroke="#cecece" stroke-miterlimit="10" stroke-width="2"/><path d="m1569.1 528.5h-24.7c-20.3 0-36.8 16.5-36.8 36.8v.1 77c0 20.3 16.5 36.8 36.8 36.8h24.7c20.3 0 36.8-16.5 36.8-36.8v-77c0-20.4-16.4-36.9-36.8-36.9zm5.6 114.5v-14c0-8.2-6.6-14.9-14.8-14.9h-6.2c-8.2 0-14.9 6.7-14.9 14.9v14c0 5.8-8.1 7.1-9.9 1.6-4.9-15.4 3.6-31.8 18.9-36.7s31.8 3.6 36.7 18.9c1.8 5.7 1.8 11.9 0 17.7-1.6 5.6-9.8 4.3-9.8-1.5zm22-72.1c0 10.7-8.6 19.4-19.3 19.4 0 0 0 0-.1 0h-41.1c-10.7 0-19.4-8.7-19.4-19.4v-8c0-10.7 8.7-19.4 19.4-19.4h41.1c10.7 0 19.4 8.7 19.4 19.4z" fill="#eaeaea"/><circle cx="1556.8" cy="639.1" fill="#d6d6d6" r="8.5"/><path d="m1533.7 682h46.1c25.5 0 46.1 20.6 46.1 46.1v1.2c0 25.5-20.6 46.1-46.1 46.1h-46.1c-25.5 0-46.1-20.6-46.1-46.1v-1.2c0-25.5 20.7-46.1 46.1-46.1z" fill="#4c4c4c"/><path d="m1635.1 724.4c-3.3-35.1-16.5-166.2-27.1-184.6-2-3.4-4.5-6.5-7.3-9.2-9.3-8.4-21.4-10.7-29.8-11.4h-28.2c-7.6.8-19.5 3.3-29.8 11.4-3.5 2.9-6.7 6.2-9.4 9.9-9.3 13-19.2 85.8-25.4 185.8-.3 2.1-.5 4.2-.5 6.3v1.3c0 26.8 23.7 48.8 52.7 48.8h52.8c29 0 52.7-22 52.7-48.8v-1.3c.1-2.8-.2-5.5-.7-8.2z" fill="none" stroke="#cecece" stroke-miterlimit="10" stroke-width="2.08"/><circle cx="268.9" cy="233.9" fill="#1f1719" opacity=".15" r="217.9"/><circle cx="268.9" cy="219.7" fill="#eaeaea" r="217.9"/><circle cx="268.9" cy="219.7" fill="#cecece" r="201.9"/><path d="m440.2 219.7c1.9 8.5 3.7 15.7.1 22.8-1.7 3.4-2.9 3.3-6.7 7.8s-16.8 19.6-14.9 34.9c.4 3.6 1.7 7.6-.6 10.1-1.8 1.9-3.9 1.1-6.7 1.9-7.2 2-7 10.4-17.7 23.9-3.7 4.6-5.5 6.9-8.6 8.8-4.2 2.5-7.4 2.6-10.2 6.1-1.8 2.3-2 4.2-2.7 6.6-2.9 9.4-11.1 15.2-14.3 17.4-5.6 3.9-6.1 1.9-17.6 7-7.5 3.4-12.7 5.7-18.1 10.4-8.3 7.2-8.1 12-14.1 13.6-5 1.3-7.5-1.4-14.7-2.7-10.1-1.9-14.7 1.6-24.4 2.8-11.3 1.4-21.3-2.3-41.2-9.7-12.6-4.7-7.5-4.3-28.4-13.1-13.7-5.8-19.8-7.7-23.6-14.4-2.4-4.4-2.1-7.6-6-11-4.9-4.2-8.5-1.9-12.6-5.9-4.6-4.4-1.7-8.6-6.5-13.1-3.7-3.5-6.8-2.3-9.8-6.1-2.3-2.9-2.2-5.9-2.7-9.3-1.6-10.1-8.5-23.3-18.5-28.5-4.1-2.1-8.1-2.6-8.9-5.8-.7-2.7 1.9-3.7 2.3-6.9 1-7.9-12.7-11.7-13.3-22.1-.2-3.5 1.4-3 1.7-8.6.2-5.7-1.1-11.5-3.5-16.6-3.1-6.7-5.8-7.5-5.7-11.4.1-4 3.2-6.1 6.4-9.9 10.7-12.3 11.8-29.2 11.9-31.2.5-8.9-2.1-13 1.4-17.6 2.7-3.6 5.5-2.8 8.8-6.9 3.9-4.8 1.7-8 4.6-14.6 3.5-8.3 8-6 13-15 4.3-7.7 2.9-13 8-15.8 3-1.7 4.6-.4 7.3-2.6 3.8-3 2.4-6.5 6.1-9.6 2.8-2.3 4.2-.8 8.4-3.2 4.4-2.5 4.8-5.3 8.5-8.5 3.5-3.1 6.9-3.8 13-5.4 26.9-6.8 23.5-8.1 34.3-9.4 7.5-.9 11.6-.6 17.4-3.7 4.5-2.4 5.4-4.4 9.5-6.2 6.5-2.9 12.8-1.5 18.5-.3 27.5 5.9 41.2 8.8 43 9 8.1.9 14.7 1 22.3 5.6 3.2 1.9 3.1 2.5 9.2 7.1 5.8 4.4 12 8.3 18.3 11.8 12.6 6.8 14.9 5.1 20.1 10.1 4.3 4.1 4.2 6.7 8.7 15.3 4.7 8.8 9.4 14.6 18.8 26.2 10.4 12.8 13.5 14.2 17 22.3 1.9 4.3 2.2 6.5 4.4 17 2.7 15.2 5.5 30.9 9 46.6z" fill="#6c514b"/><path d="m228 111c.7-40.3 38.3-62.6 40.8-64.1 2.5 1.4 40.1 23.8 40.8 64.1.5 29.7-19.1 64.1-40.8 64.1s-41.3-34.3-40.8-64.1z" fill="#699e7f"/><path d="m309.7 302c-.7 45.8-38.3 71.1-40.9 72.8-2.5-1.6-40.1-27-40.8-72.8-.5-33.7 19.1-72.8 40.8-72.8s41.4 39 40.9 72.8z" fill="#5c9373"/><path d="m362.8 173.9c40.3.7 62.6 38.3 64.1 40.8-1.4 2.5-23.8 40.1-64.1 40.8-29.7.5-64.1-19.1-64.1-40.8s34.4-41.3 64.1-40.8z" fill="#699e7f"/><path d="m181.3 255.5c-40.3-.7-62.7-35.6-64.1-37.9 1.4-2.3 23.8-37.3 64.1-37.9 29.7-.5 64.1 17.7 64.1 37.9s-34.4 38.4-64.1 37.9z" fill="#5c9373"/><path d="m175.3 210.6c-37.5-14.7-46.2-55.3-46.8-57.9 2.2-1.7 35.3-26.6 73.3-13.1 28 9.9 53.8 39 46.8 57.9-7.1 18.9-45.7 24-73.3 13.1z" fill="#639b7a"/><path d="m177.8 178.9c-28-29-16.4-72.2-15.6-75 2.8-.8 46-12.4 75 15.6 21.4 20.6 31.4 59.2 15.6 75s-54.3 5.8-75-15.6z" fill="#7ba788"/><path d="m329.5 149.4c34.7-13.6 65 6 67 7.3-.5 2.3-8.4 37.6-42.7 52.2-25.3 10.8-60.5 8.5-67-7.3s17.1-42.1 42.7-52.2z" fill="#5c9373"/><path d="m199.4 149.3c-13.5-34.8 11.8-67.4 13.5-69.5 2.7.3 43.7 5.9 58.4 40.1 10.9 25.2 5.6 61.7-13.5 69.5s-48.4-14.5-58.4-40.1z" fill="#86b093"/><path d="m224.7 281.3c-29.1 19.9-64.6 3.8-66.9 2.7-.3-2.6-4.1-41.4 24.2-62.5 20.9-15.5 55.6-18.6 66.9-2.7s-2.8 47.8-24.2 62.5z" fill="#639b7a"/><path d="m340.4 254.7c12.7 32.9-11.2 63.7-12.8 65.8-2.6-.3-41.3-5.6-55.2-37.9-10.3-23.9-5.3-58.3 12.8-65.8 18.1-7.4 45.8 13.7 55.2 37.9z" fill="#639b7a"/><path d="m263 288.5c-16.8 34.2-58.9 37.8-61.7 38-1.6-2.3-25.8-36.9-10.2-71.7 11.5-25.7 42.6-46.9 61.7-38 19.1 9 22.6 46.6 10.2 71.7z" fill="#6ea384"/><path d="m307.6 124.6c28.9-28.1 67.4-21.2 69.9-20.7.5 2.5 7.4 41-20.7 69.9-20.7 21.3-56.8 33.8-69.9 20.7s-.6-49.2 20.7-69.9z" fill="#86b093"/><path d="m345.4 225.7c26.5 27.4 15.5 68.3 14.7 70.9-2.7.8-43.5 11.7-70.9-14.7-20.2-19.5-29.7-56-14.7-70.9 14.9-15 51.4-5.5 70.9 14.7z" fill="#5c9373"/><path d="m320.6 149.7c6.4-31.1-13.2-57.8-19.2-65.3-8.7 4.1-38.1 19.2-46.2 49.9-7 26.4 2.6 61.4 19.2 65.3 16.5 3.9 40.7-23.1 46.2-49.9z" fill="#639b7a"/><path d="m304.9 250.2c28.3 14.4 59.2 2.4 68-1.3-1.7-9.4-8.4-41.8-36-57.7-23.6-13.7-59.9-13.6-68 1.3s11.7 45.3 36 57.7z" fill="#699e7f"/><path d="m215.5 189.4c-28.4 14.2-37.1 46.2-39.3 55.5 8.6 4.3 38.7 18 67.8 5.3 25-10.9 46.5-40.1 39.3-55.5s-43.4-17.5-67.8-5.3z" fill="#5c9373"/><path d="m1695.2 121.1c10.7 9.1 25.4 21.6 34.7 40.6 4.8 9.9 10 20.6 8.1 34.3-1.9 13.4-9.6 22.6-15.1 29.2-1.8 2.2-7.7 9-27.2 21.8-14.4 9.7-29.7 18.1-45.6 25-12.9 5.5-26.2 9.9-39.8 13.4-14 3.8-20.6 4.6-27.3 4.5-8.6-.2-17.2.6-24.4-4.7-.6-.4-1.2-.9-1.8-1.4-6.7-6-8.6-14.3-9.8-22.9-1.3-9.2-1.8-18.4-1.6-27.7.4-14 1.9-28 4.5-41.7 3.3-17.1 8.2-33.8 14.6-49.9 8.3-21.8 13.7-29 15.4-31.2 5.3-6.8 12.6-16.3 25.3-21.1 12.9-4.8 24.5-2 35.2.5 20.6 5 36 16.6 47.2 25.1 2.5 2 5.1 4.1 7.6 6.2z" fill="#1f1719" opacity=".15"/><path d="m1695.2 108c10.7 9.1 25.4 21.6 34.7 40.6 4.8 9.9 10 20.6 8.1 34.3-1.9 13.4-9.6 22.6-15.1 29.2-1.8 2.2-7.7 9-27.2 21.8-14.4 9.7-29.7 18.1-45.6 25-12.9 5.5-26.2 9.9-39.8 13.4-14 3.8-20.6 4.6-27.3 4.5-8.6-.2-17.2.6-24.4-4.7-.6-.4-1.2-.9-1.8-1.4-6.7-6-8.6-14.3-9.8-22.9-1.3-9.2-1.8-18.4-1.6-27.7.4-14 1.9-28 4.5-41.7 3.3-17.1 8.2-33.8 14.6-49.9 8.3-21.8 13.7-29 15.4-31.2 5.3-6.8 12.6-16.3 25.3-21.1 12.9-4.8 24.5-2 35.2.5 20.6 5 36 16.6 47.2 25.1 2.5 2.1 5.1 4.2 7.6 6.2z" fill="#bbcb68"/><path d="m1564.1 19.7c13.8 2.5 32.8 6 50.4 17.8 9.2 6.2 19 12.8 24.2 25.6 5.1 12.6 3 24.4 1.6 32.9-.5 2.8-2.2 11.6-12.6 32.4-7.6 15.6-16.6 30.5-27 44.5-8.4 11.2-17.7 21.7-27.8 31.5-10.2 10.3-15.5 14.3-21.4 17.5-7.5 4.2-14.6 9.1-23.5 8.2-.8-.1-1.5-.2-2.3-.4-8.8-1.8-14.6-8.1-19.9-14.9-5.7-7.3-10.8-15-15.2-23.2-6.6-12.3-12.3-25.2-17-38.4-5.7-16.4-9.8-33.3-12.4-50.5-3.7-23-2.7-31.9-2.3-34.7 1.1-8.5 2.7-20.4 11.3-30.9 8.8-10.7 20.2-14 30.8-17.2 20.3-6 39.5-3.6 53.4-1.9 3.2.6 6.4 1.1 9.7 1.7z" fill="#1f1719" opacity=".15"/><path d="m1370 101.4c13.3-4.4 31.6-10.5 52.8-8.6 11 1 22.8 2.1 33.5 10.8 10.5 8.6 14.4 19.9 17.2 28.1.9 2.7 3.7 11.3 4.5 34.5.9 17.4.1 34.8-2.3 52-2 13.9-5.1 27.6-9.2 41-4 13.9-6.8 20-10.4 25.7-4.6 7.3-8.4 15-16.7 18.5-.7.3-1.4.6-2.2.8-8.6 2.7-16.7-.1-24.6-3.5-8.5-3.6-16.7-8-24.5-13-11.8-7.6-22.9-16.1-33.4-25.5-12.9-11.7-24.6-24.5-35.1-38.3-14.3-18.4-17.7-26.7-18.7-29.4-3.1-8-7.5-19.2-4.9-32.5 2.6-13.6 11-22 18.7-29.8 14.9-15.1 32.9-22.1 45.9-27.3 3.2-1.3 6.3-2.4 9.4-3.5z" fill="#1f1719" opacity=".15"/><path d="m1564.1 6.7c13.8 2.5 32.8 6 50.4 17.8 9.2 6.2 19 12.8 24.2 25.6 5.1 12.6 3 24.4 1.6 32.9-.5 2.8-2.2 11.6-12.6 32.4-7.6 15.6-16.6 30.5-27 44.5-8.4 11.2-17.7 21.7-27.8 31.5-10.2 10.3-15.5 14.3-21.4 17.5-7.5 4.2-14.6 9.1-23.5 8.2-.8-.1-1.5-.2-2.3-.4-8.8-1.8-14.6-8.1-19.9-14.9-5.7-7.3-10.8-15-15.2-23.2-6.6-12.3-12.3-25.2-17-38.4-5.7-16.4-9.8-33.3-12.4-50.5-3.7-23-2.7-31.9-2.3-34.7 1.1-8.5 2.7-20.4 11.3-30.9 8.8-10.7 20.2-14 30.8-17.2 20.3-6 39.5-3.6 53.4-1.9 3.2.6 6.4 1.1 9.7 1.7z" fill="#fb8a6c"/><path d="m1370 88.4c13.3-4.4 31.6-10.5 52.8-8.6 11 1 22.8 2.1 33.5 10.8 10.5 8.6 14.4 19.9 17.2 28.1.9 2.7 3.7 11.3 4.5 34.5.9 17.4.1 34.8-2.3 52-2 13.9-5.1 27.6-9.2 41-4 13.9-6.8 20-10.4 25.7-4.6 7.3-8.4 15-16.7 18.5-.7.3-1.4.6-2.2.8-8.6 2.7-16.7-.1-24.6-3.5-8.5-3.6-16.7-8-24.5-13-11.8-7.6-22.9-16.1-33.4-25.5-12.9-11.7-24.6-24.5-35.1-38.3-14.3-18.4-17.7-26.7-18.7-29.4-3.1-8-7.5-19.2-4.9-32.5 2.6-13.6 11-22 18.7-29.8 14.9-15 32.9-22.1 45.9-27.3 3.2-1.3 6.3-2.4 9.4-3.5z" fill="#b489c1"/><path d="m617.8 11.9h634.3v772.1h-634.3z" fill="#1f1719" opacity=".15"/><path d="m617.8 2.9h634.3v772.1h-634.3z" fill="#f2f3f3"/><g fill="none" stroke="#3d3a31" stroke-linecap="round" stroke-miterlimit="10" stroke-width="6.29"><path d="m827.2 285.2c-9.7 51.4-2.4 90.2 16.3 97.2 10.7 4.1 25-2.4 32.6-10.8 17.7-19.8-16.2-86.8-22.2-92.6"/><path d="m755.7 289.4 18.4-22.5"/><path d="m860.7 238.7 27.2 11.5"/><path d="m750.2 403.8c10.5 11.5 20.2 15.2 27.1 16.5 27.3 4.9 47.5-21.9 72.9-13.4 5.1 1.7 9.7 4.6 13.6 8.2 2.8-5.4 7.8-13 16.5-17.2 15.7-7.7 28.8 2.6 45.2-3 7.3-2.5 17.1-8.7 25.7-26"/><path d="m707.2 221.7c14.1-37 22-48 26.5-47 5.8 1.2 6.6 22.4 8.4 22.2 1.7-.1-2.1-17.5 4.3-33.7 8.7-22.2 34.1-36.7 40.4-31.9s-5.4 30.9-3.7 31.6c2.1.8 11.2-40.9 43.5-61.3 11-7 23.5-10.7 26.4-7.2s-5.5 11.3-6.5 27.2c-.2 2.2-1.1 17.4 3.8 19.1 7.8 2.8 18.2-32.9 51.4-47.6 10.7-4.7 23.3-7.1 25.2-3.7 1.7 2.9-5.5 8.3-14.7 21.9-5.8 8.7-16 25.9-12.6 29.1 3.7 3.5 18.1-14.8 36.4-11.6 9.9 1.7 19.5 9.4 18.9 15.3-.4 4.3-6.2 5.4-12.5 10.7-6.1 5.2-11.6 13.4-14.3 26.9"/></g><g fill="#1f1719" opacity=".15"><path d="m1171.4 105.1 22.5 5.6-2.8-53.6-1.3-25.5-13.2 21.8-27.7 45.9-152.8 609 22.5 5.6-2.3 9.3 2.3-9.3-22.5-5.6-9.6 38.2-6.2 4.8 27.1 6.8 22.5 5.6 4.8 1.2-3.2-7.3 9.6-38 152.8-608.8z"/><path d="m1005.1 768.1 2.5-10-27.2-6.8-2.5 10h-.1l-13.8 55.2c-1.9 7.7 2 15.3 8.8 17l14.9 3.8 14.9 3.7c6.8 1.7 13.8-3.2 15.8-10.9l5.6-22.2 10.8-43.1-27.2-6.8z"/></g><path d="m1188.1 48.1-1.3-25.5-5.9 23.6z" fill="#241f1e"/><path d="m1186.8 22.7-13.2 21.8 7.2 1.8z" fill="#181214"/><path d="m1180.8 46.3-7.2-1.8-27.7 45.9 22.5 5.6z" fill="#f6c9a6"/><path d="m1168.4 96.1 22.5 5.6-2.8-53.6-7.2-1.8z" fill="#eec2a0"/><path d="m984.7 828.3 14.9 3.8c6.8 1.7 13.8-3.2 15.8-10.9l13.8-55.2-27.2-6.8z" fill="#ce7aa6"/><path d="m974.8 752.3-13.8 55.2c-1.9 7.7 2 15.3 8.8 17l14.9 3.8 17.3-69.2z" fill="#e084b4"/><path d="m993.1 699.2 152.7-608.8 22.5 5.6-152.7 608.8z" fill="#8e8e8e"/><path d="m1015.6 704.8 152.7-608.8 22.5 5.6-152.7 608.8z" fill="#7a7a7a"/><path d="m1004.5 749 11.1-44.2 22.5 5.6-11.1 44.2z" fill="#bdbdbd"/><path d="m982 743.3 11.1-44.2 22.5 5.6-11.1 44.2z" fill="#dedede"/><path d="m993.7 792.1 10.8-43.1 27.2 6.8-10.8 43.1z" fill="#bdbdbd"/><path d="m966.6 785.3 10.8-43.1 27.2 6.8-10.8 43.1z" fill="#dedede"/><path d="m1013.3 714.2-35.9 28.1 27.2 6.8z" fill="#dedede"/><path d="m1013.4 714.2 18.4 41.7-27.1-6.8z" fill="#bdbdbd"/><path d="m30.5 574.3h607.4c5 0 9 4 9 9v244.4c0 5-4 9-9 9h-607.4c-5 0-9-4-9-9v-244.4c-.1-5 4-9 9-9z" fill="#1f1719" opacity=".15"/><path d="m30.5 561.1h607.4c5 0 9 4 9 9v244.4c0 5-4 9-9 9h-607.4c-5 0-9-4-9-9v-244.3c-.1-5 4-9.1 9-9.1z" fill="#e2e2e2"/><path d="m49.2 605.8h570.5c5.6 0 10.1 4.5 10.1 10.1v179.1c0 5.6-4.5 10.1-10.1 10.1h-570.5c-5.6 0-10.1-4.5-10.1-10.1v-179.1c0-5.6 4.5-10.1 10.1-10.1z" fill="#494949"/><path d="m179 697.4h-31.3c-1.9 0-3.5-1.6-3.5-3.5v-31.3c0-1.9-1.6-3.5-3.5-3.5h-28.6c-1.9 0-3.5 1.6-3.5 3.5v31.4c0 1.9-1.6 3.5-3.5 3.5h-31.2c-1.9 0-3.5 1.6-3.5 3.5v28.6c0 1.9 1.6 3.5 3.5 3.5h31.3c1.9 0 3.5 1.6 3.5 3.5v31.3c0 1.9 1.6 3.5 3.5 3.5h28.6c1.9 0 3.5-1.6 3.5-3.5v-31.3c0-1.9 1.6-3.5 3.5-3.5h31.3c1.9 0 3.5-1.6 3.5-3.5v-28.6c-.2-2-1.7-3.5-3.6-3.6z" fill="#ed3f3f" stroke="#ddd" stroke-miterlimit="10" stroke-width="3.592"/><path d="m428.5 709.1h63.5c2.1 0 3.9 1.7 3.9 3.9v63.4c0 2.1-1.7 3.9-3.9 3.9h-63.4c-2.1 0-3.9-1.7-3.9-3.9v-63.4c0-2.2 1.7-3.9 3.8-3.9z" fill="#e2e2e2"/><path d="m507.7 709.1h63.4c2.1 0 3.9 1.7 3.9 3.9v63.4c0 2.1-1.7 3.9-3.9 3.9h-63.4c-2.1 0-3.9-1.7-3.9-3.9v-63.4c0-2.2 1.8-3.9 3.9-3.9z" fill="#e2e2e2"/><circle cx="539.4" cy="744.7" fill="#ed3f3f" r="25.9"/><circle cx="460.3" cy="744.7" fill="#ed3f3f" r="25.9"/><path d="m233.9 715.2h152.8c6.9 0 12.5 5.6 12.5 12.5v35.9c0 6.9-5.6 12.5-12.5 12.5h-152.8c-6.9 0-12.5-5.6-12.5-12.5v-35.9c0-6.9 5.6-12.5 12.5-12.5z" fill="#e2e2e2"/><path d="m241.9 723.5h136.9c5.6 0 10.1 4.5 10.1 10.1v24.2c0 5.6-4.5 10.1-10.1 10.1h-136.9c-5.6 0-10.1-4.5-10.1-10.1v-24.2c0-5.6 4.5-10.1 10.1-10.1z" fill="#e2e2e2" stroke="#afaeae" stroke-miterlimit="10" stroke-width=".6016"/><path d="m252.2 737.4h30.2c4.9 0 8.9 4 8.9 8.9v1.1c0 4.9-4 8.9-8.9 8.9h-30.2c-4.9 0-8.9-4-8.9-8.9v-1.1c-.1-4.9 3.9-8.9 8.9-8.9z" fill="#ed3f3f"/><path d="m337.4 737.4h30.2c4.9 0 8.9 4 8.9 8.9v1.1c0 4.9-4 8.9-8.9 8.9h-30.2c-4.9 0-8.9-4-8.9-8.9v-1.1c0-4.9 3.9-8.9 8.9-8.9z" fill="#ed3f3f"/></svg>