<svg xmlns="http://www.w3.org/2000/svg" viewBox="0 0 1800 1200"><defs><style>.cls-1,.cls-23{fill:#1f1719;}.cls-1,.cls-22{opacity:0.15;}.cls-2,.cls-36{fill:#ed3f3f;}.cls-3{fill:#e75b5b;}.cls-4{fill:#eaeaea;}.cls-5{fill:#d6d6d6;}.cls-21,.cls-6,.cls-8{fill:none;}.cls-6,.cls-8{stroke:#cecece;}.cls-21,.cls-36,.cls-37,.cls-6,.cls-8{stroke-miterlimit:10;}.cls-6{stroke-width:2px;}.cls-7{fill:#4c4c4c;}.cls-8{stroke-width:2.08px;}.cls-9{fill:#cecece;}.cls-10{fill:#6c514b;}.cls-11{fill:#699e7f;}.cls-12{fill:#5c9373;}.cls-13{fill:#639b7a;}.cls-14{fill:#7ba788;}.cls-15{fill:#86b093;}.cls-16{fill:#6ea384;}.cls-17{fill:#bbcb68;}.cls-18{fill:#fb8a6c;}.cls-19{fill:#b489c1;}.cls-20{fill:#f2f3f3;}.cls-21{stroke:#3d3a31;stroke-linecap:round;stroke-width:6.29px;}.cls-24{fill:#241f1e;}.cls-25{fill:#181214;}.cls-26{fill:#f6c9a6;}.cls-27{fill:#eec2a0;}.cls-28{fill:#ce7aa6;}.cls-29{fill:#e084b4;}.cls-30{fill:#8e8e8e;}.cls-31{fill:#7a7a7a;}.cls-32{fill:#bdbdbd;}.cls-33{fill:#dedede;}.cls-34,.cls-37{fill:#e2e2e2;}.cls-35{fill:#494949;}.cls-36{stroke:#ddd;stroke-width:4.12px;}.cls-37{stroke:#afaeae;stroke-width:0.69px;}</style></defs><title>portfolio-icons</title><g id="about-banner"><g id="can"><path class="cls-1" d="M1746.62,967.81c0-104.83-85-189.82-189.83-189.82a189.22,189.22,0,0,0-134.23,55.6L1691,1102A189.24,189.24,0,0,0,1746.62,967.81Z"/><path class="cls-1" d="M1422.56,833.59A189.24,189.24,0,0,0,1367,967.81c0,104.84,85,189.83,189.83,189.83A189.2,189.2,0,0,0,1691,1102Z"/><path class="cls-2" d="M1746.62,948.73c0-104.83-85-189.82-189.83-189.82a189.22,189.22,0,0,0-134.23,55.6L1691,1083A189.24,189.24,0,0,0,1746.62,948.73Z"/><path class="cls-3" d="M1422.56,814.51A189.22,189.22,0,0,0,1367,948.73c0,104.84,85,189.83,189.83,189.83A189.24,189.24,0,0,0,1691,1083Z"/><circle class="cls-4" cx="1556.79" cy="948.73" r="157.61"/><circle class="cls-5" cx="1556.79" cy="948.73" r="148.3"/><circle class="cls-6" cx="1556.79" cy="948.73" r="139.77"/><path class="cls-4" d="M1569.12,825.16h-24.65A36.78,36.78,0,0,0,1507.69,862v77a36.78,36.78,0,0,0,36.78,36.79h24.65A36.79,36.79,0,0,0,1605.9,939V862A36.79,36.79,0,0,0,1569.12,825.16Zm5.61,114.52v-14a14.86,14.86,0,0,0-14.86-14.87h-6.16a14.86,14.86,0,0,0-14.86,14.87v14c0,5.75-8.14,7.11-9.89,1.64a29.22,29.22,0,1,1,55.71-.14C1582.92,946.75,1574.73,945.5,1574.73,939.68Zm22-72.07A19.36,19.36,0,0,1,1577.33,887h-41.08a19.36,19.36,0,0,1-19.36-19.36v-8a19.36,19.36,0,0,1,19.36-19.36h41.08a19.36,19.36,0,0,1,19.36,19.36Z"/><circle class="cls-5" cx="1556.79" cy="935.79" r="8.52"/><rect class="cls-7" x="1487.64" y="978.68" width="138.3" height="93.42" rx="46.09"/><path class="cls-8" d="M1635.11,1021.05c-3.35-35.1-16.49-166.22-27.12-184.63a42.76,42.76,0,0,0-7.35-9.17c-9.33-8.41-21.43-10.74-29.75-11.41H1542.7c-7.64.85-19.46,3.31-29.75,11.41a54.58,54.58,0,0,0-9.4,9.91c-9.35,13.05-19.24,85.77-25.39,185.82a45.53,45.53,0,0,0-.46,6.32v1.32c0,26.84,23.72,48.8,52.71,48.8h52.76c29,0,52.71-22,52.71-48.8v-1.32A45,45,0,0,0,1635.11,1021.05Z"/></g><g id="plant"><circle class="cls-1" cx="311.04" cy="327.88" r="260.04"/><circle class="cls-4" cx="311.04" cy="310.87" r="260.04"/><circle class="cls-9" cx="311.04" cy="310.87" r="240.96"/><path class="cls-10" d="M515.48,310.87c2.26,10.14,4.38,18.68.07,27.19-2,4-3.41,3.91-8,9.3s-20,23.36-17.81,41.66c.51,4.26,2,9.08-.73,12.07-2.09,2.25-4.61,1.33-8,2.27-8.62,2.37-8.39,12.45-21.14,28.47-4.39,5.52-6.58,8.27-10.27,10.48-5,3-8.85,3.11-12.13,7.23-2.15,2.71-2.35,5-3.23,7.87-3.44,11.23-13.25,18.1-17.09,20.79-6.67,4.67-7.32,2.22-21,8.37-8.94,4-15.1,6.8-21.56,12.37-9.94,8.56-9.68,14.33-16.86,16.24-5.95,1.59-8.95-1.63-17.53-3.25-12.07-2.28-17.56,1.94-29.13,3.37-13.5,1.68-25.39-2.74-49.19-11.58-15-5.57-9-5.09-33.86-15.63-16.3-6.91-23.66-9.15-28.14-17.19-2.9-5.22-2.5-9.1-7.19-13.15-5.79-5-10.12-2.28-15.09-7.1-5.44-5.28-2-10.22-7.77-15.66-4.45-4.19-8.1-2.76-11.66-7.25-2.79-3.5-2.65-7-3.28-11.06-1.85-12-10.16-27.84-22.14-34.06-4.86-2.53-9.7-3.16-10.68-6.94-.82-3.2,2.22-4.41,2.73-8.28,1.24-9.42-15.2-14-15.92-26.42-.24-4.22,1.65-3.61,2-10.25a43.34,43.34,0,0,0-4.23-19.86c-3.72-8-6.91-9-6.77-13.62.14-4.83,3.78-7.34,7.64-11.8,12.73-14.73,14.09-34.84,14.23-37.28.59-10.64-2.49-15.5,1.73-21,3.25-4.26,6.55-3.31,10.49-8.2,4.64-5.75,2.08-9.55,5.48-17.48,4.23-9.87,9.58-7.21,15.47-17.93,5.08-9.22,3.49-15.48,9.51-18.86,3.6-2,5.44-.49,8.74-3.12,4.48-3.57,2.82-7.77,7.23-11.46,3.34-2.79,5-1,10-3.77,5.31-3,5.73-6.27,10.12-10.11,4.17-3.65,8.26-4.56,15.52-6.4,32.1-8.13,28.08-9.63,40.91-11.2,8.91-1.09,13.83-.73,20.73-4.41,5.41-2.9,6.49-5.31,11.3-7.45,7.71-3.42,15.23-1.79,22.1-.32,32.81,7,49.22,10.5,51.35,10.74,9.66,1.11,17.54,1.17,26.57,6.64,3.79,2.29,3.68,3,10.94,8.47a184.61,184.61,0,0,0,21.88,14.07c15.09,8.1,17.79,6.07,24,12,5.14,4.91,5,7.95,10.42,18.23,5.58,10.55,11.19,17.45,22.4,31.26,12.44,15.32,16.09,17,20.31,26.57,2.27,5.11,2.61,7.77,5.21,20.31C508,273.41,511.32,292.22,515.48,310.87Z"/><path class="cls-11" d="M262.31,181.2c.86-48.11,45.75-74.77,48.73-76.48,3,1.71,47.87,28.37,48.73,76.48.63,35.47-22.77,76.48-48.73,76.48S261.68,216.67,262.31,181.2Z"/><path class="cls-12" d="M359.77,409.08C358.91,463.71,314,494,311,495.92c-3-1.94-47.87-32.21-48.73-86.84-.63-40.28,22.77-86.85,48.73-86.85S360.4,368.8,359.77,409.08Z"/><path class="cls-11" d="M423.19,256.21c48.11.86,74.77,45.74,76.48,48.73-1.71,3-28.37,47.87-76.48,48.73-35.47.63-76.48-22.78-76.48-48.73S387.72,255.58,423.19,256.21Z"/><path class="cls-12" d="M206.54,353.67c-48.12-.8-74.78-42.5-76.48-45.27,1.7-2.77,28.36-44.47,76.48-45.27C242,262.54,283,284.29,283,308.4S242,354.25,206.54,353.67Z"/><path class="cls-13" d="M199.31,300.09c-44.79-17.57-55.19-65.95-55.82-69.15,2.57-2,42.12-31.74,87.48-15.67,33.43,11.85,64.25,46.56,55.82,69.15S232.34,313,199.31,300.09Z"/><path class="cls-14" d="M202.36,262.25C169,227.6,182.79,176.08,183.75,172.7c3.38-1,54.9-14.79,89.55,18.61,25.54,24.62,37.5,70.65,18.61,89.55S227,287.79,202.36,262.25Z"/><path class="cls-12" d="M383.45,227c41.43-16.21,77.62,7.18,80,8.76-.57,2.77-10,44.83-50.92,62.29-30.17,12.87-72.24,10.16-80-8.77S352.9,239,383.45,227Z"/><path class="cls-15" d="M228.15,226.84c-16.08-41.49,14.13-80.47,16.16-83,3.23.39,52.1,7,69.7,47.9,13,30.13,6.7,73.65-16.17,83S240,257.42,228.15,226.84Z"/><path class="cls-13" d="M258.31,384.42c-34.68,23.81-77.12,4.49-79.89,3.18-.35-3.06-4.86-49.47,28.91-74.55,24.9-18.48,66.31-22.18,79.89-3.17S283.87,366.86,258.31,384.42Z"/><path class="cls-13" d="M396.41,352.73c15.2,39.22-13.36,76.08-15.28,78.48-3.05-.37-49.26-6.65-65.89-45.29-12.27-28.48-6.34-69.63,15.28-78.48S385.2,323.81,396.41,352.73Z"/><path class="cls-16" d="M304,393.05c-20.09,40.82-70.35,45.07-73.66,45.3-1.94-2.7-30.78-44.08-12.2-85.61,13.69-30.62,50.79-56,73.66-45.3S318.8,363,304,393.05Z"/><path class="cls-15" d="M357.31,197.43c34.54-33.51,80.43-25.32,83.43-24.73.59,3,8.78,48.89-24.72,83.43-24.7,25.46-67.8,40.36-83.43,24.73S331.85,222.13,357.31,197.43Z"/><path class="cls-12" d="M402.35,318.06c31.57,32.76,18.5,81.47,17.59,84.67-3.19.91-51.91,14-84.66-17.6-24.15-23.28-35.46-66.8-17.6-84.66S379.07,293.91,402.35,318.06Z"/><path class="cls-13" d="M372.83,227.4c7.69-37.14-15.78-68.93-22.88-77.89-10.36,4.85-45.52,22.86-55.19,59.54-8.3,31.5,3.15,73.25,22.89,77.89S366.24,259.3,372.83,227.4Z"/><path class="cls-11" d="M354.06,347.31c33.81,17.19,70.65,2.92,81.17-1.58-2-11.26-10.08-49.93-42.92-68.91-28.21-16.3-71.49-16.24-81.17,1.59S325,332.55,354.06,347.31Z"/><path class="cls-12" d="M247.38,274.74c-33.9,17-44.3,55.12-46.92,66.25,10.23,5.11,46.16,21.54,80.93,6.38,29.86-13,55.52-47.88,46.92-66.25S276.5,260.14,247.38,274.74Z"/></g><g id="picks"><path class="cls-1" d="M1695.2,177.1c10.71,9.1,25.41,21.58,34.71,40.64,4.84,9.91,10,20.56,8.14,34.26-1.87,13.43-9.58,22.63-15.11,29.23-1.82,2.17-7.71,9-27.16,21.77a277.28,277.28,0,0,1-45.6,25,273,273,0,0,1-39.79,13.38c-14,3.78-20.6,4.59-27.34,4.46-8.61-.17-17.18.62-24.43-4.66a22,22,0,0,1-1.81-1.44c-6.72-5.95-8.61-14.33-9.82-22.85a161.19,161.19,0,0,1-1.56-27.66,273.06,273.06,0,0,1,4.47-41.74,278,278,0,0,1,14.56-49.93c8.28-21.75,13.66-29,15.38-31.22,5.26-6.83,12.57-16.34,25.29-21.07,12.95-4.82,24.48-2,35.21.54,20.62,5,36,16.63,47.17,25.12C1690.14,172.92,1692.68,175,1695.2,177.1Z"/><path class="cls-17" d="M1695.2,164.09c10.71,9.09,25.41,21.58,34.71,40.63,4.84,9.92,10,20.57,8.14,34.27-1.87,13.43-9.58,22.63-15.11,29.23-1.82,2.17-7.71,9-27.16,21.77a277.28,277.28,0,0,1-45.6,25,273,273,0,0,1-39.79,13.38c-14,3.78-20.6,4.59-27.34,4.46-8.61-.17-17.18.62-24.43-4.66a22,22,0,0,1-1.81-1.44c-6.72-6-8.61-14.33-9.82-22.85a161.19,161.19,0,0,1-1.56-27.66,273.06,273.06,0,0,1,4.47-41.74,278,278,0,0,1,14.56-49.93c8.28-21.75,13.66-29,15.38-31.22,5.26-6.83,12.57-16.34,25.29-21.07,12.95-4.82,24.48-2,35.21.54,20.62,5,36,16.63,47.17,25.12C1690.14,159.91,1692.68,162,1695.2,164.09Z"/><path class="cls-1" d="M1564.07,75.74c13.82,2.52,32.8,6,50.39,17.81,9.15,6.17,19,12.79,24.19,25.59,5.11,12.57,3,24.39,1.55,32.88-.49,2.78-2.19,11.64-12.62,32.43a278.2,278.2,0,0,1-27,44.47,273.76,273.76,0,0,1-27.76,31.5c-10.24,10.28-15.53,14.27-21.44,17.53-7.54,4.16-14.56,9.14-23.48,8.2a20.84,20.84,0,0,1-2.29-.35c-8.79-1.79-14.63-8.09-19.93-14.87a159.14,159.14,0,0,1-15.19-23.16,272.86,272.86,0,0,1-17-38.38,276.61,276.61,0,0,1-12.38-50.51c-3.72-23-2.68-31.93-2.31-34.73,1.13-8.54,2.7-20.44,11.35-30.89,8.81-10.66,20.17-14,30.76-17.15,20.33-6,39.47-3.61,53.4-1.86C1557.6,74.66,1560.82,75.15,1564.07,75.74Z"/><path class="cls-1" d="M1370,157.47c13.33-4.44,31.63-10.53,52.75-8.6,11,1,22.79,2.08,33.51,10.81,10.52,8.56,14.39,19.93,17.16,28.08.91,2.68,3.68,11.26,4.53,34.51a277.32,277.32,0,0,1-2.28,52,274,274,0,0,1-9.19,41c-4,13.93-6.76,20-10.37,25.69-4.61,7.26-8.38,15-16.65,18.47a21.59,21.59,0,0,1-2.18.79c-8.56,2.66-16.71-.06-24.62-3.45a160.08,160.08,0,0,1-24.46-13,273.86,273.86,0,0,1-33.37-25.47,278.58,278.58,0,0,1-35.14-38.34c-14.3-18.36-17.69-26.71-18.71-29.35-3.12-8-7.46-19.22-4.91-32.54,2.6-13.58,11-22,18.73-29.83,14.94-15.05,32.87-22.14,45.94-27.3C1363.84,159.63,1366.9,158.52,1370,157.47Z"/><path class="cls-18" d="M1564.07,62.73c13.82,2.52,32.8,6,50.39,17.81,9.15,6.17,19,12.79,24.19,25.59,5.11,12.57,3,24.39,1.55,32.88-.49,2.78-2.19,11.64-12.62,32.43a278.2,278.2,0,0,1-27,44.47,273.76,273.76,0,0,1-27.76,31.5c-10.24,10.28-15.53,14.27-21.44,17.53-7.54,4.16-14.56,9.14-23.48,8.2a20.84,20.84,0,0,1-2.29-.35c-8.79-1.79-14.63-8.09-19.93-14.87a159.14,159.14,0,0,1-15.19-23.16,272.86,272.86,0,0,1-17-38.38,276.61,276.61,0,0,1-12.38-50.51c-3.72-23-2.68-31.93-2.31-34.73,1.13-8.54,2.7-20.44,11.35-30.89,8.81-10.66,20.17-14,30.76-17.15,20.33-6,39.47-3.61,53.4-1.86C1557.6,61.65,1560.82,62.14,1564.07,62.73Z"/><path class="cls-19" d="M1370,144.46c13.33-4.44,31.63-10.53,52.75-8.6,11,1,22.79,2.08,33.51,10.81,10.52,8.56,14.39,19.93,17.16,28.08.91,2.68,3.68,11.26,4.53,34.51a277.32,277.32,0,0,1-2.28,52,274,274,0,0,1-9.19,41c-4,13.93-6.76,20-10.37,25.69-4.61,7.26-8.38,15-16.65,18.47a21.59,21.59,0,0,1-2.18.79c-8.56,2.66-16.71-.06-24.62-3.45a160.08,160.08,0,0,1-24.46-13,273.86,273.86,0,0,1-33.37-25.47,278.58,278.58,0,0,1-35.14-38.34c-14.3-18.36-17.69-26.72-18.71-29.35-3.12-8-7.46-19.22-4.91-32.54,2.6-13.58,11-22,18.73-29.83,14.94-15,32.87-22.14,45.94-27.3C1363.84,146.62,1366.9,145.51,1370,144.46Z"/></g><g id="doodles"><rect class="cls-1" x="617.79" y="123.88" width="634.35" height="772.1"/><rect class="cls-20" x="617.79" y="114.87" width="634.35" height="772.1"/><path class="cls-21" d="M827.16,397.1c-9.72,51.39-2.39,90.16,16.27,97.23,10.73,4.07,25-2.4,32.56-10.84,17.65-19.82-16.21-86.81-22.22-92.65"/><path class="cls-21" d="M755.7,401.31l18.41-22.55"/><path class="cls-21" d="M860.74,350.67l27.15,11.53"/><path class="cls-21" d="M750.21,515.78c10.48,11.5,20.16,15.24,27.14,16.5,27.32,4.94,47.49-21.94,72.93-13.44a37.17,37.17,0,0,1,13.56,8.25c2.83-5.44,7.85-13,16.49-17.19,15.68-7.67,28.78,2.56,45.17-3,7.32-2.47,17.06-8.69,25.69-26"/><path class="cls-21" d="M707.18,333.62c14.07-37,22-48,26.49-47,5.85,1.21,6.56,22.38,8.38,22.21,1.66-.15-2.06-17.47,4.27-33.67,8.69-22.21,34.06-36.66,40.44-31.88s-5.43,30.94-3.7,31.57c2.11.76,11.24-40.9,43.55-61.34,11-7,23.54-10.71,26.42-7.22s-5.52,11.3-6.55,27.16c-.15,2.2-1.13,17.36,3.79,19.14,7.84,2.83,18.24-32.91,51.42-47.58,10.65-4.71,23.32-7.1,25.25-3.73,1.65,2.88-5.49,8.3-14.67,21.92-5.85,8.68-16,25.9-12.62,29.12,3.72,3.51,18.08-14.76,36.36-11.64,9.94,1.7,19.47,9.44,18.87,15.28-.44,4.31-6.16,5.38-12.46,10.71-6.12,5.18-11.63,13.42-14.31,26.92"/></g><g id="pencil"><g class="cls-22"><polygon class="cls-23" points="1171.38 361.24 1193.85 366.88 1191.09 313.32 1189.79 287.86 1176.61 309.69 1148.9 355.6 996.15 964.44 1018.63 970.08 1018.63 970.08 1018.63 970.08 1016.29 979.37 1016.29 979.37 1018.63 970.08 996.15 964.44 986.58 1002.61 980.43 1007.42 1007.55 1014.23 1007.55 1014.23 1030.02 1019.86 1030.02 1019.86 1034.77 1021.05 1031.55 1013.76 1041.1 975.71 1041.1 975.71 1193.85 366.88 1171.38 361.24 1171.38 361.24"/><path class="cls-23" d="M1005.08,1024.28h0l2.52-10-27.17-6.82-2.52,10-.1,0L964,1072.65c-1.93,7.7,2,15.33,8.79,17l14.94,3.75,14.94,3.74c6.78,1.71,13.85-3.16,15.78-10.86l5.56-22.16h0l10.81-43.09-27.17-6.82Z"/></g><polygon class="cls-24" points="1188.09 304.31 1186.78 278.85 1180.85 302.5 1188.09 304.31"/><polygon class="cls-25" points="1186.78 278.85 1173.61 300.68 1180.85 302.5 1186.78 278.85"/><polygon class="cls-26" points="1180.85 302.5 1173.61 300.68 1145.9 346.6 1168.37 352.23 1180.85 302.5"/><polygon class="cls-27" points="1168.37 352.23 1190.85 357.87 1188.09 304.31 1180.85 302.5 1168.37 352.23"/><path class="cls-28" d="M984.68,1084.42l14.94,3.75c6.78,1.7,13.85-3.17,15.78-10.87l13.85-55.21-27.22-6.83Z"/><path class="cls-29" d="M974.8,1008.43,961,1063.64c-1.93,7.7,2,15.33,8.79,17l14.94,3.75,17.35-69.16Z"/><rect class="cls-30" x="766.91" y="642.25" width="627.7" height="23.17" transform="translate(183.59 1543) rotate(-75.92)"/><rect class="cls-31" x="789.38" y="647.89" width="627.7" height="23.17" transform="translate(195.12 1569.06) rotate(-75.92)"/><rect class="cls-32" x="998.56" y="974.38" width="45.52" height="23.17" transform="translate(-183.54 1736.65) rotate(-75.92)"/><rect class="cls-33" x="976.09" y="968.74" width="45.52" height="23.17" transform="translate(-195.07 1710.59) rotate(-75.92)"/><rect class="cls-32" x="990.56" y="1016.18" width="44.43" height="28.01" transform="translate(-232.9 1761.83) rotate(-75.92)"/><rect class="cls-33" x="963.39" y="1009.36" width="44.43" height="28.01" transform="translate(-246.84 1730.31) rotate(-75.92)"/><polygon class="cls-33" points="1013.32 970.34 977.42 998.41 1004.57 1005.22 1013.32 970.34"/><polygon class="cls-32" points="1013.38 970.36 1031.77 1012.05 1004.63 1005.24 1013.38 970.36"/></g><g id="controller"><rect class="cls-1" x="53.41" y="857.72" width="717.42" height="301.06" rx="10.37"/><rect class="cls-34" x="53.41" y="842.63" width="717.42" height="301.06" rx="10.37"/><rect class="cls-35" x="73.63" y="893.9" width="677.59" height="228.69" rx="11.62"/><path class="cls-36" d="M234.09,999H198.24a4,4,0,0,1-4-4V959.12a4,4,0,0,0-4-4h-32.8a4,4,0,0,0-4,4V995a4,4,0,0,1-4,4H113.55a4,4,0,0,0-4,4v32.8a4,4,0,0,0,4,4H149.4a4,4,0,0,1,4,4v35.85a4,4,0,0,0,4,4h32.8a4,4,0,0,0,4-4v-35.85a4,4,0,0,1,4-4h35.85a4,4,0,0,0,4-4V1003A4,4,0,0,0,234.09,999Z"/><rect class="cls-34" x="515.91" y="1012.39" width="81.64" height="81.64" rx="4.44"/><rect class="cls-34" x="606.69" y="1012.39" width="81.64" height="81.64" rx="4.44"/><circle class="cls-2" cx="647.51" cy="1053.21" r="29.71"/><circle class="cls-2" cx="556.73" cy="1053.21" r="29.71"/><rect class="cls-34" x="282.71" y="1019.39" width="204.03" height="69.91" rx="14.39"/><rect class="cls-37" x="294.67" y="1028.91" width="180.11" height="50.88" rx="11.54"/><rect class="cls-2" x="307.8" y="1044.85" width="55.08" height="21.76" rx="10.24"/><rect class="cls-2" x="405.54" y="1044.85" width="55.08" height="21.76" rx="10.24"/></g></g></svg>