<svg xmlns="http://www.w3.org/2000/svg" viewBox="0 0 1800 1200"><defs><style>.cls-1,.cls-25{fill:#1f1719;}.cls-1,.cls-24{opacity:0.15;}.cls-2,.cls-39{fill:#f7f7f7;}.cls-2{stroke:#bfc2c4;}.cls-2,.cls-28,.cls-29,.cls-30,.cls-36,.cls-47,.cls-48,.cls-49{stroke-miterlimit:10;}.cls-3{fill:#e6e6e7;opacity:0.33;}.cls-4{fill:#cbcfd0;}.cls-5{fill:#55595b;}.cls-6{font-size:15px;font-family:Helvetica-Bold, Helvetica;font-weight:700;}.cls-6,.cls-7{fill:#f6f7f7;}.cls-8{fill:#fff;}.cls-9{fill:#d0d4d3;}.cls-10{fill:#96b9c4;}.cls-11{fill:#6d7072;}.cls-12{fill:#9ba0a3;}.cls-13{fill:#409bc6;}.cls-14{fill:#241f1e;}.cls-15{fill:#181214;}.cls-16{fill:#fdf6fa;}.cls-17{fill:#e1dadf;}.cls-18{fill:#ce7aa6;}.cls-19{fill:#e084b4;}.cls-20{fill:#e4ad3a;}.cls-21{fill:#d29f35;}.cls-22{fill:#bdbdbd;}.cls-23{fill:#dedede;}.cls-26{fill:#e69bc2;}.cls-27{fill:#32312f;}.cls-28,.cls-29,.cls-42,.cls-44,.cls-45,.cls-47,.cls-48,.cls-49{fill:none;}.cls-28,.cls-29{stroke:#ada79a;}.cls-28{stroke-width:1.24px;}.cls-29{stroke-width:2.48px;}.cls-30{fill:#eeeded;stroke:#e6e5e5;stroke-width:1.86px;}.cls-31{fill:#f0f0f0;}.cls-32{fill:#bcbcbc;}.cls-33,.cls-36{fill:#fbfbfb;}.cls-34{fill:#e6e5e5;}.cls-35{fill:#bebebe;}.cls-36{stroke:#fbfbfb;stroke-width:0.62px;}.cls-37{fill:#3e4547;}.cls-38{fill:#efefef;}.cls-40{fill:#6a767a;}.cls-41{fill:#5b6669;}.cls-42,.cls-44,.cls-45{stroke:#3d3a31;stroke-linejoin:round;}.cls-42,.cls-44,.cls-45,.cls-47,.cls-48,.cls-49{stroke-linecap:round;}.cls-42{stroke-width:9.65px;}.cls-42,.cls-43,.cls-44,.cls-45{opacity:0.3;}.cls-43{fill:#3d3a31;}.cls-44{stroke-width:2.09px;}.cls-45{stroke-width:4.19px;}.cls-46{opacity:0.1;}.cls-47,.cls-48,.cls-49{stroke:#070606;stroke-width:4.93px;}.cls-48{stroke-dasharray:0.55 35.74;}.cls-49{stroke-dasharray:0.55 35.74;}</style></defs><title>apple-banner</title><g id="apple-icon"><rect class="cls-1" x="55.34" y="524.09" width="379.25" height="630.34" rx="39.78"/><rect class="cls-2" x="55.34" y="506.51" width="379.25" height="630.34" rx="39.78"/><path class="cls-3" d="M394.82,1136.85H95.12a39.78,39.78,0,0,1-39.78-39.78V546.28A39.68,39.68,0,0,1,67,518.16c8-8,17.61-9.7,28.13-11.65a89.83,89.83,0,0,1,32.39,0c59.49,186.3,128.24,309.39,182,388.94,25.84,38.26,125.14,180.41,125.14,180.41h0v21.21A39.78,39.78,0,0,1,394.82,1136.85Z"/><circle class="cls-4" cx="244.97" cy="953.02" r="116.28"/><rect class="cls-5" x="83.55" y="533.76" width="322.84" height="246.2" rx="13.73"/><circle class="cls-2" cx="244.97" cy="953.02" r="40.1"/><text class="cls-6" transform="translate(222.88 862.65)">MENU</text><polygon class="cls-7" points="165.39 947.1 155.41 953.61 165.39 960.12 165.39 947.1"/><polygon class="cls-7" points="145.79 960.12 145.79 953.84 155.41 960.12 155.41 953.61 155.41 947.1 145.79 953.37 145.79 947.1 141.79 947.1 141.79 960.12 145.79 960.12"/><polygon class="cls-7" points="232.74 1062.25 242.72 1055.74 232.74 1049.23 232.74 1062.25"/><rect class="cls-7" x="246.69" y="1049.57" width="4" height="12.68"/><rect class="cls-7" x="253.2" y="1049.57" width="4" height="12.68"/><polygon class="cls-7" points="324.36 959.53 334.34 953.02 324.36 946.51 324.36 959.53"/><polygon class="cls-7" points="343.96 946.51 343.96 952.79 334.34 946.51 334.34 953.02 334.34 959.53 343.96 953.26 343.96 959.53 347.96 959.53 347.96 946.51 343.96 946.51"/><rect class="cls-8" x="93.24" y="543.5" width="303.46" height="226.73"/><rect class="cls-9" x="93.24" y="543.5" width="303.46" height="15.95"/><rect class="cls-10" x="112.37" y="578.96" width="116.99" height="116.99" rx="20.42"/><rect class="cls-11" x="244.97" y="591.62" width="116.28" height="18.49" rx="6.61"/><rect class="cls-12" x="244.97" y="616.14" width="102.99" height="7.3" rx="3.65"/><rect class="cls-12" x="244.97" y="629.95" width="102.99" height="7.3" rx="3.65"/><rect class="cls-12" x="244.97" y="644.36" width="102.99" height="7.3" rx="3.65"/><path class="cls-12" d="M375.12,727.88a1.64,1.64,0,0,1,1.66,1.63v10.18a1.64,1.64,0,0,1-1.66,1.63H215.3V727.88H375.12m0-.79H214.51v15H375.12a2.45,2.45,0,0,0,2.46-2.43V729.51a2.44,2.44,0,0,0-2.46-2.42Z"/><path class="cls-13" d="M114.79,727.09a2.42,2.42,0,0,0-2.42,2.42v10.18a2.42,2.42,0,0,0,2.42,2.43h102v-15Z"/></g><g id="apple-banner"><g id="pencil"><path class="cls-1" d="M1716.28,877h17A13.94,13.94,0,0,0,1747.17,863V807.86h-30.89Z"/><path class="cls-1" d="M1685.39,807.86V863A13.94,13.94,0,0,0,1699.33,877h17V807.86Z"/><polygon class="cls-14" points="1726.24 78.39 1716.28 54.76 1716.28 78.39 1726.24 78.39"/><polygon class="cls-15" points="1716.28 54.76 1706.33 78.39 1716.28 78.39 1716.28 54.76"/><polygon class="cls-16" points="1716.28 78.39 1706.33 78.39 1685.39 128.09 1716.28 128.09 1716.28 78.39"/><polygon class="cls-17" points="1716.28 128.09 1747.17 128.09 1726.24 78.39 1716.28 78.39 1716.28 128.09"/><path class="cls-18" d="M1716.28,862.83h17a13.94,13.94,0,0,0,13.93-13.94V793.72h-30.89Z"/><path class="cls-19" d="M1685.39,793.72v55.17a13.94,13.94,0,0,0,13.94,13.94h17V793.72Z"/><rect class="cls-20" x="1685.39" y="128.09" width="30.89" height="608.4"/><rect class="cls-21" x="1716.28" y="128.09" width="30.89" height="608.4"/><rect class="cls-22" x="1716.28" y="736.48" width="30.89" height="57.24"/><rect class="cls-23" x="1685.39" y="736.48" width="30.89" height="57.24"/></g><g id="eraser"><g id="eraser-2" data-name="eraser" class="cls-24"><path class="cls-25" d="M1637.36,132.7A15.33,15.33,0,0,0,1622,117.37h-70.28a15.33,15.33,0,0,0-15.32,15.33V303h100.93Z"/><path class="cls-25" d="M1536.43,303v35.58a15.33,15.33,0,0,0,15.32,15.33H1622a15.33,15.33,0,0,0,15.33-15.33V303Z"/></g><g id="eraser-3" data-name="eraser"><path class="cls-26" d="M1637.36,118.56A15.32,15.32,0,0,0,1622,103.24h-70.28a15.32,15.32,0,0,0-15.32,15.32v170.3h100.93Z"/><path class="cls-19" d="M1536.43,288.86v35.58a15.33,15.33,0,0,0,15.32,15.33H1622a15.33,15.33,0,0,0,15.33-15.33V288.86Z"/></g></g><g id="headphones"><path class="cls-1" d="M1609.77,771.83l1.14-.27-4.32-18.27,3.51-.83-9.28-39.31-3.08.72-7.45-31.57-1.12.26s-.06-.26-.1-.4L1586.44,671a1.63,1.63,0,0,0-2-1.22l-5.18,1.22a1.64,1.64,0,0,0-1.22,2l2.63,11.14.09.4-1.12.26,7.45,31.58-3.08.73,9.27,39.31,3.51-.83,4.31,18.28,1.4-.33c4.5,17,13.15,58,6.67,102.49a158.71,158.71,0,0,0-11.91-47.95,178.14,178.14,0,0,0-12.92-24.36,186,186,0,0,0-7.13-17.26c-10.64-22.19-23.41-34.36-38-36.15-6.66-.82-13.2.55-19.49,3.26a44.17,44.17,0,0,0-4.88-.05c-25.29,1.18-49,24.27-66.87,65,2.63-16.84,4.77-34.22,6.16-50.29a605.67,605.67,0,0,0,0-102.83h10V599.71s-.87-17.58-.17-33.27c19.82-4.13,34.68-21.31,34.68-41.89,0-23.66-19.66-42.85-43.9-42.85s-43.9,19.19-43.9,42.85A42.75,42.75,0,0,0,1435.46,563l1.18,36.73h.09v65.73h11.32l-1.26.11a597.9,597.9,0,0,1,0,102.08c-2.71,31.49-8.39,68.06-14.82,95.43q-1.35,5.75-2.64,10.58c-2.17,6.08-4.2,12.52-6,19.32-6.46,17.39-10.69,17.63-10.78,17.63h0c-.34,0-8.43-.81-17.58-52.41-5.34-30.11-9-66.11-10.68-89.75a729.12,729.12,0,0,1,0-102.19l-.73,0h9.78V600.45h0q-.18-22.19-.38-44.38a90.32,90.32,0,0,0-2.85-22.28s-.68-2.64-1.49-5.2c-4.7-14.67-26.34-38-31.08-43-.3-.34-.59-.64-.86-.9l0,0h0c-.31-.3-.6-.55-.86-.76a16.14,16.14,0,0,0-20.5-1.31,28,28,0,0,0-10.72,12.48l0,0a16.65,16.65,0,0,0-1.36,3.25,65,65,0,0,0-2.42,8.44v0l0,.15c-.4,1.83-.73,3.57-1,5.15a75,75,0,0,0-.84,15.23v.09c.28,13.19,2.89,18.31,3.74,19.87h0a47.85,47.85,0,0,0,3.13,6.91c2.44,4.39,5.06,7.22,8.61,8.79a19.08,19.08,0,0,0,12,.49h0a39,39,0,0,0,7.41-3.26c6.4-3.66,8.43-7.28,10.66-6.67,2.86.79,3.28,7.74,3.43,10.67.39,7.43.51,13.08.39,15.21-.27,5-.53,12.14-.4,21h0v65.74h9a738.82,738.82,0,0,0,0,102.76c1.68,23.83,5.39,60.13,10.78,90.53,7.36,41.52,14.54,54,20.56,57.4a156.31,156.31,0,0,0-1.73,39.26c1.19,14.36,3.41,41.08,17.63,58.37,10.94,13.28,29.68,21.46,52.76,23q4.06.27,8.18.27c18.53,0,37.54-4.15,53.23-11.73s29.26-19.11,40.64-34.41a153.67,153.67,0,0,0,24.21-50.24,180.88,180.88,0,0,0,6-31.95C1627.51,852.26,1615.49,793.54,1609.77,771.83Zm-71.4-14.14c10,1.24,18.32,8.92,25,19.15-8.89-9-18.07-15.5-27.25-19.32C1536.9,757.54,1537.64,757.6,1538.37,757.69Zm-34.59,5.61a226.9,226.9,0,0,0-19.62,17.59c-3.4,3.31-13.56,13.18-27.58,36.77C1470.05,788.42,1486.42,769.64,1503.78,763.3Zm-80.49,199.47a98.24,98.24,0,0,1-.43-18.17C1422.86,950.61,1422.93,956.73,1423.29,962.77Zm111.76,56.62c-14.51,7-32.6,10.93-50.09,10.93-22.17,0-43.37-6.29-55.1-20.54-12.75-15.49-14.84-40.71-16-54.25a148.67,148.67,0,0,1,1.76-38,10.68,10.68,0,0,0,2.89-1.67q-.66,4.2-1.17,8.53c-2.58,21.86-4.8,40.73,5,62,8.11,17.62,19.58,30.59,32.3,36.54,17.78,8.3,41.16,4.8,67.61-10.13q1.13-.63,2.25-1.29a151.61,151.61,0,0,0,22.08-12.24c17.09-11.42,31.17-25.78,40.72-41.51a108.87,108.87,0,0,0,7.89-15.76C1584.43,978,1562.6,1006.07,1535.05,1019.39Zm54.21-82.51A153.8,153.8,0,0,1,1574,959.49a207,207,0,0,1-53.13,45.57,123,123,0,0,1-26.6,8.48c-19,3.66-35.37,1.27-46-6.73-18.15-13.68-18-42.67-18-68.24.09-22.53,3.45-47.53,9.3-71.29,7.44-18.55,16-33.12,22.21-43.85,14.12-24.17,24.22-34,27.53-37.21,8.94-8.68,20.1-19.53,31.74-25.07,10.08,1.13,23.87,6.63,39.62,23.61A157.46,157.46,0,0,1,1577.64,807c4,11.18,6.67,21.56,8.26,27.7,4.11,15.82,9.23,35.51,10.07,56.27C1596.66,907.86,1594.46,923,1589.26,936.88Z"/><path class="cls-27" d="M1589.07,672l-2.63-11.14a1.63,1.63,0,0,0-2-1.22l-5.18,1.23a1.63,1.63,0,0,0-1.22,2L1580.7,674l.09.4-1.12.27,7.91,33.5,10.62-2.5-7.91-33.51-1.12.26S1589.11,672.18,1589.07,672Z"/><line class="cls-28" x1="1580.18" y1="676.84" x2="1590.8" y2="674.33"/><line class="cls-29" x1="1582.46" y1="686.51" x2="1593.08" y2="684.01"/><ellipse class="cls-30" cx="1454.87" cy="514.43" rx="43.9" ry="42.85"/><path class="cls-31" d="M1434.92,536.08l1.72,53.51h27.62s-2.76-55.93,5.52-57.31"/><rect class="cls-32" x="1436.73" y="589.59" width="27.53" height="65.74"/><path class="cls-33" d="M1412.62,907.91h-.25c-6.7-.17-15.57-7-24.71-58.54-5.39-30.4-9.1-66.7-10.78-90.53a737.86,737.86,0,0,1,0-103.23l7.42.52a729.12,729.12,0,0,0,0,102.19C1386,782,1389.64,818,1395,848.06c9.15,51.6,17.24,52.4,17.58,52.41h0c.12,0,8.34-.46,19.41-47.53,6.43-27.37,12.11-63.94,14.82-95.43a597.9,597.9,0,0,0,0-102.08l7.41-.63a606.61,606.61,0,0,1,0,103.35c-2.74,31.82-8.48,68.8-15,96.49C1428.06,902.05,1418.73,907.91,1412.62,907.91Z"/><path class="cls-31" d="M1367.84,554.14c.39,7.43.51,13.08.39,15.21-.27,5-.53,12.14-.4,21h25.52q-.18-22.19-.38-44.38a90.32,90.32,0,0,0-2.85-22.28s-.68-2.64-1.49-5.2c-5.15-16.07-30.62-42.54-32-43.92a154.27,154.27,0,0,1,1.26,22.71,158,158,0,0,1-11.59,56.14,39,39,0,0,0,7.41-3.26c6.4-3.66,8.43-7.28,10.66-6.67C1367.27,544.26,1367.69,551.21,1367.84,554.14Z"/><rect class="cls-32" x="1367.83" y="590.33" width="25.53" height="65.74"/><path class="cls-34" d="M1364.13,501.77c0,8.57.15,45.82-17.79,51.63a19.08,19.08,0,0,1-12-.49c-3.55-1.57-6.17-4.4-8.61-8.79-10.41-18.78-6-42.11-6-42.11,1.65-8.8,4.25-22.66,15.58-29.53a16.14,16.14,0,0,1,20.5,1.31C1358.4,475.91,1364.07,481.82,1364.13,501.77Z"/><circle class="cls-35" cx="1435.23" cy="486.17" r="1.36"/><circle class="cls-35" cx="1445.42" cy="481.56" r="1.36"/><circle class="cls-35" cx="1456.23" cy="480.2" r="1.36"/><circle class="cls-35" cx="1467.6" cy="481.56" r="1.36"/><circle class="cls-35" cx="1477.77" cy="486.85" r="1.36"/><path class="cls-32" d="M1324.57,485c.84-1.48,2.75-4.8,6.39-5.73a4.94,4.94,0,0,1,2.07-.22c1.83.28,3.85,2,6.22,8.48a58.74,58.74,0,0,1,3.17,14.33,74.76,74.76,0,0,1-.31,17.9,62,62,0,0,1-2.64,11.06c-2.2,6.88-4,8.86-5.65,10.06a7.46,7.46,0,0,1-5.43,1.7c-1.82-.27-3.7-1.61-5.76-5.38-.85-1.56-3.46-6.68-3.74-19.87a100.94,100.94,0,0,1,1.9-20.62c.66-3,1.64-6.06,1.75-6.39A27,27,0,0,1,1324.57,485Z"/><path class="cls-36" d="M1485.06,1027.69q-4.11,0-8.18-.27c-23.08-1.57-41.82-9.75-52.76-23-14.22-17.28-16.44-44-17.63-58.37a156.42,156.42,0,0,1,2.32-42.54l7.3,1.41a149.2,149.2,0,0,0-2.21,40.52c1.12,13.55,3.21,38.76,16,54.25,11.73,14.25,32.93,20.54,55.1,20.54,17.49,0,35.58-3.92,50.09-10.93,27.55-13.32,49.38-41.44,60.18-77.4a108.87,108.87,0,0,1-7.89,15.76c-9.55,15.73-23.63,30.09-40.72,41.52a152.5,152.5,0,0,1-22.08,12.23q-1.12.66-2.25,1.29c-26.45,14.93-49.83,18.43-67.61,10.13-12.72-5.95-24.19-18.92-32.3-36.54-9.8-21.31-7.58-40.18-5-62a233.78,233.78,0,0,1,14.81-58.36,296.55,296.55,0,0,1,15.52-46.69c17.9-41.23,41.76-64.58,67.2-65.77a44.17,44.17,0,0,1,4.88.05c6.29-2.71,12.83-4.08,19.49-3.26,14.55,1.79,27.32,14,38,36.15a186,186,0,0,1,7.13,17.26A178.14,178.14,0,0,1,1597.29,818a158.71,158.71,0,0,1,11.91,47.95c6.58-45.18-2.43-86.72-6.87-103.24l7.18-1.93c5.61,20.89,18.28,80.53-.39,138.62a180.71,180.71,0,0,1-6,31.95,153.67,153.67,0,0,1-24.21,50.24c-11.38,15.3-25,26.88-40.64,34.41S1503.59,1027.69,1485.06,1027.69ZM1439.6,857.16c-5.85,23.76-9.21,48.76-9.3,71.29-.09,25.57-.2,54.56,18,68.24,10.6,8,26.93,10.39,46,6.73a123,123,0,0,0,26.6-8.48A207,207,0,0,0,1574,949.37a153.8,153.8,0,0,0,15.31-22.61c5.2-13.85,7.4-29,6.71-45.92-.84-20.76-6-40.45-10.07-56.27-1.59-6.14-4.29-16.52-8.26-27.7a157.46,157.46,0,0,0-16.94-22.23c-15.75-17-29.54-22.48-39.62-23.61-11.64,5.55-22.8,16.39-31.74,25.07-3.31,3.23-13.41,13-27.53,37.21C1455.55,824,1447,838.61,1439.6,857.16Zm-16.74,77.32a98.24,98.24,0,0,0,.43,18.17C1422.93,946.61,1422.86,940.49,1422.86,934.48Zm80.92-181.29c-17.35,6.33-33.73,25.11-47.2,54.35,14-23.59,24.18-33.46,27.58-36.77A225.21,225.21,0,0,1,1503.78,753.19Zm32.38-5.79c9.18,3.82,18.36,10.31,27.25,19.32-6.72-10.23-15-17.91-25-19.15C1537.64,747.48,1536.9,747.42,1536.16,747.4Z"/><rect class="cls-32" x="1598.74" y="743.21" width="10.04" height="19.65" transform="translate(-130.08 388.47) rotate(-13.28)"/><rect class="cls-31" x="1588.44" y="704.47" width="17.25" height="40.39" transform="translate(-123.74 386.18) rotate(-13.28)"/></g><g id="sketchbook"><rect class="cls-1" x="506.32" y="68.5" width="785.96" height="1037.3" rx="9.12"/><g class="cls-24"><path class="cls-25" d="M496.23,135.76a2.09,2.09,0,0,1,2.09-2.09h-9.08a2.1,2.1,0,1,0,0,4.19h9.08A2.09,2.09,0,0,1,496.23,135.76Z"/><path class="cls-25" d="M538.78,135.76a2.1,2.1,0,0,0-2.09-2.09H498.32a2.1,2.1,0,0,0,0,4.19h38.37A2.1,2.1,0,0,0,538.78,135.76Z"/></g><g class="cls-24"><path class="cls-25" d="M496.23,142.75a2.09,2.09,0,0,1,2.09-2.1h-9.08a2.1,2.1,0,1,0,0,4.19h9.08A2.09,2.09,0,0,1,496.23,142.75Z"/><path class="cls-25" d="M538.78,142.75a2.1,2.1,0,0,0-2.09-2.1H498.32a2.1,2.1,0,0,0,0,4.19h38.37A2.1,2.1,0,0,0,538.78,142.75Z"/></g><g class="cls-24"><path class="cls-25" d="M496.23,227.58a2.09,2.09,0,0,1,2.09-2.09h-9.08a2.1,2.1,0,1,0,0,4.19h9.08A2.09,2.09,0,0,1,496.23,227.58Z"/><path class="cls-25" d="M538.78,227.58a2.1,2.1,0,0,0-2.09-2.09H498.32a2.1,2.1,0,0,0,0,4.19h38.37A2.1,2.1,0,0,0,538.78,227.58Z"/></g><g class="cls-24"><path class="cls-25" d="M496.23,234.57a2.09,2.09,0,0,1,2.09-2.1h-9.08a2.1,2.1,0,1,0,0,4.19h9.08A2.08,2.08,0,0,1,496.23,234.57Z"/><path class="cls-25" d="M538.78,234.57a2.1,2.1,0,0,0-2.09-2.1H498.32a2.1,2.1,0,0,0,0,4.19h38.37A2.09,2.09,0,0,0,538.78,234.57Z"/></g><g class="cls-24"><path class="cls-25" d="M496.23,319.4a2.09,2.09,0,0,1,2.09-2.09h-9.08a2.1,2.1,0,1,0,0,4.19h9.08A2.09,2.09,0,0,1,496.23,319.4Z"/><path class="cls-25" d="M538.78,319.4a2.1,2.1,0,0,0-2.09-2.09H498.32a2.1,2.1,0,0,0,0,4.19h38.37A2.1,2.1,0,0,0,538.78,319.4Z"/></g><g class="cls-24"><path class="cls-25" d="M496.23,326.39a2.08,2.08,0,0,1,2.09-2.09h-9.08a2.1,2.1,0,1,0,0,4.19h9.08A2.09,2.09,0,0,1,496.23,326.39Z"/><path class="cls-25" d="M538.78,326.39a2.09,2.09,0,0,0-2.09-2.09H498.32a2.1,2.1,0,0,0,0,4.19h38.37A2.1,2.1,0,0,0,538.78,326.39Z"/></g><g class="cls-24"><path class="cls-25" d="M496.23,411.23a2.09,2.09,0,0,1,2.09-2.1h-9.08a2.1,2.1,0,1,0,0,4.19h9.08A2.09,2.09,0,0,1,496.23,411.23Z"/><path class="cls-25" d="M538.78,411.23a2.1,2.1,0,0,0-2.09-2.1H498.32a2.1,2.1,0,0,0,0,4.19h38.37A2.1,2.1,0,0,0,538.78,411.23Z"/></g><g class="cls-24"><path class="cls-25" d="M496.23,418.21a2.08,2.08,0,0,1,2.09-2.09h-9.08a2.1,2.1,0,1,0,0,4.19h9.08A2.09,2.09,0,0,1,496.23,418.21Z"/><path class="cls-25" d="M538.78,418.21a2.09,2.09,0,0,0-2.09-2.09H498.32a2.1,2.1,0,0,0,0,4.19h38.37A2.1,2.1,0,0,0,538.78,418.21Z"/></g><g class="cls-24"><path class="cls-25" d="M496.23,503.1a2.09,2.09,0,0,1,2.09-2.1h-9.08a2.1,2.1,0,1,0,0,4.19h9.08A2.08,2.08,0,0,1,496.23,503.1Z"/><path class="cls-25" d="M538.78,503.1a2.1,2.1,0,0,0-2.09-2.1H498.32a2.1,2.1,0,0,0,0,4.19h38.37A2.09,2.09,0,0,0,538.78,503.1Z"/></g><g class="cls-24"><path class="cls-25" d="M496.23,510.08a2.09,2.09,0,0,1,2.09-2.09h-9.08a2.1,2.1,0,1,0,0,4.19h9.08A2.09,2.09,0,0,1,496.23,510.08Z"/><path class="cls-25" d="M538.78,510.08a2.1,2.1,0,0,0-2.09-2.09H498.32a2.1,2.1,0,0,0,0,4.19h38.37A2.1,2.1,0,0,0,538.78,510.08Z"/></g><g class="cls-24"><path class="cls-25" d="M496.23,594.92a2.08,2.08,0,0,1,2.09-2.09h-9.08a2.1,2.1,0,1,0,0,4.19h9.08A2.09,2.09,0,0,1,496.23,594.92Z"/><path class="cls-25" d="M538.78,594.92a2.09,2.09,0,0,0-2.09-2.09H498.32a2.1,2.1,0,0,0,0,4.19h38.37A2.1,2.1,0,0,0,538.78,594.92Z"/></g><g class="cls-24"><path class="cls-25" d="M496.23,601.91a2.09,2.09,0,0,1,2.09-2.1h-9.08a2.1,2.1,0,1,0,0,4.19h9.08A2.09,2.09,0,0,1,496.23,601.91Z"/><path class="cls-25" d="M538.78,601.91a2.1,2.1,0,0,0-2.09-2.1H498.32a2.1,2.1,0,0,0,0,4.19h38.37A2.1,2.1,0,0,0,538.78,601.91Z"/></g><g class="cls-24"><path class="cls-25" d="M496.23,686.79a2.09,2.09,0,0,1,2.09-2.09h-9.08a2.1,2.1,0,1,0,0,4.19h9.08A2.09,2.09,0,0,1,496.23,686.79Z"/><path class="cls-25" d="M538.78,686.79a2.1,2.1,0,0,0-2.09-2.09H498.32a2.1,2.1,0,0,0,0,4.19h38.37A2.1,2.1,0,0,0,538.78,686.79Z"/></g><g class="cls-24"><path class="cls-25" d="M496.23,693.78a2.08,2.08,0,0,1,2.09-2.09h-9.08a2.1,2.1,0,1,0,0,4.19h9.08A2.09,2.09,0,0,1,496.23,693.78Z"/><path class="cls-25" d="M538.78,693.78a2.09,2.09,0,0,0-2.09-2.09H498.32a2.1,2.1,0,0,0,0,4.19h38.37A2.1,2.1,0,0,0,538.78,693.78Z"/></g><g class="cls-24"><path class="cls-25" d="M496.23,778.62a2.09,2.09,0,0,1,2.09-2.1h-9.08a2.1,2.1,0,1,0,0,4.19h9.08A2.09,2.09,0,0,1,496.23,778.62Z"/><path class="cls-25" d="M538.78,778.62a2.1,2.1,0,0,0-2.09-2.1H498.32a2.1,2.1,0,0,0,0,4.19h38.37A2.1,2.1,0,0,0,538.78,778.62Z"/></g><g class="cls-24"><path class="cls-25" d="M496.23,785.6a2.08,2.08,0,0,1,2.09-2.09h-9.08a2.1,2.1,0,1,0,0,4.19h9.08A2.09,2.09,0,0,1,496.23,785.6Z"/><path class="cls-25" d="M538.78,785.6a2.09,2.09,0,0,0-2.09-2.09H498.32a2.1,2.1,0,0,0,0,4.19h38.37A2.1,2.1,0,0,0,538.78,785.6Z"/></g><g class="cls-24"><path class="cls-25" d="M496.23,870.49a2.09,2.09,0,0,1,2.09-2.1h-9.08a2.1,2.1,0,1,0,0,4.19h9.08A2.08,2.08,0,0,1,496.23,870.49Z"/><path class="cls-25" d="M538.78,870.49a2.1,2.1,0,0,0-2.09-2.1H498.32a2.1,2.1,0,0,0,0,4.19h38.37A2.09,2.09,0,0,0,538.78,870.49Z"/></g><g class="cls-24"><path class="cls-25" d="M496.23,877.47a2.09,2.09,0,0,1,2.09-2.09h-9.08a2.1,2.1,0,1,0,0,4.19h9.08A2.09,2.09,0,0,1,496.23,877.47Z"/><path class="cls-25" d="M538.78,877.47a2.1,2.1,0,0,0-2.09-2.09H498.32a2.1,2.1,0,0,0,0,4.19h38.37A2.1,2.1,0,0,0,538.78,877.47Z"/></g><g class="cls-24"><path class="cls-25" d="M496.23,962.31a2.08,2.08,0,0,1,2.09-2.09h-9.08a2.1,2.1,0,1,0,0,4.19h9.08A2.09,2.09,0,0,1,496.23,962.31Z"/><path class="cls-25" d="M538.78,962.31a2.09,2.09,0,0,0-2.09-2.09H498.32a2.1,2.1,0,0,0,0,4.19h38.37A2.1,2.1,0,0,0,538.78,962.31Z"/></g><g class="cls-24"><path class="cls-25" d="M496.23,969.3a2.09,2.09,0,0,1,2.09-2.1h-9.08a2.1,2.1,0,1,0,0,4.19h9.08A2.09,2.09,0,0,1,496.23,969.3Z"/><path class="cls-25" d="M538.78,969.3a2.1,2.1,0,0,0-2.09-2.1H498.32a2.1,2.1,0,0,0,0,4.19h38.37A2.1,2.1,0,0,0,538.78,969.3Z"/></g><rect class="cls-37" x="506.32" y="44.75" width="785.96" height="1050.29" rx="9.18"/><path class="cls-1" d="M1255.89,1069.14H535.66A16.64,16.64,0,0,1,519,1052.5v13a16.64,16.64,0,0,0,16.63,16.64h720.23a16.64,16.64,0,0,0,16.63-16.64v-13A16.64,16.64,0,0,1,1255.89,1069.14Z"/><path class="cls-38" d="M1255.89,1061.39H535.66A16.64,16.64,0,0,1,519,1044.75v13a16.63,16.63,0,0,0,16.63,16.63h720.23a16.63,16.63,0,0,0,16.63-16.63v-13A16.64,16.64,0,0,1,1255.89,1061.39Z"/><path class="cls-39" d="M1255.89,1056.64H535.66A16.64,16.64,0,0,1,519,1040v4.75a16.64,16.64,0,0,0,16.63,16.64h720.23a16.64,16.64,0,0,0,16.63-16.64V1040A16.64,16.64,0,0,1,1255.89,1056.64Z"/><path class="cls-38" d="M1255.89,59.7H535.66C526.48,59.7,519,67.46,519,77v962.29c0,9.56,7.45,17.32,16.63,17.32h720.23c9.18,0,16.63-7.76,16.63-17.32V77C1272.52,67.46,1265.07,59.7,1255.89,59.7Z"/><rect class="cls-8" x="519.03" y="59.89" width="753.5" height="975.11" rx="16.64"/><path class="cls-8" d="M557.34,139V126.21c0-1.71-1.84-3.1-4.12-3.1h-21.7c-2.27,0-4.12,1.39-4.12,3.1V139c0,1.71,1.85,3.09,4.12,3.09h21.7C555.5,142.12,557.34,140.74,557.34,139Z"/><path class="cls-23" d="M557.34,140.41V127.59c0-1.71-1.84-3.1-4.12-3.1h-21.7c-2.27,0-4.12,1.39-4.12,3.1v12.82c0,1.71,1.85,3.1,4.12,3.1h21.7C555.5,143.51,557.34,142.12,557.34,140.41Z"/><path class="cls-23" d="M557.34,232.25V219.42c0-1.71-1.84-3.09-4.12-3.09h-21.7c-2.27,0-4.12,1.38-4.12,3.09v12.83c0,1.71,1.85,3.09,4.12,3.09h21.7C555.5,235.34,557.34,234,557.34,232.25Z"/><path class="cls-23" d="M557.34,324.08V311.26c0-1.71-1.84-3.09-4.12-3.09h-21.7c-2.27,0-4.12,1.38-4.12,3.09v12.82c0,1.71,1.85,3.1,4.12,3.1h21.7C555.5,327.18,557.34,325.79,557.34,324.08Z"/><path class="cls-23" d="M557.34,415.92V403.1c0-1.71-1.84-3.1-4.12-3.1h-21.7c-2.27,0-4.12,1.39-4.12,3.1v12.82c0,1.71,1.85,3.09,4.12,3.09h21.7C555.5,419,557.34,417.63,557.34,415.92Z"/><path class="cls-23" d="M557.34,507.75V494.93c0-1.71-1.84-3.09-4.12-3.09h-21.7c-2.27,0-4.12,1.38-4.12,3.09v12.82c0,1.71,1.85,3.1,4.12,3.1h21.7C555.5,510.85,557.34,509.46,557.34,507.75Z"/><path class="cls-23" d="M557.34,599.59V586.77c0-1.71-1.84-3.1-4.12-3.1h-21.7c-2.27,0-4.12,1.39-4.12,3.1v12.82c0,1.71,1.85,3.1,4.12,3.1h21.7C555.5,602.69,557.34,601.3,557.34,599.59Z"/><path class="cls-23" d="M557.34,691.43V678.6c0-1.7-1.84-3.09-4.12-3.09h-21.7c-2.27,0-4.12,1.39-4.12,3.09v12.83c0,1.71,1.85,3.09,4.12,3.09h21.7C555.5,694.52,557.34,693.14,557.34,691.43Z"/><path class="cls-23" d="M557.34,783.26V770.44c0-1.71-1.84-3.09-4.12-3.09h-21.7c-2.27,0-4.12,1.38-4.12,3.09v12.82c0,1.71,1.85,3.1,4.12,3.1h21.7C555.5,786.36,557.34,785,557.34,783.26Z"/><path class="cls-23" d="M557.34,875.1V862.28c0-1.71-1.84-3.1-4.12-3.1h-21.7c-2.27,0-4.12,1.39-4.12,3.1V875.1c0,1.71,1.85,3.09,4.12,3.09h21.7C555.5,878.19,557.34,876.81,557.34,875.1Z"/><path class="cls-23" d="M557.34,966.93V954.11c0-1.71-1.84-3.09-4.12-3.09h-21.7c-2.27,0-4.12,1.38-4.12,3.09v12.82c0,1.71,1.85,3.1,4.12,3.1h21.7C555.5,970,557.34,968.64,557.34,966.93Z"/><path class="cls-40" d="M496.23,130.52a2.08,2.08,0,0,1,2.09-2.09h-9.08a2.1,2.1,0,1,0,0,4.19h9.08A2.09,2.09,0,0,1,496.23,130.52Z"/><path class="cls-41" d="M538.78,130.52a2.09,2.09,0,0,0-2.09-2.09H498.32a2.1,2.1,0,0,0,0,4.19h38.37A2.1,2.1,0,0,0,538.78,130.52Z"/><path class="cls-40" d="M496.23,137.51a2.09,2.09,0,0,1,2.09-2.1h-9.08a2.1,2.1,0,1,0,0,4.19h9.08A2.09,2.09,0,0,1,496.23,137.51Z"/><path class="cls-41" d="M538.78,137.51a2.1,2.1,0,0,0-2.09-2.1H498.32a2.1,2.1,0,0,0,0,4.19h38.37A2.1,2.1,0,0,0,538.78,137.51Z"/><path class="cls-40" d="M496.23,222.34a2.09,2.09,0,0,1,2.09-2.09h-9.08a2.1,2.1,0,1,0,0,4.19h9.08A2.09,2.09,0,0,1,496.23,222.34Z"/><path class="cls-41" d="M538.78,222.34a2.1,2.1,0,0,0-2.09-2.09H498.32a2.1,2.1,0,0,0,0,4.19h38.37A2.1,2.1,0,0,0,538.78,222.34Z"/><path class="cls-40" d="M496.23,229.33a2.09,2.09,0,0,1,2.09-2.1h-9.08a2.1,2.1,0,1,0,0,4.19h9.08A2.09,2.09,0,0,1,496.23,229.33Z"/><path class="cls-41" d="M538.78,229.33a2.1,2.1,0,0,0-2.09-2.1H498.32a2.1,2.1,0,0,0,0,4.19h38.37A2.1,2.1,0,0,0,538.78,229.33Z"/><path class="cls-40" d="M496.23,314.16a2.09,2.09,0,0,1,2.09-2.09h-9.08a2.1,2.1,0,1,0,0,4.19h9.08A2.09,2.09,0,0,1,496.23,314.16Z"/><path class="cls-41" d="M538.78,314.16a2.1,2.1,0,0,0-2.09-2.09H498.32a2.1,2.1,0,0,0,0,4.19h38.37A2.1,2.1,0,0,0,538.78,314.16Z"/><path class="cls-40" d="M496.23,321.15a2.09,2.09,0,0,1,2.09-2.1h-9.08a2.1,2.1,0,1,0,0,4.19h9.08A2.08,2.08,0,0,1,496.23,321.15Z"/><path class="cls-41" d="M538.78,321.15a2.1,2.1,0,0,0-2.09-2.1H498.32a2.1,2.1,0,0,0,0,4.19h38.37A2.09,2.09,0,0,0,538.78,321.15Z"/><path class="cls-40" d="M496.23,406a2.09,2.09,0,0,1,2.09-2.09h-9.08a2.1,2.1,0,1,0,0,4.19h9.08A2.09,2.09,0,0,1,496.23,406Z"/><path class="cls-41" d="M538.78,406a2.1,2.1,0,0,0-2.09-2.09H498.32a2.1,2.1,0,0,0,0,4.19h38.37A2.1,2.1,0,0,0,538.78,406Z"/><path class="cls-40" d="M496.23,413a2.08,2.08,0,0,1,2.09-2.09h-9.08a2.1,2.1,0,1,0,0,4.19h9.08A2.09,2.09,0,0,1,496.23,413Z"/><path class="cls-41" d="M538.78,413a2.09,2.09,0,0,0-2.09-2.09H498.32a2.1,2.1,0,0,0,0,4.19h38.37A2.1,2.1,0,0,0,538.78,413Z"/><path class="cls-40" d="M496.23,497.86a2.09,2.09,0,0,1,2.09-2.1h-9.08a2.1,2.1,0,1,0,0,4.19h9.08A2.09,2.09,0,0,1,496.23,497.86Z"/><path class="cls-41" d="M538.78,497.86a2.1,2.1,0,0,0-2.09-2.1H498.32a2.1,2.1,0,0,0,0,4.19h38.37A2.1,2.1,0,0,0,538.78,497.86Z"/><path class="cls-40" d="M496.23,504.84a2.09,2.09,0,0,1,2.09-2.09h-9.08a2.1,2.1,0,1,0,0,4.19h9.08A2.09,2.09,0,0,1,496.23,504.84Z"/><path class="cls-41" d="M538.78,504.84a2.1,2.1,0,0,0-2.09-2.09H498.32a2.1,2.1,0,0,0,0,4.19h38.37A2.1,2.1,0,0,0,538.78,504.84Z"/><path class="cls-40" d="M496.23,589.68a2.09,2.09,0,0,1,2.09-2.1h-9.08a2.1,2.1,0,1,0,0,4.19h9.08A2.08,2.08,0,0,1,496.23,589.68Z"/><path class="cls-41" d="M538.78,589.68a2.1,2.1,0,0,0-2.09-2.1H498.32a2.1,2.1,0,0,0,0,4.19h38.37A2.09,2.09,0,0,0,538.78,589.68Z"/><path class="cls-40" d="M496.23,596.66a2.09,2.09,0,0,1,2.09-2.09h-9.08a2.1,2.1,0,1,0,0,4.19h9.08A2.09,2.09,0,0,1,496.23,596.66Z"/><path class="cls-41" d="M538.78,596.66a2.1,2.1,0,0,0-2.09-2.09H498.32a2.1,2.1,0,0,0,0,4.19h38.37A2.1,2.1,0,0,0,538.78,596.66Z"/><path class="cls-40" d="M496.23,681.55a2.09,2.09,0,0,1,2.09-2.09h-9.08a2.1,2.1,0,1,0,0,4.19h9.08A2.09,2.09,0,0,1,496.23,681.55Z"/><path class="cls-41" d="M538.78,681.55a2.1,2.1,0,0,0-2.09-2.09H498.32a2.1,2.1,0,0,0,0,4.19h38.37A2.1,2.1,0,0,0,538.78,681.55Z"/><path class="cls-40" d="M496.23,688.54a2.09,2.09,0,0,1,2.09-2.1h-9.08a2.1,2.1,0,1,0,0,4.19h9.08A2.08,2.08,0,0,1,496.23,688.54Z"/><path class="cls-41" d="M538.78,688.54a2.1,2.1,0,0,0-2.09-2.1H498.32a2.1,2.1,0,0,0,0,4.19h38.37A2.09,2.09,0,0,0,538.78,688.54Z"/><path class="cls-40" d="M496.23,773.37a2.09,2.09,0,0,1,2.09-2.09h-9.08a2.1,2.1,0,1,0,0,4.19h9.08A2.09,2.09,0,0,1,496.23,773.37Z"/><path class="cls-41" d="M538.78,773.37a2.1,2.1,0,0,0-2.09-2.09H498.32a2.1,2.1,0,0,0,0,4.19h38.37A2.1,2.1,0,0,0,538.78,773.37Z"/><path class="cls-40" d="M496.23,780.36a2.08,2.08,0,0,1,2.09-2.09h-9.08a2.1,2.1,0,1,0,0,4.19h9.08A2.09,2.09,0,0,1,496.23,780.36Z"/><path class="cls-41" d="M538.78,780.36a2.09,2.09,0,0,0-2.09-2.09H498.32a2.1,2.1,0,0,0,0,4.19h38.37A2.1,2.1,0,0,0,538.78,780.36Z"/><path class="cls-40" d="M496.23,865.25a2.09,2.09,0,0,1,2.09-2.1h-9.08a2.1,2.1,0,1,0,0,4.19h9.08A2.09,2.09,0,0,1,496.23,865.25Z"/><path class="cls-41" d="M538.78,865.25a2.1,2.1,0,0,0-2.09-2.1H498.32a2.1,2.1,0,0,0,0,4.19h38.37A2.1,2.1,0,0,0,538.78,865.25Z"/><path class="cls-40" d="M496.23,872.23a2.09,2.09,0,0,1,2.09-2.09h-9.08a2.1,2.1,0,1,0,0,4.19h9.08A2.09,2.09,0,0,1,496.23,872.23Z"/><path class="cls-41" d="M538.78,872.23a2.1,2.1,0,0,0-2.09-2.09H498.32a2.1,2.1,0,0,0,0,4.19h38.37A2.1,2.1,0,0,0,538.78,872.23Z"/><path class="cls-40" d="M496.23,957.07a2.09,2.09,0,0,1,2.09-2.1h-9.08a2.1,2.1,0,1,0,0,4.19h9.08A2.08,2.08,0,0,1,496.23,957.07Z"/><path class="cls-41" d="M538.78,957.07a2.1,2.1,0,0,0-2.09-2.1H498.32a2.1,2.1,0,0,0,0,4.19h38.37A2.09,2.09,0,0,0,538.78,957.07Z"/><path class="cls-40" d="M496.23,964.05a2.09,2.09,0,0,1,2.09-2.09h-9.08a2.1,2.1,0,1,0,0,4.19h9.08A2.09,2.09,0,0,1,496.23,964.05Z"/><path class="cls-41" d="M538.78,964.05a2.1,2.1,0,0,0-2.09-2.09H498.32a2.1,2.1,0,0,0,0,4.19h38.37A2.1,2.1,0,0,0,538.78,964.05Z"/><path class="cls-42" d="M778.32,620q1.13-27.72,2.24-55.42l18.5,8.4c82.59-49.89,113.74-67,118.37-67.41.4,0,4.48-.31,5.23-2.37.43-1.2-.56-2.17-.72-5a14,14,0,0,1,.24-3.32c1.1-7.12,0-111.8.71-139.37.1-3.66.43-12.9,0-22.31-.5-11.11-1.55-11.32-.71-14.72.21-.86.81-3-.24-4.75s-2.82-2.13-4.27-2.61c-3.36-1.13-6.13-3.56-9.26-5.23-7.49-4-40.83-23-68.61-39.41-16.57-9.78-24.89-14.94-33.24-19.47-11.24-6.09-14.5-6.68-17.33-9.73a6.41,6.41,0,0,0-4-2.37c-1.32-.11-2.36.42-5.46,2.13-2.92,1.63-4.39,2.44-4.83,2.73-14.32,9.39-82.42,54-102.75,59.82a16.59,16.59,0,0,0-7.46,4.2c-4.48,4.56-4.79,11-4.88,13.5-2.56,72.38-.53,95.05-.53,95.05,1.1,12.31,1.1,48.78,1.1,121.72v26.42a24.64,24.64,0,0,0,0,4,26.68,26.68,0,0,0,1.73,7.18c2.22,5.12,8.48,7.57,10.33,8.32,11.36,4.63,20.86,13,31.87,18.38,39,19.13,58.54,28.69,62.76,33.23,1.28,1.37,5.75,6.46,11.32,6.1a10.82,10.82,0,0,0,6-2.58c18.83-14.93,41.48-24.28,62-36.75,13.65-8.29,20.47-12.44,25.26-14.64,8.24-3.8,15.65-9.33,24-12.72,1.92-.78,5.28-2.07,7.25-5.37,2.1-3.53,1.2-6.93.53-13.17-.69-6.47-.22-13-.46-19.52-.15-4-.38-10.41-.65-18.42"/><path class="cls-42" d="M812,391.69c4.18-2.46,10.36-6.11,17.83-10.57,17-10.13,16.87-10.26,27.42-16.51,36.23-21.49,33.66-17.65,39.3-22.79,2.13-1.95,7.37-6.95,9.58-5.62,1.27.78.91,3.3.66,7.6-.3,5.06.27,10.14,0,15.19-.73,13.57-.91,29.64-1,37.65-.17,14.82-.25,22.23,0,24.77.5,5.26-.45,10.59,0,15.86a12,12,0,0,1-1.18,7.06,10.67,10.67,0,0,1-3.78,3.84c-20.45,12.9-30,17.5-30,17.5-3.72,1.78-11.24,6.39-26.28,15.61-8.26,5.07-17.5,8.76-24.9,15-1.6,1.36-6.24,5.41-7.61,4.38-.69-.52-.26-2.09,0-3.3V484.17c0-9.48-.56-32.74-.66-38-.21-10.51-.19-25.69,1-44.91"/><path class="cls-42" d="M846.09,506.89c9.09-4,18.77-8.66,28.84-14.2A353.41,353.41,0,0,0,909.54,471"/><path class="cls-42" d="M925,760.43l24.44-13.63"/><path class="cls-43" d="M1184.1,835.79a4.82,4.82,0,0,0-6.41-2.32l0,0a20.36,20.36,0,0,0-3.9-7.32c-5.76-7.35-14.1-9.65-19.09-11l-1.18-.33c-1.81-.52-1.93-.58-6.49-3.29-3.74-2.23-10.68-6.36-24-13.88-17-9.6-30.06-16.63-42.68-23.43-14.81-8-28.79-15.5-47.63-26.36-15.05-8.68-30.33-17.84-45.41-27.22A3.14,3.14,0,1,0,984,726c15.14,9.42,30.48,18.61,45.6,27.32,18.91,10.91,32.93,18.46,47.78,26.45,12.59,6.79,25.62,13.81,42.57,23.38,13.24,7.48,19.89,11.43,23.86,13.8,4.75,2.82,5.36,3.18,8,3.93l1.23.35c4.51,1.24,11.33,3.13,15.81,8.85,2.92,3.73,3.11,5.86,2.76,7-.89,2.86-6.55,4.3-8.68,4.84l-.38.1c-1.09.28-1.23.37-5,2.82-4.23,2.72-14.15,9.07-37.19,23.4-5.52,3.44-18.86,11.74-27.33,16.83-1.64-.93-3.72.18-5.32,1-1.76.94-4.43,2.46-8.24,4.7-3.11,1.83-8.31,4.9-15.17,4.7-7.73-.21-13.48-4.49-15.93-6.32l-.15-.11c-8.42-6.26-17.78-11.17-26.84-15.92a242.11,242.11,0,0,1-21.7-12.37A291.58,291.58,0,0,0,970,843.08c-9.45-5.05-21.22-11.33-46.16-26.58-16.38-10-23.82-15-27.82-17.63-4.2-2.79-5-3.29-8.1-4.3l-2.34-.73c-6.11-1.87-14.47-4.43-16.33-10a7.81,7.81,0,0,1,0-5c1.63-4.38,8.25-6.22,10.75-6.91l.31-.08c9-2.52,14.44-6.52,22-12.06,9.39-6.91,22.27-16.37,50.45-30,6.7-3.23,13.61-6.38,20.55-9.34a3.14,3.14,0,1,0-2.47-5.78c-7,3-14,6.19-20.81,9.46-28.71,13.85-41.85,23.51-51.45,30.57-7.51,5.52-12,8.85-19.94,11.06l-.3.09c-3.34.92-12.21,3.38-15,10.77a12.23,12.23,0,0,0-.37,1.23,4.75,4.75,0,0,0-2.88-1.73,4.82,4.82,0,0,0-5.6,3.89c-.41,2.27-.75,4.6-1,6.92-.53,4.93-.84,7.9.32,10.78,2.06,5.1,7.19,7.1,10,8.09,2.13,1.81,7.25,5.14,20.67,13.06,11,6.51,27,15.67,41,23.74,8.61,4.95,16.59,9.53,22.45,12.94,18.69,10.86,27.33,16.42,33.63,20.48a210.91,210.91,0,0,0,21.58,12.53c7.91,4.08,13.88,6.86,18.67,9.09,9.13,4.24,13.3,6.18,18.16,11.15l.28.29c2.45,2.51,8.17,8.41,17.44,10.87a35.34,35.34,0,0,0,8.86,1.06,41.25,41.25,0,0,0,6.27-.49,48.25,48.25,0,0,0,21.24-9.23l.13-.09c18.56-13.45,40.56-24.9,49.15-29.2,3.62-1.81,7.16-3.81,10.58-5.74a154.33,154.33,0,0,1,15-7.77l2-.83c5.94-2.5,11.54-4.85,14.55-10.84C1188.35,851.17,1187.88,843.86,1184.1,835.79Zm-7.27,16.8c-1.34,2.68-4.24,4-9.66,6.28l-2,.85a166.22,166.22,0,0,0-16,8.24c-3.32,1.87-6.75,3.81-10.16,5.51-8.8,4.41-31.35,16.15-50.49,30l-.13.1a38.78,38.78,0,0,1-17,7.5,28.61,28.61,0,0,1-11.19-.36c-6.69-1.78-11-6.16-13-8.27l-.3-.32c-6.1-6.22-11.39-8.68-21-13.15-4.72-2.19-10.58-4.92-18.32-8.91A200.33,200.33,0,0,1,986.8,868c-6.39-4.11-15.13-9.74-34-20.71-5.87-3.42-13.86-8-22.49-13-14-8.06-29.94-17.2-40.93-23.69-14.64-8.64-18.28-11.23-19.15-11.92a5.11,5.11,0,0,0-2.39-1.64l-.44-.15c-1.45-.5-4.14-1.43-4.67-2.74-.27-.65,0-3.57.32-6.15.07-.69.17-1.38.26-2.07,2.94,8.52,13,11.61,20.4,13.87.79.24,1.55.47,2.25.7,2.32.75,2.56.9,6.55,3.56s11.54,7.67,28,17.75c25.09,15.34,37,21.68,46.47,26.76A288.6,288.6,0,0,1,996.09,866a242.85,242.85,0,0,0,22.27,12.71c8.85,4.64,18,9.44,26,15.4l.15.11c2.67,2,9.79,7.29,19.5,7.56l.8,0c8.27,0,14.4-3.62,17.8-5.62l2.2-1.28c1.63,1.11,3.67,0,4.86-.65s3-1.73,5.62-3.28c5.63-3.37,14.88-9.06,28.28-17.39,23.08-14.35,33-20.73,37.26-23.45,1.77-1.13,2.87-1.84,3.21-2h0l.35-.09c2.8-.71,8.71-2.22,11.72-6.3C1177.52,845.14,1178.46,849.36,1176.83,852.59Z"/><path class="cls-44" d="M1092.11,842.3c-5.08,5.66-4.5,9.26-4.23,10.34,1.84,7.34,17.32,10.81,27.09,5.93,1-.5,7.5-3.76,7.43-8.47,0-2.94-2.63-5.05-4-6.19-6.53-5.34-15.39-4.23-18.38-3.72"/><path class="cls-45" d="M1096.39,848.45c.51-.75,3.25-4.68,7.33-4.75,1.57,0,3,.67,5.78,2.07,3,1.5,4.63,2.3,4.75,3.61s-1.45,2.58-3.62,4.23c-1.67,1.28-2.81,2.15-4.23,2.48-4.63,1.07-9.12-4.31-9.39-4.65"/><g class="cls-46"><line class="cls-47" x1="1145.4" y1="97.69" x2="1145.4" y2="97.97"/><line class="cls-48" x1="1145.4" y1="133.7" x2="1145.4" y2="986.68"/><line class="cls-47" x1="1145.4" y1="1004.55" x2="1145.4" y2="1004.82"/></g><g class="cls-46"><line class="cls-47" x1="1181.72" y1="97.69" x2="1181.72" y2="97.97"/><line class="cls-48" x1="1181.72" y1="133.7" x2="1181.72" y2="986.68"/><line class="cls-47" x1="1181.72" y1="1004.55" x2="1181.72" y2="1004.82"/></g><g class="cls-46"><line class="cls-47" x1="1218.58" y1="97.69" x2="1218.58" y2="97.97"/><line class="cls-48" x1="1218.58" y1="133.7" x2="1218.58" y2="986.68"/><line class="cls-47" x1="1218.58" y1="1004.55" x2="1218.58" y2="1004.82"/></g><g class="cls-46"><line class="cls-47" x1="1076.67" y1="97.69" x2="1076.67" y2="97.97"/><line class="cls-48" x1="1076.67" y1="133.7" x2="1076.67" y2="986.68"/><line class="cls-47" x1="1076.67" y1="1004.55" x2="1076.67" y2="1004.82"/></g><g class="cls-46"><line class="cls-47" x1="1042.31" y1="97.69" x2="1042.31" y2="97.97"/><line class="cls-49" x1="1042.31" y1="133.7" x2="1042.31" y2="986.68"/><line class="cls-47" x1="1042.31" y1="1004.55" x2="1042.31" y2="1004.82"/></g><g class="cls-46"><line class="cls-47" x1="1111.04" y1="97.69" x2="1111.04" y2="97.97"/><line class="cls-48" x1="1111.04" y1="133.7" x2="1111.04" y2="986.68"/><line class="cls-47" x1="1111.04" y1="1004.55" x2="1111.04" y2="1004.82"/></g><g class="cls-46"><line class="cls-47" x1="1007.94" y1="97.69" x2="1007.94" y2="97.97"/><line class="cls-48" x1="1007.94" y1="133.7" x2="1007.94" y2="986.68"/><line class="cls-47" x1="1007.94" y1="1004.55" x2="1007.94" y2="1004.82"/></g><g class="cls-46"><line class="cls-47" x1="939.21" y1="97.69" x2="939.21" y2="97.97"/><line class="cls-48" x1="939.21" y1="133.7" x2="939.21" y2="986.68"/><line class="cls-47" x1="939.21" y1="1004.55" x2="939.21" y2="1004.82"/></g><g class="cls-46"><line class="cls-47" x1="904.85" y1="97.69" x2="904.85" y2="97.97"/><line class="cls-48" x1="904.85" y1="133.7" x2="904.85" y2="986.68"/><line class="cls-47" x1="904.85" y1="1004.55" x2="904.85" y2="1004.82"/></g><g class="cls-46"><line class="cls-47" x1="973.58" y1="97.69" x2="973.58" y2="97.97"/><line class="cls-48" x1="973.58" y1="133.7" x2="973.58" y2="986.68"/><line class="cls-47" x1="973.58" y1="1004.55" x2="973.58" y2="1004.82"/></g><g class="cls-46"><line class="cls-47" x1="870.49" y1="97.69" x2="870.49" y2="97.97"/><line class="cls-48" x1="870.49" y1="133.7" x2="870.49" y2="986.68"/><line class="cls-47" x1="870.49" y1="1004.55" x2="870.49" y2="1004.82"/></g><g class="cls-46"><line class="cls-47" x1="801.76" y1="97.69" x2="801.76" y2="97.97"/><line class="cls-48" x1="801.76" y1="133.7" x2="801.76" y2="986.68"/><line class="cls-47" x1="801.76" y1="1004.55" x2="801.76" y2="1004.82"/></g><g class="cls-46"><line class="cls-47" x1="767.39" y1="97.69" x2="767.39" y2="97.97"/><line class="cls-48" x1="767.39" y1="133.7" x2="767.39" y2="986.68"/><line class="cls-47" x1="767.39" y1="1004.55" x2="767.39" y2="1004.82"/></g><g class="cls-46"><line class="cls-47" x1="836.12" y1="97.69" x2="836.12" y2="97.97"/><line class="cls-48" x1="836.12" y1="133.7" x2="836.12" y2="986.68"/><line class="cls-47" x1="836.12" y1="1004.55" x2="836.12" y2="1004.82"/></g><g class="cls-46"><line class="cls-47" x1="733.03" y1="97.69" x2="733.03" y2="97.97"/><line class="cls-48" x1="733.03" y1="133.7" x2="733.03" y2="986.68"/><line class="cls-47" x1="733.03" y1="1004.55" x2="733.03" y2="1004.82"/></g><g class="cls-46"><line class="cls-47" x1="664.3" y1="97.69" x2="664.3" y2="97.97"/><line class="cls-48" x1="664.3" y1="133.7" x2="664.3" y2="986.68"/><line class="cls-47" x1="664.3" y1="1004.55" x2="664.3" y2="1004.82"/></g><g class="cls-46"><line class="cls-47" x1="629.94" y1="97.69" x2="629.94" y2="97.97"/><line class="cls-48" x1="629.94" y1="133.7" x2="629.94" y2="986.68"/><line class="cls-47" x1="629.94" y1="1004.55" x2="629.94" y2="1004.82"/></g><g class="cls-46"><line class="cls-47" x1="595.57" y1="97.69" x2="595.57" y2="97.97"/><line class="cls-48" x1="595.57" y1="133.7" x2="595.57" y2="986.68"/><line class="cls-47" x1="595.57" y1="1004.55" x2="595.57" y2="1004.82"/></g><g class="cls-46"><line class="cls-47" x1="698.66" y1="97.69" x2="698.66" y2="97.97"/><line class="cls-48" x1="698.66" y1="133.7" x2="698.66" y2="986.68"/><line class="cls-47" x1="698.66" y1="1004.55" x2="698.66" y2="1004.82"/></g></g></g></svg>