<?xml version="1.0" encoding="utf-8"?>
<!-- Generator: Adobe Illustrator 23.0.1, SVG Export Plug-In . SVG Version: 6.00 Build 0)  -->
<svg version="1.1" id="Layer_1" xmlns="http://www.w3.org/2000/svg" xmlns:xlink="http://www.w3.org/1999/xlink" x="0px" y="0px"
	 viewBox="0 0 1800 864" style="enable-background:new 0 0 1800 864;" xml:space="preserve">
<style type="text/css">
	.st0{opacity:0.15;fill:#1F1719;enable-background:new    ;}
	.st1{fill:#F7F7F7;stroke:#BFC2C4;stroke-width:0.8702;stroke-miterlimit:10;}
	.st2{opacity:0.33;fill:#E6E6E7;enable-background:new    ;}
	.st3{fill:#CBCFD0;}
	.st4{fill:#55595B;}
	.st5{fill:#F6F7F7;}
	.st6{font-family:'Helvetica-Bold';}
	.st7{font-size:13.0533px;}
	.st8{fill:#FFFFFF;}
	.st9{fill:#D0D4D3;}
	.st10{fill:#96B9C4;}
	.st11{fill:#6D7072;}
	.st12{fill:#9BA0A3;}
	.st13{fill:#409BC6;}
	.st14{fill:#241F1E;}
	.st15{fill:#181214;}
	.st16{fill:#FDF6FA;}
	.st17{fill:#E1DADF;}
	.st18{fill:#CE7AA6;}
	.st19{fill:#E084B4;}
	.st20{fill:#E4AD3A;}
	.st21{fill:#D29F35;}
	.st22{fill:#BDBDBD;}
	.st23{fill:#DEDEDE;}
	.st24{opacity:0.15;}
	.st25{fill:#1F1719;}
	.st26{fill:#E69BC2;}
	.st27{fill:#57534E;}
	.st28{fill:none;stroke:#ADA79A;stroke-width:1.064;stroke-miterlimit:10;}
	.st29{fill:none;stroke:#ADA79A;stroke-width:2.1281;stroke-miterlimit:10;}
	.st30{fill:#EEEDED;stroke:#E6E5E5;stroke-width:1.5961;stroke-miterlimit:10;}
	.st31{fill:#F0F0F0;}
	.st32{fill:#BCBCBC;}
	.st33{fill:#FBFBFB;}
	.st34{fill:#E6E5E5;}
	.st35{fill:#BEBEBE;}
	.st36{fill:#FBFBFB;stroke:#FBFBFB;stroke-width:0.532;stroke-miterlimit:10;}
	.st37{fill:#6A767A;}
	.st38{fill:#3E4547;}
	.st39{fill:#EFEFEF;}
	.st40{fill:#F7F7F7;}
	.st41{fill:#5B6669;}
	
		.st42{opacity:0.3;fill:none;stroke:#3D3A31;stroke-width:7.8579;stroke-linecap:round;stroke-linejoin:round;enable-background:new    ;}
	.st43{opacity:0.3;fill:#3D3A31;enable-background:new    ;}
	
		.st44{opacity:0.3;fill:none;stroke:#3D3A31;stroke-width:1.7019;stroke-linecap:round;stroke-linejoin:round;enable-background:new    ;}
	
		.st45{opacity:0.3;fill:none;stroke:#3D3A31;stroke-width:3.4119;stroke-linecap:round;stroke-linejoin:round;enable-background:new    ;}
	.st46{opacity:0.1;}
	.st47{fill:none;stroke:#070606;stroke-width:4.0144;stroke-linecap:round;stroke-miterlimit:10;}
	.st48{fill:none;stroke:#070606;stroke-width:4.0144;stroke-linecap:round;stroke-miterlimit:10;stroke-dasharray:0.4479,29.1026;}
</style>
<g>
	<path class="st0" d="M90,312.5h260.8c19.1,0,34.6,15.5,34.6,34.6v479.3c0,19.1-15.5,34.6-34.6,34.6H90c-19.1,0-34.6-15.5-34.6-34.6
		V347.1C55.4,327.9,70.9,312.5,90,312.5z"/>
	<path class="st1" d="M90,297.2h260.8c19.1,0,34.6,15.5,34.6,34.6v479.3c0,19.1-15.5,34.6-34.6,34.6H90c-19.1,0-34.6-15.5-34.6-34.6
		V331.8C55.4,312.7,70.9,297.2,90,297.2z"/>
	<path class="st2" d="M350.8,845.7H90c-19.1,0-34.6-15.5-34.6-34.6l0,0V331.8c0-9.2,3.6-18,10.1-24.5c7-7,15.3-8.4,24.5-10.1
		c9.3-1.7,18.9-1.7,28.2,0C170,459.3,229.8,566.4,276.6,635.6c22.5,33.3,108.9,157,108.9,157v18.5
		C385.5,830.2,370,845.7,350.8,845.7C350.8,845.7,350.8,845.7,350.8,845.7L350.8,845.7z"/>
	<circle class="st3" cx="220.4" cy="685.7" r="101.2"/>
	<path class="st4" d="M91.9,320.9h257c6.6,0,11.9,5.3,11.9,11.9v190.4c0,6.6-5.3,11.9-11.9,11.9h-257c-6.6,0-11.9-5.3-11.9-11.9
		V332.8C79.9,326.2,85.3,320.9,91.9,320.9z"/>
	<circle class="st1" cx="220.4" cy="685.7" r="34.9"/>
	<text transform="matrix(1 0 0 1 201.1758 607.0723)" class="st5 st6 st7">MENU</text>
	<path class="st5" d="M151.1,680.6l-8.7,5.7l8.7,5.7V680.6z"/>
	<path class="st5" d="M134.1,691.9v-5.5l8.4,5.5v-5.7v-5.7l-8.4,5.5v-5.5h-3.5v11.3H134.1z"/>
	<path class="st5" d="M209.8,780.8l8.7-5.7l-8.7-5.7V780.8z"/>
	<path class="st5" d="M221.9,769.7h3.5v11h-3.5V769.7z"/>
	<path class="st5" d="M227.6,769.7h3.5v11h-3.5L227.6,769.7z"/>
	<path class="st5" d="M289.5,691.4l8.7-5.7l-8.7-5.7V691.4z"/>
	<path class="st5" d="M306.5,680v5.5l-8.4-5.5v5.7v5.7l8.4-5.5v5.5h3.5V680H306.5z"/>
	<path class="st8" d="M88.4,329.3h264.1v197.3H88.4L88.4,329.3z"/>
	<path class="st9" d="M88.4,329.3h264.1v13.9H88.4L88.4,329.3z"/>
	<path class="st10" d="M122.8,360.2H189c9.8,0,17.8,8,17.8,17.8v66.3c0,9.8-8,17.8-17.8,17.8h-66.3c-9.8,0-17.8-8-17.8-17.8V378
		C105,368.2,113,360.2,122.8,360.2z"/>
	<path class="st11" d="M226.2,371.2h89.7c3.2,0,5.8,2.6,5.8,5.8v4.6c0,3.2-2.6,5.8-5.8,5.8h-89.7c-3.2,0-5.8-2.6-5.8-5.8V377
		C220.4,373.8,223,371.2,226.2,371.2z"/>
	<path class="st12" d="M223.6,392.6h83.3c1.8,0,3.2,1.4,3.2,3.2v0c0,1.8-1.4,3.2-3.2,3.2h-83.3c-1.8,0-3.2-1.4-3.2-3.2v0
		C220.4,394,221.8,392.6,223.6,392.6z"/>
	<path class="st12" d="M223.6,404.6h83.3c1.8,0,3.2,1.4,3.2,3.2v0c0,1.8-1.4,3.2-3.2,3.2h-83.3c-1.8,0-3.2-1.4-3.2-3.2v0
		C220.4,406,221.8,404.6,223.6,404.6z"/>
	<path class="st12" d="M223.6,417.1h83.3c1.8,0,3.2,1.4,3.2,3.2v0c0,1.8-1.4,3.2-3.2,3.2h-83.3c-1.8,0-3.2-1.4-3.2-3.2v0
		C220.4,418.5,221.8,417.1,223.6,417.1z"/>
	<path class="st12" d="M333.7,489.8c0.8,0,1.4,0.6,1.4,1.4c0,0,0,0,0,0v8.9c0,0.8-0.6,1.4-1.4,1.4c0,0,0,0,0,0H194.6v-11.7H333.7z
		 M333.7,489.1H193.9v13.1h139.8c1.2,0,2.1-0.9,2.1-2.1v-8.8C335.8,490,334.8,489.1,333.7,489.1
		C333.7,489.1,333.7,489.1,333.7,489.1z"/>
	<path class="st13" d="M107.1,489.1c-1.2,0-2.1,0.9-2.1,2.1v8.9c0,1.2,0.9,2.1,2.1,2.1c0,0,0,0,0,0h88.8v-13.1L107.1,489.1z"/>
</g>
<g>
	<path class="st0" d="M1739.9,826.9h16.2c7.3,0,13.2-6,13.2-13.3c0,0,0,0,0,0v-52.5h-29.4V826.9z"/>
	<path class="st0" d="M1710.5,761.1v52.5c0,7.3,5.9,13.3,13.2,13.3c0,0,0,0,0.1,0h16.2v-65.8H1710.5z"/>
	<path class="st14" d="M1749.4,66.8l-9.5-22.5v22.5H1749.4z"/>
	<path class="st15" d="M1739.9,44.3l-9.5,22.5h9.5V44.3z"/>
	<path class="st16" d="M1739.9,66.8h-9.5l-19.9,47.3h29.4L1739.9,66.8z"/>
	<path class="st17" d="M1739.9,114.1h29.4l-19.9-47.3h-9.5V114.1z"/>
	<path class="st18" d="M1739.9,813.4h16.2c7.3,0,13.3-5.9,13.3-13.3v-52.5H1740L1739.9,813.4z"/>
	<path class="st19" d="M1710.5,747.6v52.5c0,7.3,5.9,13.3,13.3,13.3h16.2v-65.8H1710.5z"/>
	<path class="st20" d="M1710.5,114.1h29.4v579.1h-29.4V114.1z"/>
	<path class="st21" d="M1739.9,114.1h29.4v579.1h-29.4V114.1z"/>
	<path class="st22" d="M1739.9,693.2h29.4v54.5h-29.4V693.2z"/>
	<path class="st23" d="M1710.5,693.2h29.4v54.5h-29.4V693.2z"/>
</g>
<g>
	<g class="st24">
		<path class="st25" d="M1625.1,99.1c0-8.5-6.9-15.3-15.3-15.3c0,0,0,0,0,0h-70.3c-8.5,0-15.3,6.9-15.3,15.3v170.3h100.9
			L1625.1,99.1z"/>
		<path class="st25" d="M1524.2,269.4v35.6c0,8.5,6.9,15.3,15.3,15.3h70.2c8.5,0,15.3-6.9,15.3-15.3v-35.6H1524.2z"/>
	</g>
	<path class="st26" d="M1625.1,84.9c0-8.5-6.9-15.3-15.3-15.3c0,0,0,0,0,0h-70.3c-8.5,0-15.3,6.9-15.3,15.3v170.3h100.9L1625.1,84.9
		z"/>
	<path class="st19" d="M1524.2,255.2v35.6c0,8.5,6.9,15.3,15.3,15.3h70.2c8.5,0,15.3-6.9,15.3-15.3v-35.6H1524.2z"/>
</g>
<g>
	<path class="st0" d="M1531.6,499.5l1-0.2l-3.7-15.7l3-0.7l-8-33.7l-2.6,0.6l-6.4-27.1l-1,0.2c0,0-0.1-0.2-0.1-0.3l-2.3-9.6
		c-0.2-0.8-0.9-1.2-1.7-1.1c0,0,0,0,0,0l-4.4,1c-0.8,0.2-1.2,0.9-1.1,1.7c0,0,0,0,0,0l2.3,9.6l0.1,0.3l-1,0.2l6.4,27.1l-2.6,0.6
		l8,33.7l3-0.7l3.7,15.7l1.2-0.3c3.9,14.6,11.3,49.8,5.7,87.9c-1.2-14.2-4.7-28-10.2-41.1c-3.1-7.2-6.9-14.2-11.1-20.9
		c-1.8-5-3.8-10-6.1-14.8c-9.1-19-20.1-29.5-32.6-31c-5.7-0.7-11.3,0.5-16.7,2.8c-1.4-0.1-2.8-0.1-4.2,0c-21.7,1-42,20.8-57.4,55.8
		c2.3-14.5,4.1-29.4,5.3-43.2c2.5-29.4,2.5-58.9,0-88.2h8.6v-56.4c0,0-0.7-15.1-0.1-28.5c17-3.5,29.8-18.3,29.8-35.9
		c0-20.3-16.9-36.8-37.7-36.8s-37.7,16.5-37.7,36.8c0.1,14.2,8.3,27,21.1,33l1,31.5h0.1v56.4h9.7l-1.1,0.1c2.5,29.1,2.5,58.4,0,87.6
		c-2.3,27-7.2,58.4-12.7,81.9c-0.8,3.3-1.5,6.3-2.3,9.1c-1.9,5.2-3.6,10.7-5.1,16.6c-5.5,14.9-9.2,15.1-9.3,15.1
		c-0.3,0-7.2-0.7-15.1-45c-4.6-25.8-7.7-56.7-9.2-77c-2.1-29.2-2.1-58.5,0-87.7h-0.6h8.4v-56.5c-0.1-12.7-0.2-25.4-0.3-38.1
		c0-6.4-0.8-12.9-2.4-19.1c0,0-0.6-2.3-1.3-4.5c-4-12.6-22.6-32.6-26.7-36.9c-0.3-0.3-0.5-0.5-0.7-0.8c-0.3-0.3-0.5-0.5-0.7-0.7
		c-4.8-4.5-12.2-5-17.6-1.1c-4.1,2.6-7.3,6.3-9.2,10.7c-0.5,0.9-0.9,1.8-1.2,2.8c-0.9,2.4-1.5,4.8-2.1,7.2v0.1
		c-0.3,1.6-0.6,3.1-0.9,4.4c-0.7,4.3-0.9,8.7-0.7,13.1v0.1c0.2,11.3,2.5,15.7,3.2,17.1c0.7,2,1.6,4,2.7,5.9c2.1,3.8,4.3,6.2,7.4,7.5
		c3.3,1.2,6.9,1.4,10.3,0.4c2.2-0.7,4.3-1.6,6.4-2.8c5.5-3.1,7.2-6.2,9.1-5.7c2.5,0.7,2.8,6.6,2.9,9.2c0.3,6.4,0.4,11.2,0.3,13.1
		c-0.2,4.3-0.5,10.4-0.3,18v56.4h7.7c-2,29.4-2,58.8,0,88.2c1.4,20.4,4.6,51.6,9.3,77.7c6.3,35.6,12.5,46.3,17.6,49.3
		c-1.9,11.1-2.4,22.4-1.5,33.7c1,12.3,2.9,35.3,15.1,50.1c9.4,11.4,25.5,18.4,45.3,19.7c2.3,0.2,4.7,0.2,7,0.2
		c15.9,0,32.2-3.6,45.7-10.1c13.5-6.5,25.1-16.4,34.9-29.5c9.5-13,16.5-27.6,20.8-43.1c2.5-9,4.3-18.1,5.1-27.4
		C1546.8,568.5,1536.5,518.1,1531.6,499.5L1531.6,499.5z M1470.3,487.3c8.6,1.1,15.7,7.7,21.5,16.4c-7.6-7.7-15.5-13.3-23.4-16.6
		C1469.1,487.2,1469.7,487.3,1470.3,487.3z M1440.6,492.1c-5.9,4.7-11.5,9.7-16.8,15.1c-2.9,2.8-11.6,11.3-23.7,31.6
		C1411.7,513.7,1425.8,497.6,1440.6,492.1L1440.6,492.1z M1371.6,663.3c-0.6-5.2-0.7-10.4-0.4-15.6
		C1371.2,652.9,1371.3,658.1,1371.6,663.3z M1467.5,711.9c-12.5,6-28,9.4-43,9.4c-19,0-37.2-5.4-47.3-17.6
		c-10.9-13.3-12.7-34.9-13.7-46.6c-0.9-10.9-0.4-21.8,1.5-32.6c0.9-0.3,1.7-0.8,2.5-1.4c-0.4,2.4-0.7,4.8-1,7.3
		c-2.2,18.8-4.1,35,4.3,53.2c7,15.1,16.8,26.2,27.7,31.4c15.3,7.1,35.3,4.1,58-8.7c0.6-0.4,1.3-0.7,1.9-1.1
		c6.6-3,12.9-6.5,18.9-10.5c14.7-9.8,26.7-22.1,34.9-35.6c2.6-4.3,4.9-8.8,6.8-13.5C1509.9,676.4,1491.1,700.5,1467.5,711.9
		L1467.5,711.9z M1514,641.1c-3.8,6.8-8.2,13.3-13.1,19.4c-12.9,15.5-28.3,28.8-45.6,39.1c-7.3,3.3-15,5.7-22.8,7.3
		c-16.3,3.1-30.4,1.1-39.5-5.8c-15.6-11.7-15.4-36.6-15.4-58.6c0.1-19.3,3-40.8,8-61.2c6.4-15.9,13.7-28.4,19.1-37.6
		c12.1-20.7,20.8-29.2,23.6-31.9c7.7-7.4,17.2-16.8,27.2-21.5c8.6,1,20.5,5.7,34,20.3c5.4,5.9,10.3,12.3,14.6,19.1
		c3.4,9.6,5.7,18.5,7.1,23.8c3.5,13.6,7.9,30.5,8.6,48.3C1520.3,616.2,1518.5,629.2,1514,641.1z"/>
	<path class="st27" d="M1513.8,413.8l-2.3-9.6c-0.2-0.8-0.9-1.2-1.7-1.1c0,0,0,0,0,0l-4.4,1.1c-0.8,0.2-1.2,0.9-1.1,1.7c0,0,0,0,0,0
		l2.3,9.6l0.1,0.3l-1,0.2l6.8,28.7l9.1-2.1l-6.8-28.8l-1,0.2C1513.9,414.2,1513.9,414,1513.8,413.8L1513.8,413.8z"/>
	<path class="st28" d="M1506.2,418l9.1-2.2"/>
	<path class="st29" d="M1508.2,426.3l9.1-2.1"/>
	<ellipse class="st30" cx="1398.7" cy="278.6" rx="37.7" ry="36.8"/>
	<path class="st31" d="M1381.6,297.2l1.5,45.9h23.7c0,0-2.4-48,4.7-49.2"/>
	<path class="st32" d="M1383.1,343.1h23.6v56.4h-23.6V343.1z"/>
	<path class="st33" d="M1362.4,616.2h-0.2c-5.7-0.1-13.4-6-21.2-50.2c-4.6-26.1-7.8-57.2-9.3-77.7c-2.1-29.5-2.1-59.1,0-88.6
		l6.4,0.4c-2.1,29.2-2.1,58.5,0,87.7c1.5,20.3,4.6,51.2,9.2,77c7.9,44.3,14.8,45,15.1,45c0.1,0,7.2-0.4,16.7-40.8
		c5.5-23.5,10.4-54.9,12.7-81.9c2.5-29.1,2.5-58.4,0-87.6l6.4-0.5c2.5,29.5,2.5,59.2,0,88.7c-2.4,27.3-7.3,59-12.9,82.8
		C1375.7,611.2,1367.7,616.2,1362.4,616.2L1362.4,616.2z"/>
	<path class="st31" d="M1324,312.7c0.3,6.4,0.4,11.2,0.3,13.1c-0.2,4.3-0.5,10.4-0.3,18h21.9c-0.1-12.7-0.2-25.4-0.3-38.1
		c0-6.4-0.8-12.9-2.4-19.1c0,0-0.6-2.3-1.3-4.5c-4.4-13.8-26.3-36.5-27.5-37.7c0.8,6.5,1.2,13,1.1,19.5c-0.4,16.5-3.7,32.9-9.9,48.2
		c2.2-0.7,4.3-1.6,6.4-2.8c5.5-3.1,7.2-6.2,9.1-5.7C1323.5,304.2,1323.9,310.2,1324,312.7L1324,312.7z"/>
	<path class="st32" d="M1324,343.7h21.9v56.4H1324V343.7z"/>
	<path class="st34" d="M1320.8,267.7c0,7.4,0.1,39.3-15.3,44.3c-3.4,1-7,0.8-10.3-0.4c-3-1.3-5.3-3.8-7.4-7.5
		c-8.9-16.1-5.1-36.1-5.1-36.1c1.4-7.6,3.6-19.4,13.4-25.3c5.4-3.9,12.8-3.4,17.6,1.1C1315.9,245.5,1320.8,250.6,1320.8,267.7
		L1320.8,267.7z"/>
	<circle class="st35" cx="1381.8" cy="254.3" r="1.2"/>
	<circle class="st35" cx="1390.6" cy="250.4" r="1.2"/>
	<circle class="st35" cx="1399.8" cy="249.2" r="1.2"/>
	<circle class="st35" cx="1409.6" cy="250.4" r="1.2"/>
	<circle class="st35" cx="1418.3" cy="254.9" r="1.2"/>
	<path class="st32" d="M1286.9,253.3c0.7-1.3,2.4-4.1,5.5-4.9c0.6-0.2,1.2-0.3,1.8-0.2c1.6,0.2,3.3,1.7,5.3,7.3
		c1.4,4,2.3,8.1,2.7,12.3c0.5,5.1,0.4,10.3-0.3,15.4c-0.5,3.2-1.2,6.4-2.3,9.5c-1.9,5.9-3.4,7.6-4.8,8.6c-1.3,1.1-3,1.6-4.7,1.5
		c-1.6-0.2-3.2-1.4-4.9-4.6c-0.7-1.3-3-5.7-3.2-17.1c-0.1-5.9,0.5-11.9,1.6-17.7c0.6-2.6,1.4-5.2,1.5-5.5
		C1285.5,256.3,1286.1,254.8,1286.9,253.3L1286.9,253.3z"/>
	<path class="st36" d="M1424.6,719c-2.4,0-4.7-0.1-7-0.2c-19.8-1.3-35.9-8.4-45.3-19.7c-12.2-14.8-14.1-37.8-15.1-50.1
		c-1-12.2-0.3-24.5,2-36.5l6.3,1.2c-2.2,11.4-2.9,23.1-1.9,34.8c1,11.6,2.8,33.3,13.7,46.6c10.1,12.2,28.3,17.6,47.3,17.6
		c15,0,30.5-3.4,43-9.4c23.6-11.4,42.4-35.6,51.6-66.4c-1.9,4.7-4.2,9.2-6.8,13.5c-8.2,13.5-20.3,25.8-34.9,35.6
		c-6,4-12.4,7.5-18.9,10.5c-0.6,0.4-1.3,0.7-1.9,1.1c-22.7,12.8-42.8,15.8-58,8.7c-10.9-5.1-20.8-16.2-27.7-31.4
		c-8.4-18.3-6.5-34.5-4.3-53.2c2.1-17.2,6.3-34,12.7-50.1c3.3-13.7,7.8-27.1,13.3-40.1c15.4-35.4,35.8-55.4,57.7-56.4
		c1.4-0.1,2.8,0,4.2,0c5.4-2.3,11-3.5,16.7-2.8c12.5,1.5,23.4,12,32.6,31c2.3,4.8,4.3,9.8,6.1,14.8c4.2,6.7,7.9,13.6,11,20.9
		c5.5,13.1,9,27,10.2,41.1c5.6-38.8-2.1-74.4-5.9-88.6l6.2-1.7c4.8,17.9,15.7,69.1-0.3,118.9c-0.9,9.3-2.6,18.5-5.1,27.4
		c-4.2,15.5-11.3,30.1-20.8,43.1c-9.8,13.1-21.5,23.1-34.9,29.5C1456.8,715.4,1440.5,719,1424.6,719L1424.6,719z M1385.6,572.7
		c-5,20.4-7.9,41.8-8,61.2c-0.1,21.9-0.2,46.8,15.4,58.6c9.1,6.9,23.1,8.9,39.5,5.8c7.9-1.6,15.5-4,22.8-7.3
		c17.3-10.4,32.7-23.6,45.6-39.1c4.9-6.1,9.3-12.6,13.1-19.4c4.5-11.9,6.3-24.9,5.8-39.4c-0.7-17.8-5.1-34.7-8.6-48.3
		c-1.4-5.3-3.7-14.2-7.1-23.8c-4.3-6.8-9.1-13.2-14.5-19.1c-13.5-14.6-25.3-19.3-34-20.3c-10,4.8-19.6,14.1-27.2,21.5
		c-2.8,2.8-11.5,11.2-23.6,31.9C1399.3,544.2,1391.9,556.8,1385.6,572.7z M1371.2,639c-0.4,5.2-0.2,10.4,0.4,15.6
		C1371.3,649.4,1371.2,644.2,1371.2,639z M1440.6,483.5c-14.9,5.4-28.9,21.5-40.5,46.6c12-20.2,20.7-28.7,23.7-31.6
		C1429.1,493.2,1434.7,488.2,1440.6,483.5L1440.6,483.5z M1468.4,478.5c7.9,3.3,15.8,8.8,23.4,16.6c-5.8-8.8-12.9-15.4-21.5-16.4
		C1469.7,478.6,1469.1,478.5,1468.4,478.5z"/>
	<path class="st32" d="M1520.3,476.1l8.4-2l3.9,16.4l-8.4,2L1520.3,476.1z"/>
	<path class="st31" d="M1509.5,443.8l14.4-3.4l8,33.7l-14.4,3.4L1509.5,443.8z"/>
</g>
<g>
	<path class="st37" d="M537.5,69.8c0-0.9,0.8-1.7,1.7-1.7c0,0,0,0,0,0h-7.4c-0.9-0.1-1.8,0.6-1.8,1.6c-0.1,0.9,0.6,1.8,1.6,1.8
		c0.1,0,0.2,0,0.2,0h7.4C538.2,71.6,537.5,70.8,537.5,69.8C537.5,69.8,537.5,69.8,537.5,69.8z"/>
	<path class="st37" d="M537.5,75.5c0-0.9,0.8-1.7,1.7-1.7c0,0,0,0,0,0h-7.4c-0.9-0.1-1.8,0.6-1.8,1.6c-0.1,0.9,0.6,1.8,1.6,1.8
		c0.1,0,0.2,0,0.2,0h7.4C538.2,77.2,537.5,76.5,537.5,75.5z"/>
	<path class="st37" d="M537.5,144.6c0-0.9,0.8-1.7,1.7-1.7h-7.4c-0.9-0.1-1.8,0.6-1.8,1.6c-0.1,0.9,0.6,1.8,1.6,1.8
		c0.1,0,0.2,0,0.2,0h7.4C538.2,146.3,537.5,145.6,537.5,144.6C537.5,144.6,537.5,144.6,537.5,144.6z"/>
	<path class="st37" d="M537.5,150.3c0-0.9,0.8-1.7,1.7-1.7c0,0,0,0,0,0h-7.4c-0.9-0.1-1.8,0.6-1.8,1.6c-0.1,0.9,0.6,1.8,1.6,1.8
		c0.1,0,0.2,0,0.2,0h7.4C538.2,152,537.5,151.2,537.5,150.3z"/>
	<path class="st37" d="M537.5,219.4c0-0.9,0.8-1.7,1.7-1.7h-7.4c-0.9-0.1-1.8,0.6-1.8,1.6c-0.1,0.9,0.6,1.8,1.6,1.8
		c0.1,0,0.2,0,0.2,0h7.4C538.2,221.1,537.5,220.3,537.5,219.4C537.5,219.4,537.5,219.4,537.5,219.4z"/>
	<path class="st37" d="M537.5,225.1c0-0.9,0.8-1.7,1.7-1.7c0,0,0,0,0,0h-7.4c-0.9-0.1-1.8,0.6-1.8,1.6c-0.1,0.9,0.6,1.8,1.6,1.8
		c0.1,0,0.2,0,0.2,0h7.4C538.2,226.8,537.5,226,537.5,225.1C537.5,225.1,537.5,225.1,537.5,225.1z"/>
	<path class="st37" d="M537.5,294.2c0-0.9,0.8-1.7,1.7-1.7h-7.4c-0.9-0.1-1.8,0.6-1.8,1.6c-0.1,0.9,0.6,1.8,1.6,1.8
		c0.1,0,0.2,0,0.2,0h7.4C538.2,295.9,537.5,295.1,537.5,294.2C537.5,294.2,537.5,294.2,537.5,294.2z"/>
	<path class="st37" d="M537.5,299.9c0-0.9,0.8-1.7,1.7-1.7c0,0,0,0,0,0h-7.4c-0.9-0.1-1.8,0.6-1.8,1.6c-0.1,0.9,0.6,1.8,1.6,1.8
		c0.1,0,0.2,0,0.2,0h7.4C538.2,301.6,537.5,300.8,537.5,299.9C537.5,299.9,537.5,299.9,537.5,299.9z"/>
	<path class="st37" d="M537.5,369c0-0.9,0.8-1.7,1.7-1.7c0,0,0,0,0,0h-7.4c-0.9-0.1-1.8,0.6-1.8,1.6c-0.1,0.9,0.6,1.8,1.6,1.8
		c0.1,0,0.2,0,0.2,0h7.4C538.2,370.7,537.5,369.9,537.5,369z"/>
	<path class="st37" d="M537.5,374.6c0-0.9,0.8-1.7,1.7-1.7h-7.4c-0.9-0.1-1.8,0.6-1.8,1.6c-0.1,0.9,0.6,1.8,1.6,1.8
		c0.1,0,0.2,0,0.2,0h7.4C538.2,376.4,537.5,375.6,537.5,374.6C537.5,374.7,537.5,374.6,537.5,374.6z"/>
	<path class="st37" d="M537.5,443.7c0-0.9,0.8-1.7,1.7-1.7c0,0,0,0,0,0h-7.4c-0.9-0.1-1.8,0.6-1.8,1.6c-0.1,0.9,0.6,1.8,1.6,1.8
		c0.1,0,0.2,0,0.2,0h7.4C538.2,445.4,537.5,444.7,537.5,443.7C537.5,443.7,537.5,443.7,537.5,443.7z"/>
	<path class="st37" d="M537.5,449.4c0-0.9,0.8-1.7,1.7-1.7l0,0h-7.4c-0.9-0.1-1.8,0.6-1.8,1.6c-0.1,0.9,0.6,1.8,1.6,1.8
		c0.1,0,0.2,0,0.2,0h7.4C538.2,451.1,537.5,450.4,537.5,449.4C537.5,449.4,537.5,449.4,537.5,449.4z"/>
	<path class="st37" d="M537.5,518.5c0-0.9,0.8-1.7,1.7-1.7l0,0h-7.4c-0.9-0.1-1.8,0.6-1.8,1.6c-0.1,0.9,0.6,1.8,1.6,1.8
		c0.1,0,0.2,0,0.2,0h7.4C538.2,520.2,537.5,519.5,537.5,518.5C537.5,518.5,537.5,518.5,537.5,518.5z"/>
	<path class="st37" d="M537.5,524.2c0-0.9,0.8-1.7,1.7-1.7c0,0,0,0,0,0h-7.4c-0.9-0.1-1.8,0.6-1.8,1.6c-0.1,0.9,0.6,1.8,1.6,1.8
		c0.1,0,0.2,0,0.2,0h7.4C538.2,525.9,537.5,525.2,537.5,524.2C537.5,524.2,537.5,524.2,537.5,524.2z"/>
	<path class="st37" d="M537.5,593.3c0-0.9,0.8-1.7,1.7-1.7l0,0h-7.4c-0.9-0.1-1.8,0.6-1.8,1.6c-0.1,0.9,0.6,1.8,1.6,1.8
		c0.1,0,0.2,0,0.2,0h7.4C538.2,595,537.5,594.3,537.5,593.3C537.5,593.3,537.5,593.3,537.5,593.3z"/>
	<path class="st37" d="M537.5,599c0-0.9,0.8-1.7,1.7-1.7c0,0,0,0,0,0h-7.4c-0.9-0.1-1.8,0.6-1.8,1.6c-0.1,0.9,0.6,1.8,1.6,1.8
		c0.1,0,0.2,0,0.2,0h7.4C538.2,600.7,537.5,599.9,537.5,599C537.5,599,537.5,599,537.5,599z"/>
	<path class="st37" d="M537.5,668.1c0-0.9,0.8-1.7,1.7-1.7c0,0,0,0,0,0h-7.4c-0.9-0.1-1.8,0.6-1.8,1.6c-0.1,0.9,0.6,1.8,1.6,1.8
		c0.1,0,0.2,0,0.2,0h7.4C538.2,669.8,537.5,669.1,537.5,668.1L537.5,668.1z"/>
	<path class="st37" d="M537.5,673.8c0-0.9,0.8-1.7,1.7-1.7l0,0h-7.4c-0.9-0.1-1.8,0.6-1.8,1.6c-0.1,0.9,0.6,1.8,1.6,1.8
		c0.1,0,0.2,0,0.2,0h7.4C538.2,675.5,537.5,674.8,537.5,673.8C537.5,673.8,537.5,673.8,537.5,673.8z"/>
	<path class="st37" d="M537.5,742.9c0-0.9,0.8-1.7,1.7-1.7c0,0,0,0,0,0h-7.4c-0.9-0.1-1.8,0.6-1.8,1.6c-0.1,0.9,0.6,1.8,1.6,1.8
		c0.1,0,0.2,0,0.2,0h7.4C538.2,744.6,537.5,743.8,537.5,742.9C537.5,742.9,537.5,742.9,537.5,742.9z"/>
	<path class="st37" d="M537.5,748.6c0-0.9,0.8-1.7,1.7-1.7l0,0h-7.4c-0.9-0.1-1.8,0.6-1.8,1.6c-0.1,0.9,0.6,1.8,1.6,1.8
		c0.1,0,0.2,0,0.2,0h7.4C538.2,750.3,537.5,749.5,537.5,748.6C537.5,748.6,537.5,748.6,537.5,748.6z"/>
	<g>
		<g>
			<path class="st0" d="M553.1,19.3h625.1c4.1,0,7.4,3.3,7.4,7.4v829.8c0,4.1-3.3,7.4-7.4,7.4H553.1c-4.1,0-7.4-3.3-7.4-7.4V26.8
				C545.7,22.7,549,19.3,553.1,19.3z"/>
			<g class="st24">
				<path class="st25" d="M537.5,74.1c0-0.9,0.8-1.7,1.7-1.7h-7.4c-0.9-0.1-1.8,0.6-1.8,1.6c-0.1,0.9,0.6,1.8,1.6,1.8
					c0.1,0,0.2,0,0.2,0h7.4C538.2,75.8,537.5,75.1,537.5,74.1C537.5,74.1,537.5,74.1,537.5,74.1z"/>
				<path class="st25" d="M572.1,74.1c0-0.9-0.8-1.7-1.7-1.7h-31.2c-0.9,0.1-1.7,0.9-1.6,1.8c0.1,0.9,0.7,1.5,1.6,1.6h31.2
					C571.4,75.8,572.1,75,572.1,74.1z"/>
			</g>
			<g class="st24">
				<path class="st25" d="M537.5,79.8c0-0.9,0.8-1.7,1.7-1.7c0,0,0,0,0,0h-7.4c-0.9-0.1-1.8,0.6-1.8,1.6c-0.1,0.9,0.6,1.8,1.6,1.8
					c0.1,0,0.2,0,0.2,0h7.4C538.2,81.5,537.5,80.7,537.5,79.8z"/>
				<path class="st25" d="M572.1,79.8c0-0.9-0.8-1.7-1.7-1.7h-31.2c-0.9,0.1-1.7,0.9-1.6,1.8c0.1,0.9,0.7,1.5,1.6,1.6h31.2
					C571.3,81.5,572.1,80.7,572.1,79.8z"/>
			</g>
			<g class="st24">
				<path class="st25" d="M537.5,148.9c0-0.9,0.8-1.7,1.7-1.7h-7.4c-0.9-0.1-1.8,0.6-1.8,1.6c-0.1,0.9,0.6,1.8,1.6,1.8
					c0.1,0,0.2,0,0.2,0h7.4C538.2,150.6,537.5,149.8,537.5,148.9C537.5,148.9,537.5,148.9,537.5,148.9z"/>
				<path class="st25" d="M572.1,148.9c0-0.9-0.8-1.7-1.7-1.7h-31.2c-0.9,0.1-1.7,0.9-1.6,1.8c0.1,0.9,0.7,1.5,1.6,1.6h31.2
					C571.4,150.6,572.1,149.8,572.1,148.9z"/>
			</g>
			<g class="st24">
				<path class="st25" d="M537.5,154.6c0-0.9,0.8-1.7,1.7-1.7c0,0,0,0,0,0h-7.4c-0.9-0.1-1.8,0.6-1.8,1.6c-0.1,0.9,0.6,1.8,1.6,1.8
					c0.1,0,0.2,0,0.2,0h7.4C538.2,156.3,537.5,155.5,537.5,154.6C537.5,154.6,537.5,154.6,537.5,154.6z"/>
				<path class="st25" d="M572.1,154.6c0-0.9-0.8-1.7-1.7-1.7h-31.2c-0.9,0.1-1.7,0.9-1.6,1.8c0.1,0.9,0.7,1.5,1.6,1.6h31.2
					C571.3,156.3,572.1,155.5,572.1,154.6C572.1,154.6,572.1,154.6,572.1,154.6z"/>
			</g>
			<g class="st24">
				<path class="st25" d="M537.5,223.6c0-0.9,0.8-1.7,1.7-1.7h-7.4c-0.9-0.1-1.8,0.6-1.8,1.6c-0.1,0.9,0.6,1.8,1.6,1.8
					c0.1,0,0.2,0,0.2,0h7.4C538.2,225.4,537.5,224.6,537.5,223.6C537.5,223.6,537.5,223.6,537.5,223.6z"/>
				<path class="st25" d="M572.1,223.6c0-0.9-0.8-1.7-1.7-1.7h-31.2c-0.9,0.1-1.7,0.9-1.6,1.8c0.1,0.9,0.7,1.5,1.6,1.6h31.2
					C571.4,225.3,572.1,224.6,572.1,223.6z"/>
			</g>
			<g class="st24">
				<path class="st25" d="M537.5,229.3c0-0.9,0.8-1.7,1.7-1.7c0,0,0,0,0,0h-7.4c-0.9-0.1-1.8,0.6-1.8,1.6c-0.1,0.9,0.6,1.8,1.6,1.8
					c0.1,0,0.2,0,0.2,0h7.4C538.2,231,537.5,230.3,537.5,229.3C537.5,229.3,537.5,229.3,537.5,229.3z"/>
				<path class="st25" d="M572.1,229.3c0-0.9-0.8-1.7-1.7-1.7l0,0h-31.2c-0.9,0.1-1.7,0.9-1.6,1.8c0.1,0.9,0.7,1.5,1.6,1.6h31.2
					C571.4,231,572.1,230.3,572.1,229.3z"/>
			</g>
			<g class="st24">
				<path class="st25" d="M537.5,298.4c0-0.9,0.8-1.7,1.7-1.7c0,0,0,0,0,0h-7.4c-0.9-0.1-1.8,0.6-1.8,1.6c-0.1,0.9,0.6,1.8,1.6,1.8
					c0.1,0,0.2,0,0.2,0h7.4C538.2,300.1,537.5,299.4,537.5,298.4z"/>
				<path class="st25" d="M572.1,298.4c0-0.9-0.8-1.7-1.7-1.7h-31.2c-0.9,0.1-1.7,0.9-1.6,1.8c0.1,0.9,0.7,1.5,1.6,1.6h31.2
					C571.3,300.1,572.1,299.4,572.1,298.4z"/>
			</g>
			<g class="st24">
				<path class="st25" d="M537.5,304.1c0-0.9,0.8-1.7,1.7-1.7c0,0,0,0,0,0h-7.4c-0.9-0.1-1.8,0.6-1.8,1.6c-0.1,0.9,0.6,1.8,1.6,1.8
					c0.1,0,0.2,0,0.2,0h7.4C538.2,305.8,537.5,305.1,537.5,304.1C537.5,304.1,537.5,304.1,537.5,304.1z"/>
				<path class="st25" d="M572.1,304.1c0-0.9-0.8-1.7-1.7-1.7l0,0h-31.2c-0.9,0.1-1.7,0.9-1.6,1.8c0.1,0.9,0.7,1.5,1.6,1.6h31.2
					C571.4,305.8,572.1,305,572.1,304.1z"/>
			</g>
			<g class="st24">
				<path class="st25" d="M537.5,373.2c0-0.9,0.8-1.7,1.7-1.7c0,0,0,0,0,0h-7.4c-0.9-0.1-1.8,0.6-1.8,1.6c-0.1,0.9,0.6,1.8,1.6,1.8
					c0.1,0,0.2,0,0.2,0h7.4C538.2,374.9,537.5,374.2,537.5,373.2C537.5,373.2,537.5,373.2,537.5,373.2z"/>
				<path class="st25" d="M572.1,373.2c0-0.9-0.8-1.7-1.7-1.7h-31.2c-0.9,0.1-1.7,0.9-1.6,1.8c0.1,0.9,0.7,1.5,1.6,1.6h31.2
					C571.3,374.9,572.1,374.2,572.1,373.2L572.1,373.2z"/>
			</g>
			<g class="st24">
				<path class="st25" d="M537.5,378.9c0-0.9,0.8-1.7,1.7-1.7h-7.4c-0.9-0.1-1.8,0.6-1.8,1.6c-0.1,0.9,0.6,1.8,1.6,1.8
					c0.1,0,0.2,0,0.2,0h7.4C538.2,380.6,537.5,379.9,537.5,378.9C537.5,378.9,537.5,378.9,537.5,378.9z"/>
				<path class="st25" d="M572.1,378.9c0-0.9-0.8-1.7-1.7-1.7h-31.2c-0.9,0.1-1.7,0.9-1.6,1.8c0.1,0.9,0.7,1.5,1.6,1.6h31.2
					C571.4,380.6,572.1,379.9,572.1,378.9z"/>
			</g>
			<g class="st24">
				<path class="st25" d="M537.5,448c0-0.9,0.8-1.7,1.7-1.7c0,0,0,0,0,0h-7.4c-0.9-0.1-1.8,0.6-1.8,1.6c-0.1,0.9,0.6,1.8,1.6,1.8
					c0.1,0,0.2,0,0.2,0h7.4C538.2,449.7,537.5,448.9,537.5,448C537.5,448,537.5,448,537.5,448z"/>
				<path class="st25" d="M572.1,448c0-0.9-0.8-1.7-1.7-1.7h0h-31.2c-0.9,0.1-1.7,0.9-1.6,1.8c0.1,0.9,0.7,1.5,1.6,1.6h31.2
					C571.4,449.7,572.1,448.9,572.1,448z"/>
			</g>
			<g class="st24">
				<path class="st25" d="M537.5,453.7c0-0.9,0.8-1.7,1.7-1.7c0,0,0,0,0,0h-7.4c-0.9-0.1-1.8,0.6-1.8,1.6c-0.1,0.9,0.6,1.8,1.6,1.8
					c0.1,0,0.2,0,0.2,0h7.4C538.2,455.4,537.5,454.6,537.5,453.7L537.5,453.7z"/>
				<path class="st25" d="M572.1,453.7c0-0.9-0.8-1.7-1.7-1.7h-31.2c-0.9,0.1-1.7,0.9-1.6,1.8c0.1,0.9,0.7,1.5,1.6,1.6h31.2
					C571.3,455.4,572.1,454.6,572.1,453.7z"/>
			</g>
			<g class="st24">
				<path class="st25" d="M537.5,522.8c0-0.9,0.8-1.7,1.7-1.7l0,0h-7.4c-0.9-0.1-1.8,0.6-1.8,1.6c-0.1,0.9,0.6,1.8,1.6,1.8
					c0.1,0,0.2,0,0.2,0h7.4C538.2,524.5,537.5,523.8,537.5,522.8C537.5,522.8,537.5,522.8,537.5,522.8z"/>
				<path class="st25" d="M572.1,522.8c0-0.9-0.8-1.7-1.7-1.7h-31.2c-0.9,0.1-1.7,0.9-1.6,1.8c0.1,0.9,0.7,1.5,1.6,1.6h31.2
					C571.4,524.5,572.1,523.7,572.1,522.8z"/>
			</g>
			<g class="st24">
				<path class="st25" d="M537.5,528.5c0-0.9,0.8-1.7,1.7-1.7c0,0,0,0,0,0h-7.4c-0.9-0.1-1.8,0.6-1.8,1.6c-0.1,0.9,0.6,1.8,1.6,1.8
					c0.1,0,0.2,0,0.2,0h7.4C538.2,530.2,537.5,529.4,537.5,528.5C537.5,528.5,537.5,528.5,537.5,528.5z"/>
				<path class="st25" d="M572.1,528.5c0-0.9-0.8-1.7-1.7-1.7h0h-31.2c-0.9,0.1-1.7,0.9-1.6,1.8c0.1,0.9,0.7,1.5,1.6,1.6h31.2
					C571.4,530.2,572.1,529.4,572.1,528.5z"/>
			</g>
			<g class="st24">
				<path class="st25" d="M537.5,597.6c0-0.9,0.8-1.7,1.7-1.7c0,0,0,0,0,0h-7.4c-0.9-0.1-1.8,0.6-1.8,1.6c-0.1,0.9,0.6,1.8,1.6,1.8
					c0.1,0,0.2,0,0.2,0h7.4C538.2,599.3,537.5,598.5,537.5,597.6L537.5,597.6z"/>
				<path class="st25" d="M572.1,597.6c0-0.9-0.8-1.7-1.7-1.7h-31.2c-0.9,0.1-1.7,0.9-1.6,1.8c0.1,0.9,0.7,1.5,1.6,1.6h31.2
					C571.3,599.3,572.1,598.5,572.1,597.6z"/>
			</g>
			<g class="st24">
				<path class="st25" d="M537.5,603.3c0-0.9,0.8-1.7,1.7-1.7c0,0,0,0,0,0h-7.4c-0.9-0.1-1.8,0.6-1.8,1.6c-0.1,0.9,0.6,1.8,1.6,1.8
					c0.1,0,0.2,0,0.2,0h7.4C538.2,605,537.5,604.2,537.5,603.3C537.5,603.3,537.5,603.3,537.5,603.3z"/>
				<path class="st25" d="M572.1,603.3c0-0.9-0.8-1.7-1.7-1.7h0h-31.2c-0.9,0.1-1.7,0.9-1.6,1.8c0.1,0.9,0.7,1.5,1.6,1.6h31.2
					C571.4,605,572.1,604.2,572.1,603.3z"/>
			</g>
			<g class="st24">
				<path class="st25" d="M537.5,672.4c0-0.9,0.8-1.7,1.7-1.7c0,0,0,0,0,0h-7.4c-0.9-0.1-1.8,0.6-1.8,1.6c-0.1,0.9,0.6,1.8,1.6,1.8
					c0.1,0,0.2,0,0.2,0h7.4C538.2,674.1,537.5,673.3,537.5,672.4C537.5,672.4,537.5,672.4,537.5,672.4z"/>
				<path class="st25" d="M572.1,672.4c0-0.9-0.8-1.7-1.7-1.7h-31.2c-0.9,0.1-1.7,0.9-1.6,1.8c0.1,0.9,0.7,1.5,1.6,1.6h31.2
					C571.3,674.1,572.1,673.3,572.1,672.4L572.1,672.4z"/>
			</g>
			<g class="st24">
				<path class="st25" d="M537.5,678.1c0-0.9,0.8-1.7,1.7-1.7l0,0h-7.4c-0.9-0.1-1.8,0.6-1.8,1.6c-0.1,0.9,0.6,1.8,1.6,1.8
					c0.1,0,0.2,0,0.2,0h7.4C538.2,679.8,537.5,679,537.5,678.1C537.5,678.1,537.5,678.1,537.5,678.1z"/>
				<path class="st25" d="M572.1,678.1c0-0.9-0.8-1.7-1.7-1.7h-31.2c-0.9,0.1-1.7,0.9-1.6,1.8c0.1,0.9,0.7,1.5,1.6,1.6h31.2
					C571.4,679.8,572.1,679,572.1,678.1z"/>
			</g>
			<g class="st24">
				<path class="st25" d="M537.5,747.2c0-0.9,0.8-1.7,1.7-1.7c0,0,0,0,0,0h-7.4c-0.9-0.1-1.8,0.6-1.8,1.6c-0.1,0.9,0.6,1.8,1.6,1.8
					c0.1,0,0.2,0,0.2,0h7.4C538.2,748.9,537.5,748.1,537.5,747.2C537.5,747.2,537.5,747.2,537.5,747.2z"/>
				<path class="st25" d="M572.1,747.2c0-0.9-0.8-1.7-1.7-1.7h0h-31.2c-0.9,0.1-1.7,0.9-1.6,1.8c0.1,0.9,0.7,1.5,1.6,1.6h31.2
					C571.4,748.9,572.1,748.1,572.1,747.2z"/>
			</g>
			<g class="st24">
				<path class="st25" d="M537.5,752.8c0-0.9,0.8-1.7,1.7-1.7c0,0,0,0,0,0h-7.4c-0.9-0.1-1.8,0.6-1.8,1.6c-0.1,0.9,0.6,1.8,1.6,1.8
					c0.1,0,0.2,0,0.2,0h7.4C538.2,754.6,537.5,753.8,537.5,752.8L537.5,752.8z"/>
				<path class="st25" d="M572.1,752.8c0-0.9-0.8-1.7-1.7-1.7h-31.2c-0.9,0.1-1.7,0.9-1.6,1.8c0.1,0.9,0.7,1.5,1.6,1.6h31.2
					C571.3,754.5,572.1,753.8,572.1,752.8z"/>
			</g>
		</g>
		<path class="st38" d="M553.2,0h625c4.1,0,7.5,3.3,7.5,7.5v840.3c0,4.1-3.3,7.5-7.5,7.5h-625c-4.1,0-7.5-3.3-7.5-7.5V7.5
			C545.7,3.3,549,0,553.2,0z"/>
		<path class="st0" d="M1156,834.1H569.6c-7.5,0-13.6-6.1-13.6-13.5c0,0,0,0,0,0v10.6c0,7.5,6.1,13.5,13.5,13.5H1156
			c7.5,0,13.5-6.1,13.5-13.5v-10.6C1169.6,828.1,1163.5,834.1,1156,834.1L1156,834.1z"/>
		<path class="st39" d="M1156,827.8H569.6c-7.5,0-13.6-6.1-13.6-13.5c0,0,0,0,0,0v10.6c0,7.5,6.1,13.5,13.5,13.5l0,0H1156
			c7.5,0,13.5-6.1,13.5-13.5l0,0v-10.6C1169.6,821.8,1163.5,827.8,1156,827.8L1156,827.8z"/>
		<path class="st40" d="M1156,824H569.6c-7.5,0-13.6-6.1-13.6-13.5c0,0,0,0,0,0v3.9c0,7.5,6.1,13.5,13.5,13.5H1156
			c7.5,0,13.5-6.1,13.5-13.5v-3.9C1169.6,817.9,1163.5,824,1156,824L1156,824z"/>
		<path class="st39" d="M1156,12.2H569.6c-7.5,0-13.6,6.3-13.6,14.1v783.6c0,7.8,6.1,14.1,13.5,14.1H1156c7.5,0,13.5-6.3,13.5-14.1
			V26.3C1169.6,18.5,1163.5,12.2,1156,12.2L1156,12.2z"/>
		<path class="st8" d="M569.6,12.3H1156c7.5,0,13.5,6.1,13.5,13.5v766.9c0,7.5-6.1,13.5-13.5,13.5H569.6c-7.5,0-13.5-6.1-13.5-13.5
			V25.9C556,18.4,562.1,12.3,569.6,12.3z"/>
		<path class="st8" d="M587.2,76.7V66.3c0-1.4-1.5-2.5-3.4-2.5h-17.7c-1.8,0-3.4,1.1-3.4,2.5v10.4c0,1.4,1.5,2.5,3.4,2.5h17.7
			C585.7,79.3,587.2,78.2,587.2,76.7z"/>
		<path class="st23" d="M587.2,77.9V67.5c0-1.4-1.5-2.5-3.4-2.5h-17.7c-1.8,0-3.4,1.1-3.4,2.5v10.4c0,1.4,1.5,2.5,3.4,2.5h17.7
			C585.7,80.4,587.2,79.3,587.2,77.9z"/>
		<path class="st23" d="M587.2,152.7v-10.4c0-1.4-1.5-2.5-3.4-2.5h-17.7c-1.8,0-3.4,1.1-3.4,2.5v10.4c0,1.4,1.5,2.5,3.4,2.5h17.7
			C585.7,155.2,587.2,154.1,587.2,152.7z"/>
		<path class="st23" d="M587.2,227.5V217c0-1.4-1.5-2.5-3.4-2.5h-17.7c-1.8,0-3.4,1.1-3.4,2.5v10.4c0,1.4,1.5,2.5,3.4,2.5h17.7
			C585.7,230,587.2,228.8,587.2,227.5z"/>
		<path class="st23" d="M587.2,302.2v-10.4c0-1.4-1.5-2.5-3.4-2.5h-17.7c-1.8,0-3.4,1.1-3.4,2.5v10.4c0,1.4,1.5,2.5,3.4,2.5h17.7
			C585.7,304.7,587.2,303.6,587.2,302.2z"/>
		<path class="st23" d="M587.2,377v-10.4c0-1.4-1.5-2.5-3.4-2.5h-17.7c-1.8,0-3.4,1.1-3.4,2.5V377c0,1.4,1.5,2.5,3.4,2.5h17.7
			C585.7,379.5,587.2,378.4,587.2,377z"/>
		<path class="st23" d="M587.2,451.8v-10.4c0-1.4-1.5-2.5-3.4-2.5h-17.7c-1.8,0-3.4,1.1-3.4,2.5v10.4c0,1.4,1.5,2.5,3.4,2.5h17.7
			C585.7,454.3,587.2,453.2,587.2,451.8z"/>
		<path class="st23" d="M587.2,526.6v-10.4c0-1.4-1.5-2.5-3.4-2.5h-17.7c-1.8,0-3.4,1.1-3.4,2.5v10.4c0,1.4,1.5,2.5,3.4,2.5h17.7
			C585.7,529.1,587.2,528,587.2,526.6z"/>
		<path class="st23" d="M587.2,601.4v-10.4c0-1.4-1.5-2.5-3.4-2.5h-17.7c-1.8,0-3.4,1.1-3.4,2.5v10.4c0,1.4,1.5,2.5,3.4,2.5h17.7
			C585.7,603.9,587.2,602.8,587.2,601.4z"/>
		<path class="st23" d="M587.2,676.1v-10.4c0-1.4-1.5-2.5-3.4-2.5h-17.7c-1.8,0-3.4,1.1-3.4,2.5v10.4c0,1.4,1.5,2.5,3.4,2.5h17.7
			C585.7,678.7,587.2,677.5,587.2,676.1z"/>
		<path class="st23" d="M587.2,750.9v-10.4c0-1.4-1.5-2.5-3.4-2.5h-17.7c-1.8,0-3.4,1.1-3.4,2.5v10.4c0,1.4,1.5,2.5,3.4,2.5h17.7
			C585.7,753.4,587.2,752.3,587.2,750.9z"/>
		<path class="st41" d="M572.1,69.8c0-0.9-0.8-1.7-1.7-1.7l0,0h-31.2c-0.9,0.1-1.7,0.9-1.6,1.8c0.1,0.9,0.7,1.5,1.6,1.6h31.2
			C571.4,71.5,572.1,70.8,572.1,69.8z"/>
		<path class="st41" d="M572.1,75.5c0-0.9-0.8-1.7-1.7-1.7h-31.2c-0.9,0.1-1.7,0.9-1.6,1.8c0.1,0.9,0.7,1.5,1.6,1.6h31.2
			C571.3,77.2,572.1,76.5,572.1,75.5z"/>
		<path class="st41" d="M572.1,144.6c0-0.9-0.8-1.7-1.7-1.7h-31.2c-0.9,0.1-1.7,0.9-1.6,1.8c0.1,0.9,0.7,1.5,1.6,1.6h31.2
			C571.4,146.3,572.1,145.6,572.1,144.6z"/>
		<path class="st41" d="M572.1,150.3c0-0.9-0.8-1.7-1.7-1.7h-31.2c-0.9,0.1-1.7,0.9-1.6,1.8c0.1,0.9,0.7,1.5,1.6,1.6h31.2
			C571.3,152,572.1,151.2,572.1,150.3z"/>
		<path class="st41" d="M572.1,219.4c0-0.9-0.8-1.7-1.7-1.7h-31.2c-0.9,0.1-1.7,0.9-1.6,1.8c0.1,0.9,0.7,1.5,1.6,1.6h31.2
			C571.4,221.1,572.1,220.3,572.1,219.4z"/>
		<path class="st41" d="M572.1,225.1c0-0.9-0.8-1.7-1.7-1.7h-31.2c-0.9,0.1-1.7,0.9-1.6,1.8c0.1,0.9,0.7,1.5,1.6,1.6h31.2
			C571.3,226.8,572.1,226,572.1,225.1L572.1,225.1z"/>
		<path class="st41" d="M572.1,294.2c0-0.9-0.8-1.7-1.7-1.7h-31.2c-0.9,0.1-1.7,0.9-1.6,1.8c0.1,0.9,0.7,1.5,1.6,1.6h31.2
			C571.4,295.9,572.1,295.1,572.1,294.2z"/>
		<path class="st41" d="M572.1,299.9c0-0.9-0.8-1.7-1.7-1.7l0,0h-31.2c-0.9,0.1-1.7,0.9-1.6,1.8c0.1,0.9,0.7,1.5,1.6,1.6h31.2
			C571.4,301.6,572.1,300.8,572.1,299.9z"/>
		<path class="st41" d="M572.1,369c0-0.9-0.8-1.7-1.7-1.7h-31.2c-0.9,0.1-1.7,0.9-1.6,1.8c0.1,0.9,0.7,1.5,1.6,1.6h31.2
			C571.3,370.7,572.1,369.9,572.1,369z"/>
		<path class="st41" d="M572.1,374.6c0-0.9-0.8-1.7-1.7-1.7h-31.2c-0.9,0.1-1.7,0.9-1.6,1.8c0.1,0.9,0.7,1.5,1.6,1.6h31.2
			C571.4,376.4,572.1,375.6,572.1,374.6z"/>
		<path class="st41" d="M572.1,443.7c0-0.9-0.8-1.7-1.7-1.7h-31.2c-0.9,0.1-1.7,0.9-1.6,1.8c0.1,0.9,0.7,1.5,1.6,1.6h31.2
			C571.3,445.4,572.1,444.7,572.1,443.7L572.1,443.7z"/>
		<path class="st41" d="M572.1,449.4c0-0.9-0.8-1.7-1.7-1.7h-31.2c-0.9,0.1-1.7,0.9-1.6,1.8c0.1,0.9,0.7,1.5,1.6,1.6h31.2
			C571.4,451.1,572.1,450.4,572.1,449.4z"/>
		<path class="st41" d="M572.1,518.5c0-0.9-0.8-1.7-1.7-1.7h-31.2c-0.9,0.1-1.7,0.9-1.6,1.8c0.1,0.9,0.7,1.5,1.6,1.6h31.2
			C571.4,520.2,572.1,519.5,572.1,518.5z"/>
		<path class="st41" d="M572.1,524.2c0-0.9-0.8-1.7-1.7-1.7h-31.2c-0.9,0.1-1.7,0.9-1.6,1.8c0.1,0.9,0.7,1.5,1.6,1.6h31.2
			C571.3,525.9,572.1,525.2,572.1,524.2L572.1,524.2z"/>
		<path class="st41" d="M572.1,593.3c0-0.9-0.8-1.7-1.7-1.7h-31.2c-0.9,0.1-1.7,0.9-1.6,1.8c0.1,0.9,0.7,1.5,1.6,1.6h31.2
			C571.4,595,572.1,594.2,572.1,593.3z"/>
		<path class="st41" d="M572.1,599c0-0.9-0.8-1.7-1.7-1.7h0h-31.2c-0.9,0.1-1.7,0.9-1.6,1.8c0.1,0.9,0.7,1.5,1.6,1.6h31.2
			C571.4,600.7,572.1,599.9,572.1,599z"/>
		<path class="st41" d="M572.1,668.1c0-0.9-0.8-1.7-1.7-1.7h-31.2c-0.9,0.1-1.7,0.9-1.6,1.8c0.1,0.9,0.7,1.5,1.6,1.6h31.2
			C571.3,669.8,572.1,669.1,572.1,668.1z"/>
		<path class="st41" d="M572.1,673.8c0-0.9-0.8-1.7-1.7-1.7h-31.2c-0.9,0.1-1.7,0.9-1.6,1.8c0.1,0.9,0.7,1.5,1.6,1.6h31.2
			C571.4,675.5,572.1,674.7,572.1,673.8z"/>
		<path class="st41" d="M572.1,742.9c0-0.9-0.8-1.7-1.7-1.7h-31.2c-0.9,0.1-1.7,0.9-1.6,1.8c0.1,0.9,0.7,1.5,1.6,1.6h31.2
			C571.3,744.6,572.1,743.8,572.1,742.9L572.1,742.9z"/>
		<path class="st41" d="M572.1,748.6c0-0.9-0.8-1.7-1.7-1.7h-31.2c-0.9,0.1-1.7,0.9-1.6,1.8c0.1,0.9,0.7,1.5,1.6,1.6h31.2
			C571.4,750.3,572.1,749.5,572.1,748.6z"/>
		<path class="st42" d="M767.2,468.4c0.6-15,1.2-30.1,1.8-45.1l15.1,6.8c67.3-40.6,92.6-54.6,96.4-54.9c0.3,0,3.6-0.3,4.3-1.9
			c0.4-1-0.5-1.8-0.6-4.1c0-0.9,0-1.8,0.2-2.7c0.9-5.8,0-91,0.6-113.5c0.1-3,0.4-10.5,0-18.2c-0.4-9-1.3-9.2-0.6-12
			c0.2-0.7,0.7-2.4-0.2-3.9s-2.3-1.7-3.5-2.1c-2.7-0.9-5-2.9-7.5-4.3c-6.1-3.3-33.2-18.7-55.9-32.1c-13.5-8-20.3-12.2-27.1-15.9
			c-9.2-5-11.8-5.4-14.1-7.9c-0.8-1-2-1.7-3.3-1.9c-1.1-0.1-1.9,0.3-4.4,1.7c-2.4,1.3-3.6,2-3.9,2.2c-11.7,7.6-67.1,44-83.7,48.7
			c-2.3,0.6-4.4,1.8-6.1,3.4c-3.6,3.7-3.9,9-4,11c-2.1,58.9-0.4,77.4-0.4,77.4c0.9,10,0.9,39.7,0.9,99.1V420c-0.1,1.1-0.1,2.2,0,3.3
			c0.2,2,0.7,4,1.4,5.8c1.8,4.2,6.9,6.2,8.4,6.8c9.3,3.8,17,10.6,26,15c31.8,15.6,47.7,23.4,51.1,27.1c1,1.1,4.7,5.3,9.2,5
			c1.8-0.2,3.5-0.9,4.9-2.1c15.3-12.2,33.8-19.8,50.5-29.9c11.1-6.8,16.7-10.1,20.6-11.9c6.7-3.1,12.7-7.6,19.5-10.4
			c1.6-0.6,4.3-1.7,5.9-4.4c1.7-2.9,1-5.6,0.4-10.7c-0.6-5.3-0.2-10.6-0.4-15.9c-0.1-3.3-0.3-8.5-0.5-15"/>
		<path class="st42" d="M794.6,282.5c3.4-2,8.4-5,14.5-8.6c13.8-8.2,13.7-8.4,22.3-13.4c29.5-17.5,27.4-14.4,32-18.6
			c1.7-1.6,6-5.7,7.8-4.6c1,0.6,0.7,2.7,0.5,6.2c-0.2,4.1,0.2,8.3,0,12.4c-0.6,11-0.7,24.1-0.8,30.7c-0.1,12.1-0.2,18.1,0,20.2
			c0.4,4.3-0.4,8.6,0,12.9c0.3,2-0.1,4-1,5.7c-0.7,1.3-1.8,2.4-3.1,3.1c-16.7,10.5-24.4,14.3-24.4,14.3c-3,1.4-9.2,5.2-21.4,12.7
			c-6.7,4.1-14.3,7.1-20.3,12.2c-1.3,1.1-5.1,4.4-6.2,3.6c-0.6-0.4-0.2-1.7,0-2.7v-10.7c0-7.7-0.5-26.7-0.5-30.9
			c-0.2-8.6-0.2-20.9,0.8-36.6"/>
		<path class="st42" d="M822.4,376.3c7.4-3.3,15.3-7.1,23.5-11.6c9.7-5.3,19.1-11.2,28.2-17.7"/>
		<path class="st42" d="M886.6,582.8l19.9-11.1"/>
		<path class="st43" d="M1097.6,644.1c-0.9-2-3.3-2.8-5.2-1.9c0,0,0,0,0,0c-0.6-2.2-1.7-4.2-3.2-6c-4.7-6-11.5-7.9-15.5-9l-1-0.3
			c-1.5-0.4-1.6-0.5-5.3-2.7c-3-1.8-8.7-5.2-19.5-11.3c-13.8-7.8-24.5-13.5-34.8-19.1c-12.1-6.5-23.4-12.6-38.8-21.5
			c-12.3-7.1-24.7-14.5-37-22.2c-1.2-0.7-2.8-0.4-3.5,0.8c-0.7,1.2-0.4,2.8,0.8,3.5c12.3,7.7,24.8,15.2,37.1,22.2
			c15.4,8.9,26.8,15,38.9,21.5c10.3,5.5,20.9,11.2,34.7,19c10.8,6.1,16.2,9.3,19.4,11.2c3.9,2.3,4.4,2.6,6.5,3.2l1,0.3
			c3.7,1,9.2,2.5,12.9,7.2c2.4,3,2.5,4.8,2.2,5.7c-0.7,2.3-5.3,3.5-7.1,3.9l-0.3,0.1c-0.9,0.2-1,0.3-4.1,2.3
			c-3.4,2.2-11.5,7.4-30.3,19.1c-4.5,2.8-15.4,9.6-22.3,13.7c-1.3-0.8-3,0.1-4.3,0.8c-1.4,0.8-3.6,2-6.7,3.8
			c-2.5,1.5-6.8,4-12.4,3.8c-6.3-0.2-11-3.7-13-5.1l-0.1-0.1c-6.9-5.1-14.5-9.1-21.9-13c-6.1-3.1-12-6.4-17.7-10.1
			c-7.8-5.3-15.8-10.1-24.2-14.4c-7.7-4.1-17.3-9.2-37.6-21.6c-13.3-8.1-19.4-12.2-22.7-14.4c-3.4-2.3-4.1-2.7-6.6-3.5l-1.9-0.6
			c-5-1.5-11.8-3.6-13.3-8.1c-0.4-1.3-0.4-2.8,0-4.1c1.3-3.6,6.7-5.1,8.8-5.6l0.3-0.1c7.3-2.1,11.8-5.3,17.9-9.8
			c7.6-5.6,18.1-13.3,41.1-24.4c5.5-2.6,11.1-5.2,16.7-7.6c1.3-0.6,1.9-2.1,1.3-3.4c-0.6-1.3-2.1-1.9-3.4-1.3
			c-5.7,2.4-11.4,5-16.9,7.7c-23.4,11.3-34.1,19.1-41.9,24.9c-6.1,4.5-9.8,7.2-16.2,9l-0.2,0.1c-2.7,0.7-9.9,2.8-12.2,8.8
			c-0.1,0.3-0.2,0.7-0.3,1c-0.6-0.7-1.4-1.2-2.3-1.4c-2.1-0.4-4.2,1-4.6,3.2c0,0,0,0,0,0c-0.3,1.8-0.6,3.7-0.8,5.6
			c-0.4,4-0.7,6.4,0.3,8.8c1.7,4.2,5.9,5.8,8.1,6.6c1.7,1.5,5.9,4.2,16.8,10.6c9,5.3,22,12.8,33.4,19.3c7,4,13.5,7.8,18.3,10.5
			c15.2,8.8,22.3,13.4,27.4,16.7c5.7,3.7,11.5,7.2,17.6,10.2c6.4,3.3,11.3,5.6,15.2,7.4c7.4,3.5,10.8,5,14.8,9.1l0.2,0.2
			c2,2,6.7,6.8,14.2,8.9c2.4,0.6,4.8,0.9,7.2,0.9c1.7,0,3.4-0.1,5.1-0.4c6.3-1.1,12.2-3.6,17.3-7.5l0.1-0.1c15.1-11,33-20.3,40-23.8
			c2.9-1.5,5.8-3.1,8.6-4.7c4-2.3,8-4.4,12.2-6.3l1.6-0.7c4.8-2,9.4-3.9,11.8-8.8C1101,656.7,1100.7,650.7,1097.6,644.1
			L1097.6,644.1z M1091.7,657.8c-1.1,2.2-3.5,3.3-7.9,5.1l-1.6,0.7c-4.5,2-8.8,4.2-13,6.7c-2.7,1.5-5.5,3.1-8.3,4.5
			c-7.2,3.6-25.5,13.2-41.1,24.4l-0.1,0.1c-4.1,3.1-8.8,5.2-13.8,6.1c-3,0.5-6.1,0.4-9.1-0.3c-5.4-1.4-9-5-10.6-6.7l-0.2-0.3
			c-5-5.1-9.3-7.1-17.1-10.7c-3.8-1.8-8.6-4-14.9-7.3c-5.8-2.9-11.5-6.2-16.9-9.8c-5.2-3.3-12.3-7.9-27.7-16.9
			c-4.8-2.8-11.3-6.5-18.3-10.6c-11.4-6.6-24.4-14-33.3-19.3c-11.9-7-14.9-9.1-15.6-9.7c-0.5-0.6-1.2-1.1-1.9-1.3l-0.4-0.1
			c-1.2-0.4-3.4-1.2-3.8-2.2c-0.2-0.5,0-2.9,0.3-5c0.1-0.6,0.1-1.1,0.2-1.7c2.4,6.9,10.6,9.5,16.6,11.3c0.6,0.2,1.3,0.4,1.8,0.6
			c1.9,0.6,2.1,0.7,5.3,2.9c3.2,2.2,9.4,6.2,22.8,14.5c20.4,12.5,30.1,17.7,37.8,21.8c8.2,4.3,16.1,9,23.7,14.2
			c5.9,3.8,11.9,7.2,18.1,10.3c7.2,3.8,14.7,7.7,21.2,12.5l0.1,0.1c2.2,1.6,8,5.9,15.9,6.2h0.7c6.7,0,11.7-2.9,14.5-4.6l1.8-1
			c1.3,0.9,3,0,4-0.5c1-0.5,2.4-1.4,4.6-2.7c4.6-2.7,12.1-7.4,23-14.2c18.8-11.7,26.9-16.9,30.3-19.1c1.4-0.9,2.3-1.5,2.6-1.6
			l0.3-0.1c2.3-0.6,7.1-1.8,9.5-5.1C1092.2,651.7,1093,655.2,1091.7,657.8L1091.7,657.8z"/>
		<path class="st44" d="M1022.7,649.4c-4.1,4.6-3.7,7.5-3.4,8.4c1.5,6,14.1,8.8,22.1,4.8c0.8-0.4,6.1-3.1,6.1-6.9
			c0-2.4-2.1-4.1-3.3-5c-5.3-4.3-12.5-3.4-15-3"/>
		<path class="st45" d="M1026.2,654.4c0.4-0.6,2.6-3.8,6-3.9c1.3,0,2.4,0.5,4.7,1.7c2.4,1.2,3.8,1.9,3.9,2.9
			c0.1,1.1-1.2,2.1-2.9,3.4c-1.4,1-2.3,1.8-3.4,2c-3.8,0.9-7.4-3.5-7.6-3.8"/>
		<g class="st46">
			<path class="st47" d="M1066.1,43.1v0.2"/>
			<path class="st48" d="M1066.1,72.4V767"/>
			<path class="st47" d="M1066.1,781.6v0.2"/>
		</g>
		<g class="st46">
			<path class="st47" d="M1095.6,43.1v0.2"/>
			<path class="st48" d="M1095.6,72.4V767"/>
			<path class="st47" d="M1095.6,781.6v0.2"/>
		</g>
		<g class="st46">
			<path class="st47" d="M1125.7,43.1v0.2"/>
			<path class="st48" d="M1125.7,72.4V767"/>
			<path class="st47" d="M1125.7,781.6v0.2"/>
		</g>
		<g class="st46">
			<path class="st47" d="M1010.1,43.1v0.2"/>
			<path class="st48" d="M1010.1,72.4V767"/>
			<path class="st47" d="M1010.1,781.6v0.2"/>
		</g>
		<g class="st46">
			<path class="st47" d="M982.1,43.1v0.2"/>
			<path class="st48" d="M982.1,72.4V767"/>
			<path class="st47" d="M982.1,781.6v0.2"/>
		</g>
		<g class="st46">
			<path class="st47" d="M1038.1,43.1v0.2"/>
			<path class="st48" d="M1038.1,72.4V767"/>
			<path class="st47" d="M1038.1,781.6v0.2"/>
		</g>
		<g class="st46">
			<path class="st47" d="M954.1,43.1v0.2"/>
			<path class="st48" d="M954.1,72.4V767"/>
			<path class="st47" d="M954.1,781.6v0.2"/>
		</g>
		<g class="st46">
			<path class="st47" d="M898.2,43.1v0.2"/>
			<path class="st48" d="M898.2,72.4V767"/>
			<path class="st47" d="M898.2,781.6v0.2"/>
		</g>
		<g class="st46">
			<path class="st47" d="M870.2,43.1v0.2"/>
			<path class="st48" d="M870.2,72.4V767"/>
			<path class="st47" d="M870.2,781.6v0.2"/>
		</g>
		<g class="st46">
			<path class="st47" d="M926.2,43.1v0.2"/>
			<path class="st48" d="M926.2,72.4V767"/>
			<path class="st47" d="M926.2,781.6v0.2"/>
		</g>
		<g class="st46">
			<path class="st47" d="M842.2,43.1v0.2"/>
			<path class="st48" d="M842.2,72.4V767"/>
			<path class="st47" d="M842.2,781.6v0.2"/>
		</g>
		<g class="st46">
			<path class="st47" d="M786.3,43.1v0.2"/>
			<path class="st48" d="M786.3,72.4V767"/>
			<path class="st47" d="M786.3,781.6v0.2"/>
		</g>
		<g class="st46">
			<path class="st47" d="M758.3,43.1v0.2"/>
			<path class="st48" d="M758.3,72.4V767"/>
			<path class="st47" d="M758.3,781.6v0.2"/>
		</g>
		<g class="st46">
			<path class="st47" d="M814.2,43.1v0.2"/>
			<path class="st48" d="M814.2,72.4V767"/>
			<path class="st47" d="M814.2,781.6v0.2"/>
		</g>
		<g class="st46">
			<path class="st47" d="M730.3,43.1v0.2"/>
			<path class="st48" d="M730.3,72.4V767"/>
			<path class="st47" d="M730.3,781.6v0.2"/>
		</g>
		<g class="st46">
			<path class="st47" d="M674.3,43.1v0.2"/>
			<path class="st48" d="M674.3,72.4V767"/>
			<path class="st47" d="M674.3,781.6v0.2"/>
		</g>
		<g class="st46">
			<path class="st47" d="M646.3,43.1v0.2"/>
			<path class="st48" d="M646.3,72.4V767"/>
			<path class="st47" d="M646.3,781.6v0.2"/>
		</g>
		<g class="st46">
			<path class="st47" d="M618.4,43.1v0.2"/>
			<path class="st48" d="M618.4,72.4V767"/>
			<path class="st47" d="M618.4,781.6v0.2"/>
		</g>
		<g class="st46">
			<path class="st47" d="M702.3,43.1v0.2"/>
			<path class="st48" d="M702.3,72.4V767"/>
			<path class="st47" d="M702.3,781.6v0.2"/>
		</g>
	</g>
</g>
</svg>
