<svg enable-background="new 0 0 1800 864" viewBox="0 0 1800 864" xmlns="http://www.w3.org/2000/svg"><path d="m90 312.5h260.8c19.1 0 34.6 15.5 34.6 34.6v479.3c0 19.1-15.5 34.6-34.6 34.6h-260.8c-19.1 0-34.6-15.5-34.6-34.6v-479.3c0-19.2 15.5-34.6 34.6-34.6z" fill="#1f1719" opacity=".15"/><path d="m90 297.2h260.8c19.1 0 34.6 15.5 34.6 34.6v479.3c0 19.1-15.5 34.6-34.6 34.6h-260.8c-19.1 0-34.6-15.5-34.6-34.6v-479.3c0-19.1 15.5-34.6 34.6-34.6z" fill="#f7f7f7" stroke="#bfc2c4" stroke-miterlimit="10" stroke-width=".8702"/><path d="m350.8 845.7h-260.8c-19.1 0-34.6-15.5-34.6-34.6v-479.3c0-9.2 3.6-18 10.1-24.5 7-7 15.3-8.4 24.5-10.1 9.3-1.7 18.9-1.7 28.2 0 51.8 162.1 111.6 269.2 158.4 338.4 22.5 33.3 108.9 157 108.9 157v18.5c0 19.1-15.5 34.6-34.7 34.6z" fill="#e6e6e7" opacity=".33"/><circle cx="220.4" cy="685.7" fill="#cbcfd0" r="101.2"/><path d="m91.9 320.9h257c6.6 0 11.9 5.3 11.9 11.9v190.4c0 6.6-5.3 11.9-11.9 11.9h-257c-6.6 0-11.9-5.3-11.9-11.9v-190.4c-.1-6.6 5.3-11.9 11.9-11.9z" fill="#55595b"/><circle cx="220.4" cy="685.7" fill="#f7f7f7" r="34.9" stroke="#bfc2c4" stroke-miterlimit="10" stroke-width=".8702"/><text fill="#f6f7f7" font-family="'Helvetica-Bold'" font-size="13.0533" transform="translate(201.1758 607.0723)">MENU</text><path d="m151.1 680.6-8.7 5.7 8.7 5.7z" fill="#f6f7f7"/><path d="m134.1 691.9v-5.5l8.4 5.5v-5.7-5.7l-8.4 5.5v-5.5h-3.5v11.3h3.5z" fill="#f6f7f7"/><path d="m209.8 780.8 8.7-5.7-8.7-5.7z" fill="#f6f7f7"/><path d="m221.9 769.7h3.5v11h-3.5z" fill="#f6f7f7"/><path d="m227.6 769.7h3.5v11h-3.5z" fill="#f6f7f7"/><path d="m289.5 691.4 8.7-5.7-8.7-5.7z" fill="#f6f7f7"/><path d="m306.5 680v5.5l-8.4-5.5v5.7 5.7l8.4-5.5v5.5h3.5v-11.4z" fill="#f6f7f7"/><path d="m88.4 329.3h264.1v197.3h-264.1z" fill="#fff"/><path d="m88.4 329.3h264.1v13.9h-264.1z" fill="#d0d4d3"/><path d="m122.8 360.2h66.2c9.8 0 17.8 8 17.8 17.8v66.3c0 9.8-8 17.8-17.8 17.8h-66.3c-9.8 0-17.8-8-17.8-17.8v-66.3c.1-9.8 8.1-17.8 17.9-17.8z" fill="#96b9c4"/><path d="m226.2 371.2h89.7c3.2 0 5.8 2.6 5.8 5.8v4.6c0 3.2-2.6 5.8-5.8 5.8h-89.7c-3.2 0-5.8-2.6-5.8-5.8v-4.6c0-3.2 2.6-5.8 5.8-5.8z" fill="#6d7072"/><path d="m223.6 392.6h83.3c1.8 0 3.2 1.4 3.2 3.2 0 1.8-1.4 3.2-3.2 3.2h-83.3c-1.8 0-3.2-1.4-3.2-3.2 0-1.8 1.4-3.2 3.2-3.2z" fill="#9ba0a3"/><path d="m223.6 404.6h83.3c1.8 0 3.2 1.4 3.2 3.2 0 1.8-1.4 3.2-3.2 3.2h-83.3c-1.8 0-3.2-1.4-3.2-3.2 0-1.8 1.4-3.2 3.2-3.2z" fill="#9ba0a3"/><path d="m223.6 417.1h83.3c1.8 0 3.2 1.4 3.2 3.2 0 1.8-1.4 3.2-3.2 3.2h-83.3c-1.8 0-3.2-1.4-3.2-3.2 0-1.8 1.4-3.2 3.2-3.2z" fill="#9ba0a3"/><path d="m333.7 489.8c.8 0 1.4.6 1.4 1.4v8.9c0 .8-.6 1.4-1.4 1.4h-139.1v-11.7zm0-.7h-139.8v13.1h139.8c1.2 0 2.1-.9 2.1-2.1v-8.8c0-1.3-1-2.2-2.1-2.2z" fill="#9ba0a3"/><path d="m107.1 489.1c-1.2 0-2.1.9-2.1 2.1v8.9c0 1.2.9 2.1 2.1 2.1h88.8v-13.1z" fill="#409bc6"/><path d="m1739.9 826.9h16.2c7.3 0 13.2-6 13.2-13.3v-52.5h-29.4z" fill="#1f1719" opacity=".15"/><path d="m1710.5 761.1v52.5c0 7.3 5.9 13.3 13.2 13.3h.1 16.2v-65.8z" fill="#1f1719" opacity=".15"/><path d="m1749.4 66.8-9.5-22.5v22.5z" fill="#241f1e"/><path d="m1739.9 44.3-9.5 22.5h9.5z" fill="#181214"/><path d="m1739.9 66.8h-9.5l-19.9 47.3h29.4z" fill="#fdf6fa"/><path d="m1739.9 114.1h29.4l-19.9-47.3h-9.5z" fill="#e1dadf"/><path d="m1739.9 813.4h16.2c7.3 0 13.3-5.9 13.3-13.3v-52.5h-29.4z" fill="#ce7aa6"/><path d="m1710.5 747.6v52.5c0 7.3 5.9 13.3 13.3 13.3h16.2v-65.8z" fill="#e084b4"/><path d="m1710.5 114.1h29.4v579.1h-29.4z" fill="#e4ad3a"/><path d="m1739.9 114.1h29.4v579.1h-29.4z" fill="#d29f35"/><path d="m1739.9 693.2h29.4v54.5h-29.4z" fill="#bdbdbd"/><path d="m1710.5 693.2h29.4v54.5h-29.4z" fill="#dedede"/><g fill="#1f1719" opacity=".15"><path d="m1625.1 99.1c0-8.5-6.9-15.3-15.3-15.3h-70.3c-8.5 0-15.3 6.9-15.3 15.3v170.3h100.9z"/><path d="m1524.2 269.4v35.6c0 8.5 6.9 15.3 15.3 15.3h70.2c8.5 0 15.3-6.9 15.3-15.3v-35.6z"/></g><path d="m1625.1 84.9c0-8.5-6.9-15.3-15.3-15.3h-70.3c-8.5 0-15.3 6.9-15.3 15.3v170.3h100.9z" fill="#e69bc2"/><path d="m1524.2 255.2v35.6c0 8.5 6.9 15.3 15.3 15.3h70.2c8.5 0 15.3-6.9 15.3-15.3v-35.6z" fill="#e084b4"/><path d="m1531.6 499.5 1-.2-3.7-15.7 3-.7-8-33.7-2.6.6-6.4-27.1-1 .2s-.1-.2-.1-.3l-2.3-9.6c-.2-.8-.9-1.2-1.7-1.1l-4.4 1c-.8.2-1.2.9-1.1 1.7l2.3 9.6.1.3-1 .2 6.4 27.1-2.6.6 8 33.7 3-.7 3.7 15.7 1.2-.3c3.9 14.6 11.3 49.8 5.7 87.9-1.2-14.2-4.7-28-10.2-41.1-3.1-7.2-6.9-14.2-11.1-20.9-1.8-5-3.8-10-6.1-14.8-9.1-19-20.1-29.5-32.6-31-5.7-.7-11.3.5-16.7 2.8-1.4-.1-2.8-.1-4.2 0-21.7 1-42 20.8-57.4 55.8 2.3-14.5 4.1-29.4 5.3-43.2 2.5-29.4 2.5-58.9 0-88.2h8.6v-56.4s-.7-15.1-.1-28.5c17-3.5 29.8-18.3 29.8-35.9 0-20.3-16.9-36.8-37.7-36.8s-37.7 16.5-37.7 36.8c.1 14.2 8.3 27 21.1 33l1 31.5h.1v56.4h9.7l-1.1.1c2.5 29.1 2.5 58.4 0 87.6-2.3 27-7.2 58.4-12.7 81.9-.8 3.3-1.5 6.3-2.3 9.1-1.9 5.2-3.6 10.7-5.1 16.6-5.5 14.9-9.2 15.1-9.3 15.1-.3 0-7.2-.7-15.1-45-4.6-25.8-7.7-56.7-9.2-77-2.1-29.2-2.1-58.5 0-87.7h-.6 8.4v-56.5c-.1-12.7-.2-25.4-.3-38.1 0-6.4-.8-12.9-2.4-19.1 0 0-.6-2.3-1.3-4.5-4-12.6-22.6-32.6-26.7-36.9-.3-.3-.5-.5-.7-.8-.3-.3-.5-.5-.7-.7-4.8-4.5-12.2-5-17.6-1.1-4.1 2.6-7.3 6.3-9.2 10.7-.5.9-.9 1.8-1.2 2.8-.9 2.4-1.5 4.8-2.1 7.2v.1c-.3 1.6-.6 3.1-.9 4.4-.7 4.3-.9 8.7-.7 13.1v.1c.2 11.3 2.5 15.7 3.2 17.1.7 2 1.6 4 2.7 5.9 2.1 3.8 4.3 6.2 7.4 7.5 3.3 1.2 6.9 1.4 10.3.4 2.2-.7 4.3-1.6 6.4-2.8 5.5-3.1 7.2-6.2 9.1-5.7 2.5.7 2.8 6.6 2.9 9.2.3 6.4.4 11.2.3 13.1-.2 4.3-.5 10.4-.3 18v56.4h7.7c-2 29.4-2 58.8 0 88.2 1.4 20.4 4.6 51.6 9.3 77.7 6.3 35.6 12.5 46.3 17.6 49.3-1.9 11.1-2.4 22.4-1.5 33.7 1 12.3 2.9 35.3 15.1 50.1 9.4 11.4 25.5 18.4 45.3 19.7 2.3.2 4.7.2 7 .2 15.9 0 32.2-3.6 45.7-10.1s25.1-16.4 34.9-29.5c9.5-13 16.5-27.6 20.8-43.1 2.5-9 4.3-18.1 5.1-27.4 15.7-49 5.4-99.4.5-118zm-61.3-12.2c8.6 1.1 15.7 7.7 21.5 16.4-7.6-7.7-15.5-13.3-23.4-16.6.7.1 1.3.2 1.9.2zm-29.7 4.8c-5.9 4.7-11.5 9.7-16.8 15.1-2.9 2.8-11.6 11.3-23.7 31.6 11.6-25.1 25.7-41.2 40.5-46.7zm-69 171.2c-.6-5.2-.7-10.4-.4-15.6 0 5.2.1 10.4.4 15.6zm95.9 48.6c-12.5 6-28 9.4-43 9.4-19 0-37.2-5.4-47.3-17.6-10.9-13.3-12.7-34.9-13.7-46.6-.9-10.9-.4-21.8 1.5-32.6.9-.3 1.7-.8 2.5-1.4-.4 2.4-.7 4.8-1 7.3-2.2 18.8-4.1 35 4.3 53.2 7 15.1 16.8 26.2 27.7 31.4 15.3 7.1 35.3 4.1 58-8.7.6-.4 1.3-.7 1.9-1.1 6.6-3 12.9-6.5 18.9-10.5 14.7-9.8 26.7-22.1 34.9-35.6 2.6-4.3 4.9-8.8 6.8-13.5-9.1 30.8-27.9 54.9-51.5 66.3zm46.5-70.8c-3.8 6.8-8.2 13.3-13.1 19.4-12.9 15.5-28.3 28.8-45.6 39.1-7.3 3.3-15 5.7-22.8 7.3-16.3 3.1-30.4 1.1-39.5-5.8-15.6-11.7-15.4-36.6-15.4-58.6.1-19.3 3-40.8 8-61.2 6.4-15.9 13.7-28.4 19.1-37.6 12.1-20.7 20.8-29.2 23.6-31.9 7.7-7.4 17.2-16.8 27.2-21.5 8.6 1 20.5 5.7 34 20.3 5.4 5.9 10.3 12.3 14.6 19.1 3.4 9.6 5.7 18.5 7.1 23.8 3.5 13.6 7.9 30.5 8.6 48.3.5 14.4-1.3 27.4-5.8 39.3z" fill="#1f1719" opacity=".15"/><path d="m1513.8 413.8-2.3-9.6c-.2-.8-.9-1.2-1.7-1.1l-4.4 1.1c-.8.2-1.2.9-1.1 1.7l2.3 9.6.1.3-1 .2 6.8 28.7 9.1-2.1-6.8-28.8-1 .2c.1.2.1 0 0-.2z" fill="#57534e"/><path d="m1506.2 418 9.1-2.2" fill="none" stroke="#ada79a" stroke-miterlimit="10" stroke-width="1.064"/><path d="m1508.2 426.3 9.1-2.1" fill="none" stroke="#ada79a" stroke-miterlimit="10" stroke-width="2.1281"/><ellipse cx="1398.7" cy="278.6" fill="#eeeded" rx="37.7" ry="36.8" stroke="#e6e5e5" stroke-miterlimit="10" stroke-width="1.5961"/><path d="m1381.6 297.2 1.5 45.9h23.7s-2.4-48 4.7-49.2" fill="#f0f0f0"/><path d="m1383.1 343.1h23.6v56.4h-23.6z" fill="#bcbcbc"/><path d="m1362.4 616.2h-.2c-5.7-.1-13.4-6-21.2-50.2-4.6-26.1-7.8-57.2-9.3-77.7-2.1-29.5-2.1-59.1 0-88.6l6.4.4c-2.1 29.2-2.1 58.5 0 87.7 1.5 20.3 4.6 51.2 9.2 77 7.9 44.3 14.8 45 15.1 45 .1 0 7.2-.4 16.7-40.8 5.5-23.5 10.4-54.9 12.7-81.9 2.5-29.1 2.5-58.4 0-87.6l6.4-.5c2.5 29.5 2.5 59.2 0 88.7-2.4 27.3-7.3 59-12.9 82.8-9.6 40.7-17.6 45.7-22.9 45.7z" fill="#fbfbfb"/><path d="m1324 312.7c.3 6.4.4 11.2.3 13.1-.2 4.3-.5 10.4-.3 18h21.9c-.1-12.7-.2-25.4-.3-38.1 0-6.4-.8-12.9-2.4-19.1 0 0-.6-2.3-1.3-4.5-4.4-13.8-26.3-36.5-27.5-37.7.8 6.5 1.2 13 1.1 19.5-.4 16.5-3.7 32.9-9.9 48.2 2.2-.7 4.3-1.6 6.4-2.8 5.5-3.1 7.2-6.2 9.1-5.7 2.4.6 2.8 6.6 2.9 9.1z" fill="#f0f0f0"/><path d="m1324 343.7h21.9v56.4h-21.9z" fill="#bcbcbc"/><path d="m1320.8 267.7c0 7.4.1 39.3-15.3 44.3-3.4 1-7 .8-10.3-.4-3-1.3-5.3-3.8-7.4-7.5-8.9-16.1-5.1-36.1-5.1-36.1 1.4-7.6 3.6-19.4 13.4-25.3 5.4-3.9 12.8-3.4 17.6 1.1 2.2 1.7 7.1 6.8 7.1 23.9z" fill="#e6e5e5"/><circle cx="1381.8" cy="254.3" fill="#bebebe" r="1.2"/><circle cx="1390.6" cy="250.4" fill="#bebebe" r="1.2"/><circle cx="1399.8" cy="249.2" fill="#bebebe" r="1.2"/><circle cx="1409.6" cy="250.4" fill="#bebebe" r="1.2"/><circle cx="1418.3" cy="254.9" fill="#bebebe" r="1.2"/><path d="m1286.9 253.3c.7-1.3 2.4-4.1 5.5-4.9.6-.2 1.2-.3 1.8-.2 1.6.2 3.3 1.7 5.3 7.3 1.4 4 2.3 8.1 2.7 12.3.5 5.1.4 10.3-.3 15.4-.5 3.2-1.2 6.4-2.3 9.5-1.9 5.9-3.4 7.6-4.8 8.6-1.3 1.1-3 1.6-4.7 1.5-1.6-.2-3.2-1.4-4.9-4.6-.7-1.3-3-5.7-3.2-17.1-.1-5.9.5-11.9 1.6-17.7.6-2.6 1.4-5.2 1.5-5.5.4-1.6 1-3.1 1.8-4.6z" fill="#bcbcbc"/><path d="m1424.6 719c-2.4 0-4.7-.1-7-.2-19.8-1.3-35.9-8.4-45.3-19.7-12.2-14.8-14.1-37.8-15.1-50.1-1-12.2-.3-24.5 2-36.5l6.3 1.2c-2.2 11.4-2.9 23.1-1.9 34.8 1 11.6 2.8 33.3 13.7 46.6 10.1 12.2 28.3 17.6 47.3 17.6 15 0 30.5-3.4 43-9.4 23.6-11.4 42.4-35.6 51.6-66.4-1.9 4.7-4.2 9.2-6.8 13.5-8.2 13.5-20.3 25.8-34.9 35.6-6 4-12.4 7.5-18.9 10.5-.6.4-1.3.7-1.9 1.1-22.7 12.8-42.8 15.8-58 8.7-10.9-5.1-20.8-16.2-27.7-31.4-8.4-18.3-6.5-34.5-4.3-53.2 2.1-17.2 6.3-34 12.7-50.1 3.3-13.7 7.8-27.1 13.3-40.1 15.4-35.4 35.8-55.4 57.7-56.4 1.4-.1 2.8 0 4.2 0 5.4-2.3 11-3.5 16.7-2.8 12.5 1.5 23.4 12 32.6 31 2.3 4.8 4.3 9.8 6.1 14.8 4.2 6.7 7.9 13.6 11 20.9 5.5 13.1 9 27 10.2 41.1 5.6-38.8-2.1-74.4-5.9-88.6l6.2-1.7c4.8 17.9 15.7 69.1-.3 118.9-.9 9.3-2.6 18.5-5.1 27.4-4.2 15.5-11.3 30.1-20.8 43.1-9.8 13.1-21.5 23.1-34.9 29.5-13.6 6.7-29.9 10.3-45.8 10.3zm-39-146.3c-5 20.4-7.9 41.8-8 61.2-.1 21.9-.2 46.8 15.4 58.6 9.1 6.9 23.1 8.9 39.5 5.8 7.9-1.6 15.5-4 22.8-7.3 17.3-10.4 32.7-23.6 45.6-39.1 4.9-6.1 9.3-12.6 13.1-19.4 4.5-11.9 6.3-24.9 5.8-39.4-.7-17.8-5.1-34.7-8.6-48.3-1.4-5.3-3.7-14.2-7.1-23.8-4.3-6.8-9.1-13.2-14.5-19.1-13.5-14.6-25.3-19.3-34-20.3-10 4.8-19.6 14.1-27.2 21.5-2.8 2.8-11.5 11.2-23.6 31.9-5.5 9.2-12.9 21.8-19.2 37.7zm-14.4 66.3c-.4 5.2-.2 10.4.4 15.6-.3-5.2-.4-10.4-.4-15.6zm69.4-155.5c-14.9 5.4-28.9 21.5-40.5 46.6 12-20.2 20.7-28.7 23.7-31.6 5.3-5.3 10.9-10.3 16.8-15zm27.8-5c7.9 3.3 15.8 8.8 23.4 16.6-5.8-8.8-12.9-15.4-21.5-16.4-.6-.1-1.2-.2-1.9-.2z" fill="#fbfbfb" stroke="#fbfbfb" stroke-miterlimit="10" stroke-width=".532"/><path d="m1520.3 476.1 8.4-2 3.9 16.4-8.4 2z" fill="#bcbcbc"/><path d="m1509.5 443.8 14.4-3.4 8 33.7-14.4 3.4z" fill="#f0f0f0"/><path d="m537.5 69.8c0-.9.8-1.7 1.7-1.7h-7.4c-.9-.1-1.8.6-1.8 1.6-.1.9.6 1.8 1.6 1.8h.2 7.4c-1 .1-1.7-.7-1.7-1.7z" fill="#6a767a"/><path d="m537.5 75.5c0-.9.8-1.7 1.7-1.7h-7.4c-.9-.1-1.8.6-1.8 1.6-.1.9.6 1.8 1.6 1.8h.2 7.4c-1 0-1.7-.7-1.7-1.7z" fill="#6a767a"/><path d="m537.5 144.6c0-.9.8-1.7 1.7-1.7h-7.4c-.9-.1-1.8.6-1.8 1.6-.1.9.6 1.8 1.6 1.8h.2 7.4c-1 0-1.7-.7-1.7-1.7z" fill="#6a767a"/><path d="m537.5 150.3c0-.9.8-1.7 1.7-1.7h-7.4c-.9-.1-1.8.6-1.8 1.6-.1.9.6 1.8 1.6 1.8h.2 7.4c-1 0-1.7-.8-1.7-1.7z" fill="#6a767a"/><path d="m537.5 219.4c0-.9.8-1.7 1.7-1.7h-7.4c-.9-.1-1.8.6-1.8 1.6-.1.9.6 1.8 1.6 1.8h.2 7.4c-1 0-1.7-.8-1.7-1.7z" fill="#6a767a"/><path d="m537.5 225.1c0-.9.8-1.7 1.7-1.7h-7.4c-.9-.1-1.8.6-1.8 1.6-.1.9.6 1.8 1.6 1.8h.2 7.4c-1 0-1.7-.8-1.7-1.7z" fill="#6a767a"/><path d="m537.5 294.2c0-.9.8-1.7 1.7-1.7h-7.4c-.9-.1-1.8.6-1.8 1.6-.1.9.6 1.8 1.6 1.8h.2 7.4c-1 0-1.7-.8-1.7-1.7z" fill="#6a767a"/><path d="m537.5 299.9c0-.9.8-1.7 1.7-1.7h-7.4c-.9-.1-1.8.6-1.8 1.6-.1.9.6 1.8 1.6 1.8h.2 7.4c-1 0-1.7-.8-1.7-1.7z" fill="#6a767a"/><path d="m537.5 369c0-.9.8-1.7 1.7-1.7h-7.4c-.9-.1-1.8.6-1.8 1.6-.1.9.6 1.8 1.6 1.8h.2 7.4c-1 0-1.7-.8-1.7-1.7z" fill="#6a767a"/><path d="m537.5 374.6c0-.9.8-1.7 1.7-1.7h-7.4c-.9-.1-1.8.6-1.8 1.6-.1.9.6 1.8 1.6 1.8h.2 7.4c-1 .1-1.7-.7-1.7-1.7z" fill="#6a767a"/><path d="m537.5 443.7c0-.9.8-1.7 1.7-1.7h-7.4c-.9-.1-1.8.6-1.8 1.6-.1.9.6 1.8 1.6 1.8h.2 7.4c-1 0-1.7-.7-1.7-1.7z" fill="#6a767a"/><path d="m537.5 449.4c0-.9.8-1.7 1.7-1.7h-7.4c-.9-.1-1.8.6-1.8 1.6-.1.9.6 1.8 1.6 1.8h.2 7.4c-1 0-1.7-.7-1.7-1.7z" fill="#6a767a"/><path d="m537.5 518.5c0-.9.8-1.7 1.7-1.7h-7.4c-.9-.1-1.8.6-1.8 1.6-.1.9.6 1.8 1.6 1.8h.2 7.4c-1 0-1.7-.7-1.7-1.7z" fill="#6a767a"/><path d="m537.5 524.2c0-.9.8-1.7 1.7-1.7h-7.4c-.9-.1-1.8.6-1.8 1.6-.1.9.6 1.8 1.6 1.8h.2 7.4c-1 0-1.7-.7-1.7-1.7z" fill="#6a767a"/><path d="m537.5 593.3c0-.9.8-1.7 1.7-1.7h-7.4c-.9-.1-1.8.6-1.8 1.6-.1.9.6 1.8 1.6 1.8h.2 7.4c-1 0-1.7-.7-1.7-1.7z" fill="#6a767a"/><path d="m537.5 599c0-.9.8-1.7 1.7-1.7h-7.4c-.9-.1-1.8.6-1.8 1.6-.1.9.6 1.8 1.6 1.8h.2 7.4c-1 0-1.7-.8-1.7-1.7z" fill="#6a767a"/><path d="m537.5 668.1c0-.9.8-1.7 1.7-1.7h-7.4c-.9-.1-1.8.6-1.8 1.6-.1.9.6 1.8 1.6 1.8h.2 7.4c-1 0-1.7-.7-1.7-1.7z" fill="#6a767a"/><path d="m537.5 673.8c0-.9.8-1.7 1.7-1.7h-7.4c-.9-.1-1.8.6-1.8 1.6-.1.9.6 1.8 1.6 1.8h.2 7.4c-1 0-1.7-.7-1.7-1.7z" fill="#6a767a"/><path d="m537.5 742.9c0-.9.8-1.7 1.7-1.7h-7.4c-.9-.1-1.8.6-1.8 1.6-.1.9.6 1.8 1.6 1.8h.2 7.4c-1 0-1.7-.8-1.7-1.7z" fill="#6a767a"/><path d="m537.5 748.6c0-.9.8-1.7 1.7-1.7h-7.4c-.9-.1-1.8.6-1.8 1.6-.1.9.6 1.8 1.6 1.8h.2 7.4c-1 0-1.7-.8-1.7-1.7z" fill="#6a767a"/><g fill="#1f1719"><path d="m553.1 19.3h625.1c4.1 0 7.4 3.3 7.4 7.4v829.8c0 4.1-3.3 7.4-7.4 7.4h-625.1c-4.1 0-7.4-3.3-7.4-7.4v-829.7c0-4.1 3.3-7.5 7.4-7.5z" opacity=".15"/><g opacity=".15"><path d="m537.5 74.1c0-.9.8-1.7 1.7-1.7h-7.4c-.9-.1-1.8.6-1.8 1.6-.1.9.6 1.8 1.6 1.8h.2 7.4c-1 0-1.7-.7-1.7-1.7z"/><path d="m572.1 74.1c0-.9-.8-1.7-1.7-1.7h-31.2c-.9.1-1.7.9-1.6 1.8s.7 1.5 1.6 1.6h31.2c1 0 1.7-.8 1.7-1.7z"/></g><g opacity=".15"><path d="m537.5 79.8c0-.9.8-1.7 1.7-1.7h-7.4c-.9-.1-1.8.6-1.8 1.6-.1.9.6 1.8 1.6 1.8h.2 7.4c-1 0-1.7-.8-1.7-1.7z"/><path d="m572.1 79.8c0-.9-.8-1.7-1.7-1.7h-31.2c-.9.1-1.7.9-1.6 1.8s.7 1.5 1.6 1.6h31.2c.9 0 1.7-.8 1.7-1.7z"/></g><g opacity=".15"><path d="m537.5 148.9c0-.9.8-1.7 1.7-1.7h-7.4c-.9-.1-1.8.6-1.8 1.6-.1.9.6 1.8 1.6 1.8h.2 7.4c-1 0-1.7-.8-1.7-1.7z"/><path d="m572.1 148.9c0-.9-.8-1.7-1.7-1.7h-31.2c-.9.1-1.7.9-1.6 1.8s.7 1.5 1.6 1.6h31.2c1 0 1.7-.8 1.7-1.7z"/></g><g opacity=".15"><path d="m537.5 154.6c0-.9.8-1.7 1.7-1.7h-7.4c-.9-.1-1.8.6-1.8 1.6-.1.9.6 1.8 1.6 1.8h.2 7.4c-1 0-1.7-.8-1.7-1.7z"/><path d="m572.1 154.6c0-.9-.8-1.7-1.7-1.7h-31.2c-.9.1-1.7.9-1.6 1.8s.7 1.5 1.6 1.6h31.2c.9 0 1.7-.8 1.7-1.7z"/></g><g opacity=".15"><path d="m537.5 223.6c0-.9.8-1.7 1.7-1.7h-7.4c-.9-.1-1.8.6-1.8 1.6-.1.9.6 1.8 1.6 1.8h.2 7.4c-1 .1-1.7-.7-1.7-1.7z"/><path d="m572.1 223.6c0-.9-.8-1.7-1.7-1.7h-31.2c-.9.1-1.7.9-1.6 1.8s.7 1.5 1.6 1.6h31.2c1 0 1.7-.7 1.7-1.7z"/></g><g opacity=".15"><path d="m537.5 229.3c0-.9.8-1.7 1.7-1.7h-7.4c-.9-.1-1.8.6-1.8 1.6-.1.9.6 1.8 1.6 1.8h.2 7.4c-1 0-1.7-.7-1.7-1.7z"/><path d="m572.1 229.3c0-.9-.8-1.7-1.7-1.7h-31.2c-.9.1-1.7.9-1.6 1.8s.7 1.5 1.6 1.6h31.2c1 0 1.7-.7 1.7-1.7z"/></g><g opacity=".15"><path d="m537.5 298.4c0-.9.8-1.7 1.7-1.7h-7.4c-.9-.1-1.8.6-1.8 1.6-.1.9.6 1.8 1.6 1.8h.2 7.4c-1 0-1.7-.7-1.7-1.7z"/><path d="m572.1 298.4c0-.9-.8-1.7-1.7-1.7h-31.2c-.9.1-1.7.9-1.6 1.8s.7 1.5 1.6 1.6h31.2c.9 0 1.7-.7 1.7-1.7z"/></g><g opacity=".15"><path d="m537.5 304.1c0-.9.8-1.7 1.7-1.7h-7.4c-.9-.1-1.8.6-1.8 1.6-.1.9.6 1.8 1.6 1.8h.2 7.4c-1 0-1.7-.7-1.7-1.7z"/><path d="m572.1 304.1c0-.9-.8-1.7-1.7-1.7h-31.2c-.9.1-1.7.9-1.6 1.8s.7 1.5 1.6 1.6h31.2c1 0 1.7-.8 1.7-1.7z"/></g><g opacity=".15"><path d="m537.5 373.2c0-.9.8-1.7 1.7-1.7h-7.4c-.9-.1-1.8.6-1.8 1.6-.1.9.6 1.8 1.6 1.8h.2 7.4c-1 0-1.7-.7-1.7-1.7z"/><path d="m572.1 373.2c0-.9-.8-1.7-1.7-1.7h-31.2c-.9.1-1.7.9-1.6 1.8s.7 1.5 1.6 1.6h31.2c.9 0 1.7-.7 1.7-1.7z"/></g><g opacity=".15"><path d="m537.5 378.9c0-.9.8-1.7 1.7-1.7h-7.4c-.9-.1-1.8.6-1.8 1.6-.1.9.6 1.8 1.6 1.8h.2 7.4c-1 0-1.7-.7-1.7-1.7z"/><path d="m572.1 378.9c0-.9-.8-1.7-1.7-1.7h-31.2c-.9.1-1.7.9-1.6 1.8s.7 1.5 1.6 1.6h31.2c1 0 1.7-.7 1.7-1.7z"/></g><g opacity=".15"><path d="m537.5 448c0-.9.8-1.7 1.7-1.7h-7.4c-.9-.1-1.8.6-1.8 1.6-.1.9.6 1.8 1.6 1.8h.2 7.4c-1 0-1.7-.8-1.7-1.7z"/><path d="m572.1 448c0-.9-.8-1.7-1.7-1.7h-31.2c-.9.1-1.7.9-1.6 1.8s.7 1.5 1.6 1.6h31.2c1 0 1.7-.8 1.7-1.7z"/></g><g opacity=".15"><path d="m537.5 453.7c0-.9.8-1.7 1.7-1.7h-7.4c-.9-.1-1.8.6-1.8 1.6-.1.9.6 1.8 1.6 1.8h.2 7.4c-1 0-1.7-.8-1.7-1.7z"/><path d="m572.1 453.7c0-.9-.8-1.7-1.7-1.7h-31.2c-.9.1-1.7.9-1.6 1.8s.7 1.5 1.6 1.6h31.2c.9 0 1.7-.8 1.7-1.7z"/></g><g opacity=".15"><path d="m537.5 522.8c0-.9.8-1.7 1.7-1.7h-7.4c-.9-.1-1.8.6-1.8 1.6-.1.9.6 1.8 1.6 1.8h.2 7.4c-1 0-1.7-.7-1.7-1.7z"/><path d="m572.1 522.8c0-.9-.8-1.7-1.7-1.7h-31.2c-.9.1-1.7.9-1.6 1.8s.7 1.5 1.6 1.6h31.2c1 0 1.7-.8 1.7-1.7z"/></g><g opacity=".15"><path d="m537.5 528.5c0-.9.8-1.7 1.7-1.7h-7.4c-.9-.1-1.8.6-1.8 1.6-.1.9.6 1.8 1.6 1.8h.2 7.4c-1 0-1.7-.8-1.7-1.7z"/><path d="m572.1 528.5c0-.9-.8-1.7-1.7-1.7h-31.2c-.9.1-1.7.9-1.6 1.8s.7 1.5 1.6 1.6h31.2c1 0 1.7-.8 1.7-1.7z"/></g><g opacity=".15"><path d="m537.5 597.6c0-.9.8-1.7 1.7-1.7h-7.4c-.9-.1-1.8.6-1.8 1.6-.1.9.6 1.8 1.6 1.8h.2 7.4c-1 0-1.7-.8-1.7-1.7z"/><path d="m572.1 597.6c0-.9-.8-1.7-1.7-1.7h-31.2c-.9.1-1.7.9-1.6 1.8s.7 1.5 1.6 1.6h31.2c.9 0 1.7-.8 1.7-1.7z"/></g><g opacity=".15"><path d="m537.5 603.3c0-.9.8-1.7 1.7-1.7h-7.4c-.9-.1-1.8.6-1.8 1.6-.1.9.6 1.8 1.6 1.8h.2 7.4c-1 0-1.7-.8-1.7-1.7z"/><path d="m572.1 603.3c0-.9-.8-1.7-1.7-1.7h-31.2c-.9.1-1.7.9-1.6 1.8s.7 1.5 1.6 1.6h31.2c1 0 1.7-.8 1.7-1.7z"/></g><g opacity=".15"><path d="m537.5 672.4c0-.9.8-1.7 1.7-1.7h-7.4c-.9-.1-1.8.6-1.8 1.6-.1.9.6 1.8 1.6 1.8h.2 7.4c-1 0-1.7-.8-1.7-1.7z"/><path d="m572.1 672.4c0-.9-.8-1.7-1.7-1.7h-31.2c-.9.1-1.7.9-1.6 1.8s.7 1.5 1.6 1.6h31.2c.9 0 1.7-.8 1.7-1.7z"/></g><g opacity=".15"><path d="m537.5 678.1c0-.9.8-1.7 1.7-1.7h-7.4c-.9-.1-1.8.6-1.8 1.6-.1.9.6 1.8 1.6 1.8h.2 7.4c-1 0-1.7-.8-1.7-1.7z"/><path d="m572.1 678.1c0-.9-.8-1.7-1.7-1.7h-31.2c-.9.1-1.7.9-1.6 1.8s.7 1.5 1.6 1.6h31.2c1 0 1.7-.8 1.7-1.7z"/></g><g opacity=".15"><path d="m537.5 747.2c0-.9.8-1.7 1.7-1.7h-7.4c-.9-.1-1.8.6-1.8 1.6-.1.9.6 1.8 1.6 1.8h.2 7.4c-1 0-1.7-.8-1.7-1.7z"/><path d="m572.1 747.2c0-.9-.8-1.7-1.7-1.7h-31.2c-.9.1-1.7.9-1.6 1.8s.7 1.5 1.6 1.6h31.2c1 0 1.7-.8 1.7-1.7z"/></g><g opacity=".15"><path d="m537.5 752.8c0-.9.8-1.7 1.7-1.7h-7.4c-.9-.1-1.8.6-1.8 1.6-.1.9.6 1.8 1.6 1.8h.2 7.4c-1 .1-1.7-.7-1.7-1.7z"/><path d="m572.1 752.8c0-.9-.8-1.7-1.7-1.7h-31.2c-.9.1-1.7.9-1.6 1.8s.7 1.5 1.6 1.6h31.2c.9 0 1.7-.7 1.7-1.7z"/></g></g><path d="m553.2 0h625c4.1 0 7.5 3.3 7.5 7.5v840.3c0 4.1-3.3 7.5-7.5 7.5h-625c-4.1 0-7.5-3.3-7.5-7.5v-840.3c0-4.2 3.3-7.5 7.5-7.5z" fill="#3e4547"/><path d="m1156 834.1h-586.4c-7.5 0-13.6-6.1-13.6-13.5v10.6c0 7.5 6.1 13.5 13.5 13.5h586.5c7.5 0 13.5-6.1 13.5-13.5v-10.6c.1 7.5-6 13.5-13.5 13.5z" fill="#1f1719" opacity=".15"/><path d="m1156 827.8h-586.4c-7.5 0-13.6-6.1-13.6-13.5v10.6c0 7.5 6.1 13.5 13.5 13.5h586.5c7.5 0 13.5-6.1 13.5-13.5v-10.6c.1 7.5-6 13.5-13.5 13.5z" fill="#efefef"/><path d="m1156 824h-586.4c-7.5 0-13.6-6.1-13.6-13.5v3.9c0 7.5 6.1 13.5 13.5 13.5h586.5c7.5 0 13.5-6.1 13.5-13.5v-3.9c.1 7.4-6 13.5-13.5 13.5z" fill="#f7f7f7"/><path d="m1156 12.2h-586.4c-7.5 0-13.6 6.3-13.6 14.1v783.6c0 7.8 6.1 14.1 13.5 14.1h586.5c7.5 0 13.5-6.3 13.5-14.1v-783.6c.1-7.8-6-14.1-13.5-14.1z" fill="#efefef"/><path d="m569.6 12.3h586.4c7.5 0 13.5 6.1 13.5 13.5v766.9c0 7.5-6.1 13.5-13.5 13.5h-586.4c-7.5 0-13.5-6.1-13.5-13.5v-766.8c-.1-7.5 6-13.6 13.5-13.6z" fill="#fff"/><path d="m587.2 76.7v-10.4c0-1.4-1.5-2.5-3.4-2.5h-17.7c-1.8 0-3.4 1.1-3.4 2.5v10.4c0 1.4 1.5 2.5 3.4 2.5h17.7c1.9.1 3.4-1 3.4-2.5z" fill="#fff"/><path d="m587.2 77.9v-10.4c0-1.4-1.5-2.5-3.4-2.5h-17.7c-1.8 0-3.4 1.1-3.4 2.5v10.4c0 1.4 1.5 2.5 3.4 2.5h17.7c1.9 0 3.4-1.1 3.4-2.5z" fill="#dedede"/><path d="m587.2 152.7v-10.4c0-1.4-1.5-2.5-3.4-2.5h-17.7c-1.8 0-3.4 1.1-3.4 2.5v10.4c0 1.4 1.5 2.5 3.4 2.5h17.7c1.9 0 3.4-1.1 3.4-2.5z" fill="#dedede"/><path d="m587.2 227.5v-10.5c0-1.4-1.5-2.5-3.4-2.5h-17.7c-1.8 0-3.4 1.1-3.4 2.5v10.4c0 1.4 1.5 2.5 3.4 2.5h17.7c1.9.1 3.4-1.1 3.4-2.4z" fill="#dedede"/><path d="m587.2 302.2v-10.4c0-1.4-1.5-2.5-3.4-2.5h-17.7c-1.8 0-3.4 1.1-3.4 2.5v10.4c0 1.4 1.5 2.5 3.4 2.5h17.7c1.9 0 3.4-1.1 3.4-2.5z" fill="#dedede"/><path d="m587.2 377v-10.4c0-1.4-1.5-2.5-3.4-2.5h-17.7c-1.8 0-3.4 1.1-3.4 2.5v10.4c0 1.4 1.5 2.5 3.4 2.5h17.7c1.9 0 3.4-1.1 3.4-2.5z" fill="#dedede"/><path d="m587.2 451.8v-10.4c0-1.4-1.5-2.5-3.4-2.5h-17.7c-1.8 0-3.4 1.1-3.4 2.5v10.4c0 1.4 1.5 2.5 3.4 2.5h17.7c1.9 0 3.4-1.1 3.4-2.5z" fill="#dedede"/><path d="m587.2 526.6v-10.4c0-1.4-1.5-2.5-3.4-2.5h-17.7c-1.8 0-3.4 1.1-3.4 2.5v10.4c0 1.4 1.5 2.5 3.4 2.5h17.7c1.9 0 3.4-1.1 3.4-2.5z" fill="#dedede"/><path d="m587.2 601.4v-10.4c0-1.4-1.5-2.5-3.4-2.5h-17.7c-1.8 0-3.4 1.1-3.4 2.5v10.4c0 1.4 1.5 2.5 3.4 2.5h17.7c1.9 0 3.4-1.1 3.4-2.5z" fill="#dedede"/><path d="m587.2 676.1v-10.4c0-1.4-1.5-2.5-3.4-2.5h-17.7c-1.8 0-3.4 1.1-3.4 2.5v10.4c0 1.4 1.5 2.5 3.4 2.5h17.7c1.9.1 3.4-1.1 3.4-2.5z" fill="#dedede"/><path d="m587.2 750.9v-10.4c0-1.4-1.5-2.5-3.4-2.5h-17.7c-1.8 0-3.4 1.1-3.4 2.5v10.4c0 1.4 1.5 2.5 3.4 2.5h17.7c1.9 0 3.4-1.1 3.4-2.5z" fill="#dedede"/><path d="m572.1 69.8c0-.9-.8-1.7-1.7-1.7h-31.2c-.9.1-1.7.9-1.6 1.8s.7 1.5 1.6 1.6h31.2c1 0 1.7-.7 1.7-1.7z" fill="#5b6669"/><path d="m572.1 75.5c0-.9-.8-1.7-1.7-1.7h-31.2c-.9.1-1.7.9-1.6 1.8s.7 1.5 1.6 1.6h31.2c.9 0 1.7-.7 1.7-1.7z" fill="#5b6669"/><path d="m572.1 144.6c0-.9-.8-1.7-1.7-1.7h-31.2c-.9.1-1.7.9-1.6 1.8s.7 1.5 1.6 1.6h31.2c1 0 1.7-.7 1.7-1.7z" fill="#5b6669"/><path d="m572.1 150.3c0-.9-.8-1.7-1.7-1.7h-31.2c-.9.1-1.7.9-1.6 1.8s.7 1.5 1.6 1.6h31.2c.9 0 1.7-.8 1.7-1.7z" fill="#5b6669"/><path d="m572.1 219.4c0-.9-.8-1.7-1.7-1.7h-31.2c-.9.1-1.7.9-1.6 1.8s.7 1.5 1.6 1.6h31.2c1 0 1.7-.8 1.7-1.7z" fill="#5b6669"/><path d="m572.1 225.1c0-.9-.8-1.7-1.7-1.7h-31.2c-.9.1-1.7.9-1.6 1.8s.7 1.5 1.6 1.6h31.2c.9 0 1.7-.8 1.7-1.7z" fill="#5b6669"/><path d="m572.1 294.2c0-.9-.8-1.7-1.7-1.7h-31.2c-.9.1-1.7.9-1.6 1.8s.7 1.5 1.6 1.6h31.2c1 0 1.7-.8 1.7-1.7z" fill="#5b6669"/><path d="m572.1 299.9c0-.9-.8-1.7-1.7-1.7h-31.2c-.9.1-1.7.9-1.6 1.8s.7 1.5 1.6 1.6h31.2c1 0 1.7-.8 1.7-1.7z" fill="#5b6669"/><path d="m572.1 369c0-.9-.8-1.7-1.7-1.7h-31.2c-.9.1-1.7.9-1.6 1.8s.7 1.5 1.6 1.6h31.2c.9 0 1.7-.8 1.7-1.7z" fill="#5b6669"/><path d="m572.1 374.6c0-.9-.8-1.7-1.7-1.7h-31.2c-.9.1-1.7.9-1.6 1.8s.7 1.5 1.6 1.6h31.2c1 .1 1.7-.7 1.7-1.7z" fill="#5b6669"/><path d="m572.1 443.7c0-.9-.8-1.7-1.7-1.7h-31.2c-.9.1-1.7.9-1.6 1.8s.7 1.5 1.6 1.6h31.2c.9 0 1.7-.7 1.7-1.7z" fill="#5b6669"/><path d="m572.1 449.4c0-.9-.8-1.7-1.7-1.7h-31.2c-.9.1-1.7.9-1.6 1.8s.7 1.5 1.6 1.6h31.2c1 0 1.7-.7 1.7-1.7z" fill="#5b6669"/><path d="m572.1 518.5c0-.9-.8-1.7-1.7-1.7h-31.2c-.9.1-1.7.9-1.6 1.8s.7 1.5 1.6 1.6h31.2c1 0 1.7-.7 1.7-1.7z" fill="#5b6669"/><path d="m572.1 524.2c0-.9-.8-1.7-1.7-1.7h-31.2c-.9.1-1.7.9-1.6 1.8s.7 1.5 1.6 1.6h31.2c.9 0 1.7-.7 1.7-1.7z" fill="#5b6669"/><path d="m572.1 593.3c0-.9-.8-1.7-1.7-1.7h-31.2c-.9.1-1.7.9-1.6 1.8s.7 1.5 1.6 1.6h31.2c1 0 1.7-.8 1.7-1.7z" fill="#5b6669"/><path d="m572.1 599c0-.9-.8-1.7-1.7-1.7h-31.2c-.9.1-1.7.9-1.6 1.8s.7 1.5 1.6 1.6h31.2c1 0 1.7-.8 1.7-1.7z" fill="#5b6669"/><path d="m572.1 668.1c0-.9-.8-1.7-1.7-1.7h-31.2c-.9.1-1.7.9-1.6 1.8s.7 1.5 1.6 1.6h31.2c.9 0 1.7-.7 1.7-1.7z" fill="#5b6669"/><path d="m572.1 673.8c0-.9-.8-1.7-1.7-1.7h-31.2c-.9.1-1.7.9-1.6 1.8s.7 1.5 1.6 1.6h31.2c1 0 1.7-.8 1.7-1.7z" fill="#5b6669"/><path d="m572.1 742.9c0-.9-.8-1.7-1.7-1.7h-31.2c-.9.1-1.7.9-1.6 1.8s.7 1.5 1.6 1.6h31.2c.9 0 1.7-.8 1.7-1.7z" fill="#5b6669"/><path d="m572.1 748.6c0-.9-.8-1.7-1.7-1.7h-31.2c-.9.1-1.7.9-1.6 1.8s.7 1.5 1.6 1.6h31.2c1 0 1.7-.8 1.7-1.7z" fill="#5b6669"/><path d="m767.2 468.4c.6-15 1.2-30.1 1.8-45.1l15.1 6.8c67.3-40.6 92.6-54.6 96.4-54.9.3 0 3.6-.3 4.3-1.9.4-1-.5-1.8-.6-4.1 0-.9 0-1.8.2-2.7.9-5.8 0-91 .6-113.5.1-3 .4-10.5 0-18.2-.4-9-1.3-9.2-.6-12 .2-.7.7-2.4-.2-3.9s-2.3-1.7-3.5-2.1c-2.7-.9-5-2.9-7.5-4.3-6.1-3.3-33.2-18.7-55.9-32.1-13.5-8-20.3-12.2-27.1-15.9-9.2-5-11.8-5.4-14.1-7.9-.8-1-2-1.7-3.3-1.9-1.1-.1-1.9.3-4.4 1.7-2.4 1.3-3.6 2-3.9 2.2-11.7 7.6-67.1 44-83.7 48.7-2.3.6-4.4 1.8-6.1 3.4-3.6 3.7-3.9 9-4 11-2.1 58.9-.4 77.4-.4 77.4.9 10 .9 39.7.9 99.1v21.8c-.1 1.1-.1 2.2 0 3.3.2 2 .7 4 1.4 5.8 1.8 4.2 6.9 6.2 8.4 6.8 9.3 3.8 17 10.6 26 15 31.8 15.6 47.7 23.4 51.1 27.1 1 1.1 4.7 5.3 9.2 5 1.8-.2 3.5-.9 4.9-2.1 15.3-12.2 33.8-19.8 50.5-29.9 11.1-6.8 16.7-10.1 20.6-11.9 6.7-3.1 12.7-7.6 19.5-10.4 1.6-.6 4.3-1.7 5.9-4.4 1.7-2.9 1-5.6.4-10.7-.6-5.3-.2-10.6-.4-15.9-.1-3.3-.3-8.5-.5-15" style="opacity:.3;fill:none;stroke:#3d3a31;stroke-width:7.8579;stroke-linecap:round;stroke-linejoin:round"/><path d="m794.6 282.5c3.4-2 8.4-5 14.5-8.6 13.8-8.2 13.7-8.4 22.3-13.4 29.5-17.5 27.4-14.4 32-18.6 1.7-1.6 6-5.7 7.8-4.6 1 .6.7 2.7.5 6.2-.2 4.1.2 8.3 0 12.4-.6 11-.7 24.1-.8 30.7-.1 12.1-.2 18.1 0 20.2.4 4.3-.4 8.6 0 12.9.3 2-.1 4-1 5.7-.7 1.3-1.8 2.4-3.1 3.1-16.7 10.5-24.4 14.3-24.4 14.3-3 1.4-9.2 5.2-21.4 12.7-6.7 4.1-14.3 7.1-20.3 12.2-1.3 1.1-5.1 4.4-6.2 3.6-.6-.4-.2-1.7 0-2.7v-10.7c0-7.7-.5-26.7-.5-30.9-.2-8.6-.2-20.9.8-36.6" style="opacity:.3;fill:none;stroke:#3d3a31;stroke-width:7.8579;stroke-linecap:round;stroke-linejoin:round"/><path d="m822.4 376.3c7.4-3.3 15.3-7.1 23.5-11.6 9.7-5.3 19.1-11.2 28.2-17.7" style="opacity:.3;fill:none;stroke:#3d3a31;stroke-width:7.8579;stroke-linecap:round;stroke-linejoin:round"/><path d="m886.6 582.8 19.9-11.1" style="opacity:.3;fill:none;stroke:#3d3a31;stroke-width:7.8579;stroke-linecap:round;stroke-linejoin:round"/><path d="m1097.6 644.1c-.9-2-3.3-2.8-5.2-1.9-.6-2.2-1.7-4.2-3.2-6-4.7-6-11.5-7.9-15.5-9l-1-.3c-1.5-.4-1.6-.5-5.3-2.7-3-1.8-8.7-5.2-19.5-11.3-13.8-7.8-24.5-13.5-34.8-19.1-12.1-6.5-23.4-12.6-38.8-21.5-12.3-7.1-24.7-14.5-37-22.2-1.2-.7-2.8-.4-3.5.8s-.4 2.8.8 3.5c12.3 7.7 24.8 15.2 37.1 22.2 15.4 8.9 26.8 15 38.9 21.5 10.3 5.5 20.9 11.2 34.7 19 10.8 6.1 16.2 9.3 19.4 11.2 3.9 2.3 4.4 2.6 6.5 3.2l1 .3c3.7 1 9.2 2.5 12.9 7.2 2.4 3 2.5 4.8 2.2 5.7-.7 2.3-5.3 3.5-7.1 3.9l-.3.1c-.9.2-1 .3-4.1 2.3-3.4 2.2-11.5 7.4-30.3 19.1-4.5 2.8-15.4 9.6-22.3 13.7-1.3-.8-3 .1-4.3.8-1.4.8-3.6 2-6.7 3.8-2.5 1.5-6.8 4-12.4 3.8-6.3-.2-11-3.7-13-5.1l-.1-.1c-6.9-5.1-14.5-9.1-21.9-13-6.1-3.1-12-6.4-17.7-10.1-7.8-5.3-15.8-10.1-24.2-14.4-7.7-4.1-17.3-9.2-37.6-21.6-13.3-8.1-19.4-12.2-22.7-14.4-3.4-2.3-4.1-2.7-6.6-3.5l-1.9-.6c-5-1.5-11.8-3.6-13.3-8.1-.4-1.3-.4-2.8 0-4.1 1.3-3.6 6.7-5.1 8.8-5.6l.3-.1c7.3-2.1 11.8-5.3 17.9-9.8 7.6-5.6 18.1-13.3 41.1-24.4 5.5-2.6 11.1-5.2 16.7-7.6 1.3-.6 1.9-2.1 1.3-3.4s-2.1-1.9-3.4-1.3c-5.7 2.4-11.4 5-16.9 7.7-23.4 11.3-34.1 19.1-41.9 24.9-6.1 4.5-9.8 7.2-16.2 9l-.2.1c-2.7.7-9.9 2.8-12.2 8.8-.1.3-.2.7-.3 1-.6-.7-1.4-1.2-2.3-1.4-2.1-.4-4.2 1-4.6 3.2-.3 1.8-.6 3.7-.8 5.6-.4 4-.7 6.4.3 8.8 1.7 4.2 5.9 5.8 8.1 6.6 1.7 1.5 5.9 4.2 16.8 10.6 9 5.3 22 12.8 33.4 19.3 7 4 13.5 7.8 18.3 10.5 15.2 8.8 22.3 13.4 27.4 16.7 5.7 3.7 11.5 7.2 17.6 10.2 6.4 3.3 11.3 5.6 15.2 7.4 7.4 3.5 10.8 5 14.8 9.1l.2.2c2 2 6.7 6.8 14.2 8.9 2.4.6 4.8.9 7.2.9 1.7 0 3.4-.1 5.1-.4 6.3-1.1 12.2-3.6 17.3-7.5l.1-.1c15.1-11 33-20.3 40-23.8 2.9-1.5 5.8-3.1 8.6-4.7 4-2.3 8-4.4 12.2-6.3l1.6-.7c4.8-2 9.4-3.9 11.8-8.8 2.7-4.1 2.4-10.1-.7-16.7zm-5.9 13.7c-1.1 2.2-3.5 3.3-7.9 5.1l-1.6.7c-4.5 2-8.8 4.2-13 6.7-2.7 1.5-5.5 3.1-8.3 4.5-7.2 3.6-25.5 13.2-41.1 24.4l-.1.1c-4.1 3.1-8.8 5.2-13.8 6.1-3 .5-6.1.4-9.1-.3-5.4-1.4-9-5-10.6-6.7l-.2-.3c-5-5.1-9.3-7.1-17.1-10.7-3.8-1.8-8.6-4-14.9-7.3-5.8-2.9-11.5-6.2-16.9-9.8-5.2-3.3-12.3-7.9-27.7-16.9-4.8-2.8-11.3-6.5-18.3-10.6-11.4-6.6-24.4-14-33.3-19.3-11.9-7-14.9-9.1-15.6-9.7-.5-.6-1.2-1.1-1.9-1.3l-.4-.1c-1.2-.4-3.4-1.2-3.8-2.2-.2-.5 0-2.9.3-5 .1-.6.1-1.1.2-1.7 2.4 6.9 10.6 9.5 16.6 11.3.6.2 1.3.4 1.8.6 1.9.6 2.1.7 5.3 2.9s9.4 6.2 22.8 14.5c20.4 12.5 30.1 17.7 37.8 21.8 8.2 4.3 16.1 9 23.7 14.2 5.9 3.8 11.9 7.2 18.1 10.3 7.2 3.8 14.7 7.7 21.2 12.5l.1.1c2.2 1.6 8 5.9 15.9 6.2h.7c6.7 0 11.7-2.9 14.5-4.6l1.8-1c1.3.9 3 0 4-.5s2.4-1.4 4.6-2.7c4.6-2.7 12.1-7.4 23-14.2 18.8-11.7 26.9-16.9 30.3-19.1 1.4-.9 2.3-1.5 2.6-1.6l.3-.1c2.3-.6 7.1-1.8 9.5-5.1 1 2.7 1.8 6.2.5 8.8z" fill="#3d3a31" opacity=".3"/><path d="m1022.7 649.4c-4.1 4.6-3.7 7.5-3.4 8.4 1.5 6 14.1 8.8 22.1 4.8.8-.4 6.1-3.1 6.1-6.9 0-2.4-2.1-4.1-3.3-5-5.3-4.3-12.5-3.4-15-3" style="opacity:.3;fill:none;stroke:#3d3a31;stroke-width:1.7019;stroke-linecap:round;stroke-linejoin:round"/><path d="m1026.2 654.4c.4-.6 2.6-3.8 6-3.9 1.3 0 2.4.5 4.7 1.7 2.4 1.2 3.8 1.9 3.9 2.9.1 1.1-1.2 2.1-2.9 3.4-1.4 1-2.3 1.8-3.4 2-3.8.9-7.4-3.5-7.6-3.8" style="opacity:.3;fill:none;stroke:#3d3a31;stroke-width:3.4119;stroke-linecap:round;stroke-linejoin:round"/><g style="opacity:.1;fill:none;stroke:#070606;stroke-width:4.0144;stroke-linecap:round;stroke-miterlimit:10"><path d="m1066.1 43.1v.2"/><path d="m1066.1 72.4v694.6" stroke-dasharray=".4479 29.1026"/><path d="m1066.1 781.6v.2"/></g><g style="opacity:.1;fill:none;stroke:#070606;stroke-width:4.0144;stroke-linecap:round;stroke-miterlimit:10"><path d="m1095.6 43.1v.2"/><path d="m1095.6 72.4v694.6" stroke-dasharray=".4479 29.1026"/><path d="m1095.6 781.6v.2"/></g><g style="opacity:.1;fill:none;stroke:#070606;stroke-width:4.0144;stroke-linecap:round;stroke-miterlimit:10"><path d="m1125.7 43.1v.2"/><path d="m1125.7 72.4v694.6" stroke-dasharray=".4479 29.1026"/><path d="m1125.7 781.6v.2"/></g><g style="opacity:.1;fill:none;stroke:#070606;stroke-width:4.0144;stroke-linecap:round;stroke-miterlimit:10"><path d="m1010.1 43.1v.2"/><path d="m1010.1 72.4v694.6" stroke-dasharray=".4479 29.1026"/><path d="m1010.1 781.6v.2"/></g><g style="opacity:.1;fill:none;stroke:#070606;stroke-width:4.0144;stroke-linecap:round;stroke-miterlimit:10"><path d="m982.1 43.1v.2"/><path d="m982.1 72.4v694.6" stroke-dasharray=".4479 29.1026"/><path d="m982.1 781.6v.2"/></g><g style="opacity:.1;fill:none;stroke:#070606;stroke-width:4.0144;stroke-linecap:round;stroke-miterlimit:10"><path d="m1038.1 43.1v.2"/><path d="m1038.1 72.4v694.6" stroke-dasharray=".4479 29.1026"/><path d="m1038.1 781.6v.2"/></g><g style="opacity:.1;fill:none;stroke:#070606;stroke-width:4.0144;stroke-linecap:round;stroke-miterlimit:10"><path d="m954.1 43.1v.2"/><path d="m954.1 72.4v694.6" stroke-dasharray=".4479 29.1026"/><path d="m954.1 781.6v.2"/></g><g style="opacity:.1;fill:none;stroke:#070606;stroke-width:4.0144;stroke-linecap:round;stroke-miterlimit:10"><path d="m898.2 43.1v.2"/><path d="m898.2 72.4v694.6" stroke-dasharray=".4479 29.1026"/><path d="m898.2 781.6v.2"/></g><g style="opacity:.1;fill:none;stroke:#070606;stroke-width:4.0144;stroke-linecap:round;stroke-miterlimit:10"><path d="m870.2 43.1v.2"/><path d="m870.2 72.4v694.6" stroke-dasharray=".4479 29.1026"/><path d="m870.2 781.6v.2"/></g><g style="opacity:.1;fill:none;stroke:#070606;stroke-width:4.0144;stroke-linecap:round;stroke-miterlimit:10"><path d="m926.2 43.1v.2"/><path d="m926.2 72.4v694.6" stroke-dasharray=".4479 29.1026"/><path d="m926.2 781.6v.2"/></g><g style="opacity:.1;fill:none;stroke:#070606;stroke-width:4.0144;stroke-linecap:round;stroke-miterlimit:10"><path d="m842.2 43.1v.2"/><path d="m842.2 72.4v694.6" stroke-dasharray=".4479 29.1026"/><path d="m842.2 781.6v.2"/></g><g style="opacity:.1;fill:none;stroke:#070606;stroke-width:4.0144;stroke-linecap:round;stroke-miterlimit:10"><path d="m786.3 43.1v.2"/><path d="m786.3 72.4v694.6" stroke-dasharray=".4479 29.1026"/><path d="m786.3 781.6v.2"/></g><g style="opacity:.1;fill:none;stroke:#070606;stroke-width:4.0144;stroke-linecap:round;stroke-miterlimit:10"><path d="m758.3 43.1v.2"/><path d="m758.3 72.4v694.6" stroke-dasharray=".4479 29.1026"/><path d="m758.3 781.6v.2"/></g><g style="opacity:.1;fill:none;stroke:#070606;stroke-width:4.0144;stroke-linecap:round;stroke-miterlimit:10"><path d="m814.2 43.1v.2"/><path d="m814.2 72.4v694.6" stroke-dasharray=".4479 29.1026"/><path d="m814.2 781.6v.2"/></g><g style="opacity:.1;fill:none;stroke:#070606;stroke-width:4.0144;stroke-linecap:round;stroke-miterlimit:10"><path d="m730.3 43.1v.2"/><path d="m730.3 72.4v694.6" stroke-dasharray=".4479 29.1026"/><path d="m730.3 781.6v.2"/></g><g style="opacity:.1;fill:none;stroke:#070606;stroke-width:4.0144;stroke-linecap:round;stroke-miterlimit:10"><path d="m674.3 43.1v.2"/><path d="m674.3 72.4v694.6" stroke-dasharray=".4479 29.1026"/><path d="m674.3 781.6v.2"/></g><g style="opacity:.1;fill:none;stroke:#070606;stroke-width:4.0144;stroke-linecap:round;stroke-miterlimit:10"><path d="m646.3 43.1v.2"/><path d="m646.3 72.4v694.6" stroke-dasharray=".4479 29.1026"/><path d="m646.3 781.6v.2"/></g><g style="opacity:.1;fill:none;stroke:#070606;stroke-width:4.0144;stroke-linecap:round;stroke-miterlimit:10"><path d="m618.4 43.1v.2"/><path d="m618.4 72.4v694.6" stroke-dasharray=".4479 29.1026"/><path d="m618.4 781.6v.2"/></g><g style="opacity:.1;fill:none;stroke:#070606;stroke-width:4.0144;stroke-linecap:round;stroke-miterlimit:10"><path d="m702.3 43.1v.2"/><path d="m702.3 72.4v694.6" stroke-dasharray=".4479 29.1026"/><path d="m702.3 781.6v.2"/></g></svg>