<svg viewBox="0 0 1200 1200" xmlns="http://www.w3.org/2000/svg"><path d="m1106.21 1145.49h22.57a18.56 18.56 0 0 0 18.56-18.56v-73.44h-41.13z" fill="#1f1719" opacity=".15"/><path d="m1065.09 1053.49v73.44a18.56 18.56 0 0 0 18.56 18.56h22.56v-92z" fill="#1f1719" opacity=".15"/><path d="m1119.46 82.45-13.25-31.45v31.45z" fill="#241f1e"/><path d="m1106.21 51-13.25 31.45h13.25z" fill="#181214"/><path d="m1106.21 82.45h-13.25l-27.87 66.17h41.12z" fill="#fdf6fa"/><path d="m1106.21 148.62h41.13l-27.88-66.17h-13.25z" fill="#e1dadf"/><path d="m1106.21 1126.67h22.57a18.56 18.56 0 0 0 18.56-18.56v-73.44h-41.13z" fill="#ce7aa6"/><path d="m1065.09 1034.67v73.44a18.56 18.56 0 0 0 18.56 18.56h22.56v-92z" fill="#e084b4"/><path d="m1065.09 148.61h41.12v809.86h-41.12z" fill="#e4ad3a"/><path d="m1106.21 148.61h41.12v809.86h-41.12z" fill="#d29f35"/><path d="m1106.21 958.48h41.12v76.2h-41.12z" fill="#bdbdbd"/><path d="m1065.09 958.48h41.12v76.2h-41.12z" fill="#dedede"/><g fill="#1f1719" opacity=".15"><path d="m967 1147.85a20.41 20.41 0 0 0 20.41-20.41v-93.54a20.41 20.41 0 0 0 -20.41-20.41h-226.69v134.36z"/><path d="m740.31 1013.49h-47.31a20.41 20.41 0 0 0 -20.41 20.41v93.54a20.41 20.41 0 0 0 20.41 20.41h47.35z"/></g><path d="m967 1130.93a20.4 20.4 0 0 0 20.41-20.4v-93.53a20.41 20.41 0 0 0 -20.41-20.43h-226.69v134.36z" fill="#e69bc2"/><path d="m740.31 996.57h-47.31a20.41 20.41 0 0 0 -20.45 20.43v93.55a20.4 20.4 0 0 0 20.41 20.4h47.35z" fill="#e084b4"/><rect fill="#1f1719" height="800.5" opacity=".15" rx="50.51" width="481.63" x="51" y="348.5"/><rect fill="#f7f7f7" height="800.5" rx="50.51" stroke="#bfc2c4" stroke-miterlimit="10" stroke-width="1.27" width="481.63" x="51" y="326.17"/><path d="m482.12 1126.67h-380.61a50.52 50.52 0 0 1 -50.51-50.52v-699.47a50.38 50.38 0 0 1 14.8-35.68c10.2-10.2 22.35-12.35 35.71-14.83a114.61 114.61 0 0 1 41.14 0c75.54 236.6 162.85 392.91 231.07 493.94 32.8 48.58 158.91 229.1 158.91 229.1v26.94a50.51 50.51 0 0 1 -50.51 50.52z" fill="#e6e6e7" opacity=".33"/><circle cx="291.82" cy="893.22" fill="#cbcfd0" r="147.67"/><rect fill="#55595b" height="312.65" rx="17.43" width="409.99" x="86.82" y="360.79"/><circle cx="291.82" cy="893.22" fill="#f7f7f7" r="50.92" stroke="#bfc2c4" stroke-miterlimit="10" stroke-width="1.27"/><g fill="#f6f7f7"><text font-family="Helvetica-Bold, Helvetica" font-size="19.05" font-weight="700" transform="translate(263.77 778.45)">MENU</text><path d="m190.76 885.69-12.68 8.27 12.68 8.27z"/><path d="m165.87 902.23v-7.97l12.21 7.97v-8.27-8.27l-12.21 7.97v-7.97h-5.09v16.54z"/><path d="m276.28 1031.93 12.68-8.27-12.68-8.26z"/><path d="m293.99 1015.83h5.08v16.1h-5.08z"/><path d="m302.27 1015.83h5.08v16.1h-5.08z"/><path d="m392.63 901.49 12.68-8.27-12.68-8.27z"/><path d="m417.53 884.95v7.97l-12.22-7.97v8.27 8.27l12.22-7.97v7.97h5.08v-16.54z"/></g><path d="m99.13 373.15h385.38v287.93h-385.38z" fill="#fff"/><path d="m99.13 373.15h385.38v20.25h-385.38z" fill="#d0d4d3"/><rect fill="#96b9c4" height="148.57" rx="25.93" width="148.57" x="123.42" y="418.18"/><rect fill="#6d7072" height="23.48" rx="8.39" width="147.67" x="291.82" y="434.26"/><rect fill="#9ba0a3" height="9.27" rx="4.63" width="130.8" x="291.82" y="465.39"/><rect fill="#9ba0a3" height="9.27" rx="4.63" width="130.8" x="291.82" y="482.94"/><rect fill="#9ba0a3" height="9.27" rx="4.63" width="130.8" x="291.82" y="501.24"/><path d="m457.1 607.3a2.1 2.1 0 0 1 2.11 2.07v12.93a2.1 2.1 0 0 1 -2.11 2.07h-203v-17.07zm0-1h-204v19.09h204a3.1 3.1 0 0 0 3.12-3.08v-12.94a3.1 3.1 0 0 0 -3.12-3.08z" fill="#9ba0a3"/><path d="m126.5 606.29a3.08 3.08 0 0 0 -3.08 3.08v12.93a3.08 3.08 0 0 0 3.08 3.08h129.5v-19.09z" fill="#409bc6"/><path d="m981.79 500 1.69-.4-6.4-27.11 5.2-1.22-13.76-58.27-4.52 1.07-11.06-46.85-1.66.4-.14-.6-3.9-16.53a2.45 2.45 0 0 0 -2.93-1.81l-7.69 1.82a2.43 2.43 0 0 0 -1.81 2.93l3.9 16.53c.05.2.14.59.14.59l-1.66.39 11.05 46.84-4.57 1.08 13.76 58.32 5.2-1.22 6.4 27.11 2.07-.49c6.67 25.19 19.51 86 9.9 152a235.1 235.1 0 0 0 -17.68-71.13 263.8 263.8 0 0 0 -19.16-36.14 271.76 271.76 0 0 0 -10.58-25.6c-15.78-32.93-34.72-51-56.3-53.63-9.9-1.22-19.6.82-28.92 4.83a64.81 64.81 0 0 0 -7.24-.06c-37.51 1.74-72.71 36-99.2 96.47 3.89-25 7.08-50.76 9.13-74.6a897.25 897.25 0 0 0 .06-152.54h14.87v-97.48s-1.29-26.07-.26-49.34c29.4-6.14 51.46-31.63 51.46-62.15-.05-35.11-29.18-63.56-65.18-63.56s-65.13 28.45-65.13 63.56c0 25 14.81 46.64 36.33 57l1.8 54.49h.13v97.52h16.79l-1.87.16a886.31 886.31 0 0 1 0 151.43c-4 46.72-12.44 101-22 141.57-1.34 5.68-2.65 10.9-3.92 15.7-3.21 9-6.22 18.57-8.88 28.66-9.58 25.8-15.87 26.15-16 26.15-.5 0-12.5-1.2-26.08-77.75-7.92-44.67-13.38-98.07-15.84-133.14a1083.37 1083.37 0 0 1 0-151.6l-1.08-.07h14.51v-97.53q-.29-32.91-.56-65.84a133.7 133.7 0 0 0 -4.24-33.05s-1-3.92-2.21-7.71c-7-21.76-39.07-56.39-46.1-63.79-.45-.51-.87-1-1.28-1.34q-.71-.66-1.29-1.14c-1.95-1.59-7.77-6.35-16.06-6.48-6.49-.1-11.25 2.67-14.34 4.54-7.68 4.59-12.58 11.31-15.95 18.5v.05a25.13 25.13 0 0 0 -2 4.83 94.1 94.1 0 0 0 -3.59 12.52v.21c-.6 2.72-1.09 5.3-1.52 7.64a111.44 111.44 0 0 0 -1.25 22.6v.13c.41 19.56 4.28 27.16 5.54 29.47a72.74 72.74 0 0 0 4.66 10.25c3.61 6.51 7.5 10.72 12.77 13 4.76 1.6 11.2 2.85 17.73.73a57.84 57.84 0 0 0 11-4.84c9.49-5.43 12.51-10.8 15.82-9.89 4.23 1.16 4.85 11.48 5.08 15.82.58 11 .76 19.42.59 22.57-.41 7.44-.79 18-.61 31.12v97.53h13.39a1095.4 1095.4 0 0 0 0 152.44c2.48 35.36 8 89.2 16 134.29 10.92 61.6 21.58 80.15 30.51 85.17a231.79 231.79 0 0 0 -2.58 58.23c1.77 21.3 5.06 60.95 26.17 86.59 16.22 19.71 44 31.84 78.26 34.16q6 .42 12.13.41c27.49 0 55.69-6.15 79-17.4 23.12-11.18 43.41-28.35 60.3-51.05 15.87-21.33 28-46.41 35.9-74.53a268 268 0 0 0 8.88-47.4c27.2-84.78 9.37-171.9.88-204.14zm-105.91-21c14.88 1.84 27.17 13.24 37.14 28.42-13.2-13.37-26.81-23-40.43-28.66 1.1.09 2.19.17 3.29.3zm-51.32 8.34c-10.71 8.21-20.54 17.76-29.11 26.08-5 4.91-20.12 19.56-40.91 54.55 19.97-43.32 44.27-71.17 70.02-80.57zm-119.4 295.96a145.92 145.92 0 0 1 -.65-27c0 8.96.11 18.04.65 27zm165.79 84c-21.54 10.41-48.37 16.22-74.31 16.21-32.89 0-64.34-9.33-81.74-30.46-18.91-23-22-60.39-23.68-80.49a220.56 220.56 0 0 1 2.61-56.44 15.54 15.54 0 0 0 4.29-2.48q-1 6.23-1.74 12.66c-3.82 32.42-7.12 60.42 7.43 92 12 26.13 29 45.37 47.91 54.19 26.37 12.33 61 7.13 100.3-15 1.11-.62 2.22-1.26 3.33-1.91a226.78 226.78 0 0 0 32.75-18.15c25.37-17 46.25-38.25 60.41-61.59a161 161 0 0 0 11.71-23.38c-16.02 53.36-48.4 95.08-89.22 114.83zm80.41-122.4a227.56 227.56 0 0 1 -22.71 33.54c-21.09 25.88-50.34 50.93-78.82 67.61a182.3 182.3 0 0 1 -39.46 12.57c-28.24 5.43-52.46 1.89-68.19-10-26.93-20.31-26.77-63.31-26.62-101.25.13-33.41 5.11-70.51 13.79-105.75 11-27.52 23.66-49.14 32.95-65 20.94-35.87 35.92-50.42 40.84-55.21 13.26-12.88 29.81-29 47.09-37.19 14.95 1.67 35.41 9.83 58.76 35a233.16 233.16 0 0 1 25.14 33c5.89 16.59 9.89 32 12.25 41.1 6.1 23.47 13.69 52.68 14.94 83.47 1.03 25.04-2.25 47.55-9.96 68.1z" fill="#1f1719" opacity=".15"/><path d="m951.09 352-3.9-16.53a2.43 2.43 0 0 0 -2.93-1.81l-7.69 1.82a2.43 2.43 0 0 0 -1.81 2.92l3.9 16.53.14.6-1.66.39 11.73 49.71 15.75-3.72-11.73-49.71-1.66.39z" fill="#57534e"/><path d="m937.89 359.12 15.76-3.71" fill="none" stroke="#ada79a" stroke-miterlimit="10" stroke-width="1.84"/><path d="m941.28 373.48 15.75-3.72" fill="none" stroke="#ada79a" stroke-miterlimit="10" stroke-width="3.68"/><ellipse cx="752" cy="118.2" fill="#eeeded" rx="65.13" ry="63.56" stroke="#e6e5e5" stroke-miterlimit="10" stroke-width="2.76"/><path d="m722.4 150.31 2.6 79.38h41s-4.1-83 8.19-85" fill="#f0f0f0"/><path d="m725.09 229.69h40.84v97.52h-40.84z" fill="#bcbcbc"/><path d="m689.32 701.91h-.32c-9.94-.25-23.09-10.35-36.66-86.85-8-45.09-13.5-98.93-16-134.29a1093.28 1093.28 0 0 1 0-153.15l11 .78a1083.37 1083.37 0 0 0 0 151.6c2.46 35.07 7.92 88.47 15.84 133.14 13.58 76.55 25.58 77.74 26.08 77.75.18 0 12.38-.68 28.8-70.51 9.54-40.6 18-94.85 22-141.57a886.31 886.31 0 0 0 0-151.43l11-.94a898.05 898.05 0 0 1 0 153.31c-4.06 47.22-12.58 102.07-22.24 143.15-16.59 70.33-30.43 79.01-39.5 79.01z" fill="#fbfbfb"/><path d="m622.89 177.1c.58 11 .76 19.41.59 22.57-.41 7.44-.79 18-.61 31.12h37.87q-.29-32.92-.56-65.84a133.63 133.63 0 0 0 -4.24-33s-1-3.92-2.21-7.71c-7.63-23.84-45.42-63.11-47.4-65.15a229.21 229.21 0 0 1 1.86 33.69 234.24 234.24 0 0 1 -17.19 83.22 57.61 57.61 0 0 0 11-4.84c9.49-5.43 12.51-10.8 15.82-9.89 4.18 1.17 4.84 11.49 5.07 15.83z" fill="#f0f0f0"/><path d="m622.87 230.79h37.87v97.52h-37.87z" fill="#bcbcbc"/><path d="m617.39 99.41c0 12.72.22 68-26.4 76.6-6.53 2.11-13 .87-17.73-.73-5.27-2.32-9.16-6.53-12.77-13-15.45-27.85-9-62.47-9-62.47 2.44-13 6.3-33.62 23.11-43.81 3.09-1.87 7.85-4.64 14.34-4.54 8.29.13 14.11 4.89 16.06 6.48 3.88 3.06 12.3 11.88 12.39 41.47z" fill="#e6e5e5"/><circle cx="722.86" cy="76.27" fill="#bebebe" r="2.01"/><circle cx="737.98" cy="69.43" fill="#bebebe" r="2.01"/><circle cx="754.01" cy="67.42" fill="#bebebe" r="2.01"/><circle cx="770.89" cy="69.43" fill="#bebebe" r="2.01"/><circle cx="785.97" cy="77.28" fill="#bebebe" r="2.01"/><path d="m558.7 74.53c1.25-2.19 4.08-7.12 9.48-8.5a7.33 7.33 0 0 1 3.07-.32c2.72.41 5.72 2.94 9.22 12.58a86 86 0 0 1 4.71 21.26 110.28 110.28 0 0 1 -.46 26.55 91.56 91.56 0 0 1 -3.91 16.41c-3.27 10.21-5.86 13.14-8.39 14.93-1.39 1-4.34 3.07-8 2.51-2.7-.4-5.49-2.38-8.55-8-1.26-2.31-5.13-9.91-5.54-29.47 0 0-.35-16.42 2.81-30.59 1-4.41 2.44-9 2.6-9.49 1.26-3.98 1.87-5.98 2.96-7.87z" fill="#bcbcbc"/><path d="m796.78 879.61q-6.09 0-12.13-.41c-34.24-2.32-62-14.46-78.26-34.16-21.11-25.64-24.4-65.29-26.17-86.59a232.82 232.82 0 0 1 3.45-63.1l10.83 2.09a221.23 221.23 0 0 0 -3.28 60.1c1.66 20.1 4.77 57.51 23.68 80.49 17.4 21.13 48.85 30.46 81.74 30.46 25.94 0 52.78-5.8 74.31-16.21 40.87-19.75 73.25-61.47 89.27-114.82a161 161 0 0 1 -11.71 23.38c-14.16 23.34-35 44.63-60.41 61.59a226.78 226.78 0 0 1 -32.75 18.15c-1.11.65-2.22 1.29-3.33 1.91-39.25 22.15-73.93 27.34-100.3 15-18.88-8.82-35.89-28.07-47.91-54.19-14.55-31.62-11.25-59.62-7.43-92a346.48 346.48 0 0 1 22-86.58 438.09 438.09 0 0 1 23-69.26c26.55-61.16 62-95.81 99.69-97.57a64.82 64.82 0 0 1 7.24.07c9.32-4 19-6.05 28.92-4.83 21.58 2.66 40.52 20.7 56.3 53.62a273 273 0 0 1 10.58 25.61 263.22 263.22 0 0 1 19.16 36.14 235.1 235.1 0 0 1 17.73 71.11c9.75-67-3.61-128.65-10.19-153.15l10.65-2.86c8.32 31 27.12 119.46-.58 205.63a268 268 0 0 1 -8.88 47.4c-8 28.12-20 53.2-35.9 74.53-16.89 22.7-37.18 39.87-60.3 51.05-23.33 11.25-51.53 17.4-79.02 17.4zm-67.43-253c-8.68 35.25-13.66 72.34-13.79 105.76-.15 37.94-.31 80.94 26.62 101.25 15.73 11.85 40 15.4 68.19 10a182.3 182.3 0 0 0 39.46-12.62c28.48-16.68 57.73-41.74 78.82-67.61a228.09 228.09 0 0 0 22.71-33.54c7.71-20.55 11-43.06 10-68.12-1.25-30.79-8.84-60-14.94-83.47-2.36-9.11-6.36-24.51-12.25-41.11a234.34 234.34 0 0 0 -25.13-33c-23.36-25.19-43.82-33.35-58.77-35-17.28 8.23-33.83 24.31-47.09 37.2-4.92 4.79-19.9 19.34-40.84 55.2-9.34 15.94-21.95 37.56-32.99 65.07zm-24.84 114.7a146 146 0 0 0 .65 27c-.54-8.98-.65-18.06-.65-26.99zm120-268.94c-25.75 9.41-50 37.26-70 80.64 20.79-35 35.87-49.64 40.91-54.55 8.58-8.31 18.43-17.86 29.14-26.08zm48-8.58c13.62 5.67 27.23 15.29 40.43 28.67-10-15.18-22.26-26.58-37.14-28.42-1.02-.12-2.11-.2-3.21-.24z" fill="#fbfbfb" stroke="#fbfbfb" stroke-miterlimit="10" stroke-width=".92"/><path d="m965.43 457.58h14.9v29.15h-14.9z" fill="#bcbcbc" transform="matrix(.97325912 -.22971002 .22971002 .97325912 -82.43 236.07)"/><path d="m950.16 400.11h25.59v59.92h-25.59z" fill="#f0f0f0" transform="matrix(.97325912 -.22971002 .22971002 .97325912 -73.03 232.66)"/></svg>