<svg xmlns="http://www.w3.org/2000/svg" viewBox="0 0 1200 1200"><defs><style>.cls-1,.cls-13{fill:#1f1719;}.cls-1,.cls-12{opacity:0.15;}.cls-2{fill:#241f1e;}.cls-3{fill:#181214;}.cls-4{fill:#fdf6fa;}.cls-5{fill:#e1dadf;}.cls-6{fill:#ce7aa6;}.cls-7{fill:#e084b4;}.cls-8{fill:#e4ad3a;}.cls-9{fill:#d29f35;}.cls-10{fill:#bdbdbd;}.cls-11{fill:#dedede;}.cls-14{fill:#e69bc2;}.cls-15{fill:#f7f7f7;stroke:#bfc2c4;stroke-width:1.27px;}.cls-15,.cls-28,.cls-29,.cls-30,.cls-36{stroke-miterlimit:10;}.cls-16{fill:#e6e6e7;opacity:0.33;}.cls-17{fill:#cbcfd0;}.cls-18{fill:#55595b;}.cls-19{font-size:19.05px;font-family:Helvetica-Bold, Helvetica;font-weight:700;}.cls-19,.cls-20{fill:#f6f7f7;}.cls-21{fill:#fff;}.cls-22{fill:#d0d4d3;}.cls-23{fill:#96b9c4;}.cls-24{fill:#6d7072;}.cls-25{fill:#9ba0a3;}.cls-26{fill:#409bc6;}.cls-27{fill:#57534e;}.cls-28,.cls-29{fill:none;stroke:#ada79a;}.cls-28{stroke-width:1.84px;}.cls-29{stroke-width:3.68px;}.cls-30{fill:#eeeded;stroke:#e6e5e5;stroke-width:2.76px;}.cls-31{fill:#f0f0f0;}.cls-32{fill:#bcbcbc;}.cls-33,.cls-36{fill:#fbfbfb;}.cls-34{fill:#e6e5e5;}.cls-35{fill:#bebebe;}.cls-36{stroke:#fbfbfb;stroke-width:0.92px;}</style></defs><title>portfolio-icons</title><g id="apple-icon"><g id="pencil"><path class="cls-1" d="M1106.21,1145.49h22.57a18.56,18.56,0,0,0,18.56-18.56v-73.44h-41.13Z"/><path class="cls-1" d="M1065.09,1053.49v73.44a18.56,18.56,0,0,0,18.56,18.56h22.56v-92Z"/><polygon class="cls-2" points="1119.46 82.45 1106.21 51 1106.21 82.45 1119.46 82.45"/><polygon class="cls-3" points="1106.21 51 1092.96 82.45 1106.21 82.45 1106.21 51"/><polygon class="cls-4" points="1106.21 82.45 1092.96 82.45 1065.09 148.62 1106.21 148.62 1106.21 82.45"/><polygon class="cls-5" points="1106.21 148.62 1147.34 148.62 1119.46 82.45 1106.21 82.45 1106.21 148.62"/><path class="cls-6" d="M1106.21,1126.67h22.57a18.56,18.56,0,0,0,18.56-18.56v-73.44h-41.13Z"/><path class="cls-7" d="M1065.09,1034.67v73.44a18.56,18.56,0,0,0,18.56,18.56h22.56v-92Z"/><rect class="cls-8" x="1065.09" y="148.61" width="41.12" height="809.86"/><rect class="cls-9" x="1106.21" y="148.61" width="41.12" height="809.86"/><rect class="cls-10" x="1106.21" y="958.48" width="41.12" height="76.2"/><rect class="cls-11" x="1065.09" y="958.48" width="41.12" height="76.2"/></g><g id="eraser" class="cls-12"><path class="cls-13" d="M967,1147.85a20.41,20.41,0,0,0,20.41-20.41V1033.9A20.41,20.41,0,0,0,967,1013.49H740.31v134.36Z"/><path class="cls-13" d="M740.31,1013.49H693a20.41,20.41,0,0,0-20.41,20.41v93.54A20.41,20.41,0,0,0,693,1147.85h47.35Z"/></g><g id="eraser-2" data-name="eraser"><path class="cls-14" d="M967,1130.93a20.4,20.4,0,0,0,20.41-20.4V1017A20.41,20.41,0,0,0,967,996.57H740.31v134.36Z"/><path class="cls-7" d="M740.31,996.57H693A20.41,20.41,0,0,0,672.55,1017v93.55a20.4,20.4,0,0,0,20.41,20.4h47.35Z"/></g><rect class="cls-1" x="51" y="348.5" width="481.63" height="800.5" rx="50.51"/><rect class="cls-15" x="51" y="326.17" width="481.63" height="800.5" rx="50.51"/><path class="cls-16" d="M482.12,1126.67H101.51A50.52,50.52,0,0,1,51,1076.15V376.68A50.38,50.38,0,0,1,65.8,341C76,330.8,88.15,328.65,101.51,326.17a114.61,114.61,0,0,1,41.14,0c75.54,236.6,162.85,392.91,231.07,493.94,32.8,48.58,158.91,229.1,158.91,229.1h0v26.94A50.51,50.51,0,0,1,482.12,1126.67Z"/><circle class="cls-17" cx="291.82" cy="893.22" r="147.67"/><rect class="cls-18" x="86.82" y="360.79" width="409.99" height="312.65" rx="17.43"/><circle class="cls-15" cx="291.82" cy="893.22" r="50.92"/><text class="cls-19" transform="translate(263.77 778.45)">MENU</text><polygon class="cls-20" points="190.76 885.69 178.08 893.96 190.76 902.23 190.76 885.69"/><polygon class="cls-20" points="165.87 902.23 165.87 894.26 178.08 902.23 178.08 893.96 178.08 885.69 165.87 893.66 165.87 885.69 160.78 885.69 160.78 902.23 165.87 902.23"/><polygon class="cls-20" points="276.28 1031.93 288.96 1023.66 276.28 1015.4 276.28 1031.93"/><rect class="cls-20" x="293.99" y="1015.83" width="5.08" height="16.1"/><rect class="cls-20" x="302.27" y="1015.83" width="5.08" height="16.1"/><polygon class="cls-20" points="392.63 901.49 405.31 893.22 392.63 884.95 392.63 901.49"/><polygon class="cls-20" points="417.53 884.95 417.53 892.92 405.31 884.95 405.31 893.22 405.31 901.49 417.53 893.52 417.53 901.49 422.61 901.49 422.61 884.95 417.53 884.95"/><rect class="cls-21" x="99.13" y="373.15" width="385.38" height="287.93"/><rect class="cls-22" x="99.13" y="373.15" width="385.38" height="20.25"/><rect class="cls-23" x="123.42" y="418.18" width="148.57" height="148.57" rx="25.93"/><rect class="cls-24" x="291.82" y="434.26" width="147.67" height="23.48" rx="8.39"/><rect class="cls-25" x="291.82" y="465.39" width="130.8" height="9.27" rx="4.63"/><rect class="cls-25" x="291.82" y="482.94" width="130.8" height="9.27" rx="4.63"/><rect class="cls-25" x="291.82" y="501.24" width="130.8" height="9.27" rx="4.63"/><path class="cls-25" d="M457.1,607.3a2.1,2.1,0,0,1,2.11,2.07V622.3a2.1,2.1,0,0,1-2.11,2.07h-203V607.3h203m0-1h-204v19.09h204a3.1,3.1,0,0,0,3.12-3.08V609.37a3.1,3.1,0,0,0-3.12-3.08Z"/><path class="cls-26" d="M126.5,606.29a3.08,3.08,0,0,0-3.08,3.08V622.3a3.08,3.08,0,0,0,3.08,3.08H256V606.29Z"/><g id="headphones"><path class="cls-1" d="M981.79,500l1.69-.4-6.4-27.11,5.2-1.22L968.52,413,964,414.07l-11.06-46.85-1.66.4-.14-.6-3.9-16.53a2.45,2.45,0,0,0-2.93-1.81l-7.69,1.82a2.43,2.43,0,0,0-1.81,2.93l3.9,16.53c.05.2.14.59.14.59l-1.66.39,11.05,46.84-4.57,1.08,13.76,58.32,5.2-1.22,6.4,27.11,2.07-.49c6.67,25.19,19.51,86,9.9,152a235.1,235.1,0,0,0-17.68-71.13,263.8,263.8,0,0,0-19.16-36.14,271.76,271.76,0,0,0-10.58-25.6c-15.78-32.93-34.72-51-56.3-53.63-9.9-1.22-19.6.82-28.92,4.83a64.81,64.81,0,0,0-7.24-.06c-37.51,1.74-72.71,36-99.2,96.47,3.89-25,7.08-50.76,9.13-74.6a897.25,897.25,0,0,0,.06-152.54h14.87V244.7s-1.29-26.07-.26-49.34c29.4-6.14,51.46-31.63,51.46-62.15C817.13,98.1,788,69.65,752,69.65s-65.13,28.45-65.13,63.56c0,25,14.81,46.64,36.33,57L725,244.7h.13v97.52h16.79l-1.87.16a886.31,886.31,0,0,1,0,151.43c-4,46.72-12.44,101-22,141.57-1.34,5.68-2.65,10.9-3.92,15.7-3.21,9-6.22,18.57-8.88,28.66-9.58,25.8-15.87,26.15-16,26.15h0c-.5,0-12.5-1.2-26.08-77.75-7.92-44.67-13.38-98.07-15.84-133.14a1083.37,1083.37,0,0,1,0-151.6l-1.08-.07h14.51V245.8h0q-.29-32.91-.56-65.84a133.7,133.7,0,0,0-4.24-33.05s-1-3.92-2.21-7.71c-7-21.76-39.07-56.39-46.1-63.79-.45-.51-.87-1-1.28-1.34l0,0h0q-.71-.66-1.29-1.14c-1.95-1.59-7.77-6.35-16.06-6.48-6.49-.1-11.25,2.67-14.34,4.54C567,75.58,562.1,82.3,558.73,89.49l0,.05a25.13,25.13,0,0,0-2,4.83,94.1,94.1,0,0,0-3.59,12.52v0c0,.07,0,.14,0,.21-.6,2.72-1.09,5.3-1.52,7.64a111.44,111.44,0,0,0-1.25,22.6v.13c.41,19.56,4.28,27.16,5.54,29.47v0a72.74,72.74,0,0,0,4.66,10.25c3.61,6.51,7.5,10.72,12.77,13,4.76,1.6,11.2,2.85,17.73.73h0a57.84,57.84,0,0,0,11-4.84c9.49-5.43,12.51-10.8,15.82-9.89,4.23,1.16,4.85,11.48,5.08,15.82.58,11,.76,19.42.59,22.57-.41,7.44-.79,18-.61,31.12h0v97.53h13.39a1095.4,1095.4,0,0,0,0,152.44c2.48,35.36,8,89.2,16,134.29,10.92,61.6,21.58,80.15,30.51,85.17a231.79,231.79,0,0,0-2.58,58.23c1.77,21.3,5.06,60.95,26.17,86.59,16.22,19.71,44,31.84,78.26,34.16q6,.42,12.13.41c27.49,0,55.69-6.15,79-17.4,23.12-11.18,43.41-28.35,60.3-51.05,15.87-21.33,28-46.41,35.9-74.53a268,268,0,0,0,8.88-47.4C1008.11,619.36,990.28,532.24,981.79,500Zm-105.91-21c14.88,1.84,27.17,13.24,37.14,28.42-13.2-13.37-26.81-23-40.43-28.66C873.69,478.85,874.78,478.93,875.88,479.06Zm-51.32,8.34c-10.71,8.21-20.54,17.76-29.11,26.08-5,4.91-20.12,19.56-40.91,54.55C774.51,524.65,798.81,496.8,824.56,487.4ZM705.16,783.3a145.92,145.92,0,0,1-.65-27C704.51,765.26,704.62,774.34,705.16,783.3Zm165.79,84c-21.54,10.41-48.37,16.22-74.31,16.21-32.89,0-64.34-9.33-81.74-30.46-18.91-23-22-60.39-23.68-80.49a220.56,220.56,0,0,1,2.61-56.44,15.54,15.54,0,0,0,4.29-2.48q-1,6.23-1.74,12.66c-3.82,32.42-7.12,60.42,7.43,92,12,26.13,29,45.37,47.91,54.19,26.37,12.33,61,7.13,100.3-15,1.11-.62,2.22-1.26,3.33-1.91a226.78,226.78,0,0,0,32.75-18.15c25.37-17,46.25-38.25,60.41-61.59a161,161,0,0,0,11.71-23.38C944.2,805.82,911.82,847.54,871,867.29Zm80.41-122.4a227.56,227.56,0,0,1-22.71,33.54c-21.09,25.88-50.34,50.93-78.82,67.61a182.3,182.3,0,0,1-39.46,12.57c-28.24,5.43-52.46,1.89-68.19-10-26.93-20.31-26.77-63.31-26.62-101.25.13-33.41,5.11-70.51,13.79-105.75,11-27.52,23.66-49.14,32.95-65,20.94-35.87,35.92-50.42,40.84-55.21,13.26-12.88,29.81-29,47.09-37.19,14.95,1.67,35.41,9.83,58.76,35a233.16,233.16,0,0,1,25.14,33c5.89,16.59,9.89,32,12.25,41.1,6.1,23.47,13.69,52.68,14.94,83.47C962.35,701.83,959.07,724.34,951.36,744.89Z"/><path class="cls-27" d="M951.09,352l-3.9-16.53a2.43,2.43,0,0,0-2.93-1.81l-7.69,1.82a2.43,2.43,0,0,0-1.81,2.92l3.9,16.53.14.6-1.66.39,11.73,49.71,15.75-3.72-11.73-49.71-1.66.39Z"/><line class="cls-28" x1="937.89" y1="359.12" x2="953.65" y2="355.41"/><line class="cls-29" x1="941.28" y1="373.48" x2="957.03" y2="369.76"/><ellipse class="cls-30" cx="752" cy="118.2" rx="65.13" ry="63.56"/><path class="cls-31" d="M722.4,150.31,725,229.69h41s-4.1-83,8.19-85"/><rect class="cls-32" x="725.09" y="229.69" width="40.84" height="97.52"/><path class="cls-33" d="M689.32,701.91H689c-9.94-.25-23.09-10.35-36.66-86.85-8-45.09-13.5-98.93-16-134.29a1093.28,1093.28,0,0,1,0-153.15l11,.78a1083.37,1083.37,0,0,0,0,151.6c2.46,35.07,7.92,88.47,15.84,133.14,13.58,76.55,25.58,77.74,26.08,77.75h0c.18,0,12.38-.68,28.8-70.51,9.54-40.6,18-94.85,22-141.57a886.31,886.31,0,0,0,0-151.43l11-.94a898.05,898.05,0,0,1,0,153.31c-4.06,47.22-12.58,102.07-22.24,143.15C712.23,693.23,698.39,701.91,689.32,701.91Z"/><path class="cls-31" d="M622.89,177.1c.58,11,.76,19.41.59,22.57-.41,7.44-.79,18-.61,31.12h37.87q-.29-32.92-.56-65.84a133.63,133.63,0,0,0-4.24-33s-1-3.92-2.21-7.71c-7.63-23.84-45.42-63.11-47.4-65.15a229.21,229.21,0,0,1,1.86,33.69A234.24,234.24,0,0,1,591,176a57.61,57.61,0,0,0,11-4.84c9.49-5.43,12.51-10.8,15.82-9.89C622,162.44,622.66,172.76,622.89,177.1Z"/><rect class="cls-32" x="622.87" y="230.79" width="37.87" height="97.52"/><path class="cls-34" d="M617.39,99.41c0,12.72.22,68-26.4,76.6-6.53,2.11-13,.87-17.73-.73-5.27-2.32-9.16-6.53-12.77-13-15.45-27.85-9-62.47-9-62.47,2.44-13,6.3-33.62,23.11-43.81,3.09-1.87,7.85-4.64,14.34-4.54,8.29.13,14.11,4.89,16.06,6.48C608.88,61,617.3,69.82,617.39,99.41Z"/><circle class="cls-35" cx="722.86" cy="76.27" r="2.01"/><circle class="cls-35" cx="737.98" cy="69.43" r="2.01"/><circle class="cls-35" cx="754.01" cy="67.42" r="2.01"/><circle class="cls-35" cx="770.89" cy="69.43" r="2.01"/><circle class="cls-35" cx="785.97" cy="77.28" r="2.01"/><path class="cls-32" d="M558.7,74.53c1.25-2.19,4.08-7.12,9.48-8.5a7.33,7.33,0,0,1,3.07-.32c2.72.41,5.72,2.94,9.22,12.58a86,86,0,0,1,4.71,21.26,110.28,110.28,0,0,1-.46,26.55,91.56,91.56,0,0,1-3.91,16.41c-3.27,10.21-5.86,13.14-8.39,14.93-1.39,1-4.34,3.07-8,2.51-2.7-.4-5.49-2.38-8.55-8-1.26-2.31-5.13-9.91-5.54-29.47,0,0-.35-16.42,2.81-30.59,1-4.41,2.44-9,2.6-9.49C557,78.42,557.61,76.42,558.7,74.53Z"/><path class="cls-36" d="M796.78,879.61q-6.09,0-12.13-.41c-34.24-2.32-62-14.46-78.26-34.16-21.11-25.64-24.4-65.29-26.17-86.59a232.82,232.82,0,0,1,3.45-63.1l10.83,2.09a221.23,221.23,0,0,0-3.28,60.1c1.66,20.1,4.77,57.51,23.68,80.49,17.4,21.13,48.85,30.46,81.74,30.46,25.94,0,52.78-5.8,74.31-16.21,40.87-19.75,73.25-61.47,89.27-114.82a161,161,0,0,1-11.71,23.38c-14.16,23.34-35,44.63-60.41,61.59a226.78,226.78,0,0,1-32.75,18.15c-1.11.65-2.22,1.29-3.33,1.91-39.25,22.15-73.93,27.34-100.3,15-18.88-8.82-35.89-28.07-47.91-54.19-14.55-31.62-11.25-59.62-7.43-92a346.48,346.48,0,0,1,22-86.58,438.09,438.09,0,0,1,23-69.26c26.55-61.16,62-95.81,99.69-97.57a64.82,64.82,0,0,1,7.24.07c9.32-4,19-6.05,28.92-4.83,21.58,2.66,40.52,20.7,56.3,53.62a273,273,0,0,1,10.58,25.61,263.22,263.22,0,0,1,19.16,36.14A235.1,235.1,0,0,1,981,639.61c9.75-67-3.61-128.65-10.19-153.15l10.65-2.86c8.32,31,27.12,119.46-.58,205.63a268,268,0,0,1-8.88,47.4c-8,28.12-20,53.2-35.9,74.53-16.89,22.7-37.18,39.87-60.3,51.05C852.47,873.46,824.27,879.61,796.78,879.61Zm-67.43-253c-8.68,35.25-13.66,72.34-13.79,105.76-.15,37.94-.31,80.94,26.62,101.25,15.73,11.85,40,15.4,68.19,10A182.3,182.3,0,0,0,849.83,831c28.48-16.68,57.73-41.74,78.82-67.61a228.09,228.09,0,0,0,22.71-33.54c7.71-20.55,11-43.06,10-68.12-1.25-30.79-8.84-60-14.94-83.47-2.36-9.11-6.36-24.51-12.25-41.11a234.34,234.34,0,0,0-25.13-33c-23.36-25.19-43.82-33.35-58.77-35-17.28,8.23-33.83,24.31-47.09,37.2-4.92,4.79-19.9,19.34-40.84,55.2C753,577.49,740.39,599.11,729.35,626.62Zm-24.84,114.7a146,146,0,0,0,.65,27C704.62,759.33,704.51,750.25,704.51,741.32Zm120-268.94c-25.75,9.41-50,37.26-70,80.64,20.79-35,35.87-49.64,40.91-54.55C804,490.15,813.85,480.6,824.56,472.38Zm48-8.58c13.62,5.67,27.23,15.29,40.43,28.67-10-15.18-22.26-26.58-37.14-28.42C874.78,463.92,873.69,463.84,872.59,463.8Z"/><rect class="cls-32" x="965.43" y="457.58" width="14.9" height="29.15" transform="translate(-82.43 236.07) rotate(-13.28)"/><rect class="cls-31" x="950.16" y="400.11" width="25.59" height="59.92" transform="translate(-73.03 232.66) rotate(-13.28)"/></g></g></svg>