<svg enable-background="new 0 0 512 512" viewBox="0 0 512 512" xmlns="http://www.w3.org/2000/svg"><g fill="#fff"><path d="m236.2 141.6c9.6 13.3 14.3 29.1 14.3 47.6 0 19-4.8 34.3-14.4 45.8-5.4 6.5-13.3 12.4-23.8 17.7 15.9 5.8 27.9 14.9 35.9 27.5 8.1 12.6 12.1 27.8 12.1 45.6 0 18.4-4.6 35-13.9 49.6-5.9 9.7-13.3 17.9-22 24.5-10 7.6-21.7 12.9-35.2 15.7s-28.2 4.2-44 4.2h-140.1v-311.4h150.5c37.9.5 64.9 11.5 80.6 33.2zm-169 20.9v68.7h75.7c13.5 0 24.5-2.6 32.9-7.7s12.7-14.3 12.7-27.4c0-14.5-5.6-24.1-16.7-28.7-9.6-3.2-21.9-4.8-36.8-4.8h-67.8zm0 120.2v83h75.6c13.5 0 24-1.9 31.5-5.5 13.7-6.8 20.5-19.8 20.5-38.9 0-16.2-6.6-27.3-19.9-33.4-7.4-3.4-17.7-5.1-31.1-5.3z"/><path d="m446.8 194.2c16.1 7.2 29.3 18.5 39.8 34.1 9.5 13.7 15.5 29.6 18.3 47.6 1.6 10.6 2.3 25.8 2 45.7h-167.7c.9 23.1 9 39.3 24.1 48.6 9.2 5.8 20.3 8.6 33.2 8.6 13.7 0 24.8-3.5 33.5-10.6 4.6-3.8 8.9-9.1 12.4-15.9h61.5c-1.6 13.7-9.1 27.5-22.3 41.6-20.6 22.4-49.5 33.6-86.7 33.6-30.7 0-57.7-9.5-81.1-28.3-23.5-18.8-35.1-49.6-35.1-92.3 0-39.8 10.6-70.5 31.7-91.7s48.6-31.9 82.4-31.9c19.8.1 37.9 3.7 54 10.9zm-90.1 52c-8.5 8.8-13.9 20.7-16.1 35.6h103.8c-1.1-16-6.5-28.1-16.1-36.3s-21.5-12.5-35.7-12.5c-15.4 0-27.5 4.4-35.9 13.2z"/><path d="m340.6 122.8h103.8v30.9h-103.8z"/></g></svg>