<?xml version="1.0" encoding="utf-8"?>
<!-- Generator: Adobe Illustrator 22.1.0, SVG Export Plug-In . SVG Version: 6.00 Build 0)  -->
<svg version="1.1" id="Layer_1" xmlns="http://www.w3.org/2000/svg" xmlns:xlink="http://www.w3.org/1999/xlink" x="0px" y="0px"
	 viewBox="0 0 512 512" style="enable-background:new 0 0 512 512;" xml:space="preserve">
<style type="text/css">
	.st0{fill:#FFFFFF;}
</style>
<g>
	<path class="st0" d="M236.2,141.6c9.6,13.3,14.3,29.1,14.3,47.6c0,19-4.8,34.3-14.4,45.8c-5.4,6.5-13.3,12.4-23.8,17.7
		c15.9,5.8,27.9,14.9,35.9,27.5c8.1,12.6,12.1,27.8,12.1,45.6c0,18.4-4.6,35-13.9,49.6c-5.9,9.7-13.3,17.9-22,24.5
		c-10,7.6-21.7,12.9-35.2,15.7c-13.5,2.8-28.2,4.2-44,4.2H5.1V108.4h150.5C193.5,108.9,220.5,119.9,236.2,141.6z M67.2,162.5v68.7
		h75.7c13.5,0,24.5-2.6,32.9-7.7s12.7-14.3,12.7-27.4c0-14.5-5.6-24.1-16.7-28.7c-9.6-3.2-21.9-4.8-36.8-4.8H67.2z M67.2,282.7v83
		h75.6c13.5,0,24-1.9,31.5-5.5c13.7-6.8,20.5-19.8,20.5-38.9c0-16.2-6.6-27.3-19.9-33.4c-7.4-3.4-17.7-5.1-31.1-5.3L67.2,282.7z"/>
	<path class="st0" d="M446.8,194.2c16.1,7.2,29.3,18.5,39.8,34.1c9.5,13.7,15.5,29.6,18.3,47.6c1.6,10.6,2.3,25.8,2,45.7H339.2
		c0.9,23.1,9,39.3,24.1,48.6c9.2,5.8,20.3,8.6,33.2,8.6c13.7,0,24.8-3.5,33.5-10.6c4.6-3.8,8.9-9.1,12.4-15.9h61.5
		c-1.6,13.7-9.1,27.5-22.3,41.6c-20.6,22.4-49.5,33.6-86.7,33.6c-30.7,0-57.7-9.5-81.1-28.3c-23.5-18.8-35.1-49.6-35.1-92.3
		c0-39.8,10.6-70.5,31.7-91.7c21.1-21.2,48.6-31.9,82.4-31.9C412.6,183.4,430.7,187,446.8,194.2L446.8,194.2z M356.7,246.2
		c-8.5,8.8-13.9,20.7-16.1,35.6h103.8c-1.1-16-6.5-28.1-16.1-36.3S406.8,233,392.6,233C377.2,233,365.1,237.4,356.7,246.2
		L356.7,246.2z"/>
</g>
<g>
	<rect x="340.6" y="122.8" class="st0" width="103.8" height="30.9"/>
</g>
</svg>
