<svg enable-background="new 0 0 512 512" viewBox="0 0 512 512" xmlns="http://www.w3.org/2000/svg"><g fill="#fff"><path d="m489 127.2c0-8.9-2.2-17.1-6.2-24.3l-147.9 129.7 146.7 177c4.6-7.7 7.4-16.6 7.4-26.3z"/><path d="m255 266.2 208.4-183c-7.4-4.3-16-6.7-25.1-6.7h-366.6c-9.2 0-17.7 2.4-25.1 6.7z"/><path d="m314.2 250.9-50.1 44c-3.1 2.7-6.4 5.4-9.5 8-2.9-2.7-5.7-5.4-8.6-8l-49.4-43.4-147.1 177.4c6.8 3.3 14.2 5.2 22.3 5.2h366.6c8.3 0 16.2-2 23.1-5.5z"/><path d="m27.3 102.9c-4 7.2-6.3 15.4-6.3 24.3v256.1c0 10 2.9 19.3 7.9 27.2l146.9-177.2z"/></g></svg>