<?xml version="1.0" encoding="utf-8"?>
<!-- Generator: Adobe Illustrator 22.1.0, SVG Export Plug-In . SVG Version: 6.00 Build 0)  -->
<svg version="1.1" id="Layer_1" xmlns="http://www.w3.org/2000/svg" xmlns:xlink="http://www.w3.org/1999/xlink" x="0px" y="0px"
	 viewBox="0 0 512 512" style="enable-background:new 0 0 512 512;" xml:space="preserve">
<style type="text/css">
	.st0{fill:#FFFFFF;}
</style>
<g>
	<path class="st0" d="M489,127.2c0-8.9-2.2-17.1-6.2-24.3L334.9,232.6l146.7,177c4.6-7.7,7.4-16.6,7.4-26.3V127.2z"/>
	<path class="st0" d="M255,266.2l208.4-183c-7.4-4.3-16-6.7-25.1-6.7H71.7c-9.2,0-17.7,2.4-25.1,6.7L255,266.2z"/>
	<path class="st0" d="M314.2,250.9l-50.1,44c-3.1,2.7-6.4,5.4-9.5,8c-2.9-2.7-5.7-5.4-8.6-8l-49.4-43.4L49.5,428.9
		c6.8,3.3,14.2,5.2,22.3,5.2h366.6c8.3,0,16.2-2,23.1-5.5L314.2,250.9z"/>
	<path class="st0" d="M27.3,102.9c-4,7.2-6.3,15.4-6.3,24.3v256.1c0,10,2.9,19.3,7.9,27.2l146.9-177.2L27.3,102.9z"/>
</g>
</svg>
