<svg xmlns="http://www.w3.org/2000/svg" viewBox="0 0 1200 1200"><defs><style>.b2e4574a-d03b-4109-99ae-42e549967640,.b58d601e-e96b-46a8-8108-fa0750d5de19,.e2f75fb4-d8b5-47da-8ed5-c2221330c3d2{fill:#302d2e;}.e2f75fb4-d8b5-47da-8ed5-c2221330c3d2{opacity:0.15;}.a20b83b2-ecc2-41de-9979-447998c68648{fill:#6d6767;stroke:#302d2e;stroke-width:0.9px;}.a20b83b2-ecc2-41de-9979-447998c68648,.a45cf7f5-d29d-4e83-b4d2-82725e0c8493,.ad5bdbbf-71ad-4076-b155-a31b170694c3,.aed76bcc-e9ee-43ff-a496-f6c7e2e97c5e,.b0e07a2e-5e97-4b4e-9413-28cf5dcca696,.b433412c-3002-454e-add1-647832ef7127,.b5137758-2ed3-42d9-9879-ff8a4815077c,.b58d601e-e96b-46a8-8108-fa0750d5de19,.b5de2db4-bd61-4ace-8a30-32d230ab92f7,.b8259dba-090c-408b-bf81-92e48dbaec8a{stroke-miterlimit:10;}.a20b83b2-ecc2-41de-9979-447998c68648,.b0e07a2e-5e97-4b4e-9413-28cf5dcca696,.b433412c-3002-454e-add1-647832ef7127,.b58d601e-e96b-46a8-8108-fa0750d5de19,.b5de2db4-bd61-4ace-8a30-32d230ab92f7{opacity:0.24;}.b9d424c3-1b7f-459b-915e-0357b07e343b{fill:#fff;}.ae12c6c9-0151-4f04-b3d0-e492214c7e22{opacity:0.02;}.b58d601e-e96b-46a8-8108-fa0750d5de19{stroke:#6d6767;stroke-width:8.3px;}.a45cf7f5-d29d-4e83-b4d2-82725e0c8493,.aed76bcc-e9ee-43ff-a496-f6c7e2e97c5e,.b0e07a2e-5e97-4b4e-9413-28cf5dcca696,.b433412c-3002-454e-add1-647832ef7127,.b5137758-2ed3-42d9-9879-ff8a4815077c,.b58d601e-e96b-46a8-8108-fa0750d5de19,.b5de2db4-bd61-4ace-8a30-32d230ab92f7{stroke-linecap:round;}.a45cf7f5-d29d-4e83-b4d2-82725e0c8493,.aed76bcc-e9ee-43ff-a496-f6c7e2e97c5e,.b0e07a2e-5e97-4b4e-9413-28cf5dcca696,.b433412c-3002-454e-add1-647832ef7127,.b5137758-2ed3-42d9-9879-ff8a4815077c,.b5de2db4-bd61-4ace-8a30-32d230ab92f7,.b8259dba-090c-408b-bf81-92e48dbaec8a{fill:none;}.b5137758-2ed3-42d9-9879-ff8a4815077c{stroke:#f5876c;stroke-width:23.13px;}.b5137758-2ed3-42d9-9879-ff8a4815077c,.b6da0863-a355-4ace-90a5-69b3f7bc3252{opacity:0.7;}.a45cf7f5-d29d-4e83-b4d2-82725e0c8493,.b0e07a2e-5e97-4b4e-9413-28cf5dcca696,.b433412c-3002-454e-add1-647832ef7127,.b5de2db4-bd61-4ace-8a30-32d230ab92f7{stroke:#000;}.a45cf7f5-d29d-4e83-b4d2-82725e0c8493,.b0e07a2e-5e97-4b4e-9413-28cf5dcca696{stroke-width:15.56px;}.a45cf7f5-d29d-4e83-b4d2-82725e0c8493{opacity:0.54;}.b433412c-3002-454e-add1-647832ef7127{stroke-width:6.22px;}.b5de2db4-bd61-4ace-8a30-32d230ab92f7{stroke-width:4.15px;}.b6da0863-a355-4ace-90a5-69b3f7bc3252,.bd863c81-1859-43f4-af07-0d5d00235e9c{fill:#f5876c;}.eae0afc7-98b0-41b6-886b-aff3ab6a284b{fill:#ffe187;}.b0bfe0c2-8a9c-4af1-8608-7c8a7951b517{fill:#f6d882;}.b8259dba-090c-408b-bf81-92e48dbaec8a{stroke:#fff;stroke-width:3.93px;}.b68b54b2-41c4-4eab-860a-2a0857146a38{fill:#a9abae;}.b6f84184-55f0-49a3-825b-9937e140567a{fill:#b6b8ba;}.fb3cbea8-c8fa-422d-a3d9-d9d71f75e516{fill:#414042;}.abba01c5-3af5-4adc-95d3-02e71f277678{fill:#c49952;}.aed76bcc-e9ee-43ff-a496-f6c7e2e97c5e{stroke:#9c7e47;stroke-width:6.36px;opacity:0.5;}.a41849e9-9d51-444b-94db-7dec5b1041a2{fill:#fdbb5d;}.f866b5b8-fcf9-4a9a-8b09-df24955f335a{fill:#948064;opacity:0.1;}.e97abe2e-cbb9-4d63-a66b-9160d44c347c{fill:#735e3f;}.ad5bdbbf-71ad-4076-b155-a31b170694c3{fill:#e8dfd3;stroke:#e8dfd3;stroke-width:1.31px;}.f22ba4cd-4053-4a55-877a-f3fd7ea87eef{fill:#fec77c;}.a960adc2-7073-4b07-8d69-7d5870ae6edf{fill:#ffd499;}</style></defs><title>portfolio-icons</title><g id="bae58760-e1e7-4c9e-b761-bffc60b463ad" data-name="fdk-icon"><g id="ffe9cbfd-ec56-471f-9b45-b43cc6626d4e" data-name="iphone"><rect class="e2f75fb4-d8b5-47da-8ed5-c2221330c3d2" x="66.08" y="207.02" width="434.61" height="930.56" rx="39.39"/><rect class="b2e4574a-d03b-4109-99ae-42e549967640" x="66.08" y="186.75" width="434.61" height="930.56" rx="39.39"/><ellipse class="a20b83b2-ecc2-41de-9979-447998c68648" cx="283.38" cy="1072.46" rx="33.3" ry="34.73"/><rect class="a20b83b2-ecc2-41de-9979-447998c68648" x="85.28" y="271.2" width="397.49" height="749.63"/><rect class="b9d424c3-1b7f-459b-915e-0357b07e343b" x="97.38" y="284.92" width="373.3" height="722.19"/><rect class="ae12c6c9-0151-4f04-b3d0-e492214c7e22" x="97.38" y="388.69" width="373.3" height="185.79"/><line class="b58d601e-e96b-46a8-8108-fa0750d5de19" x1="250.09" y1="235.9" x2="308.26" y2="235.9"/><line class="b5137758-2ed3-42d9-9879-ff8a4815077c" x1="260.08" y1="545.07" x2="316.2" y2="545.07"/><line class="a45cf7f5-d29d-4e83-b4d2-82725e0c8493" x1="413.41" y1="327.32" x2="452.42" y2="327.32"/><line class="b0e07a2e-5e97-4b4e-9413-28cf5dcca696" x1="339.04" y1="327.32" x2="378.05" y2="327.32"/><line class="b0e07a2e-5e97-4b4e-9413-28cf5dcca696" x1="261.7" y1="327.32" x2="300.71" y2="327.32"/><line class="b433412c-3002-454e-add1-647832ef7127" x1="183.48" y1="507.04" x2="392.8" y2="507.04"/><line class="b433412c-3002-454e-add1-647832ef7127" x1="183.48" y1="481.58" x2="392.8" y2="481.58"/><line class="b5de2db4-bd61-4ace-8a30-32d230ab92f7" x1="117.52" y1="741.47" x2="326.84" y2="741.47"/><line class="b5de2db4-bd61-4ace-8a30-32d230ab92f7" x1="117.52" y1="716.01" x2="326.84" y2="716.01"/><line class="b5de2db4-bd61-4ace-8a30-32d230ab92f7" x1="117.52" y1="754.2" x2="253.69" y2="754.2"/><line class="b5de2db4-bd61-4ace-8a30-32d230ab92f7" x1="117.52" y1="728.74" x2="326.84" y2="728.74"/><line class="b5de2db4-bd61-4ace-8a30-32d230ab92f7" x1="238.84" y1="642.83" x2="448.15" y2="642.83"/><line class="b5de2db4-bd61-4ace-8a30-32d230ab92f7" x1="238.84" y1="617.37" x2="448.15" y2="617.37"/><line class="b5de2db4-bd61-4ace-8a30-32d230ab92f7" x1="238.84" y1="655.56" x2="375.01" y2="655.56"/><line class="b5de2db4-bd61-4ace-8a30-32d230ab92f7" x1="238.84" y1="630.1" x2="448.15" y2="630.1"/><rect class="b6da0863-a355-4ace-90a5-69b3f7bc3252" x="117.52" y="605.68" width="75.44" height="59.67"/><line class="b5de2db4-bd61-4ace-8a30-32d230ab92f7" x1="238.84" y1="848.96" x2="448.15" y2="848.96"/><line class="b5de2db4-bd61-4ace-8a30-32d230ab92f7" x1="238.84" y1="823.5" x2="448.15" y2="823.5"/><line class="b5de2db4-bd61-4ace-8a30-32d230ab92f7" x1="238.84" y1="861.7" x2="375.01" y2="861.7"/><line class="b5de2db4-bd61-4ace-8a30-32d230ab92f7" x1="238.84" y1="836.23" x2="448.15" y2="836.23"/><rect class="b6da0863-a355-4ace-90a5-69b3f7bc3252" x="117.52" y="811.81" width="75.44" height="59.67"/><rect class="b6da0863-a355-4ace-90a5-69b3f7bc3252" x="375.01" y="706.36" width="75.44" height="59.67"/><ellipse class="b6da0863-a355-4ace-90a5-69b3f7bc3252" cx="155.24" cy="947.49" rx="24.77" ry="25.83"/><line class="b5de2db4-bd61-4ace-8a30-32d230ab92f7" x1="219.54" y1="941.12" x2="428.86" y2="941.12"/><line class="b5de2db4-bd61-4ace-8a30-32d230ab92f7" x1="219.54" y1="953.86" x2="390.26" y2="953.86"/><path class="bd863c81-1859-43f4-af07-0d5d00235e9c" d="M117.81,310.11v34.42a5.22,5.22,0,0,0,5.22,5.22h4.51a5.22,5.22,0,0,0,5.22-5.22V340A5.23,5.23,0,0,1,138,334.8h4.5a5.23,5.23,0,0,0,5.23-5.23v-4.5a5.23,5.23,0,0,1,5.22-5.23h4.5a5.23,5.23,0,0,0,5.23-5.22v-4.51a5.23,5.23,0,0,0-5.23-5.22H123A5.22,5.22,0,0,0,117.81,310.11Z"/><rect class="bd863c81-1859-43f4-af07-0d5d00235e9c" x="147.72" y="334.8" width="14.95" height="14.95" rx="5.01"/></g><g id="a13eb647-6795-4b14-b2ac-d1800a822aad" data-name="ruler"><polygon class="e2f75fb4-d8b5-47da-8ed5-c2221330c3d2" points="1052.24 1129.92 954.57 1129.92 954.57 1149 1052.24 1149 1149.91 1149 1149.91 1129.92 1052.24 1129.92"/><rect class="eae0afc7-98b0-41b6-886b-aff3ab6a284b" x="954.57" y="51" width="97.67" height="1078.92"/><rect class="b0bfe0c2-8a9c-4af1-8608-7c8a7951b517" x="1052.24" y="51" width="97.67" height="1078.92"/><line class="b8259dba-090c-408b-bf81-92e48dbaec8a" x1="954.57" y1="113.59" x2="991.71" y2="113.59"/><line class="b8259dba-090c-408b-bf81-92e48dbaec8a" x1="954.57" y1="160.76" x2="991.71" y2="160.76"/><line class="b8259dba-090c-408b-bf81-92e48dbaec8a" x1="954.57" y1="207.93" x2="991.71" y2="207.93"/><line class="b8259dba-090c-408b-bf81-92e48dbaec8a" x1="954.57" y1="255.09" x2="1012.93" y2="255.09"/><line class="b8259dba-090c-408b-bf81-92e48dbaec8a" x1="954.57" y1="302.26" x2="991.71" y2="302.26"/><line class="b8259dba-090c-408b-bf81-92e48dbaec8a" x1="954.57" y1="349.42" x2="991.71" y2="349.42"/><line class="b8259dba-090c-408b-bf81-92e48dbaec8a" x1="954.57" y1="396.59" x2="991.71" y2="396.59"/><line class="b8259dba-090c-408b-bf81-92e48dbaec8a" x1="954.57" y1="443.76" x2="1012.93" y2="443.76"/><line class="b8259dba-090c-408b-bf81-92e48dbaec8a" x1="954.57" y1="490.92" x2="991.71" y2="490.92"/><line class="b8259dba-090c-408b-bf81-92e48dbaec8a" x1="954.57" y1="538.09" x2="991.71" y2="538.09"/><line class="b8259dba-090c-408b-bf81-92e48dbaec8a" x1="954.57" y1="585.25" x2="991.71" y2="585.25"/><line class="b8259dba-090c-408b-bf81-92e48dbaec8a" x1="954.57" y1="632.42" x2="1012.93" y2="632.42"/><line class="b8259dba-090c-408b-bf81-92e48dbaec8a" x1="954.57" y1="679.59" x2="991.71" y2="679.59"/><line class="b8259dba-090c-408b-bf81-92e48dbaec8a" x1="954.57" y1="726.75" x2="991.71" y2="726.75"/><line class="b8259dba-090c-408b-bf81-92e48dbaec8a" x1="954.57" y1="773.92" x2="991.71" y2="773.92"/><line class="b8259dba-090c-408b-bf81-92e48dbaec8a" x1="954.57" y1="821.08" x2="1012.93" y2="821.08"/><line class="b8259dba-090c-408b-bf81-92e48dbaec8a" x1="954.57" y1="868.25" x2="991.71" y2="868.25"/><line class="b8259dba-090c-408b-bf81-92e48dbaec8a" x1="954.57" y1="915.41" x2="991.71" y2="915.41"/><line class="b8259dba-090c-408b-bf81-92e48dbaec8a" x1="954.57" y1="962.58" x2="991.71" y2="962.58"/><line class="b8259dba-090c-408b-bf81-92e48dbaec8a" x1="954.57" y1="1009.75" x2="1012.93" y2="1009.75"/><line class="b8259dba-090c-408b-bf81-92e48dbaec8a" x1="954.57" y1="1056.91" x2="991.71" y2="1056.91"/></g><path class="e2f75fb4-d8b5-47da-8ed5-c2221330c3d2" d="M885.58,205.77H864.19v-3a52.9,52.9,0,0,0-52.9-52.9V452.91h39.94a13,13,0,0,0,13-13V232.34h8.11V535a13.29,13.29,0,1,0,26.57,0V219.05A13.28,13.28,0,0,0,885.58,205.77Z"/><path class="e2f75fb4-d8b5-47da-8ed5-c2221330c3d2" d="M811.29,1144.51a48.59,48.59,0,0,0,48.59-48.59V288.07H811.29v856.44Z"/><path class="e2f75fb4-d8b5-47da-8ed5-c2221330c3d2" d="M762.7,1095.92a48.59,48.59,0,0,0,48.59,48.59V288.07H762.7Z"/><path class="b68b54b2-41c4-4eab-860a-2a0857146a38" d="M811.29,1128a48.59,48.59,0,0,0,48.59-48.58V271.55H811.29V1128Z"/><path class="b6f84184-55f0-49a3-825b-9937e140567a" d="M762.7,1079.4A48.59,48.59,0,0,0,811.29,1128V271.55H762.7Z"/><path class="fb3cbea8-c8fa-422d-a3d9-d9d71f75e516" d="M758.39,189.45V426.64a13,13,0,0,0,13,13h39.94v-303A52.89,52.89,0,0,0,758.39,189.45Z"/><path class="b2e4574a-d03b-4109-99ae-42e549967640" d="M885.58,192.45H864.19v-3a52.9,52.9,0,0,0-52.9-52.9V439.6h39.94a13,13,0,0,0,13-13V219h8.11V521.69a13.29,13.29,0,1,0,26.57,0v-316A13.29,13.29,0,0,0,885.58,192.45Z"/><rect class="e2f75fb4-d8b5-47da-8ed5-c2221330c3d2" x="575.34" y="396" width="150.73" height="150.73" rx="13.75" transform="translate(106.85 -120.1) rotate(11.48)"/><rect class="abba01c5-3af5-4adc-95d3-02e71f277678" x="575.34" y="391.5" width="150.73" height="150.73" rx="13.75" transform="translate(105.96 -120.19) rotate(11.48)"/><line class="aed76bcc-e9ee-43ff-a496-f6c7e2e97c5e" x1="599.21" y1="393.76" x2="608.97" y2="395.74"/><line class="aed76bcc-e9ee-43ff-a496-f6c7e2e97c5e" x1="595.73" y1="410.92" x2="605.48" y2="412.9"/><line class="aed76bcc-e9ee-43ff-a496-f6c7e2e97c5e" x1="592.23" y1="428.15" x2="601.98" y2="430.13"/><line class="aed76bcc-e9ee-43ff-a496-f6c7e2e97c5e" x1="588.74" y1="445.31" x2="598.5" y2="447.29"/><line class="aed76bcc-e9ee-43ff-a496-f6c7e2e97c5e" x1="585.24" y1="462.53" x2="595" y2="464.51"/><line class="aed76bcc-e9ee-43ff-a496-f6c7e2e97c5e" x1="581.76" y1="479.69" x2="591.51" y2="481.67"/><line class="aed76bcc-e9ee-43ff-a496-f6c7e2e97c5e" x1="578.26" y1="496.92" x2="588.01" y2="498.9"/><line class="aed76bcc-e9ee-43ff-a496-f6c7e2e97c5e" x1="574.77" y1="514.08" x2="584.53" y2="516.06"/><line class="aed76bcc-e9ee-43ff-a496-f6c7e2e97c5e" x1="618.73" y1="397.73" x2="628.48" y2="399.71"/><line class="aed76bcc-e9ee-43ff-a496-f6c7e2e97c5e" x1="615.25" y1="414.89" x2="625" y2="416.87"/><line class="aed76bcc-e9ee-43ff-a496-f6c7e2e97c5e" x1="611.75" y1="432.11" x2="621.5" y2="434.09"/><line class="aed76bcc-e9ee-43ff-a496-f6c7e2e97c5e" x1="608.26" y1="449.27" x2="618.01" y2="451.25"/><line class="aed76bcc-e9ee-43ff-a496-f6c7e2e97c5e" x1="604.76" y1="466.5" x2="614.52" y2="468.48"/><line class="aed76bcc-e9ee-43ff-a496-f6c7e2e97c5e" x1="601.28" y1="483.66" x2="611.03" y2="485.64"/><line class="aed76bcc-e9ee-43ff-a496-f6c7e2e97c5e" x1="597.78" y1="500.88" x2="607.53" y2="502.86"/><line class="aed76bcc-e9ee-43ff-a496-f6c7e2e97c5e" x1="594.29" y1="518.04" x2="604.05" y2="520.02"/><line class="aed76bcc-e9ee-43ff-a496-f6c7e2e97c5e" x1="637.81" y1="401.6" x2="647.57" y2="403.58"/><line class="aed76bcc-e9ee-43ff-a496-f6c7e2e97c5e" x1="634.33" y1="418.76" x2="644.08" y2="420.74"/><line class="aed76bcc-e9ee-43ff-a496-f6c7e2e97c5e" x1="630.83" y1="435.99" x2="640.58" y2="437.97"/><line class="aed76bcc-e9ee-43ff-a496-f6c7e2e97c5e" x1="627.34" y1="453.15" x2="637.1" y2="455.13"/><line class="aed76bcc-e9ee-43ff-a496-f6c7e2e97c5e" x1="623.85" y1="470.37" x2="633.6" y2="472.35"/><line class="aed76bcc-e9ee-43ff-a496-f6c7e2e97c5e" x1="620.36" y1="487.53" x2="630.11" y2="489.51"/><line class="aed76bcc-e9ee-43ff-a496-f6c7e2e97c5e" x1="616.86" y1="504.76" x2="626.61" y2="506.74"/><line class="aed76bcc-e9ee-43ff-a496-f6c7e2e97c5e" x1="613.38" y1="521.92" x2="623.13" y2="523.9"/><line class="aed76bcc-e9ee-43ff-a496-f6c7e2e97c5e" x1="657.33" y1="405.57" x2="667.09" y2="407.55"/><line class="aed76bcc-e9ee-43ff-a496-f6c7e2e97c5e" x1="653.85" y1="422.73" x2="663.6" y2="424.71"/><line class="aed76bcc-e9ee-43ff-a496-f6c7e2e97c5e" x1="650.35" y1="439.95" x2="660.1" y2="441.93"/><line class="aed76bcc-e9ee-43ff-a496-f6c7e2e97c5e" x1="646.86" y1="457.11" x2="656.62" y2="459.09"/><line class="aed76bcc-e9ee-43ff-a496-f6c7e2e97c5e" x1="643.36" y1="474.34" x2="653.12" y2="476.32"/><line class="aed76bcc-e9ee-43ff-a496-f6c7e2e97c5e" x1="639.88" y1="491.5" x2="649.63" y2="493.48"/><line class="aed76bcc-e9ee-43ff-a496-f6c7e2e97c5e" x1="636.38" y1="508.72" x2="646.13" y2="510.7"/><line class="aed76bcc-e9ee-43ff-a496-f6c7e2e97c5e" x1="632.89" y1="525.88" x2="642.65" y2="527.86"/><line class="aed76bcc-e9ee-43ff-a496-f6c7e2e97c5e" x1="677.11" y1="409.58" x2="686.86" y2="411.57"/><line class="aed76bcc-e9ee-43ff-a496-f6c7e2e97c5e" x1="673.62" y1="426.74" x2="683.37" y2="428.73"/><line class="aed76bcc-e9ee-43ff-a496-f6c7e2e97c5e" x1="670.12" y1="443.97" x2="679.88" y2="445.95"/><line class="aed76bcc-e9ee-43ff-a496-f6c7e2e97c5e" x1="666.64" y1="461.13" x2="676.39" y2="463.11"/><line class="aed76bcc-e9ee-43ff-a496-f6c7e2e97c5e" x1="663.14" y1="478.35" x2="672.89" y2="480.34"/><line class="aed76bcc-e9ee-43ff-a496-f6c7e2e97c5e" x1="659.65" y1="495.51" x2="669.41" y2="497.49"/><line class="aed76bcc-e9ee-43ff-a496-f6c7e2e97c5e" x1="656.15" y1="512.74" x2="665.91" y2="514.72"/><line class="aed76bcc-e9ee-43ff-a496-f6c7e2e97c5e" x1="652.67" y1="529.9" x2="662.42" y2="531.88"/><line class="aed76bcc-e9ee-43ff-a496-f6c7e2e97c5e" x1="696.62" y1="413.55" x2="706.38" y2="415.53"/><line class="aed76bcc-e9ee-43ff-a496-f6c7e2e97c5e" x1="693.14" y1="430.71" x2="702.89" y2="432.69"/><line class="aed76bcc-e9ee-43ff-a496-f6c7e2e97c5e" x1="689.64" y1="447.93" x2="699.39" y2="449.92"/><line class="aed76bcc-e9ee-43ff-a496-f6c7e2e97c5e" x1="686.15" y1="465.09" x2="695.91" y2="467.07"/><line class="aed76bcc-e9ee-43ff-a496-f6c7e2e97c5e" x1="682.66" y1="482.32" x2="692.41" y2="484.3"/><line class="aed76bcc-e9ee-43ff-a496-f6c7e2e97c5e" x1="679.17" y1="499.48" x2="688.92" y2="501.46"/><line class="aed76bcc-e9ee-43ff-a496-f6c7e2e97c5e" x1="675.67" y1="516.7" x2="685.42" y2="518.68"/><line class="aed76bcc-e9ee-43ff-a496-f6c7e2e97c5e" x1="672.19" y1="533.86" x2="681.94" y2="535.84"/><line class="aed76bcc-e9ee-43ff-a496-f6c7e2e97c5e" x1="715.71" y1="417.43" x2="725.46" y2="419.41"/><line class="aed76bcc-e9ee-43ff-a496-f6c7e2e97c5e" x1="712.22" y1="434.58" x2="721.98" y2="436.57"/><line class="aed76bcc-e9ee-43ff-a496-f6c7e2e97c5e" x1="708.72" y1="451.81" x2="718.48" y2="453.79"/><line class="aed76bcc-e9ee-43ff-a496-f6c7e2e97c5e" x1="705.24" y1="468.97" x2="714.99" y2="470.95"/><line class="aed76bcc-e9ee-43ff-a496-f6c7e2e97c5e" x1="701.74" y1="486.19" x2="711.49" y2="488.18"/><line class="aed76bcc-e9ee-43ff-a496-f6c7e2e97c5e" x1="698.25" y1="503.35" x2="708.01" y2="505.34"/><line class="aed76bcc-e9ee-43ff-a496-f6c7e2e97c5e" x1="694.75" y1="520.58" x2="704.51" y2="522.56"/><line class="aed76bcc-e9ee-43ff-a496-f6c7e2e97c5e" x1="691.27" y1="537.74" x2="701.02" y2="539.72"/><rect class="e2f75fb4-d8b5-47da-8ed5-c2221330c3d2" x="551.62" y="546.12" width="49.07" height="126.44" rx="21.04" transform="translate(-254.85 496.71) rotate(-38.89)"/><rect class="a41849e9-9d51-444b-94db-7dec5b1041a2" x="551.62" y="534.68" width="49.07" height="126.44" rx="21.04" transform="translate(-247.67 494.18) rotate(-38.89)"/><circle class="f866b5b8-fcf9-4a9a-8b09-df24955f335a" cx="538.25" cy="573.42" r="0.69"/><circle class="f866b5b8-fcf9-4a9a-8b09-df24955f335a" cx="566.1" cy="566.33" r="0.69"/><circle class="f866b5b8-fcf9-4a9a-8b09-df24955f335a" cx="552.12" cy="586.13" r="0.69"/><circle class="f866b5b8-fcf9-4a9a-8b09-df24955f335a" cx="570.91" cy="583.33" r="0.69"/><circle class="f866b5b8-fcf9-4a9a-8b09-df24955f335a" cx="564.96" cy="611.44" r="0.69"/><circle class="f866b5b8-fcf9-4a9a-8b09-df24955f335a" cx="596.3" cy="601.12" r="0.69"/><circle class="f866b5b8-fcf9-4a9a-8b09-df24955f335a" cx="593.86" cy="621.68" r="0.69"/><circle class="f866b5b8-fcf9-4a9a-8b09-df24955f335a" cx="617.62" cy="623.78" r="0.69"/><rect class="e2f75fb4-d8b5-47da-8ed5-c2221330c3d2" x="658.59" y="772.47" width="49.07" height="126.44" rx="21.04" transform="translate(690.26 1915.04) rotate(-141.11)"/><rect class="a41849e9-9d51-444b-94db-7dec5b1041a2" x="658.59" y="761.03" width="49.07" height="126.44" rx="21.04" transform="translate(697.44 1894.69) rotate(-141.11)"/><circle class="f866b5b8-fcf9-4a9a-8b09-df24955f335a" cx="721.02" cy="799.77" r="0.69"/><circle class="f866b5b8-fcf9-4a9a-8b09-df24955f335a" cx="693.17" cy="792.67" r="0.69"/><circle class="f866b5b8-fcf9-4a9a-8b09-df24955f335a" cx="707.16" cy="812.48" r="0.69"/><circle class="f866b5b8-fcf9-4a9a-8b09-df24955f335a" cx="688.36" cy="809.68" r="0.69"/><circle class="f866b5b8-fcf9-4a9a-8b09-df24955f335a" cx="694.31" cy="837.78" r="0.69"/><circle class="f866b5b8-fcf9-4a9a-8b09-df24955f335a" cx="662.98" cy="827.47" r="0.69"/><circle class="f866b5b8-fcf9-4a9a-8b09-df24955f335a" cx="665.41" cy="848.03" r="0.69"/><circle class="f866b5b8-fcf9-4a9a-8b09-df24955f335a" cx="641.66" cy="850.12" r="0.69"/><path class="e2f75fb4-d8b5-47da-8ed5-c2221330c3d2" d="M747.52,493.9c2.93-4.76,7.24-11.41,4.49-16.38-2.16-3.91-8.32-6.16-12.68-4.59-4.88,1.75-6.39,7.86-7.78,12.39-3.93,12.77-12.59,23.84-18.87,35.76-2.7,5.1-8.23,14.17-19.31,32.29-11.44,18.74-13.72,21.88-20.92,34.25-9,15.54-7.43,14-13.73,24.57-12.2,20.41-18.31,30.61-28.32,42.2S613,671.53,614.72,678.32a11.82,11.82,0,0,0,10.35,8.39c6.86.2,12.2-8,16.75-15.26,16.4-26,24.6-39,32.65-52.41,11.63-19.38,11.52-14.27,26.11-37.53s10.33-21.35,26.66-48.16C735,520.68,739.73,506.54,747.52,493.9Z"/><path class="e97abe2e-cbb9-4d63-a66b-9160d44c347c" d="M746.94,489.22c2.93-4.76,7.24-11.41,4.49-16.38-2.15-3.91-8.32-6.16-12.68-4.59-4.88,1.75-6.39,7.86-7.78,12.39-3.93,12.77-12.58,23.84-18.87,35.76-2.7,5.1-8.23,14.17-19.3,32.29-11.45,18.74-13.73,21.88-20.93,34.25-9,15.55-7.43,14-13.73,24.57-12.2,20.41-18.31,30.61-28.32,42.2s-17.43,17.14-15.68,23.93A11.82,11.82,0,0,0,624.5,682c6.85.2,12.19-8,16.74-15.26,16.4-26,24.6-39,32.65-52.41C685.53,595,685.41,600.09,700,576.83s10.33-21.35,26.66-48.16C734.38,516,739.15,501.87,746.94,489.22Z"/><path class="ad5bdbbf-71ad-4076-b155-a31b170694c3" d="M730.37,484.36c-.42-.09-1,.46-.89.83a.9.9,0,0,0,1.25.32A.8.8,0,0,0,730.37,484.36Z"/><path class="ad5bdbbf-71ad-4076-b155-a31b170694c3" d="M740.74,499.82c-.43-.14-1,.57-.86,1.08s1,.84,1.26.46A1.27,1.27,0,0,0,740.74,499.82Z"/><path class="ad5bdbbf-71ad-4076-b155-a31b170694c3" d="M729.6,503.41c-.38-.15-.84.56-.74,1.07s.88.85,1.12.48A1.41,1.41,0,0,0,729.6,503.41Z"/><path class="ad5bdbbf-71ad-4076-b155-a31b170694c3" d="M717.12,544.63c-.38-.14-.85.56-.74,1.07s.88.85,1.12.48A1.41,1.41,0,0,0,717.12,544.63Z"/><path class="ad5bdbbf-71ad-4076-b155-a31b170694c3" d="M724.69,517.88c-.37-.15-.84.56-.73,1.07s.87.85,1.12.48A1.4,1.4,0,0,0,724.69,517.88Z"/><path class="ad5bdbbf-71ad-4076-b155-a31b170694c3" d="M716.15,531.88c-.37-.15-.84.55-.73,1.06s.87.86,1.12.49S716.54,532,716.15,531.88Z"/><path class="ad5bdbbf-71ad-4076-b155-a31b170694c3" d="M700.59,534.68c-.38-.15-.85.55-.74,1.06s.87.86,1.12.49S701,534.83,700.59,534.68Z"/><path class="ad5bdbbf-71ad-4076-b155-a31b170694c3" d="M694.54,554.65c-.38-.15-.85.55-.74,1.06s.88.86,1.12.49S694.93,554.8,694.54,554.65Z"/><path class="ad5bdbbf-71ad-4076-b155-a31b170694c3" d="M682.64,565.56c-.38-.15-.84.55-.73,1.06s.87.86,1.12.49S683,565.71,682.64,565.56Z"/><path class="ad5bdbbf-71ad-4076-b155-a31b170694c3" d="M691.78,588.08c-.38-.15-.84.55-.74,1.06s.88.86,1.12.49S692.17,588.23,691.78,588.08Z"/><path class="ad5bdbbf-71ad-4076-b155-a31b170694c3" d="M673.08,580.93c-.37-.15-.84.55-.73,1.06s.87.86,1.12.49S673.48,581.08,673.08,580.93Z"/><path class="ad5bdbbf-71ad-4076-b155-a31b170694c3" d="M663,598.73c-.38-.15-.84.55-.74,1.06s.88.86,1.12.49S663.43,598.88,663,598.73Z"/><path class="ad5bdbbf-71ad-4076-b155-a31b170694c3" d="M670.44,619.23c-.38-.14-.85.56-.74,1.07s.87.85,1.12.48A1.41,1.41,0,0,0,670.44,619.23Z"/><path class="ad5bdbbf-71ad-4076-b155-a31b170694c3" d="M618.06,661.81c-.38-.15-.85.55-.74,1.06s.88.86,1.12.49S618.45,662,618.06,661.81Z"/><path class="ad5bdbbf-71ad-4076-b155-a31b170694c3" d="M640.46,654.37c-.37-.14-.84.56-.73,1.07s.87.85,1.12.48A1.4,1.4,0,0,0,640.46,654.37Z"/><path class="ad5bdbbf-71ad-4076-b155-a31b170694c3" d="M635.47,674.88c-.38-.14-.84.56-.74,1.07s.88.86,1.12.48A1.41,1.41,0,0,0,635.47,674.88Z"/><path class="ad5bdbbf-71ad-4076-b155-a31b170694c3" d="M622.22,673.74c-.38-.15-.85.55-.74,1.06s.87.86,1.12.49S622.61,673.89,622.22,673.74Z"/><path class="ad5bdbbf-71ad-4076-b155-a31b170694c3" d="M629.37,661.29c-.38-.15-.85.55-.74,1.06s.88.86,1.12.49S629.76,661.44,629.37,661.29Z"/><path class="ad5bdbbf-71ad-4076-b155-a31b170694c3" d="M639,637.86c-.38-.15-.85.55-.74,1.06s.87.86,1.12.49S639.43,638,639,637.86Z"/><path class="ad5bdbbf-71ad-4076-b155-a31b170694c3" d="M649.91,628.66c-.37-.15-.84.55-.73,1.06s.87.86,1.12.49S650.3,628.81,649.91,628.66Z"/><path class="ad5bdbbf-71ad-4076-b155-a31b170694c3" d="M651,647.64c-.38-.14-.85.56-.74,1.07s.87.85,1.12.48A1.41,1.41,0,0,0,651,647.64Z"/><path class="ad5bdbbf-71ad-4076-b155-a31b170694c3" d="M653,617.22c-.37-.15-.84.55-.73,1.06s.87.86,1.12.49S653.36,617.37,653,617.22Z"/><path class="ad5bdbbf-71ad-4076-b155-a31b170694c3" d="M669.57,607.24c-.38-.15-.85.55-.74,1.06s.87.86,1.12.49S670,607.39,669.57,607.24Z"/><path class="ad5bdbbf-71ad-4076-b155-a31b170694c3" d="M677.6,593.73c-.38-.15-.85.55-.74,1.06s.88.86,1.12.49S678,593.88,677.6,593.73Z"/><path class="ad5bdbbf-71ad-4076-b155-a31b170694c3" d="M695.08,564c-.37-.15-.84.56-.73,1.07s.87.85,1.12.48A1.4,1.4,0,0,0,695.08,564Z"/><path class="ad5bdbbf-71ad-4076-b155-a31b170694c3" d="M711.55,555.1c-.38-.14-.85.56-.74,1.07s.87.86,1.12.48A1.41,1.41,0,0,0,711.55,555.1Z"/><path class="ad5bdbbf-71ad-4076-b155-a31b170694c3" d="M709.5,520.64c-.38-.15-.85.55-.74,1.06s.88.86,1.12.49S709.89,520.79,709.5,520.64Z"/><path class="ad5bdbbf-71ad-4076-b155-a31b170694c3" d="M739.78,486.71c-.38-.15-.85.55-.74,1.06s.87.86,1.12.49S740.17,486.86,739.78,486.71Z"/><path class="ad5bdbbf-71ad-4076-b155-a31b170694c3" d="M751.68,479.57c-.34-.07-.79.37-.71.68a.73.73,0,0,0,1,.25A.64.64,0,0,0,751.68,479.57Z"/><path class="e2f75fb4-d8b5-47da-8ed5-c2221330c3d2" d="M683.84,211.46c-7.64-3.06-33.71-13.51-51.93,2.12s-12,43.2-11.65,44.51c5.12,21,22.86,30.77,28.73,33.56,5.34,2.53,20.69,9.82,35.59,3.37,23.7-10.24,23.49-45.32,23.46-49.46-.06-11.6-3.52-17.66-4.55-19.36C698.07,217.29,689.48,213.72,683.84,211.46Zm-6.35,42.39c-1.13,5.37-6.74,9.68-12.72,9.54-7.14-.18-13.29-6.66-12.72-13.78a12.69,12.69,0,0,1,10.21-11.24C670.49,237,679.16,245.83,677.49,253.85Z"/><path class="f22ba4cd-4053-4a55-877a-f3fd7ea87eef" d="M683.84,208.51c-7.64-3.06-33.71-13.51-51.93,2.12s-12,43.2-11.65,44.51c5.12,21,22.86,30.78,28.73,33.56,5.34,2.54,20.69,9.82,35.59,3.37,23.7-10.24,23.49-45.31,23.46-49.46-.06-11.6-3.52-17.66-4.55-19.36C698.07,214.35,689.48,210.77,683.84,208.51Zm-6.35,42.39c-1.13,5.37-6.74,9.69-12.72,9.54-7.14-.17-13.29-6.66-12.72-13.78a12.69,12.69,0,0,1,10.21-11.24C670.49,234.08,679.16,242.88,677.49,250.9Z"/><path class="a960adc2-7073-4b07-8d69-7d5870ae6edf" d="M683.84,200.87c-14.15-8.2-36.64-11.2-51.93,2.12-18.32,16-12,42.94-11.65,44.51,7.14,28.64,42.51,50.69,65.7,40.27,16.43-7.38,20.51-28.24,21.2-31.79C710.92,236.73,703.91,212.49,683.84,200.87Zm-6.35,42.39c-.92,5.06-6.58,9.7-12.72,9.54-7.31-.2-12.59-7.13-12.72-13.78-.09-4.48,2.13-10,6.36-11.66C666.13,224.27,679.1,234.39,677.49,243.26Z"/><path class="e2f75fb4-d8b5-47da-8ed5-c2221330c3d2" d="M584.2,768.43c-7.64-3.06-33.72-13.51-51.93,2.12s-12,43.2-11.66,44.51c5.13,21,22.86,30.77,28.74,33.56,5.34,2.53,20.69,9.81,35.59,3.37,23.7-10.24,23.49-45.32,23.46-49.46-.07-11.6-3.52-17.67-4.55-19.36C598.43,774.26,589.84,770.68,584.2,768.43Zm-6.36,42.39c-1.12,5.37-6.73,9.68-12.72,9.54-7.14-.18-13.28-6.66-12.71-13.78a12.68,12.68,0,0,1,10.21-11.24C570.85,794,579.52,802.8,577.84,810.82Z"/><path class="f22ba4cd-4053-4a55-877a-f3fd7ea87eef" d="M584.2,765.48c-7.64-3.06-33.72-13.51-51.93,2.12s-12,43.2-11.66,44.51c5.13,21,22.86,30.77,28.74,33.56,5.34,2.53,20.69,9.82,35.59,3.37,23.7-10.24,23.49-45.31,23.46-49.46-.07-11.6-3.52-17.66-4.55-19.36C598.43,771.31,589.84,767.74,584.2,765.48Zm-6.36,42.39c-1.12,5.37-6.73,9.68-12.72,9.54-7.14-.17-13.28-6.66-12.71-13.78a12.69,12.69,0,0,1,10.21-11.24C570.85,791.05,579.52,799.85,577.84,807.87Z"/><path class="a960adc2-7073-4b07-8d69-7d5870ae6edf" d="M584.2,757.84c-14.15-8.2-36.64-11.2-51.93,2.12-18.32,15.95-12,42.94-11.66,44.51,7.15,28.64,42.52,50.69,65.71,40.27,16.43-7.38,20.5-28.25,21.2-31.79C611.28,793.7,604.27,769.46,584.2,757.84Zm-6.36,42.39c-.92,5-6.57,9.7-12.72,9.54-7.3-.2-12.58-7.13-12.71-13.78-.09-4.48,2.13-10,6.36-11.66C566.49,781.24,579.45,791.36,577.84,800.23Z"/></g></svg>