<svg xmlns="http://www.w3.org/2000/svg" viewBox="0 0 1800 1200"><defs><style>.aaabb7d5-3344-4e44-91b7-311c053f6ee7,.b3b9fc19-c4ea-4705-85f6-498b60747a77,.e26a3180-427e-44b8-9943-4d94523e34fe{fill:#302d2e;}.b3b9fc19-c4ea-4705-85f6-498b60747a77{opacity:0.15;}.f154f641-a0b1-4c34-b5f0-9ee8d6fd815c{fill:#fff;}.bf033fea-d347-4ad3-9085-8e7cf5f8bb9e,.fcb97c74-ad73-4f22-aa5b-06cf5821194b{opacity:0.1;}.a29eb613-9d1e-4dde-ab00-a26cd21b45d1,.a4113173-5b2e-4d86-b6c9-a940b422451e,.b15e2a7f-9e9f-4068-9dc1-8f45e127b2f8,.b5c6a36d-3593-41fd-8ffa-38fdda089bfc,.b69a7d38-fc6c-4bdf-b3a7-d61cd1c67fa2,.b82418c0-15d0-4e94-9f1c-a6e790131345,.b93dd523-6c43-4652-9f75-7a2c1946db98,.b95285e6-0879-4621-b69a-b96be519d6e4,.b9c967ef-c591-4c89-a23d-c1e5f10172e7,.b9e28504-f679-441f-8b0f-62f50da4dbc9,.bdf2948e-46f4-4d92-8e91-d3f00852dafb,.ea08cc46-dd4f-4ab1-8695-4c791a7fc1de,.eb8e2fec-794b-461b-bfee-3c0a91ed1ac9,.ff571bc7-d0f3-4c70-bd0c-6b820819f067{fill:none;}.a4113173-5b2e-4d86-b6c9-a940b422451e,.b15e2a7f-9e9f-4068-9dc1-8f45e127b2f8,.b93dd523-6c43-4652-9f75-7a2c1946db98,.b95285e6-0879-4621-b69a-b96be519d6e4,.b9e28504-f679-441f-8b0f-62f50da4dbc9,.ea08cc46-dd4f-4ab1-8695-4c791a7fc1de,.eb8e2fec-794b-461b-bfee-3c0a91ed1ac9{stroke:#000;}.a29eb613-9d1e-4dde-ab00-a26cd21b45d1,.a4113173-5b2e-4d86-b6c9-a940b422451e,.aaabb7d5-3344-4e44-91b7-311c053f6ee7,.b15e2a7f-9e9f-4068-9dc1-8f45e127b2f8,.b5c6a36d-3593-41fd-8ffa-38fdda089bfc,.b69a7d38-fc6c-4bdf-b3a7-d61cd1c67fa2,.b82418c0-15d0-4e94-9f1c-a6e790131345,.b93dd523-6c43-4652-9f75-7a2c1946db98,.b95285e6-0879-4621-b69a-b96be519d6e4,.b9c967ef-c591-4c89-a23d-c1e5f10172e7,.b9e28504-f679-441f-8b0f-62f50da4dbc9,.ea08cc46-dd4f-4ab1-8695-4c791a7fc1de,.eb8e2fec-794b-461b-bfee-3c0a91ed1ac9,.ff571bc7-d0f3-4c70-bd0c-6b820819f067{stroke-linecap:round;}.a29eb613-9d1e-4dde-ab00-a26cd21b45d1,.a4113173-5b2e-4d86-b6c9-a940b422451e,.aaabb7d5-3344-4e44-91b7-311c053f6ee7,.b15e2a7f-9e9f-4068-9dc1-8f45e127b2f8,.b5c6a36d-3593-41fd-8ffa-38fdda089bfc,.b69a7d38-fc6c-4bdf-b3a7-d61cd1c67fa2,.b82418c0-15d0-4e94-9f1c-a6e790131345,.b93dd523-6c43-4652-9f75-7a2c1946db98,.b95285e6-0879-4621-b69a-b96be519d6e4,.b9c967ef-c591-4c89-a23d-c1e5f10172e7,.b9e28504-f679-441f-8b0f-62f50da4dbc9,.bd2d668b-8140-423b-8582-fcbee85918c2,.bdf2948e-46f4-4d92-8e91-d3f00852dafb,.ea08cc46-dd4f-4ab1-8695-4c791a7fc1de,.eb8e2fec-794b-461b-bfee-3c0a91ed1ac9,.f9222136-545d-4504-9e2e-0367f47016bc,.ff571bc7-d0f3-4c70-bd0c-6b820819f067{stroke-miterlimit:10;}.a4113173-5b2e-4d86-b6c9-a940b422451e,.ea08cc46-dd4f-4ab1-8695-4c791a7fc1de,.eb8e2fec-794b-461b-bfee-3c0a91ed1ac9{stroke-width:6.88px;}.eb8e2fec-794b-461b-bfee-3c0a91ed1ac9{stroke-dasharray:0.77 49.88;}.ea08cc46-dd4f-4ab1-8695-4c791a7fc1de{stroke-dasharray:0.77 49.88;}.b9c967ef-c591-4c89-a23d-c1e5f10172e7,.bc94df4a-c670-4da5-84be-fd54f534f800{opacity:0.5;}.a29eb613-9d1e-4dde-ab00-a26cd21b45d1,.b5c6a36d-3593-41fd-8ffa-38fdda089bfc,.b69a7d38-fc6c-4bdf-b3a7-d61cd1c67fa2,.b82418c0-15d0-4e94-9f1c-a6e790131345{stroke:#5f5a52;opacity:0.58;}.a29eb613-9d1e-4dde-ab00-a26cd21b45d1{stroke-width:7.56px;}.b69a7d38-fc6c-4bdf-b3a7-d61cd1c67fa2{stroke-width:7.17px;}.b5c6a36d-3593-41fd-8ffa-38fdda089bfc{stroke-width:10.63px;}.b82418c0-15d0-4e94-9f1c-a6e790131345{stroke-width:9.82px;}.bd2d668b-8140-423b-8582-fcbee85918c2{fill:#6d6767;stroke:#302d2e;stroke-width:0.74px;}.aaabb7d5-3344-4e44-91b7-311c053f6ee7,.b15e2a7f-9e9f-4068-9dc1-8f45e127b2f8,.b95285e6-0879-4621-b69a-b96be519d6e4,.b9e28504-f679-441f-8b0f-62f50da4dbc9,.bd2d668b-8140-423b-8582-fcbee85918c2{opacity:0.24;}.f4cb6e89-854d-4bff-a2d0-4d02ae2e544b{opacity:0.02;}.aaabb7d5-3344-4e44-91b7-311c053f6ee7{stroke:#6d6767;stroke-width:6.78px;}.ff571bc7-d0f3-4c70-bd0c-6b820819f067{stroke:#f5876c;stroke-width:18.9px;}.fb6272af-47b9-4963-ad35-26d2efd1c704,.ff571bc7-d0f3-4c70-bd0c-6b820819f067{opacity:0.7;}.b15e2a7f-9e9f-4068-9dc1-8f45e127b2f8,.b93dd523-6c43-4652-9f75-7a2c1946db98{stroke-width:12.72px;}.b93dd523-6c43-4652-9f75-7a2c1946db98{opacity:0.54;}.b95285e6-0879-4621-b69a-b96be519d6e4{stroke-width:5.09px;}.b9e28504-f679-441f-8b0f-62f50da4dbc9{stroke-width:3.39px;}.a91f477a-8f7f-4dca-ae7d-4b1b9d0884e9,.fb6272af-47b9-4963-ad35-26d2efd1c704{fill:#f5876c;}.a23f5dfc-ae2d-4d25-92ce-b163f83e561e{fill:#ffe187;}.affb2dcb-9392-4936-8d8c-21702f22c86f{fill:#f6d882;}.bdf2948e-46f4-4d92-8e91-d3f00852dafb{stroke:#fff;stroke-width:3.54px;}.fe4ee811-8a64-460a-b7e7-103daa95f760{fill:#a9abae;}.a4b51f2b-b55d-4a91-a6d8-2c8138118605{fill:#b6b8ba;}.f52f32ed-c1e9-433f-a289-9373376b9c28{fill:#414042;}.b527d2b2-aca5-4b65-a04d-b4a6cb861939{fill:#c49952;}.b9c967ef-c591-4c89-a23d-c1e5f10172e7{stroke:#9c7e47;stroke-width:5.83px;}.b59282b0-3c94-4239-b0cb-10e630cf8397{fill:#fdbb5d;}.fcb97c74-ad73-4f22-aa5b-06cf5821194b{fill:#948064;}.a67f52f4-388c-498b-bd84-260efffa990c{fill:#735e3f;}.f9222136-545d-4504-9e2e-0367f47016bc{fill:#e8dfd3;stroke:#e8dfd3;stroke-width:1.2px;}.aa597211-6422-4622-8ce0-e7fd71654d45{fill:#fec77c;}.e048df54-98a3-4af7-9a47-0769ea2fe756{fill:#ffd499;}</style></defs><title>portfolio-icons</title><g id="b4c49b52-87bb-400d-b2ea-3cf06c35b5e9" data-name="fdk-banner"><g id="b1a2028c-c91c-4ad6-a22d-46527d9b594f" data-name="sketch"><g id="afd9910a-a1d8-426e-ae1f-9a30175d481f" data-name="grid"><rect class="b3b9fc19-c4ea-4705-85f6-498b60747a77" x="188.14" y="168.43" width="1461.33" height="931.87"/><rect class="f154f641-a0b1-4c34-b5f0-9ee8d6fd815c" x="188.14" y="150.59" width="1461.33" height="931.87"/><g class="bf033fea-d347-4ad3-9085-8e7cf5f8bb9e"><line class="a4113173-5b2e-4d86-b6c9-a940b422451e" x1="285.77" y1="232.83" x2="286.15" y2="232.83"/><line class="eb8e2fec-794b-461b-bfee-3c0a91ed1ac9" x1="336.03" y1="232.83" x2="1526.52" y2="232.83"/><line class="a4113173-5b2e-4d86-b6c9-a940b422451e" x1="1551.46" y1="232.83" x2="1551.84" y2="232.83"/></g><g class="bf033fea-d347-4ad3-9085-8e7cf5f8bb9e"><line class="a4113173-5b2e-4d86-b6c9-a940b422451e" x1="285.77" y1="328.75" x2="286.15" y2="328.75"/><line class="eb8e2fec-794b-461b-bfee-3c0a91ed1ac9" x1="336.03" y1="328.75" x2="1526.52" y2="328.75"/><line class="a4113173-5b2e-4d86-b6c9-a940b422451e" x1="1551.46" y1="328.75" x2="1551.84" y2="328.75"/></g><g class="bf033fea-d347-4ad3-9085-8e7cf5f8bb9e"><line class="a4113173-5b2e-4d86-b6c9-a940b422451e" x1="285.77" y1="376.71" x2="286.15" y2="376.71"/><line class="ea08cc46-dd4f-4ab1-8695-4c791a7fc1de" x1="336.03" y1="376.71" x2="1526.52" y2="376.71"/><line class="a4113173-5b2e-4d86-b6c9-a940b422451e" x1="1551.46" y1="376.71" x2="1551.84" y2="376.71"/></g><g class="bf033fea-d347-4ad3-9085-8e7cf5f8bb9e"><line class="a4113173-5b2e-4d86-b6c9-a940b422451e" x1="285.77" y1="280.79" x2="286.15" y2="280.79"/><line class="eb8e2fec-794b-461b-bfee-3c0a91ed1ac9" x1="336.03" y1="280.79" x2="1526.52" y2="280.79"/><line class="a4113173-5b2e-4d86-b6c9-a940b422451e" x1="1551.46" y1="280.79" x2="1551.84" y2="280.79"/></g><g class="bf033fea-d347-4ad3-9085-8e7cf5f8bb9e"><line class="a4113173-5b2e-4d86-b6c9-a940b422451e" x1="285.77" y1="424.67" x2="286.15" y2="424.67"/><line class="eb8e2fec-794b-461b-bfee-3c0a91ed1ac9" x1="336.03" y1="424.67" x2="1526.52" y2="424.67"/><line class="a4113173-5b2e-4d86-b6c9-a940b422451e" x1="1551.46" y1="424.67" x2="1551.84" y2="424.67"/></g><g class="bf033fea-d347-4ad3-9085-8e7cf5f8bb9e"><line class="a4113173-5b2e-4d86-b6c9-a940b422451e" x1="285.77" y1="520.6" x2="286.15" y2="520.6"/><line class="eb8e2fec-794b-461b-bfee-3c0a91ed1ac9" x1="336.03" y1="520.6" x2="1526.52" y2="520.6"/><line class="a4113173-5b2e-4d86-b6c9-a940b422451e" x1="1551.46" y1="520.6" x2="1551.84" y2="520.6"/></g><g class="bf033fea-d347-4ad3-9085-8e7cf5f8bb9e"><line class="a4113173-5b2e-4d86-b6c9-a940b422451e" x1="285.77" y1="568.56" x2="286.15" y2="568.56"/><line class="eb8e2fec-794b-461b-bfee-3c0a91ed1ac9" x1="336.03" y1="568.56" x2="1526.52" y2="568.56"/><line class="a4113173-5b2e-4d86-b6c9-a940b422451e" x1="1551.46" y1="568.56" x2="1551.84" y2="568.56"/></g><g class="bf033fea-d347-4ad3-9085-8e7cf5f8bb9e"><line class="a4113173-5b2e-4d86-b6c9-a940b422451e" x1="285.77" y1="472.64" x2="286.15" y2="472.64"/><line class="eb8e2fec-794b-461b-bfee-3c0a91ed1ac9" x1="336.03" y1="472.64" x2="1526.52" y2="472.64"/><line class="a4113173-5b2e-4d86-b6c9-a940b422451e" x1="1551.46" y1="472.64" x2="1551.84" y2="472.64"/></g><g class="bf033fea-d347-4ad3-9085-8e7cf5f8bb9e"><line class="a4113173-5b2e-4d86-b6c9-a940b422451e" x1="285.77" y1="616.52" x2="286.15" y2="616.52"/><line class="eb8e2fec-794b-461b-bfee-3c0a91ed1ac9" x1="336.03" y1="616.52" x2="1526.52" y2="616.52"/><line class="a4113173-5b2e-4d86-b6c9-a940b422451e" x1="1551.46" y1="616.52" x2="1551.84" y2="616.52"/></g><g class="bf033fea-d347-4ad3-9085-8e7cf5f8bb9e"><line class="a4113173-5b2e-4d86-b6c9-a940b422451e" x1="285.77" y1="712.45" x2="286.15" y2="712.45"/><line class="eb8e2fec-794b-461b-bfee-3c0a91ed1ac9" x1="336.03" y1="712.45" x2="1526.52" y2="712.45"/><line class="a4113173-5b2e-4d86-b6c9-a940b422451e" x1="1551.46" y1="712.45" x2="1551.84" y2="712.45"/></g><g class="bf033fea-d347-4ad3-9085-8e7cf5f8bb9e"><line class="a4113173-5b2e-4d86-b6c9-a940b422451e" x1="285.77" y1="760.41" x2="286.15" y2="760.41"/><line class="eb8e2fec-794b-461b-bfee-3c0a91ed1ac9" x1="336.03" y1="760.41" x2="1526.52" y2="760.41"/><line class="a4113173-5b2e-4d86-b6c9-a940b422451e" x1="1551.46" y1="760.41" x2="1551.84" y2="760.41"/></g><g class="bf033fea-d347-4ad3-9085-8e7cf5f8bb9e"><line class="a4113173-5b2e-4d86-b6c9-a940b422451e" x1="285.77" y1="664.48" x2="286.15" y2="664.48"/><line class="eb8e2fec-794b-461b-bfee-3c0a91ed1ac9" x1="336.03" y1="664.48" x2="1526.52" y2="664.48"/><line class="a4113173-5b2e-4d86-b6c9-a940b422451e" x1="1551.46" y1="664.48" x2="1551.84" y2="664.48"/></g><g class="bf033fea-d347-4ad3-9085-8e7cf5f8bb9e"><line class="a4113173-5b2e-4d86-b6c9-a940b422451e" x1="285.77" y1="808.37" x2="286.15" y2="808.37"/><line class="eb8e2fec-794b-461b-bfee-3c0a91ed1ac9" x1="336.03" y1="808.37" x2="1526.52" y2="808.37"/><line class="a4113173-5b2e-4d86-b6c9-a940b422451e" x1="1551.46" y1="808.37" x2="1551.84" y2="808.37"/></g><g class="bf033fea-d347-4ad3-9085-8e7cf5f8bb9e"><line class="a4113173-5b2e-4d86-b6c9-a940b422451e" x1="285.77" y1="904.3" x2="286.15" y2="904.3"/><line class="eb8e2fec-794b-461b-bfee-3c0a91ed1ac9" x1="336.03" y1="904.3" x2="1526.52" y2="904.3"/><line class="a4113173-5b2e-4d86-b6c9-a940b422451e" x1="1551.46" y1="904.3" x2="1551.84" y2="904.3"/></g><g class="bf033fea-d347-4ad3-9085-8e7cf5f8bb9e"><line class="a4113173-5b2e-4d86-b6c9-a940b422451e" x1="285.77" y1="952.26" x2="286.15" y2="952.26"/><line class="eb8e2fec-794b-461b-bfee-3c0a91ed1ac9" x1="336.03" y1="952.26" x2="1526.52" y2="952.26"/><line class="a4113173-5b2e-4d86-b6c9-a940b422451e" x1="1551.46" y1="952.26" x2="1551.84" y2="952.26"/></g><g class="bf033fea-d347-4ad3-9085-8e7cf5f8bb9e"><line class="a4113173-5b2e-4d86-b6c9-a940b422451e" x1="285.77" y1="1000.22" x2="286.15" y2="1000.22"/><line class="eb8e2fec-794b-461b-bfee-3c0a91ed1ac9" x1="336.03" y1="1000.22" x2="1526.52" y2="1000.22"/><line class="a4113173-5b2e-4d86-b6c9-a940b422451e" x1="1551.46" y1="1000.22" x2="1551.84" y2="1000.22"/></g><g class="bf033fea-d347-4ad3-9085-8e7cf5f8bb9e"><line class="a4113173-5b2e-4d86-b6c9-a940b422451e" x1="285.77" y1="856.33" x2="286.15" y2="856.33"/><line class="eb8e2fec-794b-461b-bfee-3c0a91ed1ac9" x1="336.03" y1="856.33" x2="1526.52" y2="856.33"/><line class="a4113173-5b2e-4d86-b6c9-a940b422451e" x1="1551.46" y1="856.33" x2="1551.84" y2="856.33"/></g></g><g class="bc94df4a-c670-4da5-84be-fd54f534f800"><path class="a29eb613-9d1e-4dde-ab00-a26cd21b45d1" d="M1127.68,938.32c198.82,1.68,278.26,3.52,283.86,5.38a13.92,13.92,0,0,0,9.07.23,16,16,0,0,0,6.34-4.67c12.38-14.89,8.66-590.33,13-604.19.15-.49,1.69-4.7-.05-7.33-1.58-2.36-5-2.28-6.16-2.26-4.48.06-264.19,3.31-281.37-3.23-.73-.27-4.25-1.8-6.65,0-3.47,2.61-2.34,10.49-2.22,11.63,1.23,11.52-5.47,223.61-16.13,534.19"/><path class="b69a7d38-fc6c-4bdf-b3a7-d61cd1c67fa2" d="M1178.06,627.73c42.19.17,59.06.36,60.25.55a5.9,5.9,0,0,0,1.92,0,4.44,4.44,0,0,0,1.35-.48c2.62-1.53,1.83-60.61,2.75-62,0,0,.36-.48,0-.75a2.55,2.55,0,0,0-1.3-.23c-1,0-56.07.34-59.72-.33a3,3,0,0,0-1.41,0c-.74.26-.5,1.07-.47,1.19.26,1.18-1.16,23-3.43,54.84"/><path class="b69a7d38-fc6c-4bdf-b3a7-d61cd1c67fa2" d="M1322.41,753.54c42.2.17,59.06.36,60.25.55a5.9,5.9,0,0,0,1.92,0,4.44,4.44,0,0,0,1.35-.48c2.63-1.53,1.84-60.6,2.75-62,0-.05.36-.48,0-.75a2.7,2.7,0,0,0-1.31-.23c-.95,0-56.07.34-59.72-.33a3,3,0,0,0-1.41,0c-.73.27-.49,1.07-.47,1.19.26,1.18-1.16,23-3.42,54.84"/><path class="b69a7d38-fc6c-4bdf-b3a7-d61cd1c67fa2" d="M1201.45,356.3h43"/><path class="b69a7d38-fc6c-4bdf-b3a7-d61cd1c67fa2" d="M1282.29,566.38h105.5"/><path class="b69a7d38-fc6c-4bdf-b3a7-d61cd1c67fa2" d="M1282.29,596.38h105.5"/><path class="b69a7d38-fc6c-4bdf-b3a7-d61cd1c67fa2" d="M1183.24,692.19h105.49"/><path class="b69a7d38-fc6c-4bdf-b3a7-d61cd1c67fa2" d="M1183.24,722.19h105.49"/><path class="b69a7d38-fc6c-4bdf-b3a7-d61cd1c67fa2" d="M1277.45,816.68h105.49"/><path class="b69a7d38-fc6c-4bdf-b3a7-d61cd1c67fa2" d="M1277.45,848h52.74"/><path class="b69a7d38-fc6c-4bdf-b3a7-d61cd1c67fa2" d="M1295.7,353.66h26.64"/><path class="b69a7d38-fc6c-4bdf-b3a7-d61cd1c67fa2" d="M1348,355h30.8"/><path class="b69a7d38-fc6c-4bdf-b3a7-d61cd1c67fa2" d="M1397.12,353.66h26.66"/><path class="b69a7d38-fc6c-4bdf-b3a7-d61cd1c67fa2" d="M1208.25,821.53c-11.66,2-21.4,10.51-24,21.9-4.91,21.4,16.76,47,30,42.51,11.42-3.83,19.31-30.86,12-50.24-6.7-17.78-25.4-27-43-18"/></g><g class="bc94df4a-c670-4da5-84be-fd54f534f800"><path class="b5c6a36d-3593-41fd-8ffa-38fdda089bfc" d="M286.56,253.88c-2.07,317.23-4.35,444-6.65,452.93a28,28,0,0,0-.3,14.46,26.8,26.8,0,0,0,5.79,10.13c18.46,19.74,731.53,13.82,748.7,20.67.61.25,5.82,2.7,9.08-.09,2.93-2.51,2.83-8,2.81-9.82-.08-7.15-4.11-421.53,4-448.95.35-1.17,2.24-6.79,0-10.61-3.23-5.54-13-3.74-14.4-3.54-14.28,2-277.09-8.73-662-25.74"/><path class="b82418c0-15d0-4e94-9f1c-a6e790131345" d="M377.26,703.75c70.08.27,98.08.58,100.06.89a10,10,0,0,0,3.19,0,7.71,7.71,0,0,0,2.24-.78c4.36-2.48,3.05-98.31,4.57-100.62.05-.08.59-.78,0-1.22a4.6,4.6,0,0,0-2.17-.38c-1.58,0-93.13.56-99.18-.53a5.14,5.14,0,0,0-2.35,0c-1.22.43-.82,1.74-.78,1.93.43,1.92-1.93,37.24-5.69,89"/><path class="b82418c0-15d0-4e94-9f1c-a6e790131345" d="M339.26,321.09H458.11"/><path class="b82418c0-15d0-4e94-9f1c-a6e790131345" d="M537.74,635H951.12"/><path class="b82418c0-15d0-4e94-9f1c-a6e790131345" d="M537.74,683H797"/><path class="b82418c0-15d0-4e94-9f1c-a6e790131345" d="M951.12,322.23h44.1"/><path class="b82418c0-15d0-4e94-9f1c-a6e790131345" d="M837.81,322.23h44.1"/><path class="b82418c0-15d0-4e94-9f1c-a6e790131345" d="M745.66,321.39h44.1"/></g></g><g id="f12fcf64-0996-49ef-a660-0c96f7db1f5d" data-name="iphone"><rect class="b3b9fc19-c4ea-4705-85f6-498b60747a77" x="51.91" y="390.01" width="355.25" height="760.63" rx="39.39"/><rect class="e26a3180-427e-44b8-9943-4d94523e34fe" x="51.91" y="373.44" width="355.25" height="760.63" rx="39.39"/><ellipse class="bd2d668b-8140-423b-8582-fcbee85918c2" cx="229.54" cy="1097.41" rx="27.22" ry="28.39"/><rect class="bd2d668b-8140-423b-8582-fcbee85918c2" x="67.61" y="442.46" width="324.91" height="612.74"/><rect class="f154f641-a0b1-4c34-b5f0-9ee8d6fd815c" x="77.5" y="453.68" width="305.13" height="590.31"/><rect class="f4cb6e89-854d-4bff-a2d0-4d02ae2e544b" x="77.5" y="538.5" width="305.13" height="151.86"/><line class="aaabb7d5-3344-4e44-91b7-311c053f6ee7" x1="202.32" y1="413.61" x2="249.87" y2="413.61"/><line class="ff571bc7-d0f3-4c70-bd0c-6b820819f067" x1="210.49" y1="666.32" x2="256.36" y2="666.32"/><line class="b93dd523-6c43-4652-9f75-7a2c1946db98" x1="335.82" y1="488.34" x2="367.7" y2="488.34"/><line class="b15e2a7f-9e9f-4068-9dc1-8f45e127b2f8" x1="275.03" y1="488.34" x2="306.92" y2="488.34"/><line class="b15e2a7f-9e9f-4068-9dc1-8f45e127b2f8" x1="211.81" y1="488.34" x2="243.7" y2="488.34"/><line class="b95285e6-0879-4621-b69a-b96be519d6e4" x1="147.88" y1="635.24" x2="318.97" y2="635.24"/><line class="b95285e6-0879-4621-b69a-b96be519d6e4" x1="147.88" y1="614.42" x2="318.97" y2="614.42"/><line class="b9e28504-f679-441f-8b0f-62f50da4dbc9" x1="93.96" y1="826.86" x2="265.05" y2="826.86"/><line class="b9e28504-f679-441f-8b0f-62f50da4dbc9" x1="93.96" y1="806.04" x2="265.05" y2="806.04"/><line class="b9e28504-f679-441f-8b0f-62f50da4dbc9" x1="93.96" y1="837.27" x2="205.27" y2="837.27"/><line class="b9e28504-f679-441f-8b0f-62f50da4dbc9" x1="93.96" y1="816.45" x2="265.05" y2="816.45"/><line class="b9e28504-f679-441f-8b0f-62f50da4dbc9" x1="193.12" y1="746.23" x2="364.22" y2="746.23"/><line class="b9e28504-f679-441f-8b0f-62f50da4dbc9" x1="193.12" y1="725.42" x2="364.22" y2="725.42"/><line class="b9e28504-f679-441f-8b0f-62f50da4dbc9" x1="193.12" y1="756.64" x2="304.43" y2="756.64"/><line class="b9e28504-f679-441f-8b0f-62f50da4dbc9" x1="193.12" y1="735.82" x2="364.22" y2="735.82"/><rect class="fb6272af-47b9-4963-ad35-26d2efd1c704" x="93.96" y="715.86" width="61.66" height="48.77"/><line class="b9e28504-f679-441f-8b0f-62f50da4dbc9" x1="193.12" y1="914.72" x2="364.22" y2="914.72"/><line class="b9e28504-f679-441f-8b0f-62f50da4dbc9" x1="193.12" y1="893.91" x2="364.22" y2="893.91"/><line class="b9e28504-f679-441f-8b0f-62f50da4dbc9" x1="193.12" y1="925.13" x2="304.43" y2="925.13"/><line class="b9e28504-f679-441f-8b0f-62f50da4dbc9" x1="193.12" y1="904.31" x2="364.22" y2="904.31"/><rect class="fb6272af-47b9-4963-ad35-26d2efd1c704" x="93.96" y="884.35" width="61.66" height="48.77"/><rect class="fb6272af-47b9-4963-ad35-26d2efd1c704" x="304.43" y="798.16" width="61.66" height="48.77"/><ellipse class="fb6272af-47b9-4963-ad35-26d2efd1c704" cx="124.79" cy="995.26" rx="20.24" ry="21.11"/><line class="b9e28504-f679-441f-8b0f-62f50da4dbc9" x1="177.35" y1="990.05" x2="348.44" y2="990.05"/><line class="b9e28504-f679-441f-8b0f-62f50da4dbc9" x1="177.35" y1="1000.46" x2="316.89" y2="1000.46"/><path class="a91f477a-8f7f-4dca-ae7d-4b1b9d0884e9" d="M94.2,474.27V502.4a4.27,4.27,0,0,0,4.27,4.27h3.68a4.27,4.27,0,0,0,4.27-4.27v-3.68a4.27,4.27,0,0,1,4.27-4.27h3.68a4.27,4.27,0,0,0,4.27-4.27V486.5a4.28,4.28,0,0,1,4.27-4.28h3.69a4.27,4.27,0,0,0,4.27-4.27v-3.68A4.27,4.27,0,0,0,126.6,470H98.47A4.27,4.27,0,0,0,94.2,474.27Z"/><rect class="a91f477a-8f7f-4dca-ae7d-4b1b9d0884e9" x="118.64" y="494.45" width="12.22" height="12.22" rx="5.01"/></g><g id="af3a6c5b-dbd9-4f64-950d-a61ed4acaa01" data-name="ruler"><polygon class="b3b9fc19-c4ea-4705-85f6-498b60747a77" points="1655.47 1024.39 1567.5 1024.39 1567.5 1035.51 1655.47 1035.51 1743.44 1035.51 1743.44 1024.39 1655.47 1024.39"/><rect class="a23f5dfc-ae2d-4d25-92ce-b163f83e561e" x="1567.5" y="52.6" width="87.97" height="971.79"/><rect class="affb2dcb-9392-4936-8d8c-21702f22c86f" x="1655.47" y="52.6" width="87.97" height="971.79"/><line class="bdf2948e-46f4-4d92-8e91-d3f00852dafb" x1="1567.5" y1="108.98" x2="1600.95" y2="108.98"/><line class="bdf2948e-46f4-4d92-8e91-d3f00852dafb" x1="1567.5" y1="151.46" x2="1600.95" y2="151.46"/><line class="bdf2948e-46f4-4d92-8e91-d3f00852dafb" x1="1567.5" y1="193.94" x2="1600.95" y2="193.94"/><line class="bdf2948e-46f4-4d92-8e91-d3f00852dafb" x1="1567.5" y1="236.43" x2="1620.06" y2="236.43"/><line class="bdf2948e-46f4-4d92-8e91-d3f00852dafb" x1="1567.5" y1="278.91" x2="1600.95" y2="278.91"/><line class="bdf2948e-46f4-4d92-8e91-d3f00852dafb" x1="1567.5" y1="321.39" x2="1600.95" y2="321.39"/><line class="bdf2948e-46f4-4d92-8e91-d3f00852dafb" x1="1567.5" y1="363.87" x2="1600.95" y2="363.87"/><line class="bdf2948e-46f4-4d92-8e91-d3f00852dafb" x1="1567.5" y1="406.36" x2="1620.06" y2="406.36"/><line class="bdf2948e-46f4-4d92-8e91-d3f00852dafb" x1="1567.5" y1="448.84" x2="1600.95" y2="448.84"/><line class="bdf2948e-46f4-4d92-8e91-d3f00852dafb" x1="1567.5" y1="491.32" x2="1600.95" y2="491.32"/><line class="bdf2948e-46f4-4d92-8e91-d3f00852dafb" x1="1567.5" y1="533.81" x2="1600.95" y2="533.81"/><line class="bdf2948e-46f4-4d92-8e91-d3f00852dafb" x1="1567.5" y1="576.29" x2="1620.06" y2="576.29"/><line class="bdf2948e-46f4-4d92-8e91-d3f00852dafb" x1="1567.5" y1="618.77" x2="1600.95" y2="618.77"/><line class="bdf2948e-46f4-4d92-8e91-d3f00852dafb" x1="1567.5" y1="661.25" x2="1600.95" y2="661.25"/><line class="bdf2948e-46f4-4d92-8e91-d3f00852dafb" x1="1567.5" y1="703.74" x2="1600.95" y2="703.74"/><line class="bdf2948e-46f4-4d92-8e91-d3f00852dafb" x1="1567.5" y1="746.22" x2="1620.06" y2="746.22"/><line class="bdf2948e-46f4-4d92-8e91-d3f00852dafb" x1="1567.5" y1="788.7" x2="1600.95" y2="788.7"/><line class="bdf2948e-46f4-4d92-8e91-d3f00852dafb" x1="1567.5" y1="831.18" x2="1600.95" y2="831.18"/><line class="bdf2948e-46f4-4d92-8e91-d3f00852dafb" x1="1567.5" y1="873.67" x2="1600.95" y2="873.67"/><line class="bdf2948e-46f4-4d92-8e91-d3f00852dafb" x1="1567.5" y1="916.15" x2="1620.06" y2="916.15"/><line class="bdf2948e-46f4-4d92-8e91-d3f00852dafb" x1="1567.5" y1="958.63" x2="1600.95" y2="958.63"/></g><path class="b3b9fc19-c4ea-4705-85f6-498b60747a77" d="M1512.6,403.78h-17.18v-2.41a42.48,42.48,0,0,0-42.49-42.48V602.27H1485a10.41,10.41,0,0,0,10.41-10.41V425.12h6.51V668.19a10.67,10.67,0,0,0,21.34,0V414.45A10.67,10.67,0,0,0,1512.6,403.78Z"/><path class="b3b9fc19-c4ea-4705-85f6-498b60747a77" d="M1452.93,1157.69a39,39,0,0,0,39-39V469.89h-39v687.8Z"/><path class="b3b9fc19-c4ea-4705-85f6-498b60747a77" d="M1413.91,1118.67a39,39,0,0,0,39,39V469.89h-39Z"/><path class="fe4ee811-8a64-460a-b7e7-103daa95f760" d="M1452.93,1144.41a39,39,0,0,0,39-39V456.61h-39v687.8Z"/><path class="a4b51f2b-b55d-4a91-a6d8-2c8138118605" d="M1413.91,1105.39a39,39,0,0,0,39,39V456.61h-39Z"/><path class="f52f32ed-c1e9-433f-a289-9373376b9c28" d="M1410.45,390.68V581.17a10.41,10.41,0,0,0,10.41,10.41h32.07V348.19A42.48,42.48,0,0,0,1410.45,390.68Z"/><path class="e26a3180-427e-44b8-9943-4d94523e34fe" d="M1512.6,393.09h-17.18v-2.41a42.49,42.49,0,0,0-42.49-42.49V591.58H1485a10.41,10.41,0,0,0,10.41-10.41V414.43h6.51V657.5a10.67,10.67,0,0,0,21.34,0V403.76A10.67,10.67,0,0,0,1512.6,393.09Z"/><rect class="b3b9fc19-c4ea-4705-85f6-498b60747a77" x="142.8" y="126.99" width="138.03" height="138.03" rx="13.75" transform="translate(43.26 -38.24) rotate(11.48)"/><rect class="b527d2b2-aca5-4b65-a04d-b4a6cb861939" x="142.8" y="122.87" width="138.03" height="138.03" rx="13.75" transform="translate(42.44 -38.32) rotate(11.48)"/><line class="b9c967ef-c591-4c89-a23d-c1e5f10172e7" x1="164.66" y1="124.94" x2="173.59" y2="126.76"/><line class="b9c967ef-c591-4c89-a23d-c1e5f10172e7" x1="161.47" y1="140.66" x2="170.4" y2="142.47"/><line class="b9c967ef-c591-4c89-a23d-c1e5f10172e7" x1="158.26" y1="156.43" x2="167.19" y2="158.25"/><line class="b9c967ef-c591-4c89-a23d-c1e5f10172e7" x1="155.07" y1="172.14" x2="164" y2="173.96"/><line class="b9c967ef-c591-4c89-a23d-c1e5f10172e7" x1="151.87" y1="187.92" x2="160.8" y2="189.73"/><line class="b9c967ef-c591-4c89-a23d-c1e5f10172e7" x1="148.67" y1="203.63" x2="157.61" y2="205.45"/><line class="b9c967ef-c591-4c89-a23d-c1e5f10172e7" x1="145.47" y1="219.41" x2="154.4" y2="221.22"/><line class="b9c967ef-c591-4c89-a23d-c1e5f10172e7" x1="142.28" y1="235.12" x2="151.21" y2="236.93"/><line class="b9c967ef-c591-4c89-a23d-c1e5f10172e7" x1="182.53" y1="128.57" x2="191.46" y2="130.39"/><line class="b9c967ef-c591-4c89-a23d-c1e5f10172e7" x1="179.34" y1="144.29" x2="188.27" y2="146.1"/><line class="b9c967ef-c591-4c89-a23d-c1e5f10172e7" x1="176.14" y1="160.06" x2="185.07" y2="161.88"/><line class="b9c967ef-c591-4c89-a23d-c1e5f10172e7" x1="172.94" y1="175.77" x2="181.88" y2="177.59"/><line class="b9c967ef-c591-4c89-a23d-c1e5f10172e7" x1="169.74" y1="191.55" x2="178.67" y2="193.36"/><line class="b9c967ef-c591-4c89-a23d-c1e5f10172e7" x1="166.55" y1="207.26" x2="175.48" y2="209.08"/><line class="b9c967ef-c591-4c89-a23d-c1e5f10172e7" x1="163.34" y1="223.04" x2="172.27" y2="224.85"/><line class="b9c967ef-c591-4c89-a23d-c1e5f10172e7" x1="160.15" y1="238.75" x2="169.08" y2="240.56"/><line class="b9c967ef-c591-4c89-a23d-c1e5f10172e7" x1="200.01" y1="132.12" x2="208.94" y2="133.94"/><line class="b9c967ef-c591-4c89-a23d-c1e5f10172e7" x1="196.82" y1="147.84" x2="205.75" y2="149.65"/><line class="b9c967ef-c591-4c89-a23d-c1e5f10172e7" x1="193.61" y1="163.61" x2="202.54" y2="165.43"/><line class="b9c967ef-c591-4c89-a23d-c1e5f10172e7" x1="190.42" y1="179.32" x2="199.35" y2="181.14"/><line class="b9c967ef-c591-4c89-a23d-c1e5f10172e7" x1="187.22" y1="195.1" x2="196.15" y2="196.91"/><line class="b9c967ef-c591-4c89-a23d-c1e5f10172e7" x1="184.02" y1="210.81" x2="192.95" y2="212.63"/><line class="b9c967ef-c591-4c89-a23d-c1e5f10172e7" x1="180.82" y1="226.59" x2="189.75" y2="228.4"/><line class="b9c967ef-c591-4c89-a23d-c1e5f10172e7" x1="177.63" y1="242.3" x2="186.56" y2="244.11"/><line class="b9c967ef-c591-4c89-a23d-c1e5f10172e7" x1="217.88" y1="135.75" x2="226.81" y2="137.57"/><line class="b9c967ef-c591-4c89-a23d-c1e5f10172e7" x1="214.69" y1="151.47" x2="223.62" y2="153.28"/><line class="b9c967ef-c591-4c89-a23d-c1e5f10172e7" x1="211.48" y1="167.24" x2="220.42" y2="169.06"/><line class="b9c967ef-c591-4c89-a23d-c1e5f10172e7" x1="208.29" y1="182.96" x2="217.22" y2="184.77"/><line class="b9c967ef-c591-4c89-a23d-c1e5f10172e7" x1="205.09" y1="198.73" x2="214.02" y2="200.54"/><line class="b9c967ef-c591-4c89-a23d-c1e5f10172e7" x1="201.9" y1="214.44" x2="210.83" y2="216.26"/><line class="b9c967ef-c591-4c89-a23d-c1e5f10172e7" x1="198.69" y1="230.22" x2="207.62" y2="232.03"/><line class="b9c967ef-c591-4c89-a23d-c1e5f10172e7" x1="195.5" y1="245.93" x2="204.43" y2="247.74"/><line class="b9c967ef-c591-4c89-a23d-c1e5f10172e7" x1="235.99" y1="139.43" x2="244.92" y2="141.25"/><line class="b9c967ef-c591-4c89-a23d-c1e5f10172e7" x1="232.8" y1="155.15" x2="241.73" y2="156.96"/><line class="b9c967ef-c591-4c89-a23d-c1e5f10172e7" x1="229.59" y1="170.92" x2="238.52" y2="172.73"/><line class="b9c967ef-c591-4c89-a23d-c1e5f10172e7" x1="226.4" y1="186.63" x2="235.33" y2="188.45"/><line class="b9c967ef-c591-4c89-a23d-c1e5f10172e7" x1="223.2" y1="202.41" x2="232.13" y2="204.22"/><line class="b9c967ef-c591-4c89-a23d-c1e5f10172e7" x1="220" y1="218.12" x2="228.94" y2="219.94"/><line class="b9c967ef-c591-4c89-a23d-c1e5f10172e7" x1="216.8" y1="233.9" x2="225.73" y2="235.71"/><line class="b9c967ef-c591-4c89-a23d-c1e5f10172e7" x1="213.61" y1="249.61" x2="222.54" y2="251.42"/><line class="b9c967ef-c591-4c89-a23d-c1e5f10172e7" x1="253.86" y1="143.06" x2="262.79" y2="144.88"/><line class="b9c967ef-c591-4c89-a23d-c1e5f10172e7" x1="250.67" y1="158.78" x2="259.6" y2="160.59"/><line class="b9c967ef-c591-4c89-a23d-c1e5f10172e7" x1="247.47" y1="174.55" x2="256.4" y2="176.37"/><line class="b9c967ef-c591-4c89-a23d-c1e5f10172e7" x1="244.27" y1="190.26" x2="253.21" y2="192.08"/><line class="b9c967ef-c591-4c89-a23d-c1e5f10172e7" x1="241.07" y1="206.04" x2="250" y2="207.85"/><line class="b9c967ef-c591-4c89-a23d-c1e5f10172e7" x1="237.88" y1="221.75" x2="246.81" y2="223.57"/><line class="b9c967ef-c591-4c89-a23d-c1e5f10172e7" x1="234.67" y1="237.53" x2="243.61" y2="239.34"/><line class="b9c967ef-c591-4c89-a23d-c1e5f10172e7" x1="231.48" y1="253.24" x2="240.41" y2="255.05"/><line class="b9c967ef-c591-4c89-a23d-c1e5f10172e7" x1="271.34" y1="146.61" x2="280.27" y2="148.43"/><line class="b9c967ef-c591-4c89-a23d-c1e5f10172e7" x1="268.15" y1="162.33" x2="277.08" y2="164.14"/><line class="b9c967ef-c591-4c89-a23d-c1e5f10172e7" x1="264.94" y1="178.1" x2="273.87" y2="179.91"/><line class="b9c967ef-c591-4c89-a23d-c1e5f10172e7" x1="261.75" y1="193.81" x2="270.68" y2="195.63"/><line class="b9c967ef-c591-4c89-a23d-c1e5f10172e7" x1="258.55" y1="209.59" x2="267.48" y2="211.4"/><line class="b9c967ef-c591-4c89-a23d-c1e5f10172e7" x1="255.35" y1="225.3" x2="264.29" y2="227.12"/><line class="b9c967ef-c591-4c89-a23d-c1e5f10172e7" x1="252.15" y1="241.08" x2="261.08" y2="242.89"/><line class="b9c967ef-c591-4c89-a23d-c1e5f10172e7" x1="248.96" y1="256.79" x2="257.89" y2="258.6"/><rect class="b3b9fc19-c4ea-4705-85f6-498b60747a77" x="498.71" y="562.75" width="44.94" height="115.79" rx="21.04" transform="translate(-274.13 464.7) rotate(-38.89)"/><rect class="b59282b0-3c94-4239-b0cb-10e630cf8397" x="498.71" y="552.27" width="44.94" height="115.79" rx="21.04" transform="translate(-267.55 462.38) rotate(-38.89)"/><circle class="fcb97c74-ad73-4f22-aa5b-06cf5821194b" cx="486.47" cy="587.74" r="0.64"/><circle class="fcb97c74-ad73-4f22-aa5b-06cf5821194b" cx="511.97" cy="581.25" r="0.64"/><circle class="fcb97c74-ad73-4f22-aa5b-06cf5821194b" cx="499.17" cy="599.38" r="0.64"/><circle class="fcb97c74-ad73-4f22-aa5b-06cf5821194b" cx="516.37" cy="596.82" r="0.64"/><circle class="fcb97c74-ad73-4f22-aa5b-06cf5821194b" cx="510.93" cy="622.56" r="0.64"/><circle class="fcb97c74-ad73-4f22-aa5b-06cf5821194b" cx="539.62" cy="613.11" r="0.64"/><circle class="fcb97c74-ad73-4f22-aa5b-06cf5821194b" cx="537.39" cy="631.94" r="0.64"/><circle class="fcb97c74-ad73-4f22-aa5b-06cf5821194b" cx="559.15" cy="633.86" r="0.64"/><rect class="b3b9fc19-c4ea-4705-85f6-498b60747a77" x="491.52" y="875.42" width="44.94" height="115.79" rx="21.04" transform="translate(328.19 1982.48) rotate(-141.11)"/><rect class="b59282b0-3c94-4239-b0cb-10e630cf8397" x="491.52" y="864.94" width="44.94" height="115.79" rx="21.04" transform="translate(334.76 1963.85) rotate(-141.11)"/><circle class="fcb97c74-ad73-4f22-aa5b-06cf5821194b" cx="548.7" cy="900.42" r="0.64"/><circle class="fcb97c74-ad73-4f22-aa5b-06cf5821194b" cx="523.19" cy="893.93" r="0.64"/><circle class="fcb97c74-ad73-4f22-aa5b-06cf5821194b" cx="536" cy="912.06" r="0.64"/><circle class="fcb97c74-ad73-4f22-aa5b-06cf5821194b" cx="518.79" cy="909.5" r="0.64"/><circle class="fcb97c74-ad73-4f22-aa5b-06cf5821194b" cx="524.24" cy="935.23" r="0.64"/><circle class="fcb97c74-ad73-4f22-aa5b-06cf5821194b" cx="495.54" cy="925.79" r="0.64"/><circle class="fcb97c74-ad73-4f22-aa5b-06cf5821194b" cx="497.78" cy="944.61" r="0.64"/><circle class="fcb97c74-ad73-4f22-aa5b-06cf5821194b" cx="476.02" cy="946.53" r="0.64"/><path class="b3b9fc19-c4ea-4705-85f6-498b60747a77" d="M532.46,696.09c-3.21-4-7.87-9.55-5.93-14.39,1.52-3.79,6.87-6.52,11-5.59,4.63,1,6.69,6.43,8.46,10.39,5,11.16,14.12,20.25,21.17,30.38,3,4.33,9.07,12,21.17,27.18,12.51,15.74,14.94,18.34,22.86,28.77,10,13.11,8.34,11.92,15.24,20.79,13.39,17.18,20.08,25.77,30.49,35.17s17.76,13.62,16.93,20a10.82,10.82,0,0,1-8.47,8.8c-6.2.94-12-5.94-16.93-12-17.82-21.79-26.74-32.68-35.56-44-12.75-16.3-12.07-11.67-27.95-31.17s-11.78-18.24-29.63-40.77C546.88,719,541,706.71,532.46,696.09Z"/><path class="a67f52f4-388c-498b-bd84-260efffa990c" d="M532.46,691.78c-3.21-4-7.87-9.56-5.93-14.39,1.52-3.8,6.87-6.53,11-5.6,4.63,1,6.69,6.43,8.46,10.39,5,11.16,14.12,20.25,21.17,30.38,3,4.34,9.07,12,21.17,27.18,12.51,15.74,14.94,18.34,22.86,28.78,10,13.11,8.34,11.91,15.24,20.78,13.39,17.18,20.08,25.77,30.49,35.17s17.76,13.62,16.93,20a10.81,10.81,0,0,1-8.47,8.79c-6.2,1-12-5.94-16.93-12-17.82-21.79-26.74-32.68-35.56-44C600.15,781,600.83,785.63,585,766.12s-11.78-18.24-29.63-40.77C546.88,714.69,541,702.39,532.46,691.78Z"/><path class="f9222136-545d-4504-9e2e-0367f47016bc" d="M547,685.49a.78.78,0,0,1,.9.66.82.82,0,0,1-1.1.42A.72.72,0,0,1,547,685.49Z"/><path class="f9222136-545d-4504-9e2e-0367f47016bc" d="M539.28,700.71c.37-.18,1,.4.9.88s-.79.88-1.1.57A1.18,1.18,0,0,1,539.28,700.71Z"/><path class="f9222136-545d-4504-9e2e-0367f47016bc" d="M549.81,702.72c.32-.18.83.41.79.89s-.7.87-1,.56S549.47,702.9,549.81,702.72Z"/><path class="f9222136-545d-4504-9e2e-0367f47016bc" d="M565.78,738.78c.33-.17.83.41.79.89s-.7.87-1,.56A1.28,1.28,0,0,1,565.78,738.78Z"/><path class="f9222136-545d-4504-9e2e-0367f47016bc" d="M555.89,715.32c.33-.18.83.41.79.88s-.7.88-1,.57A1.28,1.28,0,0,1,555.89,715.32Z"/><path class="f9222136-545d-4504-9e2e-0367f47016bc" d="M565.23,727.08c.32-.18.82.41.78.88s-.69.88-1,.57A1.28,1.28,0,0,1,565.23,727.08Z"/><path class="f9222136-545d-4504-9e2e-0367f47016bc" d="M579.69,727.88c.32-.18.83.41.79.88s-.7.88-1,.57S579.35,728.06,579.69,727.88Z"/><path class="f9222136-545d-4504-9e2e-0367f47016bc" d="M587.43,745.35c.33-.18.83.41.79.88s-.7.88-1,.57S587.09,745.53,587.43,745.35Z"/><path class="f9222136-545d-4504-9e2e-0367f47016bc" d="M599.46,753.93c.33-.18.83.41.79.88s-.7.88-1,.57A1.3,1.3,0,0,1,599.46,753.93Z"/><path class="f9222136-545d-4504-9e2e-0367f47016bc" d="M593.69,775.42c.33-.18.83.41.79.88s-.7.88-1,.57S593.35,775.6,593.69,775.42Z"/><path class="f9222136-545d-4504-9e2e-0367f47016bc" d="M609.88,766.82c.32-.17.83.41.79.89s-.7.87-1,.56A1.3,1.3,0,0,1,609.88,766.82Z"/><path class="f9222136-545d-4504-9e2e-0367f47016bc" d="M621,781.87c.32-.18.83.41.79.88s-.7.88-1,.57A1.28,1.28,0,0,1,621,781.87Z"/><path class="f9222136-545d-4504-9e2e-0367f47016bc" d="M616.59,801.34c.32-.18.83.4.79.88s-.7.88-1,.57S616.25,801.52,616.59,801.34Z"/><path class="f9222136-545d-4504-9e2e-0367f47016bc" d="M669,834.14c.33-.17.83.41.79.89s-.7.88-1,.57A1.29,1.29,0,0,1,669,834.14Z"/><path class="f9222136-545d-4504-9e2e-0367f47016bc" d="M647.77,829.91c.33-.18.83.4.79.88s-.7.88-1,.57A1.3,1.3,0,0,1,647.77,829.91Z"/><path class="f9222136-545d-4504-9e2e-0367f47016bc" d="M654.62,848c.32-.18.83.4.79.88s-.7.88-1,.57S654.28,848.17,654.62,848Z"/><path class="f9222136-545d-4504-9e2e-0367f47016bc" d="M666.54,845.46c.32-.18.82.41.78.88s-.69.88-1,.57A1.28,1.28,0,0,1,666.54,845.46Z"/><path class="f9222136-545d-4504-9e2e-0367f47016bc" d="M658.63,834.94c.33-.17.83.41.79.89s-.69.87-1,.56A1.3,1.3,0,0,1,658.63,834.94Z"/><path class="f9222136-545d-4504-9e2e-0367f47016bc" d="M647.22,814.74c.32-.18.83.4.79.88s-.7.88-1,.57S646.88,814.92,647.22,814.74Z"/><path class="f9222136-545d-4504-9e2e-0367f47016bc" d="M636.3,807.6c.32-.18.83.4.79.88s-.7.88-1,.57S636,807.78,636.3,807.6Z"/><path class="f9222136-545d-4504-9e2e-0367f47016bc" d="M637.41,825c.33-.18.83.41.79.88s-.7.88-1,.57A1.28,1.28,0,0,1,637.41,825Z"/><path class="f9222136-545d-4504-9e2e-0367f47016bc" d="M632.24,797.54c.33-.17.83.41.79.89s-.7.87-1,.56A1.28,1.28,0,0,1,632.24,797.54Z"/><path class="f9222136-545d-4504-9e2e-0367f47016bc" d="M616,790.34c.33-.18.83.41.79.88s-.7.88-1,.57A1.28,1.28,0,0,1,616,790.34Z"/><path class="f9222136-545d-4504-9e2e-0367f47016bc" d="M607.21,779c.33-.18.83.41.79.88s-.7.88-1,.57A1.3,1.3,0,0,1,607.21,779Z"/><path class="f9222136-545d-4504-9e2e-0367f47016bc" d="M588,753.93c.33-.18.83.41.79.88s-.7.88-1,.57A1.3,1.3,0,0,1,588,753.93Z"/><path class="f9222136-545d-4504-9e2e-0367f47016bc" d="M572,747.67c.33-.17.83.41.79.89s-.7.87-1,.56A1.28,1.28,0,0,1,572,747.67Z"/><path class="f9222136-545d-4504-9e2e-0367f47016bc" d="M570,716.12c.33-.18.83.41.79.88s-.7.88-1,.57A1.28,1.28,0,0,1,570,716.12Z"/><path class="f9222136-545d-4504-9e2e-0367f47016bc" d="M538.68,688.69c.33-.18.83.4.79.88s-.7.88-1,.57A1.28,1.28,0,0,1,538.68,688.69Z"/><path class="f9222136-545d-4504-9e2e-0367f47016bc" d="M527.06,683.53a.63.63,0,0,1,.73.54.67.67,0,0,1-.89.34A.59.59,0,0,1,527.06,683.53Z"/><path class="b3b9fc19-c4ea-4705-85f6-498b60747a77" d="M1469.18,159.72c2.69-4.36,6.63-10.45,4.11-15-2-3.58-7.61-5.63-11.61-4.2-4.46,1.6-5.85,7.2-7.12,11.35-3.6,11.69-11.53,21.83-17.29,32.75-2.46,4.67-7.53,13-17.67,29.57-10.48,17.16-12.57,20-19.16,31.36-8.27,14.24-6.81,12.85-12.58,22.5-11.17,18.69-16.76,28-25.93,38.65s-16,15.69-14.36,21.91a10.82,10.82,0,0,0,9.48,7.68c6.28.18,11.17-7.36,15.34-14,15-23.81,22.52-35.71,29.9-48,10.65-17.74,10.55-13.06,23.91-34.37,13.26-21.15,9.46-19.54,24.41-44.09C1457.68,184.24,1462,171.3,1469.18,159.72Z"/><path class="a67f52f4-388c-498b-bd84-260efffa990c" d="M1468.65,155.44c2.69-4.37,6.63-10.45,4.12-15-2-3.58-7.62-5.64-11.62-4.2-4.46,1.6-5.85,7.2-7.12,11.35-3.6,11.69-11.53,21.83-17.29,32.74-2.46,4.68-7.53,13-17.67,29.57-10.48,17.16-12.57,20-19.16,31.37-8.27,14.23-6.81,12.84-12.58,22.49-11.17,18.69-16.76,28-25.93,38.65s-16,15.7-14.36,21.91a10.84,10.84,0,0,0,9.48,7.69c6.28.18,11.17-7.37,15.34-14,15-23.81,22.52-35.71,29.9-48,10.65-17.74,10.55-13.06,23.91-34.36s9.46-19.55,24.41-44.1C1457.15,180,1461.51,167,1468.65,155.44Z"/><path class="f9222136-545d-4504-9e2e-0367f47016bc" d="M1453.48,151c-.39-.08-.9.42-.81.76a.81.81,0,0,0,1.13.29A.72.72,0,0,0,1453.48,151Z"/><path class="f9222136-545d-4504-9e2e-0367f47016bc" d="M1463,165.14c-.39-.13-.89.52-.78,1s.89.78,1.15.43A1.16,1.16,0,0,0,1463,165.14Z"/><path class="f9222136-545d-4504-9e2e-0367f47016bc" d="M1452.77,168.43c-.34-.14-.77.5-.67,1s.8.79,1,.45A1.29,1.29,0,0,0,1452.77,168.43Z"/><path class="f9222136-545d-4504-9e2e-0367f47016bc" d="M1441.34,206.18c-.35-.14-.77.5-.67,1s.8.78,1,.44A1.27,1.27,0,0,0,1441.34,206.18Z"/><path class="f9222136-545d-4504-9e2e-0367f47016bc" d="M1448.28,181.68c-.35-.14-.77.5-.68,1s.81.79,1,.45A1.29,1.29,0,0,0,1448.28,181.68Z"/><path class="f9222136-545d-4504-9e2e-0367f47016bc" d="M1440.46,194.49c-.35-.13-.78.51-.68,1s.8.78,1,.44A1.29,1.29,0,0,0,1440.46,194.49Z"/><path class="f9222136-545d-4504-9e2e-0367f47016bc" d="M1426.2,197.06c-.34-.13-.77.51-.67,1s.8.79,1,.45A1.29,1.29,0,0,0,1426.2,197.06Z"/><path class="f9222136-545d-4504-9e2e-0367f47016bc" d="M1420.66,215.35c-.34-.14-.77.51-.67,1s.8.79,1,.45A1.29,1.29,0,0,0,1420.66,215.35Z"/><path class="f9222136-545d-4504-9e2e-0367f47016bc" d="M1409.77,225.34c-.35-.14-.77.51-.67,1s.8.79,1,.45A1.29,1.29,0,0,0,1409.77,225.34Z"/><path class="f9222136-545d-4504-9e2e-0367f47016bc" d="M1418.14,246c-.35-.13-.77.51-.68,1s.81.79,1,.45A1.29,1.29,0,0,0,1418.14,246Z"/><path class="f9222136-545d-4504-9e2e-0367f47016bc" d="M1401,239.41c-.35-.13-.77.51-.68,1s.8.78,1,.44A1.29,1.29,0,0,0,1401,239.41Z"/><path class="f9222136-545d-4504-9e2e-0367f47016bc" d="M1391.82,255.71c-.35-.13-.77.51-.68,1s.81.79,1,.45A1.29,1.29,0,0,0,1391.82,255.71Z"/><path class="f9222136-545d-4504-9e2e-0367f47016bc" d="M1398.59,274.49c-.34-.14-.77.51-.67,1s.8.79,1,.45A1.29,1.29,0,0,0,1398.59,274.49Z"/><path class="f9222136-545d-4504-9e2e-0367f47016bc" d="M1350.63,313.48c-.35-.14-.77.5-.68,1s.81.79,1,.45A1.28,1.28,0,0,0,1350.63,313.48Z"/><path class="f9222136-545d-4504-9e2e-0367f47016bc" d="M1371.15,306.67c-.35-.14-.78.51-.68,1s.8.79,1,.45A1.3,1.3,0,0,0,1371.15,306.67Z"/><path class="f9222136-545d-4504-9e2e-0367f47016bc" d="M1366.57,325.45c-.34-.13-.77.51-.67,1s.8.78,1,.44A1.29,1.29,0,0,0,1366.57,325.45Z"/><path class="f9222136-545d-4504-9e2e-0367f47016bc" d="M1354.43,324.4c-.34-.13-.77.51-.67,1s.8.78,1,.44A1.31,1.31,0,0,0,1354.43,324.4Z"/><path class="f9222136-545d-4504-9e2e-0367f47016bc" d="M1361,313c-.35-.13-.78.51-.68,1s.8.79,1,.45A1.32,1.32,0,0,0,1361,313Z"/><path class="f9222136-545d-4504-9e2e-0367f47016bc" d="M1369.84,291.55c-.35-.14-.78.5-.68,1s.8.78,1,.44A1.27,1.27,0,0,0,1369.84,291.55Z"/><path class="f9222136-545d-4504-9e2e-0367f47016bc" d="M1379.8,283.12c-.35-.14-.77.51-.68,1s.81.79,1,.45A1.29,1.29,0,0,0,1379.8,283.12Z"/><path class="f9222136-545d-4504-9e2e-0367f47016bc" d="M1380.83,300.51c-.35-.14-.78.5-.68,1s.8.79,1,.45A1.3,1.3,0,0,0,1380.83,300.51Z"/><path class="f9222136-545d-4504-9e2e-0367f47016bc" d="M1382.59,272.65c-.34-.14-.77.5-.67,1s.8.78,1,.44A1.27,1.27,0,0,0,1382.59,272.65Z"/><path class="f9222136-545d-4504-9e2e-0367f47016bc" d="M1397.8,263.51c-.35-.14-.78.5-.68,1s.8.79,1,.45A1.3,1.3,0,0,0,1397.8,263.51Z"/><path class="f9222136-545d-4504-9e2e-0367f47016bc" d="M1405.15,251.13c-.34-.13-.77.51-.67,1s.8.78,1,.44A1.29,1.29,0,0,0,1405.15,251.13Z"/><path class="f9222136-545d-4504-9e2e-0367f47016bc" d="M1421.16,223.93c-.34-.13-.77.51-.67,1s.8.79,1,.45A1.29,1.29,0,0,0,1421.16,223.93Z"/><path class="f9222136-545d-4504-9e2e-0367f47016bc" d="M1436.24,215.76c-.35-.13-.77.51-.68,1s.81.78,1,.44A1.29,1.29,0,0,0,1436.24,215.76Z"/><path class="f9222136-545d-4504-9e2e-0367f47016bc" d="M1434.36,184.2c-.34-.13-.77.51-.67,1s.8.78,1,.44A1.29,1.29,0,0,0,1434.36,184.2Z"/><path class="f9222136-545d-4504-9e2e-0367f47016bc" d="M1462.09,153.13c-.35-.13-.77.51-.67,1s.8.78,1,.44A1.29,1.29,0,0,0,1462.09,153.13Z"/><path class="f9222136-545d-4504-9e2e-0367f47016bc" d="M1473,146.6c-.31-.07-.72.33-.65.61a.66.66,0,0,0,.92.23A.58.58,0,0,0,1473,146.6Z"/><path class="b3b9fc19-c4ea-4705-85f6-498b60747a77" d="M1348.81,180.33c-7-2.8-30.88-12.37-47.56,1.94s-11,39.56-10.67,40.76c4.69,19.26,20.93,28.18,26.31,30.74,4.89,2.32,18.94,9,32.59,3.08,21.7-9.38,21.51-41.5,21.49-45.29-.07-10.62-3.23-16.18-4.17-17.73C1361.83,185.67,1354,182.4,1348.81,180.33ZM1343,219.15c-1,4.92-6.16,8.87-11.64,8.73-6.54-.15-12.17-6.1-11.65-12.61A11.63,11.63,0,0,1,1329,205C1336.58,203.75,1344.52,211.81,1343,219.15Z"/><path class="aa597211-6422-4622-8ce0-e7fd71654d45" d="M1348.81,177.63c-7-2.8-30.88-12.37-47.56,1.94s-11,39.56-10.67,40.76c4.69,19.26,20.93,28.18,26.31,30.74,4.89,2.32,18.94,9,32.59,3.08,21.7-9.38,21.51-41.5,21.49-45.29-.07-10.62-3.23-16.18-4.17-17.73C1361.83,183,1354,179.7,1348.81,177.63ZM1343,216.45c-1,4.92-6.16,8.87-11.64,8.73-6.54-.15-12.17-6.1-11.65-12.61a11.63,11.63,0,0,1,9.35-10.3C1336.58,201.05,1344.52,209.11,1343,216.45Z"/><path class="e048df54-98a3-4af7-9a47-0769ea2fe756" d="M1348.81,170.63c-13-7.51-33.56-10.25-47.56,1.94-16.78,14.62-11,39.32-10.67,40.76,6.54,26.23,38.93,46.42,60.17,36.88,15-6.75,18.77-25.86,19.41-29.11C1373.6,203.47,1367.19,181.28,1348.81,170.63ZM1343,209.45c-.84,4.63-6,8.89-11.64,8.74-6.69-.18-11.53-6.53-11.65-12.62-.08-4.1,2-9.12,5.82-10.68C1332.59,192.06,1344.46,201.33,1343,209.45Z"/><path class="b3b9fc19-c4ea-4705-85f6-498b60747a77" d="M491.83,735.4c-7-2.8-30.88-12.37-47.56,1.94s-11,39.56-10.67,40.76c4.69,19.27,20.93,28.18,26.31,30.74,4.89,2.32,18.95,9,32.6,3.08,21.69-9.38,21.5-41.49,21.48-45.29-.06-10.62-3.23-16.18-4.17-17.73C504.85,740.75,497,737.47,491.83,735.4ZM486,774.22c-1,4.92-6.16,8.87-11.64,8.74-6.54-.16-12.17-6.1-11.65-12.62a11.63,11.63,0,0,1,9.35-10.3C479.6,758.82,487.54,766.88,486,774.22Z"/><path class="aa597211-6422-4622-8ce0-e7fd71654d45" d="M491.83,732.7c-7-2.8-30.88-12.37-47.56,1.94s-11,39.56-10.67,40.76c4.69,19.27,20.93,28.18,26.31,30.74,4.89,2.32,18.95,9,32.6,3.08,21.69-9.38,21.5-41.49,21.48-45.29-.06-10.62-3.23-16.18-4.17-17.73C504.85,738.05,497,734.77,491.83,732.7ZM486,771.52c-1,4.92-6.16,8.87-11.64,8.74-6.54-.16-12.17-6.11-11.65-12.62a11.63,11.63,0,0,1,9.35-10.3C479.6,756.12,487.54,764.18,486,771.52Z"/><path class="e048df54-98a3-4af7-9a47-0769ea2fe756" d="M491.83,725.7c-13-7.5-33.56-10.25-47.56,1.94-16.78,14.62-11,39.33-10.67,40.76,6.54,26.24,38.93,46.43,60.17,36.88,15-6.75,18.77-25.86,19.41-29.11C516.62,758.55,510.21,736.35,491.83,725.7ZM486,764.52c-.84,4.63-6,8.89-11.64,8.74-6.69-.18-11.53-6.53-11.65-12.62-.08-4.1,2-9.12,5.83-10.67C475.61,747.13,487.48,756.4,486,764.52Z"/></g></svg>