<?xml version="1.0" encoding="utf-8"?>
<!-- Generator: Adobe Illustrator 23.0.1, SVG Export Plug-In . SVG Version: 6.00 Build 0)  -->
<svg version="1.1" id="Layer_1" xmlns="http://www.w3.org/2000/svg" xmlns:xlink="http://www.w3.org/1999/xlink" x="0px" y="0px"
	 viewBox="0 0 1800 864" style="enable-background:new 0 0 1800 864;" xml:space="preserve">
<style type="text/css">
	.st0{opacity:0.15;fill:#302D2E;enable-background:new    ;}
	.st1{fill:#FFFFFF;}
	.st2{opacity:0.1;}
	.st3{fill:none;stroke:#000000;stroke-width:5.4667;stroke-linecap:round;stroke-miterlimit:10;}
	.st4{fill:none;stroke:#000000;stroke-width:5.4667;stroke-linecap:round;stroke-miterlimit:10;stroke-dasharray:0.6118,39.6338;}
	.st5{opacity:0.5;}
	
		.st6{opacity:0.58;fill:none;stroke:#5F5A52;stroke-width:6.007;stroke-linecap:round;stroke-miterlimit:10;enable-background:new    ;}
	
		.st7{opacity:0.58;fill:none;stroke:#5F5A52;stroke-width:5.6972;stroke-linecap:round;stroke-miterlimit:10;enable-background:new    ;}
	
		.st8{opacity:0.58;fill:none;stroke:#5F5A52;stroke-width:8.4464;stroke-linecap:round;stroke-miterlimit:10;enable-background:new    ;}
	
		.st9{opacity:0.58;fill:none;stroke:#5F5A52;stroke-width:7.8028;stroke-linecap:round;stroke-miterlimit:10;enable-background:new    ;}
	.st10{fill:#302D2E;}
	.st11{opacity:0.24;fill:#6D6767;stroke:#302D2E;stroke-width:0.5613;stroke-miterlimit:10;enable-background:new    ;}
	.st12{opacity:2.000000e-02;enable-background:new    ;}
	
		.st13{opacity:0.24;fill:#302D2E;stroke:#6D6767;stroke-width:5.143;stroke-linecap:round;stroke-miterlimit:10;enable-background:new    ;}
	
		.st14{opacity:0.7;fill:none;stroke:#F5876C;stroke-width:14.3368;stroke-linecap:round;stroke-miterlimit:10;enable-background:new    ;}
	
		.st15{opacity:0.54;fill:none;stroke:#000000;stroke-width:9.6489;stroke-linecap:round;stroke-miterlimit:10;enable-background:new    ;}
	
		.st16{opacity:0.24;fill:none;stroke:#000000;stroke-width:9.6489;stroke-linecap:round;stroke-miterlimit:10;enable-background:new    ;}
	
		.st17{opacity:0.24;fill:none;stroke:#000000;stroke-width:3.8611;stroke-linecap:round;stroke-miterlimit:10;enable-background:new    ;}
	
		.st18{opacity:0.24;fill:none;stroke:#000000;stroke-width:2.5715;stroke-linecap:round;stroke-miterlimit:10;enable-background:new    ;}
	.st19{opacity:0.7;fill:#F5876C;enable-background:new    ;}
	.st20{fill:#F5876C;}
	.st21{fill:#FFE187;}
	.st22{fill:#F6D882;}
	.st23{fill:none;stroke:#FFFFFF;stroke-width:2.6853;stroke-miterlimit:10;}
	.st24{fill:#A9ABAE;}
	.st25{fill:#B6B8BA;}
	.st26{fill:#414042;}
	.st27{fill:#C49952;}
	
		.st28{opacity:0.5;fill:none;stroke:#9C7E47;stroke-width:4.4224;stroke-linecap:round;stroke-miterlimit:10;enable-background:new    ;}
	.st29{fill:#FDBB5D;}
	.st30{opacity:0.1;fill:#948064;enable-background:new    ;}
	.st31{fill:#735E3F;}
	.st32{fill:#E8DFD3;stroke:#E8DFD3;stroke-width:0.9535;stroke-miterlimit:10;}
	.st33{fill:#FEC77C;}
	.st34{fill:#FFD499;}
</style>
<path class="st0" d="M333.6,80h1161.1v740.4H333.6V80z"/>
<path class="st1" d="M333.6,65.8h1161.1v740.4H333.6V65.8z"/>
<g class="st2">
	<path class="st3" d="M411.2,131.1h0.3"/>
	<path class="st4" d="M451.1,131.1h945.9"/>
	<path class="st3" d="M1416.9,131.1h0.3"/>
</g>
<g class="st2">
	<path class="st3" d="M411.2,207.3h0.3"/>
	<path class="st4" d="M451.1,207.3h945.9"/>
	<path class="st3" d="M1416.9,207.3h0.3"/>
</g>
<g class="st2">
	<path class="st3" d="M411.2,245.5h0.3"/>
	<path class="st4" d="M451.1,245.5h945.9"/>
	<path class="st3" d="M1416.9,245.5h0.3"/>
</g>
<g class="st2">
	<path class="st3" d="M411.2,169.2h0.3"/>
	<path class="st4" d="M451.1,169.2h945.9"/>
	<path class="st3" d="M1416.9,169.2h0.3"/>
</g>
<g class="st2">
	<path class="st3" d="M411.2,283.6h0.3"/>
	<path class="st4" d="M451.1,283.6h945.9"/>
	<path class="st3" d="M1416.9,283.6h0.3"/>
</g>
<g class="st2">
	<path class="st3" d="M411.2,359.8h0.3"/>
	<path class="st4" d="M451.1,359.8h945.9"/>
	<path class="st3" d="M1416.9,359.8h0.3"/>
</g>
<g class="st2">
	<path class="st3" d="M411.2,397.9h0.3"/>
	<path class="st4" d="M451.1,397.9h945.9"/>
	<path class="st3" d="M1416.9,397.9h0.3"/>
</g>
<g class="st2">
	<path class="st3" d="M411.2,321.7h0.3"/>
	<path class="st4" d="M451.1,321.7h945.9"/>
	<path class="st3" d="M1416.9,321.7h0.3"/>
</g>
<g class="st2">
	<path class="st3" d="M411.2,436h0.3"/>
	<path class="st4" d="M451.1,436h945.9"/>
	<path class="st3" d="M1416.9,436h0.3"/>
</g>
<g class="st2">
	<path class="st3" d="M411.2,512.2h0.3"/>
	<path class="st4" d="M451.1,512.2h945.9"/>
	<path class="st3" d="M1416.9,512.2h0.3"/>
</g>
<g class="st2">
	<path class="st3" d="M411.2,550.3h0.3"/>
	<path class="st4" d="M451.1,550.3h945.9"/>
	<path class="st3" d="M1416.9,550.3h0.3"/>
</g>
<g class="st2">
	<path class="st3" d="M411.2,474.1h0.3"/>
	<path class="st4" d="M451.1,474.1h945.9"/>
	<path class="st3" d="M1416.9,474.1h0.3"/>
</g>
<g class="st2">
	<path class="st3" d="M411.2,588.4h0.3"/>
	<path class="st4" d="M451.1,588.4h945.9"/>
	<path class="st3" d="M1416.9,588.4h0.3"/>
</g>
<g class="st2">
	<path class="st3" d="M411.2,664.7h0.3"/>
	<path class="st4" d="M451.1,664.7h945.9"/>
	<path class="st3" d="M1416.9,664.7h0.3"/>
</g>
<g class="st2">
	<path class="st3" d="M411.2,702.8h0.3"/>
	<path class="st4" d="M451.1,702.8h945.9"/>
	<path class="st3" d="M1416.9,702.8h0.3"/>
</g>
<g class="st2">
	<path class="st3" d="M411.2,740.9h0.3"/>
	<path class="st4" d="M451.1,740.9h945.9"/>
	<path class="st3" d="M1416.9,740.9h0.3"/>
</g>
<g class="st2">
	<path class="st3" d="M411.2,626.6h0.3"/>
	<path class="st4" d="M451.1,626.6h945.9"/>
	<path class="st3" d="M1416.9,626.6h0.3"/>
</g>
<g class="st5">
	<path class="st6" d="M1080.2,691.7c158,1.3,221.1,2.8,225.6,4.3c2.3,0.9,4.9,0.9,7.2,0.2c2-0.8,3.7-2.1,5-3.7
		c9.8-11.8,6.9-469.1,10.3-480.1c0.1-0.4,1.3-3.7,0-5.8c-1.3-1.9-4-1.8-4.9-1.8c-3.6,0-209.9,2.6-223.6-2.6c-0.6-0.2-3.4-1.4-5.3,0
		c-2.8,2.1-1.9,8.3-1.8,9.2c1,9.2-4.3,177.7-12.8,424.5"/>
	<g>
		<path class="st7" d="M1120.2,444.9c33.5,0.1,46.9,0.3,47.9,0.4c0.5,0.1,1,0.1,1.5,0c0.4-0.1,0.7-0.2,1.1-0.4
			c2.1-1.2,1.5-48.2,2.2-49.3c0,0,0.3-0.4,0-0.6c-0.3-0.2-0.7-0.2-1-0.2c-0.8,0-44.6,0.3-47.5-0.3c-0.4-0.1-0.8-0.1-1.1,0
			c-0.6,0.2-0.4,0.9-0.4,0.9c0.2,0.9-0.9,18.3-2.7,43.6"/>
		<path class="st7" d="M1234.9,544.9c33.5,0.1,46.9,0.3,47.9,0.4c0.5,0.1,1,0.1,1.5,0c0.4-0.1,0.7-0.2,1.1-0.4
			c2.1-1.2,1.5-48.2,2.2-49.3c0,0,0.3-0.4,0-0.6c-0.3-0.1-0.7-0.2-1-0.2c-0.8,0-44.6,0.3-47.5-0.3c-0.4-0.1-0.8-0.1-1.1,0
			c-0.6,0.2-0.4,0.9-0.4,0.9c0.2,0.9-0.9,18.3-2.7,43.6"/>
		<path class="st7" d="M1138.8,229.2h34.2"/>
		<path class="st7" d="M1203,396.2h83.8"/>
		<path class="st7" d="M1203,420h83.8"/>
		<path class="st7" d="M1124.3,496.1h83.8"/>
		<path class="st7" d="M1124.3,520h83.8"/>
		<path class="st7" d="M1199.2,595h83.8"/>
		<path class="st7" d="M1199.2,619.9h41.9"/>
		<path class="st7" d="M1213.7,227.1h21.2"/>
		<path class="st7" d="M1255.2,228.2h24.5"/>
		<path class="st7" d="M1294.3,227.1h21.2"/>
		<path class="st7" d="M1144.2,598.9c-9.3,1.6-17,8.4-19.1,17.4c-3.9,17,13.3,37.3,23.8,33.8c9.1-3,15.3-24.5,9.5-39.9
			c-5.3-14.1-20.2-21.5-34.2-14.3"/>
	</g>
</g>
<g class="st5">
	<path class="st8" d="M411.8,147.9c-1.6,252.1-3.5,352.8-5.3,359.9c-1.1,3.7-1.2,7.7-0.2,11.5c0.9,3,2.5,5.7,4.6,8
		c14.7,15.7,581.3,11,594.9,16.4c0.5,0.2,4.6,2.1,7.2-0.1c2.3-2,2.2-6.4,2.2-7.8c-0.1-5.7-3.3-334.9,3.2-356.7
		c0.3-0.9,1.8-5.4,0-8.4c-2.6-4.4-10.3-3-11.4-2.8c-11.3,1.6-220.2-6.9-526-20.5"/>
	<g>
		<path class="st9" d="M483.9,505.3c55.7,0.2,77.9,0.5,79.5,0.7c0.8,0.1,1.7,0.1,2.5,0c0.6-0.1,1.2-0.3,1.8-0.6
			c3.5-2,2.4-78.1,3.6-80c0-0.1,0.5-0.6,0-1c-0.5-0.2-1.1-0.3-1.7-0.3c-1.3,0-74,0.4-78.8-0.4c-0.6-0.1-1.3-0.1-1.9,0
			c-1,0.3-0.7,1.4-0.6,1.5c0.3,1.5-1.5,29.6-4.5,70.7"/>
		<path class="st9" d="M453.7,201.3h94.4"/>
		<path class="st9" d="M611.4,450.7h328.5"/>
		<path class="st9" d="M611.4,488.8h206"/>
		<path class="st9" d="M939.9,202.2h35"/>
		<path class="st9" d="M849.9,202.2h35"/>
		<path class="st9" d="M776.6,201.5h35"/>
	</g>
</g>
<path class="st0" d="M53.1,281.6h209.7c16.5,0,29.9,13.4,29.9,29.9v517.2c0,16.5-13.4,29.9-29.9,29.9H53.1
	c-16.5,0-29.9-13.4-29.9-29.9V311.5C23.2,295,36.6,281.6,53.1,281.6z"/>
<path class="st10" d="M53.1,269h209.7c16.5,0,29.9,13.4,29.9,29.9v517.2c0,16.5-13.4,29.9-29.9,29.9H53.1
	c-16.5,0-29.9-13.4-29.9-29.9V298.9C23.2,282.4,36.6,269,53.1,269z"/>
<ellipse class="st11" cx="158" cy="818.2" rx="20.6" ry="21.5"/>
<path class="st11" d="M35.1,321.4h246.5v464.8H35.1L35.1,321.4z"/>
<path class="st1" d="M42.6,329.9h231.5v447.8H42.6V329.9z"/>
<path class="st12" d="M42.6,394.2h231.5v115.2H42.6V394.2z"/>
<path class="st13" d="M137.3,299.5h36.1"/>
<path class="st14" d="M143.5,491.2h34.8"/>
<path class="st15" d="M238.6,356.2h24.2"/>
<path class="st16" d="M192.5,356.2h24.2"/>
<path class="st16" d="M144.5,356.2h24.2"/>
<path class="st17" d="M96,467.6h129.8"/>
<path class="st17" d="M96,451.8h129.8"/>
<path class="st18" d="M55.1,613h129.8"/>
<path class="st18" d="M55.1,597.2h129.8"/>
<path class="st18" d="M55.1,620.9h84.4"/>
<path class="st18" d="M55.1,605.1h129.8"/>
<path class="st18" d="M130.3,551.8h129.8"/>
<path class="st18" d="M130.3,536h129.8"/>
<path class="st18" d="M130.3,559.7h84.4"/>
<path class="st18" d="M130.3,543.9h129.8"/>
<path class="st19" d="M55.1,528.8h46.8v37H55.1L55.1,528.8z"/>
<path class="st18" d="M130.3,679.6h129.8"/>
<path class="st18" d="M130.3,663.8h129.8"/>
<path class="st18" d="M130.3,687.5h84.4"/>
<path class="st18" d="M130.3,671.7h129.8"/>
<path class="st19" d="M55.1,656.6h46.8v37H55.1L55.1,656.6z"/>
<path class="st19" d="M214.8,591.2h46.8v37h-46.8V591.2z"/>
<ellipse class="st19" cx="78.5" cy="740.7" rx="15.4" ry="16"/>
<path class="st18" d="M118.4,736.8h129.8"/>
<path class="st18" d="M118.4,744.7h105.8"/>
<path class="st20" d="M55.3,345.5v21.3c0,1.8,1.5,3.2,3.2,3.2h2.8c1.8,0,3.2-1.5,3.2-3.2v-2.8c0-1.8,1.5-3.2,3.2-3.2h2.8
	c1.8,0,3.2-1.5,3.2-3.2v-2.8c0-1.8,1.4-3.2,3.2-3.2h2.8c1.8,0,3.2-1.5,3.2-3.2v-2.8c0-1.8-1.5-3.2-3.2-3.2H58.5
	C56.8,342.3,55.3,343.7,55.3,345.5L55.3,345.5z"/>
<path class="st20" d="M77.6,360.8h1.7c2.1,0,3.8,1.7,3.8,3.8v1.7c0,2.1-1.7,3.8-3.8,3.8h-1.7c-2.1,0-3.8-1.7-3.8-3.8v-1.7
	C73.8,362.5,75.5,360.8,77.6,360.8z"/>
<path class="st0" d="M1728.1,743.7h-66.7v8.4h66.7h66.7v-8.4H1728.1z"/>
<path class="st21" d="M1661.3,6.6h66.7v737.2h-66.7V6.6z"/>
<path class="st22" d="M1728.1,6.6h66.7v737.2h-66.7V6.6z"/>
<path class="st23" d="M1661.3,49.3h25.4"/>
<path class="st23" d="M1661.3,81.5h25.4"/>
<path class="st23" d="M1661.3,113.8h25.4"/>
<path class="st23" d="M1661.3,146h39.9"/>
<path class="st23" d="M1661.3,178.2h25.4"/>
<path class="st23" d="M1661.3,210.4h25.4"/>
<path class="st23" d="M1661.3,242.7h25.4"/>
<path class="st23" d="M1661.3,274.9h39.9"/>
<path class="st23" d="M1661.3,307.1h25.4"/>
<path class="st23" d="M1661.3,339.3h25.4"/>
<path class="st23" d="M1661.3,371.6h25.4"/>
<path class="st23" d="M1661.3,403.8h39.9"/>
<path class="st23" d="M1661.3,436h25.4"/>
<path class="st23" d="M1661.3,468.3h25.4"/>
<path class="st23" d="M1661.3,500.5h25.4"/>
<path class="st23" d="M1661.3,532.7h39.9"/>
<path class="st23" d="M1661.3,564.9h25.4"/>
<path class="st23" d="M1661.3,597.2h25.4"/>
<path class="st23" d="M1661.3,629.4h25.4"/>
<path class="st23" d="M1661.3,661.6h39.9"/>
<path class="st23" d="M1661.3,693.8h25.4"/>
<path class="st0" d="M1602.5,292.1h-13v-1.8c0-17.8-14.4-32.2-32.2-32.2c0,0,0,0,0,0v184.6h24.3c4.4,0,7.9-3.5,7.9-7.9l0,0V308.2
	h4.9v184.4c0,4.5,3.6,8.1,8.1,8.1c4.5,0,8.1-3.6,8.1-8.1V300.1C1610.5,295.7,1606.9,292.1,1602.5,292.1L1602.5,292.1z"/>
<path class="st0" d="M1557.2,863.9c16.3,0,29.6-13.2,29.6-29.6l0,0V342.2h-29.6V863.9z"/>
<path class="st0" d="M1527.6,834.3c0,16.3,13.2,29.6,29.6,29.6V342.2h-29.6V834.3z"/>
<path class="st24" d="M1557.2,853.9c16.3,0,29.6-13.2,29.6-29.6l0,0V332.1h-29.6V853.9z"/>
<path class="st25" d="M1527.6,824.3c0,16.3,13.2,29.6,29.6,29.6l0,0V332.1h-29.6V824.3z"/>
<path class="st26" d="M1525,282.1v144.5c0,4.4,3.5,7.9,7.9,7.9l0,0h24.3V249.9C1539.4,249.9,1525,264.3,1525,282.1
	C1525,282.1,1525,282.1,1525,282.1L1525,282.1z"/>
<path class="st10" d="M1602.5,283.9h-13v-1.8c0-17.8-14.4-32.2-32.2-32.2v184.6h24.3c4.4,0,7.9-3.5,7.9-7.9l0,0V300.1h4.9v184.4
	c0,4.5,3.6,8.1,8.1,8.1c4.5,0,8.1-3.6,8.1-8.1V292C1610.5,287.6,1606.9,283.9,1602.5,283.9L1602.5,283.9z"/>
<g>
	<path class="st0" d="M229.5,74.8l82.2,16.7c5.6,1.1,9.3,6.7,8.1,12.3l-16.7,82.2c-1.1,5.6-6.7,9.3-12.3,8.1l-82.2-16.7
		c-5.6-1.1-9.3-6.7-8.1-12.3l16.7-82.2C218.3,77.3,223.8,73.6,229.5,74.8z"/>
	<path class="st27" d="M229.5,71.7l82.2,16.7c5.6,1.1,9.3,6.7,8.1,12.3l-16.7,82.2c-1.1,5.6-6.7,9.3-12.3,8.1l-82.2-16.7
		c-5.6-1.1-9.3-6.7-8.1-12.3l16.7-82.2C218.3,74.2,223.8,70.5,229.5,71.7z"/>
	<g>
		<path class="st28" d="M224.4,80.5l6.8,1.4"/>
		<path class="st28" d="M221.9,92.5l6.8,1.4"/>
		<path class="st28" d="M219.5,104.4l6.8,1.4"/>
		<path class="st28" d="M217.1,116.3l6.8,1.4"/>
		<path class="st28" d="M214.7,128.3l6.8,1.4"/>
		<path class="st28" d="M212.2,140.2l6.8,1.4"/>
		<path class="st28" d="M209.8,152.2l6.8,1.4"/>
		<path class="st28" d="M207.4,164.1l6.8,1.4"/>
		<path class="st28" d="M237.9,83.3l6.8,1.4"/>
		<path class="st28" d="M235.5,95.2l6.8,1.4"/>
		<path class="st28" d="M233.1,107.2l6.8,1.4"/>
		<path class="st28" d="M230.6,119.1l6.8,1.4"/>
		<path class="st28" d="M228.2,131.1l6.8,1.4"/>
		<path class="st28" d="M225.8,143l6.8,1.4"/>
		<path class="st28" d="M223.4,154.9l6.8,1.4"/>
		<path class="st28" d="M220.9,166.9l6.8,1.4"/>
		<path class="st28" d="M251.2,86l6.8,1.4"/>
		<path class="st28" d="M248.7,97.9l6.8,1.4"/>
		<path class="st28" d="M246.3,109.9l6.8,1.4"/>
		<path class="st28" d="M243.9,121.8l6.8,1.4"/>
		<path class="st28" d="M241.5,133.8l6.8,1.4"/>
		<path class="st28" d="M239,145.7l6.8,1.4"/>
		<path class="st28" d="M236.6,157.6l6.8,1.4"/>
		<path class="st28" d="M234.2,169.6l6.8,1.4"/>
		<path class="st28" d="M264.7,88.7l6.8,1.4"/>
		<path class="st28" d="M262.3,100.7l6.8,1.4"/>
		<path class="st28" d="M259.9,112.6l6.8,1.4"/>
		<path class="st28" d="M257.4,124.5l6.8,1.4"/>
		<path class="st28" d="M255,136.5l6.8,1.4"/>
		<path class="st28" d="M252.6,148.4l6.8,1.4"/>
		<path class="st28" d="M250.2,160.4l6.8,1.4"/>
		<path class="st28" d="M247.7,172.3l6.8,1.4"/>
		<path class="st28" d="M278.5,91.5l6.8,1.4"/>
		<path class="st28" d="M276,103.5l6.8,1.4"/>
		<path class="st28" d="M273.6,115.4l6.8,1.4"/>
		<path class="st28" d="M271.2,127.3l6.8,1.4"/>
		<path class="st28" d="M268.8,139.3l6.8,1.4"/>
		<path class="st28" d="M266.3,151.2l6.8,1.4"/>
		<path class="st28" d="M263.9,163.2l6.8,1.4"/>
		<path class="st28" d="M261.5,175.1l6.8,1.4"/>
		<path class="st28" d="M292,94.3l6.8,1.4"/>
		<path class="st28" d="M289.6,106.2l6.8,1.4"/>
		<path class="st28" d="M287.2,118.2l6.8,1.4"/>
		<path class="st28" d="M284.7,130.1l6.8,1.4"/>
		<path class="st28" d="M282.3,142.1l6.8,1.4"/>
		<path class="st28" d="M279.9,154l6.8,1.4"/>
		<path class="st28" d="M277.5,165.9l6.8,1.4"/>
		<path class="st28" d="M275,177.9l6.8,1.4"/>
		<path class="st28" d="M305.3,97l6.8,1.4"/>
		<path class="st28" d="M302.9,108.9l6.8,1.4"/>
		<path class="st28" d="M300.4,120.9l6.8,1.4"/>
		<path class="st28" d="M298,132.8l6.8,1.4"/>
		<path class="st28" d="M295.6,144.7l6.8,1.4"/>
		<path class="st28" d="M293.1,156.7l6.8,1.4"/>
		<path class="st28" d="M290.7,168.6l6.8,1.4"/>
		<path class="st28" d="M288.3,180.6l6.8,1.4"/>
	</g>
</g>
<g>
	<path class="st0" d="M1385.1,681.9l82.2,16.7c5.6,1.1,9.3,6.7,8.1,12.3l-16.7,82.2c-1.1,5.6-6.7,9.3-12.3,8.1l-82.2-16.7
		c-5.6-1.1-9.3-6.7-8.1-12.3l16.7-82.2C1373.9,684.4,1379.4,680.8,1385.1,681.9z"/>
	<path class="st27" d="M1385.1,678.8l82.2,16.7c5.6,1.1,9.3,6.7,8.1,12.3l-16.7,82.2c-1.1,5.6-6.7,9.3-12.3,8.1l-82.2-16.7
		c-5.6-1.1-9.3-6.7-8.1-12.3l16.7-82.2C1373.9,681.3,1379.4,677.6,1385.1,678.8z"/>
	<g>
		<path class="st28" d="M1380,687.7l6.8,1.4"/>
		<path class="st28" d="M1377.6,699.6l6.8,1.4"/>
		<path class="st28" d="M1375.1,711.5l6.8,1.4"/>
		<path class="st28" d="M1372.7,723.5l6.8,1.4"/>
		<path class="st28" d="M1370.3,735.4l6.8,1.4"/>
		<path class="st28" d="M1367.8,747.4l6.8,1.4"/>
		<path class="st28" d="M1365.4,759.3l6.8,1.4"/>
		<path class="st28" d="M1363,771.2l6.8,1.4"/>
		<path class="st28" d="M1393.5,690.4l6.8,1.4"/>
		<path class="st28" d="M1391.1,702.3l6.8,1.4"/>
		<path class="st28" d="M1388.7,714.3l6.8,1.4"/>
		<path class="st28" d="M1386.3,726.2l6.8,1.4"/>
		<path class="st28" d="M1383.8,738.2l6.8,1.4"/>
		<path class="st28" d="M1381.4,750.1l6.8,1.4"/>
		<path class="st28" d="M1379,762.1l6.8,1.4"/>
		<path class="st28" d="M1376.6,774l6.8,1.4"/>
		<path class="st28" d="M1406.8,693.1l6.8,1.4"/>
		<path class="st28" d="M1404.4,705l6.8,1.4"/>
		<path class="st28" d="M1401.9,717l6.8,1.4"/>
		<path class="st28" d="M1399.5,728.9l6.8,1.4"/>
		<path class="st28" d="M1397.1,740.9l6.8,1.4"/>
		<path class="st28" d="M1394.7,752.8l6.8,1.4"/>
		<path class="st28" d="M1392.2,764.8l6.8,1.4"/>
		<path class="st28" d="M1389.8,776.7l6.8,1.4"/>
		<path class="st28" d="M1420.3,695.9l6.8,1.4"/>
		<path class="st28" d="M1417.9,707.8l6.8,1.4"/>
		<path class="st28" d="M1415.5,719.8l6.8,1.4"/>
		<path class="st28" d="M1413.1,731.7l6.8,1.4"/>
		<path class="st28" d="M1410.6,743.6l6.8,1.4"/>
		<path class="st28" d="M1408.2,755.6l6.8,1.4"/>
		<path class="st28" d="M1405.8,767.5l6.8,1.4"/>
		<path class="st28" d="M1403.4,779.4l6.8,1.4"/>
		<path class="st28" d="M1434.1,698.7l6.8,1.4"/>
		<path class="st28" d="M1431.7,710.6l6.8,1.4"/>
		<path class="st28" d="M1429.2,722.5l6.8,1.4"/>
		<path class="st28" d="M1426.8,734.5l6.8,1.4"/>
		<path class="st28" d="M1424.4,746.4l6.8,1.4"/>
		<path class="st28" d="M1422,758.3l6.8,1.4"/>
		<path class="st28" d="M1419.5,770.3l6.8,1.4"/>
		<path class="st28" d="M1417.1,782.2l6.8,1.4"/>
		<path class="st28" d="M1447.6,701.4l6.8,1.4"/>
		<path class="st28" d="M1445.2,713.3l6.8,1.4"/>
		<path class="st28" d="M1442.8,725.3l6.8,1.4"/>
		<path class="st28" d="M1440.4,737.2l6.8,1.4"/>
		<path class="st28" d="M1437.9,749.2l6.8,1.4"/>
		<path class="st28" d="M1435.5,761.1l6.8,1.4"/>
		<path class="st28" d="M1433.1,773.1l6.8,1.4"/>
		<path class="st28" d="M1430.7,785l6.8,1.4"/>
		<path class="st28" d="M1460.9,704.1l6.8,1.4"/>
		<path class="st28" d="M1458.5,716l6.8,1.4"/>
		<path class="st28" d="M1456,728l6.8,1.4"/>
		<path class="st28" d="M1453.6,739.9l6.8,1.4"/>
		<path class="st28" d="M1451.2,751.9l6.8,1.4"/>
		<path class="st28" d="M1448.8,763.8l6.8,1.4"/>
		<path class="st28" d="M1446.3,775.8l6.8,1.4"/>
		<path class="st28" d="M1443.9,787.7l6.8,1.4"/>
	</g>
</g>
<path class="st0" d="M352.6,404.1l1.8-1.4c7.2-5.8,17.7-4.7,23.5,2.5l36.8,45.6c5.8,7.2,4.7,17.7-2.5,23.5l-1.8,1.4
	c-7.2,5.8-17.7,4.7-23.5-2.5l-36.8-45.6C344.3,420.4,345.4,409.9,352.6,404.1z"/>
<path class="st29" d="M352.6,395.8l1.8-1.4c7.2-5.8,17.7-4.7,23.5,2.5l36.8,45.6c5.8,7.2,4.7,17.7-2.5,23.5l-1.8,1.4
	c-7.2,5.8-17.7,4.7-23.5-2.5l-36.8-45.6C344.3,412.1,345.4,401.6,352.6,395.8z"/>
<circle class="st30" cx="354.8" cy="413.1" r="0.5"/>
<path class="st30" d="M375.1,407.5c0.3,0,0.5,0.2,0.5,0.5s-0.2,0.5-0.5,0.5s-0.5-0.2-0.5-0.5S374.8,407.5,375.1,407.5z"/>
<circle class="st30" cx="364.9" cy="422.4" r="0.5"/>
<circle class="st30" cx="378.6" cy="420.3" r="0.5"/>
<circle class="st30" cx="374.2" cy="440.8" r="0.5"/>
<circle class="st30" cx="397" cy="433.3" r="0.5"/>
<circle class="st30" cx="395.3" cy="448.3" r="0.5"/>
<circle class="st30" cx="412.6" cy="449.8" r="0.5"/>
<path class="st0" d="M348.8,724.3l-1.8-1.4c-7.2-5.8-8.3-16.3-2.5-23.5l36.8-45.6c5.8-7.2,16.3-8.3,23.5-2.5l1.8,1.4
	c7.2,5.8,8.3,16.3,2.5,23.5l-36.8,45.6C366.5,728.9,355.9,730.1,348.8,724.3z"/>
<path class="st29" d="M348.8,715.9l-1.8-1.4c-7.2-5.8-8.3-16.3-2.5-23.5l36.8-45.6c5.8-7.2,16.3-8.3,23.5-2.5l1.8,1.4
	c7.2,5.8,8.3,16.3,2.5,23.5l-36.8,45.6C366.5,720.6,355.9,721.7,348.8,715.9z"/>
<circle class="st30" cx="404.3" cy="661.6" r="0.5"/>
<circle class="st30" cx="384" cy="656.4" r="0.5"/>
<circle class="st30" cx="394.2" cy="670.8" r="0.5"/>
<circle class="st30" cx="380.5" cy="668.8" r="0.5"/>
<circle class="st30" cx="384.8" cy="689.2" r="0.5"/>
<circle class="st30" cx="362" cy="681.7" r="0.5"/>
<circle class="st30" cx="363.8" cy="696.7" r="0.5"/>
<circle class="st30" cx="346.5" cy="698.2" r="0.5"/>
<path class="st0" d="M391.4,499.2c-2.6-3.2-6.3-7.6-4.7-11.4c1.2-3,5.5-5.2,8.7-4.4c3.7,0.8,5.3,5.1,6.7,8.3
	c4,8.9,11.2,16.1,16.8,24.1c2.4,3.4,7.2,9.5,16.8,21.6c9.9,12.5,11.9,14.6,18.2,22.9c7.9,10.4,6.6,9.5,12.1,16.5
	c10.6,13.7,16,20.5,24.2,27.9s14.1,10.8,13.5,15.9c-0.6,3.5-3.3,6.3-6.7,7c-4.9,0.7-9.5-4.7-13.5-9.5c-14.2-17.3-21.2-26-28.3-35
	c-10.1-13-9.6-9.3-22.2-24.8c-12.6-15.5-9.4-14.5-23.5-32.4C402.8,517.4,398.1,507.7,391.4,499.2L391.4,499.2z"/>
<path class="st31" d="M391.4,495.8c-2.6-3.2-6.3-7.6-4.7-11.4c1.2-3,5.5-5.2,8.7-4.4c3.7,0.8,5.3,5.1,6.7,8.3
	c4,8.9,11.2,16.1,16.8,24.1c2.4,3.4,7.2,9.5,16.8,21.6c9.9,12.5,11.9,14.6,18.2,22.9c7.9,10.4,6.6,9.5,12.1,16.5
	c10.6,13.7,16,20.5,24.2,27.9c8.3,7.5,14.1,10.8,13.5,15.9c-0.6,3.5-3.3,6.3-6.7,7c-4.9,0.8-9.5-4.7-13.5-9.5
	c-14.2-17.3-21.2-26-28.3-35c-10.1-12.9-9.6-9.2-22.2-24.7s-9.4-14.5-23.5-32.4C402.8,514,398.1,504.2,391.4,495.8z"/>
<path class="st32" d="M402.9,490.8c0.3-0.1,0.7,0.2,0.7,0.5c0,0,0,0,0,0c-0.1,0.3-0.5,0.5-0.9,0.3c0,0,0,0,0,0
	C402.6,491.4,402.6,491.1,402.9,490.8C402.9,490.8,402.9,490.8,402.9,490.8L402.9,490.8z"/>
<path class="st32" d="M396.8,502.9c0.3-0.1,0.8,0.3,0.7,0.7c-0.1,0.4-0.6,0.7-0.9,0.5C396.4,503.7,396.5,503.2,396.8,502.9
	L396.8,502.9z"/>
<path class="st32" d="M405.1,504.5c0.3-0.1,0.7,0.3,0.6,0.7c0,0.4-0.6,0.7-0.8,0.4C404.7,505.4,404.9,504.6,405.1,504.5z"/>
<path class="st32" d="M417.8,533.1c0.3-0.1,0.7,0.3,0.6,0.7c0,0.4-0.6,0.7-0.8,0.4C417.5,533.9,417.5,533.5,417.8,533.1z"/>
<path class="st32" d="M410,514.5c0.3-0.1,0.7,0.3,0.6,0.7c0,0.4-0.6,0.7-0.8,0.5C409.6,515.3,409.7,514.8,410,514.5z"/>
<path class="st32" d="M417.4,523.9c0.3-0.1,0.7,0.3,0.6,0.7s-0.5,0.7-0.8,0.5C417,524.6,417.1,524.2,417.4,523.9z"/>
<path class="st32" d="M428.9,524.5c0.3-0.1,0.7,0.3,0.6,0.7c0,0.4-0.6,0.7-0.8,0.5C428.5,525.4,428.6,524.6,428.9,524.5z"/>
<path class="st32" d="M435,538.4c0.3-0.1,0.7,0.3,0.6,0.7c0,0.4-0.6,0.7-0.8,0.5C434.6,539.3,434.8,538.5,435,538.4z"/>
<path class="st32" d="M444.6,545.2c0.3-0.1,0.7,0.3,0.6,0.7c0,0.4-0.6,0.7-0.8,0.5C444.2,546,444.3,545.5,444.6,545.2z"/>
<path class="st32" d="M440,562.3c0.3-0.1,0.7,0.3,0.6,0.7c0,0.4-0.6,0.7-0.8,0.5C439.6,563.2,439.7,562.4,440,562.3z"/>
<path class="st32" d="M452.9,555.4c0.3-0.1,0.7,0.3,0.6,0.7c0,0.4-0.6,0.7-0.8,0.4C452.5,556.2,452.6,555.7,452.9,555.4z"/>
<path class="st32" d="M461.7,567.4c0.3-0.1,0.7,0.3,0.6,0.7c0,0.4-0.6,0.7-0.8,0.5C461.4,568.2,461.4,567.7,461.7,567.4z"/>
<path class="st32" d="M458.2,582.9c0.3-0.1,0.7,0.3,0.6,0.7c0,0.4-0.6,0.7-0.8,0.5C457.8,583.8,457.9,583,458.2,582.9z"/>
<path class="st32" d="M499.8,608.9c0.3-0.1,0.7,0.3,0.6,0.7c0,0.4-0.6,0.7-0.8,0.5C499.5,609.7,499.6,609.2,499.8,608.9z"/>
<path class="st32" d="M483,605.6c0.3-0.1,0.7,0.3,0.6,0.7c0,0.4-0.6,0.7-0.8,0.5C482.6,606.3,482.7,605.9,483,605.6z"/>
<path class="st32" d="M488.4,619.9c0.3-0.1,0.7,0.3,0.6,0.7c0,0.4-0.6,0.7-0.8,0.5C488,620.8,488.2,620.1,488.4,619.9z"/>
<path class="st32" d="M497.9,617.9c0.3-0.1,0.7,0.3,0.6,0.7s-0.5,0.7-0.8,0.5C497.5,618.7,497.6,618.2,497.9,617.9z"/>
<path class="st32" d="M491.6,609.6c0.3-0.1,0.7,0.3,0.6,0.7c0,0.4-0.5,0.7-0.8,0.4C491.3,610.3,491.3,609.9,491.6,609.6z"/>
<path class="st32" d="M482.5,593.5c0.3-0.1,0.7,0.3,0.6,0.7c0,0.4-0.6,0.7-0.8,0.5C482.1,594.4,482.3,593.6,482.5,593.5z"/>
<path class="st32" d="M473.9,587.8c0.3-0.1,0.7,0.3,0.6,0.7c0,0.4-0.6,0.7-0.8,0.5C473.5,588.7,473.6,588,473.9,587.8z"/>
<path class="st32" d="M474.7,601.7c0.3-0.1,0.7,0.3,0.6,0.7c0,0.4-0.6,0.7-0.8,0.5C474.4,602.4,474.5,602,474.7,601.7z"/>
<path class="st32" d="M470.6,579.8c0.3-0.1,0.7,0.3,0.6,0.7c0,0.4-0.6,0.7-0.8,0.4C470.3,580.6,470.3,580.1,470.6,579.8z"/>
<path class="st32" d="M457.7,574.1c0.3-0.1,0.7,0.3,0.6,0.7c0,0.4-0.6,0.7-0.8,0.5C457.4,574.9,457.4,574.4,457.7,574.1z"/>
<path class="st32" d="M450.8,565.1c0.3-0.1,0.7,0.3,0.6,0.7c0,0.4-0.6,0.7-0.8,0.5C450.4,565.9,450.5,565.4,450.8,565.1z"/>
<path class="st32" d="M435.5,545.2c0.3-0.1,0.7,0.3,0.6,0.7c0,0.4-0.6,0.7-0.8,0.5C435.1,546,435.2,545.5,435.5,545.2z"/>
<path class="st32" d="M422.8,540.2c0.3-0.1,0.7,0.3,0.6,0.7c0,0.4-0.6,0.7-0.8,0.4C422.4,541,422.5,540.5,422.8,540.2z"/>
<path class="st32" d="M421.2,515.1c0.3-0.1,0.7,0.3,0.6,0.7c0,0.4-0.6,0.7-0.8,0.5C420.8,515.9,420.9,515.5,421.2,515.1z"/>
<path class="st32" d="M396.3,493.3c0.3-0.1,0.7,0.3,0.6,0.7c0,0.4-0.6,0.7-0.8,0.5C395.9,494.1,396,493.7,396.3,493.3z"/>
<path class="st32" d="M387.1,489.2c0.3,0,0.5,0.1,0.6,0.4c0,0,0,0,0,0c-0.1,0.3-0.4,0.4-0.7,0.3c0,0,0,0,0,0
	C386.8,489.7,386.8,489.5,387.1,489.2C387,489.3,387,489.3,387.1,489.2L387.1,489.2z"/>
<path class="st0" d="M1135.7,73c2.1-3.5,5.3-8.3,3.3-11.9c-1.6-2.8-6-4.5-9.2-3.3c-3.5,1.3-4.6,5.7-5.7,9c-2.9,9.3-9.2,17.3-13.7,26
	c-2,3.7-6,10.3-14,23.5c-8.3,13.6-10,15.9-15.2,24.9c-6.6,11.3-5.4,10.2-10,17.9c-8.9,14.9-13.3,22.2-20.6,30.7
	c-7.3,8.5-12.7,12.5-11.4,17.4c1,3.4,4,5.8,7.5,6.1c5,0.1,8.9-5.8,12.2-11.1c11.9-18.9,17.9-28.4,23.8-38.1
	c8.5-14.1,8.4-10.4,19-27.3c10.5-16.8,7.5-15.5,19.4-35C1126.5,92.5,1130,82.2,1135.7,73L1135.7,73z"/>
<path class="st31" d="M1135.2,69.6c2.1-3.5,5.3-8.3,3.3-11.9c-1.6-2.8-6.1-4.5-9.2-3.3c-3.5,1.3-4.6,5.7-5.7,9
	c-2.9,9.3-9.2,17.3-13.7,26c-2,3.7-6,10.3-14,23.5c-8.3,13.6-10,15.9-15.2,24.9c-6.6,11.3-5.4,10.2-10,17.9
	c-8.9,14.9-13.3,22.2-20.6,30.7s-12.7,12.5-11.4,17.4c1,3.4,4,5.8,7.5,6.1c5,0.1,8.9-5.9,12.2-11.1c11.9-18.9,17.9-28.4,23.8-38.1
	c8.5-14.1,8.4-10.4,19-27.3s7.5-15.5,19.4-35C1126.1,89.2,1129.6,78.8,1135.2,69.6L1135.2,69.6z"/>
<path class="st32" d="M1123.2,66.1c-0.3-0.1-0.7,0.3-0.6,0.6c0.2,0.3,0.6,0.4,0.9,0.2c0,0,0,0,0,0
	C1123.6,66.7,1123.5,66.3,1123.2,66.1C1123.2,66.1,1123.2,66.1,1123.2,66.1L1123.2,66.1z"/>
<path class="st32" d="M1130.7,77.3c-0.3-0.1-0.7,0.4-0.6,0.8c0.1,0.4,0.7,0.6,0.9,0.3C1131.2,78.1,1131.1,77.6,1130.7,77.3z"/>
<path class="st32" d="M1122.6,80c-0.3-0.1-0.6,0.4-0.5,0.8c0.1,0.4,0.6,0.6,0.8,0.4C1123,80.7,1122.9,80.2,1122.6,80z"/>
<path class="st32" d="M1113.5,110c-0.3-0.1-0.6,0.4-0.5,0.8c0.1,0.4,0.6,0.6,0.8,0.3C1114,110.7,1113.9,110.2,1113.5,110z"/>
<path class="st32" d="M1119.1,90.5c-0.3-0.1-0.6,0.4-0.5,0.8c0.1,0.4,0.6,0.6,0.8,0.4C1119.5,91.2,1119.4,90.8,1119.1,90.5z"/>
<path class="st32" d="M1112.8,100.7c-0.3-0.1-0.6,0.4-0.5,0.8c0.1,0.4,0.6,0.6,0.8,0.3C1113.3,101.4,1113.2,101,1112.8,100.7z"/>
<path class="st32" d="M1101.5,102.7c-0.3-0.1-0.6,0.4-0.5,0.8c0.1,0.4,0.6,0.6,0.8,0.4C1101.9,103.5,1101.8,103,1101.5,102.7z"/>
<path class="st32" d="M1097.1,117.2c-0.3-0.1-0.6,0.4-0.5,0.8c0.1,0.4,0.6,0.6,0.8,0.4C1097.5,118,1097.4,117.5,1097.1,117.2z"/>
<path class="st32" d="M1088.5,125.2c-0.3-0.1-0.6,0.4-0.5,0.8c0.1,0.4,0.6,0.6,0.8,0.4C1088.9,125.9,1088.8,125.5,1088.5,125.2z"/>
<path class="st32" d="M1095.1,141.6c-0.3-0.1-0.6,0.4-0.5,0.8c0.1,0.4,0.6,0.6,0.8,0.4C1095.5,142.3,1095.4,141.9,1095.1,141.6z"/>
<path class="st32" d="M1081.5,136.4c-0.3-0.1-0.6,0.4-0.5,0.8c0.1,0.4,0.6,0.6,0.8,0.3C1081.9,137.1,1081.8,136.6,1081.5,136.4z"/>
<path class="st32" d="M1074.2,149.3c-0.3-0.1-0.6,0.4-0.5,0.8s0.6,0.6,0.8,0.4C1074.6,150.1,1074.5,149.6,1074.2,149.3L1074.2,149.3
	z"/>
<path class="st32" d="M1079.6,164.2c-0.3-0.1-0.6,0.4-0.5,0.8c0.1,0.4,0.6,0.6,0.8,0.4C1080,165,1079.9,164.5,1079.6,164.2z"/>
<path class="st32" d="M1041.5,195.2c-0.3-0.1-0.6,0.4-0.5,0.8c0.1,0.4,0.6,0.6,0.8,0.4C1041.9,196,1041.8,195.5,1041.5,195.2z"/>
<path class="st32" d="M1057.8,189.8c-0.3-0.1-0.6,0.4-0.5,0.8c0.1,0.4,0.6,0.6,0.8,0.4C1058.2,190.6,1058.1,190.1,1057.8,189.8z"/>
<path class="st32" d="M1054.1,204.7c-0.3-0.1-0.6,0.4-0.5,0.8c0.1,0.4,0.6,0.6,0.8,0.3C1054.5,205.5,1054.4,205,1054.1,204.7z"/>
<path class="st32" d="M1044.5,203.9c-0.3-0.1-0.6,0.4-0.5,0.8c0.1,0.4,0.6,0.6,0.8,0.3C1044.9,204.6,1044.8,204.2,1044.5,203.9z"/>
<path class="st32" d="M1049.7,194.8c-0.3-0.1-0.6,0.4-0.5,0.8c0.1,0.4,0.6,0.6,0.8,0.4C1050.1,195.6,1050,195.1,1049.7,194.8z"/>
<path class="st32" d="M1056.7,177.8c-0.3-0.1-0.6,0.4-0.5,0.8c0.1,0.4,0.6,0.6,0.8,0.3C1057.1,178.5,1057,178.1,1056.7,177.8z"/>
<path class="st32" d="M1064.6,171.1c-0.3-0.1-0.6,0.4-0.5,0.8c0.1,0.4,0.6,0.6,0.8,0.4C1065.1,171.8,1065,171.4,1064.6,171.1z"/>
<path class="st32" d="M1065.5,184.9c-0.3-0.1-0.6,0.4-0.5,0.8s0.6,0.6,0.8,0.4C1065.9,185.7,1065.8,185.2,1065.5,184.9z"/>
<path class="st32" d="M1066.9,162.8c-0.3-0.1-0.6,0.4-0.5,0.8s0.6,0.6,0.8,0.3C1067.3,163.5,1067.2,163.1,1066.9,162.8z"/>
<path class="st32" d="M1078.9,155.5c-0.3-0.1-0.6,0.4-0.5,0.8s0.6,0.6,0.8,0.4C1079.4,156.3,1079.3,155.8,1078.9,155.5z"/>
<path class="st32" d="M1084.8,145.7c-0.3-0.1-0.6,0.4-0.5,0.8c0.1,0.4,0.6,0.6,0.8,0.3C1085.2,146.4,1085.1,146,1084.8,145.7z"/>
<path class="st32" d="M1097.5,124.1c-0.3-0.1-0.6,0.4-0.5,0.8c0.1,0.4,0.6,0.6,0.8,0.4C1097.9,124.8,1097.8,124.3,1097.5,124.1z"/>
<path class="st32" d="M1109.5,117.6c-0.3-0.1-0.6,0.4-0.5,0.8s0.6,0.6,0.8,0.3C1109.9,118.3,1109.8,117.9,1109.5,117.6z"/>
<path class="st32" d="M1108,92.5c-0.3-0.1-0.6,0.4-0.5,0.8c0.1,0.4,0.6,0.6,0.8,0.3C1108.4,93.2,1108.3,92.8,1108,92.5z"/>
<path class="st32" d="M1130,67.8c-0.3-0.1-0.6,0.4-0.5,0.8s0.6,0.6,0.8,0.3C1130.4,68.5,1130.3,68.1,1130,67.8z"/>
<path class="st32" d="M1138.7,62.6c-0.2-0.1-0.6,0.3-0.5,0.5c0.1,0.3,0.5,0.3,0.7,0.2c0,0,0,0,0,0C1139,63.1,1139,62.8,1138.7,62.6
	C1138.7,62.6,1138.7,62.6,1138.7,62.6z"/>
<path class="st0" d="M1040,89.4c-5.6-2.2-24.5-9.8-37.8,1.5s-8.7,31.4-8.5,32.4c3.7,15.3,16.6,22.4,20.9,24.4
	c3.9,1.8,15,7.2,25.9,2.4c17.2-7.5,17.1-33,17.1-36c-0.1-8.4-2.6-12.9-3.3-14.1C1050.4,93.7,1044.1,91.1,1040,89.4L1040,89.4z
	 M1035.4,120.3c-0.8,3.9-4.9,7-9.2,6.9c-5.2-0.1-9.7-4.8-9.3-10c0.4-4,3.4-7.4,7.4-8.2C1030.3,108,1036.6,114.4,1035.4,120.3
	L1035.4,120.3z"/>
<path class="st33" d="M1040,87.3c-5.6-2.2-24.5-9.8-37.8,1.5s-8.7,31.4-8.5,32.4c3.7,15.3,16.6,22.4,20.9,24.4
	c3.9,1.8,15,7.2,25.9,2.4c17.2-7.5,17.1-33,17.1-36c-0.1-8.4-2.6-12.9-3.3-14.1C1050.4,91.5,1044.1,88.9,1040,87.3L1040,87.3z
	 M1035.4,118.1c-0.8,3.9-4.9,7-9.2,6.9c-5.2-0.1-9.7-4.8-9.3-10c0.4-4.1,3.4-7.4,7.4-8.2C1030.3,105.9,1036.6,112.3,1035.4,118.1
	L1035.4,118.1z"/>
<path class="st34" d="M1040,81.7c-10.3-6-26.7-8.1-37.8,1.5c-13.3,11.6-8.7,31.2-8.5,32.4c5.2,20.8,30.9,36.9,47.8,29.3
	c11.9-5.4,14.9-20.5,15.4-23.1C1059.7,107.8,1054.6,90.2,1040,81.7z M1035.4,112.6c-0.7,3.7-4.8,7.1-9.2,6.9
	c-5.3-0.1-9.2-5.2-9.3-10c-0.1-3.3,1.6-7.2,4.6-8.5C1027.1,98.7,1036.6,106.1,1035.4,112.6L1035.4,112.6z"/>
<path class="st0" d="M359.1,530.5c-5.6-2.2-24.5-9.8-37.8,1.5s-8.7,31.4-8.5,32.4c3.7,15.3,16.6,22.4,20.9,24.4
	c3.9,1.8,15.1,7.2,25.9,2.4c17.2-7.5,17.1-33,17.1-36c0-8.4-2.6-12.9-3.3-14.1C369.4,534.7,363.2,532.1,359.1,530.5L359.1,530.5z
	 M354.4,561.3c-0.8,3.9-4.9,7-9.2,6.9c-5.2-0.1-9.7-4.8-9.3-10c0.4-4.1,3.4-7.4,7.4-8.2C349.4,549.1,355.7,555.5,354.4,561.3z"/>
<path class="st33" d="M359.1,528.3c-5.6-2.2-24.5-9.8-37.8,1.5s-8.7,31.4-8.5,32.4c3.7,15.3,16.6,22.4,20.9,24.4
	c3.9,1.8,15.1,7.2,25.9,2.4c17.2-7.5,17.1-33,17.1-36c0-8.4-2.6-12.9-3.3-14.1C369.4,532.6,363.2,530,359.1,528.3L359.1,528.3z
	 M354.4,559.2c-0.8,3.9-4.9,7-9.2,6.9c-5.2-0.1-9.7-4.9-9.3-10c0.4-4.1,3.4-7.4,7.4-8.2C349.4,546.9,355.7,553.3,354.4,559.2z"/>
<path class="st34" d="M359.1,522.8c-10.3-6-26.7-8.1-37.8,1.5c-13.3,11.6-8.7,31.3-8.5,32.4c5.2,20.8,30.9,36.9,47.8,29.3
	c11.9-5.4,14.9-20.5,15.4-23.1C378.8,548.9,373.7,531.2,359.1,522.8L359.1,522.8z M354.4,553.6c-0.7,3.7-4.8,7.1-9.2,6.9
	c-5.3-0.1-9.2-5.2-9.3-10c-0.1-3.3,1.6-7.2,4.6-8.5C346.2,539.8,355.6,547.1,354.4,553.6L354.4,553.6z"/>
</svg>
