<svg viewBox="0 0 1200 1200" xmlns="http://www.w3.org/2000/svg"><rect fill="#302d2e" height="930.56" opacity=".15" rx="39.39" width="434.61" x="66.08" y="207.02"/><rect fill="#302d2e" height="930.56" rx="39.39" width="434.61" x="66.08" y="186.75"/><ellipse cx="283.38" cy="1072.46" fill="#6d6767" opacity=".24" rx="33.3" ry="34.73" stroke="#302d2e" stroke-miterlimit="10" stroke-width=".9"/><path d="m85.28 271.2h397.49v749.63h-397.49z" fill="#6d6767" opacity=".24" stroke="#302d2e" stroke-miterlimit="10" stroke-width=".9"/><path d="m97.38 284.92h373.3v722.19h-373.3z" fill="#fff"/><path d="m97.38 388.69h373.3v185.79h-373.3z" opacity=".02"/><path d="m250.09 235.9h58.17" style="fill:#302d2e;stroke-miterlimit:10;opacity:.24;stroke:#6d6767;stroke-width:8.3;stroke-linecap:round"/><path d="m260.08 545.07h56.12" style="stroke-miterlimit:10;stroke-linecap:round;fill:none;stroke:#f5876c;stroke-width:23.13;opacity:.7"/><path d="m413.41 327.32h39.01" style="stroke-miterlimit:10;stroke-linecap:round;fill:none;stroke:#000;stroke-width:15.56;opacity:.54"/><path d="m339.04 327.32h39.01" style="stroke-miterlimit:10;opacity:.24;stroke-linecap:round;fill:none;stroke:#000;stroke-width:15.56"/><path d="m261.7 327.32h39.01" style="stroke-miterlimit:10;opacity:.24;stroke-linecap:round;fill:none;stroke:#000;stroke-width:15.56"/><path d="m183.48 507.04h209.32" style="stroke-miterlimit:10;opacity:.24;stroke-linecap:round;fill:none;stroke:#000;stroke-width:6.22"/><path d="m183.48 481.58h209.32" style="stroke-miterlimit:10;opacity:.24;stroke-linecap:round;fill:none;stroke:#000;stroke-width:6.22"/><path d="m117.52 741.47h209.32" style="stroke-miterlimit:10;opacity:.24;stroke-linecap:round;fill:none;stroke:#000;stroke-width:4.15"/><path d="m117.52 716.01h209.32" style="stroke-miterlimit:10;opacity:.24;stroke-linecap:round;fill:none;stroke:#000;stroke-width:4.15"/><path d="m117.52 754.2h136.17" style="stroke-miterlimit:10;opacity:.24;stroke-linecap:round;fill:none;stroke:#000;stroke-width:4.15"/><path d="m117.52 728.74h209.32" style="stroke-miterlimit:10;opacity:.24;stroke-linecap:round;fill:none;stroke:#000;stroke-width:4.15"/><path d="m238.84 642.83h209.31" style="stroke-miterlimit:10;opacity:.24;stroke-linecap:round;fill:none;stroke:#000;stroke-width:4.15"/><path d="m238.84 617.37h209.31" style="stroke-miterlimit:10;opacity:.24;stroke-linecap:round;fill:none;stroke:#000;stroke-width:4.15"/><path d="m238.84 655.56h136.17" style="stroke-miterlimit:10;opacity:.24;stroke-linecap:round;fill:none;stroke:#000;stroke-width:4.15"/><path d="m238.84 630.1h209.31" style="stroke-miterlimit:10;opacity:.24;stroke-linecap:round;fill:none;stroke:#000;stroke-width:4.15"/><path d="m117.52 605.68h75.44v59.67h-75.44z" fill="#f5876c" opacity=".7"/><path d="m238.84 848.96h209.31" style="stroke-miterlimit:10;opacity:.24;stroke-linecap:round;fill:none;stroke:#000;stroke-width:4.15"/><path d="m238.84 823.5h209.31" style="stroke-miterlimit:10;opacity:.24;stroke-linecap:round;fill:none;stroke:#000;stroke-width:4.15"/><path d="m238.84 861.7h136.17" style="stroke-miterlimit:10;opacity:.24;stroke-linecap:round;fill:none;stroke:#000;stroke-width:4.15"/><path d="m238.84 836.23h209.31" style="stroke-miterlimit:10;opacity:.24;stroke-linecap:round;fill:none;stroke:#000;stroke-width:4.15"/><path d="m117.52 811.81h75.44v59.67h-75.44z" fill="#f5876c" opacity=".7"/><path d="m375.01 706.36h75.44v59.67h-75.44z" fill="#f5876c" opacity=".7"/><ellipse cx="155.24" cy="947.49" fill="#f5876c" opacity=".7" rx="24.77" ry="25.83"/><path d="m219.54 941.12h209.32" style="stroke-miterlimit:10;opacity:.24;stroke-linecap:round;fill:none;stroke:#000;stroke-width:4.15"/><path d="m219.54 953.86h170.72" style="stroke-miterlimit:10;opacity:.24;stroke-linecap:round;fill:none;stroke:#000;stroke-width:4.15"/><path d="m117.81 310.11v34.42a5.22 5.22 0 0 0 5.22 5.22h4.51a5.22 5.22 0 0 0 5.22-5.22v-4.53a5.23 5.23 0 0 1 5.24-5.2h4.5a5.23 5.23 0 0 0 5.23-5.23v-4.5a5.23 5.23 0 0 1 5.22-5.23h4.5a5.23 5.23 0 0 0 5.23-5.22v-4.51a5.23 5.23 0 0 0 -5.23-5.22h-34.45a5.22 5.22 0 0 0 -5.19 5.22z" fill="#f5876c"/><rect fill="#f5876c" height="14.95" rx="5.01" width="14.95" x="147.72" y="334.8"/><path d="m1052.24 1129.92h-97.67v19.08h97.67 97.67v-19.08z" fill="#302d2e" opacity=".15"/><path d="m954.57 51h97.67v1078.92h-97.67z" fill="#ffe187"/><path d="m1052.24 51h97.67v1078.92h-97.67z" fill="#f6d882"/><path d="m954.57 113.59h37.14" fill="none" stroke="#fff" stroke-miterlimit="10" stroke-width="3.93"/><path d="m954.57 160.76h37.14" fill="none" stroke="#fff" stroke-miterlimit="10" stroke-width="3.93"/><path d="m954.57 207.93h37.14" fill="none" stroke="#fff" stroke-miterlimit="10" stroke-width="3.93"/><path d="m954.57 255.09h58.36" fill="none" stroke="#fff" stroke-miterlimit="10" stroke-width="3.93"/><path d="m954.57 302.26h37.14" fill="none" stroke="#fff" stroke-miterlimit="10" stroke-width="3.93"/><path d="m954.57 349.42h37.14" fill="none" stroke="#fff" stroke-miterlimit="10" stroke-width="3.93"/><path d="m954.57 396.59h37.14" fill="none" stroke="#fff" stroke-miterlimit="10" stroke-width="3.93"/><path d="m954.57 443.76h58.36" fill="none" stroke="#fff" stroke-miterlimit="10" stroke-width="3.93"/><path d="m954.57 490.92h37.14" fill="none" stroke="#fff" stroke-miterlimit="10" stroke-width="3.93"/><path d="m954.57 538.09h37.14" fill="none" stroke="#fff" stroke-miterlimit="10" stroke-width="3.93"/><path d="m954.57 585.25h37.14" fill="none" stroke="#fff" stroke-miterlimit="10" stroke-width="3.93"/><path d="m954.57 632.42h58.36" fill="none" stroke="#fff" stroke-miterlimit="10" stroke-width="3.93"/><path d="m954.57 679.59h37.14" fill="none" stroke="#fff" stroke-miterlimit="10" stroke-width="3.93"/><path d="m954.57 726.75h37.14" fill="none" stroke="#fff" stroke-miterlimit="10" stroke-width="3.93"/><path d="m954.57 773.92h37.14" fill="none" stroke="#fff" stroke-miterlimit="10" stroke-width="3.93"/><path d="m954.57 821.08h58.36" fill="none" stroke="#fff" stroke-miterlimit="10" stroke-width="3.93"/><path d="m954.57 868.25h37.14" fill="none" stroke="#fff" stroke-miterlimit="10" stroke-width="3.93"/><path d="m954.57 915.41h37.14" fill="none" stroke="#fff" stroke-miterlimit="10" stroke-width="3.93"/><path d="m954.57 962.58h37.14" fill="none" stroke="#fff" stroke-miterlimit="10" stroke-width="3.93"/><path d="m954.57 1009.75h58.36" fill="none" stroke="#fff" stroke-miterlimit="10" stroke-width="3.93"/><path d="m954.57 1056.91h37.14" fill="none" stroke="#fff" stroke-miterlimit="10" stroke-width="3.93"/><path d="m885.58 205.77h-21.39v-3a52.9 52.9 0 0 0 -52.9-52.9v303.04h39.94a13 13 0 0 0 13-13v-207.57h8.11v302.66a13.29 13.29 0 1 0 26.57 0v-315.95a13.28 13.28 0 0 0 -13.33-13.28z" fill="#302d2e" opacity=".15"/><path d="m811.29 1144.51a48.59 48.59 0 0 0 48.59-48.59v-807.85h-48.59z" fill="#302d2e" opacity=".15"/><path d="m762.7 1095.92a48.59 48.59 0 0 0 48.59 48.59v-856.44h-48.59z" fill="#302d2e" opacity=".15"/><path d="m811.29 1128a48.59 48.59 0 0 0 48.59-48.58v-807.87h-48.59z" fill="#a9abae"/><path d="m762.7 1079.4a48.59 48.59 0 0 0 48.59 48.6v-856.45h-48.59z" fill="#b6b8ba"/><path d="m758.39 189.45v237.19a13 13 0 0 0 13 13h39.94v-303a52.89 52.89 0 0 0 -52.94 52.81z" fill="#414042"/><path d="m885.58 192.45h-21.39v-3a52.9 52.9 0 0 0 -52.9-52.9v303.05h39.94a13 13 0 0 0 13-13v-207.6h8.11v302.69a13.29 13.29 0 1 0 26.57 0v-316a13.29 13.29 0 0 0 -13.33-13.24z" fill="#302d2e"/><rect fill="#302d2e" height="150.73" opacity=".15" rx="13.75" transform="matrix(.97999424 .19902586 -.19902586 .97999424 106.85 -120.1)" width="150.73" x="575.34" y="396"/><rect fill="#c49952" height="150.73" rx="13.75" transform="matrix(.97999424 .19902586 -.19902586 .97999424 105.96 -120.19)" width="150.73" x="575.34" y="391.5"/><g stroke-miterlimit="10"><path d="m599.21 393.76 9.76 1.98" fill="none" opacity=".5" stroke="#9c7e47" stroke-linecap="round" stroke-width="6.36"/><path d="m595.73 410.92 9.75 1.98" fill="none" opacity=".5" stroke="#9c7e47" stroke-linecap="round" stroke-width="6.36"/><path d="m592.23 428.15 9.75 1.98" fill="none" opacity=".5" stroke="#9c7e47" stroke-linecap="round" stroke-width="6.36"/><path d="m588.74 445.31 9.76 1.98" fill="none" opacity=".5" stroke="#9c7e47" stroke-linecap="round" stroke-width="6.36"/><path d="m585.24 462.53 9.76 1.98" fill="none" opacity=".5" stroke="#9c7e47" stroke-linecap="round" stroke-width="6.36"/><path d="m581.76 479.69 9.75 1.98" fill="none" opacity=".5" stroke="#9c7e47" stroke-linecap="round" stroke-width="6.36"/><path d="m578.26 496.92 9.75 1.98" fill="none" opacity=".5" stroke="#9c7e47" stroke-linecap="round" stroke-width="6.36"/><path d="m574.77 514.08 9.76 1.98" fill="none" opacity=".5" stroke="#9c7e47" stroke-linecap="round" stroke-width="6.36"/><path d="m618.73 397.73 9.75 1.98" fill="none" opacity=".5" stroke="#9c7e47" stroke-linecap="round" stroke-width="6.36"/><path d="m615.25 414.89 9.75 1.98" fill="none" opacity=".5" stroke="#9c7e47" stroke-linecap="round" stroke-width="6.36"/><path d="m611.75 432.11 9.75 1.98" fill="none" opacity=".5" stroke="#9c7e47" stroke-linecap="round" stroke-width="6.36"/><path d="m608.26 449.27 9.75 1.98" fill="none" opacity=".5" stroke="#9c7e47" stroke-linecap="round" stroke-width="6.36"/><path d="m604.76 466.5 9.76 1.98" fill="none" opacity=".5" stroke="#9c7e47" stroke-linecap="round" stroke-width="6.36"/><path d="m601.28 483.66 9.75 1.98" fill="none" opacity=".5" stroke="#9c7e47" stroke-linecap="round" stroke-width="6.36"/><path d="m597.78 500.88 9.75 1.98" fill="none" opacity=".5" stroke="#9c7e47" stroke-linecap="round" stroke-width="6.36"/><path d="m594.29 518.04 9.76 1.98" fill="none" opacity=".5" stroke="#9c7e47" stroke-linecap="round" stroke-width="6.36"/><path d="m637.81 401.6 9.76 1.98" fill="none" opacity=".5" stroke="#9c7e47" stroke-linecap="round" stroke-width="6.36"/><path d="m634.33 418.76 9.75 1.98" fill="none" opacity=".5" stroke="#9c7e47" stroke-linecap="round" stroke-width="6.36"/><path d="m630.83 435.99 9.75 1.98" fill="none" opacity=".5" stroke="#9c7e47" stroke-linecap="round" stroke-width="6.36"/><path d="m627.34 453.15 9.76 1.98" fill="none" opacity=".5" stroke="#9c7e47" stroke-linecap="round" stroke-width="6.36"/><path d="m623.85 470.37 9.75 1.98" fill="none" opacity=".5" stroke="#9c7e47" stroke-linecap="round" stroke-width="6.36"/><path d="m620.36 487.53 9.75 1.98" fill="none" opacity=".5" stroke="#9c7e47" stroke-linecap="round" stroke-width="6.36"/><path d="m616.86 504.76 9.75 1.98" fill="none" opacity=".5" stroke="#9c7e47" stroke-linecap="round" stroke-width="6.36"/><path d="m613.38 521.92 9.75 1.98" fill="none" opacity=".5" stroke="#9c7e47" stroke-linecap="round" stroke-width="6.36"/><path d="m657.33 405.57 9.76 1.98" fill="none" opacity=".5" stroke="#9c7e47" stroke-linecap="round" stroke-width="6.36"/><path d="m653.85 422.73 9.75 1.98" fill="none" opacity=".5" stroke="#9c7e47" stroke-linecap="round" stroke-width="6.36"/><path d="m650.35 439.95 9.75 1.98" fill="none" opacity=".5" stroke="#9c7e47" stroke-linecap="round" stroke-width="6.36"/><path d="m646.86 457.11 9.76 1.98" fill="none" opacity=".5" stroke="#9c7e47" stroke-linecap="round" stroke-width="6.36"/><path d="m643.36 474.34 9.76 1.98" fill="none" opacity=".5" stroke="#9c7e47" stroke-linecap="round" stroke-width="6.36"/><path d="m639.88 491.5 9.75 1.98" fill="none" opacity=".5" stroke="#9c7e47" stroke-linecap="round" stroke-width="6.36"/><path d="m636.38 508.72 9.75 1.98" fill="none" opacity=".5" stroke="#9c7e47" stroke-linecap="round" stroke-width="6.36"/><path d="m632.89 525.88 9.76 1.98" fill="none" opacity=".5" stroke="#9c7e47" stroke-linecap="round" stroke-width="6.36"/><path d="m677.11 409.58 9.75 1.99" fill="none" opacity=".5" stroke="#9c7e47" stroke-linecap="round" stroke-width="6.36"/><path d="m673.62 426.74 9.75 1.99" fill="none" opacity=".5" stroke="#9c7e47" stroke-linecap="round" stroke-width="6.36"/><path d="m670.12 443.97 9.76 1.98" fill="none" opacity=".5" stroke="#9c7e47" stroke-linecap="round" stroke-width="6.36"/><path d="m666.64 461.13 9.75 1.98" fill="none" opacity=".5" stroke="#9c7e47" stroke-linecap="round" stroke-width="6.36"/><path d="m663.14 478.35 9.75 1.99" fill="none" opacity=".5" stroke="#9c7e47" stroke-linecap="round" stroke-width="6.36"/><path d="m659.65 495.51 9.76 1.98" fill="none" opacity=".5" stroke="#9c7e47" stroke-linecap="round" stroke-width="6.36"/><path d="m656.15 512.74 9.76 1.98" fill="none" opacity=".5" stroke="#9c7e47" stroke-linecap="round" stroke-width="6.36"/><path d="m652.67 529.9 9.75 1.98" fill="none" opacity=".5" stroke="#9c7e47" stroke-linecap="round" stroke-width="6.36"/><path d="m696.62 413.55 9.76 1.98" fill="none" opacity=".5" stroke="#9c7e47" stroke-linecap="round" stroke-width="6.36"/><path d="m693.14 430.71 9.75 1.98" fill="none" opacity=".5" stroke="#9c7e47" stroke-linecap="round" stroke-width="6.36"/><path d="m689.64 447.93 9.75 1.99" fill="none" opacity=".5" stroke="#9c7e47" stroke-linecap="round" stroke-width="6.36"/><path d="m686.15 465.09 9.76 1.98" fill="none" opacity=".5" stroke="#9c7e47" stroke-linecap="round" stroke-width="6.36"/><path d="m682.66 482.32 9.75 1.98" fill="none" opacity=".5" stroke="#9c7e47" stroke-linecap="round" stroke-width="6.36"/><path d="m679.17 499.48 9.75 1.98" fill="none" opacity=".5" stroke="#9c7e47" stroke-linecap="round" stroke-width="6.36"/><path d="m675.67 516.7 9.75 1.98" fill="none" opacity=".5" stroke="#9c7e47" stroke-linecap="round" stroke-width="6.36"/><path d="m672.19 533.86 9.75 1.98" fill="none" opacity=".5" stroke="#9c7e47" stroke-linecap="round" stroke-width="6.36"/><path d="m715.71 417.43 9.75 1.98" fill="none" opacity=".5" stroke="#9c7e47" stroke-linecap="round" stroke-width="6.36"/><path d="m712.22 434.58 9.76 1.99" fill="none" opacity=".5" stroke="#9c7e47" stroke-linecap="round" stroke-width="6.36"/><path d="m708.72 451.81 9.76 1.98" fill="none" opacity=".5" stroke="#9c7e47" stroke-linecap="round" stroke-width="6.36"/><path d="m705.24 468.97 9.75 1.98" fill="none" opacity=".5" stroke="#9c7e47" stroke-linecap="round" stroke-width="6.36"/><path d="m701.74 486.19 9.75 1.99" fill="none" opacity=".5" stroke="#9c7e47" stroke-linecap="round" stroke-width="6.36"/><path d="m698.25 503.35 9.76 1.99" fill="none" opacity=".5" stroke="#9c7e47" stroke-linecap="round" stroke-width="6.36"/><path d="m694.75 520.58 9.76 1.98" fill="none" opacity=".5" stroke="#9c7e47" stroke-linecap="round" stroke-width="6.36"/><path d="m691.27 537.74 9.75 1.98" fill="none" opacity=".5" stroke="#9c7e47" stroke-linecap="round" stroke-width="6.36"/></g><rect fill="#302d2e" height="126.44" opacity=".15" rx="21.04" transform="matrix(.77835274 -.62782722 .62782722 .77835274 -254.85 496.71)" width="49.07" x="551.62" y="546.12"/><rect fill="#fdbb5d" height="126.44" rx="21.04" transform="matrix(.77835274 -.62782722 .62782722 .77835274 -247.67 494.18)" width="49.07" x="551.62" y="534.68"/><circle cx="538.25" cy="573.42" fill="#948064" opacity=".1" r=".69"/><circle cx="566.1" cy="566.33" fill="#948064" opacity=".1" r=".69"/><circle cx="552.12" cy="586.13" fill="#948064" opacity=".1" r=".69"/><circle cx="570.91" cy="583.33" fill="#948064" opacity=".1" r=".69"/><circle cx="564.96" cy="611.44" fill="#948064" opacity=".1" r=".69"/><circle cx="596.3" cy="601.12" fill="#948064" opacity=".1" r=".69"/><circle cx="593.86" cy="621.68" fill="#948064" opacity=".1" r=".69"/><circle cx="617.62" cy="623.78" fill="#948064" opacity=".1" r=".69"/><rect fill="#302d2e" height="126.44" opacity=".15" rx="21.04" transform="matrix(-.77835274 -.62782722 .62782722 -.77835274 690.26 1915.04)" width="49.07" x="658.59" y="772.47"/><rect fill="#fdbb5d" height="126.44" rx="21.04" transform="matrix(-.77835274 -.62782722 .62782722 -.77835274 697.44 1894.69)" width="49.07" x="658.59" y="761.03"/><circle cx="721.02" cy="799.77" fill="#948064" opacity=".1" r=".69"/><circle cx="693.17" cy="792.67" fill="#948064" opacity=".1" r=".69"/><circle cx="707.16" cy="812.48" fill="#948064" opacity=".1" r=".69"/><circle cx="688.36" cy="809.68" fill="#948064" opacity=".1" r=".69"/><circle cx="694.31" cy="837.78" fill="#948064" opacity=".1" r=".69"/><circle cx="662.98" cy="827.47" fill="#948064" opacity=".1" r=".69"/><circle cx="665.41" cy="848.03" fill="#948064" opacity=".1" r=".69"/><circle cx="641.66" cy="850.12" fill="#948064" opacity=".1" r=".69"/><path d="m747.52 493.9c2.93-4.76 7.24-11.41 4.49-16.38-2.16-3.91-8.32-6.16-12.68-4.59-4.88 1.75-6.39 7.86-7.78 12.39-3.93 12.77-12.59 23.84-18.87 35.76-2.7 5.1-8.23 14.17-19.31 32.29-11.44 18.74-13.72 21.88-20.92 34.25-9 15.54-7.43 14-13.73 24.57-12.2 20.41-18.31 30.61-28.32 42.2s-17.4 17.14-15.68 23.93a11.82 11.82 0 0 0 10.35 8.39c6.86.2 12.2-8 16.75-15.26 16.4-26 24.6-39 32.65-52.41 11.63-19.38 11.52-14.27 26.11-37.53s10.33-21.35 26.66-48.16c7.76-12.67 12.49-26.81 20.28-39.45z" fill="#302d2e" opacity=".15"/><path d="m746.94 489.22c2.93-4.76 7.24-11.41 4.49-16.38-2.15-3.91-8.32-6.16-12.68-4.59-4.88 1.75-6.39 7.86-7.78 12.39-3.93 12.77-12.58 23.84-18.87 35.76-2.7 5.1-8.23 14.17-19.3 32.29-11.45 18.74-13.73 21.88-20.93 34.25-9 15.55-7.43 14-13.73 24.57-12.2 20.41-18.31 30.61-28.32 42.2s-17.43 17.14-15.68 23.93a11.82 11.82 0 0 0 10.36 8.36c6.85.2 12.19-8 16.74-15.26 16.4-26 24.6-39 32.65-52.41 11.64-19.33 11.52-14.24 26.11-37.5s10.33-21.35 26.66-48.16c7.72-12.67 12.49-26.8 20.28-39.45z" fill="#735e3f"/><path d="m730.37 484.36c-.42-.09-1 .46-.89.83a.9.9 0 0 0 1.25.32.8.8 0 0 0 -.36-1.15z" fill="#e8dfd3" stroke="#e8dfd3" stroke-miterlimit="10" stroke-width="1.31"/><path d="m740.74 499.82c-.43-.14-1 .57-.86 1.08s1 .84 1.26.46a1.27 1.27 0 0 0 -.4-1.54z" fill="#e8dfd3" stroke="#e8dfd3" stroke-miterlimit="10" stroke-width="1.31"/><path d="m729.6 503.41c-.38-.15-.84.56-.74 1.07s.88.85 1.12.48a1.41 1.41 0 0 0 -.38-1.55z" fill="#e8dfd3" stroke="#e8dfd3" stroke-miterlimit="10" stroke-width="1.31"/><path d="m717.12 544.63c-.38-.14-.85.56-.74 1.07s.88.85 1.12.48a1.41 1.41 0 0 0 -.38-1.55z" fill="#e8dfd3" stroke="#e8dfd3" stroke-miterlimit="10" stroke-width="1.31"/><path d="m724.69 517.88c-.37-.15-.84.56-.73 1.07s.87.85 1.12.48a1.4 1.4 0 0 0 -.39-1.55z" fill="#e8dfd3" stroke="#e8dfd3" stroke-miterlimit="10" stroke-width="1.31"/><path d="m716.15 531.88c-.37-.15-.84.55-.73 1.06s.87.86 1.12.49 0-1.43-.39-1.55z" fill="#e8dfd3" stroke="#e8dfd3" stroke-miterlimit="10" stroke-width="1.31"/><path d="m700.59 534.68c-.38-.15-.85.55-.74 1.06s.87.86 1.12.49.03-1.4-.38-1.55z" fill="#e8dfd3" stroke="#e8dfd3" stroke-miterlimit="10" stroke-width="1.31"/><path d="m694.54 554.65c-.38-.15-.85.55-.74 1.06s.88.86 1.12.49.01-1.4-.38-1.55z" fill="#e8dfd3" stroke="#e8dfd3" stroke-miterlimit="10" stroke-width="1.31"/><path d="m682.64 565.56c-.38-.15-.84.55-.73 1.06s.87.86 1.12.49-.03-1.4-.39-1.55z" fill="#e8dfd3" stroke="#e8dfd3" stroke-miterlimit="10" stroke-width="1.31"/><path d="m691.78 588.08c-.38-.15-.84.55-.74 1.06s.88.86 1.12.49.01-1.4-.38-1.55z" fill="#e8dfd3" stroke="#e8dfd3" stroke-miterlimit="10" stroke-width="1.31"/><path d="m673.08 580.93c-.37-.15-.84.55-.73 1.06s.87.86 1.12.49.01-1.4-.39-1.55z" fill="#e8dfd3" stroke="#e8dfd3" stroke-miterlimit="10" stroke-width="1.31"/><path d="m663 598.73c-.38-.15-.84.55-.74 1.06s.88.86 1.12.49.05-1.4-.38-1.55z" fill="#e8dfd3" stroke="#e8dfd3" stroke-miterlimit="10" stroke-width="1.31"/><path d="m670.44 619.23c-.38-.14-.85.56-.74 1.07s.87.85 1.12.48a1.41 1.41 0 0 0 -.38-1.55z" fill="#e8dfd3" stroke="#e8dfd3" stroke-miterlimit="10" stroke-width="1.31"/><path d="m618.06 661.81c-.38-.15-.85.55-.74 1.06s.88.86 1.12.49.01-1.36-.38-1.55z" fill="#e8dfd3" stroke="#e8dfd3" stroke-miterlimit="10" stroke-width="1.31"/><path d="m640.46 654.37c-.37-.14-.84.56-.73 1.07s.87.85 1.12.48a1.4 1.4 0 0 0 -.39-1.55z" fill="#e8dfd3" stroke="#e8dfd3" stroke-miterlimit="10" stroke-width="1.31"/><path d="m635.47 674.88c-.38-.14-.84.56-.74 1.07s.88.86 1.12.48a1.41 1.41 0 0 0 -.38-1.55z" fill="#e8dfd3" stroke="#e8dfd3" stroke-miterlimit="10" stroke-width="1.31"/><path d="m622.22 673.74c-.38-.15-.85.55-.74 1.06s.87.86 1.12.49.01-1.4-.38-1.55z" fill="#e8dfd3" stroke="#e8dfd3" stroke-miterlimit="10" stroke-width="1.31"/><path d="m629.37 661.29c-.38-.15-.85.55-.74 1.06s.88.86 1.12.49.01-1.4-.38-1.55z" fill="#e8dfd3" stroke="#e8dfd3" stroke-miterlimit="10" stroke-width="1.31"/><path d="m639 637.86c-.38-.15-.85.55-.74 1.06s.87.86 1.12.49.05-1.41-.38-1.55z" fill="#e8dfd3" stroke="#e8dfd3" stroke-miterlimit="10" stroke-width="1.31"/><path d="m649.91 628.66c-.37-.15-.84.55-.73 1.06s.87.86 1.12.49 0-1.4-.39-1.55z" fill="#e8dfd3" stroke="#e8dfd3" stroke-miterlimit="10" stroke-width="1.31"/><path d="m651 647.64c-.38-.14-.85.56-.74 1.07s.87.85 1.12.48a1.41 1.41 0 0 0 -.38-1.55z" fill="#e8dfd3" stroke="#e8dfd3" stroke-miterlimit="10" stroke-width="1.31"/><path d="m653 617.22c-.37-.15-.84.55-.73 1.06s.87.86 1.12.49-.03-1.4-.39-1.55z" fill="#e8dfd3" stroke="#e8dfd3" stroke-miterlimit="10" stroke-width="1.31"/><path d="m669.57 607.24c-.38-.15-.85.55-.74 1.06s.87.86 1.12.49.05-1.4-.38-1.55z" fill="#e8dfd3" stroke="#e8dfd3" stroke-miterlimit="10" stroke-width="1.31"/><path d="m677.6 593.73c-.38-.15-.85.55-.74 1.06s.88.86 1.12.49.02-1.4-.38-1.55z" fill="#e8dfd3" stroke="#e8dfd3" stroke-miterlimit="10" stroke-width="1.31"/><path d="m695.08 564c-.37-.15-.84.56-.73 1.07s.87.85 1.12.48a1.4 1.4 0 0 0 -.39-1.55z" fill="#e8dfd3" stroke="#e8dfd3" stroke-miterlimit="10" stroke-width="1.31"/><path d="m711.55 555.1c-.38-.14-.85.56-.74 1.07s.87.86 1.12.48a1.41 1.41 0 0 0 -.38-1.55z" fill="#e8dfd3" stroke="#e8dfd3" stroke-miterlimit="10" stroke-width="1.31"/><path d="m709.5 520.64c-.38-.15-.85.55-.74 1.06s.88.86 1.12.49.01-1.4-.38-1.55z" fill="#e8dfd3" stroke="#e8dfd3" stroke-miterlimit="10" stroke-width="1.31"/><path d="m739.78 486.71c-.38-.15-.85.55-.74 1.06s.87.86 1.12.49.01-1.4-.38-1.55z" fill="#e8dfd3" stroke="#e8dfd3" stroke-miterlimit="10" stroke-width="1.31"/><path d="m751.68 479.57c-.34-.07-.79.37-.71.68a.73.73 0 0 0 1 .25.64.64 0 0 0 -.29-.93z" fill="#e8dfd3" stroke="#e8dfd3" stroke-miterlimit="10" stroke-width="1.31"/><path d="m683.84 211.46c-7.64-3.06-33.71-13.51-51.93 2.12s-12 43.2-11.65 44.51c5.12 21 22.86 30.77 28.73 33.56 5.34 2.53 20.69 9.82 35.59 3.37 23.7-10.24 23.49-45.32 23.46-49.46-.06-11.6-3.52-17.66-4.55-19.36-5.42-8.91-14.01-12.48-19.65-14.74zm-6.35 42.39c-1.13 5.37-6.74 9.68-12.72 9.54-7.14-.18-13.29-6.66-12.72-13.78a12.69 12.69 0 0 1 10.21-11.24c8.23-1.37 16.9 7.46 15.23 15.48z" fill="#302d2e" opacity=".15"/><path d="m683.84 208.51c-7.64-3.06-33.71-13.51-51.93 2.12s-12 43.2-11.65 44.51c5.12 21 22.86 30.78 28.73 33.56 5.34 2.54 20.69 9.82 35.59 3.37 23.7-10.24 23.49-45.31 23.46-49.46-.06-11.6-3.52-17.66-4.55-19.36-5.42-8.9-14.01-12.48-19.65-14.74zm-6.35 42.39c-1.13 5.37-6.74 9.69-12.72 9.54-7.14-.17-13.29-6.66-12.72-13.78a12.69 12.69 0 0 1 10.21-11.24c8.23-1.34 16.9 7.46 15.23 15.48z" fill="#fec77c"/><path d="m683.84 200.87c-14.15-8.2-36.64-11.2-51.93 2.12-18.32 16-12 42.94-11.65 44.51 7.14 28.64 42.51 50.69 65.7 40.27 16.43-7.38 20.51-28.24 21.2-31.79 3.76-19.25-3.25-43.49-23.32-55.11zm-6.35 42.39c-.92 5.06-6.58 9.7-12.72 9.54-7.31-.2-12.59-7.13-12.72-13.78-.09-4.48 2.13-10 6.36-11.66 7.72-3.09 20.69 7.03 19.08 15.9z" fill="#ffd499"/><path d="m584.2 768.43c-7.64-3.06-33.72-13.51-51.93 2.12s-12 43.2-11.66 44.51c5.13 21 22.86 30.77 28.74 33.56 5.34 2.53 20.69 9.81 35.59 3.37 23.7-10.24 23.49-45.32 23.46-49.46-.07-11.6-3.52-17.67-4.55-19.36-5.42-8.91-14.01-12.49-19.65-14.74zm-6.36 42.39c-1.12 5.37-6.73 9.68-12.72 9.54-7.14-.18-13.28-6.66-12.71-13.78a12.68 12.68 0 0 1 10.21-11.24c8.23-1.34 16.9 7.46 15.22 15.48z" fill="#302d2e" opacity=".15"/><path d="m584.2 765.48c-7.64-3.06-33.72-13.51-51.93 2.12s-12 43.2-11.66 44.51c5.13 21 22.86 30.77 28.74 33.56 5.34 2.53 20.69 9.82 35.59 3.37 23.7-10.24 23.49-45.31 23.46-49.46-.07-11.6-3.52-17.66-4.55-19.36-5.42-8.91-14.01-12.48-19.65-14.74zm-6.36 42.39c-1.12 5.37-6.73 9.68-12.72 9.54-7.14-.17-13.28-6.66-12.71-13.78a12.69 12.69 0 0 1 10.21-11.24c8.23-1.34 16.9 7.46 15.22 15.48z" fill="#fec77c"/><path d="m584.2 757.84c-14.15-8.2-36.64-11.2-51.93 2.12-18.32 15.95-12 42.94-11.66 44.51 7.15 28.64 42.52 50.69 65.71 40.27 16.43-7.38 20.5-28.25 21.2-31.79 3.76-19.25-3.25-43.49-23.32-55.11zm-6.36 42.39c-.92 5-6.57 9.7-12.72 9.54-7.3-.2-12.58-7.13-12.71-13.78-.09-4.48 2.13-10 6.36-11.66 7.72-3.09 20.68 7.03 19.07 15.9z" fill="#ffd499"/></svg>