<svg enable-background="new 0 0 512 512" viewBox="0 0 512 512" xmlns="http://www.w3.org/2000/svg"><g fill="#fff"><path d="m139.2 78.6c.1 23.5-17.3 42.2-45.3 42.2-26.7 0-44-18.7-43.9-42.2-.2-24.1 17.6-42.3 44.7-42.3 27.2 0 44.2 18.1 44.5 42.3zm-86.9 346.7v-271.4h84.5v271.3z"/><path d="m204.4 240.6c0-33.8-1-62.3-2.2-86.7h73.2l3.9 37.6h1.8c10.9-17.5 38.6-43.7 83.8-43.7 55.4 0 97.2 37 97.2 116.8v160.7h-84.5v-150.4c0-35-12.5-58.9-42.9-58.9-23.2 0-36.9 16.2-42.8 31.8-2.2 5.2-2.9 13.3-2.9 20.8v156.6h-84.5z"/></g></svg>