<?xml version="1.0" encoding="utf-8"?>
<!-- Generator: Adobe Illustrator 22.1.0, SVG Export Plug-In . SVG Version: 6.00 Build 0)  -->
<svg version="1.1" id="Layer_1" xmlns="http://www.w3.org/2000/svg" xmlns:xlink="http://www.w3.org/1999/xlink" x="0px" y="0px"
	 viewBox="0 0 512 512" style="enable-background:new 0 0 512 512;" xml:space="preserve">
<style type="text/css">
	.st0{fill:#FFFFFF;}
</style>
<g>
	<path class="st0" d="M139.2,78.6c0.1,23.5-17.3,42.2-45.3,42.2c-26.7,0-44-18.7-43.9-42.2c-0.2-24.1,17.6-42.3,44.7-42.3
		C121.9,36.3,138.9,54.4,139.2,78.6z M52.3,425.3V153.9h84.5v271.3L52.3,425.3L52.3,425.3z"/>
	<path class="st0" d="M204.4,240.6c0-33.8-1-62.3-2.2-86.7h73.2l3.9,37.6h1.8c10.9-17.5,38.6-43.7,83.8-43.7
		c55.4,0,97.2,37,97.2,116.8v160.7h-84.5V274.9c0-35-12.5-58.9-42.9-58.9c-23.2,0-36.9,16.2-42.8,31.8c-2.2,5.2-2.9,13.3-2.9,20.8
		v156.6h-84.5L204.4,240.6z"/>
</g>
</svg>
