<svg viewBox="0 0 1200 1200" xmlns="http://www.w3.org/2000/svg"><path d="m1148.9 983.33-397.68 78.45-52.66-38.28-66.83-338.76 441.1-87.02z" fill="#1f1719" opacity=".15"/><path d="m1143.47 968.73-397.68 78.45-52.66-38.28-66.83-338.76 441.1-87.02z" fill="#fff"/><path d="m1083.67 679.47-400.88-59.96-36.71-53.77 51.08-341.49 444.65 66.5z" fill="#1f1719" opacity=".15"/><path d="m1083.47 663.89-400.88-59.95-36.71-53.77 51.08-341.49 444.65 66.5z" fill="#fff"/><path d="m690.5 556.84-44.62-6.67 36.71 53.77z" fill="#ebebeb"/><path d="m782 805.82a141.08 141.08 0 0 0 -20.23 53.95c-2.25 15-4.06 44.52 4.49 47.21 8.2 2.58 23.69-20.15 31.48-38.21 13.26-30.83 10.26-62.27 4.48-85.43" style="fill:none;stroke:#3d3a31;stroke-linecap:round;stroke-width:14.12;stroke-miterlimit:10;opacity:.82"/><path d="m982.06 814.81c-7.37 8.5-20.57 26.18-24.73 51.71-3.54 21.75-1.28 53.8 9 56.2 12.45 2.91 37.91-37.45 42.71-78.68a132 132 0 0 0 -4.5-51.71" style="fill:none;stroke:#3d3a31;stroke-linecap:round;stroke-width:14.12;stroke-miterlimit:10;opacity:.82"/><path d="m824.7 938.45 24.73 6.75h33.72" style="fill:none;stroke:#3d3a31;stroke-linecap:round;stroke-width:14.12;stroke-miterlimit:10;opacity:.82"/><path d="m791.45 365.3c-2.24 3.65-19.87 33.39-7.28 63.25 13.75 32.63 54.09 42.95 83.62 37.53 26.84-4.93 54.11-24.58 61.44-52.89 12.65-48.83-38.92-104.67-82.91-100.24-20.61 2.08-35.58 17-43.36 26.51" style="fill:none;stroke:#3d3a31;stroke-linecap:round;stroke-width:14.12;stroke-miterlimit:10;opacity:.82"/><path d="m839.59 492.51 9.24 27.26" style="fill:none;stroke:#3d3a31;stroke-linecap:round;stroke-width:14.12;stroke-miterlimit:10;opacity:.82"/><path d="m892.19 493.27 8.21 24.24" style="fill:none;stroke:#3d3a31;stroke-linecap:round;stroke-width:14.12;stroke-miterlimit:10;opacity:.82"/><path d="m922.92 469.36 8.21 24.23" style="fill:none;stroke:#3d3a31;stroke-linecap:round;stroke-width:14.12;stroke-miterlimit:10;opacity:.82"/><path d="m1065.59 347.72-14-1.63c7.31-17.17 12.16-31.08 14.4-41.37 1.82-8.38 3.42-20.11-3.68-25.31s-17.75-.16-25.15 4.08a4.44 4.44 0 1 0 4.41 7.71c11.65-6.67 14.94-5 15.49-4.62s3.11 3.05.25 16.25c-2.23 10.23-7.25 24.42-14.93 42.19l-11-1.28a4.44 4.44 0 0 0 -1 8.83l34.2 4h.52a4.44 4.44 0 0 0 .51-8.86z" fill="#3d3a31" opacity=".82"/><path d="m727.34 774c-4 0-8.09-2.7-11.39-7.51-3.41-5-6.29-13-3.18-19.29 2.93-5.92 10-8.81 22.32-8.77a126.64 126.64 0 0 0 1.85-24.58c-.3-9.31-2.3-20.15-7-22.69-2.11-1.14-8.93-2.31-26.65 11.39a5.53 5.53 0 1 1 -6.77-8.74c17-13.18 29.7-17.23 38.68-12.37 7.1 3.84 11.31 13 12.51 27.16a129.21 129.21 0 0 1 -1.52 30.52 273.29 273.29 0 0 1 29.16 5.13 5.53 5.53 0 1 1 -2.41 10.79 252.64 252.64 0 0 0 -29-5c-3.81 15.28-9.13 23.32-15.82 23.92-.26.04-.52.04-.78.04zm5.28-24.44c-8.72.3-9.93 2.52-9.94 2.54-.29.57-.35 2.34.65 4.85a14.51 14.51 0 0 0 3.74 5.58c1.18-1.4 3.37-5.2 5.55-12.96z" fill="#3d3a31" opacity=".82"/><path d="m704.84 1053.7-72.11-56.85a310.74 310.74 0 0 0 45.28-162c0-172.44-139.8-312.23-312.24-312.23s-312.23 139.77-312.23 312.21 139.79 312.24 312.23 312.24a311.21 311.21 0 0 0 219.31-90l72.21 56.93a32.64 32.64 0 0 0 45.83-5.42l7.14-9.06a32.63 32.63 0 0 0 -5.42-45.82z" fill="#1f1719" opacity=".15"/><rect fill="#5c786c" height="76.79" rx="32.63" transform="matrix(.78531693 .61909395 -.61909395 .78531693 765.7 -170.93)" width="197.15" x="530.7" y="980.05"/><circle cx="365.77" cy="810.26" fill="#809487" r="312.23"/><circle cx="365.77" cy="810.26" fill="#5c786c" r="295.85"/><circle cx="365.77" cy="810.26" fill="#522c23" r="254.45"/><circle cx="365.77" cy="810.26" fill="#e9d4c7" opacity=".89" r="254.45"/><g fill="#522c23"><path d="m608.26 816.82c-.21 14-.74 49.64-19.36 72.36-3.17 3.88-9.14 10.15-14.3 21-6.68 14.1-3.77 18.58-9.31 29-6.68 12.52-14.48 12.69-27.72 25.73a104.62 104.62 0 0 0 -21.87 32c-4.49 0-10.84.83-15.83 5.09-6.2 5.29-7.1 13.19-7.74 15.95-2.19 9.52-16 21.48-68.55 31.18a132.53 132.53 0 0 1 -19.4-5c-12.89-4.38-18.48-8.56-26.53-7.11a23.6 23.6 0 0 0 -11.88 6.4 40.3 40.3 0 0 0 -16.54-2.61c-9.34.57-14.09 4.41-20.37 6.16-12.19 3.4-23.81-2.81-33.63-8-15.8-8.44-137.32-85-162.62-228.67-1-5.86-12.51-74.18 12.56-88.3 5.12-2.88 13.34-4.39 19.14-12.48 6.73-9.39 5.81-21.55 4.16-30 2.14.3 15.62 2 26.64-7.49 9.36-8.08 13.33-21.13 10.35-33.75 13.32-14.67 42.45-43.81 81.2-59.47 22.38-9 37.23-9.24 42.44-9.15 15.1.25 15.19 4.06 36.67 7.43 32.66 5.14 42.61-2.05 60.71 8 9.74 5.41 7.48 7.84 17.69 13 19.94 10 28.62.76 43.76 9.26 14.57 8.18 12.21 20 28.61 26.93 9 3.83 13.52 1.89 20.19 3.36 20.44 4.51 28.37 33.8 48.81 96.77 20.13 61.97 22.96 65.96 22.72 82.41z"/><circle cx="194.2" cy="643.13" r="4.92"/><circle cx="182.79" cy="663.39" r="10.11"/><circle cx="156.35" cy="696.44" r="2.59"/><circle cx="147.45" cy="708.27" r="6.31"/><circle cx="137.85" cy="883.77" r="3.29"/><circle cx="145.8" cy="902.5" r="7.95"/><circle cx="352.62" cy="1052.79" r="6.23"/><circle cx="382.64" cy="1049.73" r="6.69"/><circle cx="507.51" cy="1006.92" r="6.11"/><circle cx="533.33" cy="986.11" r="2.11"/><circle cx="538.81" cy="978.33" r="5.47"/><circle cx="551.96" cy="966.7" r="7.69" stroke="#522c23" stroke-miterlimit="10" stroke-width="2.25"/><circle cx="590.2" cy="904.53" r="5.98" stroke="#522c23" stroke-miterlimit="10" stroke-width="2.25"/><circle cx="582.22" cy="921.25" r="8.37" stroke="#522c23" stroke-miterlimit="10" stroke-width="2.25"/><circle cx="586.71" cy="719.21" r="1.69" stroke="#522c23" stroke-miterlimit="10" stroke-width="2.25"/><circle cx="596.97" cy="739.64" r="7.03" stroke="#522c23" stroke-miterlimit="10" stroke-width="2.25"/><circle cx="596.24" cy="722.7" r="5.18" stroke="#522c23" stroke-miterlimit="10" stroke-width="2.25"/><circle cx="390.73" cy="569.89" r="6.28" stroke="#522c23" stroke-miterlimit="10" stroke-width="2.25"/><circle cx="375.48" cy="563.61" r="4.98" stroke="#522c23" stroke-miterlimit="10" stroke-width="2.25"/><circle cx="367.7" cy="571.82" r="3.23" stroke="#522c23" stroke-miterlimit="10" stroke-width="1.92"/><circle cx="445.38" cy="582.88" r="8.28" stroke="#522c23" stroke-miterlimit="10" stroke-width="1.92"/><circle cx="450.24" cy="595.45" r="2.66" stroke="#522c23" stroke-miterlimit="10" stroke-width="1.92"/><circle cx="461.12" cy="590.23" r="4.38" stroke="#522c23" stroke-miterlimit="10" stroke-width="3.16"/></g><path d="m1036.47 187.57-22.26-7.92v-.9a2.81 2.81 0 0 0 -1.73-2.59l-60.29-25.4h-780v-10.85h210.89c7.78 0 14.1-5 14.1-11.25s-6.32-11.25-14.1-11.25h-239.08v33.35h-22.41v7h-56.27a14.21 14.21 0 0 0 -14.21 14.24v34.58a14.22 14.22 0 0 0 14.21 14.22h56.27v7h830.6l60.29-25.4a2.81 2.81 0 0 0 1.73-2.6v-.8l22.43-8c.45-.16.64-.91.61-1.67s-.31-1.59-.78-1.76z" fill="#1f1719" opacity=".15"/><path d="m1036.47 170.9-23.47-8.34a.89.89 0 0 0 -1.19.84v8.34a.89.89 0 0 0 .89.89h24.51c0-.78-.27-1.56-.74-1.73z" fill="#c3bdc0"/><path d="m1013 182.72 23.64-8.42c.45-.16.64-.91.61-1.67h-24.54a.86.86 0 0 0 -.86.86v8.42a.86.86 0 0 0 1.15.81z" fill="#b1acaf"/><path d="m1014.21 172.63v-10.55a2.82 2.82 0 0 0 -1.73-2.6l-60.29-25.4v38.55z" fill="#b6b1b4"/><path d="m952.19 172.63v38.55l60.29-25.4a2.81 2.81 0 0 0 1.73-2.6v-10.55z" fill="#a7a2a5"/><path d="m51.11 172.63v17.29a14.22 14.22 0 0 0 14.21 14.22h56.27v-31.51z" fill="#b1acaf"/><path d="m121.59 141.13h-56.27a14.21 14.21 0 0 0 -14.21 14.21v17.29h70.48z" fill="#c3bdc0"/><path d="m193.02 134.08h759.17v38.55h-759.17z" fill="#f7512d"/><path d="m193.02 172.63h759.17v38.55h-759.17z" fill="#e64c2a"/><path d="m121.59 172.63h71.43v38.55h-71.43z" fill="#a7a2a5"/><path d="m121.59 134.08h71.43v38.55h-71.43z" fill="#b6b1b4"/><path d="m144 156.18v-55.44h239.08c7.78 0 14.1 5 14.1 11.25s-6.32 11.25-14.1 11.25h-210.91v32.94c0 6.21-6.31 11.25-14.1 11.25s-14.07-5.04-14.07-11.25z" fill="#b6b1b4"/><path d="m1036.47 170.9-23.47-8.34a.89.89 0 0 0 -1.19.84v8.34a.89.89 0 0 0 .89.89h24.51c0-.78-.27-1.56-.74-1.73z" fill="#c3bdc0"/><path d="m1013 182.72 23.64-8.42c.45-.16.64-.91.61-1.67h-24.54a.86.86 0 0 0 -.86.86v8.42a.86.86 0 0 0 1.15.81z" fill="#b1acaf"/><path d="m1014.21 172.63v-10.55a2.82 2.82 0 0 0 -1.73-2.6l-60.29-25.4v38.55z" fill="#b6b1b4"/><path d="m952.19 172.63v38.55l60.29-25.4a2.81 2.81 0 0 0 1.73-2.6v-10.55z" fill="#a7a2a5"/><path d="m51.11 172.63v17.29a14.22 14.22 0 0 0 14.21 14.22h56.27v-31.51z" fill="#b1acaf"/><path d="m121.59 141.13h-56.27a14.21 14.21 0 0 0 -14.21 14.21v17.29h70.48z" fill="#c3bdc0"/><path d="m193.02 134.08h759.17v38.55h-759.17z" fill="#f45f35"/><path d="m193.02 172.63h759.17v38.55h-759.17z" fill="#f7512d"/><path d="m121.59 172.63h71.43v38.55h-71.43z" fill="#a7a2a5"/><path d="m121.59 134.08h71.43v38.55h-71.43z" fill="#b6b1b4"/><path d="m144 156.18v-55.44h239.08c7.78 0 14.1 5 14.1 11.25s-6.32 11.25-14.1 11.25h-210.91v32.94c0 6.21-6.31 11.25-14.1 11.25s-14.07-5.04-14.07-11.25z" fill="#b6b1b4"/></svg>