<svg xmlns="http://www.w3.org/2000/svg" viewBox="0 0 1800 1200"><defs><style>.cls-1{fill:#1f1719;opacity:0.15;}.cls-2{fill:#fff;}.cls-15,.cls-18,.cls-20,.cls-21,.cls-22,.cls-23,.cls-24,.cls-25,.cls-3,.cls-4,.cls-5{fill:none;stroke-linecap:round;}.cls-3,.cls-4,.cls-5{stroke:#3d3a31;stroke-linejoin:round;}.cls-3{stroke-width:3px;opacity:0.6;}.cls-4{stroke-width:7.48px;}.cls-4,.cls-5{opacity:0.3;}.cls-5{stroke-width:4px;}.cls-6{fill:#d8d8d7;}.cls-7{fill:#ccc;}.cls-8{fill:#d6d6d6;}.cls-9{fill:#b4aea8;}.cls-10{fill:#3d3d3d;}.cls-11{fill:#dedede;}.cls-12{fill:#c6c6c6;}.cls-13{fill:#363939;}.cls-14{fill:#545454;}.cls-15{stroke:#636363;}.cls-15,.cls-18,.cls-20,.cls-21,.cls-22,.cls-23,.cls-24,.cls-25,.cls-30,.cls-31,.cls-32{stroke-miterlimit:10;}.cls-15,.cls-18,.cls-25{stroke-width:4.29px;}.cls-16{fill:#666;}.cls-17{fill:#333;}.cls-18,.cls-20,.cls-21{stroke:#9e9e9e;}.cls-19{fill:#5e5e5e;}.cls-20{stroke-width:3.34px;}.cls-21{stroke-width:3.97px;}.cls-22{stroke:#c9e1ee;}.cls-22,.cls-23,.cls-24{stroke-width:7.71px;}.cls-23{stroke:#fac488;}.cls-24{stroke:#bae098;}.cls-25{stroke:#f89d47;opacity:0.72;}.cls-26{fill:#5c786c;}.cls-27{fill:#809487;}.cls-28,.cls-30,.cls-31,.cls-32{fill:#522c23;}.cls-29{fill:#e9d4c7;opacity:0.89;}.cls-30,.cls-31,.cls-32{stroke:#522c23;}.cls-30{stroke-width:1.51px;}.cls-31{stroke-width:1.29px;}.cls-32{stroke-width:2.13px;}.cls-33{fill:#c3bdc0;}.cls-34{fill:#b1acaf;}.cls-35{fill:#b6b1b4;}.cls-36{fill:#a7a2a5;}.cls-37{fill:#f7512d;}.cls-38{fill:#e64c2a;}.cls-39{fill:#f45f35;}</style></defs><title>portfolio-icons</title><g id="motion-banner"><g id="art-boards"><rect class="cls-1" x="141" y="453.32" width="612" height="792" transform="translate(1296.32 402.32) rotate(90)"/><rect class="cls-2" x="141" y="446.25" width="612" height="792" transform="translate(1289.25 395.25) rotate(90)"/><line class="cls-3" x1="593.41" y1="775.99" x2="811.82" y2="775.99"/><line class="cls-3" x1="593.41" y1="797.77" x2="811.82" y2="797.77"/><line class="cls-3" x1="593.41" y1="819.54" x2="811.82" y2="819.54"/><rect class="cls-3" x="86.53" y="595.38" width="218.4" height="146.01"/><rect class="cls-3" x="338.23" y="595.38" width="218.4" height="146.01"/><rect class="cls-3" x="593.41" y="595.38" width="218.4" height="146.01"/><line class="cls-3" x1="86.53" y1="775.99" x2="304.93" y2="775.99"/><line class="cls-3" x1="86.53" y1="797.77" x2="304.93" y2="797.77"/><line class="cls-3" x1="86.53" y1="819.54" x2="304.93" y2="819.54"/><line class="cls-3" x1="338.33" y1="775.99" x2="556.74" y2="775.99"/><line class="cls-3" x1="338.33" y1="797.77" x2="556.74" y2="797.77"/><line class="cls-3" x1="338.33" y1="819.54" x2="556.74" y2="819.54"/><line class="cls-3" x1="593.41" y1="1037.54" x2="811.82" y2="1037.54"/><line class="cls-3" x1="593.41" y1="1059.31" x2="811.82" y2="1059.31"/><line class="cls-3" x1="593.41" y1="1081.08" x2="811.82" y2="1081.08"/><rect class="cls-3" x="86.53" y="856.92" width="218.4" height="146.01"/><rect class="cls-3" x="338.23" y="856.92" width="218.4" height="146.01"/><rect class="cls-3" x="593.41" y="856.92" width="218.4" height="146.01"/><line class="cls-3" x1="86.53" y1="1037.54" x2="304.93" y2="1037.54"/><line class="cls-3" x1="86.53" y1="1059.31" x2="304.93" y2="1059.31"/><line class="cls-3" x1="86.53" y1="1081.08" x2="304.93" y2="1081.08"/><line class="cls-3" x1="338.33" y1="1037.54" x2="556.74" y2="1037.54"/><line class="cls-3" x1="338.33" y1="1059.31" x2="556.74" y2="1059.31"/><line class="cls-3" x1="338.33" y1="1081.08" x2="556.74" y2="1081.08"/><path class="cls-4" d="M181.76,634.75c-4.44.42-12.72,1.93-17.46,8.27-8.72,11.63-.34,32.57,11.94,42.27,19.14,15.1,53.84,7.7,59.73-8.27,5-13.6-9.25-37.73-39.51-49.63"/><path class="cls-4" d="M427.3,673.24c-11.44.63-25.12,2.32-26.05,7.33-1.15,6.12,17,15.51,32.57,19.54,30,7.78,64-.81,64.33-9,.2-4.27-8.76-10.34-45.6-18.73"/><path class="cls-4" d="M674.86,631.71c-1.68,1.39-15,12.85-13.84,29.31,1.3,18,19.07,29.55,34.2,31.76,13.75,2,30.11-3,38.27-15.47,14.08-21.49-1.67-56.84-23.61-61.89-10.29-2.36-19.94,2.38-25.25,5.7"/><path class="cls-5" d="M168.35,612.16v-8.95"/><path class="cls-5" d="M187.08,616.24v-13"/><path class="cls-5" d="M208.25,620.31V606.46"/><path class="cls-5" d="M677.3,700.93v14.65"/><path class="cls-5" d="M702.55,709.88v13"/><path class="cls-5" d="M721.28,703.37v13"/><path class="cls-4" d="M153.31,886a23.7,23.7,0,0,0-4.71,9.42c-1.87,7.81.41,16.94,3.14,17.27,1.28.15,4.16-1.47,9.42-18.84"/><path class="cls-4" d="M214.53,892.24A59.46,59.46,0,0,0,213,904c0,1.18-.45,14.35,2.35,14.92,2.27.45,6-7.39,7.85-13.35,3.86-12.27,3.24-27.23-.78-28.26-1.29-.32-3.4.65-7.07,6.28"/><path class="cls-4" d="M165.87,941.69c1.76-6.8,6.51-11.66,11-11.78,5.83-.15,13.1,7.67,11.78,18.84"/><path class="cls-4" d="M406.05,885.17A49.23,49.23,0,0,0,399,904c-.78,5.24-1.41,15.54,1.57,16.48s8.27-7,11-13.34c4.64-10.76,3.59-21.74,1.57-29.83"/><path class="cls-4" d="M475.9,888.31a36.81,36.81,0,0,0-8.63,18.06c-1.24,7.59-.45,18.78,3.14,19.62,4.35,1,13.24-13.08,14.91-27.47a45.85,45.85,0,0,0-1.57-18.06"/><path class="cls-4" d="M421,931.48l8.64,2.36h11.77"/><path class="cls-4" d="M673.7,883.6a28.51,28.51,0,0,0-14.91,7.07c-6.44,6-11.21,16.61-7.85,20.41s13.92.55,20.41-4.71c6.94-5.64,8.85-13.48,9.42-16.49"/><path class="cls-4" d="M724.72,895.38a31.6,31.6,0,0,0-15.7,7.06c-6.24,5.37-12.43,15.31-9.42,19.62s14.54,2.26,22-2.35c11.44-7.09,13.7-20.55,14.13-23.55"/><path class="cls-4" d="M665.85,926c-11.76,9.88-13.59,14.33-12.56,16.48,2.62,5.44,27,3.47,29.18-5.64,1.56-6.42-8.45-14-9.55-14.77"/></g><g id="laptop"><path class="cls-6" d="M607.85,78l91.57,208.35A19.38,19.38,0,0,0,717.16,298h913.78a19.39,19.39,0,0,0,17.79-11.69l88.4-204.51a19.37,19.37,0,0,0-17.78-27.07H623.08A16.64,16.64,0,0,0,607.85,78Z"/><g id="keyboard"><path class="cls-1" d="M706.46,326.62H1643a0,0,0,0,1,0,0V889.95a13.57,13.57,0,0,1-13.57,13.57H720a13.57,13.57,0,0,1-13.57-13.57V326.62A0,0,0,0,1,706.46,326.62Z"/><rect class="cls-7" x="706.46" y="304.81" width="936.59" height="576.9" rx="27.96"/><rect class="cls-8" x="804.14" y="349.07" width="743.74" height="307" rx="13.38"/><rect class="cls-9" x="814.96" y="367.32" width="43" height="26.58" rx="1.54"/><rect class="cls-9" x="814.96" y="402.53" width="40.4" height="40.4" rx="1.54"/><rect class="cls-9" x="814.96" y="451.56" width="68.9" height="40.4" rx="1.54"/><rect class="cls-9" x="814.96" y="500.59" width="79.54" height="40.4" rx="1.54"/><rect class="cls-9" x="867.11" y="402.53" width="40.4" height="40.4" rx="1.54"/><rect class="cls-9" x="892" y="451.56" width="40.4" height="40.4" rx="1.54"/><rect class="cls-9" x="940.98" y="451.56" width="40.4" height="40.4" rx="1.54"/><rect class="cls-9" x="990.53" y="451.56" width="40.4" height="40.4" rx="1.54"/><rect class="cls-9" x="1040.94" y="451.56" width="40.4" height="40.4" rx="1.54"/><rect class="cls-9" x="1090.79" y="451.56" width="40.4" height="40.4" rx="1.54"/><rect class="cls-9" x="1140.55" y="451.56" width="40.4" height="40.4" rx="1.54"/><rect class="cls-9" x="1193.38" y="451.56" width="40.4" height="40.4" rx="1.54"/><rect class="cls-9" x="904.75" y="500.59" width="40.4" height="40.4" rx="1.54"/><rect class="cls-9" x="953.73" y="500.59" width="40.4" height="40.4" rx="1.54"/><rect class="cls-9" x="1003.28" y="500.59" width="40.4" height="40.4" rx="1.54"/><rect class="cls-9" x="1053.69" y="500.59" width="40.4" height="40.4" rx="1.54"/><rect class="cls-9" x="1103.54" y="500.59" width="40.4" height="40.4" rx="1.54"/><rect class="cls-9" x="1153.3" y="500.59" width="40.4" height="40.4" rx="1.54"/><rect class="cls-9" x="1206.13" y="500.59" width="40.4" height="40.4" rx="1.54"/><rect class="cls-9" x="1253.78" y="500.59" width="40.4" height="40.4" rx="1.54"/><rect class="cls-9" x="1304.2" y="500.59" width="40.4" height="40.4" rx="1.54"/><rect class="cls-9" x="1354.04" y="500.59" width="40.4" height="40.4" rx="1.54"/><rect class="cls-9" x="1403.81" y="500.59" width="40.4" height="40.4" rx="1.54"/><rect class="cls-9" x="1456.63" y="500.59" width="40.4" height="40.4" rx="1.54"/><rect class="cls-9" x="1178.49" y="549.62" width="40.4" height="40.4" rx="1.54"/><rect class="cls-9" x="1228.91" y="549.62" width="40.4" height="40.4" rx="1.54"/><rect class="cls-9" x="1278.75" y="549.62" width="40.4" height="40.4" rx="1.54"/><rect class="cls-9" x="1328.52" y="549.62" width="40.4" height="40.4" rx="1.54"/><rect class="cls-9" x="1381.34" y="549.62" width="40.4" height="40.4" rx="1.54"/><rect class="cls-9" x="1343.84" y="598.65" width="40.4" height="46.36" rx="1.54"/><rect class="cls-9" x="1444.2" y="602" width="38.96" height="17.4" rx="1.54"/><rect class="cls-9" x="1281.02" y="598.65" width="52.37" height="46.36" rx="1.54"/><rect class="cls-9" x="1027.99" y="598.65" width="244.72" height="46.36" rx="1.54"/><rect class="cls-9" x="1433.42" y="549.62" width="101.9" height="40.4" rx="1.54"/><rect class="cls-9" x="927.73" y="549.62" width="40.4" height="40.4" rx="1.54"/><rect class="cls-9" x="879.08" y="549.62" width="40.4" height="40.4" rx="1.54"/><rect class="cls-9" x="814.96" y="549.62" width="54.65" height="40.4" rx="1.54"/><rect class="cls-9" x="814.96" y="598.65" width="39.77" height="46.36" rx="1.54"/><rect class="cls-9" x="863.97" y="598.65" width="39.77" height="46.36" rx="1.54"/><rect class="cls-9" x="916.78" y="598.65" width="39.77" height="46.36" rx="1.54"/><rect class="cls-9" x="968.13" y="598.65" width="50.42" height="46.36" rx="1.54"/><rect class="cls-9" x="978.15" y="549.62" width="40.4" height="40.4" rx="1.54"/><rect class="cls-9" x="1027.99" y="549.62" width="40.4" height="40.4" rx="1.54"/><rect class="cls-9" x="1077.76" y="549.62" width="40.4" height="40.4" rx="1.54"/><rect class="cls-9" x="1130.58" y="549.62" width="40.4" height="40.4" rx="1.54"/><rect class="cls-9" x="1240.62" y="451.56" width="40.4" height="40.4" rx="1.54"/><rect class="cls-9" x="1292.99" y="451.56" width="40.4" height="40.4" rx="1.54"/><rect class="cls-9" x="1343.84" y="451.56" width="40.4" height="40.4" rx="1.54"/><rect class="cls-9" x="1393.02" y="451.56" width="40.4" height="40.4" rx="1.54"/><rect class="cls-9" x="1442.76" y="451.56" width="40.4" height="40.4" rx="1.54"/><path class="cls-9" d="M1533,451.56h-37.15a2.28,2.28,0,0,0-2.28,2.28v35.84a2.28,2.28,0,0,0,2.28,2.28h10.47v43.41a2.28,2.28,0,0,0,2.27,2.28H1533a2.28,2.28,0,0,0,2.27-2.28V453.84A2.28,2.28,0,0,0,1533,451.56Z"/><rect class="cls-9" x="919.48" y="402.53" width="40.4" height="40.4" rx="1.54"/><rect class="cls-9" x="970.33" y="402.53" width="40.4" height="40.4" rx="1.54"/><rect class="cls-9" x="1068.08" y="402.53" width="40.4" height="40.4" rx="1.54"/><rect class="cls-9" x="1118.89" y="402.53" width="40.4" height="40.4" rx="1.54"/><rect class="cls-9" x="1168.07" y="402.53" width="40.4" height="40.4" rx="1.54"/><rect class="cls-9" x="1217.25" y="402.53" width="40.4" height="40.4" rx="1.54"/><rect class="cls-9" x="1269.47" y="402.53" width="40.4" height="40.4" rx="1.54"/><rect class="cls-9" x="1318.65" y="402.53" width="40.4" height="40.4" rx="1.54"/><rect class="cls-9" x="1369.04" y="402.53" width="40.4" height="40.4" rx="1.54"/><rect class="cls-9" x="1418.83" y="402.53" width="40.4" height="40.4" rx="1.54"/><rect class="cls-9" x="1468.62" y="402.53" width="66.69" height="40.4" rx="1.54"/><rect class="cls-9" x="1017.05" y="402.53" width="40.4" height="40.4" rx="1.54"/><rect class="cls-9" x="865.81" y="367.32" width="43" height="26.58" rx="1.54"/><rect class="cls-9" x="918.18" y="367.32" width="43" height="26.58" rx="1.54"/><rect class="cls-9" x="969.03" y="367.32" width="43" height="26.58" rx="1.54"/><rect class="cls-9" x="1022.46" y="367.32" width="43" height="26.58" rx="1.54"/><rect class="cls-9" x="1075.89" y="367.32" width="43" height="26.58" rx="1.54"/><rect class="cls-9" x="1128.26" y="367.32" width="43" height="26.58" rx="1.54"/><rect class="cls-9" x="1179.11" y="367.32" width="43" height="26.58" rx="1.54"/><rect class="cls-9" x="1230.17" y="367.32" width="43" height="26.58" rx="1.54"/><rect class="cls-9" x="1281.02" y="367.32" width="43" height="26.58" rx="1.54"/><rect class="cls-9" x="1333.39" y="367.32" width="43" height="26.58" rx="1.54"/><rect class="cls-9" x="1384.24" y="367.32" width="43" height="26.58" rx="1.54"/><rect class="cls-9" x="1441.46" y="367.32" width="43" height="26.58" rx="1.54"/><rect class="cls-9" x="1492.31" y="367.32" width="43" height="26.58" rx="1.54"/><path class="cls-9" d="M1445.75,598.65h35.87a1.54,1.54,0,0,1,1.54,1.54v14.28a0,0,0,0,1,0,0h-39a0,0,0,0,1,0,0V600.2A1.54,1.54,0,0,1,1445.75,598.65Z"/><rect class="cls-9" x="1444.2" y="619.39" width="38.96" height="25.62" rx="1.54"/><rect class="cls-9" x="1494.98" y="624.17" width="38.96" height="20.84" rx="1.54"/><rect class="cls-9" x="1394.74" y="624.17" width="38.96" height="20.84" rx="1.54"/><rect class="cls-10" x="814.96" y="362.75" width="43" height="26.58" rx="1.54"/><rect class="cls-10" x="814.96" y="397.96" width="40.4" height="40.4" rx="1.54"/><rect class="cls-10" x="814.96" y="447" width="68.9" height="40.4" rx="1.54"/><rect class="cls-10" x="814.96" y="496.03" width="79.54" height="40.4" rx="1.54"/><rect class="cls-10" x="867.11" y="397.96" width="40.4" height="40.4" rx="1.54"/><rect class="cls-10" x="892" y="447" width="40.4" height="40.4" rx="1.54"/><rect class="cls-10" x="940.98" y="447" width="40.4" height="40.4" rx="1.54"/><rect class="cls-10" x="990.53" y="447" width="40.4" height="40.4" rx="1.54"/><rect class="cls-10" x="1040.94" y="447" width="40.4" height="40.4" rx="1.54"/><rect class="cls-10" x="1090.79" y="447" width="40.4" height="40.4" rx="1.54"/><rect class="cls-10" x="1140.55" y="447" width="40.4" height="40.4" rx="1.54"/><rect class="cls-10" x="1193.38" y="447" width="40.4" height="40.4" rx="1.54"/><rect class="cls-10" x="904.75" y="496.03" width="40.4" height="40.4" rx="1.54"/><rect class="cls-10" x="953.73" y="496.03" width="40.4" height="40.4" rx="1.54"/><rect class="cls-10" x="1003.28" y="496.03" width="40.4" height="40.4" rx="1.54"/><rect class="cls-10" x="1053.69" y="496.03" width="40.4" height="40.4" rx="1.54"/><rect class="cls-10" x="1103.54" y="496.03" width="40.4" height="40.4" rx="1.54"/><rect class="cls-10" x="1153.3" y="496.03" width="40.4" height="40.4" rx="1.54"/><rect class="cls-10" x="1206.13" y="496.03" width="40.4" height="40.4" rx="1.54"/><rect class="cls-10" x="1253.78" y="496.03" width="40.4" height="40.4" rx="1.54"/><rect class="cls-10" x="1304.2" y="496.03" width="40.4" height="40.4" rx="1.54"/><rect class="cls-10" x="1354.04" y="496.03" width="40.4" height="40.4" rx="1.54"/><rect class="cls-10" x="1403.81" y="496.03" width="40.4" height="40.4" rx="1.54"/><rect class="cls-10" x="1456.63" y="496.03" width="40.4" height="40.4" rx="1.54"/><rect class="cls-10" x="1178.49" y="545.06" width="40.4" height="40.4" rx="1.54"/><rect class="cls-10" x="1228.91" y="545.06" width="40.4" height="40.4" rx="1.54"/><rect class="cls-10" x="1278.75" y="545.06" width="40.4" height="40.4" rx="1.54"/><rect class="cls-10" x="1328.52" y="545.06" width="40.4" height="40.4" rx="1.54"/><rect class="cls-10" x="1381.34" y="545.06" width="40.4" height="40.4" rx="1.54"/><rect class="cls-10" x="1343.84" y="594.09" width="40.4" height="46.36" rx="1.54"/><rect class="cls-10" x="1444.2" y="597.43" width="38.96" height="17.4" rx="1.54"/><rect class="cls-10" x="1281.02" y="594.09" width="52.37" height="46.36" rx="1.54"/><rect class="cls-10" x="1027.99" y="594.09" width="244.72" height="46.36" rx="1.54"/><rect class="cls-10" x="1433.42" y="545.06" width="101.9" height="40.4" rx="1.54"/><rect class="cls-10" x="927.73" y="545.06" width="40.4" height="40.4" rx="1.54"/><rect class="cls-10" x="879.08" y="545.06" width="40.4" height="40.4" rx="1.54"/><rect class="cls-10" x="814.96" y="545.06" width="54.65" height="40.4" rx="1.54"/><rect class="cls-10" x="814.96" y="594.09" width="39.77" height="46.36" rx="1.54"/><rect class="cls-10" x="863.97" y="594.09" width="39.77" height="46.36" rx="1.54"/><rect class="cls-10" x="916.78" y="594.09" width="39.77" height="46.36" rx="1.54"/><rect class="cls-10" x="968.13" y="594.09" width="50.42" height="46.36" rx="1.54"/><rect class="cls-10" x="978.15" y="545.06" width="40.4" height="40.4" rx="1.54"/><rect class="cls-10" x="1027.99" y="545.06" width="40.4" height="40.4" rx="1.54"/><rect class="cls-10" x="1077.76" y="545.06" width="40.4" height="40.4" rx="1.54"/><rect class="cls-10" x="1130.58" y="545.06" width="40.4" height="40.4" rx="1.54"/><rect class="cls-10" x="1240.62" y="447" width="40.4" height="40.4" rx="1.54"/><rect class="cls-10" x="1292.99" y="447" width="40.4" height="40.4" rx="1.54"/><rect class="cls-10" x="1343.84" y="447" width="40.4" height="40.4" rx="1.54"/><rect class="cls-10" x="1393.02" y="447" width="40.4" height="40.4" rx="1.54"/><rect class="cls-10" x="1442.76" y="447" width="40.4" height="40.4" rx="1.54"/><path class="cls-10" d="M1533,447h-37.15a2.27,2.27,0,0,0-2.28,2.27v35.85a2.28,2.28,0,0,0,2.28,2.27h10.47v43.42a2.27,2.27,0,0,0,2.27,2.27H1533a2.27,2.27,0,0,0,2.27-2.27V449.27A2.27,2.27,0,0,0,1533,447Z"/><rect class="cls-10" x="919.48" y="397.96" width="40.4" height="40.4" rx="1.54"/><rect class="cls-10" x="970.33" y="397.96" width="40.4" height="40.4" rx="1.54"/><rect class="cls-10" x="1068.08" y="397.96" width="40.4" height="40.4" rx="1.54"/><rect class="cls-10" x="1118.89" y="397.96" width="40.4" height="40.4" rx="1.54"/><rect class="cls-10" x="1168.07" y="397.96" width="40.4" height="40.4" rx="1.54"/><rect class="cls-10" x="1217.25" y="397.96" width="40.4" height="40.4" rx="1.54"/><rect class="cls-10" x="1269.47" y="397.96" width="40.4" height="40.4" rx="1.54"/><rect class="cls-10" x="1318.65" y="397.96" width="40.4" height="40.4" rx="1.54"/><rect class="cls-10" x="1369.04" y="397.96" width="40.4" height="40.4" rx="1.54"/><rect class="cls-10" x="1418.83" y="397.96" width="40.4" height="40.4" rx="1.54"/><rect class="cls-10" x="1468.62" y="397.96" width="66.69" height="40.4" rx="1.54"/><rect class="cls-10" x="1017.05" y="397.96" width="40.4" height="40.4" rx="1.54"/><rect class="cls-10" x="865.81" y="362.75" width="43" height="26.58" rx="1.54"/><rect class="cls-10" x="918.18" y="362.75" width="43" height="26.58" rx="1.54"/><rect class="cls-10" x="969.03" y="362.75" width="43" height="26.58" rx="1.54"/><rect class="cls-10" x="1022.46" y="362.75" width="43" height="26.58" rx="1.54"/><rect class="cls-10" x="1075.89" y="362.75" width="43" height="26.58" rx="1.54"/><rect class="cls-10" x="1128.26" y="362.75" width="43" height="26.58" rx="1.54"/><rect class="cls-10" x="1179.11" y="362.75" width="43" height="26.58" rx="1.54"/><rect class="cls-10" x="1230.17" y="362.75" width="43" height="26.58" rx="1.54"/><rect class="cls-10" x="1281.02" y="362.75" width="43" height="26.58" rx="1.54"/><rect class="cls-10" x="1333.39" y="362.75" width="43" height="26.58" rx="1.54"/><rect class="cls-10" x="1384.24" y="362.75" width="43" height="26.58" rx="1.54"/><rect class="cls-10" x="1441.46" y="362.75" width="43" height="26.58" rx="1.54"/><rect class="cls-10" x="1492.31" y="362.75" width="43" height="26.58" rx="1.54"/><path class="cls-10" d="M1445.75,594.09h35.87a1.54,1.54,0,0,1,1.54,1.54v14.28a0,0,0,0,1,0,0h-39a0,0,0,0,1,0,0V595.63A1.54,1.54,0,0,1,1445.75,594.09Z"/><rect class="cls-10" x="1444.2" y="614.82" width="38.96" height="25.62" rx="1.54"/><rect class="cls-10" x="1494.98" y="619.61" width="38.96" height="20.84" rx="1.54"/><rect class="cls-10" x="1394.74" y="619.61" width="38.96" height="20.84" rx="1.54"/><rect class="cls-11" x="1028.35" y="679.57" width="292.81" height="186.56" rx="10.77"/></g><rect class="cls-12" x="722.35" y="362.75" width="69.36" height="277.7"/><rect class="cls-12" x="1560.14" y="362.75" width="69.36" height="277.7"/><path class="cls-7" d="M621.43,61.55c-11.79,0-17.56,8.83-12.84,19.63l89.28,204c4.72,10.8,18.23,19.63,30,19.63h892.25c11.79,0,25.24-8.86,29.9-19.68l87.77-203.9c4.65-10.83-1.18-19.68-13-19.68Z"/><path class="cls-13" d="M635.9,70.77c-11.32,0-16.9,8.5-12.39,18.88L706.27,280.3c4.51,10.38,17.46,18.88,28.78,18.88H1613c11.32,0,24.28-8.5,28.78-18.88l82.76-190.65c4.51-10.38-1.06-18.88-12.38-18.88Z"/><path class="cls-10" d="M635.9,75.06c-11.32,0-16.9,8.5-12.39,18.88l82.76,190.65c4.51,10.38,17.46,18.88,28.78,18.88H1613c11.32,0,24.28-8.5,28.78-18.88l82.76-190.65c4.51-10.38-1.06-18.88-12.38-18.88Z"/><polygon class="cls-7" points="1701.3 91.15 646.73 91.15 652.45 104.68 1695.57 104.68 1701.3 91.15"/><polygon class="cls-14" points="652.45 104.68 732.75 294.39 1615.28 294.39 1695.57 104.68 652.45 104.68"/><line class="cls-15" x1="659.01" y1="97.91" x2="730.15" y2="97.91"/><line class="cls-15" x1="747.1" y1="97.91" x2="763.8" y2="97.91"/><line class="cls-15" x1="781.18" y1="97.91" x2="797.88" y2="97.91"/><line class="cls-15" x1="816.33" y1="97.91" x2="833.03" y2="97.91"/><line class="cls-15" x1="1638.84" y1="97.91" x2="1655.54" y2="97.91"/><line class="cls-15" x1="1669.78" y1="97.91" x2="1686.49" y2="97.91"/><polygon class="cls-16" points="1686.88 108.59 1546.86 108.59 1501.76 290.48 1607.76 290.48 1686.88 108.59"/><polygon class="cls-16" points="737.63 290.48 975.85 290.48 965.14 223.2 707.21 223.2 737.63 290.48"/><polygon class="cls-16" points="953.73 108.59 970.54 220.1 1514.06 220.1 1541.28 108.59 953.73 108.59"/><polygon class="cls-16" points="981.16 290.48 1496.88 290.48 1514.06 223.2 970.54 223.2 981.16 290.48"/><polygon class="cls-17" points="1007.2 118.73 1020.95 209.96 1465.55 209.96 1487.81 118.73 1007.2 118.73"/><line class="cls-18" x1="721.46" y1="231.78" x2="792.6" y2="231.78"/><path class="cls-19" d="M949.42,116.83l-1.26-8.24H729.29q2,4.11,4.07,8.24Z"/><path class="cls-16" d="M733.36,116.83q-2-4.12-4.07-8.24H659l48.2,111.51H965.14L949.42,116.83Z"/><line class="cls-18" x1="685.39" y1="146.84" x2="756.53" y2="146.84"/><line class="cls-18" x1="690.54" y1="156.64" x2="761.68" y2="156.64"/><line class="cls-18" x1="696.54" y1="167.9" x2="767.69" y2="167.9"/><line class="cls-18" x1="701.69" y1="179.02" x2="772.83" y2="179.02"/><line class="cls-18" x1="707.69" y1="188.81" x2="778.84" y2="188.81"/><line class="cls-18" x1="713.7" y1="200.07" x2="784.84" y2="200.07"/><line class="cls-18" x1="1672.27" y1="116.83" x2="1601.13" y2="116.83"/><line class="cls-18" x1="1667.12" y1="126.62" x2="1595.98" y2="126.62"/><line class="cls-18" x1="1661.12" y1="137.88" x2="1589.97" y2="137.88"/><line class="cls-18" x1="1655.97" y1="149.01" x2="1584.83" y2="149.01"/><line class="cls-18" x1="1649.97" y1="158.8" x2="1578.82" y2="158.8"/><line class="cls-20" x1="1646.54" y1="170.06" x2="1575.65" y2="170.06"/><line class="cls-20" x1="1641.61" y1="181.62" x2="1572.09" y2="181.62"/><line class="cls-20" x1="1637.55" y1="192.28" x2="1570.19" y2="192.28"/><line class="cls-21" x1="1631.9" y1="204" x2="1566.01" y2="204"/><line class="cls-21" x1="1627.92" y1="214.29" x2="1562.04" y2="214.29"/><line class="cls-21" x1="1623.95" y1="225.75" x2="1558.07" y2="225.75"/><line class="cls-21" x1="1619.19" y1="236.97" x2="1553.3" y2="236.97"/><line class="cls-22" x1="981.48" y1="231.78" x2="1217.25" y2="231.78"/><line class="cls-23" x1="1090.58" y1="244.9" x2="1326.35" y2="244.9"/><line class="cls-24" x1="1005.85" y1="256.84" x2="1241.62" y2="256.84"/><line class="cls-25" x1="943.34" y1="231.78" x2="958.45" y2="231.78"/><line class="cls-25" x1="945.75" y1="244.9" x2="960.86" y2="244.9"/><line class="cls-18" x1="727.46" y1="244.9" x2="798.61" y2="244.9"/><line class="cls-18" x1="734.33" y1="256.84" x2="805.47" y2="256.84"/></g><g id="coffee"><path class="cls-1" d="M563.8,436.39l-48.49-38.23a209,209,0,0,0,30.44-109c0-116-94-210-210-210s-210,94-210,210,94,210,210,210a209.26,209.26,0,0,0,147.47-60.52l48.57,38.28a21.92,21.92,0,0,0,30.81-3.64l4.8-6.09A21.94,21.94,0,0,0,563.8,436.39Z"/><rect class="cls-26" x="446.7" y="386.86" width="132.58" height="51.63" rx="21.94" transform="translate(365.66 -229) rotate(38.25)"/><circle class="cls-27" cx="335.79" cy="272.69" r="209.96"/><circle class="cls-26" cx="335.79" cy="272.69" r="198.95"/><circle class="cls-28" cx="335.79" cy="272.69" r="171.11"/><circle class="cls-29" cx="335.79" cy="272.69" r="171.11"/><path class="cls-28" d="M498.85,277.09c-.14,9.43-.49,33.39-13,48.67a60.08,60.08,0,0,0-9.62,14.14c-4.49,9.49-2.54,12.5-6.26,19.49-4.5,8.42-9.74,8.53-18.64,17.3a70.05,70.05,0,0,0-14.71,21.5c-3,0-7.29.56-10.65,3.42-4.17,3.56-4.77,8.87-5.2,10.72-1.47,6.41-10.73,14.45-46.1,21a88.62,88.62,0,0,1-13-3.34c-8.67-2.95-12.43-5.76-17.84-4.78a15.91,15.91,0,0,0-8,4.3,26.94,26.94,0,0,0-11.12-1.75c-6.28.38-9.48,3-13.7,4.14-8.2,2.29-16-1.89-22.62-5.42C277.73,420.78,196,369.28,179,272.69c-.69-3.95-8.41-49.89,8.45-59.38,3.45-1.94,9-3,12.87-8.4,4.53-6.31,3.91-14.49,2.8-20.14,1.44.2,10.51,1.34,17.91-5A22.9,22.9,0,0,0,228,157c9-9.87,28.55-29.47,54.61-40,15.05-6.09,25-6.22,28.54-6.16,10.15.17,10.21,2.73,24.66,5,22,3.45,28.65-1.38,40.82,5.37,6.55,3.63,5,5.27,11.9,8.71,13.4,6.72,19.25.51,29.42,6.23,9.8,5.5,8.22,13.41,19.24,18.1,6.06,2.58,9.1,1.28,13.58,2.27,13.75,3,19.08,22.73,32.82,65.07C497.11,263.35,499,266,498.85,277.09Z"/><circle class="cls-28" cx="220.41" cy="160.3" r="3.31"/><circle class="cls-28" cx="212.74" cy="173.92" r="6.8"/><circle class="cls-28" cx="194.96" cy="196.15" r="1.74"/><circle class="cls-28" cx="188.97" cy="204.1" r="4.24"/><circle class="cls-28" cx="182.52" cy="322.11" r="2.21"/><circle class="cls-28" cx="187.87" cy="334.72" r="5.35"/><circle class="cls-28" cx="326.94" cy="435.78" r="4.19"/><circle class="cls-28" cx="347.13" cy="433.72" r="4.5"/><circle class="cls-28" cx="431.1" cy="404.93" r="4.11"/><circle class="cls-28" cx="448.47" cy="390.94" r="1.42"/><circle class="cls-28" cx="452.15" cy="385.7" r="3.68"/><circle class="cls-30" cx="460.99" cy="377.88" r="5.17"/><circle class="cls-30" cx="486.7" cy="336.08" r="4.02"/><circle class="cls-30" cx="481.34" cy="347.32" r="5.63"/><circle class="cls-30" cx="484.36" cy="211.46" r="1.14"/><circle class="cls-30" cx="491.26" cy="225.2" r="4.73"/><circle class="cls-30" cx="490.77" cy="213.81" r="3.49"/><circle class="cls-30" cx="352.57" cy="111.04" r="4.22"/><circle class="cls-30" cx="342.31" cy="106.82" r="3.35"/><circle class="cls-31" cx="337.09" cy="112.35" r="2.17"/><circle class="cls-31" cx="389.32" cy="119.78" r="5.57"/><circle class="cls-31" cx="392.59" cy="128.24" r="1.79"/><circle class="cls-32" cx="399.91" cy="124.72" r="2.95"/></g><g id="pen"><path class="cls-1" d="M1681.57,1045.51l-16.7-6v-.67a2.11,2.11,0,0,0-1.3-2l-45.24-19.05H1033.1v-8.14h158.24c5.85,0,10.58-3.78,10.58-8.44s-4.73-8.44-10.58-8.44H1012v25H995.16v5.28H952.94a10.66,10.66,0,0,0-10.66,10.66v26a10.66,10.66,0,0,0,10.66,10.66h42.22v5.29h623.17l45.24-19.06a2.11,2.11,0,0,0,1.3-2v-.67l16.82-6c.34-.12.49-.68.46-1.25S1681.92,1045.63,1681.57,1045.51Z"/><g id="pencil"><path class="cls-33" d="M1681.57,1033l-17.58-6.26a.67.67,0,0,0-.89.63v6.26a.67.67,0,0,0,.67.67h18.38C1682.13,1033.72,1681.92,1033.13,1681.57,1033Z"/><path class="cls-34" d="M1664,1041.87l17.73-6.32c.34-.12.49-.68.46-1.25h-18.41a.65.65,0,0,0-.64.65v6.31A.65.65,0,0,0,1664,1041.87Z"/><path class="cls-35" d="M1664.87,1034.3v-7.92a2.1,2.1,0,0,0-1.3-1.94l-45.24-19.06v28.92Z"/><path class="cls-36" d="M1618.33,1034.3v28.92l45.24-19.06a2.1,2.1,0,0,0,1.3-1.94v-7.92Z"/><path class="cls-34" d="M942.28,1034.3v13a10.67,10.67,0,0,0,10.66,10.67h42.22V1034.3Z"/><path class="cls-33" d="M995.16,1010.66H952.94a10.67,10.67,0,0,0-10.66,10.67v13h52.88Z"/><rect class="cls-37" x="1048.75" y="1005.38" width="569.59" height="28.92"/><rect class="cls-38" x="1048.75" y="1034.3" width="569.59" height="28.92"/><rect class="cls-36" x="995.16" y="1034.3" width="53.59" height="28.92"/><rect class="cls-35" x="995.16" y="1005.38" width="53.59" height="28.92"/></g><path class="cls-35" d="M1012,1022V980.36h179.39c5.85,0,10.58,3.78,10.58,8.44s-4.73,8.44-10.58,8.44H1033.1V1022c0,4.67-4.73,8.44-10.57,8.44S1012,1026.62,1012,1022Z"/><g id="pen-2" data-name="pen"><g id="pencil-2" data-name="pencil"><path class="cls-33" d="M1681.57,1033l-17.58-6.26a.67.67,0,0,0-.89.63v6.26a.67.67,0,0,0,.67.67h18.38C1682.13,1033.72,1681.92,1033.13,1681.57,1033Z"/><path class="cls-34" d="M1664,1041.87l17.73-6.32c.34-.12.49-.68.46-1.25h-18.41a.65.65,0,0,0-.64.65v6.31A.65.65,0,0,0,1664,1041.87Z"/><path class="cls-35" d="M1664.87,1034.3v-7.92a2.1,2.1,0,0,0-1.3-1.94l-45.24-19.06v28.92Z"/><path class="cls-36" d="M1618.33,1034.3v28.92l45.24-19.06a2.1,2.1,0,0,0,1.3-1.94v-7.92Z"/><path class="cls-34" d="M942.28,1034.3v13a10.67,10.67,0,0,0,10.66,10.67h42.22V1034.3Z"/><path class="cls-33" d="M995.16,1010.66H952.94a10.67,10.67,0,0,0-10.66,10.67v13h52.88Z"/><rect class="cls-39" x="1048.75" y="1005.38" width="569.59" height="28.92"/><rect class="cls-37" x="1048.75" y="1034.3" width="569.59" height="28.92"/><rect class="cls-36" x="995.16" y="1034.3" width="53.59" height="28.92"/><rect class="cls-35" x="995.16" y="1005.38" width="53.59" height="28.92"/></g><path class="cls-35" d="M1012,1022V980.36h179.39c5.85,0,10.58,3.78,10.58,8.44s-4.73,8.44-10.58,8.44H1033.1V1022c0,4.67-4.73,8.44-10.57,8.44S1012,1026.62,1012,1022Z"/></g></g></g></svg>