<svg xmlns="http://www.w3.org/2000/svg" viewBox="0 0 1200 1200"><defs><style>.cls-1{fill:#1f1719;opacity:0.15;}.cls-2{fill:#fff;}.cls-3{fill:#ebebeb;}.cls-4{fill:none;stroke:#3d3a31;stroke-linecap:round;stroke-width:14.12px;}.cls-12,.cls-13,.cls-14,.cls-4{stroke-miterlimit:10;}.cls-4,.cls-5,.cls-6{opacity:0.82;}.cls-5,.cls-7{fill:#3d3a31;}.cls-8{fill:#5c786c;}.cls-9{fill:#809487;}.cls-10,.cls-12,.cls-13,.cls-14{fill:#522c23;}.cls-11{fill:#e9d4c7;opacity:0.89;}.cls-12,.cls-13,.cls-14{stroke:#522c23;}.cls-12{stroke-width:2.25px;}.cls-13{stroke-width:1.92px;}.cls-14{stroke-width:3.16px;}.cls-15{fill:#c3bdc0;}.cls-16{fill:#b1acaf;}.cls-17{fill:#b6b1b4;}.cls-18{fill:#a7a2a5;}.cls-19{fill:#f7512d;}.cls-20{fill:#e64c2a;}.cls-21{fill:#f45f35;}</style></defs><title>portfolio-icons</title><g id="motion-icon"><g id="post-it"><polygon class="cls-1" points="1148.9 983.33 751.22 1061.78 698.56 1023.5 631.73 684.74 1072.83 597.72 1148.9 983.33"/><polygon class="cls-2" points="1143.47 968.73 745.79 1047.18 693.13 1008.9 626.3 670.14 1067.4 583.12 1143.47 968.73"/><polygon class="cls-1" points="1083.67 679.47 682.79 619.51 646.08 565.74 697.16 224.25 1141.81 290.75 1083.67 679.47"/><polygon class="cls-2" points="1083.47 663.89 682.59 603.94 645.88 550.17 696.96 208.68 1141.61 275.18 1083.47 663.89"/><polygon class="cls-3" points="690.5 556.84 645.88 550.17 682.59 603.94 690.5 556.84"/><path class="cls-4" d="M782,805.82a141.08,141.08,0,0,0-20.23,53.95c-2.25,15-4.06,44.52,4.49,47.21,8.2,2.58,23.69-20.15,31.48-38.21C811,837.94,808,806.5,802.22,783.34"/><path class="cls-4" d="M982.06,814.81c-7.37,8.5-20.57,26.18-24.73,51.71-3.54,21.75-1.28,53.8,9,56.2,12.45,2.91,37.91-37.45,42.71-78.68a132,132,0,0,0-4.5-51.71"/><path class="cls-4" d="M824.7,938.45l24.73,6.75h33.72"/><path class="cls-4" d="M791.45,365.3c-2.24,3.65-19.87,33.39-7.28,63.25,13.75,32.63,54.09,42.95,83.62,37.53,26.84-4.93,54.11-24.58,61.44-52.89,12.65-48.83-38.92-104.67-82.91-100.24-20.61,2.08-35.58,17-43.36,26.51"/><path class="cls-4" d="M839.59,492.51l9.24,27.26"/><path class="cls-4" d="M892.19,493.27l8.21,24.24"/><path class="cls-4" d="M922.92,469.36l8.21,24.23"/><path class="cls-5" d="M1065.59,347.72l-14-1.63c7.31-17.17,12.16-31.08,14.4-41.37,1.82-8.38,3.42-20.11-3.68-25.31s-17.75-.16-25.15,4.08a4.44,4.44,0,1,0,4.41,7.71c11.65-6.67,14.94-5,15.49-4.62s3.11,3.05.25,16.25c-2.23,10.23-7.25,24.42-14.93,42.19l-11-1.28a4.44,4.44,0,0,0-1,8.83l34.2,4,.52,0a4.44,4.44,0,0,0,.51-8.86Z"/><g class="cls-6"><path class="cls-7" d="M727.34,774c-4,0-8.09-2.7-11.39-7.51-3.41-5-6.29-13-3.18-19.29,2.93-5.92,10-8.81,22.32-8.77a126.64,126.64,0,0,0,1.85-24.58c-.3-9.31-2.3-20.15-7-22.69-2.11-1.14-8.93-2.31-26.65,11.39a5.53,5.53,0,1,1-6.77-8.74c17-13.18,29.7-17.23,38.68-12.37,7.1,3.84,11.31,13,12.51,27.16a129.21,129.21,0,0,1-1.52,30.52,273.29,273.29,0,0,1,29.16,5.13,5.53,5.53,0,1,1-2.41,10.79,252.64,252.64,0,0,0-29-5c-3.81,15.28-9.13,23.32-15.82,23.92C727.86,774,727.6,774,727.34,774Zm.44-11Zm4.84-13.44c-8.72.3-9.93,2.52-9.94,2.54-.29.57-.35,2.34.65,4.85a14.51,14.51,0,0,0,3.74,5.58C728.25,761.13,730.44,757.33,732.62,749.57Z"/></g></g><g id="coffee"><path class="cls-1" d="M704.84,1053.7l-72.11-56.85a310.74,310.74,0,0,0,45.28-162c0-172.44-139.8-312.23-312.24-312.23S53.54,662.39,53.54,834.83s139.79,312.24,312.23,312.24a311.21,311.21,0,0,0,219.31-90L657.29,1114a32.64,32.64,0,0,0,45.83-5.42l7.14-9.06A32.63,32.63,0,0,0,704.84,1053.7Z"/><rect class="cls-8" x="530.7" y="980.05" width="197.15" height="76.79" rx="32.63" transform="translate(765.7 -170.93) rotate(38.25)"/><circle class="cls-9" cx="365.77" cy="810.26" r="312.23"/><circle class="cls-8" cx="365.77" cy="810.26" r="295.85"/><circle class="cls-10" cx="365.77" cy="810.26" r="254.45"/><circle class="cls-11" cx="365.77" cy="810.26" r="254.45"/><path class="cls-10" d="M608.26,816.82c-.21,14-.74,49.64-19.36,72.36-3.17,3.88-9.14,10.15-14.3,21-6.68,14.1-3.77,18.58-9.31,29-6.68,12.52-14.48,12.69-27.72,25.73a104.62,104.62,0,0,0-21.87,32c-4.49,0-10.84.83-15.83,5.09-6.2,5.29-7.1,13.19-7.74,15.95-2.19,9.52-16,21.48-68.55,31.18a132.53,132.53,0,0,1-19.4-5c-12.89-4.38-18.48-8.56-26.53-7.11a23.6,23.6,0,0,0-11.88,6.4,40.3,40.3,0,0,0-16.54-2.61c-9.34.57-14.09,4.41-20.37,6.16-12.19,3.4-23.81-2.81-33.63-8-15.8-8.44-137.32-85-162.62-228.67-1-5.86-12.51-74.18,12.56-88.3,5.12-2.88,13.34-4.39,19.14-12.48,6.73-9.39,5.81-21.55,4.16-30,2.14.3,15.62,2,26.64-7.49,9.36-8.08,13.33-21.13,10.35-33.75,13.32-14.67,42.45-43.81,81.2-59.47,22.38-9,37.23-9.24,42.44-9.15,15.1.25,15.19,4.06,36.67,7.43,32.66,5.14,42.61-2.05,60.71,8,9.74,5.41,7.48,7.84,17.69,13,19.94,10,28.62.76,43.76,9.26,14.57,8.18,12.21,20,28.61,26.93,9,3.83,13.52,1.89,20.19,3.36,20.44,4.51,28.37,33.8,48.81,96.77C605.67,796.38,608.5,800.37,608.26,816.82Z"/><circle class="cls-10" cx="194.2" cy="643.13" r="4.92"/><circle class="cls-10" cx="182.79" cy="663.39" r="10.11"/><circle class="cls-10" cx="156.35" cy="696.44" r="2.59"/><circle class="cls-10" cx="147.45" cy="708.27" r="6.31"/><circle class="cls-10" cx="137.85" cy="883.77" r="3.29"/><circle class="cls-10" cx="145.8" cy="902.5" r="7.95"/><circle class="cls-10" cx="352.62" cy="1052.79" r="6.23"/><circle class="cls-10" cx="382.64" cy="1049.73" r="6.69"/><circle class="cls-10" cx="507.51" cy="1006.92" r="6.11"/><circle class="cls-10" cx="533.33" cy="986.11" r="2.11"/><circle class="cls-10" cx="538.81" cy="978.33" r="5.47"/><circle class="cls-12" cx="551.96" cy="966.7" r="7.69"/><circle class="cls-12" cx="590.2" cy="904.53" r="5.98"/><circle class="cls-12" cx="582.22" cy="921.25" r="8.37"/><circle class="cls-12" cx="586.71" cy="719.21" r="1.69"/><circle class="cls-12" cx="596.97" cy="739.64" r="7.03"/><circle class="cls-12" cx="596.24" cy="722.7" r="5.18"/><circle class="cls-12" cx="390.73" cy="569.89" r="6.28"/><circle class="cls-12" cx="375.48" cy="563.61" r="4.98"/><circle class="cls-13" cx="367.7" cy="571.82" r="3.23"/><circle class="cls-13" cx="445.38" cy="582.88" r="8.28"/><circle class="cls-13" cx="450.24" cy="595.45" r="2.66"/><circle class="cls-14" cx="461.12" cy="590.23" r="4.38"/></g><g id="pen"><path class="cls-1" d="M1036.47,187.57l-22.26-7.92v-.9a2.81,2.81,0,0,0-1.73-2.59l-60.29-25.4h-780V139.91H383.08c7.78,0,14.1-5,14.1-11.25s-6.32-11.25-14.1-11.25H144v33.35H121.59v7H65.32A14.21,14.21,0,0,0,51.11,172v34.58a14.22,14.22,0,0,0,14.21,14.22h56.27v7h830.6l60.29-25.4a2.81,2.81,0,0,0,1.73-2.6V199l22.43-8c.45-.16.64-.91.61-1.67S1036.94,187.74,1036.47,187.57Z"/><g id="pencil"><path class="cls-15" d="M1036.47,170.9,1013,162.56a.89.89,0,0,0-1.19.84v8.34a.89.89,0,0,0,.89.89h24.51C1037.21,171.85,1036.94,171.07,1036.47,170.9Z"/><path class="cls-16" d="M1013,182.72l23.64-8.42c.45-.16.64-.91.61-1.67h-24.54a.86.86,0,0,0-.86.86v8.42A.86.86,0,0,0,1013,182.72Z"/><path class="cls-17" d="M1014.21,172.63V162.08a2.82,2.82,0,0,0-1.73-2.6l-60.29-25.4v38.55Z"/><path class="cls-18" d="M952.19,172.63v38.55l60.29-25.4a2.81,2.81,0,0,0,1.73-2.6V172.63Z"/><path class="cls-16" d="M51.11,172.63v17.29a14.22,14.22,0,0,0,14.21,14.22h56.27V172.63Z"/><path class="cls-15" d="M121.59,141.13H65.32a14.21,14.21,0,0,0-14.21,14.21v17.29h70.48Z"/><rect class="cls-19" x="193.02" y="134.08" width="759.17" height="38.55"/><rect class="cls-20" x="193.02" y="172.63" width="759.17" height="38.55"/><rect class="cls-18" x="121.59" y="172.63" width="71.43" height="38.55"/><rect class="cls-17" x="121.59" y="134.08" width="71.43" height="38.55"/></g><path class="cls-17" d="M144,156.18V100.74H383.08c7.78,0,14.1,5,14.1,11.25s-6.32,11.25-14.1,11.25H172.17v32.94c0,6.21-6.31,11.25-14.1,11.25S144,162.39,144,156.18Z"/><g id="pen-2" data-name="pen"><g id="pencil-2" data-name="pencil"><path class="cls-15" d="M1036.47,170.9,1013,162.56a.89.89,0,0,0-1.19.84v8.34a.89.89,0,0,0,.89.89h24.51C1037.21,171.85,1036.94,171.07,1036.47,170.9Z"/><path class="cls-16" d="M1013,182.72l23.64-8.42c.45-.16.64-.91.61-1.67h-24.54a.86.86,0,0,0-.86.86v8.42A.86.86,0,0,0,1013,182.72Z"/><path class="cls-17" d="M1014.21,172.63V162.08a2.82,2.82,0,0,0-1.73-2.6l-60.29-25.4v38.55Z"/><path class="cls-18" d="M952.19,172.63v38.55l60.29-25.4a2.81,2.81,0,0,0,1.73-2.6V172.63Z"/><path class="cls-16" d="M51.11,172.63v17.29a14.22,14.22,0,0,0,14.21,14.22h56.27V172.63Z"/><path class="cls-15" d="M121.59,141.13H65.32a14.21,14.21,0,0,0-14.21,14.21v17.29h70.48Z"/><rect class="cls-21" x="193.02" y="134.08" width="759.17" height="38.55"/><rect class="cls-19" x="193.02" y="172.63" width="759.17" height="38.55"/><rect class="cls-18" x="121.59" y="172.63" width="71.43" height="38.55"/><rect class="cls-17" x="121.59" y="134.08" width="71.43" height="38.55"/></g><path class="cls-17" d="M144,156.18V100.74H383.08c7.78,0,14.1,5,14.1,11.25s-6.32,11.25-14.1,11.25H172.17v32.94c0,6.21-6.31,11.25-14.1,11.25S144,162.39,144,156.18Z"/></g></g></g></svg>