<?xml version="1.0" encoding="utf-8"?>
<!-- Generator: Adobe Illustrator 23.0.1, SVG Export Plug-In . SVG Version: 6.00 Build 0)  -->
<svg version="1.1" id="Layer_1" xmlns="http://www.w3.org/2000/svg" xmlns:xlink="http://www.w3.org/1999/xlink" x="0px" y="0px"
	 viewBox="0 0 1800 864" style="enable-background:new 0 0 1800 864;" xml:space="preserve">
<style type="text/css">
	.st0{opacity:0.15;fill:#1F1719;enable-background:new    ;}
	.st1{fill:#FFFFFF;}
	
		.st2{opacity:0.6;fill:none;stroke:#3D3A31;stroke-width:2.6783;stroke-linecap:round;stroke-linejoin:round;enable-background:new    ;}
	
		.st3{opacity:0.3;fill:none;stroke:#3D3A31;stroke-width:6.6778;stroke-linecap:round;stroke-linejoin:round;enable-background:new    ;}
	
		.st4{opacity:0.3;fill:none;stroke:#3D3A31;stroke-width:3.571;stroke-linecap:round;stroke-linejoin:round;enable-background:new    ;}
	.st5{fill:#D8D8D7;}
	.st6{fill:#CCCCCC;}
	.st7{fill:#D6D6D6;}
	.st8{fill:#B4AEA8;}
	.st9{fill:#3D3D3D;}
	.st10{fill:#DEDEDE;}
	.st11{fill:#C6C6C6;}
	.st12{fill:#363939;}
	.st13{fill:#545454;}
	.st14{fill:none;stroke:#636363;stroke-width:3.947;stroke-linecap:round;stroke-miterlimit:10;}
	.st15{fill:#666666;}
	.st16{fill:#333333;}
	.st17{fill:none;stroke:#9E9E9E;stroke-width:3.947;stroke-linecap:round;stroke-miterlimit:10;}
	.st18{fill:#5E5E5E;}
	.st19{fill:none;stroke:#9E9E9E;stroke-width:3.073;stroke-linecap:round;stroke-miterlimit:10;}
	.st20{fill:none;stroke:#9E9E9E;stroke-width:3.6526;stroke-linecap:round;stroke-miterlimit:10;}
	.st21{fill:none;stroke:#C9E1EE;stroke-width:7.0936;stroke-linecap:round;stroke-miterlimit:10;}
	.st22{fill:none;stroke:#FAC488;stroke-width:7.0936;stroke-linecap:round;stroke-miterlimit:10;}
	.st23{fill:none;stroke:#BAE098;stroke-width:7.0936;stroke-linecap:round;stroke-miterlimit:10;}
	
		.st24{opacity:0.72;fill:none;stroke:#F89D47;stroke-width:3.947;stroke-linecap:round;stroke-miterlimit:10;enable-background:new    ;}
	.st25{fill:#5C786C;}
	.st26{fill:#809487;}
	.st27{fill:#522C23;}
	.st28{opacity:0.89;fill:#E9D4C7;enable-background:new    ;}
	.st29{fill:#522C23;stroke:#522C23;stroke-width:0.9479;stroke-miterlimit:10;}
	.st30{fill:#522C23;stroke:#522C23;stroke-width:0.8098;stroke-miterlimit:10;}
	.st31{fill:#522C23;stroke:#522C23;stroke-width:1.3371;stroke-miterlimit:10;}
	.st32{fill:#C3BDC0;}
	.st33{fill:#B1ACAF;}
	.st34{fill:#B6B1B4;}
	.st35{fill:#A7A2A5;}
	.st36{fill:#F7512D;}
	.st37{fill:#E64C2A;}
	.st38{fill:#F45F35;}
</style>
<title>portfolio-icons</title>
<g id="motion-banner">
	<g id="art-boards">
		<rect x="51" y="310.9" class="st0" width="707.1" height="546.4"/>
		<rect x="51" y="304.5" class="st1" width="707.1" height="546.4"/>
		<line class="st2" x1="535.2" y1="518.6" x2="730.2" y2="518.6"/>
		<line class="st2" x1="535.2" y1="538" x2="730.2" y2="538"/>
		<line class="st2" x1="535.2" y1="557.5" x2="730.2" y2="557.5"/>
		<rect x="82.7" y="357.3" class="st2" width="195" height="130.4"/>
		<rect x="307.4" y="357.3" class="st2" width="195" height="130.4"/>
		<rect x="535.2" y="357.3" class="st2" width="195" height="130.4"/>
		<line class="st2" x1="82.7" y1="518.6" x2="277.7" y2="518.6"/>
		<line class="st2" x1="82.7" y1="538" x2="277.7" y2="538"/>
		<line class="st2" x1="82.7" y1="557.5" x2="277.7" y2="557.5"/>
		<line class="st2" x1="307.5" y1="518.6" x2="502.5" y2="518.6"/>
		<line class="st2" x1="307.5" y1="538" x2="502.5" y2="538"/>
		<line class="st2" x1="307.5" y1="557.5" x2="502.5" y2="557.5"/>
		<line class="st2" x1="535.2" y1="752.1" x2="730.2" y2="752.1"/>
		<line class="st2" x1="535.2" y1="771.5" x2="730.2" y2="771.5"/>
		<line class="st2" x1="535.2" y1="791" x2="730.2" y2="791"/>
		<rect x="82.7" y="590.8" class="st2" width="195" height="130.4"/>
		<rect x="307.4" y="590.8" class="st2" width="195" height="130.4"/>
		<rect x="535.2" y="590.8" class="st2" width="195" height="130.4"/>
		<line class="st2" x1="82.7" y1="752.1" x2="277.7" y2="752.1"/>
		<line class="st2" x1="82.7" y1="771.5" x2="277.7" y2="771.5"/>
		<line class="st2" x1="82.7" y1="791" x2="277.7" y2="791"/>
		<line class="st2" x1="307.5" y1="752.1" x2="502.5" y2="752.1"/>
		<line class="st2" x1="307.5" y1="771.5" x2="502.5" y2="771.5"/>
		<line class="st2" x1="307.5" y1="791" x2="502.5" y2="791"/>
		<path class="st3" d="M167.7,392.5c-4,0.4-11.4,1.7-15.6,7.4c-7.8,10.4-0.3,29.1,10.7,37.7c17.1,13.5,48.1,6.9,53.3-7.4
			c4.5-12.1-8.3-33.7-35.3-44.3"/>
		<path class="st3" d="M386.9,426.8c-10.2,0.6-22.4,2.1-23.3,6.5c-1,5.5,15.2,13.8,29.1,17.4c26.8,6.9,57.1-0.7,57.4-8
			c0.2-3.8-7.8-9.2-40.7-16.7"/>
		<path class="st3" d="M608,389.8c-1.5,1.2-13.4,11.5-12.4,26.2c1.2,16.1,17,26.4,30.5,28.4c12.3,1.8,26.9-2.7,34.2-13.8
			c12.6-19.2-1.5-50.7-21.1-55.3c-9.2-2.1-17.8,2.1-22.5,5.1"/>
		<path class="st4" d="M155.8,372.3v-8"/>
		<path class="st4" d="M172.5,376v-11.6"/>
		<path class="st4" d="M191.4,379.6v-12.4"/>
		<path class="st4" d="M610.1,451.6v13.1"/>
		<path class="st4" d="M632.7,459.6v11.6"/>
		<path class="st4" d="M649.4,453.7v11.6"/>
		<path class="st3" d="M142.3,616.8c-2,2.5-3.5,5.3-4.2,8.4c-1.7,7,0.4,15.1,2.8,15.4c1.1,0.1,3.7-1.3,8.4-16.8"/>
		<path class="st3" d="M197,622.4c-0.8,3.4-1.3,7-1.4,10.5c0,1.1-0.4,12.8,2.1,13.3c2,0.4,5.4-6.6,7-11.9c3.4-11,2.9-24.3-0.7-25.2
			c-1.2-0.3-3,0.6-6.3,5.6"/>
		<path class="st3" d="M153.6,666.5c1.6-6.1,5.8-10.4,9.8-10.5c5.2-0.1,11.7,6.8,10.5,16.8"/>
		<path class="st3" d="M368,616c-3.2,5.1-5.4,10.8-6.3,16.8c-0.7,4.7-1.3,13.9,1.4,14.7c2.7,0.8,7.4-6.2,9.8-11.9
			c4.1-9.6,3.2-19.4,1.4-26.6"/>
		<path class="st3" d="M430.3,618.9c-4,4.6-6.7,10.1-7.7,16.1c-1.1,6.8-0.4,16.8,2.8,17.5c3.9,0.9,11.8-11.7,13.3-24.5
			c0.6-5.4,0.1-10.9-1.4-16.1"/>
		<path class="st3" d="M381.3,657.4l7.7,2.1h10.5"/>
		<path class="st3" d="M606.9,614.6c-5,0.7-9.6,2.9-13.3,6.3c-5.7,5.4-10,14.8-7,18.2c3,3.4,12.4,0.5,18.2-4.2
			c6.2-5,7.9-12,8.4-14.7"/>
		<path class="st3" d="M652.5,625.2c-5.2,0.8-10,2.9-14,6.3c-5.6,4.8-11.1,13.7-8.4,17.5c2.7,3.8,13,2,19.6-2.1
			c10.2-6.3,12.2-18.3,12.6-21"/>
		<path class="st3" d="M599.9,652.5c-10.5,8.8-12.1,12.8-11.2,14.7c2.3,4.9,24.1,3.1,26.1-5c1.4-5.7-7.5-12.5-8.5-13.2"/>
	</g>
	<g id="laptop">
		<path class="st5" d="M758.9,21.4l84.2,191.7c2.8,6.5,9.2,10.7,16.3,10.7h840.7c7.1,0,13.5-4.2,16.4-10.8l81.3-188.2
			c3.9-9-0.2-19.5-9.3-23.4c-2.2-1-4.7-1.5-7.1-1.5H772.9c-8.5,0-15.3,6.9-15.3,15.3C757.7,17.4,758.1,19.5,758.9,21.4z"/>
		<g id="keyboard">
			<path class="st0" d="M849.7,250.2h861.7l0,0v518.3c0,6.9-5.6,12.5-12.5,12.5H862.1c-6.9,0-12.5-5.6-12.5-12.5l0,0L849.7,250.2
				L849.7,250.2z"/>
			<path class="st6" d="M875.4,230.1h810.3c14.2,0,25.7,11.5,25.7,25.7v479.3c0,14.2-11.5,25.7-25.7,25.7H875.4
				c-14.2,0-25.7-11.5-25.7-25.7V255.8C849.7,241.6,861.2,230.1,875.4,230.1z"/>
			<path class="st7" d="M951.8,270.8h659.7c6.8,0,12.3,5.5,12.3,12.3V541c0,6.8-5.5,12.3-12.3,12.3H951.8c-6.8,0-12.3-5.5-12.3-12.3
				V283.1C939.5,276.3,945,270.8,951.8,270.8z"/>
			<path class="st8" d="M950.9,287.6h36.7c0.8,0,1.4,0.6,1.4,1.4v21.6c0,0.8-0.6,1.4-1.4,1.4h-36.7c-0.8,0-1.4-0.6-1.4-1.4V289
				C949.5,288.2,950.1,287.6,950.9,287.6z"/>
			<path class="st8" d="M950.9,320h34.3c0.8,0,1.4,0.6,1.4,1.4v34.3c0,0.8-0.6,1.4-1.4,1.4h-34.3c-0.8,0-1.4-0.6-1.4-1.4v-34.3
				C949.5,320.6,950.1,320,950.9,320z"/>
			<path class="st8" d="M950.9,365.1h60.6c0.8,0,1.4,0.6,1.4,1.4v34.3c0,0.8-0.6,1.4-1.4,1.4h-60.6c-0.8,0-1.4-0.6-1.4-1.4v-34.3
				C949.5,365.7,950.1,365.1,950.9,365.1z"/>
			<path class="st8" d="M950.9,410.2h70.3c0.8,0,1.4,0.6,1.4,1.4V446c0,0.8-0.6,1.4-1.4,1.4h-70.3c-0.8,0-1.4-0.6-1.4-1.4v-34.3
				C949.5,410.8,950.1,410.2,950.9,410.2z"/>
			<path class="st8" d="M998.9,320h34.3c0.8,0,1.4,0.6,1.4,1.4v34.3c0,0.8-0.6,1.4-1.4,1.4h-34.3c-0.8,0-1.4-0.6-1.4-1.4v-34.3
				C997.5,320.6,998.1,320,998.9,320z"/>
			<path class="st8" d="M1021.8,365.1h34.3c0.8,0,1.4,0.6,1.4,1.4v34.3c0,0.8-0.6,1.4-1.4,1.4h-34.3c-0.8,0-1.4-0.6-1.4-1.4v-34.3
				C1020.4,365.7,1021,365.1,1021.8,365.1z"/>
			<path class="st8" d="M1066.8,365.1h34.3c0.8,0,1.4,0.6,1.4,1.4v34.3c0,0.8-0.6,1.4-1.4,1.4h-34.3c-0.8,0-1.4-0.6-1.4-1.4v-34.3
				C1065.4,365.7,1066.1,365.1,1066.8,365.1z"/>
			<path class="st8" d="M1112.4,365.1h34.3c0.8,0,1.4,0.6,1.4,1.4v34.3c0,0.8-0.6,1.4-1.4,1.4h-34.3c-0.8,0-1.4-0.6-1.4-1.4v-34.3
				C1111,365.7,1111.6,365.1,1112.4,365.1z"/>
			<path class="st8" d="M1158.8,365.1h34.3c0.8,0,1.4,0.6,1.4,1.4v34.3c0,0.8-0.6,1.4-1.4,1.4h-34.3c-0.8,0-1.4-0.6-1.4-1.4v-34.3
				C1157.4,365.7,1158,365.1,1158.8,365.1z"/>
			<path class="st8" d="M1204.7,365.1h34.3c0.8,0,1.4,0.6,1.4,1.4v34.3c0,0.8-0.6,1.4-1.4,1.4h-34.3c-0.8,0-1.4-0.6-1.4-1.4v-34.3
				C1203.3,365.7,1203.9,365.1,1204.7,365.1z"/>
			<path class="st8" d="M1250.5,365.1h34.3c0.8,0,1.4,0.6,1.4,1.4v34.3c0,0.8-0.6,1.4-1.4,1.4h-34.3c-0.8,0-1.4-0.6-1.4-1.4v-34.3
				C1249,365.7,1249.7,365.1,1250.5,365.1z"/>
			<path class="st8" d="M1299.1,365.1h34.3c0.8,0,1.4,0.6,1.4,1.4v34.3c0,0.8-0.6,1.4-1.4,1.4h-34.3c-0.8,0-1.4-0.6-1.4-1.4v-34.3
				C1297.6,365.7,1298.3,365.1,1299.1,365.1z"/>
			<path class="st8" d="M1033.5,410.2h34.3c0.8,0,1.4,0.6,1.4,1.4V446c0,0.8-0.6,1.4-1.4,1.4h-34.3c-0.8,0-1.4-0.6-1.4-1.4v-34.3
				C1032.1,410.8,1032.7,410.2,1033.5,410.2z"/>
			<path class="st8" d="M1078.6,410.2h34.3c0.8,0,1.4,0.6,1.4,1.4V446c0,0.8-0.6,1.4-1.4,1.4h-34.3c-0.8,0-1.4-0.6-1.4-1.4v-34.3
				C1077.2,410.8,1077.8,410.2,1078.6,410.2z"/>
			<path class="st8" d="M1124.2,410.2h34.3c0.8,0,1.4,0.6,1.4,1.4V446c0,0.8-0.6,1.4-1.4,1.4h-34.3c-0.8,0-1.4-0.6-1.4-1.4v-34.3
				C1122.7,410.8,1123.4,410.2,1124.2,410.2z"/>
			<path class="st8" d="M1170.5,410.2h34.3c0.8,0,1.4,0.6,1.4,1.4V446c0,0.8-0.6,1.4-1.4,1.4h-34.3c-0.8,0-1.4-0.6-1.4-1.4v-34.3
				C1169.1,410.8,1169.8,410.2,1170.5,410.2z"/>
			<path class="st8" d="M1216.4,410.2h34.3c0.8,0,1.4,0.6,1.4,1.4V446c0,0.8-0.6,1.4-1.4,1.4h-34.3c-0.8,0-1.4-0.6-1.4-1.4v-34.3
				C1215,410.8,1215.6,410.2,1216.4,410.2z"/>
			<path class="st8" d="M1262.2,410.2h34.3c0.8,0,1.4,0.6,1.4,1.4V446c0,0.8-0.6,1.4-1.4,1.4h-34.3c-0.8,0-1.4-0.6-1.4-1.4v-34.3
				C1260.8,410.8,1261.4,410.2,1262.2,410.2z"/>
			<path class="st8" d="M1310.8,410.2h34.3c0.8,0,1.4,0.6,1.4,1.4V446c0,0.8-0.6,1.4-1.4,1.4h-34.3c-0.8,0-1.4-0.6-1.4-1.4v-34.3
				C1309.4,410.8,1310,410.2,1310.8,410.2z"/>
			<path class="st8" d="M1354.6,410.2h34.3c0.8,0,1.4,0.6,1.4,1.4V446c0,0.8-0.6,1.4-1.4,1.4h-34.3c-0.8,0-1.4-0.6-1.4-1.4v-34.3
				C1353.2,410.8,1353.8,410.2,1354.6,410.2z"/>
			<path class="st8" d="M1401,410.2h34.3c0.8,0,1.4,0.6,1.4,1.4V446c0,0.8-0.6,1.4-1.4,1.4H1401c-0.8,0-1.4-0.6-1.4-1.4v-34.3
				C1399.6,410.8,1400.2,410.2,1401,410.2z"/>
			<path class="st8" d="M1446.9,410.2h34.3c0.8,0,1.4,0.6,1.4,1.4V446c0,0.8-0.6,1.4-1.4,1.4h-34.3c-0.8,0-1.4-0.6-1.4-1.4v-34.3
				C1445.5,410.8,1446.1,410.2,1446.9,410.2z"/>
			<path class="st8" d="M1492.7,410.2h34.3c0.8,0,1.4,0.6,1.4,1.4V446c0,0.8-0.6,1.4-1.4,1.4h-34.3c-0.8,0-1.4-0.6-1.4-1.4v-34.3
				C1491.2,410.8,1491.9,410.2,1492.7,410.2z"/>
			<path class="st8" d="M1541.3,410.2h34.3c0.8,0,1.4,0.6,1.4,1.4V446c0,0.8-0.6,1.4-1.4,1.4h-34.3c-0.8,0-1.4-0.6-1.4-1.4v-34.3
				C1539.8,410.8,1540.5,410.2,1541.3,410.2z"/>
			<path class="st8" d="M1285.4,455.3h34.3c0.8,0,1.4,0.6,1.4,1.4v34.3c0,0.8-0.6,1.4-1.4,1.4h-34.3c-0.8,0-1.4-0.6-1.4-1.4v-34.3
				C1283.9,456,1284.6,455.3,1285.4,455.3z"/>
			<path class="st8" d="M1331.7,455.3h34.3c0.8,0,1.4,0.6,1.4,1.4v34.3c0,0.8-0.6,1.4-1.4,1.4h-34.3c-0.8,0-1.4-0.6-1.4-1.4v-34.3
				C1330.3,456,1331,455.3,1331.7,455.3z"/>
			<path class="st8" d="M1377.6,455.3h34.3c0.8,0,1.4,0.6,1.4,1.4v34.3c0,0.8-0.6,1.4-1.4,1.4h-34.3c-0.8,0-1.4-0.6-1.4-1.4v-34.3
				C1376.2,456,1376.8,455.3,1377.6,455.3z"/>
			<path class="st8" d="M1423.4,455.3h34.3c0.8,0,1.4,0.6,1.4,1.4v34.3c0,0.8-0.6,1.4-1.4,1.4h-34.3c-0.8,0-1.4-0.6-1.4-1.4v-34.3
				C1422,456,1422.6,455.3,1423.4,455.3z"/>
			<path class="st8" d="M1472,455.3h34.3c0.8,0,1.4,0.6,1.4,1.4v34.3c0,0.8-0.6,1.4-1.4,1.4H1472c-0.8,0-1.4-0.6-1.4-1.4v-34.3
				C1470.6,456,1471.2,455.3,1472,455.3z"/>
			<path class="st8" d="M1437.5,500.4h34.3c0.8,0,1.4,0.6,1.4,1.4v39.8c0,0.8-0.6,1.4-1.4,1.4h-34.3c-0.8,0-1.4-0.6-1.4-1.4v-39.8
				C1436.1,501.1,1436.7,500.4,1437.5,500.4z"/>
			<path class="st8" d="M1529.8,503.5h33c0.8,0,1.4,0.6,1.4,1.4v13.2c0,0.8-0.6,1.4-1.4,1.4h-33c-0.8,0-1.4-0.6-1.4-1.4v-13.2
				C1528.4,504.2,1529,503.5,1529.8,503.5z"/>
			<path class="st8" d="M1379.7,500.4h45.3c0.8,0,1.4,0.6,1.4,1.4v39.8c0,0.8-0.6,1.4-1.4,1.4h-45.3c-0.8,0-1.4-0.6-1.4-1.4v-39.8
				C1378.3,501.1,1378.9,500.4,1379.7,500.4z"/>
			<path class="st8" d="M1146.9,500.4h222.3c0.8,0,1.4,0.6,1.4,1.4v39.8c0,0.8-0.6,1.4-1.4,1.4h-222.3c-0.8,0-1.4-0.6-1.4-1.4v-39.8
				C1145.5,501.1,1146.1,500.4,1146.9,500.4z"/>
			<path class="st8" d="M1519.9,455.3h90.9c0.8,0,1.4,0.6,1.4,1.4v34.3c0,0.8-0.6,1.4-1.4,1.4h-90.9c-0.8,0-1.4-0.6-1.4-1.4v-34.3
				C1518.5,456,1519.1,455.3,1519.9,455.3z"/>
			<path class="st8" d="M1054.6,455.3h34.3c0.8,0,1.4,0.6,1.4,1.4v34.3c0,0.8-0.6,1.4-1.4,1.4h-34.3c-0.8,0-1.4-0.6-1.4-1.4v-34.3
				C1053.2,456,1053.9,455.3,1054.6,455.3z"/>
			<path class="st8" d="M1009.9,455.3h34.3c0.8,0,1.4,0.6,1.4,1.4v34.3c0,0.8-0.6,1.4-1.4,1.4h-34.3c-0.8,0-1.4-0.6-1.4-1.4v-34.3
				C1008.5,456,1009.1,455.3,1009.9,455.3z"/>
			<path class="st8" d="M950.9,455.3h47.4c0.8,0,1.4,0.6,1.4,1.4v34.3c0,0.8-0.6,1.4-1.4,1.4h-47.4c-0.8,0-1.4-0.6-1.4-1.4v-34.3
				C949.5,456,950.1,455.3,950.9,455.3z"/>
			<path class="st8" d="M950.9,500.4h33.8c0.8,0,1.4,0.6,1.4,1.4v39.8c0,0.8-0.6,1.4-1.4,1.4h-33.8c-0.8,0-1.4-0.6-1.4-1.4v-39.8
				C949.5,501.1,950.1,500.4,950.9,500.4z"/>
			<path class="st8" d="M996,500.4h33.8c0.8,0,1.4,0.6,1.4,1.4v39.8c0,0.8-0.6,1.4-1.4,1.4H996c-0.8,0-1.4-0.6-1.4-1.4v-39.8
				C994.6,501.1,995.2,500.4,996,500.4z"/>
			<path class="st8" d="M1044.6,500.4h33.8c0.8,0,1.4,0.6,1.4,1.4v39.8c0,0.8-0.6,1.4-1.4,1.4h-33.8c-0.8,0-1.4-0.6-1.4-1.4v-39.8
				C1043.2,501.1,1043.8,500.4,1044.6,500.4z"/>
			<path class="st8" d="M1091.8,500.4h43.6c0.8,0,1.4,0.6,1.4,1.4v39.8c0,0.8-0.6,1.4-1.4,1.4h-43.6c-0.8,0-1.4-0.6-1.4-1.4v-39.8
				C1090.4,501.1,1091,500.4,1091.8,500.4z"/>
			<path class="st8" d="M1101,455.3h34.3c0.8,0,1.4,0.6,1.4,1.4v34.3c0,0.8-0.6,1.4-1.4,1.4H1101c-0.8,0-1.4-0.6-1.4-1.4v-34.3
				C1099.6,456,1100.3,455.3,1101,455.3z"/>
			<path class="st8" d="M1146.9,455.3h34.3c0.8,0,1.4,0.6,1.4,1.4v34.3c0,0.8-0.6,1.4-1.4,1.4h-34.3c-0.8,0-1.4-0.6-1.4-1.4v-34.3
				C1145.5,456,1146.1,455.3,1146.9,455.3z"/>
			<path class="st8" d="M1192.7,455.3h34.3c0.8,0,1.4,0.6,1.4,1.4v34.3c0,0.8-0.6,1.4-1.4,1.4h-34.3c-0.8,0-1.4-0.6-1.4-1.4v-34.3
				C1191.3,456,1191.9,455.3,1192.7,455.3z"/>
			<path class="st8" d="M1241.3,455.3h34.3c0.8,0,1.4,0.6,1.4,1.4v34.3c0,0.8-0.6,1.4-1.4,1.4h-34.3c-0.8,0-1.4-0.6-1.4-1.4v-34.3
				C1239.9,456,1240.5,455.3,1241.3,455.3z"/>
			<path class="st8" d="M1342.5,365.1h34.3c0.8,0,1.4,0.6,1.4,1.4v34.3c0,0.8-0.6,1.4-1.4,1.4h-34.3c-0.8,0-1.4-0.6-1.4-1.4v-34.3
				C1341.1,365.7,1341.7,365.1,1342.5,365.1z"/>
			<path class="st8" d="M1390.7,365.1h34.3c0.8,0,1.4,0.6,1.4,1.4v34.3c0,0.8-0.6,1.4-1.4,1.4h-34.3c-0.8,0-1.4-0.6-1.4-1.4v-34.3
				C1389.3,365.7,1389.9,365.1,1390.7,365.1z"/>
			<path class="st8" d="M1437.5,365.1h34.3c0.8,0,1.4,0.6,1.4,1.4v34.3c0,0.8-0.6,1.4-1.4,1.4h-34.3c-0.8,0-1.4-0.6-1.4-1.4v-34.3
				C1436.1,365.7,1436.7,365.1,1437.5,365.1z"/>
			<path class="st8" d="M1482.7,365.1h34.3c0.8,0,1.4,0.6,1.4,1.4v34.3c0,0.8-0.6,1.4-1.4,1.4h-34.3c-0.8,0-1.4-0.6-1.4-1.4v-34.3
				C1481.3,365.7,1482,365.1,1482.7,365.1z"/>
			<path class="st8" d="M1528.5,365.1h34.3c0.8,0,1.4,0.6,1.4,1.4v34.3c0,0.8-0.6,1.4-1.4,1.4h-34.3c-0.8,0-1.4-0.6-1.4-1.4v-34.3
				C1527.1,365.7,1527.7,365.1,1528.5,365.1z"/>
			<path class="st8" d="M1610.1,365.1h-34.2c-1.2,0-2.1,0.9-2.1,2.1v0v33c0,1.2,0.9,2.1,2.1,2.1l0,0h9.6v39.9c0,1.2,0.9,2.1,2.1,2.1
				h22.5c1.2,0,2.1-0.9,2.1-2.1v-75C1612.2,366,1611.3,365.1,1610.1,365.1z"/>
			<path class="st8" d="M1047.1,320h34.3c0.8,0,1.4,0.6,1.4,1.4v34.3c0,0.8-0.6,1.4-1.4,1.4h-34.3c-0.8,0-1.4-0.6-1.4-1.4v-34.3
				C1045.6,320.6,1046.3,320,1047.1,320z"/>
			<path class="st8" d="M1093.8,320h34.3c0.8,0,1.4,0.6,1.4,1.4v34.3c0,0.8-0.6,1.4-1.4,1.4h-34.3c-0.8,0-1.4-0.6-1.4-1.4v-34.3
				C1092.4,320.6,1093.1,320,1093.8,320z"/>
			<path class="st8" d="M1183.8,320h34.3c0.8,0,1.4,0.6,1.4,1.4v34.3c0,0.8-0.6,1.4-1.4,1.4h-34.3c-0.8,0-1.4-0.6-1.4-1.4v-34.3
				C1182.4,320.6,1183,320,1183.8,320z"/>
			<path class="st8" d="M1230.5,320h34.3c0.8,0,1.4,0.6,1.4,1.4v34.3c0,0.8-0.6,1.4-1.4,1.4h-34.3c-0.8,0-1.4-0.6-1.4-1.4v-34.3
				C1229.1,320.6,1229.7,320,1230.5,320z"/>
			<path class="st8" d="M1275.8,320h34.3c0.8,0,1.4,0.6,1.4,1.4v34.3c0,0.8-0.6,1.4-1.4,1.4h-34.3c-0.8,0-1.4-0.6-1.4-1.4v-34.3
				C1274.4,320.6,1275,320,1275.8,320z"/>
			<path class="st8" d="M1321,320h34.3c0.8,0,1.4,0.6,1.4,1.4v34.3c0,0.8-0.6,1.4-1.4,1.4H1321c-0.8,0-1.4-0.6-1.4-1.4v-34.3
				C1319.6,320.6,1320.2,320,1321,320z"/>
			<path class="st8" d="M1369.1,320h34.3c0.8,0,1.4,0.6,1.4,1.4v34.3c0,0.8-0.6,1.4-1.4,1.4h-34.3c-0.8,0-1.4-0.6-1.4-1.4v-34.3
				C1367.6,320.6,1368.3,320,1369.1,320z"/>
			<path class="st8" d="M1414.3,320h34.3c0.8,0,1.4,0.6,1.4,1.4v34.3c0,0.8-0.6,1.4-1.4,1.4h-34.3c-0.8,0-1.4-0.6-1.4-1.4v-34.3
				C1412.9,320.6,1413.5,320,1414.3,320z"/>
			<path class="st8" d="M1460.7,320h34.3c0.8,0,1.4,0.6,1.4,1.4v34.3c0,0.8-0.6,1.4-1.4,1.4h-34.3c-0.8,0-1.4-0.6-1.4-1.4v-34.3
				C1459.3,320.6,1459.9,320,1460.7,320z"/>
			<path class="st8" d="M1506.5,320h34.3c0.8,0,1.4,0.6,1.4,1.4v34.3c0,0.8-0.6,1.4-1.4,1.4h-34.3c-0.8,0-1.4-0.6-1.4-1.4v-34.3
				C1505.1,320.6,1505.7,320,1506.5,320z"/>
			<path class="st8" d="M1552.3,320h58.5c0.8,0,1.4,0.6,1.4,1.4v34.3c0,0.8-0.6,1.4-1.4,1.4h-58.5c-0.8,0-1.4-0.6-1.4-1.4v-34.3
				C1550.9,320.6,1551.5,320,1552.3,320z"/>
			<path class="st8" d="M1136.8,320h34.3c0.8,0,1.4,0.6,1.4,1.4v34.3c0,0.8-0.6,1.4-1.4,1.4h-34.3c-0.8,0-1.4-0.6-1.4-1.4v-34.3
				C1135.4,320.6,1136,320,1136.8,320z"/>
			<path class="st8" d="M997.7,287.6h36.7c0.8,0,1.4,0.6,1.4,1.4v21.6c0,0.8-0.6,1.4-1.4,1.4h-36.7c-0.8,0-1.4-0.6-1.4-1.4V289
				C996.3,288.2,996.9,287.6,997.7,287.6z"/>
			<path class="st8" d="M1045.9,287.6h36.7c0.8,0,1.4,0.6,1.4,1.4v21.6c0,0.8-0.6,1.4-1.4,1.4h-36.7c-0.8,0-1.4-0.6-1.4-1.4V289
				C1044.4,288.2,1045.1,287.6,1045.9,287.6z"/>
			<path class="st8" d="M1092.6,287.6h36.7c0.8,0,1.4,0.6,1.4,1.4v21.6c0,0.8-0.6,1.4-1.4,1.4h-36.7c-0.8,0-1.4-0.6-1.4-1.4V289
				C1091.2,288.2,1091.9,287.6,1092.6,287.6z"/>
			<path class="st8" d="M1141.8,287.6h36.7c0.8,0,1.4,0.6,1.4,1.4v21.6c0,0.8-0.6,1.4-1.4,1.4h-36.7c-0.8,0-1.4-0.6-1.4-1.4V289
				C1140.4,288.2,1141,287.6,1141.8,287.6z"/>
			<path class="st8" d="M1191,287.6h36.7c0.8,0,1.4,0.6,1.4,1.4v21.6c0,0.8-0.6,1.4-1.4,1.4H1191c-0.8,0-1.4-0.6-1.4-1.4V289
				C1189.5,288.2,1190.2,287.6,1191,287.6z"/>
			<path class="st8" d="M1239.1,287.6h36.7c0.8,0,1.4,0.6,1.4,1.4v21.6c0,0.8-0.6,1.4-1.4,1.4h-36.7c-0.8,0-1.4-0.6-1.4-1.4V289
				C1237.7,288.2,1238.4,287.6,1239.1,287.6z"/>
			<path class="st8" d="M1285.9,287.6h36.7c0.8,0,1.4,0.6,1.4,1.4v21.6c0,0.8-0.6,1.4-1.4,1.4h-36.7c-0.8,0-1.4-0.6-1.4-1.4V289
				C1284.5,288.2,1285.1,287.6,1285.9,287.6z"/>
			<path class="st8" d="M1332.9,287.6h36.7c0.8,0,1.4,0.6,1.4,1.4v21.6c0,0.8-0.6,1.4-1.4,1.4h-36.7c-0.8,0-1.4-0.6-1.4-1.4V289
				C1331.5,288.2,1332.1,287.6,1332.9,287.6z"/>
			<path class="st8" d="M1379.7,287.6h36.7c0.8,0,1.4,0.6,1.4,1.4v21.6c0,0.8-0.6,1.4-1.4,1.4h-36.7c-0.8,0-1.4-0.6-1.4-1.4V289
				C1378.3,288.2,1378.9,287.6,1379.7,287.6z"/>
			<path class="st8" d="M1427.9,287.6h36.7c0.8,0,1.4,0.6,1.4,1.4v21.6c0,0.8-0.6,1.4-1.4,1.4h-36.7c-0.8,0-1.4-0.6-1.4-1.4V289
				C1426.5,288.2,1427.1,287.6,1427.9,287.6z"/>
			<path class="st8" d="M1474.7,287.6h36.7c0.8,0,1.4,0.6,1.4,1.4v21.6c0,0.8-0.6,1.4-1.4,1.4h-36.7c-0.8,0-1.4-0.6-1.4-1.4V289
				C1473.2,288.2,1473.9,287.6,1474.7,287.6z"/>
			<path class="st8" d="M1527.3,287.6h36.7c0.8,0,1.4,0.6,1.4,1.4v21.6c0,0.8-0.6,1.4-1.4,1.4h-36.7c-0.8,0-1.4-0.6-1.4-1.4V289
				C1525.9,288.2,1526.5,287.6,1527.3,287.6z"/>
			<path class="st8" d="M1574.1,287.6h36.7c0.8,0,1.4,0.6,1.4,1.4v21.6c0,0.8-0.6,1.4-1.4,1.4h-36.7c-0.8,0-1.4-0.6-1.4-1.4V289
				C1572.7,288.2,1573.3,287.6,1574.1,287.6z"/>
			<path class="st8" d="M1529.8,500.4h33c0.8,0,1.4,0.6,1.4,1.4l0,0V515l0,0h-35.9l0,0v-13.1C1528.4,501.1,1529,500.4,1529.8,500.4
				C1529.8,500.4,1529.8,500.4,1529.8,500.4z"/>
			<path class="st8" d="M1529.8,519.5h33c0.8,0,1.4,0.6,1.4,1.4v20.7c0,0.8-0.6,1.4-1.4,1.4h-33c-0.8,0-1.4-0.6-1.4-1.4v-20.7
				C1528.4,520.1,1529,519.5,1529.8,519.5z"/>
			<path class="st8" d="M1576.5,523.9h33c0.8,0,1.4,0.6,1.4,1.4v16.3c0,0.8-0.6,1.4-1.4,1.4h-33c-0.8,0-1.4-0.6-1.4-1.4v-16.3
				C1575.1,524.5,1575.8,523.9,1576.5,523.9z"/>
			<path class="st8" d="M1484.3,523.9h33c0.8,0,1.4,0.6,1.4,1.4v16.3c0,0.8-0.6,1.4-1.4,1.4h-33c-0.8,0-1.4-0.6-1.4-1.4v-16.3
				C1482.9,524.5,1483.5,523.9,1484.3,523.9z"/>
			<path class="st9" d="M950.9,283.4h36.7c0.8,0,1.4,0.6,1.4,1.4v21.6c0,0.8-0.6,1.4-1.4,1.4h-36.7c-0.8,0-1.4-0.6-1.4-1.4v-21.6
				C949.5,284,950.1,283.4,950.9,283.4z"/>
			<path class="st9" d="M950.9,315.8h34.3c0.8,0,1.4,0.6,1.4,1.4v34.3c0,0.8-0.6,1.4-1.4,1.4h-34.3c-0.8,0-1.4-0.6-1.4-1.4v-34.3
				C949.5,316.4,950.1,315.8,950.9,315.8z"/>
			<path class="st9" d="M950.9,360.9h60.6c0.8,0,1.4,0.6,1.4,1.4v34.3c0,0.8-0.6,1.4-1.4,1.4h-60.6c-0.8,0-1.4-0.6-1.4-1.4v-34.3
				C949.5,361.5,950.1,360.9,950.9,360.9z"/>
			<path class="st9" d="M950.9,406h70.3c0.8,0,1.4,0.6,1.4,1.4v34.3c0,0.8-0.6,1.4-1.4,1.4h-70.3c-0.8,0-1.4-0.6-1.4-1.4v-34.3
				C949.5,406.7,950.1,406,950.9,406z"/>
			<path class="st9" d="M998.9,315.8h34.3c0.8,0,1.4,0.6,1.4,1.4v34.3c0,0.8-0.6,1.4-1.4,1.4h-34.3c-0.8,0-1.4-0.6-1.4-1.4v-34.3
				C997.5,316.4,998.1,315.8,998.9,315.8z"/>
			<path class="st9" d="M1021.8,360.9h34.3c0.8,0,1.4,0.6,1.4,1.4v34.3c0,0.8-0.6,1.4-1.4,1.4h-34.3c-0.8,0-1.4-0.6-1.4-1.4v-34.3
				C1020.4,361.5,1021,360.9,1021.8,360.9z"/>
			<path class="st9" d="M1066.8,360.9h34.3c0.8,0,1.4,0.6,1.4,1.4v34.3c0,0.8-0.6,1.4-1.4,1.4h-34.3c-0.8,0-1.4-0.6-1.4-1.4v-34.3
				C1065.4,361.5,1066.1,360.9,1066.8,360.9z"/>
			<path class="st9" d="M1112.4,360.9h34.3c0.8,0,1.4,0.6,1.4,1.4v34.3c0,0.8-0.6,1.4-1.4,1.4h-34.3c-0.8,0-1.4-0.6-1.4-1.4v-34.3
				C1111,361.5,1111.6,360.9,1112.4,360.9z"/>
			<path class="st9" d="M1158.8,360.9h34.3c0.8,0,1.4,0.6,1.4,1.4v34.3c0,0.8-0.6,1.4-1.4,1.4h-34.3c-0.8,0-1.4-0.6-1.4-1.4v-34.3
				C1157.4,361.5,1158,360.9,1158.8,360.9z"/>
			<path class="st9" d="M1204.7,360.9h34.3c0.8,0,1.4,0.6,1.4,1.4v34.3c0,0.8-0.6,1.4-1.4,1.4h-34.3c-0.8,0-1.4-0.6-1.4-1.4v-34.3
				C1203.3,361.5,1203.9,360.9,1204.7,360.9z"/>
			<path class="st9" d="M1250.5,360.9h34.3c0.8,0,1.4,0.6,1.4,1.4v34.3c0,0.8-0.6,1.4-1.4,1.4h-34.3c-0.8,0-1.4-0.6-1.4-1.4v-34.3
				C1249,361.5,1249.7,360.9,1250.5,360.9z"/>
			<path class="st9" d="M1299.1,360.9h34.3c0.8,0,1.4,0.6,1.4,1.4v34.3c0,0.8-0.6,1.4-1.4,1.4h-34.3c-0.8,0-1.4-0.6-1.4-1.4v-34.3
				C1297.6,361.5,1298.3,360.9,1299.1,360.9z"/>
			<path class="st9" d="M1033.5,406h34.3c0.8,0,1.4,0.6,1.4,1.4v34.3c0,0.8-0.6,1.4-1.4,1.4h-34.3c-0.8,0-1.4-0.6-1.4-1.4v-34.3
				C1032.1,406.7,1032.7,406,1033.5,406z"/>
			<path class="st9" d="M1078.6,406h34.3c0.8,0,1.4,0.6,1.4,1.4v34.3c0,0.8-0.6,1.4-1.4,1.4h-34.3c-0.8,0-1.4-0.6-1.4-1.4v-34.3
				C1077.2,406.7,1077.8,406,1078.6,406z"/>
			<path class="st9" d="M1124.2,406h34.3c0.8,0,1.4,0.6,1.4,1.4v34.3c0,0.8-0.6,1.4-1.4,1.4h-34.3c-0.8,0-1.4-0.6-1.4-1.4v-34.3
				C1122.7,406.7,1123.4,406,1124.2,406z"/>
			<path class="st9" d="M1170.5,406h34.3c0.8,0,1.4,0.6,1.4,1.4v34.3c0,0.8-0.6,1.4-1.4,1.4h-34.3c-0.8,0-1.4-0.6-1.4-1.4v-34.3
				C1169.1,406.7,1169.8,406,1170.5,406z"/>
			<path class="st9" d="M1216.4,406h34.3c0.8,0,1.4,0.6,1.4,1.4v34.3c0,0.8-0.6,1.4-1.4,1.4h-34.3c-0.8,0-1.4-0.6-1.4-1.4v-34.3
				C1215,406.7,1215.6,406,1216.4,406z"/>
			<path class="st9" d="M1262.2,406h34.3c0.8,0,1.4,0.6,1.4,1.4v34.3c0,0.8-0.6,1.4-1.4,1.4h-34.3c-0.8,0-1.4-0.6-1.4-1.4v-34.3
				C1260.8,406.7,1261.4,406,1262.2,406z"/>
			<path class="st9" d="M1310.8,406h34.3c0.8,0,1.4,0.6,1.4,1.4v34.3c0,0.8-0.6,1.4-1.4,1.4h-34.3c-0.8,0-1.4-0.6-1.4-1.4v-34.3
				C1309.4,406.7,1310,406,1310.8,406z"/>
			<path class="st9" d="M1354.6,406h34.3c0.8,0,1.4,0.6,1.4,1.4v34.3c0,0.8-0.6,1.4-1.4,1.4h-34.3c-0.8,0-1.4-0.6-1.4-1.4v-34.3
				C1353.2,406.7,1353.8,406,1354.6,406z"/>
			<path class="st9" d="M1401,406h34.3c0.8,0,1.4,0.6,1.4,1.4v34.3c0,0.8-0.6,1.4-1.4,1.4H1401c-0.8,0-1.4-0.6-1.4-1.4v-34.3
				C1399.6,406.7,1400.2,406,1401,406z"/>
			<path class="st9" d="M1446.9,406h34.3c0.8,0,1.4,0.6,1.4,1.4v34.3c0,0.8-0.6,1.4-1.4,1.4h-34.3c-0.8,0-1.4-0.6-1.4-1.4v-34.3
				C1445.5,406.7,1446.1,406,1446.9,406z"/>
			<path class="st9" d="M1492.7,406h34.3c0.8,0,1.4,0.6,1.4,1.4v34.3c0,0.8-0.6,1.4-1.4,1.4h-34.3c-0.8,0-1.4-0.6-1.4-1.4v-34.3
				C1491.2,406.7,1491.9,406,1492.7,406z"/>
			<path class="st9" d="M1541.3,406h34.3c0.8,0,1.4,0.6,1.4,1.4v34.3c0,0.8-0.6,1.4-1.4,1.4h-34.3c-0.8,0-1.4-0.6-1.4-1.4v-34.3
				C1539.8,406.7,1540.5,406,1541.3,406z"/>
			<path class="st9" d="M1285.4,451.1h34.3c0.8,0,1.4,0.6,1.4,1.4v34.3c0,0.8-0.6,1.4-1.4,1.4h-34.3c-0.8,0-1.4-0.6-1.4-1.4v-34.3
				C1283.9,451.8,1284.6,451.1,1285.4,451.1z"/>
			<path class="st9" d="M1331.7,451.1h34.3c0.8,0,1.4,0.6,1.4,1.4v34.3c0,0.8-0.6,1.4-1.4,1.4h-34.3c-0.8,0-1.4-0.6-1.4-1.4v-34.3
				C1330.3,451.8,1331,451.1,1331.7,451.1z"/>
			<path class="st9" d="M1377.6,451.1h34.3c0.8,0,1.4,0.6,1.4,1.4v34.3c0,0.8-0.6,1.4-1.4,1.4h-34.3c-0.8,0-1.4-0.6-1.4-1.4v-34.3
				C1376.2,451.8,1376.8,451.1,1377.6,451.1z"/>
			<path class="st9" d="M1423.4,451.1h34.3c0.8,0,1.4,0.6,1.4,1.4v34.3c0,0.8-0.6,1.4-1.4,1.4h-34.3c-0.8,0-1.4-0.6-1.4-1.4v-34.3
				C1422,451.8,1422.6,451.1,1423.4,451.1z"/>
			<path class="st9" d="M1472,451.1h34.3c0.8,0,1.4,0.6,1.4,1.4v34.3c0,0.8-0.6,1.4-1.4,1.4H1472c-0.8,0-1.4-0.6-1.4-1.4v-34.3
				C1470.6,451.8,1471.2,451.1,1472,451.1z"/>
			<path class="st9" d="M1437.5,496.2h34.3c0.8,0,1.4,0.6,1.4,1.4v39.8c0,0.8-0.6,1.4-1.4,1.4h-34.3c-0.8,0-1.4-0.6-1.4-1.4v-39.8
				C1436.1,496.9,1436.7,496.2,1437.5,496.2z"/>
			<path class="st9" d="M1529.8,499.3h33c0.8,0,1.4,0.6,1.4,1.4v13.2c0,0.8-0.6,1.4-1.4,1.4h-33c-0.8,0-1.4-0.6-1.4-1.4v-13.2
				C1528.4,499.9,1529,499.3,1529.8,499.3z"/>
			<path class="st9" d="M1379.7,496.2h45.3c0.8,0,1.4,0.6,1.4,1.4v39.8c0,0.8-0.6,1.4-1.4,1.4h-45.3c-0.8,0-1.4-0.6-1.4-1.4v-39.8
				C1378.3,496.9,1378.9,496.2,1379.7,496.2z"/>
			<path class="st9" d="M1146.9,496.2h222.3c0.8,0,1.4,0.6,1.4,1.4v39.8c0,0.8-0.6,1.4-1.4,1.4h-222.3c-0.8,0-1.4-0.6-1.4-1.4v-39.8
				C1145.5,496.9,1146.1,496.2,1146.9,496.2z"/>
			<path class="st9" d="M1519.9,451.1h90.9c0.8,0,1.4,0.6,1.4,1.4v34.3c0,0.8-0.6,1.4-1.4,1.4h-90.9c-0.8,0-1.4-0.6-1.4-1.4v-34.3
				C1518.5,451.8,1519.1,451.1,1519.9,451.1z"/>
			<path class="st9" d="M1054.6,451.1h34.3c0.8,0,1.4,0.6,1.4,1.4v34.3c0,0.8-0.6,1.4-1.4,1.4h-34.3c-0.8,0-1.4-0.6-1.4-1.4v-34.3
				C1053.2,451.8,1053.9,451.1,1054.6,451.1z"/>
			<path class="st9" d="M1009.9,451.1h34.3c0.8,0,1.4,0.6,1.4,1.4v34.3c0,0.8-0.6,1.4-1.4,1.4h-34.3c-0.8,0-1.4-0.6-1.4-1.4v-34.3
				C1008.5,451.8,1009.1,451.1,1009.9,451.1z"/>
			<path class="st9" d="M950.9,451.1h47.4c0.8,0,1.4,0.6,1.4,1.4v34.3c0,0.8-0.6,1.4-1.4,1.4h-47.4c-0.8,0-1.4-0.6-1.4-1.4v-34.3
				C949.5,451.8,950.1,451.1,950.9,451.1z"/>
			<path class="st9" d="M950.9,496.2h33.8c0.8,0,1.4,0.6,1.4,1.4v39.8c0,0.8-0.6,1.4-1.4,1.4h-33.8c-0.8,0-1.4-0.6-1.4-1.4v-39.8
				C949.5,496.9,950.1,496.2,950.9,496.2z"/>
			<path class="st9" d="M996,496.2h33.8c0.8,0,1.4,0.6,1.4,1.4v39.8c0,0.8-0.6,1.4-1.4,1.4H996c-0.8,0-1.4-0.6-1.4-1.4v-39.8
				C994.6,496.9,995.2,496.2,996,496.2z"/>
			<path class="st9" d="M1044.6,496.2h33.8c0.8,0,1.4,0.6,1.4,1.4v39.8c0,0.8-0.6,1.4-1.4,1.4h-33.8c-0.8,0-1.4-0.6-1.4-1.4v-39.8
				C1043.2,496.9,1043.8,496.2,1044.6,496.2z"/>
			<path class="st9" d="M1091.8,496.2h43.6c0.8,0,1.4,0.6,1.4,1.4v39.8c0,0.8-0.6,1.4-1.4,1.4h-43.6c-0.8,0-1.4-0.6-1.4-1.4v-39.8
				C1090.4,496.9,1091,496.2,1091.8,496.2z"/>
			<path class="st9" d="M1101,451.1h34.3c0.8,0,1.4,0.6,1.4,1.4v34.3c0,0.8-0.6,1.4-1.4,1.4H1101c-0.8,0-1.4-0.6-1.4-1.4v-34.3
				C1099.6,451.8,1100.3,451.1,1101,451.1z"/>
			<path class="st9" d="M1146.9,451.1h34.3c0.8,0,1.4,0.6,1.4,1.4v34.3c0,0.8-0.6,1.4-1.4,1.4h-34.3c-0.8,0-1.4-0.6-1.4-1.4v-34.3
				C1145.5,451.8,1146.1,451.1,1146.9,451.1z"/>
			<path class="st9" d="M1192.7,451.1h34.3c0.8,0,1.4,0.6,1.4,1.4v34.3c0,0.8-0.6,1.4-1.4,1.4h-34.3c-0.8,0-1.4-0.6-1.4-1.4v-34.3
				C1191.3,451.8,1191.9,451.1,1192.7,451.1z"/>
			<path class="st9" d="M1241.3,451.1h34.3c0.8,0,1.4,0.6,1.4,1.4v34.3c0,0.8-0.6,1.4-1.4,1.4h-34.3c-0.8,0-1.4-0.6-1.4-1.4v-34.3
				C1239.9,451.8,1240.5,451.1,1241.3,451.1z"/>
			<path class="st9" d="M1342.5,360.9h34.3c0.8,0,1.4,0.6,1.4,1.4v34.3c0,0.8-0.6,1.4-1.4,1.4h-34.3c-0.8,0-1.4-0.6-1.4-1.4v-34.3
				C1341.1,361.5,1341.7,360.9,1342.5,360.9z"/>
			<path class="st9" d="M1390.7,360.9h34.3c0.8,0,1.4,0.6,1.4,1.4v34.3c0,0.8-0.6,1.4-1.4,1.4h-34.3c-0.8,0-1.4-0.6-1.4-1.4v-34.3
				C1389.3,361.5,1389.9,360.9,1390.7,360.9z"/>
			<path class="st9" d="M1437.5,360.9h34.3c0.8,0,1.4,0.6,1.4,1.4v34.3c0,0.8-0.6,1.4-1.4,1.4h-34.3c-0.8,0-1.4-0.6-1.4-1.4v-34.3
				C1436.1,361.5,1436.7,360.9,1437.5,360.9z"/>
			<path class="st9" d="M1482.7,360.9h34.3c0.8,0,1.4,0.6,1.4,1.4v34.3c0,0.8-0.6,1.4-1.4,1.4h-34.3c-0.8,0-1.4-0.6-1.4-1.4v-34.3
				C1481.3,361.5,1482,360.9,1482.7,360.9z"/>
			<path class="st9" d="M1528.5,360.9h34.3c0.8,0,1.4,0.6,1.4,1.4v34.3c0,0.8-0.6,1.4-1.4,1.4h-34.3c-0.8,0-1.4-0.6-1.4-1.4v-34.3
				C1527.1,361.5,1527.7,360.9,1528.5,360.9z"/>
			<path class="st9" d="M1610.1,360.9h-34.2c-1.2,0-2.1,0.9-2.1,2.1c0,0,0,0,0,0v33c0,1.2,0.9,2.1,2.1,2.1h9.6V438
				c0,1.2,0.9,2.1,2.1,2.1l0,0h22.5c1.2,0,2.1-0.9,2.1-2.1c0,0,0,0,0,0v-75C1612.2,361.8,1611.3,360.9,1610.1,360.9L1610.1,360.9z"
				/>
			<path class="st9" d="M1047.1,315.8h34.3c0.8,0,1.4,0.6,1.4,1.4v34.3c0,0.8-0.6,1.4-1.4,1.4h-34.3c-0.8,0-1.4-0.6-1.4-1.4v-34.3
				C1045.6,316.4,1046.3,315.8,1047.1,315.8z"/>
			<path class="st9" d="M1093.8,315.8h34.3c0.8,0,1.4,0.6,1.4,1.4v34.3c0,0.8-0.6,1.4-1.4,1.4h-34.3c-0.8,0-1.4-0.6-1.4-1.4v-34.3
				C1092.4,316.4,1093.1,315.8,1093.8,315.8z"/>
			<path class="st9" d="M1183.8,315.8h34.3c0.8,0,1.4,0.6,1.4,1.4v34.3c0,0.8-0.6,1.4-1.4,1.4h-34.3c-0.8,0-1.4-0.6-1.4-1.4v-34.3
				C1182.4,316.4,1183,315.8,1183.8,315.8z"/>
			<path class="st9" d="M1230.5,315.8h34.3c0.8,0,1.4,0.6,1.4,1.4v34.3c0,0.8-0.6,1.4-1.4,1.4h-34.3c-0.8,0-1.4-0.6-1.4-1.4v-34.3
				C1229.1,316.4,1229.7,315.8,1230.5,315.8z"/>
			<path class="st9" d="M1275.8,315.8h34.3c0.8,0,1.4,0.6,1.4,1.4v34.3c0,0.8-0.6,1.4-1.4,1.4h-34.3c-0.8,0-1.4-0.6-1.4-1.4v-34.3
				C1274.4,316.4,1275,315.8,1275.8,315.8z"/>
			<path class="st9" d="M1321,315.8h34.3c0.8,0,1.4,0.6,1.4,1.4v34.3c0,0.8-0.6,1.4-1.4,1.4H1321c-0.8,0-1.4-0.6-1.4-1.4v-34.3
				C1319.6,316.4,1320.2,315.8,1321,315.8z"/>
			<path class="st9" d="M1369.1,315.8h34.3c0.8,0,1.4,0.6,1.4,1.4v34.3c0,0.8-0.6,1.4-1.4,1.4h-34.3c-0.8,0-1.4-0.6-1.4-1.4v-34.3
				C1367.6,316.4,1368.3,315.8,1369.1,315.8z"/>
			<path class="st9" d="M1414.3,315.8h34.3c0.8,0,1.4,0.6,1.4,1.4v34.3c0,0.8-0.6,1.4-1.4,1.4h-34.3c-0.8,0-1.4-0.6-1.4-1.4v-34.3
				C1412.9,316.4,1413.5,315.8,1414.3,315.8z"/>
			<path class="st9" d="M1460.7,315.8h34.3c0.8,0,1.4,0.6,1.4,1.4v34.3c0,0.8-0.6,1.4-1.4,1.4h-34.3c-0.8,0-1.4-0.6-1.4-1.4v-34.3
				C1459.3,316.4,1459.9,315.8,1460.7,315.8z"/>
			<path class="st9" d="M1506.5,315.8h34.3c0.8,0,1.4,0.6,1.4,1.4v34.3c0,0.8-0.6,1.4-1.4,1.4h-34.3c-0.8,0-1.4-0.6-1.4-1.4v-34.3
				C1505.1,316.4,1505.7,315.8,1506.5,315.8z"/>
			<path class="st9" d="M1552.3,315.8h58.5c0.8,0,1.4,0.6,1.4,1.4v34.3c0,0.8-0.6,1.4-1.4,1.4h-58.5c-0.8,0-1.4-0.6-1.4-1.4v-34.3
				C1550.9,316.4,1551.5,315.8,1552.3,315.8z"/>
			<path class="st9" d="M1136.8,315.8h34.3c0.8,0,1.4,0.6,1.4,1.4v34.3c0,0.8-0.6,1.4-1.4,1.4h-34.3c-0.8,0-1.4-0.6-1.4-1.4v-34.3
				C1135.4,316.4,1136,315.8,1136.8,315.8z"/>
			<path class="st9" d="M997.7,283.4h36.7c0.8,0,1.4,0.6,1.4,1.4v21.6c0,0.8-0.6,1.4-1.4,1.4h-36.7c-0.8,0-1.4-0.6-1.4-1.4v-21.6
				C996.3,284,996.9,283.4,997.7,283.4z"/>
			<path class="st9" d="M1045.9,283.4h36.7c0.8,0,1.4,0.6,1.4,1.4v21.6c0,0.8-0.6,1.4-1.4,1.4h-36.7c-0.8,0-1.4-0.6-1.4-1.4v-21.6
				C1044.4,284,1045.1,283.4,1045.9,283.4z"/>
			<path class="st9" d="M1092.6,283.4h36.7c0.8,0,1.4,0.6,1.4,1.4v21.6c0,0.8-0.6,1.4-1.4,1.4h-36.7c-0.8,0-1.4-0.6-1.4-1.4v-21.6
				C1091.2,284,1091.9,283.4,1092.6,283.4z"/>
			<path class="st9" d="M1141.8,283.4h36.7c0.8,0,1.4,0.6,1.4,1.4v21.6c0,0.8-0.6,1.4-1.4,1.4h-36.7c-0.8,0-1.4-0.6-1.4-1.4v-21.6
				C1140.4,284,1141,283.4,1141.8,283.4z"/>
			<path class="st9" d="M1191,283.4h36.7c0.8,0,1.4,0.6,1.4,1.4v21.6c0,0.8-0.6,1.4-1.4,1.4H1191c-0.8,0-1.4-0.6-1.4-1.4v-21.6
				C1189.5,284,1190.2,283.4,1191,283.4z"/>
			<path class="st9" d="M1239.1,283.4h36.7c0.8,0,1.4,0.6,1.4,1.4v21.6c0,0.8-0.6,1.4-1.4,1.4h-36.7c-0.8,0-1.4-0.6-1.4-1.4v-21.6
				C1237.7,284,1238.4,283.4,1239.1,283.4z"/>
			<path class="st9" d="M1285.9,283.4h36.7c0.8,0,1.4,0.6,1.4,1.4v21.6c0,0.8-0.6,1.4-1.4,1.4h-36.7c-0.8,0-1.4-0.6-1.4-1.4v-21.6
				C1284.5,284,1285.1,283.4,1285.9,283.4z"/>
			<path class="st9" d="M1332.9,283.4h36.7c0.8,0,1.4,0.6,1.4,1.4v21.6c0,0.8-0.6,1.4-1.4,1.4h-36.7c-0.8,0-1.4-0.6-1.4-1.4v-21.6
				C1331.5,284,1332.1,283.4,1332.9,283.4z"/>
			<path class="st9" d="M1379.7,283.4h36.7c0.8,0,1.4,0.6,1.4,1.4v21.6c0,0.8-0.6,1.4-1.4,1.4h-36.7c-0.8,0-1.4-0.6-1.4-1.4v-21.6
				C1378.3,284,1378.9,283.4,1379.7,283.4z"/>
			<path class="st9" d="M1427.9,283.4h36.7c0.8,0,1.4,0.6,1.4,1.4v21.6c0,0.8-0.6,1.4-1.4,1.4h-36.7c-0.8,0-1.4-0.6-1.4-1.4v-21.6
				C1426.5,284,1427.1,283.4,1427.9,283.4z"/>
			<path class="st9" d="M1474.7,283.4h36.7c0.8,0,1.4,0.6,1.4,1.4v21.6c0,0.8-0.6,1.4-1.4,1.4h-36.7c-0.8,0-1.4-0.6-1.4-1.4v-21.6
				C1473.2,284,1473.9,283.4,1474.7,283.4z"/>
			<path class="st9" d="M1527.3,283.4h36.7c0.8,0,1.4,0.6,1.4,1.4v21.6c0,0.8-0.6,1.4-1.4,1.4h-36.7c-0.8,0-1.4-0.6-1.4-1.4v-21.6
				C1525.9,284,1526.5,283.4,1527.3,283.4z"/>
			<path class="st9" d="M1574.1,283.4h36.7c0.8,0,1.4,0.6,1.4,1.4v21.6c0,0.8-0.6,1.4-1.4,1.4h-36.7c-0.8,0-1.4-0.6-1.4-1.4v-21.6
				C1572.7,284,1573.3,283.4,1574.1,283.4z"/>
			<path class="st9" d="M1529.8,496.2h33c0.8,0,1.4,0.6,1.4,1.4l0,0v13.1l0,0h-35.9l0,0v-13.1C1528.4,496.9,1529,496.2,1529.8,496.2
				C1529.8,496.2,1529.8,496.2,1529.8,496.2z"/>
			<path class="st9" d="M1529.8,515.3h33c0.8,0,1.4,0.6,1.4,1.4v20.7c0,0.8-0.6,1.4-1.4,1.4h-33c-0.8,0-1.4-0.6-1.4-1.4v-20.7
				C1528.4,515.9,1529,515.3,1529.8,515.3z"/>
			<path class="st9" d="M1576.5,519.7h33c0.8,0,1.4,0.6,1.4,1.4v16.3c0,0.8-0.6,1.4-1.4,1.4h-33c-0.8,0-1.4-0.6-1.4-1.4v-16.3
				C1575.1,520.4,1575.8,519.7,1576.5,519.7z"/>
			<path class="st9" d="M1484.3,519.7h33c0.8,0,1.4,0.6,1.4,1.4v16.3c0,0.8-0.6,1.4-1.4,1.4h-33c-0.8,0-1.4-0.6-1.4-1.4v-16.3
				C1482.9,520.4,1483.5,519.7,1484.3,519.7z"/>
			<path class="st10" d="M1155.7,574.9h249.6c5.5,0,9.9,4.4,9.9,9.9v151.8c0,5.5-4.4,9.9-9.9,9.9h-249.6c-5.5,0-9.9-4.4-9.9-9.9
				V584.8C1145.8,579.3,1150.2,574.9,1155.7,574.9z"/>
		</g>
		<rect x="864.3" y="283.4" class="st11" width="63.8" height="255.5"/>
		<rect x="1635.1" y="283.4" class="st11" width="63.8" height="255.5"/>
		<path class="st6" d="M771.4,6.3c-10.8,0-16.2,8.1-11.8,18.1L841.7,212c4.3,9.9,16.8,18.1,27.6,18.1h820.9
			c10.8,0,23.2-8.2,27.5-18.1l80.8-187.6c4.3-10-1.1-18.1-12-18.1L771.4,6.3z"/>
		<path class="st12" d="M784.7,14.8c-10.4,0-15.5,7.8-11.4,17.4l76.1,175.4c4.1,9.6,16.1,17.4,26.5,17.4h807.8
			c10.4,0,22.3-7.8,26.5-17.4l76.1-175.4c4.1-9.6-1-17.4-11.4-17.4H784.7z"/>
		<path class="st9" d="M784.7,18.7c-10.4,0-15.5,7.8-11.4,17.4l76.1,175.4c4.1,9.6,16.1,17.4,26.5,17.4h807.8
			c10.4,0,22.3-7.8,26.5-17.4l76.1-175.4c4.1-9.6-1-17.4-11.4-17.4L784.7,18.7z"/>
		<polygon class="st6" points="1765,33.5 794.7,33.5 800,46 1759.7,46 		"/>
		<polygon class="st13" points="800,46 873.8,220.5 1685.8,220.5 1759.7,46 		"/>
		<line class="st14" x1="806" y1="39.7" x2="871.4" y2="39.7"/>
		<line class="st14" x1="887" y1="39.7" x2="902.4" y2="39.7"/>
		<line class="st14" x1="918.4" y1="39.7" x2="933.8" y2="39.7"/>
		<line class="st14" x1="950.7" y1="39.7" x2="966.1" y2="39.7"/>
		<line class="st14" x1="1707.5" y1="39.7" x2="1722.9" y2="39.7"/>
		<line class="st14" x1="1736" y1="39.7" x2="1751.3" y2="39.7"/>
		<polygon class="st15" points="1751.7,49.6 1622.9,49.6 1581.4,216.9 1678.9,216.9 		"/>
		<polygon class="st15" points="878.3,216.9 1097.5,216.9 1087.7,155 850.3,155 		"/>
		<polygon class="st15" points="1077.2,49.6 1092.6,152.1 1592.7,152.1 1617.7,49.6 		"/>
		<polygon class="st15" points="1102.4,216.9 1576.9,216.9 1592.7,155 1092.6,155 		"/>
		<polygon class="st16" points="1126.3,58.9 1139,142.8 1548.1,142.8 1568.5,58.9 		"/>
		<line class="st17" x1="863.5" y1="162.9" x2="928.9" y2="162.9"/>
		<path class="st18" d="M1073.2,57.1l-1.2-7.6H870.7c1.2,2.5,2.5,5,3.7,7.6H1073.2z"/>
		<path class="st15" d="M874.4,57.1c-1.2-2.5-2.5-5.1-3.7-7.6H806l44.3,102.6h237.3l-14.5-95H874.4z"/>
		<line class="st17" x1="830.3" y1="84.7" x2="895.7" y2="84.7"/>
		<line class="st17" x1="835" y1="93.8" x2="900.5" y2="93.8"/>
		<line class="st17" x1="840.5" y1="104.1" x2="906" y2="104.1"/>
		<line class="st17" x1="845.3" y1="114.4" x2="910.7" y2="114.4"/>
		<line class="st17" x1="850.8" y1="123.4" x2="916.2" y2="123.4"/>
		<line class="st17" x1="856.3" y1="133.7" x2="921.8" y2="133.7"/>
		<line class="st17" x1="1738.2" y1="57.1" x2="1672.8" y2="57.1"/>
		<line class="st17" x1="1733.5" y1="66.1" x2="1668.1" y2="66.1"/>
		<line class="st17" x1="1728" y1="76.5" x2="1662.5" y2="76.5"/>
		<line class="st17" x1="1723.2" y1="86.7" x2="1657.8" y2="86.7"/>
		<line class="st17" x1="1717.7" y1="95.7" x2="1652.3" y2="95.7"/>
		<line class="st19" x1="1714.6" y1="106.1" x2="1649.4" y2="106.1"/>
		<line class="st19" x1="1710" y1="116.7" x2="1646.1" y2="116.7"/>
		<line class="st19" x1="1706.3" y1="126.6" x2="1644.3" y2="126.6"/>
		<line class="st20" x1="1701.1" y1="137.3" x2="1640.5" y2="137.3"/>
		<line class="st20" x1="1697.4" y1="146.8" x2="1636.8" y2="146.8"/>
		<line class="st20" x1="1693.8" y1="157.3" x2="1633.2" y2="157.3"/>
		<line class="st20" x1="1689.4" y1="167.7" x2="1628.8" y2="167.7"/>
		<line class="st21" x1="1102.7" y1="162.9" x2="1319.6" y2="162.9"/>
		<line class="st22" x1="1203.1" y1="175" x2="1420" y2="175"/>
		<line class="st23" x1="1125.1" y1="186" x2="1342" y2="186"/>
		<line class="st24" x1="1067.6" y1="162.9" x2="1081.5" y2="162.9"/>
		<line class="st24" x1="1069.8" y1="175" x2="1083.7" y2="175"/>
		<line class="st17" x1="869" y1="175" x2="934.4" y2="175"/>
		<line class="st17" x1="875.3" y1="186" x2="940.7" y2="186"/>
	</g>
	<g id="coffee">
		<path class="st0" d="M281.4,240.9l-30.4-24c12.5-20.6,19.2-44.3,19.1-68.4c0-72.8-59-131.8-131.8-131.8S6.4,75.6,6.4,148.5
			s59,131.8,131.8,131.8c34.7,0,67.9-13.6,92.6-38l30.5,24c6,4.7,14.6,3.7,19.3-2.3c0,0,0,0,0,0l3-3.8
			C288.3,254.2,287.3,245.6,281.4,240.9z"/>
		<path class="st25" d="M237.7,196l43.7,34.5c6,4.7,7,13.4,2.3,19.3l-3,3.8c-4.7,6-13.4,7-19.3,2.3l-43.7-34.5
			c-6-4.7-7-13.4-2.3-19.3l3-3.8C223,192.3,231.7,191.3,237.7,196z"/>
		<circle class="st26" cx="138.2" cy="138.1" r="131.8"/>
		<circle class="st25" cx="138.2" cy="138.1" r="124.9"/>
		<circle class="st27" cx="138.2" cy="138.1" r="107.4"/>
		<circle class="st28" cx="138.2" cy="138.1" r="107.4"/>
		<path class="st27" d="M240.6,140.9c-0.1,5.9-0.3,21-8.2,30.6c-2.4,2.7-4.5,5.6-6,8.9c-2.8,6-1.6,7.8-3.9,12.2
			c-2.8,5.3-6.1,5.4-11.7,10.9c-3.9,3.9-7,8.5-9.2,13.5c-1.9,0-4.6,0.4-6.7,2.1c-2.6,2.2-3,5.6-3.3,6.7c-0.9,4-6.7,9.1-28.9,13.2
			c-2.8-0.5-5.5-1.2-8.2-2.1c-5.4-1.9-7.8-3.6-11.2-3c-1.9,0.4-3.6,1.3-5,2.7c-2.2-0.9-4.6-1.2-7-1.1c-3.9,0.2-6,1.9-8.6,2.6
			c-5.1,1.4-10-1.2-14.2-3.4c-6.7-3.6-58-35.9-68.7-96.5c-0.4-2.5-5.3-31.3,5.3-37.3c2.2-1.2,5.6-1.9,8.1-5.3
			c2.8-4,2.5-9.1,1.8-12.6c0.9,0.1,6.6,0.8,11.2-3.1c4-3.6,5.7-9.1,4.4-14.3c5.6-6.2,17.9-18.5,34.3-25.1c9.4-3.8,15.7-3.9,17.9-3.9
			c6.4,0.1,6.4,1.7,15.5,3.1c13.8,2.2,18-0.9,25.6,3.4c4.1,2.3,3.1,3.3,7.5,5.5c8.4,4.2,12.1,0.3,18.5,3.9
			c6.2,3.5,5.2,8.4,12.1,11.4c3.8,1.6,5.7,0.8,8.5,1.4c8.6,1.9,12,14.3,20.6,40.8C239.5,132.3,240.7,133.9,240.6,140.9z"/>
		<circle class="st27" cx="65.8" cy="67.6" r="2.1"/>
		<circle class="st27" cx="61" cy="76.1" r="4.3"/>
		<circle class="st27" cx="49.8" cy="90.1" r="1.1"/>
		<circle class="st27" cx="46.1" cy="95.1" r="2.7"/>
		<circle class="st27" cx="42" cy="169.1" r="1.4"/>
		<circle class="st27" cx="45.4" cy="177.1" r="3.4"/>
		<circle class="st27" cx="132.7" cy="240.5" r="2.6"/>
		<circle class="st27" cx="145.4" cy="239.2" r="2.8"/>
		<circle class="st27" cx="198.1" cy="221.1" r="2.6"/>
		<circle class="st27" cx="209" cy="212.3" r="0.9"/>
		<circle class="st27" cx="211.3" cy="209.1" r="2.3"/>
		<circle class="st29" cx="216.8" cy="204.2" r="3.2"/>
		<circle class="st29" cx="233" cy="177.9" r="2.5"/>
		<circle class="st29" cx="229.6" cy="185" r="3.5"/>
		<circle class="st29" cx="231.5" cy="99.7" r="0.7"/>
		<circle class="st29" cx="235.8" cy="108.3" r="3"/>
		<circle class="st29" cx="235.5" cy="101.2" r="2.2"/>
		<circle class="st29" cx="148.8" cy="36.6" r="2.6"/>
		<circle class="st29" cx="142.3" cy="34" r="2.1"/>
		<circle class="st30" cx="139.1" cy="37.5" r="1.4"/>
		<circle class="st30" cx="171.8" cy="42.1" r="3.5"/>
		<circle class="st30" cx="173.9" cy="47.4" r="1.1"/>
		<circle class="st31" cx="178.5" cy="45.2" r="1.9"/>
	</g>
	<g id="pen">
		<path class="st0" d="M785.8,352.8l-12.3-4.4v-0.5c0-0.6-0.4-1.2-1-1.5l-33.4-14H307.6v-6h116.7c4.3,0,7.8-2.8,7.8-6.2
			c0-3.4-3.5-6.2-7.8-6.2H292v18.4h-12.4v3.9h-31.1c-4.3,0-7.9,3.5-7.9,7.9v19.2c0,4.3,3.5,7.9,7.9,7.9l0,0h31.1v3.9h459.6
			l33.4-14.1c0.6-0.2,1-0.8,1-1.5V359l12.4-4.4c0.3-0.1,0.4-0.5,0.3-0.9C786.2,353.3,786.1,352.9,785.8,352.8z"/>
		<g id="pencil">
			<path class="st32" d="M785.8,343.6l-13-4.6c-0.3-0.1-0.5,0-0.6,0.3c0,0.1,0,0.1,0,0.2v4.6c0,0.3,0.2,0.5,0.5,0.5c0,0,0,0,0,0
				h13.6C786.2,344.1,786.1,343.7,785.8,343.6z"/>
			<path class="st33" d="M772.8,350.1l13.1-4.7c0.3-0.1,0.4-0.5,0.3-0.9h-13.6c-0.3,0-0.5,0.2-0.5,0.5v4.7c0,0.3,0.2,0.5,0.5,0.5
				C772.7,350.2,772.8,350.2,772.8,350.1z"/>
			<path class="st34" d="M773.5,344.6v-5.8c0-0.6-0.4-1.2-1-1.4l-33.4-14.1v21.3H773.5z"/>
			<path class="st35" d="M739.2,344.6v21.3l33.4-14.1c0.6-0.2,1-0.8,1-1.4v-5.8H739.2z"/>
			<path class="st33" d="M240.6,344.6v9.6c0,4.3,3.5,7.9,7.9,7.9h31.1v-17.5H240.6z"/>
			<path class="st32" d="M279.6,327.1h-31.1c-4.3,0-7.9,3.5-7.9,7.9v9.6h39L279.6,327.1z"/>
			<rect x="319.1" y="323.2" class="st36" width="420.1" height="21.3"/>
			<rect x="319.1" y="344.6" class="st37" width="420.1" height="21.3"/>
			<rect x="279.6" y="344.6" class="st35" width="39.5" height="21.3"/>
			<rect x="279.6" y="323.2" class="st34" width="39.5" height="21.3"/>
		</g>
		<path class="st34" d="M292,335.5v-30.7h132.3c4.3,0,7.8,2.8,7.8,6.2s-3.5,6.2-7.8,6.2H307.6v18.3c0,3.4-3.5,6.2-7.8,6.2
			S292,338.9,292,335.5z"/>
		<g id="pen-2">
			<g id="pencil-2">
				<path class="st32" d="M785.8,343.6l-13-4.6c-0.3-0.1-0.5,0-0.6,0.3c0,0.1,0,0.1,0,0.2v4.6c0,0.3,0.2,0.5,0.5,0.5c0,0,0,0,0,0
					h13.6C786.2,344.1,786.1,343.7,785.8,343.6z"/>
				<path class="st33" d="M772.8,350.1l13.1-4.7c0.3-0.1,0.4-0.5,0.3-0.9h-13.6c-0.3,0-0.5,0.2-0.5,0.5v4.7c0,0.3,0.2,0.5,0.5,0.5
					C772.7,350.2,772.8,350.2,772.8,350.1z"/>
				<path class="st34" d="M773.5,344.6v-5.8c0-0.6-0.4-1.2-1-1.4l-33.4-14.1v21.3H773.5z"/>
				<path class="st35" d="M739.2,344.6v21.3l33.4-14.1c0.6-0.2,1-0.8,1-1.4v-5.8H739.2z"/>
				<path class="st33" d="M240.6,344.6v9.6c0,4.3,3.5,7.9,7.9,7.9h31.1v-17.5H240.6z"/>
				<path class="st32" d="M279.6,327.1h-31.1c-4.3,0-7.9,3.5-7.9,7.9v9.6h39L279.6,327.1z"/>
				<rect x="319.1" y="323.2" class="st38" width="420.1" height="21.3"/>
				<rect x="319.1" y="344.6" class="st36" width="420.1" height="21.3"/>
				<rect x="279.6" y="344.6" class="st35" width="39.5" height="21.3"/>
				<rect x="279.6" y="323.2" class="st34" width="39.5" height="21.3"/>
			</g>
			<path class="st34" d="M292,335.5v-30.7h132.3c4.3,0,7.8,2.8,7.8,6.2s-3.5,6.2-7.8,6.2H307.6v18.3c0,3.4-3.5,6.2-7.8,6.2
				S292,338.9,292,335.5z"/>
		</g>
	</g>
</g>
</svg>
