<svg enable-background="new 0 0 1800 864" viewBox="0 0 1800 864" xmlns="http://www.w3.org/2000/svg"><path d="m51 310.9h707.1v546.4h-707.1z" fill="#1f1719" opacity=".15"/><path d="m51 304.5h707.1v546.4h-707.1z" fill="#fff"/><path d="m535.2 518.6h195" style="opacity:.6;fill:none;stroke:#3d3a31;stroke-width:2.6783;stroke-linecap:round;stroke-linejoin:round"/><path d="m535.2 538h195" style="opacity:.6;fill:none;stroke:#3d3a31;stroke-width:2.6783;stroke-linecap:round;stroke-linejoin:round"/><path d="m535.2 557.5h195" style="opacity:.6;fill:none;stroke:#3d3a31;stroke-width:2.6783;stroke-linecap:round;stroke-linejoin:round"/><path d="m82.7 357.3h195v130.4h-195z" style="opacity:.6;fill:none;stroke:#3d3a31;stroke-width:2.6783;stroke-linecap:round;stroke-linejoin:round"/><path d="m307.4 357.3h195v130.4h-195z" style="opacity:.6;fill:none;stroke:#3d3a31;stroke-width:2.6783;stroke-linecap:round;stroke-linejoin:round"/><path d="m535.2 357.3h195v130.4h-195z" style="opacity:.6;fill:none;stroke:#3d3a31;stroke-width:2.6783;stroke-linecap:round;stroke-linejoin:round"/><path d="m82.7 518.6h195" style="opacity:.6;fill:none;stroke:#3d3a31;stroke-width:2.6783;stroke-linecap:round;stroke-linejoin:round"/><path d="m82.7 538h195" style="opacity:.6;fill:none;stroke:#3d3a31;stroke-width:2.6783;stroke-linecap:round;stroke-linejoin:round"/><path d="m82.7 557.5h195" style="opacity:.6;fill:none;stroke:#3d3a31;stroke-width:2.6783;stroke-linecap:round;stroke-linejoin:round"/><path d="m307.5 518.6h195" style="opacity:.6;fill:none;stroke:#3d3a31;stroke-width:2.6783;stroke-linecap:round;stroke-linejoin:round"/><path d="m307.5 538h195" style="opacity:.6;fill:none;stroke:#3d3a31;stroke-width:2.6783;stroke-linecap:round;stroke-linejoin:round"/><path d="m307.5 557.5h195" style="opacity:.6;fill:none;stroke:#3d3a31;stroke-width:2.6783;stroke-linecap:round;stroke-linejoin:round"/><path d="m535.2 752.1h195" style="opacity:.6;fill:none;stroke:#3d3a31;stroke-width:2.6783;stroke-linecap:round;stroke-linejoin:round"/><path d="m535.2 771.5h195" style="opacity:.6;fill:none;stroke:#3d3a31;stroke-width:2.6783;stroke-linecap:round;stroke-linejoin:round"/><path d="m535.2 791h195" style="opacity:.6;fill:none;stroke:#3d3a31;stroke-width:2.6783;stroke-linecap:round;stroke-linejoin:round"/><path d="m82.7 590.8h195v130.4h-195z" style="opacity:.6;fill:none;stroke:#3d3a31;stroke-width:2.6783;stroke-linecap:round;stroke-linejoin:round"/><path d="m307.4 590.8h195v130.4h-195z" style="opacity:.6;fill:none;stroke:#3d3a31;stroke-width:2.6783;stroke-linecap:round;stroke-linejoin:round"/><path d="m535.2 590.8h195v130.4h-195z" style="opacity:.6;fill:none;stroke:#3d3a31;stroke-width:2.6783;stroke-linecap:round;stroke-linejoin:round"/><path d="m82.7 752.1h195" style="opacity:.6;fill:none;stroke:#3d3a31;stroke-width:2.6783;stroke-linecap:round;stroke-linejoin:round"/><path d="m82.7 771.5h195" style="opacity:.6;fill:none;stroke:#3d3a31;stroke-width:2.6783;stroke-linecap:round;stroke-linejoin:round"/><path d="m82.7 791h195" style="opacity:.6;fill:none;stroke:#3d3a31;stroke-width:2.6783;stroke-linecap:round;stroke-linejoin:round"/><path d="m307.5 752.1h195" style="opacity:.6;fill:none;stroke:#3d3a31;stroke-width:2.6783;stroke-linecap:round;stroke-linejoin:round"/><path d="m307.5 771.5h195" style="opacity:.6;fill:none;stroke:#3d3a31;stroke-width:2.6783;stroke-linecap:round;stroke-linejoin:round"/><path d="m307.5 791h195" style="opacity:.6;fill:none;stroke:#3d3a31;stroke-width:2.6783;stroke-linecap:round;stroke-linejoin:round"/><path d="m167.7 392.5c-4 .4-11.4 1.7-15.6 7.4-7.8 10.4-.3 29.1 10.7 37.7 17.1 13.5 48.1 6.9 53.3-7.4 4.5-12.1-8.3-33.7-35.3-44.3" style="opacity:.3;fill:none;stroke:#3d3a31;stroke-width:6.6778;stroke-linecap:round;stroke-linejoin:round"/><path d="m386.9 426.8c-10.2.6-22.4 2.1-23.3 6.5-1 5.5 15.2 13.8 29.1 17.4 26.8 6.9 57.1-.7 57.4-8 .2-3.8-7.8-9.2-40.7-16.7" style="opacity:.3;fill:none;stroke:#3d3a31;stroke-width:6.6778;stroke-linecap:round;stroke-linejoin:round"/><path d="m608 389.8c-1.5 1.2-13.4 11.5-12.4 26.2 1.2 16.1 17 26.4 30.5 28.4 12.3 1.8 26.9-2.7 34.2-13.8 12.6-19.2-1.5-50.7-21.1-55.3-9.2-2.1-17.8 2.1-22.5 5.1" style="opacity:.3;fill:none;stroke:#3d3a31;stroke-width:6.6778;stroke-linecap:round;stroke-linejoin:round"/><path d="m155.8 372.3v-8" style="opacity:.3;fill:none;stroke:#3d3a31;stroke-width:3.571;stroke-linecap:round;stroke-linejoin:round"/><path d="m172.5 376v-11.6" style="opacity:.3;fill:none;stroke:#3d3a31;stroke-width:3.571;stroke-linecap:round;stroke-linejoin:round"/><path d="m191.4 379.6v-12.4" style="opacity:.3;fill:none;stroke:#3d3a31;stroke-width:3.571;stroke-linecap:round;stroke-linejoin:round"/><path d="m610.1 451.6v13.1" style="opacity:.3;fill:none;stroke:#3d3a31;stroke-width:3.571;stroke-linecap:round;stroke-linejoin:round"/><path d="m632.7 459.6v11.6" style="opacity:.3;fill:none;stroke:#3d3a31;stroke-width:3.571;stroke-linecap:round;stroke-linejoin:round"/><path d="m649.4 453.7v11.6" style="opacity:.3;fill:none;stroke:#3d3a31;stroke-width:3.571;stroke-linecap:round;stroke-linejoin:round"/><path d="m142.3 616.8c-2 2.5-3.5 5.3-4.2 8.4-1.7 7 .4 15.1 2.8 15.4 1.1.1 3.7-1.3 8.4-16.8" style="opacity:.3;fill:none;stroke:#3d3a31;stroke-width:6.6778;stroke-linecap:round;stroke-linejoin:round"/><path d="m197 622.4c-.8 3.4-1.3 7-1.4 10.5 0 1.1-.4 12.8 2.1 13.3 2 .4 5.4-6.6 7-11.9 3.4-11 2.9-24.3-.7-25.2-1.2-.3-3 .6-6.3 5.6" style="opacity:.3;fill:none;stroke:#3d3a31;stroke-width:6.6778;stroke-linecap:round;stroke-linejoin:round"/><path d="m153.6 666.5c1.6-6.1 5.8-10.4 9.8-10.5 5.2-.1 11.7 6.8 10.5 16.8" style="opacity:.3;fill:none;stroke:#3d3a31;stroke-width:6.6778;stroke-linecap:round;stroke-linejoin:round"/><path d="m368 616c-3.2 5.1-5.4 10.8-6.3 16.8-.7 4.7-1.3 13.9 1.4 14.7s7.4-6.2 9.8-11.9c4.1-9.6 3.2-19.4 1.4-26.6" style="opacity:.3;fill:none;stroke:#3d3a31;stroke-width:6.6778;stroke-linecap:round;stroke-linejoin:round"/><path d="m430.3 618.9c-4 4.6-6.7 10.1-7.7 16.1-1.1 6.8-.4 16.8 2.8 17.5 3.9.9 11.8-11.7 13.3-24.5.6-5.4.1-10.9-1.4-16.1" style="opacity:.3;fill:none;stroke:#3d3a31;stroke-width:6.6778;stroke-linecap:round;stroke-linejoin:round"/><path d="m381.3 657.4 7.7 2.1h10.5" style="opacity:.3;fill:none;stroke:#3d3a31;stroke-width:6.6778;stroke-linecap:round;stroke-linejoin:round"/><path d="m606.9 614.6c-5 .7-9.6 2.9-13.3 6.3-5.7 5.4-10 14.8-7 18.2s12.4.5 18.2-4.2c6.2-5 7.9-12 8.4-14.7" style="opacity:.3;fill:none;stroke:#3d3a31;stroke-width:6.6778;stroke-linecap:round;stroke-linejoin:round"/><path d="m652.5 625.2c-5.2.8-10 2.9-14 6.3-5.6 4.8-11.1 13.7-8.4 17.5s13 2 19.6-2.1c10.2-6.3 12.2-18.3 12.6-21" style="opacity:.3;fill:none;stroke:#3d3a31;stroke-width:6.6778;stroke-linecap:round;stroke-linejoin:round"/><path d="m599.9 652.5c-10.5 8.8-12.1 12.8-11.2 14.7 2.3 4.9 24.1 3.1 26.1-5 1.4-5.7-7.5-12.5-8.5-13.2" style="opacity:.3;fill:none;stroke:#3d3a31;stroke-width:6.6778;stroke-linecap:round;stroke-linejoin:round"/><path d="m758.9 21.4 84.2 191.7c2.8 6.5 9.2 10.7 16.3 10.7h840.7c7.1 0 13.5-4.2 16.4-10.8l81.3-188.2c3.9-9-.2-19.5-9.3-23.4-2.2-1-4.7-1.5-7.1-1.5h-1008.5c-8.5 0-15.3 6.9-15.3 15.3.1 2.2.5 4.3 1.3 6.2z" fill="#d8d8d7"/><path d="m849.7 250.2h861.7v518.3c0 6.9-5.6 12.5-12.5 12.5h-836.8c-6.9 0-12.5-5.6-12.5-12.5z" fill="#1f1719" opacity=".15"/><path d="m875.4 230.1h810.3c14.2 0 25.7 11.5 25.7 25.7v479.3c0 14.2-11.5 25.7-25.7 25.7h-810.3c-14.2 0-25.7-11.5-25.7-25.7v-479.3c0-14.2 11.5-25.7 25.7-25.7z" fill="#ccc"/><path d="m951.8 270.8h659.7c6.8 0 12.3 5.5 12.3 12.3v257.9c0 6.8-5.5 12.3-12.3 12.3h-659.7c-6.8 0-12.3-5.5-12.3-12.3v-257.9c0-6.8 5.5-12.3 12.3-12.3z" fill="#d6d6d6"/><g fill="#b4aea8"><path d="m950.9 287.6h36.7c.8 0 1.4.6 1.4 1.4v21.6c0 .8-.6 1.4-1.4 1.4h-36.7c-.8 0-1.4-.6-1.4-1.4v-21.6c0-.8.6-1.4 1.4-1.4z"/><path d="m950.9 320h34.3c.8 0 1.4.6 1.4 1.4v34.3c0 .8-.6 1.4-1.4 1.4h-34.3c-.8 0-1.4-.6-1.4-1.4v-34.3c0-.8.6-1.4 1.4-1.4z"/><path d="m950.9 365.1h60.6c.8 0 1.4.6 1.4 1.4v34.3c0 .8-.6 1.4-1.4 1.4h-60.6c-.8 0-1.4-.6-1.4-1.4v-34.3c0-.8.6-1.4 1.4-1.4z"/><path d="m950.9 410.2h70.3c.8 0 1.4.6 1.4 1.4v34.4c0 .8-.6 1.4-1.4 1.4h-70.3c-.8 0-1.4-.6-1.4-1.4v-34.3c0-.9.6-1.5 1.4-1.5z"/><path d="m998.9 320h34.3c.8 0 1.4.6 1.4 1.4v34.3c0 .8-.6 1.4-1.4 1.4h-34.3c-.8 0-1.4-.6-1.4-1.4v-34.3c0-.8.6-1.4 1.4-1.4z"/><path d="m1021.8 365.1h34.3c.8 0 1.4.6 1.4 1.4v34.3c0 .8-.6 1.4-1.4 1.4h-34.3c-.8 0-1.4-.6-1.4-1.4v-34.3c0-.8.6-1.4 1.4-1.4z"/><path d="m1066.8 365.1h34.3c.8 0 1.4.6 1.4 1.4v34.3c0 .8-.6 1.4-1.4 1.4h-34.3c-.8 0-1.4-.6-1.4-1.4v-34.3c0-.8.7-1.4 1.4-1.4z"/><path d="m1112.4 365.1h34.3c.8 0 1.4.6 1.4 1.4v34.3c0 .8-.6 1.4-1.4 1.4h-34.3c-.8 0-1.4-.6-1.4-1.4v-34.3c0-.8.6-1.4 1.4-1.4z"/><path d="m1158.8 365.1h34.3c.8 0 1.4.6 1.4 1.4v34.3c0 .8-.6 1.4-1.4 1.4h-34.3c-.8 0-1.4-.6-1.4-1.4v-34.3c0-.8.6-1.4 1.4-1.4z"/><path d="m1204.7 365.1h34.3c.8 0 1.4.6 1.4 1.4v34.3c0 .8-.6 1.4-1.4 1.4h-34.3c-.8 0-1.4-.6-1.4-1.4v-34.3c0-.8.6-1.4 1.4-1.4z"/><path d="m1250.5 365.1h34.3c.8 0 1.4.6 1.4 1.4v34.3c0 .8-.6 1.4-1.4 1.4h-34.3c-.8 0-1.4-.6-1.4-1.4v-34.3c-.1-.8.6-1.4 1.4-1.4z"/><path d="m1299.1 365.1h34.3c.8 0 1.4.6 1.4 1.4v34.3c0 .8-.6 1.4-1.4 1.4h-34.3c-.8 0-1.4-.6-1.4-1.4v-34.3c-.1-.8.6-1.4 1.4-1.4z"/><path d="m1033.5 410.2h34.3c.8 0 1.4.6 1.4 1.4v34.4c0 .8-.6 1.4-1.4 1.4h-34.3c-.8 0-1.4-.6-1.4-1.4v-34.3c0-.9.6-1.5 1.4-1.5z"/><path d="m1078.6 410.2h34.3c.8 0 1.4.6 1.4 1.4v34.4c0 .8-.6 1.4-1.4 1.4h-34.3c-.8 0-1.4-.6-1.4-1.4v-34.3c0-.9.6-1.5 1.4-1.5z"/><path d="m1124.2 410.2h34.3c.8 0 1.4.6 1.4 1.4v34.4c0 .8-.6 1.4-1.4 1.4h-34.3c-.8 0-1.4-.6-1.4-1.4v-34.3c-.1-.9.6-1.5 1.4-1.5z"/><path d="m1170.5 410.2h34.3c.8 0 1.4.6 1.4 1.4v34.4c0 .8-.6 1.4-1.4 1.4h-34.3c-.8 0-1.4-.6-1.4-1.4v-34.3c0-.9.7-1.5 1.4-1.5z"/><path d="m1216.4 410.2h34.3c.8 0 1.4.6 1.4 1.4v34.4c0 .8-.6 1.4-1.4 1.4h-34.3c-.8 0-1.4-.6-1.4-1.4v-34.3c0-.9.6-1.5 1.4-1.5z"/><path d="m1262.2 410.2h34.3c.8 0 1.4.6 1.4 1.4v34.4c0 .8-.6 1.4-1.4 1.4h-34.3c-.8 0-1.4-.6-1.4-1.4v-34.3c0-.9.6-1.5 1.4-1.5z"/><path d="m1310.8 410.2h34.3c.8 0 1.4.6 1.4 1.4v34.4c0 .8-.6 1.4-1.4 1.4h-34.3c-.8 0-1.4-.6-1.4-1.4v-34.3c0-.9.6-1.5 1.4-1.5z"/><path d="m1354.6 410.2h34.3c.8 0 1.4.6 1.4 1.4v34.4c0 .8-.6 1.4-1.4 1.4h-34.3c-.8 0-1.4-.6-1.4-1.4v-34.3c0-.9.6-1.5 1.4-1.5z"/><path d="m1401 410.2h34.3c.8 0 1.4.6 1.4 1.4v34.4c0 .8-.6 1.4-1.4 1.4h-34.3c-.8 0-1.4-.6-1.4-1.4v-34.3c0-.9.6-1.5 1.4-1.5z"/><path d="m1446.9 410.2h34.3c.8 0 1.4.6 1.4 1.4v34.4c0 .8-.6 1.4-1.4 1.4h-34.3c-.8 0-1.4-.6-1.4-1.4v-34.3c0-.9.6-1.5 1.4-1.5z"/><path d="m1492.7 410.2h34.3c.8 0 1.4.6 1.4 1.4v34.4c0 .8-.6 1.4-1.4 1.4h-34.3c-.8 0-1.4-.6-1.4-1.4v-34.3c-.1-.9.6-1.5 1.4-1.5z"/><path d="m1541.3 410.2h34.3c.8 0 1.4.6 1.4 1.4v34.4c0 .8-.6 1.4-1.4 1.4h-34.3c-.8 0-1.4-.6-1.4-1.4v-34.3c-.1-.9.6-1.5 1.4-1.5z"/><path d="m1285.4 455.3h34.3c.8 0 1.4.6 1.4 1.4v34.3c0 .8-.6 1.4-1.4 1.4h-34.3c-.8 0-1.4-.6-1.4-1.4v-34.3c-.1-.7.6-1.4 1.4-1.4z"/><path d="m1331.7 455.3h34.3c.8 0 1.4.6 1.4 1.4v34.3c0 .8-.6 1.4-1.4 1.4h-34.3c-.8 0-1.4-.6-1.4-1.4v-34.3c0-.7.7-1.4 1.4-1.4z"/><path d="m1377.6 455.3h34.3c.8 0 1.4.6 1.4 1.4v34.3c0 .8-.6 1.4-1.4 1.4h-34.3c-.8 0-1.4-.6-1.4-1.4v-34.3c0-.7.6-1.4 1.4-1.4z"/><path d="m1423.4 455.3h34.3c.8 0 1.4.6 1.4 1.4v34.3c0 .8-.6 1.4-1.4 1.4h-34.3c-.8 0-1.4-.6-1.4-1.4v-34.3c0-.7.6-1.4 1.4-1.4z"/><path d="m1472 455.3h34.3c.8 0 1.4.6 1.4 1.4v34.3c0 .8-.6 1.4-1.4 1.4h-34.3c-.8 0-1.4-.6-1.4-1.4v-34.3c0-.7.6-1.4 1.4-1.4z"/><path d="m1437.5 500.4h34.3c.8 0 1.4.6 1.4 1.4v39.8c0 .8-.6 1.4-1.4 1.4h-34.3c-.8 0-1.4-.6-1.4-1.4v-39.8c0-.7.6-1.4 1.4-1.4z"/><path d="m1529.8 503.5h33c.8 0 1.4.6 1.4 1.4v13.2c0 .8-.6 1.4-1.4 1.4h-33c-.8 0-1.4-.6-1.4-1.4v-13.2c0-.7.6-1.4 1.4-1.4z"/><path d="m1379.7 500.4h45.3c.8 0 1.4.6 1.4 1.4v39.8c0 .8-.6 1.4-1.4 1.4h-45.3c-.8 0-1.4-.6-1.4-1.4v-39.8c0-.7.6-1.4 1.4-1.4z"/><path d="m1146.9 500.4h222.3c.8 0 1.4.6 1.4 1.4v39.8c0 .8-.6 1.4-1.4 1.4h-222.3c-.8 0-1.4-.6-1.4-1.4v-39.8c0-.7.6-1.4 1.4-1.4z"/><path d="m1519.9 455.3h90.9c.8 0 1.4.6 1.4 1.4v34.3c0 .8-.6 1.4-1.4 1.4h-90.9c-.8 0-1.4-.6-1.4-1.4v-34.3c0-.7.6-1.4 1.4-1.4z"/><path d="m1054.6 455.3h34.3c.8 0 1.4.6 1.4 1.4v34.3c0 .8-.6 1.4-1.4 1.4h-34.3c-.8 0-1.4-.6-1.4-1.4v-34.3c0-.7.7-1.4 1.4-1.4z"/><path d="m1009.9 455.3h34.3c.8 0 1.4.6 1.4 1.4v34.3c0 .8-.6 1.4-1.4 1.4h-34.3c-.8 0-1.4-.6-1.4-1.4v-34.3c0-.7.6-1.4 1.4-1.4z"/><path d="m950.9 455.3h47.4c.8 0 1.4.6 1.4 1.4v34.3c0 .8-.6 1.4-1.4 1.4h-47.4c-.8 0-1.4-.6-1.4-1.4v-34.3c0-.7.6-1.4 1.4-1.4z"/><path d="m950.9 500.4h33.8c.8 0 1.4.6 1.4 1.4v39.8c0 .8-.6 1.4-1.4 1.4h-33.8c-.8 0-1.4-.6-1.4-1.4v-39.8c0-.7.6-1.4 1.4-1.4z"/><path d="m996 500.4h33.8c.8 0 1.4.6 1.4 1.4v39.8c0 .8-.6 1.4-1.4 1.4h-33.8c-.8 0-1.4-.6-1.4-1.4v-39.8c0-.7.6-1.4 1.4-1.4z"/><path d="m1044.6 500.4h33.8c.8 0 1.4.6 1.4 1.4v39.8c0 .8-.6 1.4-1.4 1.4h-33.8c-.8 0-1.4-.6-1.4-1.4v-39.8c0-.7.6-1.4 1.4-1.4z"/><path d="m1091.8 500.4h43.6c.8 0 1.4.6 1.4 1.4v39.8c0 .8-.6 1.4-1.4 1.4h-43.6c-.8 0-1.4-.6-1.4-1.4v-39.8c0-.7.6-1.4 1.4-1.4z"/><path d="m1101 455.3h34.3c.8 0 1.4.6 1.4 1.4v34.3c0 .8-.6 1.4-1.4 1.4h-34.3c-.8 0-1.4-.6-1.4-1.4v-34.3c0-.7.7-1.4 1.4-1.4z"/><path d="m1146.9 455.3h34.3c.8 0 1.4.6 1.4 1.4v34.3c0 .8-.6 1.4-1.4 1.4h-34.3c-.8 0-1.4-.6-1.4-1.4v-34.3c0-.7.6-1.4 1.4-1.4z"/><path d="m1192.7 455.3h34.3c.8 0 1.4.6 1.4 1.4v34.3c0 .8-.6 1.4-1.4 1.4h-34.3c-.8 0-1.4-.6-1.4-1.4v-34.3c0-.7.6-1.4 1.4-1.4z"/><path d="m1241.3 455.3h34.3c.8 0 1.4.6 1.4 1.4v34.3c0 .8-.6 1.4-1.4 1.4h-34.3c-.8 0-1.4-.6-1.4-1.4v-34.3c0-.7.6-1.4 1.4-1.4z"/><path d="m1342.5 365.1h34.3c.8 0 1.4.6 1.4 1.4v34.3c0 .8-.6 1.4-1.4 1.4h-34.3c-.8 0-1.4-.6-1.4-1.4v-34.3c0-.8.6-1.4 1.4-1.4z"/><path d="m1390.7 365.1h34.3c.8 0 1.4.6 1.4 1.4v34.3c0 .8-.6 1.4-1.4 1.4h-34.3c-.8 0-1.4-.6-1.4-1.4v-34.3c0-.8.6-1.4 1.4-1.4z"/><path d="m1437.5 365.1h34.3c.8 0 1.4.6 1.4 1.4v34.3c0 .8-.6 1.4-1.4 1.4h-34.3c-.8 0-1.4-.6-1.4-1.4v-34.3c0-.8.6-1.4 1.4-1.4z"/><path d="m1482.7 365.1h34.3c.8 0 1.4.6 1.4 1.4v34.3c0 .8-.6 1.4-1.4 1.4h-34.3c-.8 0-1.4-.6-1.4-1.4v-34.3c0-.8.7-1.4 1.4-1.4z"/><path d="m1528.5 365.1h34.3c.8 0 1.4.6 1.4 1.4v34.3c0 .8-.6 1.4-1.4 1.4h-34.3c-.8 0-1.4-.6-1.4-1.4v-34.3c0-.8.6-1.4 1.4-1.4z"/><path d="m1610.1 365.1h-34.2c-1.2 0-2.1.9-2.1 2.1v33c0 1.2.9 2.1 2.1 2.1h9.6v39.9c0 1.2.9 2.1 2.1 2.1h22.5c1.2 0 2.1-.9 2.1-2.1v-75c0-1.2-.9-2.1-2.1-2.1z"/><path d="m1047.1 320h34.3c.8 0 1.4.6 1.4 1.4v34.3c0 .8-.6 1.4-1.4 1.4h-34.3c-.8 0-1.4-.6-1.4-1.4v-34.3c-.1-.8.6-1.4 1.4-1.4z"/><path d="m1093.8 320h34.3c.8 0 1.4.6 1.4 1.4v34.3c0 .8-.6 1.4-1.4 1.4h-34.3c-.8 0-1.4-.6-1.4-1.4v-34.3c0-.8.7-1.4 1.4-1.4z"/><path d="m1183.8 320h34.3c.8 0 1.4.6 1.4 1.4v34.3c0 .8-.6 1.4-1.4 1.4h-34.3c-.8 0-1.4-.6-1.4-1.4v-34.3c0-.8.6-1.4 1.4-1.4z"/><path d="m1230.5 320h34.3c.8 0 1.4.6 1.4 1.4v34.3c0 .8-.6 1.4-1.4 1.4h-34.3c-.8 0-1.4-.6-1.4-1.4v-34.3c0-.8.6-1.4 1.4-1.4z"/><path d="m1275.8 320h34.3c.8 0 1.4.6 1.4 1.4v34.3c0 .8-.6 1.4-1.4 1.4h-34.3c-.8 0-1.4-.6-1.4-1.4v-34.3c0-.8.6-1.4 1.4-1.4z"/><path d="m1321 320h34.3c.8 0 1.4.6 1.4 1.4v34.3c0 .8-.6 1.4-1.4 1.4h-34.3c-.8 0-1.4-.6-1.4-1.4v-34.3c0-.8.6-1.4 1.4-1.4z"/><path d="m1369.1 320h34.3c.8 0 1.4.6 1.4 1.4v34.3c0 .8-.6 1.4-1.4 1.4h-34.3c-.8 0-1.4-.6-1.4-1.4v-34.3c-.1-.8.6-1.4 1.4-1.4z"/><path d="m1414.3 320h34.3c.8 0 1.4.6 1.4 1.4v34.3c0 .8-.6 1.4-1.4 1.4h-34.3c-.8 0-1.4-.6-1.4-1.4v-34.3c0-.8.6-1.4 1.4-1.4z"/><path d="m1460.7 320h34.3c.8 0 1.4.6 1.4 1.4v34.3c0 .8-.6 1.4-1.4 1.4h-34.3c-.8 0-1.4-.6-1.4-1.4v-34.3c0-.8.6-1.4 1.4-1.4z"/><path d="m1506.5 320h34.3c.8 0 1.4.6 1.4 1.4v34.3c0 .8-.6 1.4-1.4 1.4h-34.3c-.8 0-1.4-.6-1.4-1.4v-34.3c0-.8.6-1.4 1.4-1.4z"/><path d="m1552.3 320h58.5c.8 0 1.4.6 1.4 1.4v34.3c0 .8-.6 1.4-1.4 1.4h-58.5c-.8 0-1.4-.6-1.4-1.4v-34.3c0-.8.6-1.4 1.4-1.4z"/><path d="m1136.8 320h34.3c.8 0 1.4.6 1.4 1.4v34.3c0 .8-.6 1.4-1.4 1.4h-34.3c-.8 0-1.4-.6-1.4-1.4v-34.3c0-.8.6-1.4 1.4-1.4z"/><path d="m997.7 287.6h36.7c.8 0 1.4.6 1.4 1.4v21.6c0 .8-.6 1.4-1.4 1.4h-36.7c-.8 0-1.4-.6-1.4-1.4v-21.6c0-.8.6-1.4 1.4-1.4z"/><path d="m1045.9 287.6h36.7c.8 0 1.4.6 1.4 1.4v21.6c0 .8-.6 1.4-1.4 1.4h-36.7c-.8 0-1.4-.6-1.4-1.4v-21.6c-.1-.8.6-1.4 1.4-1.4z"/><path d="m1092.6 287.6h36.7c.8 0 1.4.6 1.4 1.4v21.6c0 .8-.6 1.4-1.4 1.4h-36.7c-.8 0-1.4-.6-1.4-1.4v-21.6c0-.8.7-1.4 1.4-1.4z"/><path d="m1141.8 287.6h36.7c.8 0 1.4.6 1.4 1.4v21.6c0 .8-.6 1.4-1.4 1.4h-36.7c-.8 0-1.4-.6-1.4-1.4v-21.6c0-.8.6-1.4 1.4-1.4z"/><path d="m1191 287.6h36.7c.8 0 1.4.6 1.4 1.4v21.6c0 .8-.6 1.4-1.4 1.4h-36.7c-.8 0-1.4-.6-1.4-1.4v-21.6c-.1-.8.6-1.4 1.4-1.4z"/><path d="m1239.1 287.6h36.7c.8 0 1.4.6 1.4 1.4v21.6c0 .8-.6 1.4-1.4 1.4h-36.7c-.8 0-1.4-.6-1.4-1.4v-21.6c0-.8.7-1.4 1.4-1.4z"/><path d="m1285.9 287.6h36.7c.8 0 1.4.6 1.4 1.4v21.6c0 .8-.6 1.4-1.4 1.4h-36.7c-.8 0-1.4-.6-1.4-1.4v-21.6c0-.8.6-1.4 1.4-1.4z"/><path d="m1332.9 287.6h36.7c.8 0 1.4.6 1.4 1.4v21.6c0 .8-.6 1.4-1.4 1.4h-36.7c-.8 0-1.4-.6-1.4-1.4v-21.6c0-.8.6-1.4 1.4-1.4z"/><path d="m1379.7 287.6h36.7c.8 0 1.4.6 1.4 1.4v21.6c0 .8-.6 1.4-1.4 1.4h-36.7c-.8 0-1.4-.6-1.4-1.4v-21.6c0-.8.6-1.4 1.4-1.4z"/><path d="m1427.9 287.6h36.7c.8 0 1.4.6 1.4 1.4v21.6c0 .8-.6 1.4-1.4 1.4h-36.7c-.8 0-1.4-.6-1.4-1.4v-21.6c0-.8.6-1.4 1.4-1.4z"/><path d="m1474.7 287.6h36.7c.8 0 1.4.6 1.4 1.4v21.6c0 .8-.6 1.4-1.4 1.4h-36.7c-.8 0-1.4-.6-1.4-1.4v-21.6c-.1-.8.6-1.4 1.4-1.4z"/><path d="m1527.3 287.6h36.7c.8 0 1.4.6 1.4 1.4v21.6c0 .8-.6 1.4-1.4 1.4h-36.7c-.8 0-1.4-.6-1.4-1.4v-21.6c0-.8.6-1.4 1.4-1.4z"/><path d="m1574.1 287.6h36.7c.8 0 1.4.6 1.4 1.4v21.6c0 .8-.6 1.4-1.4 1.4h-36.7c-.8 0-1.4-.6-1.4-1.4v-21.6c0-.8.6-1.4 1.4-1.4z"/><path d="m1529.8 500.4h33c.8 0 1.4.6 1.4 1.4v13.2h-35.9v-13.1c.1-.8.7-1.5 1.5-1.5z"/><path d="m1529.8 519.5h33c.8 0 1.4.6 1.4 1.4v20.7c0 .8-.6 1.4-1.4 1.4h-33c-.8 0-1.4-.6-1.4-1.4v-20.7c0-.8.6-1.4 1.4-1.4z"/><path d="m1576.5 523.9h33c.8 0 1.4.6 1.4 1.4v16.3c0 .8-.6 1.4-1.4 1.4h-33c-.8 0-1.4-.6-1.4-1.4v-16.3c0-.8.7-1.4 1.4-1.4z"/><path d="m1484.3 523.9h33c.8 0 1.4.6 1.4 1.4v16.3c0 .8-.6 1.4-1.4 1.4h-33c-.8 0-1.4-.6-1.4-1.4v-16.3c0-.8.6-1.4 1.4-1.4z"/></g><path d="m950.9 283.4h36.7c.8 0 1.4.6 1.4 1.4v21.6c0 .8-.6 1.4-1.4 1.4h-36.7c-.8 0-1.4-.6-1.4-1.4v-21.6c0-.8.6-1.4 1.4-1.4z" fill="#3d3d3d"/><path d="m950.9 315.8h34.3c.8 0 1.4.6 1.4 1.4v34.3c0 .8-.6 1.4-1.4 1.4h-34.3c-.8 0-1.4-.6-1.4-1.4v-34.3c0-.8.6-1.4 1.4-1.4z" fill="#3d3d3d"/><path d="m950.9 360.9h60.6c.8 0 1.4.6 1.4 1.4v34.3c0 .8-.6 1.4-1.4 1.4h-60.6c-.8 0-1.4-.6-1.4-1.4v-34.3c0-.8.6-1.4 1.4-1.4z" fill="#3d3d3d"/><path d="m950.9 406h70.3c.8 0 1.4.6 1.4 1.4v34.3c0 .8-.6 1.4-1.4 1.4h-70.3c-.8 0-1.4-.6-1.4-1.4v-34.3c0-.7.6-1.4 1.4-1.4z" fill="#3d3d3d"/><path d="m998.9 315.8h34.3c.8 0 1.4.6 1.4 1.4v34.3c0 .8-.6 1.4-1.4 1.4h-34.3c-.8 0-1.4-.6-1.4-1.4v-34.3c0-.8.6-1.4 1.4-1.4z" fill="#3d3d3d"/><path d="m1021.8 360.9h34.3c.8 0 1.4.6 1.4 1.4v34.3c0 .8-.6 1.4-1.4 1.4h-34.3c-.8 0-1.4-.6-1.4-1.4v-34.3c0-.8.6-1.4 1.4-1.4z" fill="#3d3d3d"/><path d="m1066.8 360.9h34.3c.8 0 1.4.6 1.4 1.4v34.3c0 .8-.6 1.4-1.4 1.4h-34.3c-.8 0-1.4-.6-1.4-1.4v-34.3c0-.8.7-1.4 1.4-1.4z" fill="#3d3d3d"/><path d="m1112.4 360.9h34.3c.8 0 1.4.6 1.4 1.4v34.3c0 .8-.6 1.4-1.4 1.4h-34.3c-.8 0-1.4-.6-1.4-1.4v-34.3c0-.8.6-1.4 1.4-1.4z" fill="#3d3d3d"/><path d="m1158.8 360.9h34.3c.8 0 1.4.6 1.4 1.4v34.3c0 .8-.6 1.4-1.4 1.4h-34.3c-.8 0-1.4-.6-1.4-1.4v-34.3c0-.8.6-1.4 1.4-1.4z" fill="#3d3d3d"/><path d="m1204.7 360.9h34.3c.8 0 1.4.6 1.4 1.4v34.3c0 .8-.6 1.4-1.4 1.4h-34.3c-.8 0-1.4-.6-1.4-1.4v-34.3c0-.8.6-1.4 1.4-1.4z" fill="#3d3d3d"/><path d="m1250.5 360.9h34.3c.8 0 1.4.6 1.4 1.4v34.3c0 .8-.6 1.4-1.4 1.4h-34.3c-.8 0-1.4-.6-1.4-1.4v-34.3c-.1-.8.6-1.4 1.4-1.4z" fill="#3d3d3d"/><path d="m1299.1 360.9h34.3c.8 0 1.4.6 1.4 1.4v34.3c0 .8-.6 1.4-1.4 1.4h-34.3c-.8 0-1.4-.6-1.4-1.4v-34.3c-.1-.8.6-1.4 1.4-1.4z" fill="#3d3d3d"/><path d="m1033.5 406h34.3c.8 0 1.4.6 1.4 1.4v34.3c0 .8-.6 1.4-1.4 1.4h-34.3c-.8 0-1.4-.6-1.4-1.4v-34.3c0-.7.6-1.4 1.4-1.4z" fill="#3d3d3d"/><path d="m1078.6 406h34.3c.8 0 1.4.6 1.4 1.4v34.3c0 .8-.6 1.4-1.4 1.4h-34.3c-.8 0-1.4-.6-1.4-1.4v-34.3c0-.7.6-1.4 1.4-1.4z" fill="#3d3d3d"/><path d="m1124.2 406h34.3c.8 0 1.4.6 1.4 1.4v34.3c0 .8-.6 1.4-1.4 1.4h-34.3c-.8 0-1.4-.6-1.4-1.4v-34.3c-.1-.7.6-1.4 1.4-1.4z" fill="#3d3d3d"/><path d="m1170.5 406h34.3c.8 0 1.4.6 1.4 1.4v34.3c0 .8-.6 1.4-1.4 1.4h-34.3c-.8 0-1.4-.6-1.4-1.4v-34.3c0-.7.7-1.4 1.4-1.4z" fill="#3d3d3d"/><path d="m1216.4 406h34.3c.8 0 1.4.6 1.4 1.4v34.3c0 .8-.6 1.4-1.4 1.4h-34.3c-.8 0-1.4-.6-1.4-1.4v-34.3c0-.7.6-1.4 1.4-1.4z" fill="#3d3d3d"/><path d="m1262.2 406h34.3c.8 0 1.4.6 1.4 1.4v34.3c0 .8-.6 1.4-1.4 1.4h-34.3c-.8 0-1.4-.6-1.4-1.4v-34.3c0-.7.6-1.4 1.4-1.4z" fill="#3d3d3d"/><path d="m1310.8 406h34.3c.8 0 1.4.6 1.4 1.4v34.3c0 .8-.6 1.4-1.4 1.4h-34.3c-.8 0-1.4-.6-1.4-1.4v-34.3c0-.7.6-1.4 1.4-1.4z" fill="#3d3d3d"/><path d="m1354.6 406h34.3c.8 0 1.4.6 1.4 1.4v34.3c0 .8-.6 1.4-1.4 1.4h-34.3c-.8 0-1.4-.6-1.4-1.4v-34.3c0-.7.6-1.4 1.4-1.4z" fill="#3d3d3d"/><path d="m1401 406h34.3c.8 0 1.4.6 1.4 1.4v34.3c0 .8-.6 1.4-1.4 1.4h-34.3c-.8 0-1.4-.6-1.4-1.4v-34.3c0-.7.6-1.4 1.4-1.4z" fill="#3d3d3d"/><path d="m1446.9 406h34.3c.8 0 1.4.6 1.4 1.4v34.3c0 .8-.6 1.4-1.4 1.4h-34.3c-.8 0-1.4-.6-1.4-1.4v-34.3c0-.7.6-1.4 1.4-1.4z" fill="#3d3d3d"/><path d="m1492.7 406h34.3c.8 0 1.4.6 1.4 1.4v34.3c0 .8-.6 1.4-1.4 1.4h-34.3c-.8 0-1.4-.6-1.4-1.4v-34.3c-.1-.7.6-1.4 1.4-1.4z" fill="#3d3d3d"/><path d="m1541.3 406h34.3c.8 0 1.4.6 1.4 1.4v34.3c0 .8-.6 1.4-1.4 1.4h-34.3c-.8 0-1.4-.6-1.4-1.4v-34.3c-.1-.7.6-1.4 1.4-1.4z" fill="#3d3d3d"/><path d="m1285.4 451.1h34.3c.8 0 1.4.6 1.4 1.4v34.3c0 .8-.6 1.4-1.4 1.4h-34.3c-.8 0-1.4-.6-1.4-1.4v-34.3c-.1-.7.6-1.4 1.4-1.4z" fill="#3d3d3d"/><path d="m1331.7 451.1h34.3c.8 0 1.4.6 1.4 1.4v34.3c0 .8-.6 1.4-1.4 1.4h-34.3c-.8 0-1.4-.6-1.4-1.4v-34.3c0-.7.7-1.4 1.4-1.4z" fill="#3d3d3d"/><path d="m1377.6 451.1h34.3c.8 0 1.4.6 1.4 1.4v34.3c0 .8-.6 1.4-1.4 1.4h-34.3c-.8 0-1.4-.6-1.4-1.4v-34.3c0-.7.6-1.4 1.4-1.4z" fill="#3d3d3d"/><path d="m1423.4 451.1h34.3c.8 0 1.4.6 1.4 1.4v34.3c0 .8-.6 1.4-1.4 1.4h-34.3c-.8 0-1.4-.6-1.4-1.4v-34.3c0-.7.6-1.4 1.4-1.4z" fill="#3d3d3d"/><path d="m1472 451.1h34.3c.8 0 1.4.6 1.4 1.4v34.3c0 .8-.6 1.4-1.4 1.4h-34.3c-.8 0-1.4-.6-1.4-1.4v-34.3c0-.7.6-1.4 1.4-1.4z" fill="#3d3d3d"/><path d="m1437.5 496.2h34.3c.8 0 1.4.6 1.4 1.4v39.8c0 .8-.6 1.4-1.4 1.4h-34.3c-.8 0-1.4-.6-1.4-1.4v-39.8c0-.7.6-1.4 1.4-1.4z" fill="#3d3d3d"/><path d="m1529.8 499.3h33c.8 0 1.4.6 1.4 1.4v13.2c0 .8-.6 1.4-1.4 1.4h-33c-.8 0-1.4-.6-1.4-1.4v-13.2c0-.8.6-1.4 1.4-1.4z" fill="#3d3d3d"/><path d="m1379.7 496.2h45.3c.8 0 1.4.6 1.4 1.4v39.8c0 .8-.6 1.4-1.4 1.4h-45.3c-.8 0-1.4-.6-1.4-1.4v-39.8c0-.7.6-1.4 1.4-1.4z" fill="#3d3d3d"/><path d="m1146.9 496.2h222.3c.8 0 1.4.6 1.4 1.4v39.8c0 .8-.6 1.4-1.4 1.4h-222.3c-.8 0-1.4-.6-1.4-1.4v-39.8c0-.7.6-1.4 1.4-1.4z" fill="#3d3d3d"/><path d="m1519.9 451.1h90.9c.8 0 1.4.6 1.4 1.4v34.3c0 .8-.6 1.4-1.4 1.4h-90.9c-.8 0-1.4-.6-1.4-1.4v-34.3c0-.7.6-1.4 1.4-1.4z" fill="#3d3d3d"/><path d="m1054.6 451.1h34.3c.8 0 1.4.6 1.4 1.4v34.3c0 .8-.6 1.4-1.4 1.4h-34.3c-.8 0-1.4-.6-1.4-1.4v-34.3c0-.7.7-1.4 1.4-1.4z" fill="#3d3d3d"/><path d="m1009.9 451.1h34.3c.8 0 1.4.6 1.4 1.4v34.3c0 .8-.6 1.4-1.4 1.4h-34.3c-.8 0-1.4-.6-1.4-1.4v-34.3c0-.7.6-1.4 1.4-1.4z" fill="#3d3d3d"/><path d="m950.9 451.1h47.4c.8 0 1.4.6 1.4 1.4v34.3c0 .8-.6 1.4-1.4 1.4h-47.4c-.8 0-1.4-.6-1.4-1.4v-34.3c0-.7.6-1.4 1.4-1.4z" fill="#3d3d3d"/><path d="m950.9 496.2h33.8c.8 0 1.4.6 1.4 1.4v39.8c0 .8-.6 1.4-1.4 1.4h-33.8c-.8 0-1.4-.6-1.4-1.4v-39.8c0-.7.6-1.4 1.4-1.4z" fill="#3d3d3d"/><path d="m996 496.2h33.8c.8 0 1.4.6 1.4 1.4v39.8c0 .8-.6 1.4-1.4 1.4h-33.8c-.8 0-1.4-.6-1.4-1.4v-39.8c0-.7.6-1.4 1.4-1.4z" fill="#3d3d3d"/><path d="m1044.6 496.2h33.8c.8 0 1.4.6 1.4 1.4v39.8c0 .8-.6 1.4-1.4 1.4h-33.8c-.8 0-1.4-.6-1.4-1.4v-39.8c0-.7.6-1.4 1.4-1.4z" fill="#3d3d3d"/><path d="m1091.8 496.2h43.6c.8 0 1.4.6 1.4 1.4v39.8c0 .8-.6 1.4-1.4 1.4h-43.6c-.8 0-1.4-.6-1.4-1.4v-39.8c0-.7.6-1.4 1.4-1.4z" fill="#3d3d3d"/><path d="m1101 451.1h34.3c.8 0 1.4.6 1.4 1.4v34.3c0 .8-.6 1.4-1.4 1.4h-34.3c-.8 0-1.4-.6-1.4-1.4v-34.3c0-.7.7-1.4 1.4-1.4z" fill="#3d3d3d"/><path d="m1146.9 451.1h34.3c.8 0 1.4.6 1.4 1.4v34.3c0 .8-.6 1.4-1.4 1.4h-34.3c-.8 0-1.4-.6-1.4-1.4v-34.3c0-.7.6-1.4 1.4-1.4z" fill="#3d3d3d"/><path d="m1192.7 451.1h34.3c.8 0 1.4.6 1.4 1.4v34.3c0 .8-.6 1.4-1.4 1.4h-34.3c-.8 0-1.4-.6-1.4-1.4v-34.3c0-.7.6-1.4 1.4-1.4z" fill="#3d3d3d"/><path d="m1241.3 451.1h34.3c.8 0 1.4.6 1.4 1.4v34.3c0 .8-.6 1.4-1.4 1.4h-34.3c-.8 0-1.4-.6-1.4-1.4v-34.3c0-.7.6-1.4 1.4-1.4z" fill="#3d3d3d"/><path d="m1342.5 360.9h34.3c.8 0 1.4.6 1.4 1.4v34.3c0 .8-.6 1.4-1.4 1.4h-34.3c-.8 0-1.4-.6-1.4-1.4v-34.3c0-.8.6-1.4 1.4-1.4z" fill="#3d3d3d"/><path d="m1390.7 360.9h34.3c.8 0 1.4.6 1.4 1.4v34.3c0 .8-.6 1.4-1.4 1.4h-34.3c-.8 0-1.4-.6-1.4-1.4v-34.3c0-.8.6-1.4 1.4-1.4z" fill="#3d3d3d"/><path d="m1437.5 360.9h34.3c.8 0 1.4.6 1.4 1.4v34.3c0 .8-.6 1.4-1.4 1.4h-34.3c-.8 0-1.4-.6-1.4-1.4v-34.3c0-.8.6-1.4 1.4-1.4z" fill="#3d3d3d"/><path d="m1482.7 360.9h34.3c.8 0 1.4.6 1.4 1.4v34.3c0 .8-.6 1.4-1.4 1.4h-34.3c-.8 0-1.4-.6-1.4-1.4v-34.3c0-.8.7-1.4 1.4-1.4z" fill="#3d3d3d"/><path d="m1528.5 360.9h34.3c.8 0 1.4.6 1.4 1.4v34.3c0 .8-.6 1.4-1.4 1.4h-34.3c-.8 0-1.4-.6-1.4-1.4v-34.3c0-.8.6-1.4 1.4-1.4z" fill="#3d3d3d"/><path d="m1610.1 360.9h-34.2c-1.2 0-2.1.9-2.1 2.1v33c0 1.2.9 2.1 2.1 2.1h9.6v39.9c0 1.2.9 2.1 2.1 2.1h22.5c1.2 0 2.1-.9 2.1-2.1v-75c0-1.2-.9-2.1-2.1-2.1z" fill="#3d3d3d"/><path d="m1047.1 315.8h34.3c.8 0 1.4.6 1.4 1.4v34.3c0 .8-.6 1.4-1.4 1.4h-34.3c-.8 0-1.4-.6-1.4-1.4v-34.3c-.1-.8.6-1.4 1.4-1.4z" fill="#3d3d3d"/><path d="m1093.8 315.8h34.3c.8 0 1.4.6 1.4 1.4v34.3c0 .8-.6 1.4-1.4 1.4h-34.3c-.8 0-1.4-.6-1.4-1.4v-34.3c0-.8.7-1.4 1.4-1.4z" fill="#3d3d3d"/><path d="m1183.8 315.8h34.3c.8 0 1.4.6 1.4 1.4v34.3c0 .8-.6 1.4-1.4 1.4h-34.3c-.8 0-1.4-.6-1.4-1.4v-34.3c0-.8.6-1.4 1.4-1.4z" fill="#3d3d3d"/><path d="m1230.5 315.8h34.3c.8 0 1.4.6 1.4 1.4v34.3c0 .8-.6 1.4-1.4 1.4h-34.3c-.8 0-1.4-.6-1.4-1.4v-34.3c0-.8.6-1.4 1.4-1.4z" fill="#3d3d3d"/><path d="m1275.8 315.8h34.3c.8 0 1.4.6 1.4 1.4v34.3c0 .8-.6 1.4-1.4 1.4h-34.3c-.8 0-1.4-.6-1.4-1.4v-34.3c0-.8.6-1.4 1.4-1.4z" fill="#3d3d3d"/><path d="m1321 315.8h34.3c.8 0 1.4.6 1.4 1.4v34.3c0 .8-.6 1.4-1.4 1.4h-34.3c-.8 0-1.4-.6-1.4-1.4v-34.3c0-.8.6-1.4 1.4-1.4z" fill="#3d3d3d"/><path d="m1369.1 315.8h34.3c.8 0 1.4.6 1.4 1.4v34.3c0 .8-.6 1.4-1.4 1.4h-34.3c-.8 0-1.4-.6-1.4-1.4v-34.3c-.1-.8.6-1.4 1.4-1.4z" fill="#3d3d3d"/><path d="m1414.3 315.8h34.3c.8 0 1.4.6 1.4 1.4v34.3c0 .8-.6 1.4-1.4 1.4h-34.3c-.8 0-1.4-.6-1.4-1.4v-34.3c0-.8.6-1.4 1.4-1.4z" fill="#3d3d3d"/><path d="m1460.7 315.8h34.3c.8 0 1.4.6 1.4 1.4v34.3c0 .8-.6 1.4-1.4 1.4h-34.3c-.8 0-1.4-.6-1.4-1.4v-34.3c0-.8.6-1.4 1.4-1.4z" fill="#3d3d3d"/><path d="m1506.5 315.8h34.3c.8 0 1.4.6 1.4 1.4v34.3c0 .8-.6 1.4-1.4 1.4h-34.3c-.8 0-1.4-.6-1.4-1.4v-34.3c0-.8.6-1.4 1.4-1.4z" fill="#3d3d3d"/><path d="m1552.3 315.8h58.5c.8 0 1.4.6 1.4 1.4v34.3c0 .8-.6 1.4-1.4 1.4h-58.5c-.8 0-1.4-.6-1.4-1.4v-34.3c0-.8.6-1.4 1.4-1.4z" fill="#3d3d3d"/><path d="m1136.8 315.8h34.3c.8 0 1.4.6 1.4 1.4v34.3c0 .8-.6 1.4-1.4 1.4h-34.3c-.8 0-1.4-.6-1.4-1.4v-34.3c0-.8.6-1.4 1.4-1.4z" fill="#3d3d3d"/><path d="m997.7 283.4h36.7c.8 0 1.4.6 1.4 1.4v21.6c0 .8-.6 1.4-1.4 1.4h-36.7c-.8 0-1.4-.6-1.4-1.4v-21.6c0-.8.6-1.4 1.4-1.4z" fill="#3d3d3d"/><path d="m1045.9 283.4h36.7c.8 0 1.4.6 1.4 1.4v21.6c0 .8-.6 1.4-1.4 1.4h-36.7c-.8 0-1.4-.6-1.4-1.4v-21.6c-.1-.8.6-1.4 1.4-1.4z" fill="#3d3d3d"/><path d="m1092.6 283.4h36.7c.8 0 1.4.6 1.4 1.4v21.6c0 .8-.6 1.4-1.4 1.4h-36.7c-.8 0-1.4-.6-1.4-1.4v-21.6c0-.8.7-1.4 1.4-1.4z" fill="#3d3d3d"/><path d="m1141.8 283.4h36.7c.8 0 1.4.6 1.4 1.4v21.6c0 .8-.6 1.4-1.4 1.4h-36.7c-.8 0-1.4-.6-1.4-1.4v-21.6c0-.8.6-1.4 1.4-1.4z" fill="#3d3d3d"/><path d="m1191 283.4h36.7c.8 0 1.4.6 1.4 1.4v21.6c0 .8-.6 1.4-1.4 1.4h-36.7c-.8 0-1.4-.6-1.4-1.4v-21.6c-.1-.8.6-1.4 1.4-1.4z" fill="#3d3d3d"/><path d="m1239.1 283.4h36.7c.8 0 1.4.6 1.4 1.4v21.6c0 .8-.6 1.4-1.4 1.4h-36.7c-.8 0-1.4-.6-1.4-1.4v-21.6c0-.8.7-1.4 1.4-1.4z" fill="#3d3d3d"/><path d="m1285.9 283.4h36.7c.8 0 1.4.6 1.4 1.4v21.6c0 .8-.6 1.4-1.4 1.4h-36.7c-.8 0-1.4-.6-1.4-1.4v-21.6c0-.8.6-1.4 1.4-1.4z" fill="#3d3d3d"/><path d="m1332.9 283.4h36.7c.8 0 1.4.6 1.4 1.4v21.6c0 .8-.6 1.4-1.4 1.4h-36.7c-.8 0-1.4-.6-1.4-1.4v-21.6c0-.8.6-1.4 1.4-1.4z" fill="#3d3d3d"/><path d="m1379.7 283.4h36.7c.8 0 1.4.6 1.4 1.4v21.6c0 .8-.6 1.4-1.4 1.4h-36.7c-.8 0-1.4-.6-1.4-1.4v-21.6c0-.8.6-1.4 1.4-1.4z" fill="#3d3d3d"/><path d="m1427.9 283.4h36.7c.8 0 1.4.6 1.4 1.4v21.6c0 .8-.6 1.4-1.4 1.4h-36.7c-.8 0-1.4-.6-1.4-1.4v-21.6c0-.8.6-1.4 1.4-1.4z" fill="#3d3d3d"/><path d="m1474.7 283.4h36.7c.8 0 1.4.6 1.4 1.4v21.6c0 .8-.6 1.4-1.4 1.4h-36.7c-.8 0-1.4-.6-1.4-1.4v-21.6c-.1-.8.6-1.4 1.4-1.4z" fill="#3d3d3d"/><path d="m1527.3 283.4h36.7c.8 0 1.4.6 1.4 1.4v21.6c0 .8-.6 1.4-1.4 1.4h-36.7c-.8 0-1.4-.6-1.4-1.4v-21.6c0-.8.6-1.4 1.4-1.4z" fill="#3d3d3d"/><path d="m1574.1 283.4h36.7c.8 0 1.4.6 1.4 1.4v21.6c0 .8-.6 1.4-1.4 1.4h-36.7c-.8 0-1.4-.6-1.4-1.4v-21.6c0-.8.6-1.4 1.4-1.4z" fill="#3d3d3d"/><path d="m1529.8 496.2h33c.8 0 1.4.6 1.4 1.4v13.1h-35.9v-13.1c.1-.7.7-1.4 1.5-1.4z" fill="#3d3d3d"/><path d="m1529.8 515.3h33c.8 0 1.4.6 1.4 1.4v20.7c0 .8-.6 1.4-1.4 1.4h-33c-.8 0-1.4-.6-1.4-1.4v-20.7c0-.8.6-1.4 1.4-1.4z" fill="#3d3d3d"/><path d="m1576.5 519.7h33c.8 0 1.4.6 1.4 1.4v16.3c0 .8-.6 1.4-1.4 1.4h-33c-.8 0-1.4-.6-1.4-1.4v-16.3c0-.7.7-1.4 1.4-1.4z" fill="#3d3d3d"/><path d="m1484.3 519.7h33c.8 0 1.4.6 1.4 1.4v16.3c0 .8-.6 1.4-1.4 1.4h-33c-.8 0-1.4-.6-1.4-1.4v-16.3c0-.7.6-1.4 1.4-1.4z" fill="#3d3d3d"/><path d="m1155.7 574.9h249.6c5.5 0 9.9 4.4 9.9 9.9v151.8c0 5.5-4.4 9.9-9.9 9.9h-249.6c-5.5 0-9.9-4.4-9.9-9.9v-151.8c0-5.5 4.4-9.9 9.9-9.9z" fill="#dedede"/><path d="m864.3 283.4h63.8v255.5h-63.8z" fill="#c6c6c6"/><path d="m1635.1 283.4h63.8v255.5h-63.8z" fill="#c6c6c6"/><path d="m771.4 6.3c-10.8 0-16.2 8.1-11.8 18.1l82.1 187.6c4.3 9.9 16.8 18.1 27.6 18.1h820.9c10.8 0 23.2-8.2 27.5-18.1l80.8-187.6c4.3-10-1.1-18.1-12-18.1z" fill="#ccc"/><path d="m784.7 14.8c-10.4 0-15.5 7.8-11.4 17.4l76.1 175.4c4.1 9.6 16.1 17.4 26.5 17.4h807.8c10.4 0 22.3-7.8 26.5-17.4l76.1-175.4c4.1-9.6-1-17.4-11.4-17.4h-990.2z" fill="#363939"/><path d="m784.7 18.7c-10.4 0-15.5 7.8-11.4 17.4l76.1 175.4c4.1 9.6 16.1 17.4 26.5 17.4h807.8c10.4 0 22.3-7.8 26.5-17.4l76.1-175.4c4.1-9.6-1-17.4-11.4-17.4z" fill="#3d3d3d"/><path d="m1765 33.5h-970.3l5.3 12.5h959.7z" fill="#ccc"/><path d="m800 46 73.8 174.5h812l73.9-174.5z" fill="#545454"/><path d="m806 39.7h65.4" fill="none" stroke="#636363" stroke-linecap="round" stroke-miterlimit="10" stroke-width="3.947"/><path d="m887 39.7h15.4" fill="none" stroke="#636363" stroke-linecap="round" stroke-miterlimit="10" stroke-width="3.947"/><path d="m918.4 39.7h15.4" fill="none" stroke="#636363" stroke-linecap="round" stroke-miterlimit="10" stroke-width="3.947"/><path d="m950.7 39.7h15.4" fill="none" stroke="#636363" stroke-linecap="round" stroke-miterlimit="10" stroke-width="3.947"/><path d="m1707.5 39.7h15.4" fill="none" stroke="#636363" stroke-linecap="round" stroke-miterlimit="10" stroke-width="3.947"/><path d="m1736 39.7h15.3" fill="none" stroke="#636363" stroke-linecap="round" stroke-miterlimit="10" stroke-width="3.947"/><path d="m1751.7 49.6h-128.8l-41.5 167.3h97.5z" fill="#666"/><path d="m878.3 216.9h219.2l-9.8-61.9h-237.4z" fill="#666"/><path d="m1077.2 49.6 15.4 102.5h500.1l25-102.5z" fill="#666"/><path d="m1102.4 216.9h474.5l15.8-61.9h-500.1z" fill="#666"/><path d="m1126.3 58.9 12.7 83.9h409.1l20.4-83.9z" fill="#333"/><path d="m863.5 162.9h65.4" fill="none" stroke="#9e9e9e" stroke-linecap="round" stroke-miterlimit="10" stroke-width="3.947"/><path d="m1073.2 57.1-1.2-7.6h-201.3c1.2 2.5 2.5 5 3.7 7.6z" fill="#5e5e5e"/><path d="m874.4 57.1c-1.2-2.5-2.5-5.1-3.7-7.6h-64.7l44.3 102.6h237.3l-14.5-95z" fill="#666"/><path d="m830.3 84.7h65.4" fill="none" stroke="#9e9e9e" stroke-linecap="round" stroke-miterlimit="10" stroke-width="3.947"/><path d="m835 93.8h65.5" fill="none" stroke="#9e9e9e" stroke-linecap="round" stroke-miterlimit="10" stroke-width="3.947"/><path d="m840.5 104.1h65.5" fill="none" stroke="#9e9e9e" stroke-linecap="round" stroke-miterlimit="10" stroke-width="3.947"/><path d="m845.3 114.4h65.4" fill="none" stroke="#9e9e9e" stroke-linecap="round" stroke-miterlimit="10" stroke-width="3.947"/><path d="m850.8 123.4h65.4" fill="none" stroke="#9e9e9e" stroke-linecap="round" stroke-miterlimit="10" stroke-width="3.947"/><path d="m856.3 133.7h65.5" fill="none" stroke="#9e9e9e" stroke-linecap="round" stroke-miterlimit="10" stroke-width="3.947"/><path d="m1738.2 57.1h-65.4" fill="none" stroke="#9e9e9e" stroke-linecap="round" stroke-miterlimit="10" stroke-width="3.947"/><path d="m1733.5 66.1h-65.4" fill="none" stroke="#9e9e9e" stroke-linecap="round" stroke-miterlimit="10" stroke-width="3.947"/><path d="m1728 76.5h-65.5" fill="none" stroke="#9e9e9e" stroke-linecap="round" stroke-miterlimit="10" stroke-width="3.947"/><path d="m1723.2 86.7h-65.4" fill="none" stroke="#9e9e9e" stroke-linecap="round" stroke-miterlimit="10" stroke-width="3.947"/><path d="m1717.7 95.7h-65.4" fill="none" stroke="#9e9e9e" stroke-linecap="round" stroke-miterlimit="10" stroke-width="3.947"/><path d="m1714.6 106.1h-65.2" fill="none" stroke="#9e9e9e" stroke-linecap="round" stroke-miterlimit="10" stroke-width="3.073"/><path d="m1710 116.7h-63.9" fill="none" stroke="#9e9e9e" stroke-linecap="round" stroke-miterlimit="10" stroke-width="3.073"/><path d="m1706.3 126.6h-62" fill="none" stroke="#9e9e9e" stroke-linecap="round" stroke-miterlimit="10" stroke-width="3.073"/><path d="m1701.1 137.3h-60.6" fill="none" stroke="#9e9e9e" stroke-linecap="round" stroke-miterlimit="10" stroke-width="3.6526"/><path d="m1697.4 146.8h-60.6" fill="none" stroke="#9e9e9e" stroke-linecap="round" stroke-miterlimit="10" stroke-width="3.6526"/><path d="m1693.8 157.3h-60.6" fill="none" stroke="#9e9e9e" stroke-linecap="round" stroke-miterlimit="10" stroke-width="3.6526"/><path d="m1689.4 167.7h-60.6" fill="none" stroke="#9e9e9e" stroke-linecap="round" stroke-miterlimit="10" stroke-width="3.6526"/><path d="m1102.7 162.9h216.9" fill="none" stroke="#c9e1ee" stroke-linecap="round" stroke-miterlimit="10" stroke-width="7.0936"/><path d="m1203.1 175h216.9" fill="none" stroke="#fac488" stroke-linecap="round" stroke-miterlimit="10" stroke-width="7.0936"/><path d="m1125.1 186h216.9" fill="none" stroke="#bae098" stroke-linecap="round" stroke-miterlimit="10" stroke-width="7.0936"/><path d="m1067.6 162.9h13.9" style="opacity:.72;fill:none;stroke:#f89d47;stroke-width:3.947;stroke-linecap:round;stroke-miterlimit:10"/><path d="m1069.8 175h13.9" style="opacity:.72;fill:none;stroke:#f89d47;stroke-width:3.947;stroke-linecap:round;stroke-miterlimit:10"/><path d="m869 175h65.4" fill="none" stroke="#9e9e9e" stroke-linecap="round" stroke-miterlimit="10" stroke-width="3.947"/><path d="m875.3 186h65.4" fill="none" stroke="#9e9e9e" stroke-linecap="round" stroke-miterlimit="10" stroke-width="3.947"/><path d="m281.4 240.9-30.4-24c12.5-20.6 19.2-44.3 19.1-68.4 0-72.8-59-131.8-131.8-131.8s-131.9 58.9-131.9 131.8 59 131.8 131.8 131.8c34.7 0 67.9-13.6 92.6-38l30.5 24c6 4.7 14.6 3.7 19.3-2.3l3-3.8c4.7-6 3.7-14.6-2.2-19.3z" fill="#1f1719" opacity=".15"/><path d="m237.7 196 43.7 34.5c6 4.7 7 13.4 2.3 19.3l-3 3.8c-4.7 6-13.4 7-19.3 2.3l-43.7-34.5c-6-4.7-7-13.4-2.3-19.3l3-3.8c4.6-6 13.3-7 19.3-2.3z" fill="#5c786c"/><circle cx="138.2" cy="138.1" fill="#809487" r="131.8"/><circle cx="138.2" cy="138.1" fill="#5c786c" r="124.9"/><circle cx="138.2" cy="138.1" fill="#522c23" r="107.4"/><circle cx="138.2" cy="138.1" fill="#e9d4c7" opacity=".89" r="107.4"/><path d="m240.6 140.9c-.1 5.9-.3 21-8.2 30.6-2.4 2.7-4.5 5.6-6 8.9-2.8 6-1.6 7.8-3.9 12.2-2.8 5.3-6.1 5.4-11.7 10.9-3.9 3.9-7 8.5-9.2 13.5-1.9 0-4.6.4-6.7 2.1-2.6 2.2-3 5.6-3.3 6.7-.9 4-6.7 9.1-28.9 13.2-2.8-.5-5.5-1.2-8.2-2.1-5.4-1.9-7.8-3.6-11.2-3-1.9.4-3.6 1.3-5 2.7-2.2-.9-4.6-1.2-7-1.1-3.9.2-6 1.9-8.6 2.6-5.1 1.4-10-1.2-14.2-3.4-6.7-3.6-58-35.9-68.7-96.5-.4-2.5-5.3-31.3 5.3-37.3 2.2-1.2 5.6-1.9 8.1-5.3 2.8-4 2.5-9.1 1.8-12.6.9.1 6.6.8 11.2-3.1 4-3.6 5.7-9.1 4.4-14.3 5.6-6.2 17.9-18.5 34.3-25.1 9.4-3.8 15.7-3.9 17.9-3.9 6.4.1 6.4 1.7 15.5 3.1 13.8 2.2 18-.9 25.6 3.4 4.1 2.3 3.1 3.3 7.5 5.5 8.4 4.2 12.1.3 18.5 3.9 6.2 3.5 5.2 8.4 12.1 11.4 3.8 1.6 5.7.8 8.5 1.4 8.6 1.9 12 14.3 20.6 40.8 8.4 26.2 9.6 27.8 9.5 34.8z" fill="#522c23"/><circle cx="65.8" cy="67.6" fill="#522c23" r="2.1"/><circle cx="61" cy="76.1" fill="#522c23" r="4.3"/><circle cx="49.8" cy="90.1" fill="#522c23" r="1.1"/><circle cx="46.1" cy="95.1" fill="#522c23" r="2.7"/><circle cx="42" cy="169.1" fill="#522c23" r="1.4"/><circle cx="45.4" cy="177.1" fill="#522c23" r="3.4"/><circle cx="132.7" cy="240.5" fill="#522c23" r="2.6"/><circle cx="145.4" cy="239.2" fill="#522c23" r="2.8"/><circle cx="198.1" cy="221.1" fill="#522c23" r="2.6"/><circle cx="209" cy="212.3" fill="#522c23" r=".9"/><circle cx="211.3" cy="209.1" fill="#522c23" r="2.3"/><circle cx="216.8" cy="204.2" fill="#522c23" r="3.2" stroke="#522c23" stroke-miterlimit="10" stroke-width=".9479"/><circle cx="233" cy="177.9" fill="#522c23" r="2.5" stroke="#522c23" stroke-miterlimit="10" stroke-width=".9479"/><circle cx="229.6" cy="185" fill="#522c23" r="3.5" stroke="#522c23" stroke-miterlimit="10" stroke-width=".9479"/><circle cx="231.5" cy="99.7" fill="#522c23" r=".7" stroke="#522c23" stroke-miterlimit="10" stroke-width=".9479"/><circle cx="235.8" cy="108.3" fill="#522c23" r="3" stroke="#522c23" stroke-miterlimit="10" stroke-width=".9479"/><circle cx="235.5" cy="101.2" fill="#522c23" r="2.2" stroke="#522c23" stroke-miterlimit="10" stroke-width=".9479"/><circle cx="148.8" cy="36.6" fill="#522c23" r="2.6" stroke="#522c23" stroke-miterlimit="10" stroke-width=".9479"/><circle cx="142.3" cy="34" fill="#522c23" r="2.1" stroke="#522c23" stroke-miterlimit="10" stroke-width=".9479"/><circle cx="139.1" cy="37.5" fill="#522c23" r="1.4" stroke="#522c23" stroke-miterlimit="10" stroke-width=".8098"/><circle cx="171.8" cy="42.1" fill="#522c23" r="3.5" stroke="#522c23" stroke-miterlimit="10" stroke-width=".8098"/><circle cx="173.9" cy="47.4" fill="#522c23" r="1.1" stroke="#522c23" stroke-miterlimit="10" stroke-width=".8098"/><circle cx="178.5" cy="45.2" fill="#522c23" r="1.9" stroke="#522c23" stroke-miterlimit="10" stroke-width="1.3371"/><path d="m785.8 352.8-12.3-4.4v-.5c0-.6-.4-1.2-1-1.5l-33.4-14h-431.5v-6h116.7c4.3 0 7.8-2.8 7.8-6.2s-3.5-6.2-7.8-6.2h-132.3v18.4h-12.4v3.9h-31.1c-4.3 0-7.9 3.5-7.9 7.9v19.2c0 4.3 3.5 7.9 7.9 7.9h31.1v3.9h459.6l33.4-14.1c.6-.2 1-.8 1-1.5v-.6l12.4-4.4c.3-.1.4-.5.3-.9s-.2-.8-.5-.9z" fill="#1f1719" opacity=".15"/><path d="m785.8 343.6-13-4.6c-.3-.1-.5 0-.6.3v.2 4.6c0 .3.2.5.5.5h13.6c-.1-.5-.2-.9-.5-1z" fill="#c3bdc0"/><path d="m772.8 350.1 13.1-4.7c.3-.1.4-.5.3-.9h-13.6c-.3 0-.5.2-.5.5v4.7c0 .3.2.5.5.5.1 0 .2 0 .2-.1z" fill="#b1acaf"/><path d="m773.5 344.6v-5.8c0-.6-.4-1.2-1-1.4l-33.4-14.1v21.3z" fill="#b6b1b4"/><path d="m739.2 344.6v21.3l33.4-14.1c.6-.2 1-.8 1-1.4v-5.8z" fill="#a7a2a5"/><path d="m240.6 344.6v9.6c0 4.3 3.5 7.9 7.9 7.9h31.1v-17.5z" fill="#b1acaf"/><path d="m279.6 327.1h-31.1c-4.3 0-7.9 3.5-7.9 7.9v9.6h39z" fill="#c3bdc0"/><path d="m319.1 323.2h420.1v21.3h-420.1z" fill="#f7512d"/><path d="m319.1 344.6h420.1v21.3h-420.1z" fill="#e64c2a"/><path d="m279.6 344.6h39.5v21.3h-39.5z" fill="#a7a2a5"/><path d="m279.6 323.2h39.5v21.3h-39.5z" fill="#b6b1b4"/><path d="m292 335.5v-30.7h132.3c4.3 0 7.8 2.8 7.8 6.2s-3.5 6.2-7.8 6.2h-116.7v18.3c0 3.4-3.5 6.2-7.8 6.2s-7.8-2.8-7.8-6.2z" fill="#b6b1b4"/><path d="m785.8 343.6-13-4.6c-.3-.1-.5 0-.6.3v.2 4.6c0 .3.2.5.5.5h13.6c-.1-.5-.2-.9-.5-1z" fill="#c3bdc0"/><path d="m772.8 350.1 13.1-4.7c.3-.1.4-.5.3-.9h-13.6c-.3 0-.5.2-.5.5v4.7c0 .3.2.5.5.5.1 0 .2 0 .2-.1z" fill="#b1acaf"/><path d="m773.5 344.6v-5.8c0-.6-.4-1.2-1-1.4l-33.4-14.1v21.3z" fill="#b6b1b4"/><path d="m739.2 344.6v21.3l33.4-14.1c.6-.2 1-.8 1-1.4v-5.8z" fill="#a7a2a5"/><path d="m240.6 344.6v9.6c0 4.3 3.5 7.9 7.9 7.9h31.1v-17.5z" fill="#b1acaf"/><path d="m279.6 327.1h-31.1c-4.3 0-7.9 3.5-7.9 7.9v9.6h39z" fill="#c3bdc0"/><path d="m319.1 323.2h420.1v21.3h-420.1z" fill="#f45f35"/><path d="m319.1 344.6h420.1v21.3h-420.1z" fill="#f7512d"/><path d="m279.6 344.6h39.5v21.3h-39.5z" fill="#a7a2a5"/><path d="m279.6 323.2h39.5v21.3h-39.5z" fill="#b6b1b4"/><path d="m292 335.5v-30.7h132.3c4.3 0 7.8 2.8 7.8 6.2s-3.5 6.2-7.8 6.2h-116.7v18.3c0 3.4-3.5 6.2-7.8 6.2s-7.8-2.8-7.8-6.2z" fill="#b6b1b4"/></svg>