<?xml version="1.0" encoding="utf-8"?>
<!-- Generator: Adobe Illustrator 23.0.1, SVG Export Plug-In . SVG Version: 6.00 Build 0)  -->
<svg version="1.1" xmlns="http://www.w3.org/2000/svg" xmlns:xlink="http://www.w3.org/1999/xlink" x="0px" y="0px"
	 viewBox="0 0 800 800" style="enable-background:new 0 0 800 800;" xml:space="preserve">
<style type="text/css">
	.st0{fill:#F7D175;}
	.st1{display:none;}
	.st2{fill:#FFFFFF;}
	.st3{fill:#75ACC7;}
	.st4{display:inline;}
	.st5{display:inline;fill:#FFFFFF;}
	.st6{stroke:#000000;stroke-miterlimit:10;}
</style>
<g id="background">
	<g>
		<g>
			<path class="st2" d="M596.78,596.57c-156.32-0.34-312.65-0.68-468.97-1.02c-7.02-3.45-12.22-8.43-15.79-14.77l0,0
				c-5.35-8.93-6.81-18.92-7.25-25.39c0,0-0.01-0.1-0.02-0.22c-0.53-5.36-1-14.53-0.78-31.03c-1.56-120.32-0.54-208.06,0.99-215.97
				c1.1-5.66,2.41-11.02,2.41-11.02c1.11-4.45,2.03-7.41,2.65-9.81c3.67-14.3,48.74-66.38,58.83-72.26
				c13.46-7.85,26.89-6.72,32.48-6.88c89.32-2.61,133.99-3.91,192.01-3.29c59.22,0.64,227.24-5,273.62,2.21
				c3.94,0.61,10.89,1.92,16.95,7.13c15.16,13.03,13.19,38.66,12.27,50.82c0,0-5,66.63-4.15,171.13c0.1,12.08-0.28,25.68-1.04,52.89
				c-0.63,22.66-0.96,25.96-2.07,30.08c-2.86,10.6-67.59,56.47-79.49,65.83C604.52,588.88,600.32,592.82,596.78,596.57z
				 M191.13,237.43c0.43,4.9-1.78,269.06-0.48,269.32c3.63,0.74,85.27-0.82,104.7-0.22c6.05,0.19,46.81-0.25,48.97-0.23
				c12.36,0.1,24.72-0.12,37.08-0.36c7.3-0.14,69.05,0.49,77.56-0.89c1.25-0.2,2.93-5.94,3.06-7.42
				c0.39-4.59,3.12-260.21,1.3-260.16c-33.83,0.93-67.92-1.45-100.78-0.18c0.65,2.77-34.08,0.32-44.64,0
				C311.55,237.1,202.36,236.62,191.13,237.43z M662.36,243.29c-0.18-2.09-2.71-5.4-4.73-5.76c-6.9-1.24-131.39,0.22-154.36-0.22
				c-7.24-0.14-11.74,0.41-14.37,2.64c-3.08,2.61-3.06,9.12-3.06,13.76c0,11.63-6.23,249.62,2.3,253.06
				c3.55,1.43,133.87,3.8,174.33,1.66C669.24,508.08,664.87,272.02,662.36,243.29z"/>
		</g>
	</g>
	<path class="st2" d="M600.95,306.9h-44.53c-6.7,0-12.19-5.49-12.19-12.19v0c0-6.7,5.49-12.19,12.19-12.19h44.53
		c6.7,0,12.19,5.49,12.19,12.19v0C613.14,301.42,607.66,306.9,600.95,306.9z"/>
	<path class="st2" d="M669.86,379.88h-44.53c-6.7,0-12.19-5.49-12.19-12.19v0c0-6.7,5.49-12.19,12.19-12.19h44.53
		c6.7,0,12.19,5.49,12.19,12.19v0C682.05,374.39,676.57,379.88,669.86,379.88z"/>
	<path class="st2" d="M600.95,446.82h-44.53c-6.7,0-12.19-5.49-12.19-12.19v0c0-6.7,5.49-12.19,12.19-12.19h44.53
		c6.7,0,12.19,5.49,12.19,12.19v0C613.14,441.33,607.66,446.82,600.95,446.82z"/>
	<path class="st2" d="M315.24,530.98l-42.07-124.13c-1.37-4.04,0.82-8.47,4.86-9.85l18.43-6.25c4.04-1.37,8.47,0.82,9.85,4.86
		l42.07,124.13c1.37,4.04-0.82,8.47-4.86,9.85l-18.43,6.25C321.04,537.21,316.61,535.02,315.24,530.98z"/>
	<path class="st2" d="M368.27,333.8l-34.11-100.65c-1.25-3.68,0.74-7.71,4.42-8.95l19.76-6.7c3.68-1.25,7.71,0.74,8.95,4.42
		l34.11,100.65c1.25,3.68-0.74,7.71-4.42,8.95l-19.76,6.7C373.55,339.47,369.52,337.48,368.27,333.8z"/>
	<path class="st2" d="M652.87,357.71L652.87,357.71c2.78-0.92,6.52-2.38,10.68-4.67c5.65-3.12,6.56-4.75,8.01-4.34
		c6.31,1.77,4.31,37.01-2.12,38.03c-1.18,0.19-1.47-0.94-6.47-4.48c-6.44-4.56-7.76-3.96-10.45-6.72
		c-4.25-4.35-6.58-11.57-4.23-13.94c0.53-0.53,1.86-1.39,5.48-0.5"/>
</g>
<g id="Layer_1" class="st1">
</g>
<g id="Layer_2" class="st1">
</g>
</svg>
