<?xml version="1.0" encoding="utf-8"?>
<!-- Generator: Adobe Illustrator 23.0.1, SVG Export Plug-In . SVG Version: 6.00 Build 0)  -->
<svg version="1.1" xmlns="http://www.w3.org/2000/svg" xmlns:xlink="http://www.w3.org/1999/xlink" x="0px" y="0px"
	 viewBox="0 0 383.71 201.69" style="enable-background:new 0 0 383.71 201.69;" xml:space="preserve">
<style type="text/css">
	.st0{fill:#F7D175;}
	.st1{display:none;}
	.st2{fill:#FFFFFF;}
	.st3{fill:#75ACC7;}
	.st4{display:inline;}
	.st5{display:inline;fill:#FFFFFF;}
	.st6{stroke:#000000;stroke-miterlimit:10;}
</style>
<g id="background">
	<g>
		<g>
			<path class="st2" d="M297.35,184.61c-4.63,1.52-274.73,8.66-279.28,8.27c-2.83-0.24-6.98-0.76-9.45-3.83
				c-1.23-1.53-1.75-3.48-2.79-7.4c-0.56-2.12-0.84-3.65-1.49-7.4c-0.97-5.62-1.46-8.43-1.62-9.44c-2.38-15.45-0.38-64.13,0-85.81
				c0.02-1.25,1.57-18.13,1.75-18.73c0.92-3.23,1.95-6.42,3.01-9.61C9.67,44.05,36.5,20.02,42.5,17.3
				c8.19-3.7,15.71-3.32,19.33-3.17c23.4,0.96,228.78-3.58,242.99-4.92c1.07-0.1,2.87-0.28,5.25-0.36
				c13.48-0.48,24.14,2.99,28.94,4.79c4.5,1.69,14.73,5.62,23.73,14.3c16.4,15.82,18.26,37.28,18.95,45.34
				c0.55,6.35,3.43,39.56-17.47,61.32c-13.78,14.36-55.44,41.99-58.81,45.93C305.42,180.53,305.93,181.78,297.35,184.61z
				 M44.18,31.55c0.2,2.26-3.83,99.25-3.88,107.48c-0.01,1.99,0.13,4.01,0.49,5.97c0.29,1.61,0.95,3.16,1.56,4.68
				c0.34,0.83,0.83,2.1,1.43,2.22c1.68,0.34,39.35-0.38,48.31-0.1c2.79,0.09,3.52-0.65,2.51-3.45c-1.63-4.51-3.46-8.93-5.19-13.4
				c-3.11-8.02-9.47-27.67-8.64-28.48c0.88-0.85,12.84,1.47,17.14,1.86c2.57,0.23,15.78,43.36,16.78,43.37
				c5.7,0.05,11.41-0.06,17.11-0.16c3.37-0.06,6.75-0.08,10.11-0.39c4.16-0.39,8.29-1.07,12.44-1.6c3.95-0.51,7.91-0.92,11.84-1.56
				c0.58-0.09,1.36-1.18,1.42-1.86c0.18-2.12,3.49-90.37,3.72-95.15c0.33-6.71,0.81-13.41,1.26-20.69
				c-16.44,0.64-32.21,1.25-48.2,1.87c0.3,1.28,6.83,14.54,9.88,19.74c2.55,4.34-9.96,12.78-11.87,12.03
				c-3.86-1.52-14.73-31.06-19.6-31.2C99.87,32.62,49.36,31.17,44.18,31.55z M279.05,135.64c2.93,0.4,7.03,0.9,11.95,1.28
				c6.86,0.54,13.24,1.04,19.91,0.56c5.67-0.41,14.53-1.05,23.79-5.93c11.43-6.02,17.28-15.24,19.78-19.29
				c8.47-13.71,8.76-27.18,8.95-36.04c0.12-5.71,0.25-11.55-1.89-18.99c-1.27-4.4-4.85-16.84-15.84-24.81
				c-5.89-4.27-13.93-5.37-30.03-7.57c-2.65-0.36-11.62-0.32-29.54-0.24c-4.37,0.02-11.18,0.13-13.62,4.24
				c-0.49,0.83-1.05,1.75-0.93,3.91c0.24,4.59,1.03,9.15,1.46,13.74C273.75,54.24,279.05,132.34,279.05,135.64z M266.76,140.66
				c0.83-0.74-1.71-41.3-2.1-46.17c-0.19-2.35-1.57-4.23-3.74-5.32c-3.15-1.58-5.06,0.03-10.6-0.51c-3.09-0.3-5.38-0.52-6.89-2.31
				c-1.95-2.32-2.55-3.48-0.62-5.23c0.74-0.67,2.04-0.85,4.64-1.2c1.85-0.25,9.81-0.38,11.46-1.3c2.15-1.21,4.2-6.37,4.2-8.91
				c0.01-4.5-0.91-30.78-1.66-39.4c-0.08-0.97-1.25-2.49-2.18-2.66c-3.18-0.57-60.57,1.32-71.17,1.12
				c-3.34-0.06-5.42,0.19-6.63,1.22c-1.42,1.2-1.48,2.99-1.48,5.13c0,5.37-2.87,109.86,1.06,111.44
				C182.96,147.34,264.46,142.71,266.76,140.66z"/>
			<path class="st2" d="M308.22,48.59c0.17-0.51,0.86-1.21,1.32-1.21c3.21,0,6.75-0.62,9.51,0.55c1.78,0.75,3.12,3.56,2.89,6.78
				c-0.39,5.34,1.17,29.63-0.76,36.24c-0.56,1.93-1.34,3.1-3.33,3.38c-2.07,0.3-4.18,1.08-6.19,0.87c-4.01-0.42-6.06-3.03-6.14-7.07
				c-0.05-2.46-0.01-4.92-0.01-7.38C305.5,80.75,307.23,51.48,308.22,48.59z"/>
		</g>
		<path class="st2" d="M228.47,59.67c-2.96-0.06-17.8-0.26-18.94-1.98c-1.75-2.63,0.49-6.72,4.03-7.39
			c4.19-0.8,15.19-2.14,16.46-1.83C233.32,49.28,234.56,59.79,228.47,59.67z"/>
		<path class="st2" d="M206.98,120.75c-0.25-1.55,0.94-3.58,1.65-5.28c2.38-5.63,20-4.73,21.46-3.24c1.27,1.3,2.3,4.3,2.12,6.35
			C231.92,121.84,207.41,123.45,206.98,120.75z"/>
	</g>
</g>
<g id="Layer_1" class="st1">
</g>
<g id="Layer_2" class="st1">
</g>
</svg>
