<svg viewBox="0 0 383.71 201.69" xmlns="http://www.w3.org/2000/svg"><g fill="#fff"><path d="m300.57 181.4c-4.73.8-9.5 1.51-14.28 1.86-10.19.74-20.41 1.21-30.61 1.82-6.49.39-13 .67-19.47 1.28-7.94.75-15.79-.39-23.69-.65-4.13-.13-8.29.95-12.45 1.1-5.5.2-11 .1-16.51 0s-11.06-.32-16.58-.58c-6.39-.3-12.77-1-19.15-1-4.88 0-9.76.87-14.62 1.46-7.57.91-15.11 2.1-22.69 2.8-5.6.51-11.26.41-16.89.58-.21 0-.42 0-.62 0-7-.38-14-.74-21-1.14-11.32-.65-22.65-1.39-34-1.95-4.84-.24-9.7-.32-14.54-.1-2.69.12-5.34 1-8.9 1.78.44-1.39-4.69-8.31-5.22-10.72-1.15-5.43-3.35-10.88-3.35-16.34 0-10.16-1.82-20.24-.36-30.5a100.11 100.11 0 0 0 .54-25.49c-.47-4.06 0-8.22 0-12.34 0-5.83-.27-11.66-.17-17.48 0-1.25 1.57-18.13 1.74-18.73.92-3.23 2-6.42 3-9.61.53-1.76 12.25-12.74 14.39-15.64 2.77-3.79 24-20.72 24.78-20.72 11.66.07 23.32-.08 35 .05 3.15 0 6.27 1 9.43 1.23 7.78.58 15.59.73 23.34 1.5 9.82 1 19.42-.79 29.1-1.67 2.53-.23 5.1 0 7.63-.18 6.16-.41 12.3-1 18.46-1.39 3.38-.23 6.77-.36 10.15-.41 9.21-.12 18.42-.29 27.63-.24 9.82 0 19.65.46 29.47.48 7.37 0 14.73-.36 22.1-.49a30.08 30.08 0 0 1 5.53.38c4.79.84 9.28-.36 13.85-1.55a35.72 35.72 0 0 1 8.39-1c5.89-.1 11.79.2 17.67.08a81.76 81.76 0 0 0 8.48-1 4 4 0 0 0 .92-.06c7.19-3 14.57-1.32 21.72-.28 3.67.54 7.17 3.11 10.44 5.22a61.67 61.67 0 0 1 16.22 14.52 62 62 0 0 1 11.87 29.66c1.48 11.4 2.09 23 .2 34.47-.74 4.52-.27 9.29-1.37 13.7-1.74 7-3.32 14.18-8.29 19.82-7.22 8.13-63.38 56.81-67.29 57.47zm-253.17-153.06a40.87 40.87 0 0 1 .41 5.1c-.29 4.92-.72 9.83-1.08 14.75-.25 3.36-.49 6.72-.7 10.08s-.38 6.65-.58 10q-.18 3-.44 6c0 .58-.29 1.15-.3 1.73 0 4.19.06 8.38 0 12.57 0 3-.09 6.06-.22 9.08-.2 4.5-.56 9-.67 13.49-.19 8.23-.28 16.45-.33 24.68a31.38 31.38 0 0 0 .49 6 23.82 23.82 0 0 0 1.56 4.68c.34.83.83 2.1 1.43 2.22a21.24 21.24 0 0 0 5.17.21c5.42-.27 10.83-.89 16.24-.9 9 0 17.94.32 26.9.59 2.79.09 3.52-.64 2.51-3.45-1.63-4.5-3.46-8.93-5.19-13.4-3.11-8-6.31-16-9.24-24.11-.46-1.27-.23-3.56.6-4.37s2.92-.83 4.35-.59c4.29.7 8.49 2.07 12.79 2.45 2.57.23 3.16 2.11 3.93 3.58.53 1-.23 2.8-.49 4.22-.19 1 7.12 19.23 10.16 23.78 2.36 3.55 2.18 11.78 3.18 11.79 5.7 0 11.41-.06 17.11-.17 3.37-.06 6.75-.08 10.11-.39 4.16-.39 8.29-1.07 12.44-1.6 4-.51 7.91-.92 11.84-1.56a2.53 2.53 0 0 0 1.42-1.86c.18-2.12 0-4.27.07-6.4.5-9.37 1.06-18.73 1.61-28.1a44.55 44.55 0 0 0 .36-5.14c-.39-7.2.22-25.21.41-27.09.48-4.67.66-9.37.86-14.07s.17-9.57.41-14.35c.33-6.71.81-13.41 1.26-20.69l-48.2 1.87a15.83 15.83 0 0 0 1 4q4.31 8 8.89 15.77c2.55 4.35-10 12.78-11.86 12-3.86-1.52-5.42-5.29-7-8.46-2.4-4.72-3.57-10.08-5.41-15.11-1.31-3.55-2.29-7.49-7.17-7.64-2.92-.08-5.84-.63-8.76-.77-11.57-.54-23.13-1.16-34.7-1.41-4.99-.13-9.99.65-15.17.99zm234.87 104.09c1.66.57 3.42 1.31 5.26 1.77 6.85 1.7 13.63 4.26 20.83 1.42a35.6 35.6 0 0 1 5.77-1.34c5-1.05 10.43 0 15.21-2.92 1.93-1.18 4.4-1.48 6.64-2.14a38.84 38.84 0 0 0 13-6.79 33 33 0 0 0 9.02-11.43c2.45-4.81 5.8-9 6.26-14.76.64-7.75 2.16-15.46 2.34-23.22a80.26 80.26 0 0 0 -1.89-19 48 48 0 0 0 -9.71-20.54c-2.89-3.48-4.66-7.62-9.46-10s-9.54-2.48-14.54-2.22c-8.19.49-16.37 1.25-24.57 1.64s-16.26.46-24.4.7c-5.37.16-7.49 1.73-7.27 6 .24 4.59 1 9.15 1.46 13.74.73 7.74 1.48 15.48 2 23.23.42 6.28.39 12.59.84 18.87.43 6.12 1.31 12.21 1.81 18.33.56 6.73 1 13.48 1.35 20.23.17 2.54.05 5.13.05 8.43zm-12.29 5c.83-.74 1.07-1.5-.25-15.67-.28-3.09-.6-6.62-1-11.76-.1-1.36-.2-2.72-.28-4.08-.29-4.88-.17-9.79-.56-14.66a6.45 6.45 0 0 0 -3.75-5.26c-3.46-1.73-6.36.93-10.6-.51-3.65-1.25-6.82-5-5.87-8.18a6.39 6.39 0 0 1 3.63-3.58 9.46 9.46 0 0 1 5.56-.4c5 .93 9.47-2.29 9.48-6.79s.39-9 .17-13.51c-.42-8.64-1.08-17.27-1.83-25.89a3.63 3.63 0 0 0 -2.19-2.66 64.48 64.48 0 0 0 -9.75-.87c-2.13 0-4.27.45-6.41.58-7.73.45-15.45 1-23.19 1.23-10.6.25-21.22.38-31.82.18-3.34-.06-5.42.19-6.63 1.22-1.42 1.2-1.48 3-1.48 5.13 0 5.37 0 8 .6 10.48.94 3.78 0 3.64-1 22.22-.53 10.08-.53 10.64-.94 23.24-.13 3.76-.39 7.51-.65 11.26-1.29 18-1.38 17.11-1.31 20.28.32 14 .41 22.38 4.34 24 1.92.77 3.1-.37 8.45-1.15 5.7-.84 11.38-1.75 17.08-2.57 3.4-.5 5.11-.73 5.75-.8 7.77-.82 11.84 0 18.49.15 10 .28 8.87-1.26 19.76-1.15s13.9 1.6 16.22-.45z"/><path d="m308.69 77.55c0-7.8-.24-15.62.13-23.41.14-3 1.63-5.86 2.62-8.76.17-.51.86-1.21 1.31-1.21 3.21 0 6.75-.62 9.52.55 1.78.75 3.12 3.56 2.89 6.78-.39 5.35.54 10.78.83 16.17.36 6.76.33 13.47-1.59 20.07-.56 1.93-1.34 3.1-3.33 3.38s-4.18 1.09-6.19.88c-4-.42-6.06-3-6.14-7.07-.05-2.46 0-4.92 0-7.38z"/><path d="m243.45 48c-2.34 5.42-5.66 8.64-11.76 8.52-3-.06-6 .85-8.91 1.51-2 .46-8.89-1.77-10-3.5-1.75-2.62.49-6.71 4-7.39 4.19-.8 8.36-1.72 12.57-2.37a10.35 10.35 0 0 1 3.89.54c3.31.77 6.59 1.69 10.21 2.69z"/><path d="m228.52 118.46c-4.56 0-9.13-.09-13.69 0-2.43.07-4.2-1-4.63-3.13-.25-1.2.94-2.77 1.65-4.08 2.38-4.36 6.75-3.34 10.56-3.8a22.65 22.65 0 0 1 5.17-.38c2 .23 4.28.52 5.73 1.67a6.41 6.41 0 0 1 2.12 4.92 4.82 4.82 0 0 1 -5.07 4.38 14.36 14.36 0 0 0 -1.83.25z"/></g></svg>