<?xml version="1.0" encoding="utf-8"?>
<!-- Generator: Adobe Illustrator 23.0.1, SVG Export Plug-In . SVG Version: 6.00 Build 0)  -->
<svg version="1.1" xmlns="http://www.w3.org/2000/svg" xmlns:xlink="http://www.w3.org/1999/xlink" x="0px" y="0px"
	 viewBox="0 0 800 581.39" style="enable-background:new 0 0 800 581.39;" xml:space="preserve">
<style type="text/css">
	.st0{fill:#F7D175;}
	.st1{display:none;}
	.st2{fill:#FFFFFF;}
	.st3{fill:#75ACC7;}
	.st4{display:inline;}
	.st5{display:inline;fill:#FFFFFF;}
	.st6{stroke:#000000;stroke-miterlimit:10;}
</style>
<g id="background">
	<g>
		<g>
			<path class="st2" d="M665.2,555.61c-210.68-0.46-421.35-0.91-632.03-1.37c-9.46-4.65-16.47-11.36-21.28-19.9l0,0
				c-7.21-12.03-9.17-25.5-9.77-34.21c0,0-0.01-0.13-0.03-0.3c-0.72-7.23-1.35-19.59-1.05-41.81c-2.1-162.15-0.72-280.4,1.34-291.06
				c1.48-7.63,3.25-14.85,3.25-14.85c1.5-5.99,2.74-9.99,3.57-13.22c4.95-19.27,65.69-89.46,79.28-97.39
				c18.14-10.58,36.24-9.05,43.77-9.27c120.38-3.51,180.57-5.27,258.77-4.43c79.81,0.86,306.25-6.74,368.75,2.97
				c5.31,0.83,14.68,2.59,22.84,9.61c20.44,17.56,17.77,52.1,16.54,68.49c0,0-6.74,89.79-5.59,230.63
				c0.13,16.27-0.38,34.61-1.4,71.28c-0.85,30.54-1.3,34.98-2.8,40.53c-3.85,14.29-91.1,76.1-107.13,88.71
				C675.62,545.25,669.98,550.56,665.2,555.61z M118.51,71.6c0.58,6.6-2.4,362.61-0.65,362.97c4.89,0.99,114.92-1.1,141.1-0.3
				c8.15,0.25,63.08-0.34,66-0.31c16.66,0.14,33.32-0.16,49.97-0.48c9.84-0.19,93.05,0.66,104.53-1.2c1.68-0.27,3.95-8,4.12-10
				c0.53-6.19,4.21-350.68,1.75-350.62c-45.59,1.25-91.53-1.96-135.82-0.24c0.88,3.73-45.93,0.43-60.16,0
				C280.8,71.16,133.64,70.51,118.51,71.6z M753.58,79.51c-0.25-2.82-3.65-7.28-6.38-7.77c-9.3-1.67-177.07,0.29-208.04-0.29
				c-9.75-0.18-15.82,0.56-19.36,3.56c-4.15,3.51-4.13,12.29-4.13,18.54c0,15.67-8.39,336.41,3.09,341.04
				c4.78,1.93,180.42,5.12,234.95,2.24C762.85,436.35,756.96,118.23,753.58,79.51z"/>
		</g>
	</g>
	<path class="st2" d="M670.83,165.23h-60.01c-9.04,0-16.43-7.39-16.43-16.43v0c0-9.04,7.39-16.43,16.43-16.43h60.01
		c9.04,0,16.43,7.39,16.43,16.43v0C687.25,157.84,679.86,165.23,670.83,165.23z"/>
	<path class="st2" d="M763.69,263.58h-60.01c-9.04,0-16.43-7.39-16.43-16.43v0c0-9.04,7.39-16.43,16.43-16.43h60.01
		c9.04,0,16.43,7.39,16.43,16.43v0C780.12,256.19,772.73,263.58,763.69,263.58z"/>
	<path class="st2" d="M670.83,353.79h-60.01c-9.04,0-16.43-7.39-16.43-16.43v0c0-9.04,7.39-16.43,16.43-16.43h60.01
		c9.04,0,16.43,7.39,16.43,16.43v0C687.25,346.4,679.86,353.79,670.83,353.79z"/>
	<path class="st2" d="M285.77,467.21l-56.7-167.29c-1.85-5.45,1.1-11.42,6.55-13.27l24.84-8.42c5.45-1.85,11.42,1.1,13.27,6.55
		l56.7,167.29c1.85,5.45-1.1,11.42-6.55,13.27l-24.84,8.42C293.59,475.61,287.62,472.66,285.77,467.21z"/>
	<path class="st2" d="M357.24,201.48L311.26,65.84c-1.68-4.96,1-10.39,5.96-12.07l26.63-9.03c4.96-1.68,10.39,1,12.07,5.96
		l45.97,135.65c1.68,4.96-1,10.39-5.96,12.07l-26.63,9.03C364.35,209.12,358.92,206.44,357.24,201.48z"/>
	<path class="st2" d="M740.79,233.7L740.79,233.7c3.74-1.25,8.79-3.2,14.39-6.3c7.61-4.2,8.84-6.4,10.8-5.85
		c8.51,2.39,5.81,49.88-2.86,51.25c-1.59,0.25-1.98-1.27-8.72-6.04c-8.68-6.14-10.46-5.34-14.09-9.06
		c-5.72-5.86-8.86-15.59-5.7-18.78c0.71-0.72,2.5-1.88,7.38-0.67"/>
</g>
<g id="Layer_1" class="st1">
</g>
<g id="Layer_2" class="st1">
</g>
</svg>
