<svg id="background" xmlns="http://www.w3.org/2000/svg" viewBox="0 0 383.71 201.69"><defs><style>.cls-1{fill:#fff;}</style></defs><title>nbd-logo-01</title><path class="cls-1" d="M296.34,191l-279.17-.47a20,20,0,0,1-9.4-6.82h0A22.25,22.25,0,0,1,3.45,172v-.1A101.86,101.86,0,0,1,3,157.56c-.93-55.52-.32-96,.59-99.66C4.22,55.28,5,52.81,5,52.81c.66-2.05,1.21-3.42,1.58-4.52,2.18-6.6,29-30.64,35-33.35a40.7,40.7,0,0,1,19.33-3.18c23.4,1,272.39-2.29,277.18-.5,4.51,1.69,14.73,5.63,23.73,14.31,16.4,15.82,18.26,37.28,19,45.34.07.91.2,2.37.3,4.26,1.42,27.71-12.58,49.2-17.77,57.06a113.44,113.44,0,0,1-32.79,32.39c-8.22,7-17.1,14.09-26.67,21Q300.09,188.39,296.34,191ZM43.09,25.24c.2,2.26-.82,124.17-.22,124.29,1.68.34,39.35-.38,48.32-.1,2.79.08,3.52-.65,2.5-3.45-1.62-4.51-3.45-8.94-5.19-13.4-3.11-8-9.46-27.68-8.63-28.48S92.71,105.57,97,106c2.56.22,15.78,43.35,16.78,43.36,5.7.05,11.4,0,17.11-.16,3.37-.07,31.86.22,35.79-.41.58-.1,1.35-2.74,1.41-3.43.18-2.12,1.44-120.08.6-120-15.61.43-31.34-.68-46.51-.09.3,1.28,8.13,19.13,11.18,24.34,2.54,4.34-10,12.78-11.87,12-3.85-1.52-15-36.21-19.91-36.36C98.67,25.09,48.28,24.87,43.09,25.24ZM270.74,149.62c2.93.4,32.6.6,39.26.11,5.38-.39,15.24-1,23.8-5.93,10.31-5.88,14.45-15.39,20.17-28.56a110,110,0,0,0,8.55-41.38c.07-6.1.18-11.77-1.89-19-1.9-6.6-5.31-19.15-15.85-24.81-4.87-2.61-10.15-3.17-19.43-4.15-2.1-.22-2.79-.23-10.6-.56-.34,0-12-.32-29.54-.24-4.37,0-11.18.13-13.62,4.24a5.93,5.93,0,0,0-.93,3.9c.24,4.6-.45,8.22,0,12.8C271.37,53.79,270.74,146.32,270.74,149.62ZM260.59,87.3a12.94,12.94,0,0,0-2.28-1c-7.31-2.52-12.19.83-15.78-2.31-.38-.33-1.36-4.55-.62-5.23s14.46-1.57,16.1-2.49a6.86,6.86,0,0,0,2.35-2.82c1.58-2.59,1.35-32.23.19-45.49a3.6,3.6,0,0,0-2.18-2.66c-3.19-.57-60.64.1-71.24-.1-3.34-.06-5.41.19-6.63,1.22-1.42,1.2-1.41,4.21-1.41,6.35,0,5.37-2.87,115.19,1.06,116.78,1.64.66,61.78,1.75,80.45.77C263.73,150.14,261.63,87.92,260.59,87.3Z"/><path class="cls-1" d="M300.19,58.68a2.85,2.85,0,0,1,2-1.21c4.85,0,10.19-.62,14.37.55a6.29,6.29,0,0,1,4.37,6.78c-.59,5.34,1.76,29.63-1.15,36.23-.85,1.93-2,3.1-5,3.39s-6.31,1.08-9.35.87c-6.05-.42-9.15-3-9.27-7.06-.07-2.46,0-4.93,0-7.39C296.08,90.84,298.7,61.57,300.19,58.68Z"/><path class="cls-1" d="M227.57,57.3c-3-.06-17.8-.26-18.95-2-1.74-2.63.49-6.72,4-7.39,4.19-.8,15.19-2.14,16.46-1.83C232.42,46.92,233.66,57.42,227.57,57.3Z"/><path class="cls-1" d="M206.08,118.39c-.25-1.55.93-3.59,1.65-5.28,2.37-5.63,20-4.73,21.46-3.24a9.56,9.56,0,0,1,2.12,6.35C231,119.47,206.51,121.08,206.08,118.39Z"/></svg>