<svg id="Layer_1" data-name="Layer 1" xmlns="http://www.w3.org/2000/svg" viewBox="0 0 847.68 344.69"><defs><style>.cls-1{fill:#070606;}.cls-2{fill:#3b98e0;}.cls-3{fill:#fc841a;}.cls-4{fill:#fff;}.cls-5{font-size:36px;font-family:Quicksand-Regular, Quicksand;}.cls-6{letter-spacing:0em;}.cls-7{letter-spacing:0em;}.cls-8{letter-spacing:0em;}</style></defs><title>opto-logo</title><rect class="cls-1" x="28.11" y="220.97" width="330.37" height="105.54"/><path class="cls-2" d="M83.1,62.47a7.85,7.85,0,0,1-6.29-12.55A9.38,9.38,0,1,0,87.09,61.38,7.85,7.85,0,0,1,83.1,62.47Z"/><path class="cls-3" d="M77.79,18.18h0A41.08,41.08,0,0,0,36.72,59.26h0a41.07,41.07,0,0,0,41.07,41.07c1.93,0,5.38.14,10.87.2,7.34.09,29.07-.1,30-2.32.2-.5.23-35.84.23-38.95A41.08,41.08,0,0,0,77.79,18.18Zm0,77.56a36.49,36.49,0,1,1,36.49-36.48A36.48,36.48,0,0,1,77.79,95.74Z"/><path class="cls-2" d="M77.79,77.27C60.31,77.27,49.9,63.2,48,60.38a2,2,0,0,1,0-2.24c1.91-2.82,12.32-16.89,29.8-16.89s27.9,14.07,29.81,16.89a2,2,0,0,1,0,2.24C105.69,63.2,95.27,77.27,77.79,77.27Zm-25.69-18c3,3.94,11.88,14,25.69,14s22.73-10.07,25.69-14c-3-3.95-11.87-14-25.69-14S55.06,55.31,52.1,59.26Z"/><path class="cls-2" d="M128.22,59.52V39.43h6.86c.56,0,1.11,0,1.65,0a11.91,11.91,0,0,1,1.59.2,8.07,8.07,0,0,1,1.52.46,7.13,7.13,0,0,1,1.44.81,6.06,6.06,0,0,1,1.65,1.77,10.51,10.51,0,0,1,1,2.21,12,12,0,0,1,.53,2.34,15.91,15.91,0,0,1,.16,2.19,15.75,15.75,0,0,1-.13,2,13.62,13.62,0,0,1-.4,2,10.69,10.69,0,0,1-.74,1.9,7.29,7.29,0,0,1-1.16,1.66,5.92,5.92,0,0,1-1.52,1.25,7.52,7.52,0,0,1-1.73.74,10.43,10.43,0,0,1-1.88.37c-.66.06-1.32.09-2,.09Zm1.9-1.61h4.55a16.72,16.72,0,0,0,2.41-.16,7.14,7.14,0,0,0,2.3-.76A4.7,4.7,0,0,0,141,55.62a7.51,7.51,0,0,0,1-1.89,10.54,10.54,0,0,0,.53-2.13,16.09,16.09,0,0,0,.15-2.15,18.9,18.9,0,0,0-.14-2.22,9,9,0,0,0-.53-2.15A7.06,7.06,0,0,0,141,43.21a5.52,5.52,0,0,0-1.73-1.41,5.93,5.93,0,0,0-2.12-.61,22.76,22.76,0,0,0-2.48-.14h-4.55Z"/><path class="cls-2" d="M149.87,59.52H148.2V45.07h1.67v2.71h.06a4.8,4.8,0,0,1,1.8-2.42,5.53,5.53,0,0,1,2.92-.68v1.81a4.86,4.86,0,0,0-2.35.45,3.87,3.87,0,0,0-1.46,1.28,5,5,0,0,0-.76,1.91,12.4,12.4,0,0,0-.21,2.31Z"/><path class="cls-2" d="M158.25,59.52V57.07h2v2.45Z"/><path class="cls-2" d="M173.17,59.52V39.43h7.26a10.58,10.58,0,0,1,3,.37,5.53,5.53,0,0,1,2.06,1,3.86,3.86,0,0,1,1.15,1.6,5.7,5.7,0,0,1,.37,2,5.5,5.5,0,0,1-.28,1.83A4.22,4.22,0,0,1,186,47.6a3.38,3.38,0,0,1-1,.8,4.25,4.25,0,0,1-1.18.41v0a4.58,4.58,0,0,1,3.11,1.65,5.36,5.36,0,0,1,1,3.35,6.53,6.53,0,0,1-.49,2.65,4.61,4.61,0,0,1-1.35,1.76,5.32,5.32,0,0,1-2.08,1,11,11,0,0,1-2.64.29Zm1.9-11.21h4.8a10.87,10.87,0,0,0,2.49-.25,4.3,4.3,0,0,0,1.61-.74,2.72,2.72,0,0,0,.88-1.2,4.62,4.62,0,0,0,.27-1.64,3.68,3.68,0,0,0-.31-1.6,2.38,2.38,0,0,0-1-1.06,4.86,4.86,0,0,0-1.74-.59,16.31,16.31,0,0,0-2.64-.18h-4.38Zm0,9.6h4.83a23.72,23.72,0,0,0,2.72-.14,5.12,5.12,0,0,0,1.91-.58A2.68,2.68,0,0,0,185.66,56a5,5,0,0,0,.38-2.11,4.18,4.18,0,0,0-.42-2,2.93,2.93,0,0,0-1.2-1.19,5.48,5.48,0,0,0-1.87-.57,17.79,17.79,0,0,0-2.43-.15h-5.05Z"/><path class="cls-2" d="M198.18,51.1l1.13-.17a4.15,4.15,0,0,0,1.07-.31.91.91,0,0,0,.52-.65,4.54,4.54,0,0,0,.1-.85,2.86,2.86,0,0,0-.83-2.11,3.82,3.82,0,0,0-2.77-.82,7.81,7.81,0,0,0-1.59.15,3.38,3.38,0,0,0-1.27.53,3,3,0,0,0-.9,1,4.47,4.47,0,0,0-.46,1.58h-1.7a5.2,5.2,0,0,1,.59-2.19,4.41,4.41,0,0,1,1.29-1.48,5.5,5.5,0,0,1,1.85-.84,9.23,9.23,0,0,1,2.21-.26,8.55,8.55,0,0,1,2.06.24,4.64,4.64,0,0,1,1.67.75,3.49,3.49,0,0,1,1.12,1.38,5,5,0,0,1,.4,2.12V57c0,.65.12,1.07.35,1.24s.7.14,1.41-.12v1.31l-.57.17a2.76,2.76,0,0,1-.74.11,3.16,3.16,0,0,1-.76-.09,1.23,1.23,0,0,1-.67-.26,1.76,1.76,0,0,1-.4-.5,2.25,2.25,0,0,1-.21-.65,4.23,4.23,0,0,1-.06-.73,7.1,7.1,0,0,1-5.38,2.4,6.58,6.58,0,0,1-1.83-.26,4.2,4.2,0,0,1-1.55-.78,3.91,3.91,0,0,1-1.06-1.29,4,4,0,0,1-.39-1.83q0-3.69,5.05-4.36Zm2.82.83a8.11,8.11,0,0,1-2.15.59c-.73.09-1.45.17-2.18.22a6.28,6.28,0,0,0-3,.87,2.46,2.46,0,0,0-1.07,2.2,2.34,2.34,0,0,0,.26,1.16,2.39,2.39,0,0,0,.7.81,3,3,0,0,0,1,.47,4.21,4.21,0,0,0,1.16.16,8,8,0,0,0,2-.25,5.39,5.39,0,0,0,1.68-.77,3.84,3.84,0,0,0,1.19-1.31,3.78,3.78,0,0,0,.45-1.89Z"/><path class="cls-2" d="M208.81,59.52h-1.67V45.07h1.67v2.71h.06a4.8,4.8,0,0,1,1.8-2.42,5.5,5.5,0,0,1,2.91-.68v1.81a4.8,4.8,0,0,0-2.34.45,3.9,3.9,0,0,0-1.47,1.28,5.16,5.16,0,0,0-.75,1.91,12.4,12.4,0,0,0-.21,2.31Z"/><path class="cls-2" d="M218.21,59.52h-1.67V39.43h1.67v8a5.18,5.18,0,0,1,2.22-2,6.75,6.75,0,0,1,2.95-.68,6.15,6.15,0,0,1,2.86.63,5.85,5.85,0,0,1,2,1.67,7.19,7.19,0,0,1,1.18,2.44,10.76,10.76,0,0,1,.39,2.91,11.87,11.87,0,0,1-.36,3,6.44,6.44,0,0,1-1.16,2.41,5.53,5.53,0,0,1-2,1.61,6.93,6.93,0,0,1-3,.59,5.46,5.46,0,0,1-1.42-.2,7,7,0,0,1-1.41-.56,5.53,5.53,0,0,1-1.26-.91,4.48,4.48,0,0,1-.93-1.26h-.06Zm0-7.28a9,9,0,0,0,.32,2.44,6,6,0,0,0,.94,2A4.33,4.33,0,0,0,221,57.93a4.51,4.51,0,0,0,2.1.48,5,5,0,0,0,2-.38,4.39,4.39,0,0,0,1.56-1.1,5,5,0,0,0,1-1.77,7.15,7.15,0,0,0,.38-2.42,9.54,9.54,0,0,0-.23-2.55,6,6,0,0,0-.89-2.08,4.56,4.56,0,0,0-1.58-1.41,4.72,4.72,0,0,0-2.24-.51,4.28,4.28,0,0,0-2,.48A4.77,4.77,0,0,0,219.51,48a5.87,5.87,0,0,0-1,1.92A8.1,8.1,0,0,0,218.21,52.24Z"/><path class="cls-2" d="M240,51.1l1.13-.17a4.15,4.15,0,0,0,1.07-.31.91.91,0,0,0,.52-.65,4.48,4.48,0,0,0,.09-.85A2.85,2.85,0,0,0,242,47a3.83,3.83,0,0,0-2.78-.82,8,8,0,0,0-1.59.15,3.52,3.52,0,0,0-1.27.53,3,3,0,0,0-.89,1,4.27,4.27,0,0,0-.46,1.58h-1.7a5.2,5.2,0,0,1,.58-2.19,4.55,4.55,0,0,1,1.3-1.48,5.53,5.53,0,0,1,1.84-.84,9.38,9.38,0,0,1,2.22-.26,8.41,8.41,0,0,1,2.05.24,4.77,4.77,0,0,1,1.68.75,3.47,3.47,0,0,1,1.11,1.38,5,5,0,0,1,.41,2.12V57c0,.65.11,1.07.35,1.24s.7.14,1.41-.12v1.31l-.58.17a2.71,2.71,0,0,1-.74.11,3.08,3.08,0,0,1-.75-.09,1.23,1.23,0,0,1-.67-.26,1.61,1.61,0,0,1-.4-.5,1.78,1.78,0,0,1-.21-.65,4.23,4.23,0,0,1-.06-.73,7.34,7.34,0,0,1-2.43,1.78,7.09,7.09,0,0,1-2.95.62,6.48,6.48,0,0,1-1.83-.26,4.2,4.2,0,0,1-1.55-.78,3.79,3.79,0,0,1-1.06-1.29,4,4,0,0,1-.39-1.83q0-3.69,5.05-4.36Zm2.81.83a7.91,7.91,0,0,1-2.15.59c-.72.09-1.45.17-2.17.22a6.21,6.21,0,0,0-3,.87,2.47,2.47,0,0,0-1.08,2.2,2.34,2.34,0,0,0,.27,1.16,2.39,2.39,0,0,0,.7.81,2.89,2.89,0,0,0,1,.47,4.16,4.16,0,0,0,1.16.16,7.9,7.9,0,0,0,1.95-.25,5.34,5.34,0,0,0,1.69-.77,3.94,3.94,0,0,0,1.19-1.31,3.88,3.88,0,0,0,.44-1.89Z"/><path class="cls-2" d="M250.67,59.52H249V45.07h1.68v2.71h.05a4.91,4.91,0,0,1,1.8-2.42,5.56,5.56,0,0,1,2.92-.68v1.81a4.8,4.8,0,0,0-2.34.45,3.82,3.82,0,0,0-1.47,1.28,5.16,5.16,0,0,0-.75,1.91,12.4,12.4,0,0,0-.21,2.31Z"/><path class="cls-2" d="M264.84,51.1l1.13-.17a4.12,4.12,0,0,0,1.08-.31.87.87,0,0,0,.51-.65,3.84,3.84,0,0,0,.1-.85,2.85,2.85,0,0,0-.82-2.11,3.85,3.85,0,0,0-2.78-.82,7.81,7.81,0,0,0-1.59.15,3.45,3.45,0,0,0-1.27.53,3,3,0,0,0-.89,1,4.27,4.27,0,0,0-.46,1.58h-1.71a5.35,5.35,0,0,1,.59-2.19,4.55,4.55,0,0,1,1.3-1.48,5.44,5.44,0,0,1,1.84-.84,9.38,9.38,0,0,1,2.22-.26,8.47,8.47,0,0,1,2.05.24,4.64,4.64,0,0,1,1.67.75,3.41,3.41,0,0,1,1.12,1.38,5,5,0,0,1,.41,2.12V57c0,.65.11,1.07.34,1.24s.71.14,1.41-.12v1.31l-.57.17a2.76,2.76,0,0,1-.74.11,3.08,3.08,0,0,1-.75-.09,1.23,1.23,0,0,1-.67-.26,1.8,1.8,0,0,1-.41-.5,2.25,2.25,0,0,1-.21-.65,5.58,5.58,0,0,1-.05-.73,7.34,7.34,0,0,1-2.43,1.78,7.14,7.14,0,0,1-3,.62,6.46,6.46,0,0,1-1.82-.26,4.12,4.12,0,0,1-1.55-.78,3.79,3.79,0,0,1-1.06-1.29,4,4,0,0,1-.39-1.83q0-3.69,5-4.36Zm2.82.83a8,8,0,0,1-2.15.59c-.72.09-1.45.17-2.17.22a6.21,6.21,0,0,0-3,.87,2.47,2.47,0,0,0-1.08,2.2,2.34,2.34,0,0,0,.27,1.16,2.37,2.37,0,0,0,.69.81,3,3,0,0,0,1,.47,4.16,4.16,0,0,0,1.16.16,7.9,7.9,0,0,0,1.95-.25,5.44,5.44,0,0,0,1.69-.77,3.75,3.75,0,0,0,1.63-3.2Z"/><path class="cls-2" d="M281.84,59.52V39.43h1.89V49.84L294,39.43h2.15l-7.92,8,9.32,12.08h-2.32l-8.37-10.91-3.16,3.16v7.75Z"/><path class="cls-2" d="M309.88,45.07h1.68V59.52h-1.68v-2a10.85,10.85,0,0,1-.75.8,5.68,5.68,0,0,1-1,.77,6,6,0,0,1-1.27.59,5.41,5.41,0,0,1-1.68.24,6.35,6.35,0,0,1-2.43-.41,4,4,0,0,1-1.57-1.13,4.53,4.53,0,0,1-.87-1.69,7.75,7.75,0,0,1-.26-2.1V45.07h1.67v9.49a4.22,4.22,0,0,0,.87,2.86,3.58,3.58,0,0,0,2.84,1,4.17,4.17,0,0,0,1.86-.41,3.78,3.78,0,0,0,1.38-1.13,5.29,5.29,0,0,0,.86-1.73,7.31,7.31,0,0,0,.31-2.2Z"/><path class="cls-2" d="M317.36,59.52h-1.67V45.07h1.67v2.71h.06a4.8,4.8,0,0,1,1.8-2.42,5.5,5.5,0,0,1,2.91-.68v1.81a4.8,4.8,0,0,0-2.34.45,3.9,3.9,0,0,0-1.47,1.28,5.16,5.16,0,0,0-.75,1.91,12.4,12.4,0,0,0-.21,2.31Z"/><path class="cls-2" d="M330,59.58c-.2,0-.47.1-.81.2a4.21,4.21,0,0,1-1.11.14,2.63,2.63,0,0,1-1.91-.63,3.05,3.05,0,0,1-.66-2.25V46.46h-2V45.07h2v-4h1.67v4h2.71v1.39h-2.71v9.91c0,.36,0,.66,0,.92a1.57,1.57,0,0,0,.17.64.83.83,0,0,0,.43.37,2.56,2.56,0,0,0,.83.11,4,4,0,0,0,.68-.06,5.12,5.12,0,0,0,.68-.14Z"/><path class="cls-2" d="M331.56,59.52V58.05l9.6-11.59h-9V45.07h11.1v1.48l-9.6,11.58h10v1.39Z"/><path class="cls-2" d="M148.13,91Q145,94.23,139,94.23T129.89,91q-4.23-4-4.23-11.48,0-7.65,4.23-11.48Q133,64.79,139,64.78T148.13,68q4.2,3.84,4.21,11.48T148.13,91Zm-3.64-4.23q2-2.55,2-7.25t-2-7.24A6.61,6.61,0,0,0,139,69.71a6.7,6.7,0,0,0-5.51,2.55c-1.38,1.7-2.06,4.12-2.06,7.25s.68,5.55,2.06,7.25A6.7,6.7,0,0,0,139,89.31,6.63,6.63,0,0,0,144.49,86.76Z"/><path class="cls-2" d="M173.64,75.09c1.68,1.78,2.52,4.38,2.52,7.82q0,5.43-2.46,8.29a8,8,0,0,1-6.34,2.85,6.63,6.63,0,0,1-4.1-1.23,7.92,7.92,0,0,1-1.75-2v10.72h-5.32V72.88h5.15v3a8.5,8.5,0,0,1,1.86-2.11,6.89,6.89,0,0,1,4.3-1.38A8.14,8.14,0,0,1,173.64,75.09ZM169.51,79A3.82,3.82,0,0,0,166,77.13a4.06,4.06,0,0,0-4.07,2.78,10.41,10.41,0,0,0-.57,3.73q0,3.6,1.93,5a4.38,4.38,0,0,0,2.71.85,4,4,0,0,0,3.46-1.73,9.1,9.1,0,0,0,.09-8.84Z"/><path class="cls-2" d="M177.84,76.9V73.07h2.87V67.33H186v5.74h3.34V76.9H186V87.78a2.45,2.45,0,0,0,.32,1.57,3.52,3.52,0,0,0,2,.32h.52l.53,0v4l-2.54.09c-2.55.09-4.28-.35-5.21-1.32a3.89,3.89,0,0,1-.91-2.85V76.9Z"/><path class="cls-2" d="M210,90.94c-1.74,2.15-4.37,3.22-7.91,3.22s-6.17-1.07-7.91-3.22a12.74,12.74,0,0,1,0-15.45c1.74-2.18,4.37-3.27,7.91-3.27s6.17,1.09,7.91,3.27a12.74,12.74,0,0,1,0,15.45Zm-4.3-3A7.83,7.83,0,0,0,207,83.2a7.77,7.77,0,0,0-1.26-4.76,4.78,4.78,0,0,0-7.26,0,7.71,7.71,0,0,0-1.28,4.76A7.76,7.76,0,0,0,198.43,88a4.76,4.76,0,0,0,7.26,0Z"/><path class="cls-2" d="M242.12,73a6,6,0,0,1,2.4,1.85,5.91,5.91,0,0,1,1.17,2.64,18.93,18.93,0,0,1,.19,3l0,13h-5.51V80.36a4.36,4.36,0,0,0-.38-1.93A2.69,2.69,0,0,0,237.31,77a3.1,3.1,0,0,0-3.08,1.85,5.78,5.78,0,0,0-.44,2.36V93.46h-5.41V81.21a6.88,6.88,0,0,0-.38-2.66,2.62,2.62,0,0,0-2.66-1.49,3.17,3.17,0,0,0-3.1,1.49,5.73,5.73,0,0,0-.43,2.53V93.46h-5.46V72.92h5.23v3a8.66,8.66,0,0,1,1.89-2.28,7.46,7.46,0,0,1,7.87-.17,6,6,0,0,1,1.77,2.47,6.86,6.86,0,0,1,2.63-2.66,8,8,0,0,1,3.7-.85A7.19,7.19,0,0,1,242.12,73Z"/><path class="cls-2" d="M264.23,73.3a8.4,8.4,0,0,1,3.56,3,10.18,10.18,0,0,1,1.64,4.26,26.54,26.54,0,0,1,.17,4.08h-15A4.92,4.92,0,0,0,256.77,89a5.43,5.43,0,0,0,3,.78,4.21,4.21,0,0,0,4.09-2.36h5.49a6.72,6.72,0,0,1-2,3.72,10,10,0,0,1-7.74,3,11.25,11.25,0,0,1-7.25-2.53q-3.14-2.53-3.14-8.24,0-5.36,2.83-8.2a9.94,9.94,0,0,1,7.36-2.85A11.75,11.75,0,0,1,264.23,73.3ZM256.18,78a5.53,5.53,0,0,0-1.43,3.18H264a4.52,4.52,0,0,0-1.43-3.25,4.74,4.74,0,0,0-3.2-1.11A4.24,4.24,0,0,0,256.18,78Z"/><path class="cls-2" d="M270.21,76.9V73.07h2.87V67.33h5.32v5.74h3.35V76.9H278.4V87.78a2.45,2.45,0,0,0,.32,1.57,3.52,3.52,0,0,0,2,.32h.52l.54,0v4l-2.55.09c-2.55.09-4.28-.35-5.21-1.32a3.89,3.89,0,0,1-.91-2.85V76.9Z"/><path class="cls-2" d="M296.63,72.4l.46,0v5.51c-.34,0-.64-.06-.9-.07s-.48,0-.65,0q-3.24,0-4.36,2.11a8.34,8.34,0,0,0-.62,3.66v9.84h-5.42V72.88h5.14v3.59a11.22,11.22,0,0,1,2.17-2.81,5.88,5.88,0,0,1,3.93-1.27Z"/><path class="cls-2" d="M305.78,70.43h-5.46v-5h5.46Zm-5.46,2.45h5.46V93.46h-5.46Z"/><path class="cls-2" d="M315.16,86.89a3.54,3.54,0,0,0,.74,2q1,1.08,3.72,1.08a5.62,5.62,0,0,0,2.53-.48,1.58,1.58,0,0,0,.18-2.79,30.58,30.58,0,0,0-5.63-1.62A11.81,11.81,0,0,1,311.76,83a4.7,4.7,0,0,1-1.43-3.7,6.37,6.37,0,0,1,2.24-4.9,9,9,0,0,1,6.31-2,11.56,11.56,0,0,1,6.29,1.54q2.43,1.53,2.79,5.31h-5.38a3.17,3.17,0,0,0-.59-1.64,3.69,3.69,0,0,0-3-1.1,4.42,4.42,0,0,0-2.51.55,1.59,1.59,0,0,0-.74,1.28,1.41,1.41,0,0,0,.79,1.35,36.2,36.2,0,0,0,5.62,1.49,10.28,10.28,0,0,1,4.82,2.28,5.16,5.16,0,0,1,1.58,3.87,6.26,6.26,0,0,1-2.27,5q-2.28,1.94-7.05,1.94t-7.18-2a6.66,6.66,0,0,1-2.32-5.22Z"/><path class="cls-2" d="M330.38,76.9V73.07h2.86V67.33h5.33v5.74h3.34V76.9h-3.34V87.78a2.45,2.45,0,0,0,.32,1.57,3.47,3.47,0,0,0,2,.32h.52l.54,0v4l-2.55.09q-3.81.14-5.21-1.32a3.93,3.93,0,0,1-.91-2.85V76.9Z"/><path d="M83.1,161.57A7.85,7.85,0,0,1,76.81,149a9.38,9.38,0,1,0,10.28,11.46A7.85,7.85,0,0,1,83.1,161.57Z"/><path d="M77.79,117.29h0a41.08,41.08,0,0,0-41.07,41.08h0a41.07,41.07,0,0,0,41.07,41.07c1.93,0,5.38.14,10.87.2,7.34.09,29.07-.11,30-2.33.2-.49.23-35.83.23-38.94A41.08,41.08,0,0,0,77.79,117.29Zm0,77.56a36.49,36.49,0,1,1,36.49-36.48A36.48,36.48,0,0,1,77.79,194.85Z"/><path d="M77.79,176.38c-17.48,0-27.89-14.07-29.8-16.89a2,2,0,0,1,0-2.25c1.91-2.82,12.32-16.89,29.8-16.89s27.9,14.07,29.81,16.89a2,2,0,0,1,0,2.25C105.69,162.31,95.27,176.38,77.79,176.38Zm-25.69-18c3,3.94,11.88,14,25.69,14s22.73-10.07,25.69-14c-3-4-11.87-14-25.69-14S55.06,154.42,52.1,158.37Z"/><path d="M128.22,158.63V138.54h6.86c.56,0,1.11,0,1.65,0a11.91,11.91,0,0,1,1.59.2,7.4,7.4,0,0,1,1.52.46,6.68,6.68,0,0,1,1.44.81,6.06,6.06,0,0,1,1.65,1.77,10.67,10.67,0,0,1,1,2.2,12.25,12.25,0,0,1,.53,2.35,15.91,15.91,0,0,1,.16,2.19,15.75,15.75,0,0,1-.13,2,13.88,13.88,0,0,1-.4,2,10.69,10.69,0,0,1-.74,1.9,7.52,7.52,0,0,1-1.16,1.66,5.92,5.92,0,0,1-1.52,1.25,7.52,7.52,0,0,1-1.73.74,9.62,9.62,0,0,1-1.88.36,18.81,18.81,0,0,1-2,.1Zm1.9-1.62h4.55a18.34,18.34,0,0,0,2.41-.15,6.94,6.94,0,0,0,2.3-.77,4.57,4.57,0,0,0,1.65-1.36,7.51,7.51,0,0,0,1-1.89,10.71,10.71,0,0,0,.53-2.13,16.21,16.21,0,0,0,.15-2.15,18.64,18.64,0,0,0-.14-2.22,9,9,0,0,0-.53-2.15,7.06,7.06,0,0,0-1.06-1.87,5.26,5.26,0,0,0-1.73-1.41,5.93,5.93,0,0,0-2.12-.61,22.76,22.76,0,0,0-2.48-.14h-4.55Z"/><path d="M149.87,158.63H148.2V144.18h1.67v2.7h.06a4.81,4.81,0,0,1,1.8-2.41,5.44,5.44,0,0,1,2.92-.68v1.81a4.86,4.86,0,0,0-2.35.45,3.78,3.78,0,0,0-1.46,1.28,5,5,0,0,0-.76,1.91,12.3,12.3,0,0,0-.21,2.3Z"/><path d="M158.25,158.63v-2.45h2v2.45Z"/><path d="M173.17,158.63V138.54h7.26a11,11,0,0,1,3,.36,5.7,5.7,0,0,1,2.06,1,3.86,3.86,0,0,1,1.15,1.6,5.66,5.66,0,0,1,.37,2.05,5.5,5.5,0,0,1-.28,1.83,4.05,4.05,0,0,1-.73,1.28,3.26,3.26,0,0,1-1,.81,4.25,4.25,0,0,1-1.18.41V148a4.58,4.58,0,0,1,3.11,1.65,5.36,5.36,0,0,1,1,3.35,6.56,6.56,0,0,1-.49,2.65,4.69,4.69,0,0,1-1.35,1.76,5.62,5.62,0,0,1-2.08,1,11.54,11.54,0,0,1-2.64.29Zm1.9-11.22h4.8a10.33,10.33,0,0,0,2.49-.25,4,4,0,0,0,1.61-.74,2.62,2.62,0,0,0,.88-1.2,4.53,4.53,0,0,0,.27-1.63,3.65,3.65,0,0,0-.31-1.6,2.38,2.38,0,0,0-1-1.06,4.86,4.86,0,0,0-1.74-.59,16.31,16.31,0,0,0-2.64-.18h-4.38Zm0,9.6h4.83a21.64,21.64,0,0,0,2.72-.14,5,5,0,0,0,1.91-.57,2.75,2.75,0,0,0,1.13-1.23A5,5,0,0,0,186,153a4.25,4.25,0,0,0-.42-2,2.9,2.9,0,0,0-1.2-1.18,5.48,5.48,0,0,0-1.87-.57,16.24,16.24,0,0,0-2.43-.16h-5.05Z"/><path d="M198.18,150.2c.31,0,.69-.09,1.13-.16a4.59,4.59,0,0,0,1.07-.31.9.9,0,0,0,.52-.66,4.45,4.45,0,0,0,.1-.85,2.85,2.85,0,0,0-.83-2.1,3.82,3.82,0,0,0-2.77-.83,7.14,7.14,0,0,0-1.59.16,3.38,3.38,0,0,0-1.27.53,2.91,2.91,0,0,0-.9,1,4.47,4.47,0,0,0-.46,1.58h-1.7a5.12,5.12,0,0,1,.59-2.19,4.31,4.31,0,0,1,1.29-1.48,5.5,5.5,0,0,1,1.85-.84,9.23,9.23,0,0,1,2.21-.26,9.09,9.09,0,0,1,2.06.23,4.65,4.65,0,0,1,1.67.76,3.49,3.49,0,0,1,1.12,1.38,5,5,0,0,1,.4,2.12v7.87c0,.65.12,1.06.35,1.24s.7.14,1.41-.13v1.32l-.57.16a2.43,2.43,0,0,1-.74.12,3.16,3.16,0,0,1-.76-.09,1.31,1.31,0,0,1-.67-.26,1.68,1.68,0,0,1-.4-.51,2.09,2.09,0,0,1-.21-.64,4.35,4.35,0,0,1-.06-.74,7,7,0,0,1-5.38,2.4,6.57,6.57,0,0,1-1.83-.25,4.53,4.53,0,0,1-1.55-.78,3.78,3.78,0,0,1-1.45-3.12q0-3.69,5.05-4.36ZM201,151a8.11,8.11,0,0,1-2.15.59c-.73.09-1.45.17-2.18.22a6.06,6.06,0,0,0-3,.87,2.46,2.46,0,0,0-1.07,2.2,2.37,2.37,0,0,0,.26,1.16,2.6,2.6,0,0,0,.7.81,3,3,0,0,0,1,.47,4.21,4.21,0,0,0,1.16.16,7.59,7.59,0,0,0,2-.26,5.15,5.15,0,0,0,1.68-.76,3.93,3.93,0,0,0,1.19-1.31,3.78,3.78,0,0,0,.45-1.89Z"/><path d="M208.81,158.63h-1.67V144.18h1.67v2.7h.06a4.81,4.81,0,0,1,1.8-2.41,5.4,5.4,0,0,1,2.91-.68v1.81a4.8,4.8,0,0,0-2.34.45,3.81,3.81,0,0,0-1.47,1.28,5.16,5.16,0,0,0-.75,1.91,12.3,12.3,0,0,0-.21,2.3Z"/><path d="M218.21,158.63h-1.67V138.54h1.67v8a5.22,5.22,0,0,1,2.22-2,6.61,6.61,0,0,1,2.95-.68,6.28,6.28,0,0,1,2.86.62,5.87,5.87,0,0,1,2,1.68,7.19,7.19,0,0,1,1.18,2.44,10.74,10.74,0,0,1,.39,2.9,12,12,0,0,1-.36,3,6.51,6.51,0,0,1-1.16,2.41,5.53,5.53,0,0,1-2,1.61,6.93,6.93,0,0,1-3,.58,5.44,5.44,0,0,1-1.42-.19,7,7,0,0,1-1.41-.56,5.53,5.53,0,0,1-1.26-.91,4.39,4.39,0,0,1-.93-1.27h-.06Zm0-7.28a9.05,9.05,0,0,0,.32,2.44,6,6,0,0,0,.94,2A4.36,4.36,0,0,0,221,157a4.51,4.51,0,0,0,2.1.48,5,5,0,0,0,2-.38,4.39,4.39,0,0,0,1.56-1.1,5.2,5.2,0,0,0,1-1.77,7.19,7.19,0,0,0,.38-2.42,9.54,9.54,0,0,0-.23-2.55,5.93,5.93,0,0,0-.89-2.08,4.37,4.37,0,0,0-1.58-1.41,4.72,4.72,0,0,0-2.24-.52,4.28,4.28,0,0,0-2,.49,4.74,4.74,0,0,0-1.54,1.31,5.92,5.92,0,0,0-1,1.93A8.05,8.05,0,0,0,218.21,151.35Z"/><path d="M240,150.2c.31,0,.69-.09,1.13-.16a4.59,4.59,0,0,0,1.07-.31.9.9,0,0,0,.52-.66,4.39,4.39,0,0,0,.09-.85,2.84,2.84,0,0,0-.82-2.1,3.83,3.83,0,0,0-2.78-.83,7.26,7.26,0,0,0-1.59.16,3.52,3.52,0,0,0-1.27.53,2.88,2.88,0,0,0-.89,1,4.27,4.27,0,0,0-.46,1.58h-1.7a5.12,5.12,0,0,1,.58-2.19,4.45,4.45,0,0,1,1.3-1.48,5.53,5.53,0,0,1,1.84-.84,9.38,9.38,0,0,1,2.22-.26,8.94,8.94,0,0,1,2.05.23,4.78,4.78,0,0,1,1.68.76,3.47,3.47,0,0,1,1.11,1.38,5,5,0,0,1,.41,2.12v7.87c0,.65.11,1.06.35,1.24s.7.14,1.41-.13v1.32l-.58.16a2.39,2.39,0,0,1-.74.12,3.08,3.08,0,0,1-.75-.09,1.31,1.31,0,0,1-.67-.26,1.54,1.54,0,0,1-.4-.51,1.67,1.67,0,0,1-.21-.64,4.35,4.35,0,0,1-.06-.74,7.37,7.37,0,0,1-2.43,1.79,7.08,7.08,0,0,1-2.95.61,6.47,6.47,0,0,1-1.83-.25,4.53,4.53,0,0,1-1.55-.78,3.82,3.82,0,0,1-1.06-1.3,4,4,0,0,1-.39-1.82q0-3.69,5.05-4.36Zm2.81.84a7.91,7.91,0,0,1-2.15.59c-.72.09-1.45.17-2.17.22a6,6,0,0,0-3,.87,2.47,2.47,0,0,0-1.08,2.2,2.37,2.37,0,0,0,.27,1.16,2.6,2.6,0,0,0,.7.81,2.89,2.89,0,0,0,1,.47,4.16,4.16,0,0,0,1.16.16,7.45,7.45,0,0,0,1.95-.26,5.11,5.11,0,0,0,1.69-.76,4,4,0,0,0,1.19-1.31,3.88,3.88,0,0,0,.44-1.89Z"/><path d="M250.67,158.63H249V144.18h1.68v2.7h.05a4.93,4.93,0,0,1,1.8-2.41,5.47,5.47,0,0,1,2.92-.68v1.81a4.8,4.8,0,0,0-2.34.45,3.74,3.74,0,0,0-1.47,1.28,5.16,5.16,0,0,0-.75,1.91,12.3,12.3,0,0,0-.21,2.3Z"/><path d="M264.84,150.2c.32,0,.7-.09,1.13-.16a4.54,4.54,0,0,0,1.08-.31.87.87,0,0,0,.51-.66,3.77,3.77,0,0,0,.1-.85,2.84,2.84,0,0,0-.82-2.1,3.85,3.85,0,0,0-2.78-.83,7.14,7.14,0,0,0-1.59.16,3.45,3.45,0,0,0-1.27.53,2.88,2.88,0,0,0-.89,1,4.27,4.27,0,0,0-.46,1.58h-1.71a5.27,5.27,0,0,1,.59-2.19,4.45,4.45,0,0,1,1.3-1.48,5.44,5.44,0,0,1,1.84-.84,9.38,9.38,0,0,1,2.22-.26,9,9,0,0,1,2.05.23,4.65,4.65,0,0,1,1.67.76,3.41,3.41,0,0,1,1.12,1.38,5,5,0,0,1,.41,2.12v7.87c0,.65.11,1.06.34,1.24s.71.14,1.41-.13v1.32l-.57.16a2.43,2.43,0,0,1-.74.12,3.08,3.08,0,0,1-.75-.09,1.31,1.31,0,0,1-.67-.26A1.71,1.71,0,0,1,268,158a2.09,2.09,0,0,1-.21-.64,5.74,5.74,0,0,1-.05-.74,7.37,7.37,0,0,1-2.43,1.79,7.13,7.13,0,0,1-3,.61,6.45,6.45,0,0,1-1.82-.25,4.44,4.44,0,0,1-1.55-.78,3.82,3.82,0,0,1-1.06-1.3,4,4,0,0,1-.39-1.82q0-3.69,5-4.36Zm2.82.84a8,8,0,0,1-2.15.59c-.72.09-1.45.17-2.17.22a6,6,0,0,0-3,.87,2.47,2.47,0,0,0-1.08,2.2,2.37,2.37,0,0,0,.27,1.16,2.57,2.57,0,0,0,.69.81,3,3,0,0,0,1,.47,4.16,4.16,0,0,0,1.16.16,7.45,7.45,0,0,0,1.95-.26,5.2,5.2,0,0,0,1.69-.76,3.9,3.9,0,0,0,1.18-1.31,3.78,3.78,0,0,0,.45-1.89Z"/><path d="M281.84,158.63V138.54h1.89V149L294,138.54h2.15l-7.92,8,9.32,12.08h-2.32l-8.37-10.91-3.16,3.15v7.76Z"/><path d="M309.88,144.18h1.68v14.45h-1.68v-2q-.33.39-.75.81a5.68,5.68,0,0,1-1,.77,6,6,0,0,1-1.27.59,5.73,5.73,0,0,1-1.68.23,6.37,6.37,0,0,1-2.43-.4,4,4,0,0,1-1.57-1.13,4.61,4.61,0,0,1-.87-1.69,7.77,7.77,0,0,1-.26-2.11v-9.51h1.67v9.49a4.22,4.22,0,0,0,.87,2.86,3.58,3.58,0,0,0,2.84,1,4.17,4.17,0,0,0,1.86-.41,3.78,3.78,0,0,0,1.38-1.13,5.29,5.29,0,0,0,.86-1.73,7.31,7.31,0,0,0,.31-2.2Z"/><path d="M317.36,158.63h-1.67V144.18h1.67v2.7h.06a4.81,4.81,0,0,1,1.8-2.41,5.4,5.4,0,0,1,2.91-.68v1.81a4.8,4.8,0,0,0-2.34.45,3.81,3.81,0,0,0-1.47,1.28,5.16,5.16,0,0,0-.75,1.91,12.3,12.3,0,0,0-.21,2.3Z"/><path d="M330,158.69c-.2,0-.47.1-.81.19a3.83,3.83,0,0,1-1.11.14,2.68,2.68,0,0,1-1.91-.62,3.05,3.05,0,0,1-.66-2.25V145.57h-2v-1.39h2v-4h1.67v4h2.71v1.39h-2.71v9.91c0,.35,0,.66,0,.92a1.62,1.62,0,0,0,.17.64.77.77,0,0,0,.43.36,2.28,2.28,0,0,0,.83.12,4,4,0,0,0,.68-.06c.23,0,.46-.08.68-.14Z"/><path d="M331.56,158.63v-1.48l9.6-11.58h-9v-1.39h11.1v1.48l-9.6,11.58h10v1.39Z"/><path d="M148.13,190.1q-3.16,3.24-9.12,3.24t-9.12-3.24q-4.23-4-4.23-11.48,0-7.65,4.23-11.48,3.15-3.25,9.12-3.25t9.12,3.25q4.2,3.83,4.21,11.48Q152.34,186.11,148.13,190.1Zm-3.64-4.23q2-2.55,2-7.25c0-3.12-.68-5.54-2-7.24a6.61,6.61,0,0,0-5.48-2.56,6.7,6.7,0,0,0-5.51,2.55c-1.38,1.7-2.06,4.11-2.06,7.25s.68,5.55,2.06,7.25a6.7,6.7,0,0,0,5.51,2.54A6.62,6.62,0,0,0,144.49,185.87Z"/><path d="M173.64,174.2q2.52,2.66,2.52,7.82,0,5.43-2.46,8.28a8,8,0,0,1-6.34,2.85,6.69,6.69,0,0,1-4.1-1.22,8,8,0,0,1-1.75-2v10.73h-5.32V172h5.15v3a8.5,8.5,0,0,1,1.86-2.11,6.89,6.89,0,0,1,4.3-1.38A8.14,8.14,0,0,1,173.64,174.2Zm-4.13,3.87a3.82,3.82,0,0,0-3.55-1.83,4.05,4.05,0,0,0-4.07,2.77,10.51,10.51,0,0,0-.57,3.74q0,3.58,1.93,5a4.38,4.38,0,0,0,2.71.85,3.94,3.94,0,0,0,3.46-1.74,9.08,9.08,0,0,0,.09-8.83Z"/><path d="M177.84,176v-3.83h2.87v-5.74H186v5.74h3.34V176H186v10.88a2.47,2.47,0,0,0,.32,1.57,3.55,3.55,0,0,0,2,.31h.52l.53,0v4l-2.54.09c-2.55.09-4.28-.35-5.21-1.32a3.92,3.92,0,0,1-.91-2.85V176Z"/><path d="M210,190.05c-1.74,2.14-4.37,3.22-7.91,3.22s-6.17-1.08-7.91-3.22a12.75,12.75,0,0,1,0-15.46c1.74-2.17,4.37-3.26,7.91-3.26s6.17,1.09,7.91,3.26a12.75,12.75,0,0,1,0,15.46Zm-4.3-3a9.64,9.64,0,0,0,0-9.53,4.78,4.78,0,0,0-7.26,0,9.51,9.51,0,0,0,0,9.53,4.78,4.78,0,0,0,7.26,0Z"/><path d="M242.12,172.07a6,6,0,0,1,2.4,1.85,5.86,5.86,0,0,1,1.17,2.64,18.93,18.93,0,0,1,.19,3l0,13h-5.51v-13.1a4.33,4.33,0,0,0-.38-1.93,2.67,2.67,0,0,0-2.64-1.43,3.09,3.09,0,0,0-3.08,1.85,5.78,5.78,0,0,0-.44,2.36v12.25h-5.41V180.32a7,7,0,0,0-.38-2.67,2.64,2.64,0,0,0-2.66-1.49,3.19,3.19,0,0,0-3.1,1.49,5.76,5.76,0,0,0-.43,2.53v12.39h-5.46V172h5.23v3a8.66,8.66,0,0,1,1.89-2.28,6.43,6.43,0,0,1,4.06-1.21,6.36,6.36,0,0,1,3.81,1,6,6,0,0,1,1.77,2.47,6.79,6.79,0,0,1,2.63-2.66,8,8,0,0,1,3.7-.85A7,7,0,0,1,242.12,172.07Z"/><path d="M264.23,172.41a8.4,8.4,0,0,1,3.56,3,10.13,10.13,0,0,1,1.64,4.26,26.54,26.54,0,0,1,.17,4.08h-15a4.93,4.93,0,0,0,2.15,4.34,5.43,5.43,0,0,0,3,.78,4.21,4.21,0,0,0,4.09-2.36h5.49a6.66,6.66,0,0,1-2,3.71,10,10,0,0,1-7.74,3,11.21,11.21,0,0,1-7.25-2.54c-2.09-1.68-3.14-4.43-3.14-8.23q0-5.35,2.83-8.2a9.91,9.91,0,0,1,7.36-2.86A11.59,11.59,0,0,1,264.23,172.41Zm-8.05,4.65a5.53,5.53,0,0,0-1.43,3.18H264a4.52,4.52,0,0,0-1.43-3.25,4.74,4.74,0,0,0-3.2-1.11A4.24,4.24,0,0,0,256.18,177.06Z"/><path d="M270.21,176v-3.83h2.87v-5.74h5.32v5.74h3.35V176H278.4v10.88a2.47,2.47,0,0,0,.32,1.57,3.55,3.55,0,0,0,2,.31h.52l.54,0v4l-2.55.09c-2.55.09-4.28-.35-5.21-1.32a3.92,3.92,0,0,1-.91-2.85V176Z"/><path d="M296.63,171.51l.46,0v5.51l-.9-.08h-.65q-3.24,0-4.36,2.11a8.28,8.28,0,0,0-.62,3.66v9.84h-5.42V172h5.14v3.59a11.52,11.52,0,0,1,2.17-2.82,5.92,5.92,0,0,1,3.93-1.26Z"/><path d="M305.78,169.54h-5.46v-5h5.46ZM300.32,172h5.46v20.58h-5.46Z"/><path d="M315.16,186a3.57,3.57,0,0,0,.74,2c.67.71,1.91,1.07,3.72,1.07a5.63,5.63,0,0,0,2.53-.47,1.58,1.58,0,0,0,.18-2.79,30.2,30.2,0,0,0-5.63-1.63,11.56,11.56,0,0,1-4.94-2.17,4.69,4.69,0,0,1-1.43-3.7,6.4,6.4,0,0,1,2.24-4.9,9,9,0,0,1,6.31-2,11.65,11.65,0,0,1,6.29,1.53q2.43,1.55,2.79,5.32h-5.38a3.17,3.17,0,0,0-.59-1.64,3.69,3.69,0,0,0-3-1.1,4.34,4.34,0,0,0-2.51.55,1.58,1.58,0,0,0-.74,1.28,1.39,1.39,0,0,0,.79,1.34,33.84,33.84,0,0,0,5.62,1.49,10.38,10.38,0,0,1,4.82,2.29,5.16,5.16,0,0,1,1.58,3.87,6.26,6.26,0,0,1-2.27,5q-2.28,1.93-7.05,1.94c-3.24,0-5.63-.69-7.18-2.05A6.69,6.69,0,0,1,309.7,186Z"/><path d="M330.38,176v-3.83h2.86v-5.74h5.33v5.74h3.34V176h-3.34v10.88a2.47,2.47,0,0,0,.32,1.57,3.5,3.5,0,0,0,2,.31h.52l.54,0v4l-2.55.09q-3.81.14-5.21-1.32a4,4,0,0,1-.91-2.85V176Z"/><path class="cls-4" d="M83.1,274.71a7.85,7.85,0,0,1-6.29-12.55,9.38,9.38,0,1,0,10.28,11.45A7.76,7.76,0,0,1,83.1,274.71Z"/><path class="cls-4" d="M77.79,230.42h0A41.08,41.08,0,0,0,36.72,271.5h0a41.07,41.07,0,0,0,41.07,41.07c1.93,0,5.38.14,10.87.2,7.34.09,29.07-.1,30-2.32.2-.5.23-35.84.23-38.95A41.08,41.08,0,0,0,77.79,230.42Zm0,77.56a36.49,36.49,0,1,1,36.49-36.48A36.48,36.48,0,0,1,77.79,308Z"/><path class="cls-4" d="M77.79,289.51c-17.48,0-27.89-14.07-29.8-16.89a2,2,0,0,1,0-2.24c1.91-2.82,12.32-16.89,29.8-16.89s27.9,14.07,29.81,16.89a2,2,0,0,1,0,2.24C105.69,275.44,95.27,289.51,77.79,289.51Zm-25.69-18c3,3.94,11.88,14,25.69,14s22.73-10.07,25.69-14c-3-3.95-11.87-14-25.69-14S55.06,267.55,52.1,271.5Z"/><path class="cls-4" d="M128.22,271.76V251.67h6.86c.56,0,1.11,0,1.65,0a11.91,11.91,0,0,1,1.59.2,8.07,8.07,0,0,1,1.52.46,6.68,6.68,0,0,1,1.44.81,6.06,6.06,0,0,1,1.65,1.77,10.51,10.51,0,0,1,1,2.21,12,12,0,0,1,.53,2.34,15.91,15.91,0,0,1,.16,2.19,15.75,15.75,0,0,1-.13,2,13.62,13.62,0,0,1-.4,2,10.69,10.69,0,0,1-.74,1.9,7.29,7.29,0,0,1-1.16,1.66,5.92,5.92,0,0,1-1.52,1.25,7.52,7.52,0,0,1-1.73.74,10.43,10.43,0,0,1-1.88.37c-.66.06-1.32.09-2,.09Zm1.9-1.61h4.55a18.28,18.28,0,0,0,2.41-.16,6.94,6.94,0,0,0,2.3-.77,4.57,4.57,0,0,0,1.65-1.36,7.51,7.51,0,0,0,1-1.89,10.71,10.71,0,0,0,.53-2.13,16.09,16.09,0,0,0,.15-2.15,18.77,18.77,0,0,0-.14-2.22,9,9,0,0,0-.53-2.15,7.06,7.06,0,0,0-1.06-1.87,5.52,5.52,0,0,0-1.73-1.41,5.93,5.93,0,0,0-2.12-.61,22.76,22.76,0,0,0-2.48-.14h-4.55Z"/><path class="cls-4" d="M149.87,271.76H148.2V257.31h1.67V260h.06a4.8,4.8,0,0,1,1.8-2.42,5.53,5.53,0,0,1,2.92-.68v1.81a4.86,4.86,0,0,0-2.35.45,3.87,3.87,0,0,0-1.46,1.28,5,5,0,0,0-.76,1.91,12.4,12.4,0,0,0-.21,2.31Z"/><path class="cls-4" d="M158.25,271.76v-2.45h2v2.45Z"/><path class="cls-4" d="M173.17,271.76V251.67h7.26a10.58,10.58,0,0,1,3,.37,5.53,5.53,0,0,1,2.06,1,3.86,3.86,0,0,1,1.15,1.6,5.7,5.7,0,0,1,.37,2.05,5.5,5.5,0,0,1-.28,1.83,4.05,4.05,0,0,1-.73,1.28,3.26,3.26,0,0,1-1,.81,4.25,4.25,0,0,1-1.18.41v.05a4.58,4.58,0,0,1,3.11,1.65,5.36,5.36,0,0,1,1,3.35,6.56,6.56,0,0,1-.49,2.65,4.61,4.61,0,0,1-1.35,1.76,5.46,5.46,0,0,1-2.08,1,11,11,0,0,1-2.64.29Zm1.9-11.21h4.8a10.87,10.87,0,0,0,2.49-.25,4.3,4.3,0,0,0,1.61-.74,2.72,2.72,0,0,0,.88-1.2,4.62,4.62,0,0,0,.27-1.64,3.68,3.68,0,0,0-.31-1.6,2.38,2.38,0,0,0-1-1.06,4.86,4.86,0,0,0-1.74-.59,16.31,16.31,0,0,0-2.64-.18h-4.38Zm0,9.6h4.83a23.72,23.72,0,0,0,2.72-.14,5.12,5.12,0,0,0,1.91-.58,2.68,2.68,0,0,0,1.13-1.22,5,5,0,0,0,.38-2.11,4.18,4.18,0,0,0-.42-2,2.87,2.87,0,0,0-1.2-1.19,5.48,5.48,0,0,0-1.87-.57,17.68,17.68,0,0,0-2.43-.16h-5.05Z"/><path class="cls-4" d="M198.18,263.34l1.13-.17a4.15,4.15,0,0,0,1.07-.31.91.91,0,0,0,.52-.65,4.54,4.54,0,0,0,.1-.85,2.86,2.86,0,0,0-.83-2.11,3.82,3.82,0,0,0-2.77-.82,7.81,7.81,0,0,0-1.59.15,3.38,3.38,0,0,0-1.27.53,3,3,0,0,0-.9,1,4.47,4.47,0,0,0-.46,1.58h-1.7a5.12,5.12,0,0,1,.59-2.19,4.41,4.41,0,0,1,1.29-1.48,5.5,5.5,0,0,1,1.85-.84,9.23,9.23,0,0,1,2.21-.26,8.55,8.55,0,0,1,2.06.24,4.64,4.64,0,0,1,1.67.75,3.49,3.49,0,0,1,1.12,1.38,5,5,0,0,1,.4,2.12v7.87c0,.65.12,1.07.35,1.24s.7.14,1.41-.12v1.31l-.57.17a2.76,2.76,0,0,1-.74.11,3.16,3.16,0,0,1-.76-.09,1.23,1.23,0,0,1-.67-.26,1.76,1.76,0,0,1-.4-.5,2.25,2.25,0,0,1-.21-.65,4.27,4.27,0,0,1-.06-.74,7,7,0,0,1-5.38,2.4,6.57,6.57,0,0,1-1.83-.25,4.2,4.2,0,0,1-1.55-.78,3.84,3.84,0,0,1-1.06-1.3,4,4,0,0,1-.39-1.82q0-3.69,5.05-4.36Zm2.82.83a8.11,8.11,0,0,1-2.15.59c-.73.09-1.45.17-2.18.22a6.17,6.17,0,0,0-3,.87,2.46,2.46,0,0,0-1.07,2.2,2.34,2.34,0,0,0,.26,1.16,2.39,2.39,0,0,0,.7.81,3,3,0,0,0,1,.47,4.21,4.21,0,0,0,1.16.16,8,8,0,0,0,2-.25,5.39,5.39,0,0,0,1.68-.77,3.84,3.84,0,0,0,1.19-1.31,3.78,3.78,0,0,0,.45-1.89Z"/><path class="cls-4" d="M208.81,271.76h-1.67V257.31h1.67V260h.06a4.8,4.8,0,0,1,1.8-2.42,5.5,5.5,0,0,1,2.91-.68v1.81a4.8,4.8,0,0,0-2.34.45,3.9,3.9,0,0,0-1.47,1.28,5.16,5.16,0,0,0-.75,1.91,12.4,12.4,0,0,0-.21,2.31Z"/><path class="cls-4" d="M218.21,271.76h-1.67V251.67h1.67v8a5.18,5.18,0,0,1,2.22-2,6.75,6.75,0,0,1,2.95-.68,6.15,6.15,0,0,1,2.86.63,5.74,5.74,0,0,1,2,1.67,7.19,7.19,0,0,1,1.18,2.44,10.74,10.74,0,0,1,.39,2.9,12,12,0,0,1-.36,3A6.44,6.44,0,0,1,228.3,270a5.53,5.53,0,0,1-2,1.61,6.93,6.93,0,0,1-3,.58,5.44,5.44,0,0,1-1.42-.19,7,7,0,0,1-1.41-.56,5.53,5.53,0,0,1-1.26-.91,4.39,4.39,0,0,1-.93-1.27h-.06Zm0-7.28a9,9,0,0,0,.32,2.44,6,6,0,0,0,.94,2,4.44,4.44,0,0,0,1.53,1.29,4.51,4.51,0,0,0,2.1.48,5,5,0,0,0,2-.38,4.39,4.39,0,0,0,1.56-1.1,5.11,5.11,0,0,0,1-1.77A7.19,7.19,0,0,0,228,265a9.54,9.54,0,0,0-.23-2.55,6,6,0,0,0-.89-2.08,4.56,4.56,0,0,0-1.58-1.41,4.72,4.72,0,0,0-2.24-.51,4.28,4.28,0,0,0-2,.48,4.77,4.77,0,0,0-1.54,1.32,5.87,5.87,0,0,0-1,1.92A8.1,8.1,0,0,0,218.21,264.48Z"/><path class="cls-4" d="M240,263.34l1.13-.17a4.15,4.15,0,0,0,1.07-.31.91.91,0,0,0,.52-.65,4.48,4.48,0,0,0,.09-.85,2.85,2.85,0,0,0-.82-2.11,3.83,3.83,0,0,0-2.78-.82,8,8,0,0,0-1.59.15,3.52,3.52,0,0,0-1.27.53,3,3,0,0,0-.89,1,4.27,4.27,0,0,0-.46,1.58h-1.7a5.12,5.12,0,0,1,.58-2.19,4.55,4.55,0,0,1,1.3-1.48,5.53,5.53,0,0,1,1.84-.84,9.38,9.38,0,0,1,2.22-.26,8.41,8.41,0,0,1,2.05.24,4.77,4.77,0,0,1,1.68.75,3.47,3.47,0,0,1,1.11,1.38,5,5,0,0,1,.41,2.12v7.87c0,.65.11,1.07.35,1.24s.7.14,1.41-.12v1.31l-.58.17a2.71,2.71,0,0,1-.74.11,3.08,3.08,0,0,1-.75-.09,1.23,1.23,0,0,1-.67-.26,1.61,1.61,0,0,1-.4-.5,1.78,1.78,0,0,1-.21-.65,4.27,4.27,0,0,1-.06-.74,7.23,7.23,0,0,1-2.43,1.79,7.08,7.08,0,0,1-2.95.61,6.47,6.47,0,0,1-1.83-.25,4.2,4.2,0,0,1-1.55-.78,3.73,3.73,0,0,1-1.06-1.3,4,4,0,0,1-.39-1.82q0-3.69,5.05-4.36Zm2.81.83a7.91,7.91,0,0,1-2.15.59c-.72.09-1.45.17-2.17.22a6.1,6.1,0,0,0-3,.87,2.47,2.47,0,0,0-1.08,2.2,2.34,2.34,0,0,0,.27,1.16,2.39,2.39,0,0,0,.7.81,2.89,2.89,0,0,0,1,.47,4.16,4.16,0,0,0,1.16.16,7.9,7.9,0,0,0,1.95-.25,5.34,5.34,0,0,0,1.69-.77,3.94,3.94,0,0,0,1.19-1.31,3.88,3.88,0,0,0,.44-1.89Z"/><path class="cls-4" d="M250.67,271.76H249V257.31h1.68V260h.05a4.91,4.91,0,0,1,1.8-2.42,5.56,5.56,0,0,1,2.92-.68v1.81a4.8,4.8,0,0,0-2.34.45,3.82,3.82,0,0,0-1.47,1.28,5.16,5.16,0,0,0-.75,1.91,12.4,12.4,0,0,0-.21,2.31Z"/><path class="cls-4" d="M264.84,263.34l1.13-.17a4.12,4.12,0,0,0,1.08-.31.87.87,0,0,0,.51-.65,3.84,3.84,0,0,0,.1-.85,2.85,2.85,0,0,0-.82-2.11,3.85,3.85,0,0,0-2.78-.82,7.81,7.81,0,0,0-1.59.15,3.45,3.45,0,0,0-1.27.53,3,3,0,0,0-.89,1,4.27,4.27,0,0,0-.46,1.58h-1.71a5.27,5.27,0,0,1,.59-2.19A4.55,4.55,0,0,1,260,258a5.44,5.44,0,0,1,1.84-.84,9.38,9.38,0,0,1,2.22-.26,8.47,8.47,0,0,1,2.05.24,4.64,4.64,0,0,1,1.67.75,3.41,3.41,0,0,1,1.12,1.38,5,5,0,0,1,.41,2.12v7.87c0,.65.11,1.07.34,1.24s.71.14,1.41-.12v1.31l-.57.17a2.76,2.76,0,0,1-.74.11,3.08,3.08,0,0,1-.75-.09,1.23,1.23,0,0,1-.67-.26,1.8,1.8,0,0,1-.41-.5,2.25,2.25,0,0,1-.21-.65,5.62,5.62,0,0,1-.05-.74,7.23,7.23,0,0,1-2.43,1.79,7.13,7.13,0,0,1-3,.61,6.45,6.45,0,0,1-1.82-.25,4.12,4.12,0,0,1-1.55-.78,3.73,3.73,0,0,1-1.06-1.3,4,4,0,0,1-.39-1.82q0-3.69,5-4.36Zm2.82.83a8,8,0,0,1-2.15.59c-.72.09-1.45.17-2.17.22a6.1,6.1,0,0,0-3,.87,2.47,2.47,0,0,0-1.08,2.2,2.34,2.34,0,0,0,.27,1.16,2.37,2.37,0,0,0,.69.81,3,3,0,0,0,1,.47,4.16,4.16,0,0,0,1.16.16,7.9,7.9,0,0,0,1.95-.25,5.44,5.44,0,0,0,1.69-.77,3.75,3.75,0,0,0,1.63-3.2Z"/><path class="cls-4" d="M281.84,271.76V251.67h1.89v10.41L294,251.67h2.15l-7.92,8,9.32,12.08h-2.32l-8.37-10.91L283.73,264v7.75Z"/><path class="cls-4" d="M309.88,257.31h1.68v14.45h-1.68v-2a9.23,9.23,0,0,1-.75.81,5.68,5.68,0,0,1-1,.77,6,6,0,0,1-1.27.59,5.42,5.42,0,0,1-1.68.23,6.37,6.37,0,0,1-2.43-.4,4,4,0,0,1-1.57-1.13,4.53,4.53,0,0,1-.87-1.69,7.77,7.77,0,0,1-.26-2.11v-9.51h1.67v9.49a4.22,4.22,0,0,0,.87,2.86,3.58,3.58,0,0,0,2.84,1,4.17,4.17,0,0,0,1.86-.41,3.78,3.78,0,0,0,1.38-1.13,5.29,5.29,0,0,0,.86-1.73,7.31,7.31,0,0,0,.31-2.2Z"/><path class="cls-4" d="M317.36,271.76h-1.67V257.31h1.67V260h.06a4.8,4.8,0,0,1,1.8-2.42,5.5,5.5,0,0,1,2.91-.68v1.81a4.8,4.8,0,0,0-2.34.45,3.9,3.9,0,0,0-1.47,1.28,5.16,5.16,0,0,0-.75,1.91,12.4,12.4,0,0,0-.21,2.31Z"/><path class="cls-4" d="M330,271.82c-.2,0-.47.1-.81.2a4.23,4.23,0,0,1-1.11.13,2.63,2.63,0,0,1-1.91-.62,3.05,3.05,0,0,1-.66-2.25V258.7h-2v-1.39h2v-4h1.67v4h2.71v1.39h-2.71v9.91c0,.35,0,.66,0,.92a1.57,1.57,0,0,0,.17.64.83.83,0,0,0,.43.37,2.56,2.56,0,0,0,.83.11,4,4,0,0,0,.68-.06c.23,0,.46-.08.68-.14Z"/><path class="cls-4" d="M331.56,271.76v-1.47l9.6-11.59h-9v-1.39h11.1v1.48l-9.6,11.58h10v1.39Z"/><path class="cls-4" d="M148.13,303.23q-3.16,3.24-9.12,3.24t-9.12-3.24q-4.23-4-4.23-11.48,0-7.65,4.23-11.48Q133,277,139,277t9.12,3.25q4.2,3.84,4.21,11.48T148.13,303.23ZM144.49,299q2-2.55,2-7.25c0-3.12-.68-5.54-2-7.24A6.61,6.61,0,0,0,139,282a6.7,6.7,0,0,0-5.51,2.55c-1.38,1.7-2.06,4.12-2.06,7.25s.68,5.55,2.06,7.25a6.7,6.7,0,0,0,5.51,2.55A6.63,6.63,0,0,0,144.49,299Z"/><path class="cls-4" d="M173.64,287.33c1.68,1.78,2.52,4.38,2.52,7.82q0,5.43-2.46,8.28a8,8,0,0,1-6.34,2.85,6.63,6.63,0,0,1-4.1-1.22,8.1,8.1,0,0,1-1.75-2V313.8h-5.32V285.12h5.15v3a8.5,8.5,0,0,1,1.86-2.11,6.89,6.89,0,0,1,4.3-1.38A8.14,8.14,0,0,1,173.64,287.33Zm-4.13,3.87a3.82,3.82,0,0,0-3.55-1.83,4.06,4.06,0,0,0-4.07,2.78,10.41,10.41,0,0,0-.57,3.73q0,3.58,1.93,5a4.38,4.38,0,0,0,2.71.85,4,4,0,0,0,3.46-1.73,9.1,9.1,0,0,0,.09-8.84Z"/><path class="cls-4" d="M177.84,289.14v-3.83h2.87v-5.74H186v5.74h3.34v3.83H186V300a2.45,2.45,0,0,0,.32,1.57,3.52,3.52,0,0,0,2,.32h.52l.53,0v4l-2.54.09c-2.55.09-4.28-.35-5.21-1.32a3.9,3.9,0,0,1-.91-2.85V289.14Z"/><path class="cls-4" d="M210,303.18c-1.74,2.15-4.37,3.22-7.91,3.22s-6.17-1.07-7.91-3.22a12.74,12.74,0,0,1,0-15.45c1.74-2.18,4.37-3.27,7.91-3.27s6.17,1.09,7.91,3.27a12.74,12.74,0,0,1,0,15.45Zm-4.3-3a9.64,9.64,0,0,0,0-9.53,4.78,4.78,0,0,0-7.26,0,9.51,9.51,0,0,0,0,9.53,4.76,4.76,0,0,0,7.26,0Z"/><path class="cls-4" d="M242.12,285.2a6,6,0,0,1,2.4,1.85,5.91,5.91,0,0,1,1.17,2.64,18.93,18.93,0,0,1,.19,3l0,13h-5.51V292.6a4.36,4.36,0,0,0-.38-1.93,2.69,2.69,0,0,0-2.64-1.43,3.09,3.09,0,0,0-3.08,1.85,5.78,5.78,0,0,0-.44,2.36V305.7h-5.41V293.45a6.88,6.88,0,0,0-.38-2.66,2.63,2.63,0,0,0-2.66-1.5,3.17,3.17,0,0,0-3.1,1.5,5.73,5.73,0,0,0-.43,2.53V305.7h-5.46V285.16h5.23v3a8.66,8.66,0,0,1,1.89-2.28,7.46,7.46,0,0,1,7.87-.17,6,6,0,0,1,1.77,2.47,6.86,6.86,0,0,1,2.63-2.66,8,8,0,0,1,3.7-.85A7.19,7.19,0,0,1,242.12,285.2Z"/><path class="cls-4" d="M264.23,285.54a8.4,8.4,0,0,1,3.56,3,10.18,10.18,0,0,1,1.64,4.26,26.54,26.54,0,0,1,.17,4.08h-15a4.92,4.92,0,0,0,2.15,4.34,5.43,5.43,0,0,0,3,.78,4.21,4.21,0,0,0,4.09-2.36h5.49a6.72,6.72,0,0,1-2,3.72,10,10,0,0,1-7.74,3,11.25,11.25,0,0,1-7.25-2.53q-3.14-2.53-3.14-8.24,0-5.36,2.83-8.2a9.94,9.94,0,0,1,7.36-2.85A11.75,11.75,0,0,1,264.23,285.54Zm-8.05,4.65a5.53,5.53,0,0,0-1.43,3.18H264a4.52,4.52,0,0,0-1.43-3.25,4.74,4.74,0,0,0-3.2-1.11A4.24,4.24,0,0,0,256.18,290.19Z"/><path class="cls-4" d="M270.21,289.14v-3.83h2.87v-5.74h5.32v5.74h3.35v3.83H278.4V300a2.45,2.45,0,0,0,.32,1.57,3.52,3.52,0,0,0,2,.32h.52l.54,0v4l-2.55.09c-2.55.09-4.28-.35-5.21-1.32a3.9,3.9,0,0,1-.91-2.85V289.14Z"/><path class="cls-4" d="M296.63,284.64l.46,0v5.51c-.34,0-.64-.06-.9-.07s-.48,0-.65,0q-3.24,0-4.36,2.11a8.31,8.31,0,0,0-.62,3.66v9.84h-5.42V285.12h5.14v3.59a11.22,11.22,0,0,1,2.17-2.81,5.88,5.88,0,0,1,3.93-1.27Z"/><path class="cls-4" d="M305.78,282.67h-5.46v-5h5.46Zm-5.46,2.45h5.46V305.7h-5.46Z"/><path class="cls-4" d="M315.16,299.13a3.54,3.54,0,0,0,.74,2q1,1.08,3.72,1.08a5.62,5.62,0,0,0,2.53-.48,1.58,1.58,0,0,0,.18-2.79,29.72,29.72,0,0,0-5.63-1.62,11.68,11.68,0,0,1-4.94-2.18,4.67,4.67,0,0,1-1.43-3.7,6.37,6.37,0,0,1,2.24-4.89,9,9,0,0,1,6.31-2,11.56,11.56,0,0,1,6.29,1.54q2.43,1.53,2.79,5.31h-5.38a3.17,3.17,0,0,0-.59-1.64,3.69,3.69,0,0,0-3-1.1,4.42,4.42,0,0,0-2.51.55,1.59,1.59,0,0,0-.74,1.28,1.39,1.39,0,0,0,.79,1.34,34.47,34.47,0,0,0,5.62,1.5,10.28,10.28,0,0,1,4.82,2.28,5.16,5.16,0,0,1,1.58,3.87,6.26,6.26,0,0,1-2.27,5q-2.28,1.94-7.05,1.94t-7.18-2a6.69,6.69,0,0,1-2.32-5.22Z"/><path class="cls-4" d="M330.38,289.14v-3.83h2.86v-5.74h5.33v5.74h3.34v3.83h-3.34V300a2.45,2.45,0,0,0,.32,1.57,3.47,3.47,0,0,0,2,.32h.52l.54,0v4l-2.55.09q-3.81.13-5.21-1.32a4,4,0,0,1-.91-2.85V289.14Z"/><circle class="cls-3" cx="519.25" cy="59.92" r="40.63"/><circle class="cls-2" cx="519.25" cy="168.82" r="40.63"/><text class="cls-5" transform="translate(575.5 71.33)"><tspan class="cls-6">P</tspan><tspan class="cls-7" x="21.28" y="0">an</tspan><tspan class="cls-8" x="63.75" y="0">t</tspan><tspan x="75.78" y="0">one 130 U</tspan></text><text class="cls-5" transform="translate(575.5 180.23)"><tspan class="cls-6">P</tspan><tspan class="cls-7" x="21.28" y="0">an</tspan><tspan class="cls-8" x="63.75" y="0">t</tspan><tspan x="75.78" y="0">one 292 U</tspan></text></svg>