<svg enable-background="new 0 0 512 512" viewBox="0 0 512 512" xmlns="http://www.w3.org/2000/svg"><path d="m459.9 29.2h-407.8c-20.5 0-37.2 16.6-37.2 37.2v369c0 20.5 16.6 37.2 37.2 37.2h407.8c20.5 0 37.2-16.6 37.2-37.2v-369c0-20.5-16.7-37.2-37.2-37.2zm-20.6 124.9c-3.2 16.7-12.6 42.6-28.3 77.7s-35.4 68.6-59.2 100.4c-27.2 36.6-55.8 63.7-85.8 81.3-7.8 4.8-16.5 8.4-26.1 10.8s-19.3 2.2-29.2-.5c-14-5.9-25.7-20.2-35.3-42.9-4.8-11.7-11.3-34.2-19.6-67.6-8.2-32.3-14.3-53.6-18.2-64.2-1.1-3-2.6-7.6-4.3-13.9s-3.4-11.8-5.1-16.5-3.8-9.1-6.3-13.2c-3.9-6.6-8.6-10.1-14.2-10.3s-12.2 1-19.9 3.6-13.9 3.6-18.7 2.9c-2.7-.5-5.2-2.7-7.4-6.9-2.2-4.1-5.1-7.1-8.8-8.9v-2.4c9.1-6.4 23.2-18.1 42-35 18.9-16.9 34.5-29 46.8-36.4 16-9.4 30.5-12.2 43.6-8.6 6.2 1.8 12 6.4 17.3 13.7 5.4 7.3 9.4 15.2 12.2 23.7 2.5 8 6.4 26.8 11.7 56.3.7 4.6 1.7 12.8 2.9 24.5 1.3 11.8 2.4 21.4 3.4 28.8s3.2 15.8 6.5 25c3.3 9.3 7.6 16.6 12.9 22.1 9.8 10.5 19.8 12.1 29.8 4.8 6.4-4.8 14.5-16.1 24.4-34 10.7-20.8 16.7-37.2 17.8-49.1 1.6-17.4-1.4-28.7-9.1-34s-20.6-7.1-38.9-5.5c3.7-11.2 8.8-21.7 15.3-31.4s13.3-17.7 20.4-24 14.5-11.8 22.1-16.6c7.7-4.8 14.2-8.3 19.7-10.5s10.2-3.6 14.1-4.3c30.9-4.6 52.3.6 64.2 15.4 8.6 11.2 11 26.3 7.3 45.7z" fill="#fff"/></svg>