<?xml version="1.0" encoding="utf-8"?>
<!-- Generator: Adobe Illustrator 22.1.0, SVG Export Plug-In . SVG Version: 6.00 Build 0)  -->
<svg version="1.1" id="Layer_1" xmlns="http://www.w3.org/2000/svg" xmlns:xlink="http://www.w3.org/1999/xlink" x="0px" y="0px"
	 viewBox="0 0 512 512" style="enable-background:new 0 0 512 512;" xml:space="preserve">
<style type="text/css">
	.st0{fill:#FFFFFF;}
</style>
<path class="st0" d="M459.9,29.2H52.1c-20.5,0-37.2,16.6-37.2,37.2v369c0,20.5,16.6,37.2,37.2,37.2h407.8
	c20.5,0,37.2-16.6,37.2-37.2v-369C497.1,45.9,480.4,29.2,459.9,29.2z M439.3,154.1c-3.2,16.7-12.6,42.6-28.3,77.7
	c-15.7,35.1-35.4,68.6-59.2,100.4c-27.2,36.6-55.8,63.7-85.8,81.3c-7.8,4.8-16.5,8.4-26.1,10.8c-9.6,2.4-19.3,2.2-29.2-0.5
	c-14-5.9-25.7-20.2-35.3-42.9c-4.8-11.7-11.3-34.2-19.6-67.6c-8.2-32.3-14.3-53.6-18.2-64.2c-1.1-3-2.6-7.6-4.3-13.9
	c-1.7-6.3-3.4-11.8-5.1-16.5c-1.7-4.7-3.8-9.1-6.3-13.2c-3.9-6.6-8.6-10.1-14.2-10.3c-5.6-0.2-12.2,1-19.9,3.6
	c-7.7,2.6-13.9,3.6-18.7,2.9c-2.7-0.5-5.2-2.7-7.4-6.9c-2.2-4.1-5.1-7.1-8.8-8.9v-2.4c9.1-6.4,23.2-18.1,42-35
	c18.9-16.9,34.5-29,46.8-36.4c16-9.4,30.5-12.2,43.6-8.6c6.2,1.8,12,6.4,17.3,13.7c5.4,7.3,9.4,15.2,12.2,23.7
	c2.5,8,6.4,26.8,11.7,56.3c0.7,4.6,1.7,12.8,2.9,24.5c1.3,11.8,2.4,21.4,3.4,28.8c1,7.4,3.2,15.8,6.5,25c3.3,9.3,7.6,16.6,12.9,22.1
	c9.8,10.5,19.8,12.1,29.8,4.8c6.4-4.8,14.5-16.1,24.4-34c10.7-20.8,16.7-37.2,17.8-49.1c1.6-17.4-1.4-28.7-9.1-34
	c-7.7-5.3-20.6-7.1-38.9-5.5c3.7-11.2,8.8-21.7,15.3-31.4c6.5-9.7,13.3-17.7,20.4-24c7.1-6.3,14.5-11.8,22.1-16.6
	c7.7-4.8,14.2-8.3,19.7-10.5c5.5-2.2,10.2-3.6,14.1-4.3c30.9-4.6,52.3,0.6,64.2,15.4C440.6,119.6,443,134.7,439.3,154.1L439.3,154.1
	z"/>
</svg>
